%TF.GenerationSoftware,KiCad,Pcbnew,8.0.8*%
%TF.CreationDate,2025-02-13T20:03:08-06:00*%
%TF.ProjectId,kb,6b622e6b-6963-4616-945f-706362585858,rev?*%
%TF.SameCoordinates,Original*%
%TF.FileFunction,Legend,Bot*%
%TF.FilePolarity,Positive*%
%FSLAX46Y46*%
G04 Gerber Fmt 4.6, Leading zero omitted, Abs format (unit mm)*
G04 Created by KiCad (PCBNEW 8.0.8) date 2025-02-13 20:03:08*
%MOMM*%
%LPD*%
G01*
G04 APERTURE LIST*
%ADD10C,0.200000*%
%ADD11C,0.100000*%
%ADD12C,0.400000*%
%ADD13C,0.120000*%
G04 APERTURE END LIST*
D10*
G36*
X18586828Y-28724010D02*
G01*
X18383862Y-28724010D01*
X18383862Y-28343723D01*
X18162578Y-28343723D01*
X17970847Y-28724010D01*
X17743946Y-28724010D01*
X17961078Y-28314170D01*
X17909701Y-28288644D01*
X17865092Y-28255819D01*
X17828047Y-28216411D01*
X17799357Y-28171135D01*
X17779818Y-28120708D01*
X17770223Y-28065844D01*
X17769458Y-28045747D01*
X17975000Y-28045747D01*
X17985845Y-28099832D01*
X18016521Y-28141185D01*
X18064232Y-28167609D01*
X18117758Y-28176755D01*
X18126186Y-28176906D01*
X18383862Y-28176906D01*
X18383862Y-27914344D01*
X18126186Y-27914344D01*
X18071255Y-27921664D01*
X18026961Y-27942467D01*
X17991764Y-27980529D01*
X17975699Y-28031351D01*
X17975000Y-28045747D01*
X17769458Y-28045747D01*
X17769347Y-28042816D01*
X17772970Y-27994014D01*
X17788589Y-27933978D01*
X17815665Y-27880455D01*
X17853248Y-27834275D01*
X17900388Y-27796268D01*
X17956135Y-27767264D01*
X18003022Y-27751919D01*
X18053814Y-27742455D01*
X18108112Y-27739222D01*
X18586828Y-27739222D01*
X18586828Y-28724010D01*
G37*
G36*
X17276465Y-28739641D02*
G01*
X17207997Y-28736475D01*
X17144616Y-28727141D01*
X17086681Y-28711885D01*
X17034553Y-28690955D01*
X16988591Y-28664595D01*
X16949155Y-28633053D01*
X16916606Y-28596574D01*
X16884539Y-28540683D01*
X16869456Y-28493645D01*
X16862458Y-28442491D01*
X16861985Y-28424568D01*
X16866586Y-28369937D01*
X16880387Y-28320910D01*
X16903381Y-28277504D01*
X16935563Y-28239737D01*
X16976927Y-28207626D01*
X17027467Y-28181187D01*
X17087178Y-28160439D01*
X17137975Y-28148622D01*
X17156053Y-28145398D01*
X17340945Y-28114135D01*
X17391318Y-28103623D01*
X17439759Y-28083556D01*
X17473214Y-28046816D01*
X17480896Y-28006424D01*
X17464993Y-27955259D01*
X17426294Y-27921478D01*
X17375795Y-27902491D01*
X17321667Y-27895071D01*
X17301622Y-27894561D01*
X17252369Y-27897384D01*
X17203980Y-27905914D01*
X17156103Y-27920240D01*
X17108386Y-27940452D01*
X17060477Y-27966638D01*
X17012023Y-27998889D01*
X16992411Y-28013507D01*
X16882990Y-27860855D01*
X16925935Y-27830484D01*
X16972295Y-27803447D01*
X17021454Y-27779965D01*
X17072797Y-27760258D01*
X17125708Y-27744547D01*
X17179573Y-27733051D01*
X17233775Y-27725993D01*
X17287700Y-27723591D01*
X17352228Y-27726551D01*
X17411675Y-27735291D01*
X17465765Y-27749602D01*
X17514221Y-27769276D01*
X17556766Y-27794104D01*
X17603822Y-27834863D01*
X17639224Y-27883917D01*
X17662315Y-27940772D01*
X17672442Y-28004932D01*
X17672871Y-28022056D01*
X17668807Y-28073794D01*
X17652368Y-28131344D01*
X17623433Y-28180738D01*
X17582138Y-28221720D01*
X17540291Y-28248276D01*
X17490688Y-28269152D01*
X17433397Y-28284216D01*
X17417882Y-28287059D01*
X17223220Y-28321009D01*
X17173944Y-28331411D01*
X17127713Y-28347303D01*
X17086267Y-28375528D01*
X17063470Y-28424662D01*
X17062264Y-28442886D01*
X17076213Y-28494601D01*
X17116150Y-28533836D01*
X17161437Y-28553957D01*
X17218525Y-28565233D01*
X17262543Y-28567450D01*
X17316417Y-28564197D01*
X17368415Y-28554239D01*
X17419308Y-28537272D01*
X17469868Y-28512996D01*
X17520866Y-28481108D01*
X17562499Y-28449914D01*
X17594469Y-28423102D01*
X17710484Y-28570381D01*
X17664597Y-28608579D01*
X17615363Y-28642268D01*
X17563262Y-28671270D01*
X17508770Y-28695403D01*
X17452367Y-28714486D01*
X17394530Y-28728341D01*
X17335736Y-28736786D01*
X17276465Y-28739641D01*
G37*
G36*
X16497330Y-28724010D02*
G01*
X16294364Y-28724010D01*
X16294364Y-27918497D01*
X15965369Y-27918497D01*
X15965369Y-27739222D01*
X16827791Y-27739222D01*
X16827791Y-27918497D01*
X16497330Y-27918497D01*
X16497330Y-28724010D01*
G37*
G36*
X18586828Y-24524010D02*
G01*
X18103960Y-24524010D01*
X18047917Y-24521067D01*
X17995834Y-24512424D01*
X17948048Y-24498355D01*
X17891606Y-24471632D01*
X17844212Y-24436406D01*
X17806670Y-24393328D01*
X17779785Y-24343052D01*
X17764361Y-24286230D01*
X17760799Y-24239711D01*
X17761975Y-24229697D01*
X17965230Y-24229697D01*
X17976121Y-24281511D01*
X18007117Y-24321441D01*
X18055699Y-24347128D01*
X18110653Y-24356067D01*
X18119347Y-24356215D01*
X18383862Y-24356215D01*
X18383862Y-24101958D01*
X18119347Y-24101958D01*
X18070297Y-24107132D01*
X18023410Y-24125385D01*
X17985524Y-24160514D01*
X17966798Y-24208711D01*
X17965230Y-24229697D01*
X17761975Y-24229697D01*
X17766994Y-24186965D01*
X17784910Y-24138405D01*
X17813542Y-24094920D01*
X17851886Y-24057399D01*
X17898936Y-24026729D01*
X17916381Y-24018183D01*
X17871109Y-23983964D01*
X17835366Y-23942730D01*
X17810193Y-23895245D01*
X17796635Y-23842277D01*
X17795547Y-23825719D01*
X17996004Y-23825719D01*
X18006137Y-23874793D01*
X18039722Y-23915763D01*
X18086637Y-23937573D01*
X18138886Y-23943933D01*
X18383862Y-23943933D01*
X18383862Y-23707261D01*
X18138886Y-23707261D01*
X18086637Y-23713624D01*
X18039722Y-23735457D01*
X18006137Y-23776504D01*
X17996004Y-23825719D01*
X17795547Y-23825719D01*
X17794504Y-23809843D01*
X17800662Y-23751933D01*
X17818577Y-23699553D01*
X17847415Y-23653377D01*
X17886339Y-23614083D01*
X17934514Y-23582345D01*
X17991104Y-23558838D01*
X18038566Y-23547017D01*
X18089939Y-23540491D01*
X18126186Y-23539222D01*
X18586828Y-23539222D01*
X18586828Y-24524010D01*
G37*
G36*
X17206717Y-23526165D02*
G01*
X17258619Y-23533729D01*
X17308587Y-23546049D01*
X17356374Y-23562887D01*
X17401739Y-23584009D01*
X17444438Y-23609178D01*
X17484226Y-23638159D01*
X17520860Y-23670717D01*
X17554097Y-23706614D01*
X17583693Y-23745616D01*
X17609405Y-23787486D01*
X17630987Y-23831989D01*
X17648198Y-23878890D01*
X17660793Y-23927952D01*
X17668529Y-23978939D01*
X17671161Y-24031616D01*
X17668529Y-24084333D01*
X17660793Y-24135350D01*
X17648198Y-24184433D01*
X17630987Y-24231346D01*
X17609405Y-24275854D01*
X17583693Y-24317724D01*
X17554097Y-24356719D01*
X17520860Y-24392607D01*
X17484226Y-24425151D01*
X17444438Y-24454118D01*
X17401739Y-24479272D01*
X17356374Y-24500379D01*
X17308587Y-24517204D01*
X17258619Y-24529513D01*
X17206717Y-24537070D01*
X17153122Y-24539641D01*
X17099327Y-24537070D01*
X17047275Y-24529513D01*
X16997205Y-24517204D01*
X16949355Y-24500379D01*
X16903964Y-24479272D01*
X16861270Y-24454118D01*
X16821511Y-24425151D01*
X16784926Y-24392607D01*
X16751753Y-24356719D01*
X16722229Y-24317724D01*
X16696594Y-24275854D01*
X16675086Y-24231346D01*
X16657942Y-24184433D01*
X16645402Y-24135350D01*
X16637703Y-24084333D01*
X16635083Y-24031616D01*
X16842445Y-24031616D01*
X16845911Y-24081660D01*
X16860763Y-24144070D01*
X16886316Y-24200501D01*
X16921486Y-24249816D01*
X16965194Y-24290874D01*
X17016356Y-24322538D01*
X17073890Y-24343666D01*
X17136716Y-24353122D01*
X17153122Y-24353528D01*
X17216698Y-24347169D01*
X17275354Y-24328852D01*
X17327994Y-24299715D01*
X17373521Y-24260899D01*
X17410839Y-24213542D01*
X17438852Y-24158782D01*
X17456464Y-24097761D01*
X17462187Y-24048570D01*
X17462578Y-24031616D01*
X17459113Y-23981295D01*
X17444273Y-23918703D01*
X17418758Y-23862255D01*
X17383663Y-23813042D01*
X17340085Y-23772155D01*
X17289121Y-23740683D01*
X17231867Y-23719718D01*
X17169418Y-23710350D01*
X17153122Y-23709948D01*
X17089143Y-23716246D01*
X17030184Y-23734414D01*
X16977328Y-23763361D01*
X16931655Y-23801997D01*
X16894249Y-23849231D01*
X16866190Y-23903972D01*
X16848562Y-23965131D01*
X16842836Y-24014555D01*
X16842445Y-24031616D01*
X16635083Y-24031616D01*
X16637703Y-23978939D01*
X16645402Y-23927952D01*
X16657942Y-23878890D01*
X16675086Y-23831989D01*
X16696594Y-23787486D01*
X16722229Y-23745616D01*
X16751753Y-23706614D01*
X16784926Y-23670717D01*
X16821511Y-23638159D01*
X16861270Y-23609178D01*
X16903964Y-23584009D01*
X16949355Y-23562887D01*
X16997205Y-23546049D01*
X17047275Y-23533729D01*
X17099327Y-23526165D01*
X17153122Y-23523591D01*
X17206717Y-23526165D01*
G37*
G36*
X16068545Y-23526165D02*
G01*
X16120448Y-23533729D01*
X16170415Y-23546049D01*
X16218203Y-23562887D01*
X16263568Y-23584009D01*
X16306266Y-23609178D01*
X16346054Y-23638159D01*
X16382689Y-23670717D01*
X16415926Y-23706614D01*
X16445522Y-23745616D01*
X16471233Y-23787486D01*
X16492816Y-23831989D01*
X16510026Y-23878890D01*
X16522621Y-23927952D01*
X16530357Y-23978939D01*
X16532990Y-24031616D01*
X16530357Y-24084333D01*
X16522621Y-24135350D01*
X16510026Y-24184433D01*
X16492816Y-24231346D01*
X16471233Y-24275854D01*
X16445522Y-24317724D01*
X16415926Y-24356719D01*
X16382689Y-24392607D01*
X16346054Y-24425151D01*
X16306266Y-24454118D01*
X16263568Y-24479272D01*
X16218203Y-24500379D01*
X16170415Y-24517204D01*
X16120448Y-24529513D01*
X16068545Y-24537070D01*
X16014951Y-24539641D01*
X15961155Y-24537070D01*
X15909103Y-24529513D01*
X15859033Y-24517204D01*
X15811183Y-24500379D01*
X15765793Y-24479272D01*
X15723099Y-24454118D01*
X15683340Y-24425151D01*
X15646755Y-24392607D01*
X15613581Y-24356719D01*
X15584058Y-24317724D01*
X15558422Y-24275854D01*
X15536914Y-24231346D01*
X15519770Y-24184433D01*
X15507230Y-24135350D01*
X15499531Y-24084333D01*
X15496912Y-24031616D01*
X15704274Y-24031616D01*
X15707740Y-24081660D01*
X15722592Y-24144070D01*
X15748144Y-24200501D01*
X15783315Y-24249816D01*
X15827022Y-24290874D01*
X15878184Y-24322538D01*
X15935719Y-24343666D01*
X15998544Y-24353122D01*
X16014951Y-24353528D01*
X16078527Y-24347169D01*
X16137183Y-24328852D01*
X16189822Y-24299715D01*
X16235349Y-24260899D01*
X16272667Y-24213542D01*
X16300680Y-24158782D01*
X16318292Y-24097761D01*
X16324016Y-24048570D01*
X16324406Y-24031616D01*
X16320941Y-23981295D01*
X16306101Y-23918703D01*
X16280586Y-23862255D01*
X16245491Y-23813042D01*
X16201914Y-23772155D01*
X16150950Y-23740683D01*
X16093695Y-23719718D01*
X16031246Y-23710350D01*
X16014951Y-23709948D01*
X15950971Y-23716246D01*
X15892013Y-23734414D01*
X15839156Y-23763361D01*
X15793483Y-23801997D01*
X15756077Y-23849231D01*
X15728019Y-23903972D01*
X15710390Y-23965131D01*
X15704664Y-24014555D01*
X15704274Y-24031616D01*
X15496912Y-24031616D01*
X15499531Y-23978939D01*
X15507230Y-23927952D01*
X15519770Y-23878890D01*
X15536914Y-23831989D01*
X15558422Y-23787486D01*
X15584058Y-23745616D01*
X15613581Y-23706614D01*
X15646755Y-23670717D01*
X15683340Y-23638159D01*
X15723099Y-23609178D01*
X15765793Y-23584009D01*
X15811183Y-23562887D01*
X15859033Y-23546049D01*
X15909103Y-23533729D01*
X15961155Y-23526165D01*
X16014951Y-23523591D01*
X16068545Y-23526165D01*
G37*
G36*
X15150087Y-24524010D02*
G01*
X14947121Y-24524010D01*
X14947121Y-23718497D01*
X14618126Y-23718497D01*
X14618126Y-23539222D01*
X15480547Y-23539222D01*
X15480547Y-23718497D01*
X15150087Y-23718497D01*
X15150087Y-24524010D01*
G37*
G36*
X14184305Y-23528871D02*
G01*
X14249308Y-23544374D01*
X14309058Y-23569595D01*
X14363102Y-23604026D01*
X14410992Y-23647163D01*
X14452277Y-23698500D01*
X14486505Y-23757529D01*
X14513227Y-23823746D01*
X14526650Y-23871634D01*
X14536402Y-23922342D01*
X14542352Y-23975719D01*
X14544364Y-24031616D01*
X14542352Y-24087553D01*
X14536402Y-24140960D01*
X14526650Y-24191688D01*
X14513227Y-24239589D01*
X14486505Y-24305811D01*
X14452277Y-24364834D01*
X14410992Y-24416154D01*
X14363102Y-24459270D01*
X14309058Y-24493679D01*
X14249308Y-24518878D01*
X14184305Y-24534367D01*
X14114497Y-24539641D01*
X14044315Y-24534367D01*
X13979006Y-24518878D01*
X13919015Y-24493679D01*
X13864784Y-24459270D01*
X13816756Y-24416154D01*
X13775375Y-24364834D01*
X13741083Y-24305811D01*
X13714324Y-24239589D01*
X13700889Y-24191688D01*
X13691129Y-24140960D01*
X13685177Y-24087553D01*
X13683164Y-24031616D01*
X13869521Y-24031616D01*
X13871999Y-24088631D01*
X13879299Y-24141217D01*
X13891218Y-24189114D01*
X13913949Y-24245242D01*
X13944056Y-24291969D01*
X13981062Y-24328686D01*
X14024489Y-24354784D01*
X14073858Y-24369652D01*
X14114497Y-24373067D01*
X14167596Y-24367021D01*
X14215194Y-24349288D01*
X14256804Y-24320478D01*
X14291939Y-24281202D01*
X14320114Y-24232067D01*
X14340841Y-24173685D01*
X14351207Y-24124196D01*
X14356904Y-24070106D01*
X14358007Y-24031616D01*
X14355536Y-23974663D01*
X14348260Y-23922128D01*
X14336384Y-23874271D01*
X14313750Y-23818183D01*
X14283789Y-23771482D01*
X14246989Y-23734780D01*
X14203837Y-23708690D01*
X14154818Y-23693824D01*
X14114497Y-23690409D01*
X14060984Y-23696455D01*
X14013056Y-23714184D01*
X13971190Y-23742985D01*
X13935864Y-23782244D01*
X13907556Y-23831349D01*
X13886744Y-23889688D01*
X13876343Y-23939133D01*
X13870628Y-23993169D01*
X13869521Y-24031616D01*
X13683164Y-24031616D01*
X13685177Y-23975719D01*
X13691129Y-23922342D01*
X13700889Y-23871634D01*
X13714324Y-23823746D01*
X13741083Y-23757529D01*
X13775375Y-23698500D01*
X13816756Y-23647163D01*
X13864784Y-23604026D01*
X13919015Y-23569595D01*
X13979006Y-23544374D01*
X14044315Y-23528871D01*
X14114497Y-23523591D01*
X14184305Y-23528871D01*
G37*
D11*
X18825000Y-51875000D02*
X19925000Y-51875000D01*
X20325000Y-51875000D02*
X21425000Y-51875000D01*
X21825000Y-51875000D02*
X22925000Y-51875000D01*
X23325000Y-51875000D02*
X24425000Y-51875000D01*
X24825000Y-51875000D02*
X25925000Y-51875000D01*
X26325000Y-51875000D02*
X27425000Y-51875000D01*
X27825000Y-51875000D02*
X28925000Y-51875000D01*
X28925000Y-51875000D02*
X28925000Y-52975000D01*
X28925000Y-53375000D02*
X28925000Y-54475000D01*
X28925000Y-54875000D02*
X28925000Y-55975000D01*
X28925000Y-56375000D02*
X28925000Y-57475000D01*
X28925000Y-57875000D02*
X28925000Y-58975000D01*
X28925000Y-59375000D02*
X28925000Y-60475000D01*
X28925000Y-60875000D02*
X28925000Y-61975000D01*
X28925000Y-62375000D02*
X28925000Y-62875000D01*
X28925000Y-62875000D02*
X27825000Y-62875000D01*
X27425000Y-62875000D02*
X26325000Y-62875000D01*
X25925000Y-62875000D02*
X24825000Y-62875000D01*
X24425000Y-62875000D02*
X23325000Y-62875000D01*
X22925000Y-62875000D02*
X21825000Y-62875000D01*
X21425000Y-62875000D02*
X20325000Y-62875000D01*
X19925000Y-62875000D02*
X18825000Y-62875000D01*
X18825000Y-62875000D02*
X18825000Y-61775000D01*
X18825000Y-61375000D02*
X18825000Y-60275000D01*
X18825000Y-59875000D02*
X18825000Y-58775000D01*
X18825000Y-58375000D02*
X18825000Y-57275000D01*
X18825000Y-56875000D02*
X18825000Y-55775000D01*
X18825000Y-55375000D02*
X18825000Y-54275000D01*
X18825000Y-53875000D02*
X18825000Y-52775000D01*
X18825000Y-52375000D02*
X18825000Y-51875000D01*
D12*
G36*
X22361671Y-61249410D02*
G01*
X21832641Y-61249410D01*
X21815253Y-61249115D01*
X21705344Y-61231237D01*
X21608182Y-61179862D01*
X21546190Y-61100002D01*
X21524406Y-60996374D01*
X21527543Y-60954403D01*
X21564995Y-60858008D01*
X21640767Y-60787751D01*
X21734540Y-60751245D01*
X21832641Y-60740896D01*
X22361671Y-60740896D01*
X22361671Y-61249410D01*
G37*
G36*
X22361671Y-60424846D02*
G01*
X21871720Y-60424846D01*
X21767220Y-60412126D01*
X21673391Y-60368506D01*
X21606220Y-60286566D01*
X21585955Y-60188419D01*
X21606220Y-60089989D01*
X21673391Y-60007894D01*
X21767220Y-59964228D01*
X21871720Y-59951503D01*
X22361671Y-59951503D01*
X22361671Y-60424846D01*
G37*
G36*
X26817110Y-61838485D02*
G01*
X20893322Y-61838485D01*
X20893322Y-61016402D01*
X21115544Y-61016402D01*
X21122669Y-61109441D01*
X21153517Y-61223085D01*
X21207287Y-61323637D01*
X21282370Y-61409792D01*
X21377158Y-61480245D01*
X21490043Y-61533690D01*
X21585614Y-61561828D01*
X21689782Y-61579115D01*
X21801866Y-61585000D01*
X22767602Y-61585000D01*
X22767602Y-60986116D01*
X23005006Y-60986116D01*
X23005954Y-61021962D01*
X23019949Y-61124270D01*
X23050115Y-61218347D01*
X23114248Y-61330129D01*
X23179347Y-61403086D01*
X23258219Y-61466170D01*
X23350143Y-61518890D01*
X23454399Y-61560751D01*
X23570268Y-61591263D01*
X23697031Y-61609930D01*
X23833967Y-61616263D01*
X23952509Y-61610552D01*
X24070096Y-61593662D01*
X24185771Y-61565953D01*
X24298578Y-61527786D01*
X24407560Y-61479520D01*
X24511763Y-61421517D01*
X24610230Y-61354138D01*
X24702006Y-61277742D01*
X24469975Y-60983185D01*
X24406035Y-61036809D01*
X24322769Y-61099197D01*
X24220773Y-61162973D01*
X24119653Y-61211525D01*
X24017866Y-61245458D01*
X23913871Y-61265375D01*
X23806123Y-61271880D01*
X23718086Y-61267447D01*
X23603910Y-61244895D01*
X23513337Y-61204652D01*
X23433462Y-61126182D01*
X23405565Y-61022752D01*
X23407978Y-60986305D01*
X23453571Y-60888036D01*
X23536463Y-60831586D01*
X23628924Y-60799803D01*
X23727477Y-60778998D01*
X23957152Y-60738942D01*
X24858810Y-60738942D01*
X24862778Y-60837103D01*
X24883252Y-60975330D01*
X24920458Y-61102093D01*
X24973616Y-61216665D01*
X25041945Y-61318319D01*
X25124667Y-61406329D01*
X25221000Y-61479966D01*
X25330165Y-61538506D01*
X25451381Y-61581219D01*
X25583869Y-61607381D01*
X25726849Y-61616263D01*
X25870618Y-61607451D01*
X26003586Y-61581471D01*
X26125023Y-61539006D01*
X26234200Y-61480739D01*
X26330388Y-61407355D01*
X26412856Y-61319537D01*
X26480877Y-61217967D01*
X26533720Y-61103330D01*
X26570657Y-60976308D01*
X26590957Y-60837586D01*
X26594888Y-60738942D01*
X26594888Y-59615425D01*
X26188956Y-59615425D01*
X26188956Y-60738942D01*
X26180596Y-60848035D01*
X26156144Y-60945999D01*
X26104389Y-61051201D01*
X26030812Y-61135311D01*
X25937258Y-61196274D01*
X25825571Y-61232030D01*
X25724406Y-61241106D01*
X25624173Y-61232030D01*
X25513655Y-61196274D01*
X25421200Y-61135311D01*
X25348575Y-61051201D01*
X25297546Y-60945999D01*
X25273460Y-60848035D01*
X25265230Y-60738942D01*
X25265230Y-59615425D01*
X24858810Y-59615425D01*
X24858810Y-60738942D01*
X23957152Y-60738942D01*
X24116800Y-60711099D01*
X24147832Y-60705413D01*
X24262414Y-60675285D01*
X24361620Y-60633533D01*
X24445312Y-60580421D01*
X24527903Y-60498456D01*
X24585772Y-60399668D01*
X24618650Y-60284569D01*
X24626779Y-60181092D01*
X24625921Y-60146845D01*
X24605667Y-60018525D01*
X24559484Y-59904815D01*
X24488681Y-59806706D01*
X24394569Y-59725188D01*
X24309478Y-59675533D01*
X24212566Y-59636185D01*
X24104387Y-59607562D01*
X23985492Y-59590082D01*
X23856437Y-59584162D01*
X23748588Y-59588966D01*
X23640183Y-59603083D01*
X23532454Y-59626074D01*
X23426631Y-59657496D01*
X23323945Y-59696910D01*
X23225626Y-59743874D01*
X23132907Y-59797948D01*
X23047016Y-59858691D01*
X23265858Y-60163995D01*
X23305083Y-60134758D01*
X23401991Y-60070257D01*
X23497809Y-60017884D01*
X23593243Y-59977461D01*
X23688997Y-59948809D01*
X23785774Y-59931749D01*
X23884281Y-59926102D01*
X23924371Y-59927123D01*
X24032628Y-59941963D01*
X24133624Y-59979936D01*
X24211024Y-60047499D01*
X24242829Y-60149829D01*
X24227465Y-60230612D01*
X24160555Y-60304092D01*
X24063673Y-60344226D01*
X23962927Y-60365251D01*
X23593143Y-60427777D01*
X23556988Y-60434225D01*
X23455392Y-60457859D01*
X23335971Y-60499355D01*
X23234890Y-60552232D01*
X23152163Y-60616454D01*
X23087799Y-60691988D01*
X23041811Y-60778800D01*
X23014209Y-60876854D01*
X23005006Y-60986116D01*
X22767602Y-60986116D01*
X22767602Y-59615425D01*
X21846318Y-59615425D01*
X21773824Y-59617962D01*
X21671079Y-59631014D01*
X21576155Y-59654657D01*
X21462975Y-59701670D01*
X21366625Y-59765146D01*
X21288777Y-59843735D01*
X21231101Y-59936086D01*
X21195270Y-60040847D01*
X21182955Y-60156667D01*
X21185042Y-60188419D01*
X21187218Y-60221535D01*
X21214334Y-60327470D01*
X21264678Y-60422440D01*
X21336166Y-60504909D01*
X21426709Y-60573346D01*
X21391820Y-60590439D01*
X21297718Y-60651778D01*
X21221031Y-60726821D01*
X21163766Y-60813791D01*
X21127934Y-60910911D01*
X21117896Y-60996374D01*
X21115544Y-61016402D01*
X20893322Y-61016402D01*
X20893322Y-59361940D01*
X26817110Y-59361940D01*
X26817110Y-61838485D01*
G37*
D10*
G36*
X26859641Y-86881803D02*
G01*
X26855200Y-86953293D01*
X26842119Y-87019537D01*
X26820763Y-87080145D01*
X26791493Y-87134728D01*
X26754674Y-87182894D01*
X26710669Y-87224255D01*
X26659842Y-87258420D01*
X26602556Y-87284999D01*
X26539175Y-87303602D01*
X26470061Y-87313839D01*
X26420981Y-87315823D01*
X25859222Y-87315823D01*
X25859222Y-87112613D01*
X26420981Y-87112613D01*
X26475527Y-87108498D01*
X26524509Y-87096455D01*
X26577110Y-87070940D01*
X26619165Y-87034628D01*
X26649647Y-86988400D01*
X26667525Y-86933141D01*
X26672063Y-86883025D01*
X26667525Y-86832442D01*
X26649647Y-86776599D01*
X26619165Y-86729822D01*
X26577110Y-86693033D01*
X26524509Y-86667156D01*
X26475527Y-86654930D01*
X26420981Y-86650750D01*
X25859222Y-86650750D01*
X25859222Y-86447784D01*
X26420981Y-86447784D01*
X26470303Y-86449749D01*
X26539664Y-86459899D01*
X26603175Y-86478368D01*
X26660493Y-86504789D01*
X26711278Y-86538800D01*
X26755187Y-86580034D01*
X26791879Y-86628128D01*
X26821013Y-86682716D01*
X26842245Y-86743435D01*
X26855235Y-86809919D01*
X26859641Y-86881803D01*
G37*
G36*
X26844010Y-87745690D02*
G01*
X26844010Y-87948656D01*
X26038497Y-87948656D01*
X26038497Y-88277651D01*
X25859222Y-88277651D01*
X25859222Y-87415230D01*
X26038497Y-87415230D01*
X26038497Y-87745690D01*
X26844010Y-87745690D01*
G37*
G36*
X26844010Y-88298168D02*
G01*
X26844010Y-88532152D01*
X26486926Y-88788363D01*
X26844010Y-89044574D01*
X26844010Y-89286618D01*
X26334763Y-88908775D01*
X25859222Y-89257309D01*
X25859222Y-89023569D01*
X26182844Y-88792515D01*
X25859222Y-88559996D01*
X25859222Y-88317951D01*
X26334763Y-88672103D01*
X26844010Y-88298168D01*
G37*
G36*
X31939641Y-86944818D02*
G01*
X31937164Y-86996946D01*
X31929868Y-87047138D01*
X31917953Y-87095195D01*
X31891858Y-87162850D01*
X31856501Y-87224597D01*
X31812557Y-87279772D01*
X31760704Y-87327711D01*
X31701620Y-87367750D01*
X31635982Y-87399224D01*
X31588917Y-87415121D01*
X31539441Y-87426720D01*
X31487755Y-87433823D01*
X31434058Y-87436235D01*
X31372509Y-87436235D01*
X31372509Y-86929431D01*
X31548852Y-86929431D01*
X31548852Y-87219103D01*
X31602398Y-87201461D01*
X31649803Y-87172905D01*
X31689868Y-87134616D01*
X31721390Y-87087772D01*
X31743166Y-87033554D01*
X31753996Y-86973141D01*
X31754993Y-86947505D01*
X31751390Y-86898681D01*
X31735953Y-86837830D01*
X31709407Y-86782841D01*
X31672889Y-86734813D01*
X31627534Y-86694845D01*
X31574479Y-86664036D01*
X31514860Y-86643485D01*
X31466522Y-86635465D01*
X31432837Y-86633897D01*
X31382430Y-86637296D01*
X31319677Y-86651885D01*
X31263034Y-86677033D01*
X31213613Y-86711720D01*
X31172524Y-86754928D01*
X31140877Y-86805639D01*
X31119783Y-86862832D01*
X31110353Y-86925489D01*
X31109948Y-86941887D01*
X31114693Y-86999551D01*
X31128740Y-87054102D01*
X31151810Y-87105104D01*
X31183622Y-87152123D01*
X31223896Y-87194724D01*
X31239153Y-87207868D01*
X31107017Y-87349284D01*
X31066177Y-87311513D01*
X31029928Y-87268902D01*
X30998533Y-87221991D01*
X30972256Y-87171323D01*
X30951360Y-87117437D01*
X30936108Y-87060875D01*
X30926764Y-87002178D01*
X30923591Y-86941887D01*
X30926168Y-86888349D01*
X30933742Y-86836523D01*
X30946078Y-86786649D01*
X30962941Y-86738967D01*
X30984095Y-86693718D01*
X31009307Y-86651143D01*
X31038341Y-86611481D01*
X31070961Y-86574973D01*
X31106933Y-86541860D01*
X31146021Y-86512382D01*
X31187991Y-86486780D01*
X31232608Y-86465293D01*
X31279636Y-86448163D01*
X31328840Y-86435629D01*
X31379985Y-86427932D01*
X31432837Y-86425314D01*
X31485340Y-86427947D01*
X31536169Y-86435685D01*
X31585088Y-86448287D01*
X31631861Y-86465511D01*
X31676251Y-86487115D01*
X31718022Y-86512859D01*
X31756937Y-86542500D01*
X31792760Y-86575798D01*
X31825254Y-86612510D01*
X31854182Y-86652395D01*
X31879309Y-86695212D01*
X31900398Y-86740719D01*
X31917212Y-86788674D01*
X31929515Y-86838837D01*
X31937070Y-86890966D01*
X31939641Y-86944818D01*
G37*
G36*
X31924010Y-87573988D02*
G01*
X31924010Y-87765718D01*
X31265775Y-87765718D01*
X31924010Y-88265439D01*
X31924010Y-88444713D01*
X30939222Y-88444713D01*
X30939222Y-88254448D01*
X31575231Y-88254448D01*
X30939222Y-87767184D01*
X30939222Y-87573988D01*
X31924010Y-87573988D01*
G37*
G36*
X31924010Y-88998900D02*
G01*
X31921550Y-89052938D01*
X31914315Y-89105169D01*
X31902522Y-89155362D01*
X31886388Y-89203286D01*
X31866130Y-89248708D01*
X31841964Y-89291396D01*
X31798862Y-89349797D01*
X31748188Y-89400743D01*
X31690673Y-89443453D01*
X31627048Y-89477143D01*
X31558047Y-89501032D01*
X31509419Y-89511126D01*
X31458944Y-89516284D01*
X31433081Y-89516939D01*
X31381489Y-89514336D01*
X31331639Y-89506681D01*
X31283749Y-89494206D01*
X31216069Y-89466963D01*
X31154032Y-89430180D01*
X31098377Y-89384638D01*
X31049844Y-89331120D01*
X31009170Y-89270408D01*
X30986786Y-89226324D01*
X30968442Y-89179622D01*
X30954359Y-89130535D01*
X30944753Y-89079294D01*
X30939846Y-89026130D01*
X30939222Y-88998900D01*
X30939222Y-88997435D01*
X31119962Y-88997435D01*
X31126184Y-89060590D01*
X31144089Y-89119049D01*
X31172538Y-89171663D01*
X31210393Y-89217284D01*
X31256514Y-89254765D01*
X31309762Y-89282959D01*
X31368997Y-89300716D01*
X31433081Y-89306891D01*
X31496629Y-89300716D01*
X31555363Y-89282959D01*
X31608155Y-89254765D01*
X31653877Y-89217284D01*
X31691402Y-89171663D01*
X31719601Y-89119049D01*
X31737348Y-89060590D01*
X31743514Y-88997435D01*
X31743514Y-88825244D01*
X31119962Y-88825244D01*
X31119962Y-88997435D01*
X30939222Y-88997435D01*
X30939222Y-88622278D01*
X31924010Y-88622278D01*
X31924010Y-88998900D01*
G37*
G36*
X19350752Y-89169118D02*
G01*
X18112480Y-89169118D01*
X18112480Y-88681385D01*
X18223591Y-88681385D01*
X18224937Y-88718991D01*
X18231852Y-88772490D01*
X18244348Y-88822126D01*
X18269122Y-88881578D01*
X18302451Y-88932436D01*
X18343554Y-88973710D01*
X18391649Y-89004415D01*
X18445955Y-89023562D01*
X18505691Y-89030163D01*
X18545678Y-89026694D01*
X18600815Y-89009226D01*
X18649031Y-88978476D01*
X18689082Y-88936056D01*
X18715321Y-88892956D01*
X18734303Y-88843806D01*
X18750827Y-88901303D01*
X18774950Y-88951172D01*
X18805933Y-88992546D01*
X18851129Y-89029761D01*
X18903867Y-89051998D01*
X18952656Y-89058007D01*
X18968156Y-89057546D01*
X19027154Y-89046784D01*
X19080702Y-89022601D01*
X19127938Y-88986130D01*
X19168001Y-88938505D01*
X19192822Y-88896149D01*
X19212760Y-88848633D01*
X19227452Y-88796438D01*
X19236533Y-88740041D01*
X19239641Y-88679919D01*
X19238179Y-88637832D01*
X19231773Y-88583265D01*
X19220439Y-88530832D01*
X19204357Y-88480928D01*
X19183708Y-88433948D01*
X19158671Y-88390286D01*
X19129428Y-88350338D01*
X19087234Y-88306228D01*
X18973416Y-88429326D01*
X18980659Y-88436393D01*
X19017923Y-88477972D01*
X19045317Y-88519693D01*
X19066179Y-88571423D01*
X19075731Y-88620846D01*
X19078685Y-88677233D01*
X19074725Y-88729387D01*
X19060102Y-88783109D01*
X19030752Y-88831612D01*
X18989744Y-88862514D01*
X18938734Y-88873360D01*
X18924760Y-88872643D01*
X18875736Y-88856255D01*
X18839352Y-88820529D01*
X18819612Y-88775819D01*
X18812705Y-88720708D01*
X18812705Y-88597365D01*
X18661274Y-88597365D01*
X18661274Y-88703855D01*
X18660689Y-88719732D01*
X18649747Y-88768915D01*
X18621457Y-88811547D01*
X18577998Y-88837655D01*
X18528894Y-88845272D01*
X18492541Y-88840122D01*
X18448158Y-88817077D01*
X18413830Y-88778263D01*
X18392270Y-88726671D01*
X18386012Y-88674546D01*
X18386102Y-88665584D01*
X18390646Y-88615757D01*
X18405694Y-88564036D01*
X18432873Y-88515931D01*
X18467127Y-88474959D01*
X18504226Y-88439340D01*
X18386012Y-88314532D01*
X18349721Y-88350651D01*
X18317563Y-88390400D01*
X18289756Y-88433354D01*
X18266516Y-88479091D01*
X18248063Y-88527185D01*
X18234612Y-88577215D01*
X18226382Y-88628756D01*
X18223591Y-88681385D01*
X18112480Y-88681385D01*
X18112480Y-87450889D01*
X18239222Y-87450889D01*
X19015426Y-87750331D01*
X18239222Y-88057100D01*
X18239222Y-88267149D01*
X19224010Y-87863904D01*
X19224010Y-87628698D01*
X18239222Y-87231071D01*
X18239222Y-87450889D01*
X18112480Y-87450889D01*
X18112480Y-86794853D01*
X18223591Y-86794853D01*
X18224937Y-86832459D01*
X18231852Y-86885958D01*
X18244348Y-86935594D01*
X18269122Y-86995047D01*
X18302451Y-87045904D01*
X18343554Y-87087179D01*
X18391649Y-87117883D01*
X18445955Y-87137030D01*
X18505691Y-87143632D01*
X18545678Y-87140162D01*
X18600815Y-87122694D01*
X18649031Y-87091944D01*
X18689082Y-87049524D01*
X18715321Y-87006424D01*
X18734303Y-86957274D01*
X18750827Y-87014772D01*
X18774950Y-87064640D01*
X18805933Y-87106014D01*
X18851129Y-87143229D01*
X18903867Y-87165466D01*
X18952656Y-87171475D01*
X18968156Y-87171015D01*
X19027154Y-87160252D01*
X19080702Y-87136069D01*
X19127938Y-87099598D01*
X19168001Y-87051973D01*
X19192822Y-87009617D01*
X19212760Y-86962102D01*
X19227452Y-86909906D01*
X19236533Y-86853509D01*
X19239641Y-86793387D01*
X19238179Y-86751300D01*
X19231773Y-86696733D01*
X19220439Y-86644300D01*
X19204357Y-86594396D01*
X19183708Y-86547416D01*
X19158671Y-86503754D01*
X19129428Y-86463807D01*
X19087234Y-86419696D01*
X18973416Y-86542794D01*
X18980659Y-86549861D01*
X19017923Y-86591440D01*
X19045317Y-86633161D01*
X19066179Y-86684892D01*
X19075731Y-86734314D01*
X19078685Y-86790701D01*
X19074725Y-86842855D01*
X19060102Y-86896578D01*
X19030752Y-86945080D01*
X18989744Y-86975982D01*
X18938734Y-86986828D01*
X18924760Y-86986112D01*
X18875736Y-86969723D01*
X18839352Y-86933997D01*
X18819612Y-86889287D01*
X18812705Y-86834176D01*
X18812705Y-86710833D01*
X18661274Y-86710833D01*
X18661274Y-86817323D01*
X18660689Y-86833200D01*
X18649747Y-86882384D01*
X18621457Y-86925015D01*
X18577998Y-86951124D01*
X18528894Y-86958740D01*
X18492541Y-86953591D01*
X18448158Y-86930546D01*
X18413830Y-86891731D01*
X18392270Y-86840139D01*
X18386012Y-86788014D01*
X18386102Y-86779052D01*
X18390646Y-86729226D01*
X18405694Y-86677504D01*
X18432873Y-86629399D01*
X18467127Y-86588427D01*
X18504226Y-86552808D01*
X18386012Y-86428000D01*
X18349721Y-86464120D01*
X18317563Y-86503868D01*
X18289756Y-86546822D01*
X18266516Y-86592559D01*
X18248063Y-86640654D01*
X18234612Y-86690683D01*
X18226382Y-86742224D01*
X18223591Y-86794853D01*
X18112480Y-86794853D01*
X18112480Y-86308585D01*
X19350752Y-86308585D01*
X19350752Y-89169118D01*
G37*
G36*
X19536828Y-35205000D02*
G01*
X19160205Y-35205000D01*
X19106168Y-35202540D01*
X19053937Y-35195305D01*
X19003743Y-35183512D01*
X18955820Y-35167378D01*
X18910398Y-35147120D01*
X18867709Y-35122954D01*
X18809309Y-35079852D01*
X18758362Y-35029178D01*
X18715653Y-34971663D01*
X18681963Y-34908038D01*
X18658074Y-34839037D01*
X18647980Y-34790409D01*
X18642822Y-34739934D01*
X18642166Y-34714071D01*
X18852215Y-34714071D01*
X18858389Y-34777619D01*
X18876147Y-34836353D01*
X18904340Y-34889145D01*
X18941822Y-34934867D01*
X18987443Y-34972392D01*
X19040057Y-35000591D01*
X19098515Y-35018338D01*
X19161671Y-35024504D01*
X19333862Y-35024504D01*
X19333862Y-34400952D01*
X19161671Y-34400952D01*
X19098515Y-34407174D01*
X19040057Y-34425079D01*
X18987443Y-34453528D01*
X18941822Y-34491383D01*
X18904340Y-34537504D01*
X18876147Y-34590752D01*
X18858389Y-34649987D01*
X18852215Y-34714071D01*
X18642166Y-34714071D01*
X18644769Y-34662479D01*
X18652424Y-34612629D01*
X18664899Y-34564739D01*
X18692142Y-34497059D01*
X18728926Y-34435022D01*
X18774468Y-34379367D01*
X18827986Y-34330834D01*
X18888697Y-34290160D01*
X18932782Y-34267776D01*
X18979483Y-34249432D01*
X19028571Y-34235349D01*
X19079812Y-34225743D01*
X19132975Y-34220836D01*
X19160205Y-34220212D01*
X19536828Y-34220212D01*
X19536828Y-35205000D01*
G37*
G36*
X18504169Y-35205000D02*
G01*
X18021301Y-35205000D01*
X17965259Y-35202057D01*
X17913175Y-35193414D01*
X17865389Y-35179345D01*
X17808947Y-35152622D01*
X17761553Y-35117396D01*
X17724011Y-35074318D01*
X17697126Y-35024042D01*
X17681702Y-34967220D01*
X17678140Y-34920701D01*
X17679316Y-34910687D01*
X17882571Y-34910687D01*
X17893463Y-34962501D01*
X17924459Y-35002431D01*
X17973040Y-35028118D01*
X18027994Y-35037057D01*
X18036688Y-35037205D01*
X18301203Y-35037205D01*
X18301203Y-34782948D01*
X18036688Y-34782948D01*
X17987638Y-34788122D01*
X17940751Y-34806375D01*
X17902866Y-34841504D01*
X17884140Y-34889701D01*
X17882571Y-34910687D01*
X17679316Y-34910687D01*
X17684335Y-34867955D01*
X17702251Y-34819395D01*
X17730883Y-34775910D01*
X17769227Y-34738389D01*
X17816278Y-34707719D01*
X17833722Y-34699173D01*
X17788451Y-34664954D01*
X17752707Y-34623720D01*
X17727535Y-34576235D01*
X17713977Y-34523267D01*
X17712889Y-34506709D01*
X17913346Y-34506709D01*
X17923478Y-34555783D01*
X17957063Y-34596753D01*
X18003978Y-34618563D01*
X18056228Y-34624923D01*
X18301203Y-34624923D01*
X18301203Y-34388251D01*
X18056228Y-34388251D01*
X18003978Y-34394614D01*
X17957063Y-34416447D01*
X17923478Y-34457494D01*
X17913346Y-34506709D01*
X17712889Y-34506709D01*
X17711845Y-34490833D01*
X17718003Y-34432923D01*
X17735918Y-34380543D01*
X17764756Y-34334367D01*
X17803681Y-34295073D01*
X17851856Y-34263335D01*
X17908446Y-34239828D01*
X17955907Y-34228007D01*
X18007280Y-34221481D01*
X18043527Y-34220212D01*
X18504169Y-34220212D01*
X18504169Y-35205000D01*
G37*
G36*
X17068998Y-35220631D02*
G01*
X17016870Y-35218154D01*
X16966678Y-35210858D01*
X16918621Y-35198943D01*
X16850966Y-35172848D01*
X16789219Y-35137491D01*
X16734044Y-35093547D01*
X16686105Y-35041694D01*
X16646066Y-34982610D01*
X16614592Y-34916972D01*
X16598695Y-34869907D01*
X16587096Y-34820431D01*
X16579993Y-34768745D01*
X16577581Y-34715048D01*
X16577581Y-34653499D01*
X17084385Y-34653499D01*
X17084385Y-34829842D01*
X16794713Y-34829842D01*
X16812356Y-34883388D01*
X16840911Y-34930793D01*
X16879200Y-34970858D01*
X16926044Y-35002380D01*
X16980262Y-35024156D01*
X17040676Y-35034986D01*
X17066311Y-35035983D01*
X17115135Y-35032380D01*
X17175986Y-35016943D01*
X17230975Y-34990397D01*
X17279003Y-34953879D01*
X17318971Y-34908524D01*
X17349780Y-34855469D01*
X17370331Y-34795850D01*
X17378351Y-34747512D01*
X17379919Y-34713827D01*
X17376520Y-34663420D01*
X17361931Y-34600667D01*
X17336783Y-34544024D01*
X17302096Y-34494603D01*
X17258888Y-34453514D01*
X17208178Y-34421867D01*
X17150985Y-34400773D01*
X17088328Y-34391343D01*
X17071929Y-34390938D01*
X17014265Y-34395683D01*
X16959714Y-34409730D01*
X16908712Y-34432800D01*
X16861693Y-34464612D01*
X16819092Y-34504886D01*
X16805949Y-34520143D01*
X16664532Y-34388007D01*
X16702303Y-34347167D01*
X16744915Y-34310918D01*
X16791825Y-34279523D01*
X16842493Y-34253246D01*
X16896379Y-34232350D01*
X16952941Y-34217098D01*
X17011638Y-34207754D01*
X17071929Y-34204581D01*
X17125467Y-34207158D01*
X17177293Y-34214732D01*
X17227167Y-34227068D01*
X17274849Y-34243931D01*
X17320098Y-34265085D01*
X17362673Y-34290297D01*
X17402335Y-34319331D01*
X17438843Y-34351951D01*
X17471956Y-34387923D01*
X17501434Y-34427011D01*
X17527036Y-34468981D01*
X17548523Y-34513598D01*
X17565654Y-34560626D01*
X17578187Y-34609830D01*
X17585884Y-34660975D01*
X17588503Y-34713827D01*
X17585870Y-34766330D01*
X17578131Y-34817159D01*
X17565530Y-34866078D01*
X17548306Y-34912851D01*
X17526701Y-34957241D01*
X17500957Y-34999012D01*
X17471316Y-35037927D01*
X17438019Y-35073750D01*
X17401306Y-35106244D01*
X17361421Y-35135172D01*
X17318604Y-35160299D01*
X17273097Y-35181388D01*
X17225142Y-35198202D01*
X17174979Y-35210505D01*
X17122851Y-35218060D01*
X17068998Y-35220631D01*
G37*
G36*
X19536828Y-33884010D02*
G01*
X19333862Y-33884010D01*
X19333862Y-33508852D01*
X19045411Y-33508852D01*
X18993330Y-33505563D01*
X18944397Y-33495958D01*
X18884797Y-33474009D01*
X18832582Y-33442471D01*
X18788776Y-33402279D01*
X18754399Y-33354368D01*
X18730473Y-33299676D01*
X18718021Y-33239137D01*
X18716489Y-33208434D01*
X18922313Y-33208434D01*
X18932659Y-33262644D01*
X18962033Y-33304513D01*
X19007939Y-33331498D01*
X19059706Y-33340902D01*
X19067882Y-33341058D01*
X19333862Y-33341058D01*
X19333862Y-33074344D01*
X19067882Y-33074344D01*
X19014715Y-33081692D01*
X18966918Y-33106716D01*
X18935341Y-33147235D01*
X18922480Y-33200915D01*
X18922313Y-33208434D01*
X18716489Y-33208434D01*
X18716416Y-33206968D01*
X18719932Y-33157725D01*
X18735090Y-33097034D01*
X18761371Y-33042822D01*
X18797857Y-32995964D01*
X18843628Y-32957336D01*
X18897767Y-32927815D01*
X18959354Y-32908275D01*
X19009879Y-32900698D01*
X19045411Y-32899222D01*
X19536828Y-32899222D01*
X19536828Y-33884010D01*
G37*
G36*
X18459228Y-33884010D02*
G01*
X18246493Y-33884010D01*
X18050366Y-33197687D01*
X17857170Y-33884010D01*
X17642969Y-33884010D01*
X17427302Y-32899222D01*
X17629047Y-32899222D01*
X17761915Y-33564784D01*
X17952424Y-32899222D01*
X18144155Y-32899222D01*
X18334665Y-33564784D01*
X18467533Y-32899222D01*
X18676116Y-32899222D01*
X18459228Y-33884010D01*
G37*
G36*
X17303471Y-33884010D02*
G01*
X17100505Y-33884010D01*
X17100505Y-33503723D01*
X16879221Y-33503723D01*
X16687491Y-33884010D01*
X16460589Y-33884010D01*
X16677721Y-33474170D01*
X16626344Y-33448644D01*
X16581736Y-33415819D01*
X16544690Y-33376411D01*
X16516001Y-33331135D01*
X16496462Y-33280708D01*
X16486866Y-33225844D01*
X16486101Y-33205747D01*
X16691643Y-33205747D01*
X16702489Y-33259832D01*
X16733164Y-33301185D01*
X16780876Y-33327609D01*
X16834402Y-33336755D01*
X16842829Y-33336906D01*
X17100505Y-33336906D01*
X17100505Y-33074344D01*
X16842829Y-33074344D01*
X16787898Y-33081664D01*
X16743604Y-33102467D01*
X16708408Y-33140529D01*
X16692343Y-33191351D01*
X16691643Y-33205747D01*
X16486101Y-33205747D01*
X16485990Y-33202816D01*
X16489614Y-33154014D01*
X16505232Y-33093978D01*
X16532308Y-33040455D01*
X16569892Y-32994275D01*
X16617032Y-32956268D01*
X16672779Y-32927264D01*
X16719665Y-32911919D01*
X16770458Y-32902455D01*
X16824755Y-32899222D01*
X17303471Y-32899222D01*
X17303471Y-33884010D01*
G37*
G36*
X29399641Y-86881803D02*
G01*
X29395200Y-86953293D01*
X29382119Y-87019537D01*
X29360763Y-87080145D01*
X29331493Y-87134728D01*
X29294674Y-87182894D01*
X29250669Y-87224255D01*
X29199842Y-87258420D01*
X29142556Y-87284999D01*
X29079175Y-87303602D01*
X29010061Y-87313839D01*
X28960981Y-87315823D01*
X28399222Y-87315823D01*
X28399222Y-87112613D01*
X28960981Y-87112613D01*
X29015527Y-87108498D01*
X29064509Y-87096455D01*
X29117110Y-87070940D01*
X29159165Y-87034628D01*
X29189647Y-86988400D01*
X29207525Y-86933141D01*
X29212063Y-86883025D01*
X29207525Y-86832442D01*
X29189647Y-86776599D01*
X29159165Y-86729822D01*
X29117110Y-86693033D01*
X29064509Y-86667156D01*
X29015527Y-86654930D01*
X28960981Y-86650750D01*
X28399222Y-86650750D01*
X28399222Y-86447784D01*
X28960981Y-86447784D01*
X29010303Y-86449749D01*
X29079664Y-86459899D01*
X29143175Y-86478368D01*
X29200493Y-86504789D01*
X29251278Y-86538800D01*
X29295187Y-86580034D01*
X29331879Y-86628128D01*
X29361013Y-86682716D01*
X29382245Y-86743435D01*
X29395235Y-86809919D01*
X29399641Y-86881803D01*
G37*
G36*
X29384010Y-87681210D02*
G01*
X29003723Y-87681210D01*
X29003723Y-87902494D01*
X29384010Y-88094225D01*
X29384010Y-88321127D01*
X28974170Y-88103995D01*
X28948644Y-88155372D01*
X28915819Y-88199980D01*
X28876411Y-88237025D01*
X28831135Y-88265715D01*
X28780708Y-88285254D01*
X28725844Y-88294849D01*
X28702816Y-88295725D01*
X28654014Y-88292102D01*
X28593978Y-88276483D01*
X28540455Y-88249407D01*
X28494275Y-88211824D01*
X28456268Y-88164684D01*
X28427264Y-88108937D01*
X28411919Y-88062050D01*
X28402455Y-88011258D01*
X28399222Y-87956960D01*
X28399222Y-87938886D01*
X28574344Y-87938886D01*
X28581664Y-87993818D01*
X28602467Y-88038112D01*
X28640529Y-88073308D01*
X28691351Y-88089373D01*
X28705747Y-88090073D01*
X28759832Y-88079227D01*
X28801185Y-88048551D01*
X28827609Y-88000840D01*
X28836755Y-87947314D01*
X28836906Y-87938886D01*
X28836906Y-87681210D01*
X28574344Y-87681210D01*
X28574344Y-87938886D01*
X28399222Y-87938886D01*
X28399222Y-87478244D01*
X29384010Y-87478244D01*
X29384010Y-87681210D01*
G37*
G36*
X29384010Y-88336270D02*
G01*
X29384010Y-88570254D01*
X29026926Y-88826465D01*
X29384010Y-89082676D01*
X29384010Y-89324720D01*
X28874763Y-88946877D01*
X28399222Y-89295411D01*
X28399222Y-89061671D01*
X28722844Y-88830617D01*
X28399222Y-88598098D01*
X28399222Y-88356053D01*
X28874763Y-88710205D01*
X29384010Y-88336270D01*
G37*
G36*
X24319641Y-86946039D02*
G01*
X24316423Y-87004189D01*
X24306998Y-87061494D01*
X24291704Y-87117270D01*
X24270884Y-87170834D01*
X24244877Y-87221502D01*
X24214025Y-87268589D01*
X24178668Y-87311411D01*
X24139146Y-87349284D01*
X24006277Y-87216416D01*
X24041917Y-87182637D01*
X24077096Y-87138080D01*
X24103797Y-87089510D01*
X24121807Y-87037321D01*
X24130914Y-86981912D01*
X24132063Y-86953122D01*
X24128490Y-86903201D01*
X24113184Y-86841096D01*
X24086859Y-86785080D01*
X24050637Y-86736237D01*
X24005639Y-86695653D01*
X23952987Y-86664411D01*
X23893804Y-86643597D01*
X23829211Y-86634296D01*
X23812349Y-86633897D01*
X23761897Y-86637399D01*
X23699150Y-86652394D01*
X23642571Y-86678167D01*
X23593249Y-86713602D01*
X23552276Y-86757582D01*
X23520741Y-86808990D01*
X23499736Y-86866711D01*
X23490351Y-86929629D01*
X23489948Y-86946039D01*
X23493343Y-86995079D01*
X23506257Y-87051299D01*
X23528604Y-87104121D01*
X23560161Y-87152986D01*
X23593335Y-87190279D01*
X23624282Y-87217637D01*
X23487017Y-87354902D01*
X23447019Y-87317799D01*
X23411165Y-87275149D01*
X23379821Y-87227725D01*
X23353355Y-87176299D01*
X23332133Y-87121645D01*
X23316520Y-87064535D01*
X23306884Y-87005742D01*
X23303591Y-86946039D01*
X23306151Y-86891972D01*
X23313681Y-86839655D01*
X23325949Y-86789329D01*
X23342727Y-86741234D01*
X23363785Y-86695609D01*
X23388895Y-86652693D01*
X23417826Y-86612727D01*
X23450350Y-86575950D01*
X23486237Y-86542602D01*
X23525258Y-86512923D01*
X23567183Y-86487152D01*
X23611783Y-86465530D01*
X23658829Y-86448295D01*
X23708092Y-86435687D01*
X23759341Y-86427947D01*
X23812349Y-86425314D01*
X23865380Y-86427933D01*
X23916613Y-86435637D01*
X23965823Y-86448190D01*
X24012788Y-86465358D01*
X24057283Y-86486906D01*
X24099083Y-86512601D01*
X24137966Y-86542208D01*
X24190328Y-86593440D01*
X24220935Y-86631802D01*
X24247841Y-86673255D01*
X24270821Y-86717565D01*
X24289650Y-86764499D01*
X24304106Y-86813821D01*
X24313965Y-86865298D01*
X24319001Y-86918694D01*
X24319641Y-86946039D01*
G37*
G36*
X24304010Y-87468475D02*
G01*
X24304010Y-88207554D01*
X24124979Y-88207554D01*
X24124979Y-87671441D01*
X23319222Y-87671441D01*
X23319222Y-87468475D01*
X24304010Y-87468475D01*
G37*
G36*
X24304010Y-88347749D02*
G01*
X24304010Y-88550715D01*
X23847031Y-88550715D01*
X24304010Y-88977651D01*
X24304010Y-89249249D01*
X23787924Y-88752215D01*
X23319222Y-89227023D01*
X23319222Y-88979117D01*
X23759592Y-88550715D01*
X23319222Y-88550715D01*
X23319222Y-88347749D01*
X24304010Y-88347749D01*
G37*
G36*
X21764010Y-86839794D02*
G01*
X21761550Y-86893831D01*
X21754315Y-86946062D01*
X21742522Y-86996256D01*
X21726388Y-87044179D01*
X21706130Y-87089601D01*
X21681964Y-87132290D01*
X21638862Y-87190690D01*
X21588188Y-87241637D01*
X21530673Y-87284346D01*
X21467048Y-87318036D01*
X21398047Y-87341925D01*
X21349419Y-87352019D01*
X21298944Y-87357177D01*
X21273081Y-87357833D01*
X21221489Y-87355230D01*
X21171639Y-87347575D01*
X21123749Y-87335100D01*
X21056069Y-87307857D01*
X20994032Y-87271073D01*
X20938377Y-87225531D01*
X20889844Y-87172013D01*
X20849170Y-87111302D01*
X20826786Y-87067217D01*
X20808442Y-87020516D01*
X20794359Y-86971428D01*
X20784753Y-86920187D01*
X20779846Y-86867024D01*
X20779222Y-86839794D01*
X20779222Y-86838328D01*
X20959962Y-86838328D01*
X20966184Y-86901484D01*
X20984089Y-86959942D01*
X21012538Y-87012556D01*
X21050393Y-87058177D01*
X21096514Y-87095659D01*
X21149762Y-87123852D01*
X21208997Y-87141610D01*
X21273081Y-87147784D01*
X21336629Y-87141610D01*
X21395363Y-87123852D01*
X21448155Y-87095659D01*
X21493877Y-87058177D01*
X21531402Y-87012556D01*
X21559601Y-86959942D01*
X21577348Y-86901484D01*
X21583514Y-86838328D01*
X21583514Y-86666137D01*
X20959962Y-86666137D01*
X20959962Y-86838328D01*
X20779222Y-86838328D01*
X20779222Y-86463171D01*
X21764010Y-86463171D01*
X21764010Y-86839794D01*
G37*
G36*
X21764010Y-87495830D02*
G01*
X21764010Y-87698796D01*
X20779222Y-87698796D01*
X20779222Y-87495830D01*
X21764010Y-87495830D01*
G37*
G36*
X21324333Y-87840647D02*
G01*
X21375350Y-87848383D01*
X21424433Y-87860978D01*
X21471346Y-87878188D01*
X21515854Y-87899771D01*
X21557724Y-87925482D01*
X21596719Y-87955078D01*
X21632607Y-87988315D01*
X21665151Y-88024950D01*
X21694118Y-88064738D01*
X21719272Y-88107436D01*
X21740379Y-88152801D01*
X21757204Y-88200589D01*
X21769513Y-88250556D01*
X21777070Y-88302459D01*
X21779641Y-88356053D01*
X21777070Y-88409849D01*
X21769513Y-88461901D01*
X21757204Y-88511971D01*
X21740379Y-88559820D01*
X21719272Y-88605211D01*
X21694118Y-88647905D01*
X21665151Y-88687664D01*
X21632607Y-88724249D01*
X21596719Y-88757423D01*
X21557724Y-88786946D01*
X21515854Y-88812581D01*
X21471346Y-88834090D01*
X21424433Y-88851234D01*
X21375350Y-88863774D01*
X21324333Y-88871473D01*
X21271616Y-88874092D01*
X21218939Y-88871473D01*
X21167952Y-88863774D01*
X21118890Y-88851234D01*
X21071989Y-88834090D01*
X21027486Y-88812581D01*
X20985616Y-88786946D01*
X20946614Y-88757423D01*
X20910717Y-88724249D01*
X20878159Y-88687664D01*
X20849178Y-88647905D01*
X20824009Y-88605211D01*
X20802887Y-88559820D01*
X20786049Y-88511971D01*
X20773729Y-88461901D01*
X20766165Y-88409849D01*
X20763591Y-88356053D01*
X20949948Y-88356053D01*
X20956246Y-88420032D01*
X20974414Y-88478991D01*
X21003361Y-88531848D01*
X21041997Y-88577520D01*
X21089231Y-88614927D01*
X21143972Y-88642985D01*
X21205131Y-88660614D01*
X21254555Y-88666339D01*
X21271616Y-88666730D01*
X21321660Y-88663264D01*
X21384070Y-88648412D01*
X21440501Y-88622860D01*
X21489816Y-88587689D01*
X21530874Y-88543982D01*
X21562538Y-88492820D01*
X21583666Y-88435285D01*
X21593122Y-88372460D01*
X21593528Y-88356053D01*
X21587169Y-88292477D01*
X21568852Y-88233821D01*
X21539715Y-88181182D01*
X21500899Y-88135655D01*
X21453542Y-88098336D01*
X21398782Y-88070323D01*
X21337761Y-88052712D01*
X21288570Y-88046988D01*
X21271616Y-88046598D01*
X21221295Y-88050062D01*
X21158703Y-88064903D01*
X21102255Y-88090418D01*
X21053042Y-88125513D01*
X21012155Y-88169090D01*
X20980683Y-88220054D01*
X20959718Y-88277309D01*
X20950350Y-88339758D01*
X20949948Y-88356053D01*
X20763591Y-88356053D01*
X20766165Y-88302459D01*
X20773729Y-88250556D01*
X20786049Y-88200589D01*
X20802887Y-88152801D01*
X20824009Y-88107436D01*
X20849178Y-88064738D01*
X20878159Y-88024950D01*
X20910717Y-87988315D01*
X20946614Y-87955078D01*
X20985616Y-87925482D01*
X21027486Y-87899771D01*
X21071989Y-87878188D01*
X21118890Y-87860978D01*
X21167952Y-87848383D01*
X21218939Y-87840647D01*
X21271616Y-87838014D01*
X21324333Y-87840647D01*
G37*
D13*
%TO.C,C4*%
X28038781Y-51760030D02*
X27839970Y-51561219D01*
X28760030Y-51038781D02*
X28561219Y-50839970D01*
%TO.C,C3*%
X30960030Y-50411219D02*
X30761219Y-50610030D01*
X30238781Y-49689970D02*
X30039970Y-49888781D01*
%TO.C,C5*%
X24058038Y-44686789D02*
X23859227Y-44487978D01*
X23336789Y-45408038D02*
X23137978Y-45209227D01*
%TO.C,C1*%
X21939970Y-42438781D02*
X22138781Y-42239970D01*
X22661219Y-43160030D02*
X22860030Y-42961219D01*
%TO.C,C7*%
X26739970Y-37161219D02*
X26938781Y-37360030D01*
X27461219Y-36439970D02*
X27660030Y-36638781D01*
%TO.C,C6*%
X26813211Y-38091962D02*
X27012022Y-38290773D01*
X26091962Y-38813211D02*
X26290773Y-39012022D01*
%TO.C,Ce*%
X37060030Y-44661219D02*
X36861219Y-44860030D01*
X36338781Y-43939970D02*
X36139970Y-44138781D01*
%TO.C,C10*%
X35912022Y-41938781D02*
X35713211Y-41739970D01*
X35190773Y-42660030D02*
X34991962Y-42461219D01*
%TO.C,C13*%
X23815580Y-31610000D02*
X23534420Y-31610000D01*
X23815580Y-30590000D02*
X23534420Y-30590000D01*
%TO.C,C17*%
X20384420Y-20740000D02*
X20665580Y-20740000D01*
X20384420Y-21760000D02*
X20665580Y-21760000D01*
%TO.C,C15*%
X318090000Y-10234421D02*
X318090000Y-10515581D01*
X319110000Y-10234421D02*
X319110000Y-10515581D01*
%TO.C,C14*%
X318090000Y-6715580D02*
X318090000Y-6434420D01*
X319110000Y-6715580D02*
X319110000Y-6434420D01*
%TO.C,C16*%
X335910000Y-8765580D02*
X335910000Y-8484420D01*
X334890000Y-8765580D02*
X334890000Y-8484420D01*
%TO.C,R16*%
X320722500Y-10612259D02*
X320722500Y-10137743D01*
X319677500Y-10612259D02*
X319677500Y-10137743D01*
%TO.C,R15*%
X319677500Y-6337742D02*
X319677500Y-6812258D01*
X320722500Y-6337742D02*
X320722500Y-6812258D01*
%TO.C,R14*%
X336412258Y-10952500D02*
X335937742Y-10952500D01*
X336412258Y-11997500D02*
X335937742Y-11997500D01*
%TO.C,R13*%
X322322500Y-6812258D02*
X322322500Y-6337742D01*
X321277500Y-6812258D02*
X321277500Y-6337742D01*
%TO.C,R12*%
X321277500Y-10137742D02*
X321277500Y-10612258D01*
X322322500Y-10137742D02*
X322322500Y-10612258D01*
%TO.C,R11*%
X25327500Y-23837742D02*
X25327500Y-24312258D01*
X26372500Y-23837742D02*
X26372500Y-24312258D01*
%TO.C,R10*%
X23387742Y-21772500D02*
X23862258Y-21772500D01*
X23387742Y-20727500D02*
X23862258Y-20727500D01*
%TO.C,R9*%
X26372500Y-28512258D02*
X26372500Y-28037742D01*
X25327500Y-28512258D02*
X25327500Y-28037742D01*
%TO.C,R8*%
X28412500Y-71512258D02*
X28412500Y-71037742D01*
X29457500Y-71512258D02*
X29457500Y-71037742D01*
%TO.C,R7*%
X25872500Y-71512258D02*
X25872500Y-71037742D01*
X26917500Y-71512258D02*
X26917500Y-71037742D01*
%TO.C,R6*%
X23332500Y-71512258D02*
X23332500Y-71037742D01*
X24377500Y-71512258D02*
X24377500Y-71037742D01*
%TO.C,R5*%
X20792500Y-71512258D02*
X20792500Y-71037742D01*
X21837500Y-71512258D02*
X21837500Y-71037742D01*
%TO.C,R4*%
X20762258Y-30577500D02*
X20287742Y-30577500D01*
X20762258Y-31622500D02*
X20287742Y-31622500D01*
%TO.C,R3*%
X337522500Y-8862258D02*
X337522500Y-8387742D01*
X336477500Y-8862258D02*
X336477500Y-8387742D01*
%TO.C,R2*%
X23862258Y-34327500D02*
X23387742Y-34327500D01*
X23862258Y-35372500D02*
X23387742Y-35372500D01*
%TO.C,R1*%
X23862258Y-32721510D02*
X23387742Y-32721510D01*
X23862258Y-33766510D02*
X23387742Y-33766510D01*
%TO.C,J2*%
X21515000Y-57965000D02*
X20465000Y-57965000D01*
X20465000Y-57965000D02*
X20465000Y-54635000D01*
X21515000Y-58175000D02*
X21515000Y-57965000D01*
X22035000Y-53245000D02*
X21535000Y-53245000D01*
X22075000Y-58675000D02*
X21825000Y-59028553D01*
X22335000Y-53745000D02*
X22035000Y-53245000D01*
X22325000Y-59028553D02*
X22075000Y-58675000D01*
X21825000Y-59028553D02*
X22325000Y-59028553D01*
X25415000Y-53745000D02*
X22335000Y-53745000D01*
X25715000Y-53245000D02*
X25415000Y-53745000D01*
X26215000Y-53245000D02*
X25715000Y-53245000D01*
X26235000Y-57965000D02*
X27285000Y-57965000D01*
X27285000Y-57965000D02*
X27285000Y-54635000D01*
%TO.C,U1*%
X33235000Y-59500000D02*
X33235000Y-58700000D01*
X33235000Y-57900000D02*
X33235000Y-58700000D01*
X30115000Y-59500000D02*
X30115000Y-58700000D01*
X30115000Y-57900000D02*
X30115000Y-58700000D01*
X33515000Y-60240000D02*
X33185000Y-60000000D01*
X33515000Y-59760000D01*
X33515000Y-60240000D01*
G36*
X33515000Y-60240000D02*
G01*
X33185000Y-60000000D01*
X33515000Y-59760000D01*
X33515000Y-60240000D01*
G37*
%TO.C,D28*%
X260625000Y-31375000D02*
X260625000Y-35385000D01*
X260625000Y-35385000D02*
X262625000Y-35385000D01*
X262625000Y-31375000D02*
X262625000Y-35385000D01*
%TO.C,J1*%
X17445000Y-76765000D02*
X17445000Y-79425000D01*
X17445000Y-79425000D02*
X32805000Y-79425000D01*
X17505000Y-74055000D02*
X18775000Y-74055000D01*
X17505000Y-75325000D02*
X17505000Y-74055000D01*
X18395000Y-76765000D02*
X18395000Y-76435000D01*
X18395000Y-85425000D02*
X18395000Y-79425000D01*
X18455000Y-85425000D02*
X18455000Y-79425000D01*
X18575000Y-85425000D02*
X18575000Y-79425000D01*
X18695000Y-85425000D02*
X18695000Y-79425000D01*
X18815000Y-85425000D02*
X18815000Y-79425000D01*
X18935000Y-85425000D02*
X18935000Y-79425000D01*
X19055000Y-85425000D02*
X19055000Y-79425000D01*
X19155000Y-76765000D02*
X19155000Y-76435000D01*
X19155000Y-79425000D02*
X19155000Y-85425000D01*
X19155000Y-85425000D02*
X18395000Y-85425000D01*
X20045000Y-79425000D02*
X20045000Y-76765000D01*
X20935000Y-76765000D02*
X20935000Y-76367929D01*
X20935000Y-85425000D02*
X20935000Y-79425000D01*
X21695000Y-76765000D02*
X21695000Y-76367929D01*
X21695000Y-79425000D02*
X21695000Y-85425000D01*
X21695000Y-85425000D02*
X20935000Y-85425000D01*
X22585000Y-79425000D02*
X22585000Y-76765000D01*
X23475000Y-76765000D02*
X23475000Y-76367929D01*
X23475000Y-85425000D02*
X23475000Y-79425000D01*
X24235000Y-76765000D02*
X24235000Y-76367929D01*
X24235000Y-79425000D02*
X24235000Y-85425000D01*
X24235000Y-85425000D02*
X23475000Y-85425000D01*
X25125000Y-79425000D02*
X25125000Y-76765000D01*
X26015000Y-76765000D02*
X26015000Y-76367929D01*
X26015000Y-85425000D02*
X26015000Y-79425000D01*
X26775000Y-76765000D02*
X26775000Y-76367929D01*
X26775000Y-79425000D02*
X26775000Y-85425000D01*
X26775000Y-85425000D02*
X26015000Y-85425000D01*
X27665000Y-79425000D02*
X27665000Y-76765000D01*
X28555000Y-76765000D02*
X28555000Y-76367929D01*
X28555000Y-85425000D02*
X28555000Y-79425000D01*
X29315000Y-76765000D02*
X29315000Y-76367929D01*
X29315000Y-79425000D02*
X29315000Y-85425000D01*
X29315000Y-85425000D02*
X28555000Y-85425000D01*
X30205000Y-79425000D02*
X30205000Y-76765000D01*
X31095000Y-76765000D02*
X31095000Y-76367929D01*
X31095000Y-85425000D02*
X31095000Y-79425000D01*
X31855000Y-76765000D02*
X31855000Y-76367929D01*
X31855000Y-79425000D02*
X31855000Y-85425000D01*
X31855000Y-85425000D02*
X31095000Y-85425000D01*
X32805000Y-76765000D02*
X17445000Y-76765000D01*
X32805000Y-79425000D02*
X32805000Y-76765000D01*
%TO.C,D1*%
X12975000Y-12325000D02*
X12975000Y-16335000D01*
X12975000Y-16335000D02*
X14975000Y-16335000D01*
X14975000Y-12325000D02*
X14975000Y-16335000D01*
%TO.C,D68*%
X201093750Y-88525000D02*
X201093750Y-92535000D01*
X201093750Y-92535000D02*
X203093750Y-92535000D01*
X203093750Y-88525000D02*
X203093750Y-92535000D01*
%TO.C,TP1*%
X27150000Y-31850000D02*
X25750000Y-31850000D01*
X27150000Y-30450000D02*
X27150000Y-31850000D01*
X25750000Y-31850000D02*
X25750000Y-30450000D01*
X25750000Y-30450000D02*
X27150000Y-30450000D01*
%TO.C,D7*%
X136800000Y-12325000D02*
X136800000Y-16335000D01*
X136800000Y-16335000D02*
X138800000Y-16335000D01*
X138800000Y-12325000D02*
X138800000Y-16335000D01*
%TO.C,D55*%
X198712500Y-69475000D02*
X198712500Y-73485000D01*
X198712500Y-73485000D02*
X200712500Y-73485000D01*
X200712500Y-69475000D02*
X200712500Y-73485000D01*
%TO.C,D49*%
X84412500Y-69475000D02*
X84412500Y-73485000D01*
X84412500Y-73485000D02*
X86412500Y-73485000D01*
X86412500Y-69475000D02*
X86412500Y-73485000D01*
%TO.C,D56*%
X217762500Y-69475000D02*
X217762500Y-73485000D01*
X217762500Y-73485000D02*
X219762500Y-73485000D01*
X219762500Y-69475000D02*
X219762500Y-73485000D01*
%TO.C,D43*%
X246337500Y-50425000D02*
X246337500Y-54435000D01*
X246337500Y-54435000D02*
X248337500Y-54435000D01*
X248337500Y-50425000D02*
X248337500Y-54435000D01*
%TO.C,D73*%
X332062500Y-93287500D02*
X332062500Y-97297500D01*
X332062500Y-97297500D02*
X334062500Y-97297500D01*
X334062500Y-93287500D02*
X334062500Y-97297500D01*
%TO.C,D5*%
X98700000Y-12325000D02*
X98700000Y-16335000D01*
X98700000Y-16335000D02*
X100700000Y-16335000D01*
X100700000Y-12325000D02*
X100700000Y-16335000D01*
%TO.C,D24*%
X184425000Y-31375000D02*
X184425000Y-35385000D01*
X184425000Y-35385000D02*
X186425000Y-35385000D01*
X186425000Y-31375000D02*
X186425000Y-35385000D01*
%TO.C,D34*%
X74887500Y-50425000D02*
X74887500Y-54435000D01*
X74887500Y-54435000D02*
X76887500Y-54435000D01*
X76887500Y-50425000D02*
X76887500Y-54435000D01*
%TO.C,D37*%
X132037500Y-50425000D02*
X132037500Y-54435000D01*
X132037500Y-54435000D02*
X134037500Y-54435000D01*
X134037500Y-50425000D02*
X134037500Y-54435000D01*
%TO.C,D30*%
X303487500Y-31375000D02*
X303487500Y-35385000D01*
X303487500Y-35385000D02*
X305487500Y-35385000D01*
X305487500Y-31375000D02*
X305487500Y-35385000D01*
%TO.C,D39*%
X170137500Y-50425000D02*
X170137500Y-54435000D01*
X170137500Y-54435000D02*
X172137500Y-54435000D01*
X172137500Y-50425000D02*
X172137500Y-54435000D01*
%TO.C,D33*%
X48693750Y-50425000D02*
X48693750Y-54435000D01*
X48693750Y-54435000D02*
X50693750Y-54435000D01*
X50693750Y-50425000D02*
X50693750Y-54435000D01*
%TO.C,D22*%
X146325000Y-31375000D02*
X146325000Y-35385000D01*
X146325000Y-35385000D02*
X148325000Y-35385000D01*
X148325000Y-31375000D02*
X148325000Y-35385000D01*
%TO.C,D58*%
X255862500Y-69475000D02*
X255862500Y-73485000D01*
X255862500Y-73485000D02*
X257862500Y-73485000D01*
X257862500Y-69475000D02*
X257862500Y-73485000D01*
%TO.C,D38*%
X151087500Y-50425000D02*
X151087500Y-54435000D01*
X151087500Y-54435000D02*
X153087500Y-54435000D01*
X153087500Y-50425000D02*
X153087500Y-54435000D01*
%TO.C,TP2*%
X27050000Y-22000000D02*
X25650000Y-22000000D01*
X27050000Y-20600000D02*
X27050000Y-22000000D01*
X25650000Y-22000000D02*
X25650000Y-20600000D01*
X25650000Y-20600000D02*
X27050000Y-20600000D01*
%TO.C,D32*%
X12975000Y-50425000D02*
X12975000Y-54435000D01*
X12975000Y-54435000D02*
X14975000Y-54435000D01*
X14975000Y-50425000D02*
X14975000Y-54435000D01*
%TO.C,D18*%
X70125000Y-31375000D02*
X70125000Y-35385000D01*
X70125000Y-35385000D02*
X72125000Y-35385000D01*
X72125000Y-31375000D02*
X72125000Y-35385000D01*
%TO.C,D10*%
X193950000Y-12325000D02*
X193950000Y-16335000D01*
X193950000Y-16335000D02*
X195950000Y-16335000D01*
X195950000Y-12325000D02*
X195950000Y-16335000D01*
%TO.C,D40*%
X189187500Y-50425000D02*
X189187500Y-54435000D01*
X189187500Y-54435000D02*
X191187500Y-54435000D01*
X191187500Y-50425000D02*
X191187500Y-54435000D01*
%TO.C,D65*%
X91556250Y-88525000D02*
X91556250Y-92535000D01*
X91556250Y-92535000D02*
X93556250Y-92535000D01*
X93556250Y-88525000D02*
X93556250Y-92535000D01*
%TO.C,D69*%
X236812500Y-88525000D02*
X236812500Y-92535000D01*
X236812500Y-92535000D02*
X238812500Y-92535000D01*
X238812500Y-88525000D02*
X238812500Y-92535000D01*
%TO.C,D14*%
X270150000Y-12325000D02*
X270150000Y-16335000D01*
X270150000Y-16335000D02*
X272150000Y-16335000D01*
X272150000Y-12325000D02*
X272150000Y-16335000D01*
%TO.C,D46*%
X336825000Y-50425000D02*
X336825000Y-54435000D01*
X336825000Y-54435000D02*
X338825000Y-54435000D01*
X338825000Y-50425000D02*
X338825000Y-54435000D01*
%TO.C,D70*%
X265387500Y-88525000D02*
X265387500Y-92535000D01*
X265387500Y-92535000D02*
X267387500Y-92535000D01*
X267387500Y-88525000D02*
X267387500Y-92535000D01*
%TO.C,D64*%
X67743750Y-88525000D02*
X67743750Y-92535000D01*
X67743750Y-92535000D02*
X69743750Y-92535000D01*
X69743750Y-88525000D02*
X69743750Y-92535000D01*
%TO.C,D41*%
X208237500Y-50425000D02*
X208237500Y-54435000D01*
X208237500Y-54435000D02*
X210237500Y-54435000D01*
X210237500Y-50425000D02*
X210237500Y-54435000D01*
%TO.C,D26*%
X222525000Y-31375000D02*
X222525000Y-35385000D01*
X222525000Y-35385000D02*
X224525000Y-35385000D01*
X224525000Y-31375000D02*
X224525000Y-35385000D01*
%TO.C,D71*%
X293962500Y-93287500D02*
X293962500Y-97297500D01*
X293962500Y-97297500D02*
X295962500Y-97297500D01*
X295962500Y-93287500D02*
X295962500Y-97297500D01*
%TO.C,D3*%
X60600000Y-12325000D02*
X60600000Y-16335000D01*
X60600000Y-16335000D02*
X62600000Y-16335000D01*
X62600000Y-12325000D02*
X62600000Y-16335000D01*
%TO.C,D31*%
X336825000Y-31375000D02*
X336825000Y-35385000D01*
X336825000Y-35385000D02*
X338825000Y-35385000D01*
X338825000Y-31375000D02*
X338825000Y-35385000D01*
%TO.C,D67*%
X162993750Y-88525000D02*
X162993750Y-92535000D01*
X162993750Y-92535000D02*
X164993750Y-92535000D01*
X164993750Y-88525000D02*
X164993750Y-92535000D01*
%TO.C,D23*%
X165375000Y-31375000D02*
X165375000Y-35385000D01*
X165375000Y-35385000D02*
X167375000Y-35385000D01*
X167375000Y-31375000D02*
X167375000Y-35385000D01*
%TO.C,D9*%
X174900000Y-12325000D02*
X174900000Y-16335000D01*
X174900000Y-16335000D02*
X176900000Y-16335000D01*
X176900000Y-12325000D02*
X176900000Y-16335000D01*
%TO.C,D35*%
X93937500Y-50425000D02*
X93937500Y-54435000D01*
X93937500Y-54435000D02*
X95937500Y-54435000D01*
X95937500Y-50425000D02*
X95937500Y-54435000D01*
%TO.C,D60*%
X313025000Y-74225000D02*
X313025000Y-78235000D01*
X313025000Y-78235000D02*
X315025000Y-78235000D01*
X315025000Y-74225000D02*
X315025000Y-78235000D01*
%TO.C,Y1*%
X22022847Y-36120440D02*
X20113659Y-38029628D01*
X20113659Y-38029628D02*
X21740005Y-39655974D01*
%TO.C,D53*%
X160612500Y-69475000D02*
X160612500Y-73485000D01*
X160612500Y-73485000D02*
X162612500Y-73485000D01*
X162612500Y-69475000D02*
X162612500Y-73485000D01*
%TO.C,D21*%
X127275000Y-31375000D02*
X127275000Y-35385000D01*
X127275000Y-35385000D02*
X129275000Y-35385000D01*
X129275000Y-31375000D02*
X129275000Y-35385000D01*
%TO.C,D15*%
X298725000Y-12325000D02*
X298725000Y-16335000D01*
X298725000Y-16335000D02*
X300725000Y-16335000D01*
X300725000Y-12325000D02*
X300725000Y-16335000D01*
%TO.C,D45*%
X296343750Y-50425000D02*
X296343750Y-54435000D01*
X296343750Y-54435000D02*
X298343750Y-54435000D01*
X298343750Y-50425000D02*
X298343750Y-54435000D01*
%TO.C,D19*%
X89175000Y-31375000D02*
X89175000Y-35385000D01*
X89175000Y-35385000D02*
X91175000Y-35385000D01*
X91175000Y-31375000D02*
X91175000Y-35385000D01*
%TO.C,D54*%
X179662500Y-69475000D02*
X179662500Y-73485000D01*
X179662500Y-73485000D02*
X181662500Y-73485000D01*
X181662500Y-69475000D02*
X181662500Y-73485000D01*
%TO.C,D62*%
X12975000Y-88525000D02*
X12975000Y-92535000D01*
X12975000Y-92535000D02*
X14975000Y-92535000D01*
X14975000Y-88525000D02*
X14975000Y-92535000D01*
%TO.C,D29*%
X279675000Y-31375000D02*
X279675000Y-35385000D01*
X279675000Y-35385000D02*
X281675000Y-35385000D01*
X281675000Y-31375000D02*
X281675000Y-35385000D01*
%TO.C,D48*%
X53456250Y-69475000D02*
X53456250Y-73485000D01*
X53456250Y-73485000D02*
X55456250Y-73485000D01*
X55456250Y-69475000D02*
X55456250Y-73485000D01*
%TO.C,D50*%
X103462500Y-69475000D02*
X103462500Y-73485000D01*
X103462500Y-73485000D02*
X105462500Y-73485000D01*
X105462500Y-69475000D02*
X105462500Y-73485000D01*
%TO.C,D59*%
X282056250Y-69475000D02*
X282056250Y-73485000D01*
X282056250Y-73485000D02*
X284056250Y-73485000D01*
X284056250Y-69475000D02*
X284056250Y-73485000D01*
%TO.C,D4*%
X79650000Y-12325000D02*
X79650000Y-16335000D01*
X79650000Y-16335000D02*
X81650000Y-16335000D01*
X81650000Y-12325000D02*
X81650000Y-16335000D01*
%TO.C,D8*%
X155850000Y-12325000D02*
X155850000Y-16335000D01*
X155850000Y-16335000D02*
X157850000Y-16335000D01*
X157850000Y-12325000D02*
X157850000Y-16335000D01*
%TO.C,D44*%
X265387500Y-50425000D02*
X265387500Y-54435000D01*
X265387500Y-54435000D02*
X267387500Y-54435000D01*
X267387500Y-50425000D02*
X267387500Y-54435000D01*
%TO.C,D52*%
X141562500Y-69475000D02*
X141562500Y-73485000D01*
X141562500Y-73485000D02*
X143562500Y-73485000D01*
X143562500Y-69475000D02*
X143562500Y-73485000D01*
%TO.C,D12*%
X232050000Y-12325000D02*
X232050000Y-16335000D01*
X232050000Y-16335000D02*
X234050000Y-16335000D01*
X234050000Y-12325000D02*
X234050000Y-16335000D01*
%TO.C,C11*%
X19857282Y-36383601D02*
X19704779Y-36536104D01*
X20366399Y-36892718D02*
X20213896Y-37045221D01*
%TO.C,D6*%
X117750000Y-12325000D02*
X117750000Y-16335000D01*
X117750000Y-16335000D02*
X119750000Y-16335000D01*
X119750000Y-12325000D02*
X119750000Y-16335000D01*
%TO.C,C12*%
X23365368Y-38875515D02*
X23517871Y-38723012D01*
X23874485Y-39384632D02*
X24026988Y-39232129D01*
%TO.C,D66*%
X124893750Y-88525000D02*
X124893750Y-92535000D01*
X124893750Y-92535000D02*
X126893750Y-92535000D01*
X126893750Y-88525000D02*
X126893750Y-92535000D01*
%TO.C,D13*%
X251100000Y-12325000D02*
X251100000Y-16335000D01*
X251100000Y-16335000D02*
X253100000Y-16335000D01*
X253100000Y-12325000D02*
X253100000Y-16335000D01*
%TO.C,D42*%
X227287500Y-50425000D02*
X227287500Y-54435000D01*
X227287500Y-54435000D02*
X229287500Y-54435000D01*
X229287500Y-50425000D02*
X229287500Y-54435000D01*
%TO.C,D27*%
X241575000Y-31375000D02*
X241575000Y-35385000D01*
X241575000Y-35385000D02*
X243575000Y-35385000D01*
X243575000Y-31375000D02*
X243575000Y-35385000D01*
%TO.C,D61*%
X336825000Y-69475000D02*
X336825000Y-73485000D01*
X336825000Y-73485000D02*
X338825000Y-73485000D01*
X338825000Y-69475000D02*
X338825000Y-73485000D01*
%TO.C,D63*%
X43931250Y-88525000D02*
X43931250Y-92535000D01*
X43931250Y-92535000D02*
X45931250Y-92535000D01*
X45931250Y-88525000D02*
X45931250Y-92535000D01*
%TO.C,D57*%
X236812500Y-69475000D02*
X236812500Y-73485000D01*
X236812500Y-73485000D02*
X238812500Y-73485000D01*
X238812500Y-69475000D02*
X238812500Y-73485000D01*
%TO.C,D72*%
X313012500Y-93287500D02*
X313012500Y-97297500D01*
X313012500Y-97297500D02*
X315012500Y-97297500D01*
X315012500Y-93287500D02*
X315012500Y-97297500D01*
%TO.C,D17*%
X46312500Y-31375000D02*
X46312500Y-35385000D01*
X46312500Y-35385000D02*
X48312500Y-35385000D01*
X48312500Y-31375000D02*
X48312500Y-35385000D01*
%TO.C,D51*%
X122512500Y-69475000D02*
X122512500Y-73485000D01*
X122512500Y-73485000D02*
X124512500Y-73485000D01*
X124512500Y-69475000D02*
X124512500Y-73485000D01*
%TO.C,D47*%
X12975000Y-69475000D02*
X12975000Y-73485000D01*
X12975000Y-73485000D02*
X14975000Y-73485000D01*
X14975000Y-69475000D02*
X14975000Y-73485000D01*
%TO.C,D11*%
X213000000Y-12325000D02*
X213000000Y-16335000D01*
X213000000Y-16335000D02*
X215000000Y-16335000D01*
X215000000Y-12325000D02*
X215000000Y-16335000D01*
%TO.C,D25*%
X203475000Y-31375000D02*
X203475000Y-35385000D01*
X203475000Y-35385000D02*
X205475000Y-35385000D01*
X205475000Y-31375000D02*
X205475000Y-35385000D01*
%TO.C,D2*%
X41550000Y-12325000D02*
X41550000Y-16335000D01*
X41550000Y-16335000D02*
X43550000Y-16335000D01*
X43550000Y-12325000D02*
X43550000Y-16335000D01*
%TO.C,U2*%
X24699446Y-43705294D02*
X24865616Y-43539124D01*
X24741872Y-44087132D02*
X24865616Y-44210876D01*
X29299175Y-39105565D02*
X29635051Y-38769689D01*
X29635051Y-38769689D02*
X29970927Y-39105565D01*
X29635051Y-48980311D02*
X29299175Y-48644435D01*
X29970927Y-48644435D02*
X29635051Y-48980311D01*
X34404486Y-44210876D02*
X34740362Y-43875000D01*
X34740362Y-43875000D02*
X34404486Y-43539124D01*
X24466100Y-44278051D02*
X24126689Y-43938640D01*
X24529740Y-43875000D01*
X24466100Y-44278051D01*
G36*
X24466100Y-44278051D02*
G01*
X24126689Y-43938640D01*
X24529740Y-43875000D01*
X24466100Y-44278051D01*
G37*
%TO.C,D20*%
X108225000Y-31375000D02*
X108225000Y-35385000D01*
X108225000Y-35385000D02*
X110225000Y-35385000D01*
X110225000Y-31375000D02*
X110225000Y-35385000D01*
%TO.C,D16*%
X12975000Y-31375000D02*
X12975000Y-35385000D01*
X12975000Y-35385000D02*
X14975000Y-35385000D01*
X14975000Y-31375000D02*
X14975000Y-35385000D01*
%TO.C,D36*%
X112987500Y-50425000D02*
X112987500Y-54435000D01*
X112987500Y-54435000D02*
X114987500Y-54435000D01*
X114987500Y-50425000D02*
X114987500Y-54435000D01*
D11*
%TO.C,D74*%
X22020000Y-33385000D02*
G75*
G02*
X21920000Y-33385000I-50000J0D01*
G01*
X21920000Y-33385000D02*
G75*
G02*
X22020000Y-33385000I50000J0D01*
G01*
D13*
%TO.C,SW75*%
X19875000Y-26575000D02*
X19875000Y-26695000D01*
X19875000Y-27705000D02*
X19875000Y-28845000D01*
X19875000Y-29855000D02*
X19875000Y-29975000D01*
X19875000Y-29975000D02*
X24275000Y-29975000D01*
X24275000Y-26575000D02*
X19875000Y-26575000D01*
X24275000Y-26695000D02*
X24275000Y-26575000D01*
X24275000Y-28845000D02*
X24275000Y-27705000D01*
X24275000Y-29975000D02*
X24275000Y-29855000D01*
%TO.C,SW74*%
X24275000Y-25775000D02*
X24275000Y-25655000D01*
X24275000Y-24645000D02*
X24275000Y-23505000D01*
X24275000Y-22495000D02*
X24275000Y-22375000D01*
X24275000Y-22375000D02*
X19875000Y-22375000D01*
X19875000Y-25775000D02*
X24275000Y-25775000D01*
X19875000Y-25655000D02*
X19875000Y-25775000D01*
X19875000Y-23505000D02*
X19875000Y-24645000D01*
X19875000Y-22375000D02*
X19875000Y-22495000D01*
D11*
%TO.C,D75*%
X22030000Y-34705990D02*
G75*
G02*
X21930000Y-34705990I-50000J0D01*
G01*
X21930000Y-34705990D02*
G75*
G02*
X22030000Y-34705990I50000J0D01*
G01*
D13*
%TO.C,C9*%
X31828080Y-62172500D02*
X31546920Y-62172500D01*
X31828080Y-61152500D02*
X31546920Y-61152500D01*
%TO.C,C8*%
X33865000Y-58840580D02*
X33865000Y-58559420D01*
X34885000Y-58840580D02*
X34885000Y-58559420D01*
%TD*%
M02*
