%TF.GenerationSoftware,KiCad,Pcbnew,8.0.8*%
%TF.CreationDate,2025-02-24T19:32:54-06:00*%
%TF.ProjectId,kb,6b622e6b-6963-4616-945f-706362585858,rev?*%
%TF.SameCoordinates,Original*%
%TF.FileFunction,Legend,Bot*%
%TF.FilePolarity,Positive*%
%FSLAX46Y46*%
G04 Gerber Fmt 4.6, Leading zero omitted, Abs format (unit mm)*
G04 Created by KiCad (PCBNEW 8.0.8) date 2025-02-24 19:32:54*
%MOMM*%
%LPD*%
G01*
G04 APERTURE LIST*
%ADD10C,0.100000*%
%ADD11C,0.400000*%
%ADD12C,0.200000*%
%ADD13C,0.600000*%
%ADD14C,0.120000*%
G04 APERTURE END LIST*
D10*
X19625000Y-52275000D02*
X20725000Y-52275000D01*
X21125000Y-52275000D02*
X22225000Y-52275000D01*
X22625000Y-52275000D02*
X23725000Y-52275000D01*
X24125000Y-52275000D02*
X25225000Y-52275000D01*
X25625000Y-52275000D02*
X26725000Y-52275000D01*
X27125000Y-52275000D02*
X28125000Y-52275000D01*
X28125000Y-52275000D02*
X28125000Y-53375000D01*
X28125000Y-53775000D02*
X28125000Y-54875000D01*
X28125000Y-55275000D02*
X28125000Y-56375000D01*
X28125000Y-56775000D02*
X28125000Y-57875000D01*
X28125000Y-58275000D02*
X28125000Y-59375000D01*
X28125000Y-59775000D02*
X28125000Y-60875000D01*
X28125000Y-61275000D02*
X28125000Y-62275000D01*
X28125000Y-62275000D02*
X27025000Y-62275000D01*
X26625000Y-62275000D02*
X25525000Y-62275000D01*
X25125000Y-62275000D02*
X24025000Y-62275000D01*
X23625000Y-62275000D02*
X22525000Y-62275000D01*
X22125000Y-62275000D02*
X21025000Y-62275000D01*
X20625000Y-62275000D02*
X19625000Y-62275000D01*
X19625000Y-62275000D02*
X19625000Y-61175000D01*
X19625000Y-60775000D02*
X19625000Y-59675000D01*
X19625000Y-59275000D02*
X19625000Y-58175000D01*
X19625000Y-57775000D02*
X19625000Y-56675000D01*
X19625000Y-56275000D02*
X19625000Y-55175000D01*
X19625000Y-54775000D02*
X19625000Y-53675000D01*
X19625000Y-53275000D02*
X19625000Y-52275000D01*
D11*
G36*
X22361671Y-61249410D02*
G01*
X21832641Y-61249410D01*
X21815253Y-61249115D01*
X21705344Y-61231237D01*
X21608182Y-61179862D01*
X21546190Y-61100002D01*
X21524406Y-60996374D01*
X21527543Y-60954403D01*
X21564995Y-60858008D01*
X21640767Y-60787751D01*
X21734540Y-60751245D01*
X21832641Y-60740896D01*
X22361671Y-60740896D01*
X22361671Y-61249410D01*
G37*
G36*
X22361671Y-60424846D02*
G01*
X21871720Y-60424846D01*
X21767220Y-60412126D01*
X21673391Y-60368506D01*
X21606220Y-60286566D01*
X21585955Y-60188419D01*
X21606220Y-60089989D01*
X21673391Y-60007894D01*
X21767220Y-59964228D01*
X21871720Y-59951503D01*
X22361671Y-59951503D01*
X22361671Y-60424846D01*
G37*
G36*
X26817110Y-61838485D02*
G01*
X20893322Y-61838485D01*
X20893322Y-61016402D01*
X21115544Y-61016402D01*
X21122669Y-61109441D01*
X21153517Y-61223085D01*
X21207287Y-61323637D01*
X21282370Y-61409792D01*
X21377158Y-61480245D01*
X21490043Y-61533690D01*
X21585614Y-61561828D01*
X21689782Y-61579115D01*
X21801866Y-61585000D01*
X22767602Y-61585000D01*
X22767602Y-60986116D01*
X23005006Y-60986116D01*
X23005954Y-61021962D01*
X23019949Y-61124270D01*
X23050115Y-61218347D01*
X23114248Y-61330129D01*
X23179347Y-61403086D01*
X23258219Y-61466170D01*
X23350143Y-61518890D01*
X23454399Y-61560751D01*
X23570268Y-61591263D01*
X23697031Y-61609930D01*
X23833967Y-61616263D01*
X23952509Y-61610552D01*
X24070096Y-61593662D01*
X24185771Y-61565953D01*
X24298578Y-61527786D01*
X24407560Y-61479520D01*
X24511763Y-61421517D01*
X24610230Y-61354138D01*
X24702006Y-61277742D01*
X24469975Y-60983185D01*
X24406035Y-61036809D01*
X24322769Y-61099197D01*
X24220773Y-61162973D01*
X24119653Y-61211525D01*
X24017866Y-61245458D01*
X23913871Y-61265375D01*
X23806123Y-61271880D01*
X23718086Y-61267447D01*
X23603910Y-61244895D01*
X23513337Y-61204652D01*
X23433462Y-61126182D01*
X23405565Y-61022752D01*
X23407978Y-60986305D01*
X23453571Y-60888036D01*
X23536463Y-60831586D01*
X23628924Y-60799803D01*
X23727477Y-60778998D01*
X23957152Y-60738942D01*
X24858810Y-60738942D01*
X24862778Y-60837103D01*
X24883252Y-60975330D01*
X24920458Y-61102093D01*
X24973616Y-61216665D01*
X25041945Y-61318319D01*
X25124667Y-61406329D01*
X25221000Y-61479966D01*
X25330165Y-61538506D01*
X25451381Y-61581219D01*
X25583869Y-61607381D01*
X25726849Y-61616263D01*
X25870618Y-61607451D01*
X26003586Y-61581471D01*
X26125023Y-61539006D01*
X26234200Y-61480739D01*
X26330388Y-61407355D01*
X26412856Y-61319537D01*
X26480877Y-61217967D01*
X26533720Y-61103330D01*
X26570657Y-60976308D01*
X26590957Y-60837586D01*
X26594888Y-60738942D01*
X26594888Y-59615425D01*
X26188956Y-59615425D01*
X26188956Y-60738942D01*
X26180596Y-60848035D01*
X26156144Y-60945999D01*
X26104389Y-61051201D01*
X26030812Y-61135311D01*
X25937258Y-61196274D01*
X25825571Y-61232030D01*
X25724406Y-61241106D01*
X25624173Y-61232030D01*
X25513655Y-61196274D01*
X25421200Y-61135311D01*
X25348575Y-61051201D01*
X25297546Y-60945999D01*
X25273460Y-60848035D01*
X25265230Y-60738942D01*
X25265230Y-59615425D01*
X24858810Y-59615425D01*
X24858810Y-60738942D01*
X23957152Y-60738942D01*
X24116800Y-60711099D01*
X24147832Y-60705413D01*
X24262414Y-60675285D01*
X24361620Y-60633533D01*
X24445312Y-60580421D01*
X24527903Y-60498456D01*
X24585772Y-60399668D01*
X24618650Y-60284569D01*
X24626779Y-60181092D01*
X24625921Y-60146845D01*
X24605667Y-60018525D01*
X24559484Y-59904815D01*
X24488681Y-59806706D01*
X24394569Y-59725188D01*
X24309478Y-59675533D01*
X24212566Y-59636185D01*
X24104387Y-59607562D01*
X23985492Y-59590082D01*
X23856437Y-59584162D01*
X23748588Y-59588966D01*
X23640183Y-59603083D01*
X23532454Y-59626074D01*
X23426631Y-59657496D01*
X23323945Y-59696910D01*
X23225626Y-59743874D01*
X23132907Y-59797948D01*
X23047016Y-59858691D01*
X23265858Y-60163995D01*
X23305083Y-60134758D01*
X23401991Y-60070257D01*
X23497809Y-60017884D01*
X23593243Y-59977461D01*
X23688997Y-59948809D01*
X23785774Y-59931749D01*
X23884281Y-59926102D01*
X23924371Y-59927123D01*
X24032628Y-59941963D01*
X24133624Y-59979936D01*
X24211024Y-60047499D01*
X24242829Y-60149829D01*
X24227465Y-60230612D01*
X24160555Y-60304092D01*
X24063673Y-60344226D01*
X23962927Y-60365251D01*
X23593143Y-60427777D01*
X23556988Y-60434225D01*
X23455392Y-60457859D01*
X23335971Y-60499355D01*
X23234890Y-60552232D01*
X23152163Y-60616454D01*
X23087799Y-60691988D01*
X23041811Y-60778800D01*
X23014209Y-60876854D01*
X23005006Y-60986116D01*
X22767602Y-60986116D01*
X22767602Y-59615425D01*
X21846318Y-59615425D01*
X21773824Y-59617962D01*
X21671079Y-59631014D01*
X21576155Y-59654657D01*
X21462975Y-59701670D01*
X21366625Y-59765146D01*
X21288777Y-59843735D01*
X21231101Y-59936086D01*
X21195270Y-60040847D01*
X21182955Y-60156667D01*
X21185042Y-60188419D01*
X21187218Y-60221535D01*
X21214334Y-60327470D01*
X21264678Y-60422440D01*
X21336166Y-60504909D01*
X21426709Y-60573346D01*
X21391820Y-60590439D01*
X21297718Y-60651778D01*
X21221031Y-60726821D01*
X21163766Y-60813791D01*
X21127934Y-60910911D01*
X21117896Y-60996374D01*
X21115544Y-61016402D01*
X20893322Y-61016402D01*
X20893322Y-59361940D01*
X26817110Y-59361940D01*
X26817110Y-61838485D01*
G37*
D12*
G36*
X26859641Y-86881803D02*
G01*
X26855200Y-86953293D01*
X26842119Y-87019537D01*
X26820763Y-87080145D01*
X26791493Y-87134728D01*
X26754674Y-87182894D01*
X26710669Y-87224255D01*
X26659842Y-87258420D01*
X26602556Y-87284999D01*
X26539175Y-87303602D01*
X26470061Y-87313839D01*
X26420981Y-87315823D01*
X25859222Y-87315823D01*
X25859222Y-87112613D01*
X26420981Y-87112613D01*
X26475527Y-87108498D01*
X26524509Y-87096455D01*
X26577110Y-87070940D01*
X26619165Y-87034628D01*
X26649647Y-86988400D01*
X26667525Y-86933141D01*
X26672063Y-86883025D01*
X26667525Y-86832442D01*
X26649647Y-86776599D01*
X26619165Y-86729822D01*
X26577110Y-86693033D01*
X26524509Y-86667156D01*
X26475527Y-86654930D01*
X26420981Y-86650750D01*
X25859222Y-86650750D01*
X25859222Y-86447784D01*
X26420981Y-86447784D01*
X26470303Y-86449749D01*
X26539664Y-86459899D01*
X26603175Y-86478368D01*
X26660493Y-86504789D01*
X26711278Y-86538800D01*
X26755187Y-86580034D01*
X26791879Y-86628128D01*
X26821013Y-86682716D01*
X26842245Y-86743435D01*
X26855235Y-86809919D01*
X26859641Y-86881803D01*
G37*
G36*
X26844010Y-87745690D02*
G01*
X26844010Y-87948656D01*
X26038497Y-87948656D01*
X26038497Y-88277651D01*
X25859222Y-88277651D01*
X25859222Y-87415230D01*
X26038497Y-87415230D01*
X26038497Y-87745690D01*
X26844010Y-87745690D01*
G37*
G36*
X26844010Y-88298168D02*
G01*
X26844010Y-88532152D01*
X26486926Y-88788363D01*
X26844010Y-89044574D01*
X26844010Y-89286618D01*
X26334763Y-88908775D01*
X25859222Y-89257309D01*
X25859222Y-89023569D01*
X26182844Y-88792515D01*
X25859222Y-88559996D01*
X25859222Y-88317951D01*
X26334763Y-88672103D01*
X26844010Y-88298168D01*
G37*
D10*
G36*
X280633513Y-51483131D02*
G01*
X280248830Y-48845308D01*
X279947820Y-47644964D01*
X279379789Y-46505031D01*
X278563555Y-45554136D01*
X277548313Y-44844949D01*
X276391654Y-44430141D01*
X275217428Y-44308497D01*
X273980304Y-44442914D01*
X273129151Y-44784771D01*
X272145800Y-45579818D01*
X271846877Y-45951030D01*
X271166813Y-46990589D01*
X270967602Y-47343214D01*
X270247289Y-48367335D01*
X270100540Y-48521686D01*
X268949927Y-48996099D01*
X268854902Y-48997960D01*
X267678636Y-48652305D01*
X266957869Y-47615340D01*
X266778837Y-46903577D01*
X266388049Y-44308497D01*
X263786863Y-44308497D01*
X264177651Y-46946320D01*
X264459938Y-48146664D01*
X265017015Y-49286597D01*
X265832396Y-50237492D01*
X266839833Y-50946679D01*
X268091911Y-51384599D01*
X269135781Y-51483131D01*
X270374628Y-51348714D01*
X271230163Y-51006857D01*
X272220510Y-50214964D01*
X272530757Y-49846704D01*
X273225704Y-48804855D01*
X273428349Y-48454519D01*
X274142706Y-47424442D01*
X274289305Y-47269942D01*
X275439202Y-46795529D01*
X275534944Y-46793668D01*
X276731984Y-47139323D01*
X277465464Y-48176288D01*
X277647644Y-48888050D01*
X278032327Y-51483131D01*
X280633513Y-51483131D01*
G37*
G36*
X261521510Y-64379153D02*
G01*
X243862752Y-30966732D01*
X240840247Y-30966732D01*
X258492899Y-64379153D01*
X261521510Y-64379153D01*
G37*
G36*
X233116067Y-60862056D02*
G01*
X234381395Y-60791347D01*
X235648596Y-60537373D01*
X236846113Y-60030867D01*
X237707833Y-59384387D01*
X238478843Y-58351721D01*
X238883728Y-57100812D01*
X238935087Y-55788394D01*
X238886304Y-55311637D01*
X236108042Y-55311637D01*
X235988974Y-56584753D01*
X235350889Y-57558672D01*
X234247217Y-58172332D01*
X232943404Y-58373689D01*
X232731385Y-58376885D01*
X230899563Y-58376885D01*
X229648773Y-58255813D01*
X228419592Y-57808520D01*
X227968649Y-57515929D01*
X227091021Y-56575958D01*
X226610525Y-55370337D01*
X226576465Y-55189516D01*
X226548987Y-53957616D01*
X226893981Y-52985224D01*
X227827065Y-52191912D01*
X228652529Y-51965510D01*
X233574022Y-51251100D01*
X234849863Y-50926810D01*
X235953679Y-50283383D01*
X236584315Y-49602461D01*
X237122413Y-48460148D01*
X237289805Y-47200312D01*
X237194923Y-46018197D01*
X236907937Y-44785534D01*
X236358820Y-43575780D01*
X235570135Y-42553431D01*
X234911252Y-41975978D01*
X233751301Y-41282337D01*
X232566151Y-40856343D01*
X231235981Y-40609715D01*
X229953122Y-40541051D01*
X228298377Y-40541051D01*
X226987480Y-40628063D01*
X225699749Y-40933963D01*
X224501194Y-41532167D01*
X223993597Y-41933235D01*
X223202670Y-42890171D01*
X222745668Y-44028381D01*
X222622593Y-45347865D01*
X222638049Y-45633515D01*
X225452948Y-45633515D01*
X225726290Y-44390357D01*
X226240631Y-43777269D01*
X227358746Y-43191247D01*
X228584921Y-43026956D01*
X228683059Y-43026222D01*
X230301168Y-43026222D01*
X231603401Y-43162267D01*
X232778152Y-43613067D01*
X233140491Y-43850542D01*
X233979390Y-44743734D01*
X234423840Y-45889159D01*
X234453297Y-46060940D01*
X234429564Y-47312923D01*
X233703705Y-48302106D01*
X232517672Y-48698762D01*
X227840422Y-49376536D01*
X226636679Y-49647392D01*
X225440926Y-50229001D01*
X224548212Y-51086230D01*
X224482082Y-51177827D01*
X223940878Y-52309889D01*
X223748155Y-53540644D01*
X223818405Y-54812490D01*
X223865369Y-55116243D01*
X224167620Y-56427140D01*
X224653052Y-57575463D01*
X225418124Y-58673000D01*
X226173464Y-59384387D01*
X227338567Y-60098690D01*
X228554248Y-60537373D01*
X229756965Y-60769702D01*
X231089412Y-60860613D01*
X231290352Y-60862056D01*
X233116067Y-60862056D01*
G37*
G36*
X211329605Y-60862056D02*
G01*
X212693316Y-60766804D01*
X213893988Y-60481047D01*
X215066544Y-59921196D01*
X216026152Y-59112524D01*
X216232780Y-58871477D01*
X216899869Y-57784596D01*
X217301343Y-56520639D01*
X217434746Y-55269420D01*
X217364789Y-53882626D01*
X217307449Y-53461498D01*
X215371824Y-40931840D01*
X212593562Y-40931840D01*
X214529186Y-53461498D01*
X214622566Y-54683058D01*
X214458585Y-55958308D01*
X213930791Y-57076292D01*
X212972430Y-57918375D01*
X211760423Y-58314650D01*
X210908286Y-58376885D01*
X209678127Y-58249874D01*
X208480604Y-57816766D01*
X207446144Y-57076292D01*
X206607346Y-56062362D01*
X206050167Y-54932739D01*
X205715931Y-53746814D01*
X205663171Y-53461498D01*
X203733653Y-40931840D01*
X200955390Y-40931840D01*
X202884909Y-53461498D01*
X203153099Y-54727100D01*
X203611412Y-56063096D01*
X204226336Y-57247739D01*
X204997872Y-58281031D01*
X205644853Y-58926431D01*
X206668210Y-59680645D01*
X207814869Y-60249612D01*
X209084831Y-60633335D01*
X210478094Y-60831812D01*
X211329605Y-60862056D01*
G37*
G36*
X186300515Y-40542101D02*
G01*
X187626439Y-40668038D01*
X188815215Y-41003872D01*
X189964462Y-41615720D01*
X190914701Y-42459174D01*
X191641270Y-43511869D01*
X192107693Y-44650437D01*
X191545934Y-40931840D01*
X194324197Y-40931840D01*
X198403052Y-66723884D01*
X195624790Y-66723884D01*
X194672243Y-60959753D01*
X194073848Y-56874792D01*
X194043318Y-56874792D01*
X193974624Y-57529310D01*
X193543001Y-58772164D01*
X192724406Y-59775175D01*
X191857988Y-60348335D01*
X190596321Y-60755915D01*
X189359961Y-60862056D01*
X189172068Y-60860196D01*
X187913585Y-60742988D01*
X186596964Y-60385783D01*
X185410096Y-59790441D01*
X184352983Y-58956962D01*
X183766704Y-58321996D01*
X183066128Y-57306319D01*
X182505801Y-56142796D01*
X182085722Y-54831428D01*
X181837281Y-53589725D01*
X180958007Y-47776746D01*
X180926737Y-47573081D01*
X180839949Y-46511101D01*
X183627058Y-46511101D01*
X183736269Y-47788958D01*
X184615544Y-53577513D01*
X184667493Y-53883699D01*
X184996899Y-55132254D01*
X185546445Y-56271418D01*
X186374092Y-57222838D01*
X187398123Y-57879878D01*
X188589547Y-58264185D01*
X189817916Y-58376885D01*
X190674185Y-58314942D01*
X191900075Y-57920528D01*
X192883164Y-57082398D01*
X193427272Y-55965273D01*
X193586597Y-54692318D01*
X193475453Y-53473710D01*
X192632815Y-47929397D01*
X192585231Y-47644845D01*
X192270154Y-46462354D01*
X191726332Y-45336547D01*
X190892585Y-44326815D01*
X189855370Y-43586341D01*
X188657977Y-43153233D01*
X187430442Y-43026222D01*
X186573589Y-43081445D01*
X185343979Y-43433069D01*
X184352983Y-44180270D01*
X183793991Y-45228701D01*
X183627058Y-46511101D01*
X180839949Y-46511101D01*
X180816041Y-46218552D01*
X180921371Y-44822934D01*
X181273996Y-43589889D01*
X181873918Y-42519418D01*
X182463678Y-41847083D01*
X183533469Y-41099399D01*
X184825440Y-40664699D01*
X186160380Y-40541051D01*
X186300515Y-40542101D01*
G37*
G36*
X166992277Y-40572249D02*
G01*
X168403281Y-40776988D01*
X169695073Y-41172815D01*
X170867653Y-41759731D01*
X171921022Y-42537736D01*
X172710637Y-43345312D01*
X173480461Y-44436164D01*
X174087246Y-45687133D01*
X174477581Y-46886833D01*
X174748133Y-48204171D01*
X175523604Y-53198937D01*
X175609184Y-53847856D01*
X175661849Y-55068736D01*
X175523604Y-56363408D01*
X175102285Y-57672015D01*
X174400087Y-58798204D01*
X174182081Y-59048124D01*
X173178395Y-59886563D01*
X171964050Y-60467022D01*
X170728692Y-60763298D01*
X169332048Y-60862056D01*
X169137273Y-60860714D01*
X167829954Y-60776189D01*
X166456088Y-60518590D01*
X165210449Y-60089256D01*
X164093038Y-59488190D01*
X163349076Y-58931202D01*
X162414256Y-57947600D01*
X161696787Y-56786254D01*
X161241503Y-55604729D01*
X164019766Y-55604729D01*
X164113199Y-55840433D01*
X164807377Y-56877272D01*
X165796632Y-57631944D01*
X166396446Y-57922209D01*
X167631316Y-58272128D01*
X168910729Y-58376885D01*
X169929298Y-58296743D01*
X171189533Y-57875996D01*
X172128628Y-57094610D01*
X172677769Y-56102654D01*
X172897898Y-54889913D01*
X172812508Y-53595831D01*
X172494992Y-51623570D01*
X165289828Y-51623570D01*
X165145292Y-51622420D01*
X163795039Y-51484317D01*
X162617713Y-51116045D01*
X161522382Y-50445099D01*
X161346499Y-50293353D01*
X160530921Y-49300151D01*
X160012382Y-48164326D01*
X159727198Y-46952426D01*
X159652523Y-46175673D01*
X159695239Y-45619478D01*
X162537600Y-45619478D01*
X162542096Y-46879153D01*
X162697491Y-47556307D01*
X163354204Y-48601065D01*
X163733573Y-48860812D01*
X164935676Y-49138399D01*
X172146946Y-49138399D01*
X171969870Y-47923291D01*
X171921356Y-47636568D01*
X171597960Y-46447262D01*
X171036965Y-45319547D01*
X170174685Y-44314603D01*
X170083828Y-44235338D01*
X168979708Y-43529496D01*
X167809418Y-43152041D01*
X166480512Y-43026222D01*
X165622532Y-43078523D01*
X164373315Y-43411543D01*
X163335886Y-44119209D01*
X163033146Y-44474780D01*
X162537600Y-45619478D01*
X159695239Y-45619478D01*
X159748837Y-44921591D01*
X160172941Y-43673466D01*
X160527027Y-43062715D01*
X161390816Y-42089703D01*
X162426081Y-41377583D01*
X163552764Y-40901315D01*
X164833853Y-40622744D01*
X166132466Y-40541051D01*
X166992277Y-40572249D01*
G37*
G36*
X154720219Y-60471267D02*
G01*
X151654971Y-40931840D01*
X148846179Y-40931840D01*
X149444574Y-44619907D01*
X149407937Y-44619907D01*
X148886870Y-43413069D01*
X148146461Y-42395269D01*
X147283024Y-41634038D01*
X146152865Y-41011761D01*
X144869743Y-40647788D01*
X143570533Y-40541051D01*
X142313052Y-40628999D01*
X141080580Y-40944893D01*
X139954976Y-41574885D01*
X139186374Y-42378979D01*
X138590835Y-43532597D01*
X138307189Y-44759154D01*
X138248711Y-45987667D01*
X138367296Y-47361103D01*
X138398691Y-47569139D01*
X138642934Y-49278839D01*
X141421196Y-49278839D01*
X141176953Y-47575245D01*
X141079310Y-46264736D01*
X141283672Y-44985323D01*
X141965424Y-43896934D01*
X143124605Y-43243900D01*
X144498185Y-43030665D01*
X144761217Y-43026222D01*
X146025245Y-43151444D01*
X147232476Y-43578452D01*
X148247784Y-44308497D01*
X149054572Y-45312129D01*
X149592670Y-46443660D01*
X149917890Y-47640480D01*
X149969696Y-47929397D01*
X151905320Y-60471267D01*
X154720219Y-60471267D01*
G37*
G36*
X127407763Y-60862056D02*
G01*
X128771474Y-60766804D01*
X129972146Y-60481047D01*
X131144702Y-59921196D01*
X132104309Y-59112524D01*
X132310938Y-58871477D01*
X132978026Y-57784596D01*
X133379500Y-56520639D01*
X133512904Y-55269420D01*
X133442946Y-53882626D01*
X133385606Y-53461498D01*
X131449982Y-40931840D01*
X128671720Y-40931840D01*
X130607344Y-53461498D01*
X130700724Y-54683058D01*
X130536743Y-55958308D01*
X130008949Y-57076292D01*
X129050588Y-57918375D01*
X127838581Y-58314650D01*
X126986444Y-58376885D01*
X125756285Y-58249874D01*
X124558762Y-57816766D01*
X123524302Y-57076292D01*
X122685504Y-56062362D01*
X122128325Y-54932739D01*
X121794089Y-53746814D01*
X121741329Y-53461498D01*
X119811810Y-40931840D01*
X117033548Y-40931840D01*
X118963066Y-53461498D01*
X119231256Y-54727100D01*
X119689570Y-56063096D01*
X120304494Y-57247739D01*
X121076029Y-58281031D01*
X121723011Y-58926431D01*
X122746368Y-59680645D01*
X123893027Y-60249612D01*
X125162989Y-60633335D01*
X126556252Y-60831812D01*
X127407763Y-60862056D01*
G37*
G36*
X107233304Y-60862056D02*
G01*
X108498632Y-60791347D01*
X109765832Y-60537373D01*
X110963350Y-60030867D01*
X111825069Y-59384387D01*
X112596080Y-58351721D01*
X113000965Y-57100812D01*
X113052324Y-55788394D01*
X113003541Y-55311637D01*
X110225278Y-55311637D01*
X110106210Y-56584753D01*
X109468126Y-57558672D01*
X108364453Y-58172332D01*
X107060640Y-58373689D01*
X106848621Y-58376885D01*
X105016800Y-58376885D01*
X103766009Y-58255813D01*
X102536829Y-57808520D01*
X102085886Y-57515929D01*
X101208257Y-56575958D01*
X100727762Y-55370337D01*
X100693701Y-55189516D01*
X100666224Y-53957616D01*
X101011217Y-52985224D01*
X101944301Y-52191912D01*
X102769766Y-51965510D01*
X107691259Y-51251100D01*
X108967100Y-50926810D01*
X110070915Y-50283383D01*
X110701552Y-49602461D01*
X111239650Y-48460148D01*
X111407042Y-47200312D01*
X111312159Y-46018197D01*
X111025174Y-44785534D01*
X110476057Y-43575780D01*
X109687372Y-42553431D01*
X109028489Y-41975978D01*
X107868538Y-41282337D01*
X106683387Y-40856343D01*
X105353218Y-40609715D01*
X104070359Y-40541051D01*
X102415613Y-40541051D01*
X101104716Y-40628063D01*
X99816985Y-40933963D01*
X98618430Y-41532167D01*
X98110833Y-41933235D01*
X97319906Y-42890171D01*
X96862905Y-44028381D01*
X96739829Y-45347865D01*
X96755285Y-45633515D01*
X99570184Y-45633515D01*
X99843526Y-44390357D01*
X100357867Y-43777269D01*
X101475982Y-43191247D01*
X102702158Y-43026956D01*
X102800296Y-43026222D01*
X104418405Y-43026222D01*
X105720638Y-43162267D01*
X106895389Y-43613067D01*
X107257728Y-43850542D01*
X108096627Y-44743734D01*
X108541076Y-45889159D01*
X108570533Y-46060940D01*
X108546801Y-47312923D01*
X107820941Y-48302106D01*
X106634909Y-48698762D01*
X101957658Y-49376536D01*
X100753915Y-49647392D01*
X99558163Y-50229001D01*
X98665448Y-51086230D01*
X98599319Y-51177827D01*
X98058115Y-52309889D01*
X97865392Y-53540644D01*
X97935641Y-54812490D01*
X97982606Y-55116243D01*
X98284856Y-56427140D01*
X98770289Y-57575463D01*
X99535361Y-58673000D01*
X100290701Y-59384387D01*
X101455803Y-60098690D01*
X102671484Y-60537373D01*
X103874201Y-60769702D01*
X105206648Y-60860613D01*
X105407588Y-60862056D01*
X107233304Y-60862056D01*
G37*
G36*
X83070436Y-40572249D02*
G01*
X84481439Y-40776988D01*
X85773231Y-41172815D01*
X86945811Y-41759731D01*
X87999179Y-42537736D01*
X88788795Y-43345312D01*
X89558619Y-44436164D01*
X90165404Y-45687133D01*
X90555739Y-46886833D01*
X90826290Y-48204171D01*
X91601761Y-53198937D01*
X91687342Y-53847856D01*
X91740007Y-55068736D01*
X91601761Y-56363408D01*
X91180442Y-57672015D01*
X90478244Y-58798204D01*
X90260238Y-59048124D01*
X89256553Y-59886563D01*
X88042208Y-60467022D01*
X86806850Y-60763298D01*
X85410206Y-60862056D01*
X85215432Y-60860714D01*
X83908113Y-60776189D01*
X82534247Y-60518590D01*
X81288608Y-60089256D01*
X80171197Y-59488190D01*
X79427234Y-58931202D01*
X78492415Y-57947600D01*
X77774946Y-56786254D01*
X77319662Y-55604729D01*
X80097924Y-55604729D01*
X80191358Y-55840433D01*
X80885536Y-56877272D01*
X81874791Y-57631944D01*
X82474605Y-57922209D01*
X83709475Y-58272128D01*
X84988887Y-58376885D01*
X86007456Y-58296743D01*
X87267691Y-57875996D01*
X88206786Y-57094610D01*
X88755927Y-56102654D01*
X88976055Y-54889913D01*
X88890666Y-53595831D01*
X88573150Y-51623570D01*
X81367987Y-51623570D01*
X81223451Y-51622420D01*
X79873198Y-51484317D01*
X78695871Y-51116045D01*
X77600541Y-50445099D01*
X77424658Y-50293353D01*
X76609080Y-49300151D01*
X76090541Y-48164326D01*
X75805356Y-46952426D01*
X75730682Y-46175673D01*
X75773398Y-45619478D01*
X78615759Y-45619478D01*
X78620255Y-46879153D01*
X78775650Y-47556307D01*
X79432363Y-48601065D01*
X79811732Y-48860812D01*
X81013835Y-49138399D01*
X88225104Y-49138399D01*
X88048028Y-47923291D01*
X87999513Y-47636568D01*
X87676118Y-46447262D01*
X87115123Y-45319547D01*
X86252844Y-44314603D01*
X86161986Y-44235338D01*
X85057867Y-43529496D01*
X83887576Y-43152041D01*
X82558671Y-43026222D01*
X81700690Y-43078523D01*
X80451474Y-43411543D01*
X79414044Y-44119209D01*
X79111305Y-44474780D01*
X78615759Y-45619478D01*
X75773398Y-45619478D01*
X75826996Y-44921591D01*
X76251099Y-43673466D01*
X76605186Y-43062715D01*
X77468974Y-42089703D01*
X78504240Y-41377583D01*
X79630923Y-40901315D01*
X80912011Y-40622744D01*
X82210625Y-40541051D01*
X83070436Y-40572249D01*
G37*
G36*
X70798378Y-60471267D02*
G01*
X67733130Y-40931840D01*
X64924337Y-40931840D01*
X65522732Y-44619907D01*
X65486096Y-44619907D01*
X64965029Y-43413069D01*
X64224620Y-42395269D01*
X63361183Y-41634038D01*
X62231023Y-41011761D01*
X60947902Y-40647788D01*
X59648692Y-40541051D01*
X58391211Y-40628999D01*
X57158739Y-40944893D01*
X56033135Y-41574885D01*
X55264533Y-42378979D01*
X54668994Y-43532597D01*
X54385348Y-44759154D01*
X54326869Y-45987667D01*
X54445455Y-47361103D01*
X54476850Y-47569139D01*
X54721092Y-49278839D01*
X57499355Y-49278839D01*
X57255112Y-47575245D01*
X57157469Y-46264736D01*
X57361831Y-44985323D01*
X58043582Y-43896934D01*
X59202764Y-43243900D01*
X60576344Y-43030665D01*
X60839376Y-43026222D01*
X62103404Y-43151444D01*
X63310635Y-43578452D01*
X64325942Y-44308497D01*
X65132731Y-45312129D01*
X65670828Y-46443660D01*
X65996048Y-47640480D01*
X66047855Y-47929397D01*
X67983479Y-60471267D01*
X70798378Y-60471267D01*
G37*
D12*
G36*
X18586828Y-24524010D02*
G01*
X18103960Y-24524010D01*
X18047917Y-24521067D01*
X17995834Y-24512424D01*
X17948048Y-24498355D01*
X17891606Y-24471632D01*
X17844212Y-24436406D01*
X17806670Y-24393328D01*
X17779785Y-24343052D01*
X17764361Y-24286230D01*
X17760799Y-24239711D01*
X17761975Y-24229697D01*
X17965230Y-24229697D01*
X17976121Y-24281511D01*
X18007117Y-24321441D01*
X18055699Y-24347128D01*
X18110653Y-24356067D01*
X18119347Y-24356215D01*
X18383862Y-24356215D01*
X18383862Y-24101958D01*
X18119347Y-24101958D01*
X18070297Y-24107132D01*
X18023410Y-24125385D01*
X17985524Y-24160514D01*
X17966798Y-24208711D01*
X17965230Y-24229697D01*
X17761975Y-24229697D01*
X17766994Y-24186965D01*
X17784910Y-24138405D01*
X17813542Y-24094920D01*
X17851886Y-24057399D01*
X17898936Y-24026729D01*
X17916381Y-24018183D01*
X17871109Y-23983964D01*
X17835366Y-23942730D01*
X17810193Y-23895245D01*
X17796635Y-23842277D01*
X17795547Y-23825719D01*
X17996004Y-23825719D01*
X18006137Y-23874793D01*
X18039722Y-23915763D01*
X18086637Y-23937573D01*
X18138886Y-23943933D01*
X18383862Y-23943933D01*
X18383862Y-23707261D01*
X18138886Y-23707261D01*
X18086637Y-23713624D01*
X18039722Y-23735457D01*
X18006137Y-23776504D01*
X17996004Y-23825719D01*
X17795547Y-23825719D01*
X17794504Y-23809843D01*
X17800662Y-23751933D01*
X17818577Y-23699553D01*
X17847415Y-23653377D01*
X17886339Y-23614083D01*
X17934514Y-23582345D01*
X17991104Y-23558838D01*
X18038566Y-23547017D01*
X18089939Y-23540491D01*
X18126186Y-23539222D01*
X18586828Y-23539222D01*
X18586828Y-24524010D01*
G37*
G36*
X17206717Y-23526165D02*
G01*
X17258619Y-23533729D01*
X17308587Y-23546049D01*
X17356374Y-23562887D01*
X17401739Y-23584009D01*
X17444438Y-23609178D01*
X17484226Y-23638159D01*
X17520860Y-23670717D01*
X17554097Y-23706614D01*
X17583693Y-23745616D01*
X17609405Y-23787486D01*
X17630987Y-23831989D01*
X17648198Y-23878890D01*
X17660793Y-23927952D01*
X17668529Y-23978939D01*
X17671161Y-24031616D01*
X17668529Y-24084333D01*
X17660793Y-24135350D01*
X17648198Y-24184433D01*
X17630987Y-24231346D01*
X17609405Y-24275854D01*
X17583693Y-24317724D01*
X17554097Y-24356719D01*
X17520860Y-24392607D01*
X17484226Y-24425151D01*
X17444438Y-24454118D01*
X17401739Y-24479272D01*
X17356374Y-24500379D01*
X17308587Y-24517204D01*
X17258619Y-24529513D01*
X17206717Y-24537070D01*
X17153122Y-24539641D01*
X17099327Y-24537070D01*
X17047275Y-24529513D01*
X16997205Y-24517204D01*
X16949355Y-24500379D01*
X16903964Y-24479272D01*
X16861270Y-24454118D01*
X16821511Y-24425151D01*
X16784926Y-24392607D01*
X16751753Y-24356719D01*
X16722229Y-24317724D01*
X16696594Y-24275854D01*
X16675086Y-24231346D01*
X16657942Y-24184433D01*
X16645402Y-24135350D01*
X16637703Y-24084333D01*
X16635083Y-24031616D01*
X16842445Y-24031616D01*
X16845911Y-24081660D01*
X16860763Y-24144070D01*
X16886316Y-24200501D01*
X16921486Y-24249816D01*
X16965194Y-24290874D01*
X17016356Y-24322538D01*
X17073890Y-24343666D01*
X17136716Y-24353122D01*
X17153122Y-24353528D01*
X17216698Y-24347169D01*
X17275354Y-24328852D01*
X17327994Y-24299715D01*
X17373521Y-24260899D01*
X17410839Y-24213542D01*
X17438852Y-24158782D01*
X17456464Y-24097761D01*
X17462187Y-24048570D01*
X17462578Y-24031616D01*
X17459113Y-23981295D01*
X17444273Y-23918703D01*
X17418758Y-23862255D01*
X17383663Y-23813042D01*
X17340085Y-23772155D01*
X17289121Y-23740683D01*
X17231867Y-23719718D01*
X17169418Y-23710350D01*
X17153122Y-23709948D01*
X17089143Y-23716246D01*
X17030184Y-23734414D01*
X16977328Y-23763361D01*
X16931655Y-23801997D01*
X16894249Y-23849231D01*
X16866190Y-23903972D01*
X16848562Y-23965131D01*
X16842836Y-24014555D01*
X16842445Y-24031616D01*
X16635083Y-24031616D01*
X16637703Y-23978939D01*
X16645402Y-23927952D01*
X16657942Y-23878890D01*
X16675086Y-23831989D01*
X16696594Y-23787486D01*
X16722229Y-23745616D01*
X16751753Y-23706614D01*
X16784926Y-23670717D01*
X16821511Y-23638159D01*
X16861270Y-23609178D01*
X16903964Y-23584009D01*
X16949355Y-23562887D01*
X16997205Y-23546049D01*
X17047275Y-23533729D01*
X17099327Y-23526165D01*
X17153122Y-23523591D01*
X17206717Y-23526165D01*
G37*
G36*
X16068545Y-23526165D02*
G01*
X16120448Y-23533729D01*
X16170415Y-23546049D01*
X16218203Y-23562887D01*
X16263568Y-23584009D01*
X16306266Y-23609178D01*
X16346054Y-23638159D01*
X16382689Y-23670717D01*
X16415926Y-23706614D01*
X16445522Y-23745616D01*
X16471233Y-23787486D01*
X16492816Y-23831989D01*
X16510026Y-23878890D01*
X16522621Y-23927952D01*
X16530357Y-23978939D01*
X16532990Y-24031616D01*
X16530357Y-24084333D01*
X16522621Y-24135350D01*
X16510026Y-24184433D01*
X16492816Y-24231346D01*
X16471233Y-24275854D01*
X16445522Y-24317724D01*
X16415926Y-24356719D01*
X16382689Y-24392607D01*
X16346054Y-24425151D01*
X16306266Y-24454118D01*
X16263568Y-24479272D01*
X16218203Y-24500379D01*
X16170415Y-24517204D01*
X16120448Y-24529513D01*
X16068545Y-24537070D01*
X16014951Y-24539641D01*
X15961155Y-24537070D01*
X15909103Y-24529513D01*
X15859033Y-24517204D01*
X15811183Y-24500379D01*
X15765793Y-24479272D01*
X15723099Y-24454118D01*
X15683340Y-24425151D01*
X15646755Y-24392607D01*
X15613581Y-24356719D01*
X15584058Y-24317724D01*
X15558422Y-24275854D01*
X15536914Y-24231346D01*
X15519770Y-24184433D01*
X15507230Y-24135350D01*
X15499531Y-24084333D01*
X15496912Y-24031616D01*
X15704274Y-24031616D01*
X15707740Y-24081660D01*
X15722592Y-24144070D01*
X15748144Y-24200501D01*
X15783315Y-24249816D01*
X15827022Y-24290874D01*
X15878184Y-24322538D01*
X15935719Y-24343666D01*
X15998544Y-24353122D01*
X16014951Y-24353528D01*
X16078527Y-24347169D01*
X16137183Y-24328852D01*
X16189822Y-24299715D01*
X16235349Y-24260899D01*
X16272667Y-24213542D01*
X16300680Y-24158782D01*
X16318292Y-24097761D01*
X16324016Y-24048570D01*
X16324406Y-24031616D01*
X16320941Y-23981295D01*
X16306101Y-23918703D01*
X16280586Y-23862255D01*
X16245491Y-23813042D01*
X16201914Y-23772155D01*
X16150950Y-23740683D01*
X16093695Y-23719718D01*
X16031246Y-23710350D01*
X16014951Y-23709948D01*
X15950971Y-23716246D01*
X15892013Y-23734414D01*
X15839156Y-23763361D01*
X15793483Y-23801997D01*
X15756077Y-23849231D01*
X15728019Y-23903972D01*
X15710390Y-23965131D01*
X15704664Y-24014555D01*
X15704274Y-24031616D01*
X15496912Y-24031616D01*
X15499531Y-23978939D01*
X15507230Y-23927952D01*
X15519770Y-23878890D01*
X15536914Y-23831989D01*
X15558422Y-23787486D01*
X15584058Y-23745616D01*
X15613581Y-23706614D01*
X15646755Y-23670717D01*
X15683340Y-23638159D01*
X15723099Y-23609178D01*
X15765793Y-23584009D01*
X15811183Y-23562887D01*
X15859033Y-23546049D01*
X15909103Y-23533729D01*
X15961155Y-23526165D01*
X16014951Y-23523591D01*
X16068545Y-23526165D01*
G37*
G36*
X15150087Y-24524010D02*
G01*
X14947121Y-24524010D01*
X14947121Y-23718497D01*
X14618126Y-23718497D01*
X14618126Y-23539222D01*
X15480547Y-23539222D01*
X15480547Y-23718497D01*
X15150087Y-23718497D01*
X15150087Y-24524010D01*
G37*
G36*
X14184305Y-23528871D02*
G01*
X14249308Y-23544374D01*
X14309058Y-23569595D01*
X14363102Y-23604026D01*
X14410992Y-23647163D01*
X14452277Y-23698500D01*
X14486505Y-23757529D01*
X14513227Y-23823746D01*
X14526650Y-23871634D01*
X14536402Y-23922342D01*
X14542352Y-23975719D01*
X14544364Y-24031616D01*
X14542352Y-24087553D01*
X14536402Y-24140960D01*
X14526650Y-24191688D01*
X14513227Y-24239589D01*
X14486505Y-24305811D01*
X14452277Y-24364834D01*
X14410992Y-24416154D01*
X14363102Y-24459270D01*
X14309058Y-24493679D01*
X14249308Y-24518878D01*
X14184305Y-24534367D01*
X14114497Y-24539641D01*
X14044315Y-24534367D01*
X13979006Y-24518878D01*
X13919015Y-24493679D01*
X13864784Y-24459270D01*
X13816756Y-24416154D01*
X13775375Y-24364834D01*
X13741083Y-24305811D01*
X13714324Y-24239589D01*
X13700889Y-24191688D01*
X13691129Y-24140960D01*
X13685177Y-24087553D01*
X13683164Y-24031616D01*
X13869521Y-24031616D01*
X13871999Y-24088631D01*
X13879299Y-24141217D01*
X13891218Y-24189114D01*
X13913949Y-24245242D01*
X13944056Y-24291969D01*
X13981062Y-24328686D01*
X14024489Y-24354784D01*
X14073858Y-24369652D01*
X14114497Y-24373067D01*
X14167596Y-24367021D01*
X14215194Y-24349288D01*
X14256804Y-24320478D01*
X14291939Y-24281202D01*
X14320114Y-24232067D01*
X14340841Y-24173685D01*
X14351207Y-24124196D01*
X14356904Y-24070106D01*
X14358007Y-24031616D01*
X14355536Y-23974663D01*
X14348260Y-23922128D01*
X14336384Y-23874271D01*
X14313750Y-23818183D01*
X14283789Y-23771482D01*
X14246989Y-23734780D01*
X14203837Y-23708690D01*
X14154818Y-23693824D01*
X14114497Y-23690409D01*
X14060984Y-23696455D01*
X14013056Y-23714184D01*
X13971190Y-23742985D01*
X13935864Y-23782244D01*
X13907556Y-23831349D01*
X13886744Y-23889688D01*
X13876343Y-23939133D01*
X13870628Y-23993169D01*
X13869521Y-24031616D01*
X13683164Y-24031616D01*
X13685177Y-23975719D01*
X13691129Y-23922342D01*
X13700889Y-23871634D01*
X13714324Y-23823746D01*
X13741083Y-23757529D01*
X13775375Y-23698500D01*
X13816756Y-23647163D01*
X13864784Y-23604026D01*
X13919015Y-23569595D01*
X13979006Y-23544374D01*
X14044315Y-23528871D01*
X14114497Y-23523591D01*
X14184305Y-23528871D01*
G37*
D13*
G36*
X292590404Y-97490000D02*
G01*
X291803454Y-97490000D01*
X291729391Y-97488168D01*
X291571708Y-97470651D01*
X291426428Y-97434587D01*
X291279553Y-97372763D01*
X291252018Y-97357725D01*
X291126367Y-97271028D01*
X291020751Y-97165155D01*
X290935170Y-97040104D01*
X290906663Y-96984909D01*
X290852023Y-96836803D01*
X290823159Y-96691150D01*
X290813538Y-96533789D01*
X290813538Y-95300607D01*
X291193824Y-95300607D01*
X291193824Y-96533056D01*
X291194465Y-96567941D01*
X291213218Y-96713304D01*
X291264509Y-96852523D01*
X291357955Y-96978555D01*
X291378843Y-96998164D01*
X291510307Y-97083400D01*
X291654162Y-97127679D01*
X291803454Y-97140488D01*
X292210118Y-97140488D01*
X292210118Y-94697571D01*
X291803454Y-94697571D01*
X291785938Y-94697730D01*
X291623536Y-94716792D01*
X291484318Y-94767625D01*
X291357955Y-94860237D01*
X291338080Y-94880933D01*
X291251686Y-95011035D01*
X291206807Y-95153202D01*
X291193824Y-95300607D01*
X290813538Y-95300607D01*
X290813538Y-95299874D01*
X290814607Y-95246911D01*
X290830642Y-95095443D01*
X290871028Y-94940196D01*
X290935170Y-94798688D01*
X290950684Y-94772055D01*
X291040271Y-94650482D01*
X291149894Y-94548229D01*
X291279553Y-94465296D01*
X291336465Y-94437819D01*
X291489465Y-94385154D01*
X291640258Y-94357333D01*
X291803454Y-94348060D01*
X292590404Y-94348060D01*
X292590404Y-97490000D01*
G37*
G36*
X289293813Y-95055429D02*
G01*
X289458124Y-95081350D01*
X289606447Y-95131464D01*
X289738782Y-95205771D01*
X289855129Y-95304270D01*
X289939295Y-95405559D01*
X290015480Y-95540137D01*
X290067963Y-95692387D01*
X290094084Y-95836952D01*
X290102791Y-95994501D01*
X290102791Y-96593872D01*
X290096744Y-96726064D01*
X290073526Y-96872793D01*
X290024429Y-97027568D01*
X289951630Y-97164671D01*
X289855129Y-97284103D01*
X289773655Y-97356928D01*
X289645889Y-97438148D01*
X289502134Y-97495174D01*
X289342390Y-97528007D01*
X289192742Y-97536894D01*
X289169964Y-97536722D01*
X289017254Y-97525857D01*
X288857152Y-97492747D01*
X288712438Y-97437564D01*
X288583112Y-97360307D01*
X288486005Y-97275581D01*
X288389488Y-97144701D01*
X288330458Y-97007635D01*
X288296615Y-96851060D01*
X288675436Y-96851060D01*
X288733688Y-96995774D01*
X288843963Y-97101653D01*
X288897527Y-97130788D01*
X289043746Y-97175327D01*
X289192742Y-97187383D01*
X289309887Y-97177995D01*
X289461905Y-97128707D01*
X289585484Y-97037173D01*
X289668084Y-96921106D01*
X289716397Y-96780449D01*
X289730565Y-96631242D01*
X289730565Y-96411423D01*
X288282693Y-96411423D01*
X288282693Y-95965924D01*
X288282862Y-95961528D01*
X288654919Y-95961528D01*
X288654919Y-96083161D01*
X289730565Y-96083161D01*
X289730565Y-95961528D01*
X289719436Y-95820357D01*
X289675610Y-95674104D01*
X289589881Y-95547536D01*
X289490333Y-95470256D01*
X289341406Y-95415302D01*
X289192742Y-95400990D01*
X289057998Y-95412582D01*
X288918026Y-95458235D01*
X288796336Y-95547536D01*
X288715822Y-95662242D01*
X288668729Y-95805866D01*
X288654919Y-95961528D01*
X288282862Y-95961528D01*
X288286563Y-95864991D01*
X288311958Y-95700699D01*
X288361055Y-95552116D01*
X288433854Y-95419240D01*
X288530355Y-95302072D01*
X288611829Y-95229880D01*
X288739595Y-95149367D01*
X288883350Y-95092837D01*
X289043094Y-95060289D01*
X289192742Y-95051479D01*
X289293813Y-95055429D01*
G37*
G36*
X286776203Y-97536894D02*
G01*
X286934830Y-97528094D01*
X287097141Y-97496483D01*
X287239210Y-97441883D01*
X287374842Y-97352979D01*
X287481148Y-97236190D01*
X287554415Y-97093550D01*
X287591807Y-96945058D01*
X287602721Y-96820286D01*
X287218771Y-96820286D01*
X287186657Y-96971529D01*
X287094207Y-97095059D01*
X286957187Y-97164302D01*
X286801231Y-97187022D01*
X286776203Y-97187383D01*
X286560781Y-97187383D01*
X286406001Y-97171783D01*
X286267381Y-97115014D01*
X286237648Y-97092861D01*
X286149602Y-96971338D01*
X286124808Y-96829078D01*
X286145280Y-96681974D01*
X286197348Y-96580683D01*
X286322535Y-96491034D01*
X286412037Y-96470774D01*
X287020935Y-96385045D01*
X287172661Y-96347478D01*
X287313444Y-96277559D01*
X287426866Y-96177683D01*
X287509466Y-96049250D01*
X287554803Y-95909802D01*
X287571805Y-95748745D01*
X287571946Y-95731451D01*
X287558574Y-95581929D01*
X287511562Y-95433751D01*
X287430702Y-95306786D01*
X287357990Y-95233928D01*
X287225467Y-95145733D01*
X287087234Y-95091568D01*
X286929766Y-95060209D01*
X286776203Y-95051479D01*
X286578367Y-95051479D01*
X286415151Y-95062470D01*
X286267690Y-95095443D01*
X286120626Y-95158812D01*
X286020027Y-95227334D01*
X285913626Y-95336447D01*
X285837595Y-95466773D01*
X285791936Y-95618312D01*
X285779692Y-95711667D01*
X286163642Y-95711667D01*
X286212998Y-95569704D01*
X286291137Y-95485254D01*
X286426576Y-95419505D01*
X286578367Y-95400990D01*
X286776203Y-95400990D01*
X286922676Y-95416227D01*
X287063772Y-95476815D01*
X287085415Y-95493314D01*
X287174879Y-95616756D01*
X287196057Y-95740976D01*
X287165060Y-95889056D01*
X287060543Y-95991941D01*
X286933740Y-96028939D01*
X286360013Y-96110272D01*
X286204455Y-96144120D01*
X286057309Y-96208921D01*
X285937210Y-96302344D01*
X285906454Y-96335952D01*
X285822992Y-96463722D01*
X285770442Y-96614389D01*
X285749576Y-96769567D01*
X285748185Y-96825415D01*
X285761741Y-96984005D01*
X285809397Y-97140413D01*
X285891365Y-97273521D01*
X285965073Y-97349316D01*
X286099585Y-97439991D01*
X286240853Y-97495678D01*
X286402545Y-97527918D01*
X286560781Y-97536894D01*
X286776203Y-97536894D01*
G37*
G36*
X285075540Y-97490000D02*
G01*
X285075540Y-97140488D01*
X284248290Y-97140488D01*
X284248290Y-95447885D01*
X284986880Y-95447885D01*
X284986880Y-95098374D01*
X283863607Y-95098374D01*
X283863607Y-97140488D01*
X283078855Y-97140488D01*
X283078855Y-97490000D01*
X285075540Y-97490000D01*
G37*
G36*
X284094417Y-94723217D02*
G01*
X284241493Y-94697385D01*
X284320097Y-94649944D01*
X284396793Y-94523219D01*
X284405094Y-94448443D01*
X284371892Y-94304760D01*
X284320097Y-94238883D01*
X284184226Y-94169745D01*
X284094417Y-94160481D01*
X283947598Y-94188121D01*
X283869469Y-94238883D01*
X283792112Y-94371306D01*
X283783740Y-94448443D01*
X283820660Y-94593075D01*
X283869469Y-94649944D01*
X284004694Y-94714558D01*
X284094417Y-94723217D01*
G37*
G36*
X281767947Y-95051716D02*
G01*
X281918259Y-95066637D01*
X282072269Y-95112112D01*
X282207320Y-95187904D01*
X282323412Y-95294012D01*
X282373386Y-95357027D01*
X282453345Y-95498443D01*
X282501446Y-95639013D01*
X282529140Y-95795290D01*
X282536636Y-95941744D01*
X282536636Y-96441465D01*
X282535803Y-96492075D01*
X282519770Y-96658480D01*
X282483330Y-96808196D01*
X282416697Y-96958863D01*
X282323412Y-97087732D01*
X282309937Y-97102247D01*
X282191476Y-97201784D01*
X282054055Y-97271828D01*
X281897674Y-97312380D01*
X281745289Y-97323670D01*
X281605631Y-97313875D01*
X281454144Y-97275299D01*
X281312979Y-97199839D01*
X281236134Y-97131924D01*
X281154183Y-97008929D01*
X281123452Y-96900314D01*
X281144452Y-97259923D01*
X281144452Y-97469483D01*
X281145431Y-97506204D01*
X281175885Y-97656791D01*
X281255826Y-97780160D01*
X281284907Y-97806092D01*
X281419245Y-97872542D01*
X281567969Y-97890802D01*
X282236950Y-97890802D01*
X282236950Y-98240314D01*
X281572365Y-98240314D01*
X281548983Y-98240115D01*
X281394083Y-98227582D01*
X281235860Y-98189389D01*
X281097694Y-98125733D01*
X280979588Y-98036615D01*
X280875099Y-97909515D01*
X280810928Y-97775517D01*
X280773776Y-97621736D01*
X280763433Y-97470949D01*
X280763433Y-95956399D01*
X281140055Y-95956399D01*
X281140055Y-96418750D01*
X281150894Y-96557500D01*
X281193579Y-96702053D01*
X281277076Y-96828346D01*
X281361562Y-96898831D01*
X281498553Y-96956929D01*
X281648569Y-96974159D01*
X281749418Y-96967462D01*
X281897830Y-96924820D01*
X282023726Y-96834207D01*
X282087836Y-96747081D01*
X282140678Y-96604765D01*
X282156350Y-96448060D01*
X282156350Y-95927090D01*
X282150004Y-95824462D01*
X282109595Y-95672187D01*
X282023726Y-95540942D01*
X281940431Y-95473289D01*
X281802323Y-95417528D01*
X281648569Y-95400990D01*
X281549042Y-95408003D01*
X281401592Y-95452654D01*
X281274877Y-95547536D01*
X281198118Y-95661636D01*
X281153222Y-95803442D01*
X281140055Y-95956399D01*
X280763433Y-95956399D01*
X280763433Y-95098374D01*
X281140055Y-95098374D01*
X281122243Y-95516947D01*
X281138224Y-95436436D01*
X281204993Y-95296096D01*
X281312979Y-95183370D01*
X281441089Y-95108280D01*
X281590672Y-95064359D01*
X281745289Y-95051479D01*
X281767947Y-95051716D01*
G37*
G36*
X280002128Y-97490000D02*
G01*
X280002128Y-95098374D01*
X279621842Y-95098374D01*
X279645289Y-95584173D01*
X279620331Y-95436883D01*
X279558495Y-95300650D01*
X279460642Y-95191430D01*
X279331807Y-95111751D01*
X279178037Y-95065146D01*
X279016608Y-95051479D01*
X278867649Y-95062348D01*
X278714154Y-95101389D01*
X278578519Y-95168823D01*
X278460744Y-95264650D01*
X278447278Y-95278625D01*
X278353672Y-95401769D01*
X278286810Y-95544788D01*
X278246693Y-95707683D01*
X278233530Y-95866520D01*
X278233321Y-95890453D01*
X278233321Y-97490000D01*
X278613607Y-97490000D01*
X278613607Y-95957864D01*
X278626559Y-95801644D01*
X278670724Y-95658233D01*
X278746231Y-95544605D01*
X278870193Y-95451620D01*
X279013384Y-95407863D01*
X279109665Y-95400990D01*
X279261852Y-95418653D01*
X279400424Y-95478210D01*
X279485554Y-95550467D01*
X279568604Y-95679679D01*
X279611061Y-95828175D01*
X279621842Y-95971053D01*
X279621842Y-97490000D01*
X280002128Y-97490000D01*
G37*
G36*
X276705536Y-95055429D02*
G01*
X276869848Y-95081350D01*
X277018171Y-95131464D01*
X277150506Y-95205771D01*
X277266852Y-95304270D01*
X277351019Y-95405559D01*
X277427204Y-95540137D01*
X277479687Y-95692387D01*
X277505808Y-95836952D01*
X277514515Y-95994501D01*
X277514515Y-96593872D01*
X277508468Y-96726064D01*
X277485250Y-96872793D01*
X277436153Y-97027568D01*
X277363353Y-97164671D01*
X277266852Y-97284103D01*
X277185379Y-97356928D01*
X277057612Y-97438148D01*
X276913857Y-97495174D01*
X276754114Y-97528007D01*
X276604466Y-97536894D01*
X276581688Y-97536722D01*
X276428977Y-97525857D01*
X276268876Y-97492747D01*
X276124162Y-97437564D01*
X275994836Y-97360307D01*
X275897728Y-97275581D01*
X275801212Y-97144701D01*
X275742182Y-97007635D01*
X275708339Y-96851060D01*
X276087159Y-96851060D01*
X276145411Y-96995774D01*
X276255687Y-97101653D01*
X276309250Y-97130788D01*
X276455470Y-97175327D01*
X276604466Y-97187383D01*
X276721611Y-97177995D01*
X276873629Y-97128707D01*
X276997208Y-97037173D01*
X277079808Y-96921106D01*
X277128120Y-96780449D01*
X277142288Y-96631242D01*
X277142288Y-96411423D01*
X275694417Y-96411423D01*
X275694417Y-95965924D01*
X275694586Y-95961528D01*
X276066643Y-95961528D01*
X276066643Y-96083161D01*
X277142288Y-96083161D01*
X277142288Y-95961528D01*
X277131160Y-95820357D01*
X277087334Y-95674104D01*
X277001605Y-95547536D01*
X276902056Y-95470256D01*
X276753129Y-95415302D01*
X276604466Y-95400990D01*
X276469722Y-95412582D01*
X276329750Y-95458235D01*
X276208060Y-95547536D01*
X276127546Y-95662242D01*
X276080453Y-95805866D01*
X276066643Y-95961528D01*
X275694586Y-95961528D01*
X275698287Y-95864991D01*
X275723682Y-95700699D01*
X275772779Y-95552116D01*
X275845578Y-95419240D01*
X275942079Y-95302072D01*
X276023552Y-95229880D01*
X276151319Y-95149367D01*
X276295074Y-95092837D01*
X276454817Y-95060289D01*
X276604466Y-95051479D01*
X276705536Y-95055429D01*
G37*
G36*
X273587090Y-95042686D02*
G01*
X273559246Y-95568053D01*
X273585664Y-95427160D01*
X273651419Y-95295815D01*
X273755617Y-95189232D01*
X273766921Y-95180757D01*
X273902415Y-95105289D01*
X274043322Y-95064931D01*
X274201116Y-95051479D01*
X274223504Y-95051716D01*
X274372162Y-95066637D01*
X274524799Y-95112112D01*
X274659026Y-95187904D01*
X274774842Y-95294012D01*
X274824817Y-95357279D01*
X274904776Y-95499611D01*
X274952876Y-95641433D01*
X274980570Y-95799383D01*
X274988066Y-95947606D01*
X274988066Y-96645163D01*
X274987225Y-96695879D01*
X274971026Y-96862880D01*
X274934211Y-97013543D01*
X274866892Y-97165721D01*
X274772644Y-97296559D01*
X274759043Y-97311345D01*
X274640341Y-97412737D01*
X274504053Y-97484086D01*
X274350181Y-97525394D01*
X274201116Y-97536894D01*
X274043751Y-97524014D01*
X273891146Y-97480093D01*
X273760013Y-97405003D01*
X273673383Y-97322462D01*
X273596103Y-97187702D01*
X273563642Y-97039371D01*
X273587090Y-97490000D01*
X273206803Y-97490000D01*
X273206803Y-95962993D01*
X273587090Y-95962993D01*
X273587090Y-96625380D01*
X273597928Y-96765662D01*
X273640613Y-96911774D01*
X273724110Y-97039371D01*
X273808596Y-97110920D01*
X273945588Y-97169893D01*
X274095603Y-97187383D01*
X274196843Y-97181106D01*
X274346251Y-97141144D01*
X274473691Y-97056224D01*
X274555402Y-96936526D01*
X274597174Y-96789329D01*
X274607780Y-96642233D01*
X274607780Y-95950537D01*
X274599400Y-95818188D01*
X274560509Y-95667015D01*
X274473691Y-95534347D01*
X274389276Y-95469883D01*
X274250034Y-95416748D01*
X274095603Y-95400990D01*
X273982671Y-95410241D01*
X273837660Y-95458807D01*
X273721912Y-95549002D01*
X273645153Y-95664368D01*
X273600256Y-95807961D01*
X273587090Y-95962993D01*
X273206803Y-95962993D01*
X273206803Y-94348060D01*
X273587090Y-94348060D01*
X273587090Y-95042686D01*
G37*
G36*
X269931507Y-97490000D02*
G01*
X269551221Y-97490000D01*
X269574668Y-97039371D01*
X269554747Y-97149601D01*
X269488630Y-97291419D01*
X269379030Y-97405003D01*
X269247480Y-97480093D01*
X269094631Y-97524014D01*
X268937194Y-97536894D01*
X268915075Y-97536659D01*
X268767934Y-97521873D01*
X268616259Y-97476810D01*
X268482170Y-97401706D01*
X268365666Y-97296559D01*
X268315176Y-97233808D01*
X268234393Y-97092300D01*
X268185797Y-96950974D01*
X268157817Y-96793309D01*
X268150244Y-96645163D01*
X268150244Y-95950537D01*
X268530530Y-95950537D01*
X268530530Y-96642233D01*
X268538956Y-96774170D01*
X268578060Y-96924626D01*
X268665352Y-97056224D01*
X268749413Y-97119626D01*
X268888363Y-97171884D01*
X269042707Y-97187383D01*
X269154173Y-97178132D01*
X269298361Y-97129566D01*
X269414933Y-97039371D01*
X269492527Y-96923674D01*
X269537911Y-96780097D01*
X269551221Y-96625380D01*
X269551221Y-95962993D01*
X269540556Y-95822415D01*
X269498556Y-95676256D01*
X269416399Y-95549002D01*
X269332331Y-95477453D01*
X269194635Y-95418480D01*
X269042707Y-95400990D01*
X268941503Y-95407372D01*
X268792318Y-95448004D01*
X268665352Y-95534347D01*
X268583195Y-95655041D01*
X268541194Y-95802971D01*
X268530530Y-95950537D01*
X268150244Y-95950537D01*
X268150244Y-95947606D01*
X268151077Y-95896882D01*
X268167110Y-95729715D01*
X268203550Y-95578677D01*
X268270182Y-95425812D01*
X268363468Y-95294012D01*
X268376938Y-95279091D01*
X268495056Y-95176772D01*
X268631584Y-95104770D01*
X268786522Y-95063085D01*
X268937194Y-95051479D01*
X269094988Y-95064931D01*
X269249057Y-95110804D01*
X269382693Y-95189232D01*
X269470805Y-95274594D01*
X269548257Y-95414196D01*
X269579064Y-95568053D01*
X269551221Y-95042686D01*
X269551221Y-94348060D01*
X269931507Y-94348060D01*
X269931507Y-97490000D01*
G37*
G36*
X267057013Y-98240314D02*
G01*
X266706769Y-97314145D01*
X267580914Y-95098374D01*
X267167655Y-95098374D01*
X266604919Y-96577020D01*
X266556089Y-96715627D01*
X266536775Y-96771926D01*
X266508199Y-96875240D01*
X266482554Y-96772658D01*
X266435451Y-96628439D01*
X266416608Y-96572623D01*
X265891974Y-95098374D01*
X265487508Y-95098374D01*
X266661339Y-98240314D01*
X267057013Y-98240314D01*
G37*
G36*
X262378541Y-97490000D02*
G01*
X262378541Y-94348060D01*
X261998255Y-94348060D01*
X261998255Y-95686755D01*
X261530041Y-95686755D01*
X260846406Y-94348060D01*
X260426552Y-94348060D01*
X261193719Y-95855282D01*
X260384054Y-97490000D01*
X260825157Y-97490000D01*
X261538834Y-96036266D01*
X261998255Y-96036266D01*
X261998255Y-97490000D01*
X262378541Y-97490000D01*
G37*
G36*
X259020040Y-95052215D02*
G01*
X259178591Y-95066375D01*
X259322697Y-95098557D01*
X259469700Y-95157404D01*
X259597836Y-95239790D01*
X259679367Y-95314812D01*
X259773552Y-95443863D01*
X259834004Y-95592736D01*
X259859420Y-95741709D01*
X259477669Y-95741709D01*
X259434438Y-95595713D01*
X259331123Y-95488918D01*
X259277645Y-95459036D01*
X259128020Y-95413355D01*
X258972086Y-95400990D01*
X258830657Y-95412350D01*
X258672927Y-95466421D01*
X258562180Y-95565021D01*
X258498417Y-95708150D01*
X258481158Y-95866273D01*
X258481158Y-96036266D01*
X259196301Y-96036266D01*
X259305615Y-96042219D01*
X259457736Y-96073475D01*
X259595638Y-96131521D01*
X259658355Y-96169740D01*
X259775861Y-96269692D01*
X259868213Y-96393105D01*
X259911169Y-96479658D01*
X259952591Y-96622197D01*
X259966399Y-96779986D01*
X259956196Y-96920845D01*
X259919548Y-97067231D01*
X259846460Y-97213303D01*
X259753175Y-97326601D01*
X259739647Y-97339539D01*
X259620247Y-97428256D01*
X259480971Y-97490687D01*
X259321820Y-97526831D01*
X259166259Y-97536894D01*
X259109679Y-97535690D01*
X258951764Y-97517626D01*
X258797104Y-97472131D01*
X258664340Y-97399874D01*
X258568848Y-97315207D01*
X258485523Y-97178696D01*
X258458786Y-97055137D01*
X258476762Y-97490000D01*
X258100872Y-97490000D01*
X258100872Y-96688394D01*
X258481158Y-96688394D01*
X258491279Y-96798075D01*
X258544413Y-96939755D01*
X258643091Y-97054026D01*
X258653280Y-97062231D01*
X258780374Y-97135290D01*
X258935002Y-97176834D01*
X259081995Y-97187383D01*
X259166814Y-97183338D01*
X259314505Y-97150984D01*
X259449825Y-97072344D01*
X259473395Y-97050118D01*
X259556471Y-96919278D01*
X259581716Y-96767529D01*
X259581604Y-96756465D01*
X259552957Y-96605963D01*
X259466678Y-96477369D01*
X259444365Y-96457203D01*
X259314642Y-96386127D01*
X259166259Y-96364528D01*
X258481158Y-96364528D01*
X258481158Y-96688394D01*
X258100872Y-96688394D01*
X258100872Y-95856748D01*
X258101093Y-95833054D01*
X258115023Y-95676496D01*
X258157475Y-95517494D01*
X258228229Y-95379741D01*
X258327285Y-95263237D01*
X258386888Y-95213607D01*
X258524091Y-95134197D01*
X258663829Y-95086427D01*
X258821940Y-95058924D01*
X258972086Y-95051479D01*
X259020040Y-95052215D01*
G37*
G36*
X256137892Y-97490000D02*
G01*
X256284575Y-97478825D01*
X256430654Y-97439541D01*
X256569443Y-97362719D01*
X256629553Y-97311214D01*
X256725766Y-97187380D01*
X256786345Y-97039360D01*
X256810399Y-96885463D01*
X256812002Y-96829811D01*
X256812002Y-94697571D01*
X257604815Y-94697571D01*
X257604815Y-94348060D01*
X256430983Y-94348060D01*
X256430983Y-96832742D01*
X256406408Y-96977693D01*
X256353314Y-97060621D01*
X256218120Y-97132688D01*
X256137892Y-97140488D01*
X255397103Y-97140488D01*
X255397103Y-97490000D01*
X256137892Y-97490000D01*
G37*
G36*
X254468736Y-98240314D02*
G01*
X254118492Y-97314145D01*
X254992637Y-95098374D01*
X254579378Y-95098374D01*
X254016643Y-96577020D01*
X253967813Y-96715627D01*
X253948499Y-96771926D01*
X253919923Y-96875240D01*
X253894277Y-96772658D01*
X253847175Y-96628439D01*
X253828332Y-96572623D01*
X253303698Y-95098374D01*
X252899232Y-95098374D01*
X254073063Y-98240314D01*
X254468736Y-98240314D01*
G37*
G36*
X251467074Y-95052215D02*
G01*
X251625625Y-95066375D01*
X251769731Y-95098557D01*
X251916734Y-95157404D01*
X252044870Y-95239790D01*
X252126401Y-95314812D01*
X252220586Y-95443863D01*
X252281038Y-95592736D01*
X252306454Y-95741709D01*
X251924703Y-95741709D01*
X251881472Y-95595713D01*
X251778157Y-95488918D01*
X251724679Y-95459036D01*
X251575054Y-95413355D01*
X251419120Y-95400990D01*
X251277691Y-95412350D01*
X251119961Y-95466421D01*
X251009214Y-95565021D01*
X250945451Y-95708150D01*
X250928192Y-95866273D01*
X250928192Y-96036266D01*
X251643335Y-96036266D01*
X251752649Y-96042219D01*
X251904770Y-96073475D01*
X252042672Y-96131521D01*
X252105389Y-96169740D01*
X252222895Y-96269692D01*
X252315247Y-96393105D01*
X252358203Y-96479658D01*
X252399626Y-96622197D01*
X252413433Y-96779986D01*
X252403230Y-96920845D01*
X252366582Y-97067231D01*
X252293494Y-97213303D01*
X252200209Y-97326601D01*
X252186681Y-97339539D01*
X252067281Y-97428256D01*
X251928005Y-97490687D01*
X251768854Y-97526831D01*
X251613293Y-97536894D01*
X251556714Y-97535690D01*
X251398798Y-97517626D01*
X251244138Y-97472131D01*
X251111374Y-97399874D01*
X251015882Y-97315207D01*
X250932557Y-97178696D01*
X250905820Y-97055137D01*
X250923796Y-97490000D01*
X250547906Y-97490000D01*
X250547906Y-96688394D01*
X250928192Y-96688394D01*
X250938313Y-96798075D01*
X250991447Y-96939755D01*
X251090125Y-97054026D01*
X251100314Y-97062231D01*
X251227409Y-97135290D01*
X251382037Y-97176834D01*
X251529030Y-97187383D01*
X251613849Y-97183338D01*
X251761539Y-97150984D01*
X251896859Y-97072344D01*
X251920430Y-97050118D01*
X252003506Y-96919278D01*
X252028750Y-96767529D01*
X252028638Y-96756465D01*
X251999991Y-96605963D01*
X251913712Y-96477369D01*
X251891400Y-96457203D01*
X251761677Y-96386127D01*
X251613293Y-96364528D01*
X250928192Y-96364528D01*
X250928192Y-96688394D01*
X250547906Y-96688394D01*
X250547906Y-95856748D01*
X250548127Y-95833054D01*
X250562057Y-95676496D01*
X250604509Y-95517494D01*
X250675263Y-95379741D01*
X250774319Y-95263237D01*
X250833922Y-95213607D01*
X250971125Y-95134197D01*
X251110863Y-95086427D01*
X251268974Y-95058924D01*
X251419120Y-95051479D01*
X251467074Y-95052215D01*
G37*
G36*
X249790265Y-97490000D02*
G01*
X249790265Y-95098374D01*
X249409979Y-95098374D01*
X249433426Y-95584173D01*
X249408467Y-95436883D01*
X249346632Y-95300650D01*
X249248778Y-95191430D01*
X249119944Y-95111751D01*
X248966174Y-95065146D01*
X248804745Y-95051479D01*
X248655786Y-95062348D01*
X248502290Y-95101389D01*
X248366655Y-95168823D01*
X248248881Y-95264650D01*
X248235415Y-95278625D01*
X248141809Y-95401769D01*
X248074947Y-95544788D01*
X248034830Y-95707683D01*
X248021667Y-95866520D01*
X248021458Y-95890453D01*
X248021458Y-97490000D01*
X248401744Y-97490000D01*
X248401744Y-95957864D01*
X248414696Y-95801644D01*
X248458860Y-95658233D01*
X248534368Y-95544605D01*
X248658329Y-95451620D01*
X248801520Y-95407863D01*
X248897801Y-95400990D01*
X249049989Y-95418653D01*
X249188561Y-95478210D01*
X249273691Y-95550467D01*
X249356741Y-95679679D01*
X249399198Y-95828175D01*
X249409979Y-95971053D01*
X249409979Y-97490000D01*
X249790265Y-97490000D01*
G37*
G36*
X243858094Y-97536894D02*
G01*
X244018356Y-97528239D01*
X244166665Y-97502273D01*
X244324585Y-97450100D01*
X244466236Y-97374366D01*
X244574703Y-97290697D01*
X244681197Y-97173129D01*
X244761534Y-97036486D01*
X244815716Y-96880770D01*
X244841338Y-96732118D01*
X244848011Y-96597536D01*
X244463328Y-96597536D01*
X244450229Y-96747376D01*
X244404949Y-96889256D01*
X244317784Y-97015406D01*
X244297732Y-97034975D01*
X244171070Y-97121746D01*
X244018779Y-97172499D01*
X243858094Y-97187383D01*
X243703220Y-97172714D01*
X243556990Y-97122693D01*
X243436043Y-97037173D01*
X243339597Y-96910778D01*
X243290293Y-96771742D01*
X243277773Y-96641500D01*
X243294824Y-96490423D01*
X243351325Y-96348010D01*
X243381088Y-96302247D01*
X243486976Y-96194976D01*
X243625121Y-96121927D01*
X243670516Y-96107341D01*
X244130669Y-95975450D01*
X244270254Y-95923380D01*
X244408894Y-95844548D01*
X244528060Y-95744271D01*
X244596685Y-95665505D01*
X244679568Y-95533305D01*
X244735325Y-95388122D01*
X244763957Y-95229956D01*
X244768143Y-95136475D01*
X244757124Y-94986710D01*
X244719547Y-94835687D01*
X244655303Y-94699036D01*
X244567092Y-94579443D01*
X244458620Y-94479590D01*
X244342428Y-94405945D01*
X244197458Y-94346290D01*
X244052744Y-94313546D01*
X243895723Y-94301267D01*
X243879344Y-94301165D01*
X243720347Y-94311684D01*
X243573086Y-94343240D01*
X243424653Y-94402249D01*
X243411863Y-94408876D01*
X243282296Y-94492798D01*
X243173683Y-94596460D01*
X243093126Y-94707829D01*
X243027630Y-94849525D01*
X242991681Y-94996071D01*
X242978537Y-95142400D01*
X242978087Y-95176775D01*
X243358374Y-95176775D01*
X243375517Y-95020070D01*
X243433322Y-94877754D01*
X243503454Y-94790628D01*
X243623976Y-94705345D01*
X243769022Y-94659423D01*
X243879344Y-94650676D01*
X244027375Y-94666434D01*
X244164573Y-94719569D01*
X244250837Y-94784033D01*
X244341924Y-94905808D01*
X244386575Y-95054430D01*
X244391521Y-95132079D01*
X244371235Y-95284943D01*
X244304877Y-95424574D01*
X244299197Y-95432498D01*
X244187090Y-95540026D01*
X244047385Y-95607227D01*
X244036880Y-95610551D01*
X243568667Y-95746106D01*
X243421342Y-95799412D01*
X243290779Y-95872135D01*
X243163931Y-95977158D01*
X243079937Y-96075833D01*
X243002038Y-96202000D01*
X242946397Y-96338700D01*
X242913012Y-96485932D01*
X242901884Y-96643698D01*
X242913547Y-96805499D01*
X242948538Y-96953848D01*
X243006856Y-97088745D01*
X243021318Y-97114110D01*
X243114685Y-97241574D01*
X243230564Y-97347913D01*
X243355443Y-97426252D01*
X243496464Y-97484598D01*
X243652083Y-97521335D01*
X243804621Y-97535922D01*
X243858094Y-97536894D01*
G37*
G36*
X242153035Y-97490000D02*
G01*
X242153035Y-95098374D01*
X241768353Y-95098374D01*
X241791800Y-95567320D01*
X241762622Y-95413880D01*
X241689515Y-95274536D01*
X241606420Y-95189232D01*
X241478191Y-95110804D01*
X241326240Y-95064931D01*
X241167515Y-95051479D01*
X241010872Y-95062418D01*
X240852546Y-95101711D01*
X240716293Y-95169580D01*
X240602113Y-95266025D01*
X240589392Y-95280090D01*
X240501557Y-95405570D01*
X240438817Y-95554131D01*
X240404506Y-95703055D01*
X240389409Y-95869650D01*
X240388625Y-95920495D01*
X240388625Y-96149839D01*
X240768911Y-96149839D01*
X240768911Y-95921960D01*
X240781004Y-95771876D01*
X240827440Y-95625353D01*
X240925635Y-95500707D01*
X241071233Y-95425920D01*
X241233761Y-95401499D01*
X241264235Y-95400990D01*
X241420390Y-95418220D01*
X241558550Y-95476318D01*
X241640125Y-95546803D01*
X241718264Y-95673886D01*
X241758210Y-95821517D01*
X241768353Y-95964459D01*
X241768353Y-97490000D01*
X242153035Y-97490000D01*
G37*
G36*
X239757745Y-97490000D02*
G01*
X239757745Y-97140488D01*
X238930495Y-97140488D01*
X238930495Y-95447885D01*
X239669085Y-95447885D01*
X239669085Y-95098374D01*
X238545812Y-95098374D01*
X238545812Y-97140488D01*
X237761060Y-97140488D01*
X237761060Y-97490000D01*
X239757745Y-97490000D01*
G37*
G36*
X238776622Y-94723217D02*
G01*
X238923699Y-94697385D01*
X239002302Y-94649944D01*
X239078998Y-94523219D01*
X239087299Y-94448443D01*
X239054097Y-94304760D01*
X239002302Y-94238883D01*
X238866431Y-94169745D01*
X238776622Y-94160481D01*
X238629804Y-94188121D01*
X238551674Y-94238883D01*
X238474317Y-94371306D01*
X238465945Y-94448443D01*
X238502866Y-94593075D01*
X238551674Y-94649944D01*
X238686899Y-94714558D01*
X238776622Y-94723217D01*
G37*
G36*
X237117725Y-97490000D02*
G01*
X237117725Y-95098374D01*
X236733042Y-95098374D01*
X236756489Y-95567320D01*
X236727311Y-95413880D01*
X236654204Y-95274536D01*
X236571109Y-95189232D01*
X236442881Y-95110804D01*
X236290929Y-95064931D01*
X236132205Y-95051479D01*
X235975562Y-95062418D01*
X235817235Y-95101711D01*
X235680982Y-95169580D01*
X235566802Y-95266025D01*
X235554082Y-95280090D01*
X235466246Y-95405570D01*
X235403506Y-95554131D01*
X235369195Y-95703055D01*
X235354098Y-95869650D01*
X235353314Y-95920495D01*
X235353314Y-96149839D01*
X235733600Y-96149839D01*
X235733600Y-95921960D01*
X235745693Y-95771876D01*
X235792130Y-95625353D01*
X235890324Y-95500707D01*
X236035922Y-95425920D01*
X236198451Y-95401499D01*
X236228925Y-95400990D01*
X236385080Y-95418220D01*
X236523239Y-95476318D01*
X236604815Y-95546803D01*
X236682953Y-95673886D01*
X236722899Y-95821517D01*
X236733042Y-95964459D01*
X236733042Y-97490000D01*
X237117725Y-97490000D01*
G37*
G36*
X233843487Y-95052215D02*
G01*
X234002038Y-95066375D01*
X234146144Y-95098557D01*
X234293148Y-95157404D01*
X234421284Y-95239790D01*
X234502814Y-95314812D01*
X234596999Y-95443863D01*
X234657451Y-95592736D01*
X234682868Y-95741709D01*
X234301116Y-95741709D01*
X234257885Y-95595713D01*
X234154570Y-95488918D01*
X234101093Y-95459036D01*
X233951467Y-95413355D01*
X233795533Y-95400990D01*
X233654104Y-95412350D01*
X233496374Y-95466421D01*
X233385628Y-95565021D01*
X233321864Y-95708150D01*
X233304605Y-95866273D01*
X233304605Y-96036266D01*
X234019748Y-96036266D01*
X234129062Y-96042219D01*
X234281184Y-96073475D01*
X234419085Y-96131521D01*
X234481802Y-96169740D01*
X234599308Y-96269692D01*
X234691660Y-96393105D01*
X234734617Y-96479658D01*
X234776039Y-96622197D01*
X234789846Y-96779986D01*
X234779643Y-96920845D01*
X234742995Y-97067231D01*
X234669907Y-97213303D01*
X234576622Y-97326601D01*
X234563094Y-97339539D01*
X234443694Y-97428256D01*
X234304418Y-97490687D01*
X234145267Y-97526831D01*
X233989706Y-97536894D01*
X233933127Y-97535690D01*
X233775212Y-97517626D01*
X233620551Y-97472131D01*
X233487787Y-97399874D01*
X233392295Y-97315207D01*
X233308970Y-97178696D01*
X233282233Y-97055132D01*
X233300209Y-97490000D01*
X232924319Y-97490000D01*
X232924319Y-96688394D01*
X233304605Y-96688394D01*
X233314726Y-96798075D01*
X233367860Y-96939755D01*
X233466538Y-97054026D01*
X233476727Y-97062231D01*
X233603822Y-97135290D01*
X233758450Y-97176834D01*
X233905443Y-97187383D01*
X233990262Y-97183338D01*
X234137952Y-97150984D01*
X234273272Y-97072344D01*
X234296843Y-97050118D01*
X234379919Y-96919278D01*
X234405163Y-96767529D01*
X234405051Y-96756465D01*
X234376404Y-96605963D01*
X234290125Y-96477369D01*
X234267813Y-96457203D01*
X234138090Y-96386127D01*
X233989706Y-96364528D01*
X233304605Y-96364528D01*
X233304605Y-96688394D01*
X232924319Y-96688394D01*
X232924319Y-95856748D01*
X232924540Y-95833054D01*
X232938470Y-95676496D01*
X232980922Y-95517494D01*
X233051676Y-95379741D01*
X233150732Y-95263237D01*
X233210335Y-95213607D01*
X233347539Y-95134197D01*
X233487276Y-95086427D01*
X233645387Y-95058924D01*
X233795533Y-95051479D01*
X233843487Y-95052215D01*
G37*
G36*
X232305896Y-97490000D02*
G01*
X232305896Y-95098374D01*
X231968108Y-95098374D01*
X231982763Y-95456678D01*
X231991556Y-95455945D01*
X231962672Y-95303714D01*
X231881820Y-95172212D01*
X231875052Y-95165052D01*
X231749023Y-95079872D01*
X231601590Y-95051590D01*
X231590753Y-95051479D01*
X231438162Y-95078040D01*
X231311584Y-95157725D01*
X231219993Y-95282288D01*
X231174054Y-95432340D01*
X231172365Y-95443489D01*
X231176762Y-95444221D01*
X231147030Y-95292023D01*
X231064919Y-95165169D01*
X231058060Y-95158457D01*
X230930382Y-95078224D01*
X230782401Y-95051583D01*
X230771563Y-95051479D01*
X230624381Y-95071826D01*
X230488900Y-95140433D01*
X230404466Y-95223670D01*
X230326455Y-95353913D01*
X230280826Y-95507880D01*
X230267445Y-95668436D01*
X230267445Y-97490000D01*
X230630879Y-97490000D01*
X230630879Y-95682358D01*
X230653869Y-95536831D01*
X230696092Y-95461074D01*
X230822350Y-95384825D01*
X230877076Y-95379741D01*
X231018584Y-95424667D01*
X231054396Y-95459609D01*
X231113240Y-95598896D01*
X231119609Y-95682358D01*
X231119609Y-97490000D01*
X231453733Y-97490000D01*
X231453733Y-95682358D01*
X231476981Y-95536831D01*
X231519678Y-95461074D01*
X231649749Y-95383633D01*
X231696266Y-95379741D01*
X231841484Y-95424255D01*
X231877250Y-95458876D01*
X231936094Y-95598509D01*
X231942463Y-95682358D01*
X231942463Y-97490000D01*
X232305896Y-97490000D01*
G37*
D12*
G36*
X31939641Y-86944818D02*
G01*
X31937164Y-86996946D01*
X31929868Y-87047138D01*
X31917953Y-87095195D01*
X31891858Y-87162850D01*
X31856501Y-87224597D01*
X31812557Y-87279772D01*
X31760704Y-87327711D01*
X31701620Y-87367750D01*
X31635982Y-87399224D01*
X31588917Y-87415121D01*
X31539441Y-87426720D01*
X31487755Y-87433823D01*
X31434058Y-87436235D01*
X31372509Y-87436235D01*
X31372509Y-86929431D01*
X31548852Y-86929431D01*
X31548852Y-87219103D01*
X31602398Y-87201461D01*
X31649803Y-87172905D01*
X31689868Y-87134616D01*
X31721390Y-87087772D01*
X31743166Y-87033554D01*
X31753996Y-86973141D01*
X31754993Y-86947505D01*
X31751390Y-86898681D01*
X31735953Y-86837830D01*
X31709407Y-86782841D01*
X31672889Y-86734813D01*
X31627534Y-86694845D01*
X31574479Y-86664036D01*
X31514860Y-86643485D01*
X31466522Y-86635465D01*
X31432837Y-86633897D01*
X31382430Y-86637296D01*
X31319677Y-86651885D01*
X31263034Y-86677033D01*
X31213613Y-86711720D01*
X31172524Y-86754928D01*
X31140877Y-86805639D01*
X31119783Y-86862832D01*
X31110353Y-86925489D01*
X31109948Y-86941887D01*
X31114693Y-86999551D01*
X31128740Y-87054102D01*
X31151810Y-87105104D01*
X31183622Y-87152123D01*
X31223896Y-87194724D01*
X31239153Y-87207868D01*
X31107017Y-87349284D01*
X31066177Y-87311513D01*
X31029928Y-87268902D01*
X30998533Y-87221991D01*
X30972256Y-87171323D01*
X30951360Y-87117437D01*
X30936108Y-87060875D01*
X30926764Y-87002178D01*
X30923591Y-86941887D01*
X30926168Y-86888349D01*
X30933742Y-86836523D01*
X30946078Y-86786649D01*
X30962941Y-86738967D01*
X30984095Y-86693718D01*
X31009307Y-86651143D01*
X31038341Y-86611481D01*
X31070961Y-86574973D01*
X31106933Y-86541860D01*
X31146021Y-86512382D01*
X31187991Y-86486780D01*
X31232608Y-86465293D01*
X31279636Y-86448163D01*
X31328840Y-86435629D01*
X31379985Y-86427932D01*
X31432837Y-86425314D01*
X31485340Y-86427947D01*
X31536169Y-86435685D01*
X31585088Y-86448287D01*
X31631861Y-86465511D01*
X31676251Y-86487115D01*
X31718022Y-86512859D01*
X31756937Y-86542500D01*
X31792760Y-86575798D01*
X31825254Y-86612510D01*
X31854182Y-86652395D01*
X31879309Y-86695212D01*
X31900398Y-86740719D01*
X31917212Y-86788674D01*
X31929515Y-86838837D01*
X31937070Y-86890966D01*
X31939641Y-86944818D01*
G37*
G36*
X31924010Y-87573988D02*
G01*
X31924010Y-87765718D01*
X31265775Y-87765718D01*
X31924010Y-88265439D01*
X31924010Y-88444713D01*
X30939222Y-88444713D01*
X30939222Y-88254448D01*
X31575231Y-88254448D01*
X30939222Y-87767184D01*
X30939222Y-87573988D01*
X31924010Y-87573988D01*
G37*
G36*
X31924010Y-88998900D02*
G01*
X31921550Y-89052938D01*
X31914315Y-89105169D01*
X31902522Y-89155362D01*
X31886388Y-89203286D01*
X31866130Y-89248708D01*
X31841964Y-89291396D01*
X31798862Y-89349797D01*
X31748188Y-89400743D01*
X31690673Y-89443453D01*
X31627048Y-89477143D01*
X31558047Y-89501032D01*
X31509419Y-89511126D01*
X31458944Y-89516284D01*
X31433081Y-89516939D01*
X31381489Y-89514336D01*
X31331639Y-89506681D01*
X31283749Y-89494206D01*
X31216069Y-89466963D01*
X31154032Y-89430180D01*
X31098377Y-89384638D01*
X31049844Y-89331120D01*
X31009170Y-89270408D01*
X30986786Y-89226324D01*
X30968442Y-89179622D01*
X30954359Y-89130535D01*
X30944753Y-89079294D01*
X30939846Y-89026130D01*
X30939222Y-88998900D01*
X30939222Y-88997435D01*
X31119962Y-88997435D01*
X31126184Y-89060590D01*
X31144089Y-89119049D01*
X31172538Y-89171663D01*
X31210393Y-89217284D01*
X31256514Y-89254765D01*
X31309762Y-89282959D01*
X31368997Y-89300716D01*
X31433081Y-89306891D01*
X31496629Y-89300716D01*
X31555363Y-89282959D01*
X31608155Y-89254765D01*
X31653877Y-89217284D01*
X31691402Y-89171663D01*
X31719601Y-89119049D01*
X31737348Y-89060590D01*
X31743514Y-88997435D01*
X31743514Y-88825244D01*
X31119962Y-88825244D01*
X31119962Y-88997435D01*
X30939222Y-88997435D01*
X30939222Y-88622278D01*
X31924010Y-88622278D01*
X31924010Y-88998900D01*
G37*
G36*
X19350752Y-89169118D02*
G01*
X18112480Y-89169118D01*
X18112480Y-88681385D01*
X18223591Y-88681385D01*
X18224937Y-88718991D01*
X18231852Y-88772490D01*
X18244348Y-88822126D01*
X18269122Y-88881578D01*
X18302451Y-88932436D01*
X18343554Y-88973710D01*
X18391649Y-89004415D01*
X18445955Y-89023562D01*
X18505691Y-89030163D01*
X18545678Y-89026694D01*
X18600815Y-89009226D01*
X18649031Y-88978476D01*
X18689082Y-88936056D01*
X18715321Y-88892956D01*
X18734303Y-88843806D01*
X18750827Y-88901303D01*
X18774950Y-88951172D01*
X18805933Y-88992546D01*
X18851129Y-89029761D01*
X18903867Y-89051998D01*
X18952656Y-89058007D01*
X18968156Y-89057546D01*
X19027154Y-89046784D01*
X19080702Y-89022601D01*
X19127938Y-88986130D01*
X19168001Y-88938505D01*
X19192822Y-88896149D01*
X19212760Y-88848633D01*
X19227452Y-88796438D01*
X19236533Y-88740041D01*
X19239641Y-88679919D01*
X19238179Y-88637832D01*
X19231773Y-88583265D01*
X19220439Y-88530832D01*
X19204357Y-88480928D01*
X19183708Y-88433948D01*
X19158671Y-88390286D01*
X19129428Y-88350338D01*
X19087234Y-88306228D01*
X18973416Y-88429326D01*
X18980659Y-88436393D01*
X19017923Y-88477972D01*
X19045317Y-88519693D01*
X19066179Y-88571423D01*
X19075731Y-88620846D01*
X19078685Y-88677233D01*
X19074725Y-88729387D01*
X19060102Y-88783109D01*
X19030752Y-88831612D01*
X18989744Y-88862514D01*
X18938734Y-88873360D01*
X18924760Y-88872643D01*
X18875736Y-88856255D01*
X18839352Y-88820529D01*
X18819612Y-88775819D01*
X18812705Y-88720708D01*
X18812705Y-88597365D01*
X18661274Y-88597365D01*
X18661274Y-88703855D01*
X18660689Y-88719732D01*
X18649747Y-88768915D01*
X18621457Y-88811547D01*
X18577998Y-88837655D01*
X18528894Y-88845272D01*
X18492541Y-88840122D01*
X18448158Y-88817077D01*
X18413830Y-88778263D01*
X18392270Y-88726671D01*
X18386012Y-88674546D01*
X18386102Y-88665584D01*
X18390646Y-88615757D01*
X18405694Y-88564036D01*
X18432873Y-88515931D01*
X18467127Y-88474959D01*
X18504226Y-88439340D01*
X18386012Y-88314532D01*
X18349721Y-88350651D01*
X18317563Y-88390400D01*
X18289756Y-88433354D01*
X18266516Y-88479091D01*
X18248063Y-88527185D01*
X18234612Y-88577215D01*
X18226382Y-88628756D01*
X18223591Y-88681385D01*
X18112480Y-88681385D01*
X18112480Y-87450889D01*
X18239222Y-87450889D01*
X19015426Y-87750331D01*
X18239222Y-88057100D01*
X18239222Y-88267149D01*
X19224010Y-87863904D01*
X19224010Y-87628698D01*
X18239222Y-87231071D01*
X18239222Y-87450889D01*
X18112480Y-87450889D01*
X18112480Y-86794853D01*
X18223591Y-86794853D01*
X18224937Y-86832459D01*
X18231852Y-86885958D01*
X18244348Y-86935594D01*
X18269122Y-86995047D01*
X18302451Y-87045904D01*
X18343554Y-87087179D01*
X18391649Y-87117883D01*
X18445955Y-87137030D01*
X18505691Y-87143632D01*
X18545678Y-87140162D01*
X18600815Y-87122694D01*
X18649031Y-87091944D01*
X18689082Y-87049524D01*
X18715321Y-87006424D01*
X18734303Y-86957274D01*
X18750827Y-87014772D01*
X18774950Y-87064640D01*
X18805933Y-87106014D01*
X18851129Y-87143229D01*
X18903867Y-87165466D01*
X18952656Y-87171475D01*
X18968156Y-87171015D01*
X19027154Y-87160252D01*
X19080702Y-87136069D01*
X19127938Y-87099598D01*
X19168001Y-87051973D01*
X19192822Y-87009617D01*
X19212760Y-86962102D01*
X19227452Y-86909906D01*
X19236533Y-86853509D01*
X19239641Y-86793387D01*
X19238179Y-86751300D01*
X19231773Y-86696733D01*
X19220439Y-86644300D01*
X19204357Y-86594396D01*
X19183708Y-86547416D01*
X19158671Y-86503754D01*
X19129428Y-86463807D01*
X19087234Y-86419696D01*
X18973416Y-86542794D01*
X18980659Y-86549861D01*
X19017923Y-86591440D01*
X19045317Y-86633161D01*
X19066179Y-86684892D01*
X19075731Y-86734314D01*
X19078685Y-86790701D01*
X19074725Y-86842855D01*
X19060102Y-86896578D01*
X19030752Y-86945080D01*
X18989744Y-86975982D01*
X18938734Y-86986828D01*
X18924760Y-86986112D01*
X18875736Y-86969723D01*
X18839352Y-86933997D01*
X18819612Y-86889287D01*
X18812705Y-86834176D01*
X18812705Y-86710833D01*
X18661274Y-86710833D01*
X18661274Y-86817323D01*
X18660689Y-86833200D01*
X18649747Y-86882384D01*
X18621457Y-86925015D01*
X18577998Y-86951124D01*
X18528894Y-86958740D01*
X18492541Y-86953591D01*
X18448158Y-86930546D01*
X18413830Y-86891731D01*
X18392270Y-86840139D01*
X18386012Y-86788014D01*
X18386102Y-86779052D01*
X18390646Y-86729226D01*
X18405694Y-86677504D01*
X18432873Y-86629399D01*
X18467127Y-86588427D01*
X18504226Y-86552808D01*
X18386012Y-86428000D01*
X18349721Y-86464120D01*
X18317563Y-86503868D01*
X18289756Y-86546822D01*
X18266516Y-86592559D01*
X18248063Y-86640654D01*
X18234612Y-86690683D01*
X18226382Y-86742224D01*
X18223591Y-86794853D01*
X18112480Y-86794853D01*
X18112480Y-86308585D01*
X19350752Y-86308585D01*
X19350752Y-89169118D01*
G37*
D13*
G36*
X61586741Y-97490000D02*
G01*
X61210118Y-97490000D01*
X61210118Y-96151304D01*
X60708199Y-96151304D01*
X60083182Y-97490000D01*
X59656001Y-97490000D01*
X60314724Y-96113203D01*
X60234546Y-96086108D01*
X60101586Y-96018495D01*
X59983231Y-95926654D01*
X59879483Y-95810586D01*
X59812675Y-95705730D01*
X59750889Y-95556695D01*
X59718741Y-95410791D01*
X59708025Y-95252247D01*
X59708083Y-95247850D01*
X60096371Y-95247850D01*
X60108021Y-95382285D01*
X60153901Y-95524398D01*
X60243649Y-95651584D01*
X60334434Y-95724195D01*
X60480184Y-95784044D01*
X60638590Y-95801793D01*
X61210118Y-95801793D01*
X61210118Y-94697571D01*
X60638590Y-94697571D01*
X60522544Y-94706959D01*
X60370800Y-94756247D01*
X60245847Y-94847780D01*
X60160745Y-94962824D01*
X60110968Y-95101419D01*
X60096371Y-95247850D01*
X59708083Y-95247850D01*
X59708474Y-95218447D01*
X59724202Y-95057604D01*
X59762398Y-94910357D01*
X59823063Y-94776706D01*
X59904264Y-94658653D01*
X60015074Y-94549127D01*
X60148394Y-94460900D01*
X60188436Y-94440734D01*
X60330746Y-94387840D01*
X60486651Y-94356985D01*
X60638590Y-94348060D01*
X61586741Y-94348060D01*
X61586741Y-97490000D01*
G37*
G36*
X59089602Y-97490000D02*
G01*
X59089602Y-97140488D01*
X58245498Y-97140488D01*
X58245498Y-94735673D01*
X59081542Y-95357027D01*
X59081542Y-94915924D01*
X58348813Y-94348060D01*
X57865212Y-94348060D01*
X57865212Y-97140488D01*
X57169120Y-97140488D01*
X57169120Y-97490000D01*
X59089602Y-97490000D01*
G37*
G36*
X54024982Y-97490000D02*
G01*
X54024982Y-94348060D01*
X52184368Y-94348060D01*
X52184368Y-94697571D01*
X53649092Y-94697571D01*
X53649092Y-95733649D01*
X52302337Y-95733649D01*
X52302337Y-96083161D01*
X53640300Y-96083161D01*
X53640300Y-97490000D01*
X54024982Y-97490000D01*
G37*
G36*
X50740847Y-95055429D02*
G01*
X50905158Y-95081350D01*
X51053482Y-95131464D01*
X51185816Y-95205771D01*
X51302163Y-95304270D01*
X51386329Y-95405559D01*
X51462514Y-95540137D01*
X51514998Y-95692387D01*
X51541118Y-95836952D01*
X51549825Y-95994501D01*
X51549825Y-96593872D01*
X51543779Y-96726064D01*
X51520560Y-96872793D01*
X51471463Y-97027568D01*
X51398664Y-97164671D01*
X51302163Y-97284103D01*
X51220690Y-97356928D01*
X51092923Y-97438148D01*
X50949168Y-97495174D01*
X50789425Y-97528007D01*
X50639776Y-97536894D01*
X50616999Y-97536722D01*
X50464288Y-97525857D01*
X50304187Y-97492747D01*
X50159473Y-97437564D01*
X50030146Y-97360307D01*
X49933039Y-97275581D01*
X49836523Y-97144701D01*
X49777492Y-97007635D01*
X49743649Y-96851060D01*
X50122470Y-96851060D01*
X50180722Y-96995774D01*
X50290997Y-97101653D01*
X50344561Y-97130788D01*
X50490780Y-97175327D01*
X50639776Y-97187383D01*
X50756921Y-97177995D01*
X50908939Y-97128707D01*
X51032519Y-97037173D01*
X51115118Y-96921106D01*
X51163431Y-96780449D01*
X51177599Y-96631242D01*
X51177599Y-96411423D01*
X49729727Y-96411423D01*
X49729727Y-95965924D01*
X49729896Y-95961528D01*
X50101953Y-95961528D01*
X50101953Y-96083161D01*
X51177599Y-96083161D01*
X51177599Y-95961528D01*
X51166471Y-95820357D01*
X51122644Y-95674104D01*
X51036915Y-95547536D01*
X50937367Y-95470256D01*
X50788440Y-95415302D01*
X50639776Y-95400990D01*
X50505032Y-95412582D01*
X50365060Y-95458235D01*
X50243370Y-95547536D01*
X50162856Y-95662242D01*
X50115764Y-95805866D01*
X50101953Y-95961528D01*
X49729896Y-95961528D01*
X49733597Y-95864991D01*
X49758992Y-95700699D01*
X49808089Y-95552116D01*
X49880888Y-95419240D01*
X49977390Y-95302072D01*
X50058863Y-95229880D01*
X50186629Y-95149367D01*
X50330384Y-95092837D01*
X50490128Y-95060289D01*
X50639776Y-95051479D01*
X50740847Y-95055429D01*
G37*
G36*
X49002128Y-97490000D02*
G01*
X48621842Y-97490000D01*
X48645289Y-97039371D01*
X48625368Y-97149601D01*
X48559251Y-97291419D01*
X48449651Y-97405003D01*
X48318101Y-97480093D01*
X48165252Y-97524014D01*
X48007815Y-97536894D01*
X47985696Y-97536659D01*
X47838555Y-97521873D01*
X47686880Y-97476810D01*
X47552791Y-97401706D01*
X47436287Y-97296559D01*
X47385797Y-97233808D01*
X47305014Y-97092300D01*
X47256418Y-96950974D01*
X47228438Y-96793309D01*
X47220865Y-96645163D01*
X47220865Y-95950537D01*
X47601151Y-95950537D01*
X47601151Y-96642233D01*
X47609577Y-96774170D01*
X47648681Y-96924626D01*
X47735973Y-97056224D01*
X47820034Y-97119626D01*
X47958984Y-97171884D01*
X48113328Y-97187383D01*
X48224795Y-97178132D01*
X48368982Y-97129566D01*
X48485554Y-97039371D01*
X48563148Y-96923674D01*
X48608532Y-96780097D01*
X48621842Y-96625380D01*
X48621842Y-95962993D01*
X48611177Y-95822415D01*
X48569177Y-95676256D01*
X48487020Y-95549002D01*
X48402952Y-95477453D01*
X48265256Y-95418480D01*
X48113328Y-95400990D01*
X48012124Y-95407372D01*
X47862939Y-95448004D01*
X47735973Y-95534347D01*
X47653816Y-95655041D01*
X47611816Y-95802971D01*
X47601151Y-95950537D01*
X47220865Y-95950537D01*
X47220865Y-95947606D01*
X47221698Y-95896882D01*
X47237731Y-95729715D01*
X47274171Y-95578677D01*
X47340803Y-95425812D01*
X47434089Y-95294012D01*
X47447559Y-95279091D01*
X47565677Y-95176772D01*
X47702205Y-95104770D01*
X47857143Y-95063085D01*
X48007815Y-95051479D01*
X48165610Y-95064931D01*
X48319679Y-95110804D01*
X48453314Y-95189232D01*
X48541426Y-95274594D01*
X48618878Y-95414196D01*
X48649685Y-95568053D01*
X48621842Y-95042686D01*
X48621842Y-94348060D01*
X49002128Y-94348060D01*
X49002128Y-97490000D01*
G37*
G36*
X46400209Y-97490000D02*
G01*
X46400209Y-95098374D01*
X46015526Y-95098374D01*
X46038974Y-95567320D01*
X46009795Y-95413880D01*
X45936689Y-95274536D01*
X45853593Y-95189232D01*
X45725365Y-95110804D01*
X45573413Y-95064931D01*
X45414689Y-95051479D01*
X45258046Y-95062418D01*
X45099719Y-95101711D01*
X44963466Y-95169580D01*
X44849287Y-95266025D01*
X44836566Y-95280090D01*
X44748730Y-95405570D01*
X44685990Y-95554131D01*
X44651680Y-95703055D01*
X44636583Y-95869650D01*
X44635799Y-95920495D01*
X44635799Y-96149839D01*
X45016085Y-96149839D01*
X45016085Y-95921960D01*
X45028178Y-95771876D01*
X45074614Y-95625353D01*
X45172808Y-95500707D01*
X45318407Y-95425920D01*
X45480935Y-95401499D01*
X45511409Y-95400990D01*
X45667564Y-95418220D01*
X45805723Y-95476318D01*
X45887299Y-95546803D01*
X45965438Y-95673886D01*
X46005383Y-95821517D01*
X46015526Y-95964459D01*
X46015526Y-97490000D01*
X46400209Y-97490000D01*
G37*
G36*
X43091207Y-97536894D02*
G01*
X43237807Y-97528239D01*
X43393929Y-97496262D01*
X43533992Y-97440724D01*
X43657997Y-97361623D01*
X43736741Y-97290697D01*
X43829816Y-97174712D01*
X43900030Y-97042176D01*
X43947384Y-96893092D01*
X43971878Y-96727458D01*
X43975610Y-96625380D01*
X43975610Y-95098374D01*
X43595324Y-95098374D01*
X43595324Y-96622449D01*
X43582158Y-96776293D01*
X43537261Y-96920067D01*
X43460502Y-97037173D01*
X43345372Y-97128707D01*
X43202215Y-97177995D01*
X43091207Y-97187383D01*
X42939019Y-97169633D01*
X42800447Y-97109784D01*
X42715317Y-97037173D01*
X42631820Y-96908099D01*
X42589135Y-96761901D01*
X42578297Y-96622449D01*
X42578297Y-95098374D01*
X42198011Y-95098374D01*
X42198011Y-96625380D01*
X42206563Y-96776471D01*
X42238159Y-96937376D01*
X42293036Y-97081732D01*
X42371195Y-97209539D01*
X42441277Y-97290697D01*
X42555524Y-97386628D01*
X42685410Y-97458996D01*
X42830933Y-97507803D01*
X42992094Y-97533047D01*
X43091207Y-97536894D01*
G37*
G36*
X40608316Y-95052215D02*
G01*
X40766867Y-95066375D01*
X40910973Y-95098557D01*
X41057977Y-95157404D01*
X41186113Y-95239790D01*
X41267643Y-95314812D01*
X41361828Y-95443863D01*
X41422280Y-95592736D01*
X41447697Y-95741709D01*
X41065945Y-95741709D01*
X41022714Y-95595713D01*
X40919399Y-95488918D01*
X40865922Y-95459036D01*
X40716296Y-95413355D01*
X40560362Y-95400990D01*
X40418933Y-95412350D01*
X40261203Y-95466421D01*
X40150457Y-95565021D01*
X40086693Y-95708150D01*
X40069434Y-95866273D01*
X40069434Y-96036266D01*
X40784577Y-96036266D01*
X40893891Y-96042219D01*
X41046013Y-96073475D01*
X41183914Y-96131521D01*
X41246631Y-96169740D01*
X41364137Y-96269692D01*
X41456489Y-96393105D01*
X41499446Y-96479658D01*
X41540868Y-96622197D01*
X41554675Y-96779986D01*
X41544472Y-96920845D01*
X41507824Y-97067231D01*
X41434737Y-97213303D01*
X41341451Y-97326601D01*
X41327923Y-97339539D01*
X41208523Y-97428256D01*
X41069247Y-97490687D01*
X40910096Y-97526831D01*
X40754535Y-97536894D01*
X40697956Y-97535690D01*
X40540041Y-97517626D01*
X40385381Y-97472131D01*
X40252616Y-97399874D01*
X40157124Y-97315207D01*
X40073799Y-97178696D01*
X40047062Y-97055132D01*
X40065038Y-97490000D01*
X39689148Y-97490000D01*
X39689148Y-96688394D01*
X40069434Y-96688394D01*
X40079555Y-96798075D01*
X40132689Y-96939755D01*
X40231367Y-97054026D01*
X40241556Y-97062231D01*
X40368651Y-97135290D01*
X40523279Y-97176834D01*
X40670272Y-97187383D01*
X40755091Y-97183338D01*
X40902781Y-97150984D01*
X41038101Y-97072344D01*
X41061672Y-97050118D01*
X41144748Y-96919278D01*
X41169993Y-96767529D01*
X41169880Y-96756465D01*
X41141233Y-96605963D01*
X41054954Y-96477369D01*
X41032642Y-96457203D01*
X40902919Y-96386127D01*
X40754535Y-96364528D01*
X40069434Y-96364528D01*
X40069434Y-96688394D01*
X39689148Y-96688394D01*
X39689148Y-95856748D01*
X39689369Y-95833054D01*
X39703299Y-95676496D01*
X39745751Y-95517494D01*
X39816506Y-95379741D01*
X39915561Y-95263237D01*
X39975164Y-95213607D01*
X40112368Y-95134197D01*
X40252105Y-95086427D01*
X40410216Y-95058924D01*
X40560362Y-95051479D01*
X40608316Y-95052215D01*
G37*
G36*
X38847243Y-97490000D02*
G01*
X38847243Y-95098374D01*
X38462561Y-95098374D01*
X38486008Y-95567320D01*
X38456830Y-95413880D01*
X38383723Y-95274536D01*
X38300628Y-95189232D01*
X38172399Y-95110804D01*
X38020448Y-95064931D01*
X37861723Y-95051479D01*
X37705080Y-95062418D01*
X37546754Y-95101711D01*
X37410500Y-95169580D01*
X37296321Y-95266025D01*
X37283600Y-95280090D01*
X37195765Y-95405570D01*
X37133025Y-95554131D01*
X37098714Y-95703055D01*
X37083617Y-95869650D01*
X37082833Y-95920495D01*
X37082833Y-96149839D01*
X37463119Y-96149839D01*
X37463119Y-95921960D01*
X37475212Y-95771876D01*
X37521648Y-95625353D01*
X37619843Y-95500707D01*
X37765441Y-95425920D01*
X37927969Y-95401499D01*
X37958443Y-95400990D01*
X38114598Y-95418220D01*
X38252758Y-95476318D01*
X38334333Y-95546803D01*
X38412472Y-95673886D01*
X38452418Y-95821517D01*
X38462561Y-95964459D01*
X38462561Y-97490000D01*
X38847243Y-97490000D01*
G37*
G36*
X36057013Y-98240314D02*
G01*
X35706769Y-97314145D01*
X36580914Y-95098374D01*
X36167655Y-95098374D01*
X35604919Y-96577020D01*
X35556089Y-96715627D01*
X35536775Y-96771926D01*
X35508199Y-96875240D01*
X35482554Y-96772658D01*
X35435451Y-96628439D01*
X35416608Y-96572623D01*
X34891974Y-95098374D01*
X34487508Y-95098374D01*
X35661339Y-98240314D01*
X36057013Y-98240314D01*
G37*
G36*
X31412247Y-97490000D02*
G01*
X31412247Y-97150746D01*
X30359316Y-96019413D01*
X30258474Y-95908176D01*
X30163201Y-95787742D01*
X30079910Y-95659772D01*
X30047173Y-95598094D01*
X29989127Y-95452808D01*
X29956477Y-95298670D01*
X29951919Y-95217076D01*
X29966587Y-95066036D01*
X30016608Y-94923364D01*
X30102128Y-94805282D01*
X30229176Y-94711069D01*
X30371887Y-94662906D01*
X30507327Y-94650676D01*
X30659740Y-94666204D01*
X30803923Y-94719153D01*
X30923517Y-94809678D01*
X31011956Y-94933467D01*
X31060500Y-95071999D01*
X31078248Y-95217846D01*
X31078855Y-95252979D01*
X31459874Y-95252979D01*
X31447492Y-95091971D01*
X31417490Y-94944718D01*
X31360219Y-94790309D01*
X31278964Y-94654623D01*
X31190230Y-94553224D01*
X31068644Y-94455009D01*
X30931491Y-94380918D01*
X30778770Y-94330949D01*
X30610481Y-94305103D01*
X30507327Y-94301165D01*
X30352836Y-94309923D01*
X30187703Y-94342281D01*
X30038838Y-94398480D01*
X29906243Y-94478522D01*
X29821493Y-94550293D01*
X29720995Y-94667100D01*
X29645180Y-94800176D01*
X29594049Y-94949521D01*
X29567602Y-95115135D01*
X29563572Y-95217076D01*
X29575737Y-95365625D01*
X29612230Y-95518181D01*
X29665875Y-95658908D01*
X29688136Y-95706538D01*
X29759623Y-95836598D01*
X29850252Y-95971786D01*
X29945256Y-96094283D01*
X30054916Y-96220708D01*
X30088939Y-96257550D01*
X30928646Y-97140488D01*
X29525471Y-97140488D01*
X29525471Y-97490000D01*
X31412247Y-97490000D01*
G37*
G36*
X28037345Y-95665185D02*
G01*
X28172121Y-95726322D01*
X28207187Y-95767583D01*
X28244661Y-95914633D01*
X28240173Y-95972839D01*
X28172854Y-96107341D01*
X28128340Y-96140990D01*
X27980879Y-96176950D01*
X27924138Y-96172599D01*
X27789637Y-96107341D01*
X27751383Y-96058611D01*
X27717096Y-95914633D01*
X27721630Y-95856702D01*
X27789637Y-95726322D01*
X27834092Y-95694798D01*
X27980879Y-95661109D01*
X28037345Y-95665185D01*
G37*
G36*
X28084972Y-94305161D02*
G01*
X28254132Y-94331382D01*
X28406743Y-94382077D01*
X28542804Y-94457245D01*
X28662316Y-94556887D01*
X28735353Y-94640968D01*
X28816808Y-94772687D01*
X28873999Y-94920745D01*
X28906927Y-95085141D01*
X28915840Y-95239057D01*
X28915840Y-96599002D01*
X28911879Y-96702946D01*
X28885883Y-96872011D01*
X28835624Y-97024737D01*
X28761102Y-97161124D01*
X28662316Y-97281172D01*
X28578639Y-97354842D01*
X28447306Y-97437003D01*
X28299424Y-97494690D01*
X28134992Y-97527904D01*
X27980879Y-97536894D01*
X27876797Y-97532898D01*
X27707712Y-97506677D01*
X27555246Y-97455982D01*
X27419400Y-97380814D01*
X27300174Y-97281172D01*
X27226926Y-97197091D01*
X27145236Y-97065372D01*
X27087879Y-96917314D01*
X27054856Y-96752918D01*
X27045917Y-96599002D01*
X27045917Y-95245652D01*
X27417411Y-95245652D01*
X27417411Y-96592407D01*
X27432437Y-96749786D01*
X27483678Y-96899266D01*
X27571284Y-97023984D01*
X27689106Y-97117013D01*
X27830999Y-97171426D01*
X27980879Y-97187383D01*
X28130759Y-97171426D01*
X28272651Y-97117013D01*
X28390474Y-97023984D01*
X28478079Y-96899266D01*
X28529320Y-96749786D01*
X28544347Y-96592407D01*
X28544347Y-95245652D01*
X28529320Y-95088273D01*
X28478079Y-94938793D01*
X28390474Y-94814075D01*
X28272651Y-94721046D01*
X28130759Y-94666633D01*
X27980879Y-94650676D01*
X27830999Y-94666633D01*
X27689106Y-94721046D01*
X27571284Y-94814075D01*
X27483678Y-94938793D01*
X27432437Y-95088273D01*
X27417411Y-95245652D01*
X27045917Y-95245652D01*
X27045917Y-95239057D01*
X27049856Y-95135113D01*
X27075701Y-94966048D01*
X27125670Y-94813322D01*
X27199762Y-94676935D01*
X27297976Y-94556887D01*
X27380916Y-94483217D01*
X27511818Y-94401056D01*
X27659971Y-94343369D01*
X27825374Y-94310155D01*
X27980879Y-94301165D01*
X28084972Y-94305161D01*
G37*
G36*
X26376936Y-97490000D02*
G01*
X26376936Y-97150746D01*
X25324005Y-96019413D01*
X25223163Y-95908176D01*
X25127890Y-95787742D01*
X25044599Y-95659772D01*
X25011863Y-95598094D01*
X24953817Y-95452808D01*
X24921166Y-95298670D01*
X24916608Y-95217076D01*
X24931277Y-95066036D01*
X24981298Y-94923364D01*
X25066817Y-94805282D01*
X25193866Y-94711069D01*
X25336577Y-94662906D01*
X25472016Y-94650676D01*
X25624430Y-94666204D01*
X25768612Y-94719153D01*
X25888206Y-94809678D01*
X25976646Y-94933467D01*
X26025189Y-95071999D01*
X26042938Y-95217846D01*
X26043545Y-95252979D01*
X26424563Y-95252979D01*
X26412181Y-95091971D01*
X26382180Y-94944718D01*
X26324908Y-94790309D01*
X26243654Y-94654623D01*
X26154919Y-94553224D01*
X26033334Y-94455009D01*
X25896180Y-94380918D01*
X25743459Y-94330949D01*
X25575171Y-94305103D01*
X25472016Y-94301165D01*
X25317525Y-94309923D01*
X25152392Y-94342281D01*
X25003528Y-94398480D01*
X24870933Y-94478522D01*
X24786182Y-94550293D01*
X24685684Y-94667100D01*
X24609870Y-94800176D01*
X24558739Y-94949521D01*
X24532292Y-95115135D01*
X24528262Y-95217076D01*
X24540426Y-95365625D01*
X24576920Y-95518181D01*
X24630565Y-95658908D01*
X24652826Y-95706538D01*
X24724313Y-95836598D01*
X24814942Y-95971786D01*
X24909945Y-96094283D01*
X25019605Y-96220708D01*
X25053628Y-96257550D01*
X25893335Y-97140488D01*
X24490160Y-97140488D01*
X24490160Y-97490000D01*
X26376936Y-97490000D01*
G37*
G36*
X22971214Y-97536894D02*
G01*
X23125250Y-97528161D01*
X23289396Y-97495899D01*
X23436783Y-97439865D01*
X23567409Y-97360058D01*
X23650453Y-97288499D01*
X23748382Y-97170214D01*
X23822258Y-97033346D01*
X23872081Y-96877896D01*
X23895643Y-96729862D01*
X23901779Y-96596071D01*
X23521493Y-96596071D01*
X23509553Y-96747269D01*
X23468280Y-96889979D01*
X23388829Y-97016216D01*
X23370551Y-97035708D01*
X23242678Y-97128135D01*
X23100660Y-97175385D01*
X22966817Y-97187383D01*
X22819155Y-97172571D01*
X22679538Y-97122062D01*
X22563817Y-97035708D01*
X22471390Y-96905981D01*
X22424140Y-96759003D01*
X22412142Y-96618785D01*
X22412142Y-96426078D01*
X22426310Y-96268856D01*
X22474623Y-96122028D01*
X22557222Y-96002561D01*
X22681076Y-95908794D01*
X22821040Y-95860859D01*
X22954361Y-95848688D01*
X23796266Y-95848688D01*
X23796266Y-94348060D01*
X22132972Y-94348060D01*
X22132972Y-94697571D01*
X23437229Y-94697571D01*
X23428436Y-95499176D01*
X22936775Y-95499176D01*
X22783203Y-95507754D01*
X22620770Y-95539445D01*
X22476359Y-95594488D01*
X22349969Y-95672882D01*
X22270725Y-95743175D01*
X22177650Y-95859356D01*
X22107436Y-95994400D01*
X22060082Y-96148308D01*
X22037688Y-96295243D01*
X22031856Y-96428276D01*
X22031856Y-96620251D01*
X22040794Y-96771668D01*
X22073818Y-96933084D01*
X22131175Y-97078092D01*
X22212865Y-97206690D01*
X22286113Y-97288499D01*
X22405549Y-97385286D01*
X22542027Y-97458300D01*
X22695544Y-97507543D01*
X22840693Y-97530830D01*
X22971214Y-97536894D01*
G37*
D12*
G36*
X19536828Y-35205000D02*
G01*
X19160205Y-35205000D01*
X19106168Y-35202540D01*
X19053937Y-35195305D01*
X19003743Y-35183512D01*
X18955820Y-35167378D01*
X18910398Y-35147120D01*
X18867709Y-35122954D01*
X18809309Y-35079852D01*
X18758362Y-35029178D01*
X18715653Y-34971663D01*
X18681963Y-34908038D01*
X18658074Y-34839037D01*
X18647980Y-34790409D01*
X18642822Y-34739934D01*
X18642166Y-34714071D01*
X18852215Y-34714071D01*
X18858389Y-34777619D01*
X18876147Y-34836353D01*
X18904340Y-34889145D01*
X18941822Y-34934867D01*
X18987443Y-34972392D01*
X19040057Y-35000591D01*
X19098515Y-35018338D01*
X19161671Y-35024504D01*
X19333862Y-35024504D01*
X19333862Y-34400952D01*
X19161671Y-34400952D01*
X19098515Y-34407174D01*
X19040057Y-34425079D01*
X18987443Y-34453528D01*
X18941822Y-34491383D01*
X18904340Y-34537504D01*
X18876147Y-34590752D01*
X18858389Y-34649987D01*
X18852215Y-34714071D01*
X18642166Y-34714071D01*
X18644769Y-34662479D01*
X18652424Y-34612629D01*
X18664899Y-34564739D01*
X18692142Y-34497059D01*
X18728926Y-34435022D01*
X18774468Y-34379367D01*
X18827986Y-34330834D01*
X18888697Y-34290160D01*
X18932782Y-34267776D01*
X18979483Y-34249432D01*
X19028571Y-34235349D01*
X19079812Y-34225743D01*
X19132975Y-34220836D01*
X19160205Y-34220212D01*
X19536828Y-34220212D01*
X19536828Y-35205000D01*
G37*
G36*
X18504169Y-35205000D02*
G01*
X18021301Y-35205000D01*
X17965259Y-35202057D01*
X17913175Y-35193414D01*
X17865389Y-35179345D01*
X17808947Y-35152622D01*
X17761553Y-35117396D01*
X17724011Y-35074318D01*
X17697126Y-35024042D01*
X17681702Y-34967220D01*
X17678140Y-34920701D01*
X17679316Y-34910687D01*
X17882571Y-34910687D01*
X17893463Y-34962501D01*
X17924459Y-35002431D01*
X17973040Y-35028118D01*
X18027994Y-35037057D01*
X18036688Y-35037205D01*
X18301203Y-35037205D01*
X18301203Y-34782948D01*
X18036688Y-34782948D01*
X17987638Y-34788122D01*
X17940751Y-34806375D01*
X17902866Y-34841504D01*
X17884140Y-34889701D01*
X17882571Y-34910687D01*
X17679316Y-34910687D01*
X17684335Y-34867955D01*
X17702251Y-34819395D01*
X17730883Y-34775910D01*
X17769227Y-34738389D01*
X17816278Y-34707719D01*
X17833722Y-34699173D01*
X17788451Y-34664954D01*
X17752707Y-34623720D01*
X17727535Y-34576235D01*
X17713977Y-34523267D01*
X17712889Y-34506709D01*
X17913346Y-34506709D01*
X17923478Y-34555783D01*
X17957063Y-34596753D01*
X18003978Y-34618563D01*
X18056228Y-34624923D01*
X18301203Y-34624923D01*
X18301203Y-34388251D01*
X18056228Y-34388251D01*
X18003978Y-34394614D01*
X17957063Y-34416447D01*
X17923478Y-34457494D01*
X17913346Y-34506709D01*
X17712889Y-34506709D01*
X17711845Y-34490833D01*
X17718003Y-34432923D01*
X17735918Y-34380543D01*
X17764756Y-34334367D01*
X17803681Y-34295073D01*
X17851856Y-34263335D01*
X17908446Y-34239828D01*
X17955907Y-34228007D01*
X18007280Y-34221481D01*
X18043527Y-34220212D01*
X18504169Y-34220212D01*
X18504169Y-35205000D01*
G37*
G36*
X17068998Y-35220631D02*
G01*
X17016870Y-35218154D01*
X16966678Y-35210858D01*
X16918621Y-35198943D01*
X16850966Y-35172848D01*
X16789219Y-35137491D01*
X16734044Y-35093547D01*
X16686105Y-35041694D01*
X16646066Y-34982610D01*
X16614592Y-34916972D01*
X16598695Y-34869907D01*
X16587096Y-34820431D01*
X16579993Y-34768745D01*
X16577581Y-34715048D01*
X16577581Y-34653499D01*
X17084385Y-34653499D01*
X17084385Y-34829842D01*
X16794713Y-34829842D01*
X16812356Y-34883388D01*
X16840911Y-34930793D01*
X16879200Y-34970858D01*
X16926044Y-35002380D01*
X16980262Y-35024156D01*
X17040676Y-35034986D01*
X17066311Y-35035983D01*
X17115135Y-35032380D01*
X17175986Y-35016943D01*
X17230975Y-34990397D01*
X17279003Y-34953879D01*
X17318971Y-34908524D01*
X17349780Y-34855469D01*
X17370331Y-34795850D01*
X17378351Y-34747512D01*
X17379919Y-34713827D01*
X17376520Y-34663420D01*
X17361931Y-34600667D01*
X17336783Y-34544024D01*
X17302096Y-34494603D01*
X17258888Y-34453514D01*
X17208178Y-34421867D01*
X17150985Y-34400773D01*
X17088328Y-34391343D01*
X17071929Y-34390938D01*
X17014265Y-34395683D01*
X16959714Y-34409730D01*
X16908712Y-34432800D01*
X16861693Y-34464612D01*
X16819092Y-34504886D01*
X16805949Y-34520143D01*
X16664532Y-34388007D01*
X16702303Y-34347167D01*
X16744915Y-34310918D01*
X16791825Y-34279523D01*
X16842493Y-34253246D01*
X16896379Y-34232350D01*
X16952941Y-34217098D01*
X17011638Y-34207754D01*
X17071929Y-34204581D01*
X17125467Y-34207158D01*
X17177293Y-34214732D01*
X17227167Y-34227068D01*
X17274849Y-34243931D01*
X17320098Y-34265085D01*
X17362673Y-34290297D01*
X17402335Y-34319331D01*
X17438843Y-34351951D01*
X17471956Y-34387923D01*
X17501434Y-34427011D01*
X17527036Y-34468981D01*
X17548523Y-34513598D01*
X17565654Y-34560626D01*
X17578187Y-34609830D01*
X17585884Y-34660975D01*
X17588503Y-34713827D01*
X17585870Y-34766330D01*
X17578131Y-34817159D01*
X17565530Y-34866078D01*
X17548306Y-34912851D01*
X17526701Y-34957241D01*
X17500957Y-34999012D01*
X17471316Y-35037927D01*
X17438019Y-35073750D01*
X17401306Y-35106244D01*
X17361421Y-35135172D01*
X17318604Y-35160299D01*
X17273097Y-35181388D01*
X17225142Y-35198202D01*
X17174979Y-35210505D01*
X17122851Y-35218060D01*
X17068998Y-35220631D01*
G37*
G36*
X19536828Y-33884010D02*
G01*
X19333862Y-33884010D01*
X19333862Y-33508852D01*
X19045411Y-33508852D01*
X18993330Y-33505563D01*
X18944397Y-33495958D01*
X18884797Y-33474009D01*
X18832582Y-33442471D01*
X18788776Y-33402279D01*
X18754399Y-33354368D01*
X18730473Y-33299676D01*
X18718021Y-33239137D01*
X18716489Y-33208434D01*
X18922313Y-33208434D01*
X18932659Y-33262644D01*
X18962033Y-33304513D01*
X19007939Y-33331498D01*
X19059706Y-33340902D01*
X19067882Y-33341058D01*
X19333862Y-33341058D01*
X19333862Y-33074344D01*
X19067882Y-33074344D01*
X19014715Y-33081692D01*
X18966918Y-33106716D01*
X18935341Y-33147235D01*
X18922480Y-33200915D01*
X18922313Y-33208434D01*
X18716489Y-33208434D01*
X18716416Y-33206968D01*
X18719932Y-33157725D01*
X18735090Y-33097034D01*
X18761371Y-33042822D01*
X18797857Y-32995964D01*
X18843628Y-32957336D01*
X18897767Y-32927815D01*
X18959354Y-32908275D01*
X19009879Y-32900698D01*
X19045411Y-32899222D01*
X19536828Y-32899222D01*
X19536828Y-33884010D01*
G37*
G36*
X18459228Y-33884010D02*
G01*
X18246493Y-33884010D01*
X18050366Y-33197687D01*
X17857170Y-33884010D01*
X17642969Y-33884010D01*
X17427302Y-32899222D01*
X17629047Y-32899222D01*
X17761915Y-33564784D01*
X17952424Y-32899222D01*
X18144155Y-32899222D01*
X18334665Y-33564784D01*
X18467533Y-32899222D01*
X18676116Y-32899222D01*
X18459228Y-33884010D01*
G37*
G36*
X17303471Y-33884010D02*
G01*
X17100505Y-33884010D01*
X17100505Y-33503723D01*
X16879221Y-33503723D01*
X16687491Y-33884010D01*
X16460589Y-33884010D01*
X16677721Y-33474170D01*
X16626344Y-33448644D01*
X16581736Y-33415819D01*
X16544690Y-33376411D01*
X16516001Y-33331135D01*
X16496462Y-33280708D01*
X16486866Y-33225844D01*
X16486101Y-33205747D01*
X16691643Y-33205747D01*
X16702489Y-33259832D01*
X16733164Y-33301185D01*
X16780876Y-33327609D01*
X16834402Y-33336755D01*
X16842829Y-33336906D01*
X17100505Y-33336906D01*
X17100505Y-33074344D01*
X16842829Y-33074344D01*
X16787898Y-33081664D01*
X16743604Y-33102467D01*
X16708408Y-33140529D01*
X16692343Y-33191351D01*
X16691643Y-33205747D01*
X16486101Y-33205747D01*
X16485990Y-33202816D01*
X16489614Y-33154014D01*
X16505232Y-33093978D01*
X16532308Y-33040455D01*
X16569892Y-32994275D01*
X16617032Y-32956268D01*
X16672779Y-32927264D01*
X16719665Y-32911919D01*
X16770458Y-32902455D01*
X16824755Y-32899222D01*
X17303471Y-32899222D01*
X17303471Y-33884010D01*
G37*
G36*
X29399641Y-86881803D02*
G01*
X29395200Y-86953293D01*
X29382119Y-87019537D01*
X29360763Y-87080145D01*
X29331493Y-87134728D01*
X29294674Y-87182894D01*
X29250669Y-87224255D01*
X29199842Y-87258420D01*
X29142556Y-87284999D01*
X29079175Y-87303602D01*
X29010061Y-87313839D01*
X28960981Y-87315823D01*
X28399222Y-87315823D01*
X28399222Y-87112613D01*
X28960981Y-87112613D01*
X29015527Y-87108498D01*
X29064509Y-87096455D01*
X29117110Y-87070940D01*
X29159165Y-87034628D01*
X29189647Y-86988400D01*
X29207525Y-86933141D01*
X29212063Y-86883025D01*
X29207525Y-86832442D01*
X29189647Y-86776599D01*
X29159165Y-86729822D01*
X29117110Y-86693033D01*
X29064509Y-86667156D01*
X29015527Y-86654930D01*
X28960981Y-86650750D01*
X28399222Y-86650750D01*
X28399222Y-86447784D01*
X28960981Y-86447784D01*
X29010303Y-86449749D01*
X29079664Y-86459899D01*
X29143175Y-86478368D01*
X29200493Y-86504789D01*
X29251278Y-86538800D01*
X29295187Y-86580034D01*
X29331879Y-86628128D01*
X29361013Y-86682716D01*
X29382245Y-86743435D01*
X29395235Y-86809919D01*
X29399641Y-86881803D01*
G37*
G36*
X29384010Y-87681210D02*
G01*
X29003723Y-87681210D01*
X29003723Y-87902494D01*
X29384010Y-88094225D01*
X29384010Y-88321127D01*
X28974170Y-88103995D01*
X28948644Y-88155372D01*
X28915819Y-88199980D01*
X28876411Y-88237025D01*
X28831135Y-88265715D01*
X28780708Y-88285254D01*
X28725844Y-88294849D01*
X28702816Y-88295725D01*
X28654014Y-88292102D01*
X28593978Y-88276483D01*
X28540455Y-88249407D01*
X28494275Y-88211824D01*
X28456268Y-88164684D01*
X28427264Y-88108937D01*
X28411919Y-88062050D01*
X28402455Y-88011258D01*
X28399222Y-87956960D01*
X28399222Y-87938886D01*
X28574344Y-87938886D01*
X28581664Y-87993818D01*
X28602467Y-88038112D01*
X28640529Y-88073308D01*
X28691351Y-88089373D01*
X28705747Y-88090073D01*
X28759832Y-88079227D01*
X28801185Y-88048551D01*
X28827609Y-88000840D01*
X28836755Y-87947314D01*
X28836906Y-87938886D01*
X28836906Y-87681210D01*
X28574344Y-87681210D01*
X28574344Y-87938886D01*
X28399222Y-87938886D01*
X28399222Y-87478244D01*
X29384010Y-87478244D01*
X29384010Y-87681210D01*
G37*
G36*
X29384010Y-88336270D02*
G01*
X29384010Y-88570254D01*
X29026926Y-88826465D01*
X29384010Y-89082676D01*
X29384010Y-89324720D01*
X28874763Y-88946877D01*
X28399222Y-89295411D01*
X28399222Y-89061671D01*
X28722844Y-88830617D01*
X28399222Y-88598098D01*
X28399222Y-88356053D01*
X28874763Y-88710205D01*
X29384010Y-88336270D01*
G37*
G36*
X24319641Y-86946039D02*
G01*
X24316423Y-87004189D01*
X24306998Y-87061494D01*
X24291704Y-87117270D01*
X24270884Y-87170834D01*
X24244877Y-87221502D01*
X24214025Y-87268589D01*
X24178668Y-87311411D01*
X24139146Y-87349284D01*
X24006277Y-87216416D01*
X24041917Y-87182637D01*
X24077096Y-87138080D01*
X24103797Y-87089510D01*
X24121807Y-87037321D01*
X24130914Y-86981912D01*
X24132063Y-86953122D01*
X24128490Y-86903201D01*
X24113184Y-86841096D01*
X24086859Y-86785080D01*
X24050637Y-86736237D01*
X24005639Y-86695653D01*
X23952987Y-86664411D01*
X23893804Y-86643597D01*
X23829211Y-86634296D01*
X23812349Y-86633897D01*
X23761897Y-86637399D01*
X23699150Y-86652394D01*
X23642571Y-86678167D01*
X23593249Y-86713602D01*
X23552276Y-86757582D01*
X23520741Y-86808990D01*
X23499736Y-86866711D01*
X23490351Y-86929629D01*
X23489948Y-86946039D01*
X23493343Y-86995079D01*
X23506257Y-87051299D01*
X23528604Y-87104121D01*
X23560161Y-87152986D01*
X23593335Y-87190279D01*
X23624282Y-87217637D01*
X23487017Y-87354902D01*
X23447019Y-87317799D01*
X23411165Y-87275149D01*
X23379821Y-87227725D01*
X23353355Y-87176299D01*
X23332133Y-87121645D01*
X23316520Y-87064535D01*
X23306884Y-87005742D01*
X23303591Y-86946039D01*
X23306151Y-86891972D01*
X23313681Y-86839655D01*
X23325949Y-86789329D01*
X23342727Y-86741234D01*
X23363785Y-86695609D01*
X23388895Y-86652693D01*
X23417826Y-86612727D01*
X23450350Y-86575950D01*
X23486237Y-86542602D01*
X23525258Y-86512923D01*
X23567183Y-86487152D01*
X23611783Y-86465530D01*
X23658829Y-86448295D01*
X23708092Y-86435687D01*
X23759341Y-86427947D01*
X23812349Y-86425314D01*
X23865380Y-86427933D01*
X23916613Y-86435637D01*
X23965823Y-86448190D01*
X24012788Y-86465358D01*
X24057283Y-86486906D01*
X24099083Y-86512601D01*
X24137966Y-86542208D01*
X24190328Y-86593440D01*
X24220935Y-86631802D01*
X24247841Y-86673255D01*
X24270821Y-86717565D01*
X24289650Y-86764499D01*
X24304106Y-86813821D01*
X24313965Y-86865298D01*
X24319001Y-86918694D01*
X24319641Y-86946039D01*
G37*
G36*
X24304010Y-87468475D02*
G01*
X24304010Y-88207554D01*
X24124979Y-88207554D01*
X24124979Y-87671441D01*
X23319222Y-87671441D01*
X23319222Y-87468475D01*
X24304010Y-87468475D01*
G37*
G36*
X24304010Y-88347749D02*
G01*
X24304010Y-88550715D01*
X23847031Y-88550715D01*
X24304010Y-88977651D01*
X24304010Y-89249249D01*
X23787924Y-88752215D01*
X23319222Y-89227023D01*
X23319222Y-88979117D01*
X23759592Y-88550715D01*
X23319222Y-88550715D01*
X23319222Y-88347749D01*
X24304010Y-88347749D01*
G37*
G36*
X21764010Y-86839794D02*
G01*
X21761550Y-86893831D01*
X21754315Y-86946062D01*
X21742522Y-86996256D01*
X21726388Y-87044179D01*
X21706130Y-87089601D01*
X21681964Y-87132290D01*
X21638862Y-87190690D01*
X21588188Y-87241637D01*
X21530673Y-87284346D01*
X21467048Y-87318036D01*
X21398047Y-87341925D01*
X21349419Y-87352019D01*
X21298944Y-87357177D01*
X21273081Y-87357833D01*
X21221489Y-87355230D01*
X21171639Y-87347575D01*
X21123749Y-87335100D01*
X21056069Y-87307857D01*
X20994032Y-87271073D01*
X20938377Y-87225531D01*
X20889844Y-87172013D01*
X20849170Y-87111302D01*
X20826786Y-87067217D01*
X20808442Y-87020516D01*
X20794359Y-86971428D01*
X20784753Y-86920187D01*
X20779846Y-86867024D01*
X20779222Y-86839794D01*
X20779222Y-86838328D01*
X20959962Y-86838328D01*
X20966184Y-86901484D01*
X20984089Y-86959942D01*
X21012538Y-87012556D01*
X21050393Y-87058177D01*
X21096514Y-87095659D01*
X21149762Y-87123852D01*
X21208997Y-87141610D01*
X21273081Y-87147784D01*
X21336629Y-87141610D01*
X21395363Y-87123852D01*
X21448155Y-87095659D01*
X21493877Y-87058177D01*
X21531402Y-87012556D01*
X21559601Y-86959942D01*
X21577348Y-86901484D01*
X21583514Y-86838328D01*
X21583514Y-86666137D01*
X20959962Y-86666137D01*
X20959962Y-86838328D01*
X20779222Y-86838328D01*
X20779222Y-86463171D01*
X21764010Y-86463171D01*
X21764010Y-86839794D01*
G37*
G36*
X21764010Y-87495830D02*
G01*
X21764010Y-87698796D01*
X20779222Y-87698796D01*
X20779222Y-87495830D01*
X21764010Y-87495830D01*
G37*
G36*
X21324333Y-87840647D02*
G01*
X21375350Y-87848383D01*
X21424433Y-87860978D01*
X21471346Y-87878188D01*
X21515854Y-87899771D01*
X21557724Y-87925482D01*
X21596719Y-87955078D01*
X21632607Y-87988315D01*
X21665151Y-88024950D01*
X21694118Y-88064738D01*
X21719272Y-88107436D01*
X21740379Y-88152801D01*
X21757204Y-88200589D01*
X21769513Y-88250556D01*
X21777070Y-88302459D01*
X21779641Y-88356053D01*
X21777070Y-88409849D01*
X21769513Y-88461901D01*
X21757204Y-88511971D01*
X21740379Y-88559820D01*
X21719272Y-88605211D01*
X21694118Y-88647905D01*
X21665151Y-88687664D01*
X21632607Y-88724249D01*
X21596719Y-88757423D01*
X21557724Y-88786946D01*
X21515854Y-88812581D01*
X21471346Y-88834090D01*
X21424433Y-88851234D01*
X21375350Y-88863774D01*
X21324333Y-88871473D01*
X21271616Y-88874092D01*
X21218939Y-88871473D01*
X21167952Y-88863774D01*
X21118890Y-88851234D01*
X21071989Y-88834090D01*
X21027486Y-88812581D01*
X20985616Y-88786946D01*
X20946614Y-88757423D01*
X20910717Y-88724249D01*
X20878159Y-88687664D01*
X20849178Y-88647905D01*
X20824009Y-88605211D01*
X20802887Y-88559820D01*
X20786049Y-88511971D01*
X20773729Y-88461901D01*
X20766165Y-88409849D01*
X20763591Y-88356053D01*
X20949948Y-88356053D01*
X20956246Y-88420032D01*
X20974414Y-88478991D01*
X21003361Y-88531848D01*
X21041997Y-88577520D01*
X21089231Y-88614927D01*
X21143972Y-88642985D01*
X21205131Y-88660614D01*
X21254555Y-88666339D01*
X21271616Y-88666730D01*
X21321660Y-88663264D01*
X21384070Y-88648412D01*
X21440501Y-88622860D01*
X21489816Y-88587689D01*
X21530874Y-88543982D01*
X21562538Y-88492820D01*
X21583666Y-88435285D01*
X21593122Y-88372460D01*
X21593528Y-88356053D01*
X21587169Y-88292477D01*
X21568852Y-88233821D01*
X21539715Y-88181182D01*
X21500899Y-88135655D01*
X21453542Y-88098336D01*
X21398782Y-88070323D01*
X21337761Y-88052712D01*
X21288570Y-88046988D01*
X21271616Y-88046598D01*
X21221295Y-88050062D01*
X21158703Y-88064903D01*
X21102255Y-88090418D01*
X21053042Y-88125513D01*
X21012155Y-88169090D01*
X20980683Y-88220054D01*
X20959718Y-88277309D01*
X20950350Y-88339758D01*
X20949948Y-88356053D01*
X20763591Y-88356053D01*
X20766165Y-88302459D01*
X20773729Y-88250556D01*
X20786049Y-88200589D01*
X20802887Y-88152801D01*
X20824009Y-88107436D01*
X20849178Y-88064738D01*
X20878159Y-88024950D01*
X20910717Y-87988315D01*
X20946614Y-87955078D01*
X20985616Y-87925482D01*
X21027486Y-87899771D01*
X21071989Y-87878188D01*
X21118890Y-87860978D01*
X21167952Y-87848383D01*
X21218939Y-87840647D01*
X21271616Y-87838014D01*
X21324333Y-87840647D01*
G37*
G36*
X18586828Y-28724010D02*
G01*
X18383862Y-28724010D01*
X18383862Y-28343723D01*
X18162578Y-28343723D01*
X17970847Y-28724010D01*
X17743946Y-28724010D01*
X17961078Y-28314170D01*
X17909701Y-28288644D01*
X17865092Y-28255819D01*
X17828047Y-28216411D01*
X17799357Y-28171135D01*
X17779818Y-28120708D01*
X17770223Y-28065844D01*
X17769458Y-28045747D01*
X17975000Y-28045747D01*
X17985845Y-28099832D01*
X18016521Y-28141185D01*
X18064232Y-28167609D01*
X18117758Y-28176755D01*
X18126186Y-28176906D01*
X18383862Y-28176906D01*
X18383862Y-27914344D01*
X18126186Y-27914344D01*
X18071255Y-27921664D01*
X18026961Y-27942467D01*
X17991764Y-27980529D01*
X17975699Y-28031351D01*
X17975000Y-28045747D01*
X17769458Y-28045747D01*
X17769347Y-28042816D01*
X17772970Y-27994014D01*
X17788589Y-27933978D01*
X17815665Y-27880455D01*
X17853248Y-27834275D01*
X17900388Y-27796268D01*
X17956135Y-27767264D01*
X18003022Y-27751919D01*
X18053814Y-27742455D01*
X18108112Y-27739222D01*
X18586828Y-27739222D01*
X18586828Y-28724010D01*
G37*
G36*
X17276465Y-28739641D02*
G01*
X17207997Y-28736475D01*
X17144616Y-28727141D01*
X17086681Y-28711885D01*
X17034553Y-28690955D01*
X16988591Y-28664595D01*
X16949155Y-28633053D01*
X16916606Y-28596574D01*
X16884539Y-28540683D01*
X16869456Y-28493645D01*
X16862458Y-28442491D01*
X16861985Y-28424568D01*
X16866586Y-28369937D01*
X16880387Y-28320910D01*
X16903381Y-28277504D01*
X16935563Y-28239737D01*
X16976927Y-28207626D01*
X17027467Y-28181187D01*
X17087178Y-28160439D01*
X17137975Y-28148622D01*
X17156053Y-28145398D01*
X17340945Y-28114135D01*
X17391318Y-28103623D01*
X17439759Y-28083556D01*
X17473214Y-28046816D01*
X17480896Y-28006424D01*
X17464993Y-27955259D01*
X17426294Y-27921478D01*
X17375795Y-27902491D01*
X17321667Y-27895071D01*
X17301622Y-27894561D01*
X17252369Y-27897384D01*
X17203980Y-27905914D01*
X17156103Y-27920240D01*
X17108386Y-27940452D01*
X17060477Y-27966638D01*
X17012023Y-27998889D01*
X16992411Y-28013507D01*
X16882990Y-27860855D01*
X16925935Y-27830484D01*
X16972295Y-27803447D01*
X17021454Y-27779965D01*
X17072797Y-27760258D01*
X17125708Y-27744547D01*
X17179573Y-27733051D01*
X17233775Y-27725993D01*
X17287700Y-27723591D01*
X17352228Y-27726551D01*
X17411675Y-27735291D01*
X17465765Y-27749602D01*
X17514221Y-27769276D01*
X17556766Y-27794104D01*
X17603822Y-27834863D01*
X17639224Y-27883917D01*
X17662315Y-27940772D01*
X17672442Y-28004932D01*
X17672871Y-28022056D01*
X17668807Y-28073794D01*
X17652368Y-28131344D01*
X17623433Y-28180738D01*
X17582138Y-28221720D01*
X17540291Y-28248276D01*
X17490688Y-28269152D01*
X17433397Y-28284216D01*
X17417882Y-28287059D01*
X17223220Y-28321009D01*
X17173944Y-28331411D01*
X17127713Y-28347303D01*
X17086267Y-28375528D01*
X17063470Y-28424662D01*
X17062264Y-28442886D01*
X17076213Y-28494601D01*
X17116150Y-28533836D01*
X17161437Y-28553957D01*
X17218525Y-28565233D01*
X17262543Y-28567450D01*
X17316417Y-28564197D01*
X17368415Y-28554239D01*
X17419308Y-28537272D01*
X17469868Y-28512996D01*
X17520866Y-28481108D01*
X17562499Y-28449914D01*
X17594469Y-28423102D01*
X17710484Y-28570381D01*
X17664597Y-28608579D01*
X17615363Y-28642268D01*
X17563262Y-28671270D01*
X17508770Y-28695403D01*
X17452367Y-28714486D01*
X17394530Y-28728341D01*
X17335736Y-28736786D01*
X17276465Y-28739641D01*
G37*
G36*
X16497330Y-28724010D02*
G01*
X16294364Y-28724010D01*
X16294364Y-27918497D01*
X15965369Y-27918497D01*
X15965369Y-27739222D01*
X16827791Y-27739222D01*
X16827791Y-27918497D01*
X16497330Y-27918497D01*
X16497330Y-28724010D01*
G37*
D14*
%TO.C,D28*%
X260625000Y-31375000D02*
X260625000Y-35385000D01*
X260625000Y-35385000D02*
X262625000Y-35385000D01*
X262625000Y-31375000D02*
X262625000Y-35385000D01*
%TO.C,J1*%
X17445000Y-76765000D02*
X17445000Y-79425000D01*
X17445000Y-79425000D02*
X32805000Y-79425000D01*
X17505000Y-74055000D02*
X18775000Y-74055000D01*
X17505000Y-75325000D02*
X17505000Y-74055000D01*
X18395000Y-76765000D02*
X18395000Y-76435000D01*
X18395000Y-85425000D02*
X18395000Y-79425000D01*
X18455000Y-85425000D02*
X18455000Y-79425000D01*
X18575000Y-85425000D02*
X18575000Y-79425000D01*
X18695000Y-85425000D02*
X18695000Y-79425000D01*
X18815000Y-85425000D02*
X18815000Y-79425000D01*
X18935000Y-85425000D02*
X18935000Y-79425000D01*
X19055000Y-85425000D02*
X19055000Y-79425000D01*
X19155000Y-76765000D02*
X19155000Y-76435000D01*
X19155000Y-79425000D02*
X19155000Y-85425000D01*
X19155000Y-85425000D02*
X18395000Y-85425000D01*
X20045000Y-79425000D02*
X20045000Y-76765000D01*
X20935000Y-76765000D02*
X20935000Y-76367929D01*
X20935000Y-85425000D02*
X20935000Y-79425000D01*
X21695000Y-76765000D02*
X21695000Y-76367929D01*
X21695000Y-79425000D02*
X21695000Y-85425000D01*
X21695000Y-85425000D02*
X20935000Y-85425000D01*
X22585000Y-79425000D02*
X22585000Y-76765000D01*
X23475000Y-76765000D02*
X23475000Y-76367929D01*
X23475000Y-85425000D02*
X23475000Y-79425000D01*
X24235000Y-76765000D02*
X24235000Y-76367929D01*
X24235000Y-79425000D02*
X24235000Y-85425000D01*
X24235000Y-85425000D02*
X23475000Y-85425000D01*
X25125000Y-79425000D02*
X25125000Y-76765000D01*
X26015000Y-76765000D02*
X26015000Y-76367929D01*
X26015000Y-85425000D02*
X26015000Y-79425000D01*
X26775000Y-76765000D02*
X26775000Y-76367929D01*
X26775000Y-79425000D02*
X26775000Y-85425000D01*
X26775000Y-85425000D02*
X26015000Y-85425000D01*
X27665000Y-79425000D02*
X27665000Y-76765000D01*
X28555000Y-76765000D02*
X28555000Y-76367929D01*
X28555000Y-85425000D02*
X28555000Y-79425000D01*
X29315000Y-76765000D02*
X29315000Y-76367929D01*
X29315000Y-79425000D02*
X29315000Y-85425000D01*
X29315000Y-85425000D02*
X28555000Y-85425000D01*
X30205000Y-79425000D02*
X30205000Y-76765000D01*
X31095000Y-76765000D02*
X31095000Y-76367929D01*
X31095000Y-85425000D02*
X31095000Y-79425000D01*
X31855000Y-76765000D02*
X31855000Y-76367929D01*
X31855000Y-79425000D02*
X31855000Y-85425000D01*
X31855000Y-85425000D02*
X31095000Y-85425000D01*
X32805000Y-76765000D02*
X17445000Y-76765000D01*
X32805000Y-79425000D02*
X32805000Y-76765000D01*
%TO.C,C7*%
X26739970Y-37161219D02*
X26938781Y-37360030D01*
X27461219Y-36439970D02*
X27660030Y-36638781D01*
%TO.C,D1*%
X12975000Y-12325000D02*
X12975000Y-16335000D01*
X12975000Y-16335000D02*
X14975000Y-16335000D01*
X14975000Y-12325000D02*
X14975000Y-16335000D01*
%TO.C,R9*%
X25327500Y-28512258D02*
X25327500Y-28037742D01*
X26372500Y-28512258D02*
X26372500Y-28037742D01*
%TO.C,J2*%
X20465000Y-57965000D02*
X20465000Y-54635000D01*
X21515000Y-57965000D02*
X20465000Y-57965000D01*
X21515000Y-58175000D02*
X21515000Y-57965000D01*
X21825000Y-59028553D02*
X22325000Y-59028553D01*
X22035000Y-53245000D02*
X21535000Y-53245000D01*
X22075000Y-58675000D02*
X21825000Y-59028553D01*
X22325000Y-59028553D02*
X22075000Y-58675000D01*
X22335000Y-53745000D02*
X22035000Y-53245000D01*
X25415000Y-53745000D02*
X22335000Y-53745000D01*
X25715000Y-53245000D02*
X25415000Y-53745000D01*
X26215000Y-53245000D02*
X25715000Y-53245000D01*
X26235000Y-57965000D02*
X27285000Y-57965000D01*
X27285000Y-57965000D02*
X27285000Y-54635000D01*
%TO.C,D68*%
X201093750Y-88525000D02*
X201093750Y-92535000D01*
X201093750Y-92535000D02*
X203093750Y-92535000D01*
X203093750Y-88525000D02*
X203093750Y-92535000D01*
%TO.C,TP1*%
X25750000Y-30450000D02*
X27150000Y-30450000D01*
X25750000Y-31850000D02*
X25750000Y-30450000D01*
X27150000Y-30450000D02*
X27150000Y-31850000D01*
X27150000Y-31850000D02*
X25750000Y-31850000D01*
%TO.C,C16*%
X327290000Y-12315580D02*
X327290000Y-12034420D01*
X328310000Y-12315580D02*
X328310000Y-12034420D01*
%TO.C,C5*%
X23336789Y-45408038D02*
X23137978Y-45209227D01*
X24058038Y-44686789D02*
X23859227Y-44487978D01*
%TO.C,D7*%
X136800000Y-12325000D02*
X136800000Y-16335000D01*
X136800000Y-16335000D02*
X138800000Y-16335000D01*
X138800000Y-12325000D02*
X138800000Y-16335000D01*
%TO.C,D55*%
X198712500Y-69475000D02*
X198712500Y-73485000D01*
X198712500Y-73485000D02*
X200712500Y-73485000D01*
X200712500Y-69475000D02*
X200712500Y-73485000D01*
%TO.C,D49*%
X84412500Y-69475000D02*
X84412500Y-73485000D01*
X84412500Y-73485000D02*
X86412500Y-73485000D01*
X86412500Y-69475000D02*
X86412500Y-73485000D01*
%TO.C,D56*%
X217762500Y-69475000D02*
X217762500Y-73485000D01*
X217762500Y-73485000D02*
X219762500Y-73485000D01*
X219762500Y-69475000D02*
X219762500Y-73485000D01*
%TO.C,D43*%
X246337500Y-50425000D02*
X246337500Y-54435000D01*
X246337500Y-54435000D02*
X248337500Y-54435000D01*
X248337500Y-50425000D02*
X248337500Y-54435000D01*
%TO.C,R14*%
X328812258Y-14002500D02*
X328337742Y-14002500D01*
X328812258Y-15047500D02*
X328337742Y-15047500D01*
%TO.C,D73*%
X332062500Y-93287500D02*
X332062500Y-97297500D01*
X332062500Y-97297500D02*
X334062500Y-97297500D01*
X334062500Y-93287500D02*
X334062500Y-97297500D01*
%TO.C,D5*%
X98700000Y-12325000D02*
X98700000Y-16335000D01*
X98700000Y-16335000D02*
X100700000Y-16335000D01*
X100700000Y-12325000D02*
X100700000Y-16335000D01*
D10*
%TO.C,D75*%
X22030000Y-34705990D02*
G75*
G02*
X21930000Y-34705990I-50000J0D01*
G01*
X21930000Y-34705990D02*
G75*
G02*
X22030000Y-34705990I50000J0D01*
G01*
D14*
%TO.C,C14*%
X318090000Y-6715580D02*
X318090000Y-6434420D01*
X319110000Y-6715580D02*
X319110000Y-6434420D01*
%TO.C,D24*%
X184425000Y-31375000D02*
X184425000Y-35385000D01*
X184425000Y-35385000D02*
X186425000Y-35385000D01*
X186425000Y-31375000D02*
X186425000Y-35385000D01*
%TO.C,D34*%
X74887500Y-50425000D02*
X74887500Y-54435000D01*
X74887500Y-54435000D02*
X76887500Y-54435000D01*
X76887500Y-50425000D02*
X76887500Y-54435000D01*
%TO.C,C4*%
X28038781Y-51760030D02*
X27839970Y-51561219D01*
X28760030Y-51038781D02*
X28561219Y-50839970D01*
%TO.C,D37*%
X132037500Y-50425000D02*
X132037500Y-54435000D01*
X132037500Y-54435000D02*
X134037500Y-54435000D01*
X134037500Y-50425000D02*
X134037500Y-54435000D01*
%TO.C,D30*%
X303487500Y-31375000D02*
X303487500Y-35385000D01*
X303487500Y-35385000D02*
X305487500Y-35385000D01*
X305487500Y-31375000D02*
X305487500Y-35385000D01*
%TO.C,D39*%
X170137500Y-50425000D02*
X170137500Y-54435000D01*
X170137500Y-54435000D02*
X172137500Y-54435000D01*
X172137500Y-50425000D02*
X172137500Y-54435000D01*
%TO.C,D33*%
X48693750Y-50425000D02*
X48693750Y-54435000D01*
X48693750Y-54435000D02*
X50693750Y-54435000D01*
X50693750Y-50425000D02*
X50693750Y-54435000D01*
%TO.C,D22*%
X146325000Y-31375000D02*
X146325000Y-35385000D01*
X146325000Y-35385000D02*
X148325000Y-35385000D01*
X148325000Y-31375000D02*
X148325000Y-35385000D01*
%TO.C,R11*%
X25327500Y-23837742D02*
X25327500Y-24312258D01*
X26372500Y-23837742D02*
X26372500Y-24312258D01*
%TO.C,D58*%
X255862500Y-69475000D02*
X255862500Y-73485000D01*
X255862500Y-73485000D02*
X257862500Y-73485000D01*
X257862500Y-69475000D02*
X257862500Y-73485000D01*
%TO.C,D38*%
X151087500Y-50425000D02*
X151087500Y-54435000D01*
X151087500Y-54435000D02*
X153087500Y-54435000D01*
X153087500Y-50425000D02*
X153087500Y-54435000D01*
%TO.C,C2*%
X36338781Y-43939970D02*
X36139970Y-44138781D01*
X37060030Y-44661219D02*
X36861219Y-44860030D01*
%TO.C,TP2*%
X25750000Y-20600000D02*
X27150000Y-20600000D01*
X25750000Y-22000000D02*
X25750000Y-20600000D01*
X27150000Y-20600000D02*
X27150000Y-22000000D01*
X27150000Y-22000000D02*
X25750000Y-22000000D01*
%TO.C,D32*%
X12975000Y-50425000D02*
X12975000Y-54435000D01*
X12975000Y-54435000D02*
X14975000Y-54435000D01*
X14975000Y-50425000D02*
X14975000Y-54435000D01*
%TO.C,D18*%
X70125000Y-31375000D02*
X70125000Y-35385000D01*
X70125000Y-35385000D02*
X72125000Y-35385000D01*
X72125000Y-31375000D02*
X72125000Y-35385000D01*
%TO.C,D10*%
X193950000Y-12325000D02*
X193950000Y-16335000D01*
X193950000Y-16335000D02*
X195950000Y-16335000D01*
X195950000Y-12325000D02*
X195950000Y-16335000D01*
%TO.C,D40*%
X189187500Y-50425000D02*
X189187500Y-54435000D01*
X189187500Y-54435000D02*
X191187500Y-54435000D01*
X191187500Y-50425000D02*
X191187500Y-54435000D01*
%TO.C,D65*%
X91556250Y-88525000D02*
X91556250Y-92535000D01*
X91556250Y-92535000D02*
X93556250Y-92535000D01*
X93556250Y-88525000D02*
X93556250Y-92535000D01*
%TO.C,D69*%
X236812500Y-88525000D02*
X236812500Y-92535000D01*
X236812500Y-92535000D02*
X238812500Y-92535000D01*
X238812500Y-88525000D02*
X238812500Y-92535000D01*
%TO.C,D14*%
X270150000Y-12325000D02*
X270150000Y-16335000D01*
X270150000Y-16335000D02*
X272150000Y-16335000D01*
X272150000Y-12325000D02*
X272150000Y-16335000D01*
%TO.C,D46*%
X336825000Y-50425000D02*
X336825000Y-54435000D01*
X336825000Y-54435000D02*
X338825000Y-54435000D01*
X338825000Y-50425000D02*
X338825000Y-54435000D01*
%TO.C,D70*%
X265387500Y-88525000D02*
X265387500Y-92535000D01*
X265387500Y-92535000D02*
X267387500Y-92535000D01*
X267387500Y-88525000D02*
X267387500Y-92535000D01*
%TO.C,D64*%
X67743750Y-88525000D02*
X67743750Y-92535000D01*
X67743750Y-92535000D02*
X69743750Y-92535000D01*
X69743750Y-88525000D02*
X69743750Y-92535000D01*
%TO.C,D41*%
X208237500Y-50425000D02*
X208237500Y-54435000D01*
X208237500Y-54435000D02*
X210237500Y-54435000D01*
X210237500Y-50425000D02*
X210237500Y-54435000D01*
%TO.C,C17*%
X20384420Y-20740000D02*
X20665580Y-20740000D01*
X20384420Y-21760000D02*
X20665580Y-21760000D01*
%TO.C,D26*%
X222525000Y-31375000D02*
X222525000Y-35385000D01*
X222525000Y-35385000D02*
X224525000Y-35385000D01*
X224525000Y-31375000D02*
X224525000Y-35385000D01*
%TO.C,R6*%
X23332500Y-71512258D02*
X23332500Y-71037742D01*
X24377500Y-71512258D02*
X24377500Y-71037742D01*
%TO.C,D71*%
X293962500Y-93287500D02*
X293962500Y-97297500D01*
X293962500Y-97297500D02*
X295962500Y-97297500D01*
X295962500Y-93287500D02*
X295962500Y-97297500D01*
%TO.C,D3*%
X60600000Y-12325000D02*
X60600000Y-16335000D01*
X60600000Y-16335000D02*
X62600000Y-16335000D01*
X62600000Y-12325000D02*
X62600000Y-16335000D01*
%TO.C,D31*%
X336825000Y-31375000D02*
X336825000Y-35385000D01*
X336825000Y-35385000D02*
X338825000Y-35385000D01*
X338825000Y-31375000D02*
X338825000Y-35385000D01*
%TO.C,C6*%
X26091962Y-38813211D02*
X26290773Y-39012022D01*
X26813211Y-38091962D02*
X27012022Y-38290773D01*
%TO.C,D67*%
X162993750Y-88525000D02*
X162993750Y-92535000D01*
X162993750Y-92535000D02*
X164993750Y-92535000D01*
X164993750Y-88525000D02*
X164993750Y-92535000D01*
%TO.C,D23*%
X165375000Y-31375000D02*
X165375000Y-35385000D01*
X165375000Y-35385000D02*
X167375000Y-35385000D01*
X167375000Y-31375000D02*
X167375000Y-35385000D01*
%TO.C,D9*%
X174900000Y-12325000D02*
X174900000Y-16335000D01*
X174900000Y-16335000D02*
X176900000Y-16335000D01*
X176900000Y-12325000D02*
X176900000Y-16335000D01*
%TO.C,D35*%
X93937500Y-50425000D02*
X93937500Y-54435000D01*
X93937500Y-54435000D02*
X95937500Y-54435000D01*
X95937500Y-50425000D02*
X95937500Y-54435000D01*
%TO.C,D60*%
X313025000Y-74225000D02*
X313025000Y-78235000D01*
X313025000Y-78235000D02*
X315025000Y-78235000D01*
X315025000Y-74225000D02*
X315025000Y-78235000D01*
%TO.C,Y1*%
X20113659Y-38029628D02*
X21740005Y-39655974D01*
X22022847Y-36120440D02*
X20113659Y-38029628D01*
%TO.C,D53*%
X160612500Y-69475000D02*
X160612500Y-73485000D01*
X160612500Y-73485000D02*
X162612500Y-73485000D01*
X162612500Y-69475000D02*
X162612500Y-73485000D01*
%TO.C,D21*%
X127275000Y-31375000D02*
X127275000Y-35385000D01*
X127275000Y-35385000D02*
X129275000Y-35385000D01*
X129275000Y-31375000D02*
X129275000Y-35385000D01*
%TO.C,D15*%
X289200000Y-12325000D02*
X289200000Y-16335000D01*
X289200000Y-16335000D02*
X291200000Y-16335000D01*
X291200000Y-12325000D02*
X291200000Y-16335000D01*
%TO.C,D45*%
X296343750Y-50425000D02*
X296343750Y-54435000D01*
X296343750Y-54435000D02*
X298343750Y-54435000D01*
X298343750Y-50425000D02*
X298343750Y-54435000D01*
%TO.C,R7*%
X25872500Y-71512258D02*
X25872500Y-71037742D01*
X26917500Y-71512258D02*
X26917500Y-71037742D01*
%TO.C,D19*%
X89175000Y-31375000D02*
X89175000Y-35385000D01*
X89175000Y-35385000D02*
X91175000Y-35385000D01*
X91175000Y-31375000D02*
X91175000Y-35385000D01*
%TO.C,D54*%
X179662500Y-69475000D02*
X179662500Y-73485000D01*
X179662500Y-73485000D02*
X181662500Y-73485000D01*
X181662500Y-69475000D02*
X181662500Y-73485000D01*
%TO.C,D62*%
X12975000Y-88525000D02*
X12975000Y-92535000D01*
X12975000Y-92535000D02*
X14975000Y-92535000D01*
X14975000Y-88525000D02*
X14975000Y-92535000D01*
%TO.C,D29*%
X279675000Y-31375000D02*
X279675000Y-35385000D01*
X279675000Y-35385000D02*
X281675000Y-35385000D01*
X281675000Y-31375000D02*
X281675000Y-35385000D01*
%TO.C,D48*%
X53456250Y-69475000D02*
X53456250Y-73485000D01*
X53456250Y-73485000D02*
X55456250Y-73485000D01*
X55456250Y-69475000D02*
X55456250Y-73485000D01*
%TO.C,D50*%
X103462500Y-69475000D02*
X103462500Y-73485000D01*
X103462500Y-73485000D02*
X105462500Y-73485000D01*
X105462500Y-69475000D02*
X105462500Y-73485000D01*
%TO.C,R5*%
X20792500Y-71512258D02*
X20792500Y-71037742D01*
X21837500Y-71512258D02*
X21837500Y-71037742D01*
%TO.C,C1*%
X21939970Y-42438781D02*
X22138781Y-42239970D01*
X22661219Y-43160030D02*
X22860030Y-42961219D01*
%TO.C,D59*%
X282056250Y-69475000D02*
X282056250Y-73485000D01*
X282056250Y-73485000D02*
X284056250Y-73485000D01*
X284056250Y-69475000D02*
X284056250Y-73485000D01*
%TO.C,D4*%
X79650000Y-12325000D02*
X79650000Y-16335000D01*
X79650000Y-16335000D02*
X81650000Y-16335000D01*
X81650000Y-12325000D02*
X81650000Y-16335000D01*
%TO.C,C3*%
X30238781Y-49689970D02*
X30039970Y-49888781D01*
X30960030Y-50411219D02*
X30761219Y-50610030D01*
%TO.C,R13*%
X321277500Y-6812258D02*
X321277500Y-6337742D01*
X322322500Y-6812258D02*
X322322500Y-6337742D01*
%TO.C,SW75*%
X19875000Y-22375000D02*
X19875000Y-22495000D01*
X19875000Y-23505000D02*
X19875000Y-24645000D01*
X19875000Y-25655000D02*
X19875000Y-25775000D01*
X19875000Y-25775000D02*
X24275000Y-25775000D01*
X24275000Y-22375000D02*
X19875000Y-22375000D01*
X24275000Y-22495000D02*
X24275000Y-22375000D01*
X24275000Y-24645000D02*
X24275000Y-23505000D01*
X24275000Y-25775000D02*
X24275000Y-25655000D01*
%TO.C,D8*%
X155850000Y-12325000D02*
X155850000Y-16335000D01*
X155850000Y-16335000D02*
X157850000Y-16335000D01*
X157850000Y-12325000D02*
X157850000Y-16335000D01*
%TO.C,D44*%
X265387500Y-50425000D02*
X265387500Y-54435000D01*
X265387500Y-54435000D02*
X267387500Y-54435000D01*
X267387500Y-50425000D02*
X267387500Y-54435000D01*
%TO.C,D52*%
X141562500Y-69475000D02*
X141562500Y-73485000D01*
X141562500Y-73485000D02*
X143562500Y-73485000D01*
X143562500Y-69475000D02*
X143562500Y-73485000D01*
%TO.C,D12*%
X232050000Y-12325000D02*
X232050000Y-16335000D01*
X232050000Y-16335000D02*
X234050000Y-16335000D01*
X234050000Y-12325000D02*
X234050000Y-16335000D01*
%TO.C,C11*%
X19857282Y-36383601D02*
X19704779Y-36536104D01*
X20366399Y-36892718D02*
X20213896Y-37045221D01*
%TO.C,D6*%
X117750000Y-12325000D02*
X117750000Y-16335000D01*
X117750000Y-16335000D02*
X119750000Y-16335000D01*
X119750000Y-12325000D02*
X119750000Y-16335000D01*
%TO.C,C9*%
X31828080Y-61152500D02*
X31546920Y-61152500D01*
X31828080Y-62172500D02*
X31546920Y-62172500D01*
%TO.C,C12*%
X23365368Y-38875515D02*
X23517871Y-38723012D01*
X23874485Y-39384632D02*
X24026988Y-39232129D01*
%TO.C,D66*%
X124893750Y-88525000D02*
X124893750Y-92535000D01*
X124893750Y-92535000D02*
X126893750Y-92535000D01*
X126893750Y-88525000D02*
X126893750Y-92535000D01*
%TO.C,R15*%
X319677500Y-6337742D02*
X319677500Y-6812258D01*
X320722500Y-6337742D02*
X320722500Y-6812258D01*
%TO.C,R3*%
X328877500Y-12412258D02*
X328877500Y-11937742D01*
X329922500Y-12412258D02*
X329922500Y-11937742D01*
%TO.C,R4*%
X20762258Y-30577500D02*
X20287742Y-30577500D01*
X20762258Y-31622500D02*
X20287742Y-31622500D01*
%TO.C,D13*%
X251100000Y-12325000D02*
X251100000Y-16335000D01*
X251100000Y-16335000D02*
X253100000Y-16335000D01*
X253100000Y-12325000D02*
X253100000Y-16335000D01*
%TO.C,D42*%
X227287500Y-50425000D02*
X227287500Y-54435000D01*
X227287500Y-54435000D02*
X229287500Y-54435000D01*
X229287500Y-50425000D02*
X229287500Y-54435000D01*
%TO.C,D27*%
X241575000Y-31375000D02*
X241575000Y-35385000D01*
X241575000Y-35385000D02*
X243575000Y-35385000D01*
X243575000Y-31375000D02*
X243575000Y-35385000D01*
%TO.C,D61*%
X336825000Y-69475000D02*
X336825000Y-73485000D01*
X336825000Y-73485000D02*
X338825000Y-73485000D01*
X338825000Y-69475000D02*
X338825000Y-73485000D01*
%TO.C,D63*%
X43931250Y-88525000D02*
X43931250Y-92535000D01*
X43931250Y-92535000D02*
X45931250Y-92535000D01*
X45931250Y-88525000D02*
X45931250Y-92535000D01*
%TO.C,R1*%
X23862258Y-32721510D02*
X23387742Y-32721510D01*
X23862258Y-33766510D02*
X23387742Y-33766510D01*
%TO.C,D57*%
X236812500Y-69475000D02*
X236812500Y-73485000D01*
X236812500Y-73485000D02*
X238812500Y-73485000D01*
X238812500Y-69475000D02*
X238812500Y-73485000D01*
%TO.C,R10*%
X23387742Y-20727500D02*
X23862258Y-20727500D01*
X23387742Y-21772500D02*
X23862258Y-21772500D01*
%TO.C,C10*%
X35190773Y-42660030D02*
X34991962Y-42461219D01*
X35912022Y-41938781D02*
X35713211Y-41739970D01*
%TO.C,R2*%
X23862258Y-34327500D02*
X23387742Y-34327500D01*
X23862258Y-35372500D02*
X23387742Y-35372500D01*
%TO.C,SW74*%
X19875000Y-26575000D02*
X19875000Y-26695000D01*
X19875000Y-27705000D02*
X19875000Y-28845000D01*
X19875000Y-29855000D02*
X19875000Y-29975000D01*
X19875000Y-29975000D02*
X24275000Y-29975000D01*
X24275000Y-26575000D02*
X19875000Y-26575000D01*
X24275000Y-26695000D02*
X24275000Y-26575000D01*
X24275000Y-28845000D02*
X24275000Y-27705000D01*
X24275000Y-29975000D02*
X24275000Y-29855000D01*
%TO.C,R8*%
X28412500Y-71512258D02*
X28412500Y-71037742D01*
X29457500Y-71512258D02*
X29457500Y-71037742D01*
%TO.C,R16*%
X319677500Y-10612259D02*
X319677500Y-10137743D01*
X320722500Y-10612259D02*
X320722500Y-10137743D01*
%TO.C,D72*%
X313012500Y-93287500D02*
X313012500Y-97297500D01*
X313012500Y-97297500D02*
X315012500Y-97297500D01*
X315012500Y-93287500D02*
X315012500Y-97297500D01*
%TO.C,D17*%
X46312500Y-31375000D02*
X46312500Y-35385000D01*
X46312500Y-35385000D02*
X48312500Y-35385000D01*
X48312500Y-31375000D02*
X48312500Y-35385000D01*
%TO.C,C13*%
X23815580Y-30590000D02*
X23534420Y-30590000D01*
X23815580Y-31610000D02*
X23534420Y-31610000D01*
D10*
%TO.C,D74*%
X22020000Y-33385000D02*
G75*
G02*
X21920000Y-33385000I-50000J0D01*
G01*
X21920000Y-33385000D02*
G75*
G02*
X22020000Y-33385000I50000J0D01*
G01*
D14*
%TO.C,D51*%
X122512500Y-69475000D02*
X122512500Y-73485000D01*
X122512500Y-73485000D02*
X124512500Y-73485000D01*
X124512500Y-69475000D02*
X124512500Y-73485000D01*
%TO.C,D47*%
X12975000Y-69475000D02*
X12975000Y-73485000D01*
X12975000Y-73485000D02*
X14975000Y-73485000D01*
X14975000Y-69475000D02*
X14975000Y-73485000D01*
%TO.C,C8*%
X33865000Y-58840580D02*
X33865000Y-58559420D01*
X34885000Y-58840580D02*
X34885000Y-58559420D01*
%TO.C,D76*%
X335800000Y-12950000D02*
X335800000Y-16960000D01*
X335800000Y-16960000D02*
X337800000Y-16960000D01*
X337800000Y-12950000D02*
X337800000Y-16960000D01*
%TO.C,D11*%
X213000000Y-12325000D02*
X213000000Y-16335000D01*
X213000000Y-16335000D02*
X215000000Y-16335000D01*
X215000000Y-12325000D02*
X215000000Y-16335000D01*
%TO.C,D25*%
X203475000Y-31375000D02*
X203475000Y-35385000D01*
X203475000Y-35385000D02*
X205475000Y-35385000D01*
X205475000Y-31375000D02*
X205475000Y-35385000D01*
%TO.C,D2*%
X41550000Y-12325000D02*
X41550000Y-16335000D01*
X41550000Y-16335000D02*
X43550000Y-16335000D01*
X43550000Y-12325000D02*
X43550000Y-16335000D01*
%TO.C,R12*%
X321277500Y-10137742D02*
X321277500Y-10612258D01*
X322322500Y-10137742D02*
X322322500Y-10612258D01*
%TO.C,U2*%
X24699446Y-43705294D02*
X24865616Y-43539124D01*
X24741872Y-44087132D02*
X24865616Y-44210876D01*
X29299175Y-39105565D02*
X29635051Y-38769689D01*
X29635051Y-38769689D02*
X29970927Y-39105565D01*
X29635051Y-48980311D02*
X29299175Y-48644435D01*
X29970927Y-48644435D02*
X29635051Y-48980311D01*
X34404486Y-44210876D02*
X34740362Y-43875000D01*
X34740362Y-43875000D02*
X34404486Y-43539124D01*
X24466100Y-44278051D02*
X24126689Y-43938640D01*
X24529740Y-43875000D01*
X24466100Y-44278051D01*
G36*
X24466100Y-44278051D02*
G01*
X24126689Y-43938640D01*
X24529740Y-43875000D01*
X24466100Y-44278051D01*
G37*
%TO.C,D20*%
X108225000Y-31375000D02*
X108225000Y-35385000D01*
X108225000Y-35385000D02*
X110225000Y-35385000D01*
X110225000Y-31375000D02*
X110225000Y-35385000D01*
%TO.C,D16*%
X12975000Y-31375000D02*
X12975000Y-35385000D01*
X12975000Y-35385000D02*
X14975000Y-35385000D01*
X14975000Y-31375000D02*
X14975000Y-35385000D01*
%TO.C,D36*%
X112987500Y-50425000D02*
X112987500Y-54435000D01*
X112987500Y-54435000D02*
X114987500Y-54435000D01*
X114987500Y-50425000D02*
X114987500Y-54435000D01*
%TO.C,U1*%
X30115000Y-57900000D02*
X30115000Y-58700000D01*
X30115000Y-59500000D02*
X30115000Y-58700000D01*
X33235000Y-57900000D02*
X33235000Y-58700000D01*
X33235000Y-59500000D02*
X33235000Y-58700000D01*
X33515000Y-60240000D02*
X33185000Y-60000000D01*
X33515000Y-59760000D01*
X33515000Y-60240000D01*
G36*
X33515000Y-60240000D02*
G01*
X33185000Y-60000000D01*
X33515000Y-59760000D01*
X33515000Y-60240000D01*
G37*
%TO.C,C15*%
X318090000Y-10234421D02*
X318090000Y-10515581D01*
X319110000Y-10234421D02*
X319110000Y-10515581D01*
%TO.C,D77*%
X308250000Y-12325000D02*
X308250000Y-16335000D01*
X308250000Y-16335000D02*
X310250000Y-16335000D01*
X310250000Y-12325000D02*
X310250000Y-16335000D01*
%TD*%
M02*
