%TF.GenerationSoftware,KiCad,Pcbnew,8.0.8*%
%TF.CreationDate,2025-02-24T19:32:54-06:00*%
%TF.ProjectId,kb,6b622e6b-6963-4616-945f-706362585858,rev?*%
%TF.SameCoordinates,Original*%
%TF.FileFunction,Copper,L2,Bot*%
%TF.FilePolarity,Positive*%
%FSLAX46Y46*%
G04 Gerber Fmt 4.6, Leading zero omitted, Abs format (unit mm)*
G04 Created by KiCad (PCBNEW 8.0.8) date 2025-02-24 19:32:54*
%MOMM*%
%LPD*%
G01*
G04 APERTURE LIST*
G04 Aperture macros list*
%AMRoundRect*
0 Rectangle with rounded corners*
0 $1 Rounding radius*
0 $2 $3 $4 $5 $6 $7 $8 $9 X,Y pos of 4 corners*
0 Add a 4 corners polygon primitive as box body*
4,1,4,$2,$3,$4,$5,$6,$7,$8,$9,$2,$3,0*
0 Add four circle primitives for the rounded corners*
1,1,$1+$1,$2,$3*
1,1,$1+$1,$4,$5*
1,1,$1+$1,$6,$7*
1,1,$1+$1,$8,$9*
0 Add four rect primitives between the rounded corners*
20,1,$1+$1,$2,$3,$4,$5,0*
20,1,$1+$1,$4,$5,$6,$7,0*
20,1,$1+$1,$6,$7,$8,$9,0*
20,1,$1+$1,$8,$9,$2,$3,0*%
%AMRotRect*
0 Rectangle, with rotation*
0 The origin of the aperture is its center*
0 $1 length*
0 $2 width*
0 $3 Rotation angle, in degrees counterclockwise*
0 Add horizontal line*
21,1,$1,$2,0,0,$3*%
G04 Aperture macros list end*
%TA.AperFunction,ComponentPad*%
%ADD10C,2.300000*%
%TD*%
%TA.AperFunction,ComponentPad*%
%ADD11C,2.000000*%
%TD*%
%TA.AperFunction,ComponentPad*%
%ADD12RoundRect,0.500000X-0.500000X-0.500000X0.500000X-0.500000X0.500000X0.500000X-0.500000X0.500000X0*%
%TD*%
%TA.AperFunction,ComponentPad*%
%ADD13RoundRect,0.550000X-1.150000X-0.550000X1.150000X-0.550000X1.150000X0.550000X-1.150000X0.550000X0*%
%TD*%
%TA.AperFunction,SMDPad,CuDef*%
%ADD14RoundRect,0.225000X0.375000X-0.225000X0.375000X0.225000X-0.375000X0.225000X-0.375000X-0.225000X0*%
%TD*%
%TA.AperFunction,ComponentPad*%
%ADD15R,1.700000X1.700000*%
%TD*%
%TA.AperFunction,ComponentPad*%
%ADD16O,1.700000X1.700000*%
%TD*%
%TA.AperFunction,SMDPad,CuDef*%
%ADD17RoundRect,0.225000X0.335876X0.017678X0.017678X0.335876X-0.335876X-0.017678X-0.017678X-0.335876X0*%
%TD*%
%TA.AperFunction,SMDPad,CuDef*%
%ADD18RoundRect,0.200000X-0.275000X0.200000X-0.275000X-0.200000X0.275000X-0.200000X0.275000X0.200000X0*%
%TD*%
%TA.AperFunction,SMDPad,CuDef*%
%ADD19RoundRect,0.150000X-0.150000X-0.275000X0.150000X-0.275000X0.150000X0.275000X-0.150000X0.275000X0*%
%TD*%
%TA.AperFunction,SMDPad,CuDef*%
%ADD20RoundRect,0.175000X-0.175000X-0.225000X0.175000X-0.225000X0.175000X0.225000X-0.175000X0.225000X0*%
%TD*%
%TA.AperFunction,SMDPad,CuDef*%
%ADD21R,1.000000X1.000000*%
%TD*%
%TA.AperFunction,SMDPad,CuDef*%
%ADD22RoundRect,0.225000X-0.250000X0.225000X-0.250000X-0.225000X0.250000X-0.225000X0.250000X0.225000X0*%
%TD*%
%TA.AperFunction,SMDPad,CuDef*%
%ADD23RoundRect,0.225000X-0.335876X-0.017678X-0.017678X-0.335876X0.335876X0.017678X0.017678X0.335876X0*%
%TD*%
%TA.AperFunction,SMDPad,CuDef*%
%ADD24RoundRect,0.200000X-0.200000X-0.275000X0.200000X-0.275000X0.200000X0.275000X-0.200000X0.275000X0*%
%TD*%
%TA.AperFunction,SMDPad,CuDef*%
%ADD25RoundRect,0.147500X0.147500X0.172500X-0.147500X0.172500X-0.147500X-0.172500X0.147500X-0.172500X0*%
%TD*%
%TA.AperFunction,SMDPad,CuDef*%
%ADD26RoundRect,0.200000X0.275000X-0.200000X0.275000X0.200000X-0.275000X0.200000X-0.275000X-0.200000X0*%
%TD*%
%TA.AperFunction,SMDPad,CuDef*%
%ADD27RoundRect,0.225000X0.017678X-0.335876X0.335876X-0.017678X-0.017678X0.335876X-0.335876X0.017678X0*%
%TD*%
%TA.AperFunction,SMDPad,CuDef*%
%ADD28RoundRect,0.225000X0.225000X0.250000X-0.225000X0.250000X-0.225000X-0.250000X0.225000X-0.250000X0*%
%TD*%
%TA.AperFunction,SMDPad,CuDef*%
%ADD29RotRect,0.900000X0.800000X45.000000*%
%TD*%
%TA.AperFunction,SMDPad,CuDef*%
%ADD30RoundRect,0.225000X-0.017678X0.335876X-0.335876X0.017678X0.017678X-0.335876X0.335876X-0.017678X0*%
%TD*%
%TA.AperFunction,SMDPad,CuDef*%
%ADD31R,1.050000X0.650000*%
%TD*%
%TA.AperFunction,SMDPad,CuDef*%
%ADD32RoundRect,0.140000X0.021213X-0.219203X0.219203X-0.021213X-0.021213X0.219203X-0.219203X0.021213X0*%
%TD*%
%TA.AperFunction,SMDPad,CuDef*%
%ADD33RoundRect,0.225000X-0.225000X-0.250000X0.225000X-0.250000X0.225000X0.250000X-0.225000X0.250000X0*%
%TD*%
%TA.AperFunction,SMDPad,CuDef*%
%ADD34RoundRect,0.140000X-0.021213X0.219203X-0.219203X0.021213X0.021213X-0.219203X0.219203X-0.021213X0*%
%TD*%
%TA.AperFunction,SMDPad,CuDef*%
%ADD35RoundRect,0.200000X0.200000X0.275000X-0.200000X0.275000X-0.200000X-0.275000X0.200000X-0.275000X0*%
%TD*%
%TA.AperFunction,SMDPad,CuDef*%
%ADD36RoundRect,0.062500X-0.309359X0.220971X0.220971X-0.309359X0.309359X-0.220971X-0.220971X0.309359X0*%
%TD*%
%TA.AperFunction,SMDPad,CuDef*%
%ADD37RoundRect,0.062500X-0.309359X-0.220971X-0.220971X-0.309359X0.309359X0.220971X0.220971X0.309359X0*%
%TD*%
%TA.AperFunction,HeatsinkPad*%
%ADD38RotRect,5.600000X5.600000X315.000000*%
%TD*%
%TA.AperFunction,SMDPad,CuDef*%
%ADD39RoundRect,0.150000X0.150000X-0.512500X0.150000X0.512500X-0.150000X0.512500X-0.150000X-0.512500X0*%
%TD*%
%TA.AperFunction,SMDPad,CuDef*%
%ADD40RoundRect,0.225000X0.250000X-0.225000X0.250000X0.225000X-0.250000X0.225000X-0.250000X-0.225000X0*%
%TD*%
%TA.AperFunction,ViaPad*%
%ADD41C,0.500000*%
%TD*%
%TA.AperFunction,Conductor*%
%ADD42C,0.127000*%
%TD*%
%TA.AperFunction,Conductor*%
%ADD43C,0.300000*%
%TD*%
%TA.AperFunction,Conductor*%
%ADD44C,0.150000*%
%TD*%
%TA.AperFunction,Conductor*%
%ADD45C,0.200000*%
%TD*%
G04 APERTURE END LIST*
D10*
%TO.P,SW30,1,1*%
%TO.N,/COL14*%
X295677500Y-25485000D03*
%TO.P,SW30,2,2*%
%TO.N,Net-(D30-A)*%
X302027500Y-22945000D03*
%TD*%
%TO.P,SW33,1,1*%
%TO.N,/COL1*%
X40883750Y-44535000D03*
%TO.P,SW33,2,2*%
%TO.N,Net-(D33-A)*%
X47233750Y-41995000D03*
%TD*%
%TO.P,SW31,1,1*%
%TO.N,/COL15*%
X329015000Y-25485000D03*
%TO.P,SW31,2,2*%
%TO.N,Net-(D31-A)*%
X335365000Y-22945000D03*
%TD*%
%TO.P,SW56,1,1*%
%TO.N,/COL9*%
X209952500Y-63585000D03*
%TO.P,SW56,2,2*%
%TO.N,Net-(D56-A)*%
X216302500Y-61045000D03*
%TD*%
%TO.P,SW23,1,1*%
%TO.N,/COL7*%
X157565000Y-25485000D03*
%TO.P,SW23,2,2*%
%TO.N,Net-(D23-A)*%
X163915000Y-22945000D03*
%TD*%
%TO.P,SW42,1,1*%
%TO.N,/COL10*%
X219477500Y-44535000D03*
%TO.P,SW42,2,2*%
%TO.N,Net-(D42-A)*%
X225827500Y-41995000D03*
%TD*%
%TO.P,SW54,1,1*%
%TO.N,/COL7*%
X171852500Y-63585000D03*
%TO.P,SW54,2,2*%
%TO.N,Net-(D54-A)*%
X178202500Y-61045000D03*
%TD*%
%TO.P,SW65,1,1*%
%TO.N,/COL3*%
X83746250Y-82635000D03*
%TO.P,SW65,2,2*%
%TO.N,Net-(D65-A)*%
X90096250Y-80095000D03*
%TD*%
%TO.P,SW59,1,1*%
%TO.N,/COL13*%
X274246250Y-63585000D03*
%TO.P,SW59,2,2*%
%TO.N,Net-(D59-A)*%
X280596250Y-61045000D03*
%TD*%
%TO.P,SW6,1,1*%
%TO.N,/COL5*%
X109940000Y-6435000D03*
%TO.P,SW6,2,2*%
%TO.N,Net-(D6-A)*%
X116290000Y-3895000D03*
%TD*%
%TO.P,SW61,1,1*%
%TO.N,/COL15*%
X329015000Y-63585000D03*
%TO.P,SW61,2,2*%
%TO.N,Net-(D61-A)*%
X335365000Y-61045000D03*
%TD*%
%TO.P,SW43,1,1*%
%TO.N,/COL11*%
X238527500Y-44535000D03*
%TO.P,SW43,2,2*%
%TO.N,Net-(D43-A)*%
X244877500Y-41995000D03*
%TD*%
%TO.P,SW48,1,1*%
%TO.N,/COL1*%
X45646250Y-63585000D03*
%TO.P,SW48,2,2*%
%TO.N,Net-(D48-A)*%
X51996250Y-61045000D03*
%TD*%
%TO.P,SW17,1,1*%
%TO.N,/COL1*%
X38502500Y-25485000D03*
%TO.P,SW17,2,2*%
%TO.N,Net-(D17-A)*%
X44852500Y-22945000D03*
%TD*%
%TO.P,SW71,1,1*%
%TO.N,/COL13*%
X286152500Y-87397500D03*
%TO.P,SW71,2,2*%
%TO.N,Net-(D71-A)*%
X292502500Y-84857500D03*
%TD*%
%TO.P,SW35,1,1*%
%TO.N,/COL3*%
X86127500Y-44535000D03*
%TO.P,SW35,2,2*%
%TO.N,Net-(D35-A)*%
X92477500Y-41995000D03*
%TD*%
%TO.P,SW51,1,1*%
%TO.N,/COL4*%
X114702500Y-63585000D03*
%TO.P,SW51,2,2*%
%TO.N,Net-(D51-A)*%
X121052500Y-61045000D03*
%TD*%
%TO.P,SW69,1,1*%
%TO.N,/COL10*%
X229002500Y-82635000D03*
%TO.P,SW69,2,2*%
%TO.N,Net-(D69-A)*%
X235352500Y-80095000D03*
%TD*%
%TO.P,SW32,1,1*%
%TO.N,/COL0*%
X5165000Y-44535000D03*
%TO.P,SW32,2,2*%
%TO.N,Net-(D32-A)*%
X11515000Y-41995000D03*
%TD*%
%TO.P,SW70,1,1*%
%TO.N,/COL12*%
X257577500Y-82635000D03*
%TO.P,SW70,2,2*%
%TO.N,Net-(D70-A)*%
X263927500Y-80095000D03*
%TD*%
%TO.P,SW68,1,1*%
%TO.N,/COL8*%
X193283750Y-82635000D03*
%TO.P,SW68,2,2*%
%TO.N,Net-(D68-A)*%
X199633750Y-80095000D03*
%TD*%
%TO.P,SW73,1,1*%
%TO.N,/COL15*%
X324252500Y-87397500D03*
%TO.P,SW73,2,2*%
%TO.N,Net-(D73-A)*%
X330602500Y-84857500D03*
%TD*%
%TO.P,SW10,1,1*%
%TO.N,/COL9*%
X186140000Y-6435000D03*
%TO.P,SW10,2,2*%
%TO.N,Net-(D10-A)*%
X192490000Y-3895000D03*
%TD*%
D11*
%TO.P,SW76,A,A*%
%TO.N,/Matrix/A*%
X325325000Y-6475000D03*
%TO.P,SW76,B,B*%
%TO.N,/Matrix/B*%
X325325000Y-11475000D03*
D12*
%TO.P,SW76,C,C*%
%TO.N,GND*%
X325325000Y-8975000D03*
D13*
%TO.P,SW76,MP,MP*%
%TO.N,/Matrix/SW77*%
X332825000Y-3375000D03*
X332825000Y-14575000D03*
D11*
%TO.P,SW76,S1,S1*%
%TO.N,/Matrix/S1*%
X339825000Y-11475000D03*
%TO.P,SW76,S2,S2*%
%TO.N,GND*%
X339825000Y-6475000D03*
%TD*%
D10*
%TO.P,SW5,1,1*%
%TO.N,/COL4*%
X90890000Y-6435000D03*
%TO.P,SW5,2,2*%
%TO.N,Net-(D5-A)*%
X97240000Y-3895000D03*
%TD*%
%TO.P,SW44,1,1*%
%TO.N,/COL12*%
X257577500Y-44535000D03*
%TO.P,SW44,2,2*%
%TO.N,Net-(D44-A)*%
X263927500Y-41995000D03*
%TD*%
%TO.P,SW25,1,1*%
%TO.N,/COL9*%
X195665000Y-25485000D03*
%TO.P,SW25,2,2*%
%TO.N,Net-(D25-A)*%
X202015000Y-22945000D03*
%TD*%
%TO.P,SW26,1,1*%
%TO.N,/COL10*%
X214715000Y-25485000D03*
%TO.P,SW26,2,2*%
%TO.N,Net-(D26-A)*%
X221065000Y-22945000D03*
%TD*%
%TO.P,SW12,1,1*%
%TO.N,/COL11*%
X224240000Y-6435000D03*
%TO.P,SW12,2,2*%
%TO.N,Net-(D12-A)*%
X230590000Y-3895000D03*
%TD*%
%TO.P,SW52,1,1*%
%TO.N,/COL5*%
X133752500Y-63585000D03*
%TO.P,SW52,2,2*%
%TO.N,Net-(D52-A)*%
X140102500Y-61045000D03*
%TD*%
%TO.P,SW67,1,1*%
%TO.N,/COL6*%
X155183750Y-82635000D03*
%TO.P,SW67,2,2*%
%TO.N,Net-(D67-A)*%
X161533750Y-80095000D03*
%TD*%
%TO.P,SW63,1,1*%
%TO.N,/COL1*%
X36121250Y-82635000D03*
%TO.P,SW63,2,2*%
%TO.N,Net-(D63-A)*%
X42471250Y-80095000D03*
%TD*%
%TO.P,SW38,1,1*%
%TO.N,/COL6*%
X143277500Y-44535000D03*
%TO.P,SW38,2,2*%
%TO.N,Net-(D38-A)*%
X149627500Y-41995000D03*
%TD*%
%TO.P,SW39,1,1*%
%TO.N,/COL7*%
X162327500Y-44535000D03*
%TO.P,SW39,2,2*%
%TO.N,Net-(D39-A)*%
X168677500Y-41995000D03*
%TD*%
%TO.P,SW41,1,1*%
%TO.N,/COL9*%
X200427500Y-44535000D03*
%TO.P,SW41,2,2*%
%TO.N,Net-(D41-A)*%
X206777500Y-41995000D03*
%TD*%
%TO.P,SW47,1,1*%
%TO.N,/COL0*%
X5165000Y-63585000D03*
%TO.P,SW47,2,2*%
%TO.N,Net-(D47-A)*%
X11515000Y-61045000D03*
%TD*%
%TO.P,SW1,1,1*%
%TO.N,/COL0*%
X5165000Y-6435000D03*
%TO.P,SW1,2,2*%
%TO.N,Net-(D1-A)*%
X11515000Y-3895000D03*
%TD*%
%TO.P,SW16,1,1*%
%TO.N,/COL0*%
X5165000Y-25485000D03*
%TO.P,SW16,2,2*%
%TO.N,Net-(D16-A)*%
X11515000Y-22945000D03*
%TD*%
%TO.P,SW57,1,1*%
%TO.N,/COL10*%
X229002500Y-63585000D03*
%TO.P,SW57,2,2*%
%TO.N,Net-(D57-A)*%
X235352500Y-61045000D03*
%TD*%
%TO.P,SW4,1,1*%
%TO.N,/COL3*%
X71840000Y-6435000D03*
%TO.P,SW4,2,2*%
%TO.N,Net-(D4-A)*%
X78190000Y-3895000D03*
%TD*%
%TO.P,SW20,1,1*%
%TO.N,/COL4*%
X100415000Y-25485000D03*
%TO.P,SW20,2,2*%
%TO.N,Net-(D20-A)*%
X106765000Y-22945000D03*
%TD*%
%TO.P,SW79,1,1*%
%TO.N,/COL14*%
X300440000Y-6435000D03*
%TO.P,SW79,2,2*%
%TO.N,Net-(D77-A)*%
X306790000Y-3895000D03*
%TD*%
%TO.P,SW24,1,1*%
%TO.N,/COL8*%
X176615000Y-25485000D03*
%TO.P,SW24,2,2*%
%TO.N,Net-(D24-A)*%
X182965000Y-22945000D03*
%TD*%
%TO.P,SW64,1,1*%
%TO.N,/COL2*%
X59933750Y-82635000D03*
%TO.P,SW64,2,2*%
%TO.N,Net-(D64-A)*%
X66283750Y-80095000D03*
%TD*%
%TO.P,SW21,1,1*%
%TO.N,/COL5*%
X119465000Y-25485000D03*
%TO.P,SW21,2,2*%
%TO.N,Net-(D21-A)*%
X125815000Y-22945000D03*
%TD*%
%TO.P,SW27,1,1*%
%TO.N,/COL11*%
X233765000Y-25485000D03*
%TO.P,SW27,2,2*%
%TO.N,Net-(D27-A)*%
X240115000Y-22945000D03*
%TD*%
%TO.P,SW29,1,1*%
%TO.N,/COL13*%
X271865000Y-25485000D03*
%TO.P,SW29,2,2*%
%TO.N,Net-(D29-A)*%
X278215000Y-22945000D03*
%TD*%
%TO.P,SW2,1,1*%
%TO.N,/COL1*%
X33740000Y-6435000D03*
%TO.P,SW2,2,2*%
%TO.N,Net-(D2-A)*%
X40090000Y-3895000D03*
%TD*%
%TO.P,SW28,1,1*%
%TO.N,/COL12*%
X252815000Y-25485000D03*
%TO.P,SW28,2,2*%
%TO.N,Net-(D28-A)*%
X259165000Y-22945000D03*
%TD*%
%TO.P,SW77,1,1*%
%TO.N,/COL15*%
X329015000Y-6435000D03*
%TO.P,SW77,2,2*%
%TO.N,/Matrix/SW77*%
X335365000Y-3895000D03*
%TD*%
%TO.P,SW19,1,1*%
%TO.N,/COL3*%
X81365000Y-25485000D03*
%TO.P,SW19,2,2*%
%TO.N,Net-(D19-A)*%
X87715000Y-22945000D03*
%TD*%
%TO.P,SW8,1,1*%
%TO.N,/COL7*%
X148040000Y-6435000D03*
%TO.P,SW8,2,2*%
%TO.N,Net-(D8-A)*%
X154390000Y-3895000D03*
%TD*%
%TO.P,SW9,1,1*%
%TO.N,/COL8*%
X167090000Y-6435000D03*
%TO.P,SW9,2,2*%
%TO.N,Net-(D9-A)*%
X173440000Y-3895000D03*
%TD*%
%TO.P,SW72,1,1*%
%TO.N,/COL14*%
X305202500Y-87397500D03*
%TO.P,SW72,2,2*%
%TO.N,Net-(D72-A)*%
X311552500Y-84857500D03*
%TD*%
%TO.P,SW60,1,1*%
%TO.N,/COL14*%
X305202500Y-68335000D03*
%TO.P,SW60,2,2*%
%TO.N,Net-(D60-A)*%
X311552500Y-65795000D03*
%TD*%
%TO.P,SW7,1,1*%
%TO.N,/COL6*%
X128990000Y-6435000D03*
%TO.P,SW7,2,2*%
%TO.N,Net-(D7-A)*%
X135340000Y-3895000D03*
%TD*%
%TO.P,SW18,1,1*%
%TO.N,/COL2*%
X62315000Y-25485000D03*
%TO.P,SW18,2,2*%
%TO.N,Net-(D18-A)*%
X68665000Y-22945000D03*
%TD*%
%TO.P,SW62,1,1*%
%TO.N,/COL0*%
X5165000Y-82635000D03*
%TO.P,SW62,2,2*%
%TO.N,Net-(D62-A)*%
X11515000Y-80095000D03*
%TD*%
%TO.P,SW3,1,1*%
%TO.N,/COL2*%
X52790000Y-6435000D03*
%TO.P,SW3,2,2*%
%TO.N,Net-(D3-A)*%
X59140000Y-3895000D03*
%TD*%
%TO.P,SW34,1,1*%
%TO.N,/COL2*%
X67077500Y-44535000D03*
%TO.P,SW34,2,2*%
%TO.N,Net-(D34-A)*%
X73427500Y-41995000D03*
%TD*%
%TO.P,SW53,1,1*%
%TO.N,/COL6*%
X152802500Y-63585000D03*
%TO.P,SW53,2,2*%
%TO.N,Net-(D53-A)*%
X159152500Y-61045000D03*
%TD*%
%TO.P,SW58,1,1*%
%TO.N,/COL11*%
X248052500Y-63585000D03*
%TO.P,SW58,2,2*%
%TO.N,Net-(D58-A)*%
X254402500Y-61045000D03*
%TD*%
%TO.P,SW40,1,1*%
%TO.N,/COL8*%
X181377500Y-44535000D03*
%TO.P,SW40,2,2*%
%TO.N,Net-(D40-A)*%
X187727500Y-41995000D03*
%TD*%
%TO.P,SW50,1,1*%
%TO.N,/COL3*%
X95652500Y-63585000D03*
%TO.P,SW50,2,2*%
%TO.N,Net-(D50-A)*%
X102002500Y-61045000D03*
%TD*%
%TO.P,SW55,1,1*%
%TO.N,/COL8*%
X190902500Y-63585000D03*
%TO.P,SW55,2,2*%
%TO.N,Net-(D55-A)*%
X197252500Y-61045000D03*
%TD*%
%TO.P,SW66,1,1*%
%TO.N,/COL4*%
X117083750Y-82635000D03*
%TO.P,SW66,2,2*%
%TO.N,Net-(D66-A)*%
X123433750Y-80095000D03*
%TD*%
%TO.P,SW46,1,1*%
%TO.N,/COL15*%
X329015000Y-44535000D03*
%TO.P,SW46,2,2*%
%TO.N,Net-(D46-A)*%
X335365000Y-41995000D03*
%TD*%
%TO.P,SW49,1,1*%
%TO.N,/COL2*%
X76602500Y-63585000D03*
%TO.P,SW49,2,2*%
%TO.N,Net-(D49-A)*%
X82952500Y-61045000D03*
%TD*%
%TO.P,SW15,1,1*%
%TO.N,/COL14*%
X281390000Y-6435000D03*
%TO.P,SW15,2,2*%
%TO.N,Net-(D15-A)*%
X287740000Y-3895000D03*
%TD*%
%TO.P,SW14,1,1*%
%TO.N,/COL13*%
X262340000Y-6435000D03*
%TO.P,SW14,2,2*%
%TO.N,Net-(D14-A)*%
X268690000Y-3895000D03*
%TD*%
%TO.P,SW11,1,1*%
%TO.N,/COL10*%
X205190000Y-6435000D03*
%TO.P,SW11,2,2*%
%TO.N,Net-(D11-A)*%
X211540000Y-3895000D03*
%TD*%
%TO.P,SW45,1,1*%
%TO.N,/COL13*%
X288533750Y-44535000D03*
%TO.P,SW45,2,2*%
%TO.N,Net-(D45-A)*%
X294883750Y-41995000D03*
%TD*%
%TO.P,SW22,1,1*%
%TO.N,/COL6*%
X138515000Y-25485000D03*
%TO.P,SW22,2,2*%
%TO.N,Net-(D22-A)*%
X144865000Y-22945000D03*
%TD*%
%TO.P,SW36,1,1*%
%TO.N,/COL4*%
X105177500Y-44535000D03*
%TO.P,SW36,2,2*%
%TO.N,Net-(D36-A)*%
X111527500Y-41995000D03*
%TD*%
%TO.P,SW13,1,1*%
%TO.N,/COL12*%
X243290000Y-6435000D03*
%TO.P,SW13,2,2*%
%TO.N,Net-(D13-A)*%
X249640000Y-3895000D03*
%TD*%
%TO.P,SW37,1,1*%
%TO.N,/COL5*%
X124227500Y-44535000D03*
%TO.P,SW37,2,2*%
%TO.N,Net-(D37-A)*%
X130577500Y-41995000D03*
%TD*%
D14*
%TO.P,D28,1,K*%
%TO.N,/ROW1*%
X261625000Y-34675000D03*
%TO.P,D28,2,A*%
%TO.N,Net-(D28-A)*%
X261625000Y-31375000D03*
%TD*%
D15*
%TO.P,J1,1,Pin_1*%
%TO.N,+3V3*%
X18775000Y-75325000D03*
D16*
%TO.P,J1,2,Pin_2*%
%TO.N,Net-(J1-Pin_2)*%
X21315000Y-75325000D03*
%TO.P,J1,3,Pin_3*%
%TO.N,Net-(J1-Pin_3)*%
X23855000Y-75325000D03*
%TO.P,J1,4,Pin_4*%
%TO.N,Net-(J1-Pin_4)*%
X26395000Y-75325000D03*
%TO.P,J1,5,Pin_5*%
%TO.N,Net-(J1-Pin_5)*%
X28935000Y-75325000D03*
%TO.P,J1,6,Pin_6*%
%TO.N,GND*%
X31475000Y-75325000D03*
%TD*%
D17*
%TO.P,C7,1*%
%TO.N,+3V3*%
X27748008Y-37448008D03*
%TO.P,C7,2*%
%TO.N,GND*%
X26651992Y-36351992D03*
%TD*%
D14*
%TO.P,D1,1,K*%
%TO.N,/ROW0*%
X13975000Y-15625000D03*
%TO.P,D1,2,A*%
%TO.N,Net-(D1-A)*%
X13975000Y-12325000D03*
%TD*%
D18*
%TO.P,R9,1*%
%TO.N,+3V3*%
X25850000Y-27450000D03*
%TO.P,R9,2*%
%TO.N,Net-(R4-Pad1)*%
X25850000Y-29100000D03*
%TD*%
D19*
%TO.P,J2,1,Pin_1*%
%TO.N,+5V*%
X22075000Y-57750000D03*
%TO.P,J2,2,Pin_2*%
%TO.N,/USB_DN*%
X23275000Y-57750000D03*
%TO.P,J2,3,Pin_3*%
%TO.N,/USB_DP*%
X24475000Y-57750000D03*
%TO.P,J2,4,Pin_4*%
%TO.N,GND*%
X25675000Y-57750000D03*
D20*
%TO.P,J2,MP,MountPin*%
X20925000Y-53975000D03*
X26825000Y-53975000D03*
%TD*%
D14*
%TO.P,D68,1,K*%
%TO.N,/ROW4*%
X202093750Y-91825000D03*
%TO.P,D68,2,A*%
%TO.N,Net-(D68-A)*%
X202093750Y-88525000D03*
%TD*%
D21*
%TO.P,TP1,1,1*%
%TO.N,Net-(R4-Pad1)*%
X26450000Y-31150000D03*
%TD*%
D22*
%TO.P,C16,1*%
%TO.N,/SWITCH*%
X327800000Y-11400000D03*
%TO.P,C16,2*%
%TO.N,GND*%
X327800000Y-12950000D03*
%TD*%
D23*
%TO.P,C5,1*%
%TO.N,+3V3*%
X23050000Y-44400000D03*
%TO.P,C5,2*%
%TO.N,GND*%
X24146016Y-45496016D03*
%TD*%
D14*
%TO.P,D7,1,K*%
%TO.N,/ROW0*%
X137800000Y-15625000D03*
%TO.P,D7,2,A*%
%TO.N,Net-(D7-A)*%
X137800000Y-12325000D03*
%TD*%
%TO.P,D55,1,K*%
%TO.N,/ROW3*%
X199712500Y-72775000D03*
%TO.P,D55,2,A*%
%TO.N,Net-(D55-A)*%
X199712500Y-69475000D03*
%TD*%
%TO.P,D49,1,K*%
%TO.N,/ROW3*%
X85412500Y-72775000D03*
%TO.P,D49,2,A*%
%TO.N,Net-(D49-A)*%
X85412500Y-69475000D03*
%TD*%
%TO.P,D56,1,K*%
%TO.N,/ROW3*%
X218762500Y-72775000D03*
%TO.P,D56,2,A*%
%TO.N,Net-(D56-A)*%
X218762500Y-69475000D03*
%TD*%
%TO.P,D43,1,K*%
%TO.N,/ROW2*%
X247337500Y-53725000D03*
%TO.P,D43,2,A*%
%TO.N,Net-(D43-A)*%
X247337500Y-50425000D03*
%TD*%
D24*
%TO.P,R14,1*%
%TO.N,+3V3*%
X327750000Y-14525000D03*
%TO.P,R14,2*%
%TO.N,/Matrix/S1*%
X329400000Y-14525000D03*
%TD*%
D14*
%TO.P,D73,1,K*%
%TO.N,/ROW4*%
X333062500Y-96587500D03*
%TO.P,D73,2,A*%
%TO.N,Net-(D73-A)*%
X333062500Y-93287500D03*
%TD*%
%TO.P,D5,1,K*%
%TO.N,/ROW0*%
X99700000Y-15625000D03*
%TO.P,D5,2,A*%
%TO.N,Net-(D5-A)*%
X99700000Y-12325000D03*
%TD*%
D25*
%TO.P,D75,1,K*%
%TO.N,Net-(D75-K)*%
X21375000Y-34705990D03*
%TO.P,D75,2,A*%
%TO.N,/LED*%
X20405000Y-34705990D03*
%TD*%
D22*
%TO.P,C14,1*%
%TO.N,/EC11A*%
X318600000Y-5800000D03*
%TO.P,C14,2*%
%TO.N,GND*%
X318600000Y-7350000D03*
%TD*%
D14*
%TO.P,D24,1,K*%
%TO.N,/ROW1*%
X185425000Y-34675000D03*
%TO.P,D24,2,A*%
%TO.N,Net-(D24-A)*%
X185425000Y-31375000D03*
%TD*%
%TO.P,D34,1,K*%
%TO.N,/ROW2*%
X75887500Y-53725000D03*
%TO.P,D34,2,A*%
%TO.N,Net-(D34-A)*%
X75887500Y-50425000D03*
%TD*%
D23*
%TO.P,C4,1*%
%TO.N,+3V3*%
X27751992Y-50751992D03*
%TO.P,C4,2*%
%TO.N,GND*%
X28848008Y-51848008D03*
%TD*%
D14*
%TO.P,D37,1,K*%
%TO.N,/ROW2*%
X133037500Y-53725000D03*
%TO.P,D37,2,A*%
%TO.N,Net-(D37-A)*%
X133037500Y-50425000D03*
%TD*%
%TO.P,D30,1,K*%
%TO.N,/ROW2*%
X304487500Y-34675000D03*
%TO.P,D30,2,A*%
%TO.N,Net-(D30-A)*%
X304487500Y-31375000D03*
%TD*%
%TO.P,D39,1,K*%
%TO.N,/ROW2*%
X171137500Y-53725000D03*
%TO.P,D39,2,A*%
%TO.N,Net-(D39-A)*%
X171137500Y-50425000D03*
%TD*%
%TO.P,D33,1,K*%
%TO.N,/ROW2*%
X49693750Y-53725000D03*
%TO.P,D33,2,A*%
%TO.N,Net-(D33-A)*%
X49693750Y-50425000D03*
%TD*%
%TO.P,D22,1,K*%
%TO.N,/ROW1*%
X147325000Y-34675000D03*
%TO.P,D22,2,A*%
%TO.N,Net-(D22-A)*%
X147325000Y-31375000D03*
%TD*%
D26*
%TO.P,R11,1*%
%TO.N,GND*%
X25850000Y-24900000D03*
%TO.P,R11,2*%
%TO.N,Net-(R10-Pad1)*%
X25850000Y-23250000D03*
%TD*%
D14*
%TO.P,D58,1,K*%
%TO.N,/ROW3*%
X256862500Y-72775000D03*
%TO.P,D58,2,A*%
%TO.N,Net-(D58-A)*%
X256862500Y-69475000D03*
%TD*%
%TO.P,D38,1,K*%
%TO.N,/ROW2*%
X152087500Y-53725000D03*
%TO.P,D38,2,A*%
%TO.N,Net-(D38-A)*%
X152087500Y-50425000D03*
%TD*%
D27*
%TO.P,C2,1*%
%TO.N,+3V3*%
X36051992Y-44948008D03*
%TO.P,C2,2*%
%TO.N,GND*%
X37148008Y-43851992D03*
%TD*%
D21*
%TO.P,TP2,1,1*%
%TO.N,Net-(R10-Pad1)*%
X26450000Y-21300000D03*
%TD*%
D14*
%TO.P,D32,1,K*%
%TO.N,/ROW2*%
X13975000Y-53725000D03*
%TO.P,D32,2,A*%
%TO.N,Net-(D32-A)*%
X13975000Y-50425000D03*
%TD*%
%TO.P,D18,1,K*%
%TO.N,/ROW1*%
X71125000Y-34675000D03*
%TO.P,D18,2,A*%
%TO.N,Net-(D18-A)*%
X71125000Y-31375000D03*
%TD*%
%TO.P,D10,1,K*%
%TO.N,/ROW0*%
X194950000Y-15625000D03*
%TO.P,D10,2,A*%
%TO.N,Net-(D10-A)*%
X194950000Y-12325000D03*
%TD*%
%TO.P,D40,1,K*%
%TO.N,/ROW2*%
X190187500Y-53725000D03*
%TO.P,D40,2,A*%
%TO.N,Net-(D40-A)*%
X190187500Y-50425000D03*
%TD*%
%TO.P,D65,1,K*%
%TO.N,/ROW4*%
X92556250Y-91825000D03*
%TO.P,D65,2,A*%
%TO.N,Net-(D65-A)*%
X92556250Y-88525000D03*
%TD*%
%TO.P,D69,1,K*%
%TO.N,/ROW4*%
X237812500Y-91825000D03*
%TO.P,D69,2,A*%
%TO.N,Net-(D69-A)*%
X237812500Y-88525000D03*
%TD*%
%TO.P,D14,1,K*%
%TO.N,/ROW0*%
X271150000Y-15625000D03*
%TO.P,D14,2,A*%
%TO.N,Net-(D14-A)*%
X271150000Y-12325000D03*
%TD*%
%TO.P,D46,1,K*%
%TO.N,/ROW2*%
X337825000Y-53725000D03*
%TO.P,D46,2,A*%
%TO.N,Net-(D46-A)*%
X337825000Y-50425000D03*
%TD*%
%TO.P,D70,1,K*%
%TO.N,/ROW4*%
X266387500Y-91825000D03*
%TO.P,D70,2,A*%
%TO.N,Net-(D70-A)*%
X266387500Y-88525000D03*
%TD*%
%TO.P,D64,1,K*%
%TO.N,/ROW4*%
X68743750Y-91825000D03*
%TO.P,D64,2,A*%
%TO.N,Net-(D64-A)*%
X68743750Y-88525000D03*
%TD*%
%TO.P,D41,1,K*%
%TO.N,/ROW2*%
X209237500Y-53725000D03*
%TO.P,D41,2,A*%
%TO.N,Net-(D41-A)*%
X209237500Y-50425000D03*
%TD*%
D28*
%TO.P,C17,1*%
%TO.N,/BOOT0*%
X21300000Y-21250000D03*
%TO.P,C17,2*%
%TO.N,GND*%
X19750000Y-21250000D03*
%TD*%
D14*
%TO.P,D26,1,K*%
%TO.N,/ROW1*%
X223525000Y-34675000D03*
%TO.P,D26,2,A*%
%TO.N,Net-(D26-A)*%
X223525000Y-31375000D03*
%TD*%
D18*
%TO.P,R6,1*%
%TO.N,/SWCLK*%
X23855000Y-70450000D03*
%TO.P,R6,2*%
%TO.N,Net-(J1-Pin_3)*%
X23855000Y-72100000D03*
%TD*%
D14*
%TO.P,D71,1,K*%
%TO.N,/ROW4*%
X294962500Y-96587500D03*
%TO.P,D71,2,A*%
%TO.N,Net-(D71-A)*%
X294962500Y-93287500D03*
%TD*%
%TO.P,D3,1,K*%
%TO.N,/ROW0*%
X61600000Y-15625000D03*
%TO.P,D3,2,A*%
%TO.N,Net-(D3-A)*%
X61600000Y-12325000D03*
%TD*%
%TO.P,D31,1,K*%
%TO.N,/ROW1*%
X337825000Y-34675000D03*
%TO.P,D31,2,A*%
%TO.N,Net-(D31-A)*%
X337825000Y-31375000D03*
%TD*%
D17*
%TO.P,C6,1*%
%TO.N,+3V3*%
X27100000Y-39100000D03*
%TO.P,C6,2*%
%TO.N,GND*%
X26003984Y-38003984D03*
%TD*%
D14*
%TO.P,D67,1,K*%
%TO.N,/ROW4*%
X163993750Y-91825000D03*
%TO.P,D67,2,A*%
%TO.N,Net-(D67-A)*%
X163993750Y-88525000D03*
%TD*%
%TO.P,D23,1,K*%
%TO.N,/ROW1*%
X166375000Y-34675000D03*
%TO.P,D23,2,A*%
%TO.N,Net-(D23-A)*%
X166375000Y-31375000D03*
%TD*%
%TO.P,D9,1,K*%
%TO.N,/ROW0*%
X175900000Y-15625000D03*
%TO.P,D9,2,A*%
%TO.N,Net-(D9-A)*%
X175900000Y-12325000D03*
%TD*%
%TO.P,D35,1,K*%
%TO.N,/ROW2*%
X94937500Y-53725000D03*
%TO.P,D35,2,A*%
%TO.N,Net-(D35-A)*%
X94937500Y-50425000D03*
%TD*%
%TO.P,D60,1,K*%
%TO.N,/ROW3*%
X314025000Y-77525000D03*
%TO.P,D60,2,A*%
%TO.N,Net-(D60-A)*%
X314025000Y-74225000D03*
%TD*%
D29*
%TO.P,Y1,1,1*%
%TO.N,/XIN*%
X20997543Y-37994273D03*
%TO.P,Y1,2,2*%
%TO.N,GND*%
X21987492Y-37004324D03*
%TO.P,Y1,3,3*%
%TO.N,/XOUT*%
X22765309Y-37782141D03*
%TO.P,Y1,4,4*%
%TO.N,GND*%
X21775360Y-38772090D03*
%TD*%
D14*
%TO.P,D53,1,K*%
%TO.N,/ROW3*%
X161612500Y-72775000D03*
%TO.P,D53,2,A*%
%TO.N,Net-(D53-A)*%
X161612500Y-69475000D03*
%TD*%
%TO.P,D21,1,K*%
%TO.N,/ROW1*%
X128275000Y-34675000D03*
%TO.P,D21,2,A*%
%TO.N,Net-(D21-A)*%
X128275000Y-31375000D03*
%TD*%
%TO.P,D15,1,K*%
%TO.N,/ROW0*%
X290200000Y-15625000D03*
%TO.P,D15,2,A*%
%TO.N,Net-(D15-A)*%
X290200000Y-12325000D03*
%TD*%
%TO.P,D45,1,K*%
%TO.N,/ROW2*%
X297343750Y-53725000D03*
%TO.P,D45,2,A*%
%TO.N,Net-(D45-A)*%
X297343750Y-50425000D03*
%TD*%
D18*
%TO.P,R7,1*%
%TO.N,/USART2_TX_DEBUG*%
X26395000Y-70450000D03*
%TO.P,R7,2*%
%TO.N,Net-(J1-Pin_4)*%
X26395000Y-72100000D03*
%TD*%
D14*
%TO.P,D19,1,K*%
%TO.N,/ROW1*%
X90175000Y-34675000D03*
%TO.P,D19,2,A*%
%TO.N,Net-(D19-A)*%
X90175000Y-31375000D03*
%TD*%
%TO.P,D54,1,K*%
%TO.N,/ROW3*%
X180662500Y-72775000D03*
%TO.P,D54,2,A*%
%TO.N,Net-(D54-A)*%
X180662500Y-69475000D03*
%TD*%
%TO.P,D62,1,K*%
%TO.N,/ROW4*%
X13975000Y-91825000D03*
%TO.P,D62,2,A*%
%TO.N,Net-(D62-A)*%
X13975000Y-88525000D03*
%TD*%
%TO.P,D29,1,K*%
%TO.N,/ROW1*%
X280675000Y-34675000D03*
%TO.P,D29,2,A*%
%TO.N,Net-(D29-A)*%
X280675000Y-31375000D03*
%TD*%
%TO.P,D48,1,K*%
%TO.N,/ROW3*%
X54456250Y-72775000D03*
%TO.P,D48,2,A*%
%TO.N,Net-(D48-A)*%
X54456250Y-69475000D03*
%TD*%
%TO.P,D50,1,K*%
%TO.N,/ROW3*%
X104462500Y-72775000D03*
%TO.P,D50,2,A*%
%TO.N,Net-(D50-A)*%
X104462500Y-69475000D03*
%TD*%
D18*
%TO.P,R5,1*%
%TO.N,/SWDIO*%
X21315000Y-70450000D03*
%TO.P,R5,2*%
%TO.N,Net-(J1-Pin_2)*%
X21315000Y-72100000D03*
%TD*%
D30*
%TO.P,C1,1*%
%TO.N,+3V3*%
X22948008Y-42151992D03*
%TO.P,C1,2*%
%TO.N,GND*%
X21851992Y-43248008D03*
%TD*%
D14*
%TO.P,D59,1,K*%
%TO.N,/ROW3*%
X283056250Y-72775000D03*
%TO.P,D59,2,A*%
%TO.N,Net-(D59-A)*%
X283056250Y-69475000D03*
%TD*%
%TO.P,D4,1,K*%
%TO.N,/ROW0*%
X80650000Y-15625000D03*
%TO.P,D4,2,A*%
%TO.N,Net-(D4-A)*%
X80650000Y-12325000D03*
%TD*%
D27*
%TO.P,C3,1*%
%TO.N,+3V3*%
X29951992Y-50698008D03*
%TO.P,C3,2*%
%TO.N,GND*%
X31048008Y-49601992D03*
%TD*%
D18*
%TO.P,R13,1*%
%TO.N,+3V3*%
X321800000Y-5750000D03*
%TO.P,R13,2*%
%TO.N,/Matrix/A*%
X321800000Y-7400000D03*
%TD*%
D31*
%TO.P,SW75,1,1*%
%TO.N,Net-(R10-Pad1)*%
X24150000Y-23000000D03*
X20000000Y-23000000D03*
%TO.P,SW75,2,2*%
%TO.N,+3V3*%
X24150000Y-25150000D03*
X20000000Y-25150000D03*
%TD*%
D14*
%TO.P,D8,1,K*%
%TO.N,/ROW0*%
X156850000Y-15625000D03*
%TO.P,D8,2,A*%
%TO.N,Net-(D8-A)*%
X156850000Y-12325000D03*
%TD*%
%TO.P,D44,1,K*%
%TO.N,/ROW2*%
X266387500Y-53725000D03*
%TO.P,D44,2,A*%
%TO.N,Net-(D44-A)*%
X266387500Y-50425000D03*
%TD*%
%TO.P,D52,1,K*%
%TO.N,/ROW3*%
X142562500Y-72775000D03*
%TO.P,D52,2,A*%
%TO.N,Net-(D52-A)*%
X142562500Y-69475000D03*
%TD*%
%TO.P,D12,1,K*%
%TO.N,/ROW0*%
X233050000Y-15625000D03*
%TO.P,D12,2,A*%
%TO.N,Net-(D12-A)*%
X233050000Y-12325000D03*
%TD*%
D32*
%TO.P,C11,1*%
%TO.N,/XIN*%
X19696178Y-37053822D03*
%TO.P,C11,2*%
%TO.N,GND*%
X20375000Y-36375000D03*
%TD*%
D14*
%TO.P,D6,1,K*%
%TO.N,/ROW0*%
X118750000Y-15625000D03*
%TO.P,D6,2,A*%
%TO.N,Net-(D6-A)*%
X118750000Y-12325000D03*
%TD*%
D33*
%TO.P,C9,1*%
%TO.N,+5V*%
X30912500Y-61662500D03*
%TO.P,C9,2*%
%TO.N,GND*%
X32462500Y-61662500D03*
%TD*%
D34*
%TO.P,C12,1*%
%TO.N,/XOUT*%
X24035589Y-38714411D03*
%TO.P,C12,2*%
%TO.N,GND*%
X23356767Y-39393233D03*
%TD*%
D14*
%TO.P,D66,1,K*%
%TO.N,/ROW4*%
X125893750Y-91825000D03*
%TO.P,D66,2,A*%
%TO.N,Net-(D66-A)*%
X125893750Y-88525000D03*
%TD*%
D26*
%TO.P,R15,1*%
%TO.N,/Matrix/A*%
X320200000Y-7400000D03*
%TO.P,R15,2*%
%TO.N,/EC11A*%
X320200000Y-5750000D03*
%TD*%
D18*
%TO.P,R3,1*%
%TO.N,/SWITCH*%
X329400000Y-11350000D03*
%TO.P,R3,2*%
%TO.N,/Matrix/S1*%
X329400000Y-13000000D03*
%TD*%
D24*
%TO.P,R4,1*%
%TO.N,Net-(R4-Pad1)*%
X19700000Y-31100000D03*
%TO.P,R4,2*%
%TO.N,/nRST*%
X21350000Y-31100000D03*
%TD*%
D14*
%TO.P,D13,1,K*%
%TO.N,/ROW0*%
X252100000Y-15625000D03*
%TO.P,D13,2,A*%
%TO.N,Net-(D13-A)*%
X252100000Y-12325000D03*
%TD*%
%TO.P,D42,1,K*%
%TO.N,/ROW2*%
X228287500Y-53725000D03*
%TO.P,D42,2,A*%
%TO.N,Net-(D42-A)*%
X228287500Y-50425000D03*
%TD*%
%TO.P,D27,1,K*%
%TO.N,/ROW1*%
X242575000Y-34675000D03*
%TO.P,D27,2,A*%
%TO.N,Net-(D27-A)*%
X242575000Y-31375000D03*
%TD*%
%TO.P,D61,1,K*%
%TO.N,/ROW3*%
X337825000Y-72775000D03*
%TO.P,D61,2,A*%
%TO.N,Net-(D61-A)*%
X337825000Y-69475000D03*
%TD*%
%TO.P,D63,1,K*%
%TO.N,/ROW4*%
X44931250Y-91825000D03*
%TO.P,D63,2,A*%
%TO.N,Net-(D63-A)*%
X44931250Y-88525000D03*
%TD*%
D24*
%TO.P,R1,1*%
%TO.N,Net-(D74-K)*%
X22800000Y-33244010D03*
%TO.P,R1,2*%
%TO.N,GND*%
X24450000Y-33244010D03*
%TD*%
D14*
%TO.P,D57,1,K*%
%TO.N,/ROW3*%
X237812500Y-72775000D03*
%TO.P,D57,2,A*%
%TO.N,Net-(D57-A)*%
X237812500Y-69475000D03*
%TD*%
D35*
%TO.P,R10,1*%
%TO.N,Net-(R10-Pad1)*%
X24450000Y-21250000D03*
%TO.P,R10,2*%
%TO.N,/BOOT0*%
X22800000Y-21250000D03*
%TD*%
D23*
%TO.P,C10,1*%
%TO.N,Net-(U2-VCAP_1)*%
X34903984Y-41651992D03*
%TO.P,C10,2*%
%TO.N,GND*%
X36000000Y-42748008D03*
%TD*%
D24*
%TO.P,R2,1*%
%TO.N,Net-(D75-K)*%
X22800000Y-34850000D03*
%TO.P,R2,2*%
%TO.N,GND*%
X24450000Y-34850000D03*
%TD*%
D31*
%TO.P,SW74,1,1*%
%TO.N,GND*%
X24150000Y-27200000D03*
X20000000Y-27200000D03*
%TO.P,SW74,2,2*%
%TO.N,Net-(R4-Pad1)*%
X24150000Y-29350000D03*
X20000000Y-29350000D03*
%TD*%
D18*
%TO.P,R8,1*%
%TO.N,/USART2_RX_DEBUG*%
X28935000Y-70450000D03*
%TO.P,R8,2*%
%TO.N,Net-(J1-Pin_5)*%
X28935000Y-72100000D03*
%TD*%
%TO.P,R16,1*%
%TO.N,/Matrix/B*%
X320200000Y-9550001D03*
%TO.P,R16,2*%
%TO.N,/EC11B*%
X320200000Y-11200001D03*
%TD*%
D14*
%TO.P,D72,1,K*%
%TO.N,/ROW4*%
X314012500Y-96587500D03*
%TO.P,D72,2,A*%
%TO.N,Net-(D72-A)*%
X314012500Y-93287500D03*
%TD*%
%TO.P,D17,1,K*%
%TO.N,/ROW1*%
X47312500Y-34675000D03*
%TO.P,D17,2,A*%
%TO.N,Net-(D17-A)*%
X47312500Y-31375000D03*
%TD*%
D33*
%TO.P,C13,1*%
%TO.N,/nRST*%
X22900000Y-31100000D03*
%TO.P,C13,2*%
%TO.N,GND*%
X24450000Y-31100000D03*
%TD*%
D25*
%TO.P,D74,1,K*%
%TO.N,Net-(D74-K)*%
X21365000Y-33385000D03*
%TO.P,D74,2,A*%
%TO.N,+3V3*%
X20395000Y-33385000D03*
%TD*%
D14*
%TO.P,D51,1,K*%
%TO.N,/ROW3*%
X123512500Y-72775000D03*
%TO.P,D51,2,A*%
%TO.N,Net-(D51-A)*%
X123512500Y-69475000D03*
%TD*%
%TO.P,D47,1,K*%
%TO.N,/ROW3*%
X13975000Y-72775000D03*
%TO.P,D47,2,A*%
%TO.N,Net-(D47-A)*%
X13975000Y-69475000D03*
%TD*%
D22*
%TO.P,C8,1*%
%TO.N,+3V3*%
X34375000Y-57925000D03*
%TO.P,C8,2*%
%TO.N,GND*%
X34375000Y-59475000D03*
%TD*%
D14*
%TO.P,D76,1,K*%
%TO.N,/ROW0*%
X336800000Y-16250000D03*
%TO.P,D76,2,A*%
%TO.N,/Matrix/SW77*%
X336800000Y-12950000D03*
%TD*%
%TO.P,D11,1,K*%
%TO.N,/ROW0*%
X214000000Y-15625000D03*
%TO.P,D11,2,A*%
%TO.N,Net-(D11-A)*%
X214000000Y-12325000D03*
%TD*%
%TO.P,D25,1,K*%
%TO.N,/ROW1*%
X204475000Y-34675000D03*
%TO.P,D25,2,A*%
%TO.N,Net-(D25-A)*%
X204475000Y-31375000D03*
%TD*%
%TO.P,D2,1,K*%
%TO.N,/ROW0*%
X42550000Y-15625000D03*
%TO.P,D2,2,A*%
%TO.N,Net-(D2-A)*%
X42550000Y-12325000D03*
%TD*%
D26*
%TO.P,R12,1*%
%TO.N,+3V3*%
X321800000Y-11200000D03*
%TO.P,R12,2*%
%TO.N,/Matrix/B*%
X321800000Y-9550000D03*
%TD*%
D36*
%TO.P,U2,1,VBAT*%
%TO.N,+3V3*%
X25259828Y-43388864D03*
%TO.P,U2,2,PC13*%
%TO.N,/LED*%
X25613381Y-43035311D03*
%TO.P,U2,3,PC14*%
%TO.N,unconnected-(U2-PC14-Pad3)*%
X25966935Y-42681757D03*
%TO.P,U2,4,PC15*%
%TO.N,unconnected-(U2-PC15-Pad4)*%
X26320488Y-42328204D03*
%TO.P,U2,5,PH0*%
%TO.N,/XIN*%
X26674041Y-41974651D03*
%TO.P,U2,6,PH1*%
%TO.N,/XOUT*%
X27027595Y-41621097D03*
%TO.P,U2,7,NRST*%
%TO.N,/nRST*%
X27381148Y-41267544D03*
%TO.P,U2,8,VSSA*%
%TO.N,GND*%
X27734702Y-40913990D03*
%TO.P,U2,9,VDDA*%
%TO.N,+3V3*%
X28088255Y-40560437D03*
%TO.P,U2,10,PA0*%
%TO.N,unconnected-(U2-PA0-Pad10)*%
X28441808Y-40206884D03*
%TO.P,U2,11,PA1*%
%TO.N,/SWITCH*%
X28795362Y-39853330D03*
%TO.P,U2,12,PA2*%
%TO.N,/USART2_TX_DEBUG*%
X29148915Y-39499777D03*
D37*
%TO.P,U2,13,PA3*%
%TO.N,/USART2_RX_DEBUG*%
X30121187Y-39499777D03*
%TO.P,U2,14,PA4*%
%TO.N,/COL15*%
X30474740Y-39853330D03*
%TO.P,U2,15,PA5*%
%TO.N,/COL1*%
X30828294Y-40206884D03*
%TO.P,U2,16,PA6*%
%TO.N,/COL2*%
X31181847Y-40560437D03*
%TO.P,U2,17,PA7*%
%TO.N,/COL3*%
X31535400Y-40913990D03*
%TO.P,U2,18,PB0*%
%TO.N,/COL4*%
X31888954Y-41267544D03*
%TO.P,U2,19,PB1*%
%TO.N,/COL5*%
X32242507Y-41621097D03*
%TO.P,U2,20,PB2*%
%TO.N,/COL6*%
X32596061Y-41974651D03*
%TO.P,U2,21,PB10*%
%TO.N,/COL7*%
X32949614Y-42328204D03*
%TO.P,U2,22,VCAP_1*%
%TO.N,Net-(U2-VCAP_1)*%
X33303167Y-42681757D03*
%TO.P,U2,23,VSS*%
%TO.N,GND*%
X33656721Y-43035311D03*
%TO.P,U2,24,VDD*%
%TO.N,+3V3*%
X34010274Y-43388864D03*
D36*
%TO.P,U2,25,PB12*%
%TO.N,/COL8*%
X34010274Y-44361136D03*
%TO.P,U2,26,PB13*%
%TO.N,/COL9*%
X33656721Y-44714689D03*
%TO.P,U2,27,PB14*%
%TO.N,/COL10*%
X33303167Y-45068243D03*
%TO.P,U2,28,PB15*%
%TO.N,/COL11*%
X32949614Y-45421796D03*
%TO.P,U2,29,PA8*%
%TO.N,/COL12*%
X32596061Y-45775349D03*
%TO.P,U2,30,PA9*%
%TO.N,/COL13*%
X32242507Y-46128903D03*
%TO.P,U2,31,PA10*%
%TO.N,/COL14*%
X31888954Y-46482456D03*
%TO.P,U2,32,PA11*%
%TO.N,/USB_DN*%
X31535400Y-46836010D03*
%TO.P,U2,33,PA12*%
%TO.N,/USB_DP*%
X31181847Y-47189563D03*
%TO.P,U2,34,PA13*%
%TO.N,/SWDIO*%
X30828294Y-47543116D03*
%TO.P,U2,35,VSS*%
%TO.N,GND*%
X30474740Y-47896670D03*
%TO.P,U2,36,VDD*%
%TO.N,+3V3*%
X30121187Y-48250223D03*
D37*
%TO.P,U2,37,PA14*%
%TO.N,/SWCLK*%
X29148915Y-48250223D03*
%TO.P,U2,38,PA15*%
%TO.N,/COL0*%
X28795362Y-47896670D03*
%TO.P,U2,39,PB3*%
%TO.N,/ROW4*%
X28441808Y-47543116D03*
%TO.P,U2,40,PB4*%
%TO.N,/ROW3*%
X28088255Y-47189563D03*
%TO.P,U2,41,PB5*%
%TO.N,/ROW2*%
X27734702Y-46836010D03*
%TO.P,U2,42,PB6*%
%TO.N,/ROW1*%
X27381148Y-46482456D03*
%TO.P,U2,43,PB7*%
%TO.N,/ROW0*%
X27027595Y-46128903D03*
%TO.P,U2,44,BOOT0*%
%TO.N,/BOOT0*%
X26674041Y-45775349D03*
%TO.P,U2,45,PB8*%
%TO.N,/EC11A*%
X26320488Y-45421796D03*
%TO.P,U2,46,PB9*%
%TO.N,/EC11B*%
X25966935Y-45068243D03*
%TO.P,U2,47,VSS*%
%TO.N,GND*%
X25613381Y-44714689D03*
%TO.P,U2,48,VDD*%
%TO.N,+3V3*%
X25259828Y-44361136D03*
D38*
%TO.P,U2,49,VSS*%
%TO.N,GND*%
X29635051Y-43875000D03*
%TD*%
D14*
%TO.P,D20,1,K*%
%TO.N,/ROW1*%
X109225000Y-34675000D03*
%TO.P,D20,2,A*%
%TO.N,Net-(D20-A)*%
X109225000Y-31375000D03*
%TD*%
%TO.P,D16,1,K*%
%TO.N,/ROW1*%
X13975000Y-34675000D03*
%TO.P,D16,2,A*%
%TO.N,Net-(D16-A)*%
X13975000Y-31375000D03*
%TD*%
%TO.P,D36,1,K*%
%TO.N,/ROW2*%
X113987500Y-53725000D03*
%TO.P,D36,2,A*%
%TO.N,Net-(D36-A)*%
X113987500Y-50425000D03*
%TD*%
D39*
%TO.P,U1,1,IN*%
%TO.N,+5V*%
X32625000Y-59837500D03*
%TO.P,U1,2,GND*%
%TO.N,GND*%
X31675000Y-59837500D03*
%TO.P,U1,3,EN*%
%TO.N,+5V*%
X30725000Y-59837500D03*
%TO.P,U1,4,NC*%
%TO.N,unconnected-(U1-NC-Pad4)*%
X30725000Y-57562500D03*
%TO.P,U1,5,OUT*%
%TO.N,+3V3*%
X32625000Y-57562500D03*
%TD*%
D40*
%TO.P,C15,1*%
%TO.N,/EC11B*%
X318600000Y-11150001D03*
%TO.P,C15,2*%
%TO.N,GND*%
X318600000Y-9600001D03*
%TD*%
D14*
%TO.P,D77,1,K*%
%TO.N,/ROW1*%
X309250000Y-15625000D03*
%TO.P,D77,2,A*%
%TO.N,Net-(D77-A)*%
X309250000Y-12325000D03*
%TD*%
D41*
%TO.N,GND*%
X23750000Y-39800000D03*
X25675000Y-57025000D03*
X20000000Y-26550000D03*
X34375000Y-60225000D03*
X29700000Y-51850000D03*
X23250000Y-45500000D03*
X24450000Y-30300000D03*
X20925000Y-54675000D03*
X27200000Y-35800000D03*
X26650000Y-24900000D03*
X33225000Y-61675000D03*
X37700000Y-43300000D03*
X25500000Y-37500000D03*
X25150000Y-34850000D03*
X36600000Y-42200000D03*
X19950000Y-35950000D03*
X26150000Y-54000000D03*
X327000000Y-12950000D03*
X317800000Y-9600000D03*
X317800000Y-7350000D03*
X19750000Y-20450000D03*
X31600000Y-50150000D03*
X25150000Y-33250000D03*
X21300000Y-42700000D03*
%TO.N,+3V3*%
X321775000Y-13650000D03*
X24175000Y-25775000D03*
X321800000Y-5050000D03*
X26650000Y-27450000D03*
X22500000Y-44950000D03*
X27200000Y-51300000D03*
X32050000Y-57550000D03*
X30800000Y-50700000D03*
X28323008Y-36873008D03*
X36600000Y-45500000D03*
X321800000Y-11900000D03*
X29375000Y-27450000D03*
X29375000Y-35725000D03*
X22350000Y-41600000D03*
X20400000Y-32750000D03*
%TO.N,/ROW0*%
X336800000Y-17000000D03*
X301000000Y-15600000D03*
%TO.N,/ROW1*%
X309250000Y-16550000D03*
X309250000Y-34675000D03*
X21275000Y-48375000D03*
X32575000Y-34675000D03*
%TO.N,/ROW2*%
X40200000Y-49650000D03*
X304500000Y-33900000D03*
X25592915Y-48958703D03*
X308400000Y-53725000D03*
%TO.N,/ROW4*%
X16475000Y-77475000D03*
X16475000Y-80075000D03*
%TO.N,/BOOT0*%
X21300000Y-22050000D03*
X16475000Y-41875000D03*
%TO.N,/SWDIO*%
X21315000Y-65115000D03*
X21325000Y-63675000D03*
%TO.N,/USART2_TX_DEBUG*%
X34075000Y-52500000D03*
X34075000Y-49450000D03*
X26395000Y-69750000D03*
X29361500Y-38575000D03*
%TO.N,/USART2_RX_DEBUG*%
X34675000Y-50000000D03*
X29875000Y-37975000D03*
X28950000Y-69750000D03*
X34679647Y-52852711D03*
%TO.N,/COL0*%
X21475000Y-50488500D03*
%TO.N,/COL2*%
X62315000Y-36575000D03*
%TO.N,/COL3*%
X81365000Y-37075000D03*
%TO.N,/COL4*%
X100415000Y-37575000D03*
%TO.N,/COL5*%
X119465000Y-38075000D03*
%TO.N,/COL6*%
X138515000Y-38575000D03*
%TO.N,/COL7*%
X157565000Y-39075000D03*
%TO.N,/COL8*%
X182183750Y-54866250D03*
%TO.N,/COL9*%
X201558750Y-55191250D03*
%TO.N,/COL10*%
X221083750Y-55666250D03*
%TO.N,/COL11*%
X240608750Y-56141250D03*
%TO.N,/COL12*%
X257577500Y-56675000D03*
%TO.N,/COL1*%
X38502500Y-36261500D03*
%TO.N,/COL13*%
X274246250Y-57200000D03*
%TO.N,/COL14*%
X307600000Y-57641250D03*
%TO.N,/COL15*%
X329015000Y-35575000D03*
%TO.N,/Matrix/S1*%
X330400000Y-13000000D03*
%TD*%
D42*
%TO.N,/EC11B*%
X19575000Y-17375000D02*
X277625000Y-17375000D01*
X319400001Y-11200001D02*
X319350001Y-11150001D01*
X16975000Y-40575000D02*
X16975000Y-19975000D01*
X318600000Y-11150001D02*
X319350001Y-11150001D01*
X277625000Y-17375000D02*
X280625000Y-20375000D01*
X308375000Y-20375000D02*
X317599999Y-11150001D01*
X23000000Y-46600000D02*
X16975000Y-40575000D01*
X317599999Y-11150001D02*
X318600000Y-11150001D01*
X280625000Y-20375000D02*
X308375000Y-20375000D01*
X16975000Y-19975000D02*
X19575000Y-17375000D01*
X25966935Y-45068243D02*
X24435178Y-46600000D01*
X320200000Y-11200001D02*
X319400001Y-11200001D01*
X24435178Y-46600000D02*
X23000000Y-46600000D01*
D43*
%TO.N,GND*%
X23356767Y-39406767D02*
X23750000Y-39800000D01*
X20375000Y-36375000D02*
X21358168Y-36375000D01*
X20925000Y-53975000D02*
X20925000Y-54675000D01*
X21848008Y-43248008D02*
X21300000Y-42700000D01*
D42*
X36051992Y-42748008D02*
X36600000Y-42200000D01*
D43*
X25144010Y-33244010D02*
X25150000Y-33250000D01*
X25613381Y-44714689D02*
X26453070Y-43875000D01*
X317800001Y-9600001D02*
X317800000Y-9600000D01*
X26651992Y-36348008D02*
X27200000Y-35800000D01*
X21358168Y-36375000D02*
X21987492Y-37004324D01*
D42*
X33656721Y-43035311D02*
X34092032Y-42600000D01*
X35548008Y-43200000D02*
X36000000Y-42748008D01*
D43*
X24450000Y-33244010D02*
X25144010Y-33244010D01*
X20375000Y-36375000D02*
X19950000Y-35950000D01*
X26920712Y-40100000D02*
X26600000Y-40100000D01*
X25675000Y-57750000D02*
X25675000Y-57025000D01*
X30474740Y-47896670D02*
X31048008Y-48469938D01*
X32462500Y-61662500D02*
X31675000Y-60875000D01*
X22396503Y-39393233D02*
X23356767Y-39393233D01*
X19750000Y-21250000D02*
X19750000Y-20450000D01*
X24450000Y-34850000D02*
X25150000Y-34850000D01*
X26600000Y-40100000D02*
X25400000Y-38900000D01*
X33212500Y-61662500D02*
X33225000Y-61675000D01*
X25850000Y-24900000D02*
X26650000Y-24900000D01*
D42*
X35200000Y-43200000D02*
X35548008Y-43200000D01*
D43*
X34375000Y-59475000D02*
X34375000Y-60225000D01*
X31048008Y-48469938D02*
X31048008Y-49601992D01*
D42*
X33656721Y-43035311D02*
X32817032Y-43875000D01*
D43*
X24150000Y-27200000D02*
X20000000Y-27200000D01*
X327800000Y-12950000D02*
X327000000Y-12950000D01*
X25407968Y-38600000D02*
X26003984Y-38003984D01*
X21775360Y-38772090D02*
X22396503Y-39393233D01*
X24146016Y-45496016D02*
X24832054Y-45496016D01*
X31051992Y-49601992D02*
X31600000Y-50150000D01*
X25400000Y-38600000D02*
X25407968Y-38600000D01*
X28848008Y-51848008D02*
X29698008Y-51848008D01*
X24146016Y-45496016D02*
X23253984Y-45496016D01*
X27734702Y-40913990D02*
X26920712Y-40100000D01*
X25400000Y-38900000D02*
X25400000Y-38600000D01*
X32462500Y-61662500D02*
X33212500Y-61662500D01*
X26003984Y-38003984D02*
X25500000Y-37500000D01*
X318600000Y-9600001D02*
X317800001Y-9600001D01*
X23253984Y-45496016D02*
X23250000Y-45500000D01*
X37148008Y-43851992D02*
X37700000Y-43300000D01*
X24832054Y-45496016D02*
X25613381Y-44714689D01*
X26175000Y-53975000D02*
X26150000Y-54000000D01*
D42*
X34600000Y-42600000D02*
X35200000Y-43200000D01*
D43*
X20000000Y-27200000D02*
X20000000Y-26550000D01*
X318600000Y-7350000D02*
X317800000Y-7350000D01*
X29698008Y-51848008D02*
X29700000Y-51850000D01*
X24450000Y-31100000D02*
X24450000Y-30300000D01*
D42*
X34092032Y-42600000D02*
X34600000Y-42600000D01*
D43*
X26825000Y-53975000D02*
X26175000Y-53975000D01*
X31675000Y-60875000D02*
X31675000Y-59837500D01*
D42*
%TO.N,/EC11A*%
X16475000Y-40975000D02*
X16475000Y-19675000D01*
X320200000Y-5750000D02*
X319400000Y-5750000D01*
X24742284Y-47000000D02*
X22500000Y-47000000D01*
X16475000Y-19675000D02*
X19275000Y-16875000D01*
X26320488Y-45421796D02*
X24742284Y-47000000D01*
X316350000Y-11650000D02*
X316350000Y-6700000D01*
X317250000Y-5800000D02*
X318600000Y-5800000D01*
X319350000Y-5800000D02*
X319400000Y-5750000D01*
X19275000Y-16875000D02*
X277875000Y-16875000D01*
X308125000Y-19875000D02*
X316350000Y-11650000D01*
X318600000Y-5800000D02*
X319350000Y-5800000D01*
X280875000Y-19875000D02*
X308125000Y-19875000D01*
X22500000Y-47000000D02*
X16475000Y-40975000D01*
X316350000Y-6700000D02*
X317250000Y-5800000D01*
X277875000Y-16875000D02*
X280875000Y-19875000D01*
D43*
%TO.N,+3V3*%
X24598692Y-43700000D02*
X23750000Y-43700000D01*
X303775000Y-21975000D02*
X308800000Y-21975000D01*
X279875000Y-21975000D02*
X300225000Y-21975000D01*
X303100000Y-21300000D02*
X303775000Y-21975000D01*
X31375000Y-18975000D02*
X276875000Y-18975000D01*
X34421410Y-43800000D02*
X34903984Y-43800000D01*
X300900000Y-21300000D02*
X303100000Y-21300000D01*
X25850000Y-27450000D02*
X26650000Y-27450000D01*
X23496016Y-42700000D02*
X22948008Y-42151992D01*
X36051992Y-44951992D02*
X36600000Y-45500000D01*
X20395000Y-32755000D02*
X20400000Y-32750000D01*
X34903984Y-43800000D02*
X36051992Y-44948008D01*
X24150000Y-25150000D02*
X20000000Y-25150000D01*
X321800000Y-5750000D02*
X321800000Y-5050000D01*
X20395000Y-33385000D02*
X20395000Y-32755000D01*
X33212500Y-57562500D02*
X33575000Y-57925000D01*
X308800000Y-21975000D02*
X317125000Y-13650000D01*
X33575000Y-57925000D02*
X34375000Y-57925000D01*
X32625000Y-57562500D02*
X32062500Y-57562500D01*
X24570964Y-42700000D02*
X23496016Y-42700000D01*
X321800000Y-11200000D02*
X321800000Y-11900000D01*
X325050000Y-13650000D02*
X321775000Y-13650000D01*
X27748008Y-37448008D02*
X27100000Y-38096016D01*
X22901992Y-42151992D02*
X22350000Y-41600000D01*
X32625000Y-57562500D02*
X33212500Y-57562500D01*
X27200000Y-51300000D02*
X27748008Y-50751992D01*
X28323008Y-36873008D02*
X27748008Y-37448008D01*
X327750000Y-14525000D02*
X325925000Y-14525000D01*
X28088255Y-40560437D02*
X27500000Y-39972182D01*
X321775000Y-13650000D02*
X317125000Y-13650000D01*
X27100000Y-38096016D02*
X27100000Y-39100000D01*
X34010274Y-43388864D02*
X34421410Y-43800000D01*
X300225000Y-21975000D02*
X300900000Y-21300000D01*
X24150000Y-25750000D02*
X24175000Y-25775000D01*
X27500000Y-39500000D02*
X27100000Y-39100000D01*
X30800000Y-50700000D02*
X29953984Y-50700000D01*
X29375000Y-35725000D02*
X29375000Y-27450000D01*
X23750000Y-43700000D02*
X23050000Y-44400000D01*
X24150000Y-25150000D02*
X24150000Y-25750000D01*
X29300000Y-50046016D02*
X29951992Y-50698008D01*
X27500000Y-39972182D02*
X27500000Y-39500000D01*
X29300000Y-49071410D02*
X29300000Y-50046016D01*
X25259828Y-43388864D02*
X24570964Y-42700000D01*
X32062500Y-57562500D02*
X32050000Y-57550000D01*
X29375000Y-27450000D02*
X29375000Y-20975000D01*
X25259828Y-44361136D02*
X24598692Y-43700000D01*
X276875000Y-18975000D02*
X279875000Y-21975000D01*
X325925000Y-14525000D02*
X325050000Y-13650000D01*
X29375000Y-20975000D02*
X31375000Y-18975000D01*
X30121187Y-48250223D02*
X29300000Y-49071410D01*
X23050000Y-44400000D02*
X22500000Y-44950000D01*
D42*
%TO.N,/nRST*%
X26788604Y-40675000D02*
X26350000Y-40675000D01*
X25800000Y-32750000D02*
X25200000Y-32150000D01*
X24850000Y-36350000D02*
X25800000Y-35400000D01*
X23150000Y-32150000D02*
X22900000Y-31900000D01*
X27381148Y-41267544D02*
X26788604Y-40675000D01*
X22900000Y-31100000D02*
X21350000Y-31100000D01*
X22900000Y-31900000D02*
X22900000Y-31100000D01*
X25200000Y-32150000D02*
X23150000Y-32150000D01*
X24850000Y-39175000D02*
X24850000Y-36350000D01*
X25800000Y-35400000D02*
X25800000Y-32750000D01*
X26350000Y-40675000D02*
X24850000Y-39175000D01*
%TO.N,/XIN*%
X25600000Y-41500000D02*
X26200000Y-41500000D01*
X24550000Y-40450000D02*
X25600000Y-41500000D01*
X21450000Y-40450000D02*
X24550000Y-40450000D01*
X20375000Y-38616816D02*
X20375000Y-39375000D01*
X20375000Y-39375000D02*
X21450000Y-40450000D01*
X20578270Y-37575000D02*
X20997543Y-37994273D01*
X19696178Y-37053822D02*
X20217356Y-37575000D01*
X20217356Y-37575000D02*
X20578270Y-37575000D01*
X26200000Y-41500000D02*
X26674041Y-41974041D01*
X20997543Y-37994273D02*
X20375000Y-38616816D01*
%TO.N,/XOUT*%
X23358168Y-38375000D02*
X22765309Y-37782141D01*
X25975000Y-41075000D02*
X24500000Y-39600000D01*
X24500000Y-39178822D02*
X24035589Y-38714411D01*
X24035589Y-38714411D02*
X23696178Y-38375000D01*
X23696178Y-38375000D02*
X23358168Y-38375000D01*
X26481498Y-41075000D02*
X25975000Y-41075000D01*
X27027595Y-41621097D02*
X26481498Y-41075000D01*
X24500000Y-39600000D02*
X24500000Y-39178822D01*
D43*
%TO.N,+5V*%
X30912500Y-61662500D02*
X29637500Y-61662500D01*
X30725000Y-60775000D02*
X30912500Y-60962500D01*
X27900000Y-63400000D02*
X23700000Y-63400000D01*
X30725000Y-59837500D02*
X30725000Y-60775000D01*
X22075000Y-61775000D02*
X22075000Y-57750000D01*
X32625000Y-59075000D02*
X32625000Y-59837500D01*
X29637500Y-61662500D02*
X27900000Y-63400000D01*
X23700000Y-63400000D02*
X22075000Y-61775000D01*
X30725000Y-59837500D02*
X30725000Y-59075000D01*
X30912500Y-60962500D02*
X30912500Y-61662500D01*
X30725000Y-59075000D02*
X31075000Y-58725000D01*
X32275000Y-58725000D02*
X32625000Y-59075000D01*
X31075000Y-58725000D02*
X32275000Y-58725000D01*
D42*
%TO.N,/ROW0*%
X336800000Y-16250000D02*
X336800000Y-17000000D01*
X13975000Y-17775000D02*
X13975000Y-15625000D01*
X300975000Y-15625000D02*
X299725000Y-15625000D01*
X27027595Y-46128903D02*
X25281498Y-47875000D01*
X21475000Y-47875000D02*
X15875000Y-42275000D01*
X301000000Y-15600000D02*
X300975000Y-15625000D01*
D44*
X13975000Y-15625000D02*
X299725000Y-15625000D01*
D42*
X15875000Y-42275000D02*
X15875000Y-19675000D01*
X15875000Y-19675000D02*
X13975000Y-17775000D01*
X25281498Y-47875000D02*
X21475000Y-47875000D01*
%TO.N,/ROW1*%
X25488604Y-48375000D02*
X21275000Y-48375000D01*
X309250000Y-15625000D02*
X309250000Y-16550000D01*
D44*
X307450000Y-34675000D02*
X309250000Y-34675000D01*
X303100000Y-36000000D02*
X306125000Y-36000000D01*
X301775000Y-34675000D02*
X303100000Y-36000000D01*
D42*
X15275000Y-37575000D02*
X13975000Y-36275000D01*
X15275000Y-42375000D02*
X15275000Y-37575000D01*
X25488604Y-48375000D02*
X27381148Y-46482456D01*
D44*
X306125000Y-36000000D02*
X307450000Y-34675000D01*
D42*
X21275000Y-48375000D02*
X15275000Y-42375000D01*
D44*
X309250000Y-34675000D02*
X337825000Y-34675000D01*
D42*
X13975000Y-36275000D02*
X13975000Y-34675000D01*
D44*
X32575000Y-34675000D02*
X301775000Y-34675000D01*
%TO.N,/ROW2*%
X308400000Y-53725000D02*
X306875000Y-53725000D01*
D42*
X20575000Y-48975000D02*
X15825000Y-53725000D01*
D44*
X306875000Y-53725000D02*
X305425000Y-52275000D01*
X283075000Y-53725000D02*
X281825000Y-52475000D01*
D42*
X304487500Y-34675000D02*
X304487500Y-33912500D01*
D44*
X277825000Y-53725000D02*
X49693750Y-53725000D01*
X281825000Y-52475000D02*
X279075000Y-52475000D01*
X49693750Y-53725000D02*
X44275000Y-53725000D01*
D42*
X25595712Y-48975000D02*
X20575000Y-48975000D01*
D44*
X301425000Y-53725000D02*
X283075000Y-53725000D01*
X279075000Y-52475000D02*
X277825000Y-53725000D01*
D42*
X25612009Y-48958703D02*
X25592915Y-48958703D01*
X27734702Y-46836010D02*
X25735356Y-48835356D01*
X25735356Y-48835356D02*
X25595712Y-48975000D01*
D44*
X305425000Y-52275000D02*
X302875000Y-52275000D01*
D42*
X304487500Y-33912500D02*
X304500000Y-33900000D01*
D44*
X302875000Y-52275000D02*
X301425000Y-53725000D01*
D42*
X15825000Y-53725000D02*
X13975000Y-53725000D01*
D44*
X337825000Y-53725000D02*
X308400000Y-53725000D01*
D42*
X25735356Y-48835356D02*
X25612009Y-48958703D01*
D44*
X44275000Y-53725000D02*
X40200000Y-49650000D01*
%TO.N,/ROW3*%
X59875000Y-71275000D02*
X62875000Y-71275000D01*
D42*
X15475000Y-78675000D02*
X33075000Y-78675000D01*
D44*
X318212500Y-77537500D02*
X322975000Y-72775000D01*
X62875000Y-71275000D02*
X64375000Y-72775000D01*
X322975000Y-72775000D02*
X337825000Y-72775000D01*
X34675000Y-72775000D02*
X36175000Y-71275000D01*
D42*
X13975000Y-71875000D02*
X13975000Y-72775000D01*
D44*
X300775000Y-72775000D02*
X305537500Y-77537500D01*
X305537500Y-77537500D02*
X318212500Y-77537500D01*
D42*
X13975000Y-77175000D02*
X15475000Y-78675000D01*
X15875000Y-69975000D02*
X13975000Y-71875000D01*
X28088255Y-47189563D02*
X25802818Y-49475000D01*
D44*
X40375000Y-72775000D02*
X58375000Y-72775000D01*
D42*
X15875000Y-54375000D02*
X15875000Y-69975000D01*
X13975000Y-72775000D02*
X13975000Y-77175000D01*
X25802818Y-49475000D02*
X20775000Y-49475000D01*
X34675000Y-77075000D02*
X34675000Y-72775000D01*
D44*
X36175000Y-71275000D02*
X38875000Y-71275000D01*
X38875000Y-71275000D02*
X40375000Y-72775000D01*
X58375000Y-72775000D02*
X59875000Y-71275000D01*
D42*
X20775000Y-49475000D02*
X15875000Y-54375000D01*
D44*
X64375000Y-72775000D02*
X300775000Y-72775000D01*
D42*
X33075000Y-78675000D02*
X34675000Y-77075000D01*
D44*
%TO.N,Net-(D5-A)*%
X97240000Y-9865000D02*
X99700000Y-12325000D01*
X97240000Y-3895000D02*
X97240000Y-9865000D01*
%TO.N,Net-(D6-A)*%
X116290000Y-3895000D02*
X116290000Y-9865000D01*
X116290000Y-9865000D02*
X118750000Y-12325000D01*
%TO.N,Net-(D7-A)*%
X135340000Y-9865000D02*
X137800000Y-12325000D01*
X135340000Y-3895000D02*
X135340000Y-9865000D01*
%TO.N,Net-(D8-A)*%
X154390000Y-9865000D02*
X156850000Y-12325000D01*
X154390000Y-3895000D02*
X154390000Y-9865000D01*
%TO.N,Net-(D9-A)*%
X173440000Y-9865000D02*
X175900000Y-12325000D01*
X173440000Y-3895000D02*
X173440000Y-9865000D01*
%TO.N,Net-(D10-A)*%
X192490000Y-9865000D02*
X194950000Y-12325000D01*
X192490000Y-3895000D02*
X192490000Y-9865000D01*
%TO.N,Net-(D11-A)*%
X211540000Y-3895000D02*
X211540000Y-9865000D01*
X211540000Y-9865000D02*
X214000000Y-12325000D01*
%TO.N,Net-(D12-A)*%
X230590000Y-9865000D02*
X233050000Y-12325000D01*
X230590000Y-3895000D02*
X230590000Y-9865000D01*
%TO.N,Net-(D13-A)*%
X249640000Y-9865000D02*
X252100000Y-12325000D01*
X249640000Y-3895000D02*
X249640000Y-9865000D01*
%TO.N,Net-(D14-A)*%
X268690000Y-9865000D02*
X271150000Y-12325000D01*
X268690000Y-3895000D02*
X268690000Y-9865000D01*
%TO.N,Net-(D15-A)*%
X288037500Y-10162500D02*
X290200000Y-12325000D01*
D42*
X287740000Y-3895000D02*
X287740000Y-9865000D01*
X287740000Y-9865000D02*
X288037500Y-10162500D01*
D44*
%TO.N,Net-(D16-A)*%
X11515000Y-28915000D02*
X13975000Y-31375000D01*
X11515000Y-22945000D02*
X11515000Y-28915000D01*
%TO.N,Net-(D17-A)*%
X44852500Y-22945000D02*
X44852500Y-28915000D01*
X44852500Y-28915000D02*
X47312500Y-31375000D01*
%TO.N,Net-(D18-A)*%
X68665000Y-22945000D02*
X68665000Y-28915000D01*
X68665000Y-28915000D02*
X71125000Y-31375000D01*
%TO.N,Net-(D19-A)*%
X87715000Y-28915000D02*
X90175000Y-31375000D01*
X87715000Y-22945000D02*
X87715000Y-28915000D01*
%TO.N,Net-(D20-A)*%
X106765000Y-22945000D02*
X106765000Y-28915000D01*
X106765000Y-28915000D02*
X109225000Y-31375000D01*
%TO.N,Net-(D21-A)*%
X125815000Y-22945000D02*
X125815000Y-28915000D01*
X125815000Y-28915000D02*
X128275000Y-31375000D01*
%TO.N,Net-(D22-A)*%
X144865000Y-28915000D02*
X147325000Y-31375000D01*
X144865000Y-22945000D02*
X144865000Y-28915000D01*
%TO.N,Net-(D23-A)*%
X163915000Y-28915000D02*
X166375000Y-31375000D01*
X163915000Y-22945000D02*
X163915000Y-28915000D01*
%TO.N,Net-(D24-A)*%
X182965000Y-28915000D02*
X185425000Y-31375000D01*
X182965000Y-22945000D02*
X182965000Y-28915000D01*
%TO.N,Net-(D25-A)*%
X202015000Y-22945000D02*
X202015000Y-28915000D01*
X202015000Y-28915000D02*
X204475000Y-31375000D01*
%TO.N,Net-(D26-A)*%
X221065000Y-28915000D02*
X223525000Y-31375000D01*
X221065000Y-22945000D02*
X221065000Y-28915000D01*
%TO.N,Net-(D27-A)*%
X240115000Y-22945000D02*
X240115000Y-28915000D01*
X240115000Y-28915000D02*
X242575000Y-31375000D01*
%TO.N,Net-(D28-A)*%
X259165000Y-28915000D02*
X261625000Y-31375000D01*
X259165000Y-22945000D02*
X259165000Y-28915000D01*
%TO.N,Net-(D29-A)*%
X278215000Y-22945000D02*
X278215000Y-28915000D01*
X278215000Y-28915000D02*
X280675000Y-31375000D01*
%TO.N,Net-(D30-A)*%
X302027500Y-28915000D02*
X304487500Y-31375000D01*
X302027500Y-22945000D02*
X302027500Y-28915000D01*
%TO.N,Net-(D31-A)*%
X335365000Y-22945000D02*
X335365000Y-28915000D01*
X335365000Y-28915000D02*
X337825000Y-31375000D01*
%TO.N,Net-(D32-A)*%
X11515000Y-47965000D02*
X13975000Y-50425000D01*
X11515000Y-41995000D02*
X11515000Y-47965000D01*
%TO.N,Net-(D33-A)*%
X47233750Y-41995000D02*
X47233750Y-47965000D01*
X47233750Y-47965000D02*
X49693750Y-50425000D01*
%TO.N,Net-(D34-A)*%
X73427500Y-47965000D02*
X75887500Y-50425000D01*
X73427500Y-41995000D02*
X73427500Y-47965000D01*
%TO.N,Net-(D35-A)*%
X92477500Y-41995000D02*
X92477500Y-47965000D01*
X92477500Y-47965000D02*
X94937500Y-50425000D01*
%TO.N,Net-(D36-A)*%
X111527500Y-41995000D02*
X111527500Y-47965000D01*
X111527500Y-47965000D02*
X113987500Y-50425000D01*
%TO.N,Net-(D37-A)*%
X130577500Y-47965000D02*
X133037500Y-50425000D01*
X130577500Y-41995000D02*
X130577500Y-47965000D01*
%TO.N,/ROW4*%
X286587500Y-96587500D02*
X294962500Y-96587500D01*
D42*
X26009924Y-49975000D02*
X20975000Y-49975000D01*
D44*
X315112500Y-96587500D02*
X317100000Y-94600000D01*
X106125000Y-91825000D02*
X107475000Y-90475000D01*
X205725000Y-91825000D02*
X207275000Y-90275000D01*
X319800000Y-94600000D02*
X321787500Y-96587500D01*
X107475000Y-90475000D02*
X110525000Y-90475000D01*
D42*
X28441808Y-47543116D02*
X26009924Y-49975000D01*
X16475000Y-87975000D02*
X13975000Y-90475000D01*
D44*
X183475000Y-90275000D02*
X186725000Y-90275000D01*
X186725000Y-90275000D02*
X188275000Y-91825000D01*
X314012500Y-96587500D02*
X315112500Y-96587500D01*
X281825000Y-91825000D02*
X286587500Y-96587500D01*
X181925000Y-91825000D02*
X183475000Y-90275000D01*
X135675000Y-91825000D02*
X181925000Y-91825000D01*
X317100000Y-94600000D02*
X319800000Y-94600000D01*
D42*
X16475000Y-80075000D02*
X16475000Y-87975000D01*
D44*
X294962500Y-96587500D02*
X314012500Y-96587500D01*
X188275000Y-91825000D02*
X205725000Y-91825000D01*
X212075000Y-91825000D02*
X281825000Y-91825000D01*
D42*
X16475000Y-54475000D02*
X16475000Y-77475000D01*
D44*
X134125000Y-90275000D02*
X135675000Y-91825000D01*
D42*
X13975000Y-90475000D02*
X13975000Y-91825000D01*
D44*
X210525000Y-90275000D02*
X212075000Y-91825000D01*
X131275000Y-90275000D02*
X134125000Y-90275000D01*
X129725000Y-91825000D02*
X131275000Y-90275000D01*
X207275000Y-90275000D02*
X210525000Y-90275000D01*
D42*
X20975000Y-49975000D02*
X16475000Y-54475000D01*
D44*
X111875000Y-91825000D02*
X129725000Y-91825000D01*
X321787500Y-96587500D02*
X333062500Y-96587500D01*
X110525000Y-90475000D02*
X111875000Y-91825000D01*
X13975000Y-91825000D02*
X106125000Y-91825000D01*
%TO.N,Net-(D38-A)*%
X149627500Y-47965000D02*
X152087500Y-50425000D01*
X149627500Y-41995000D02*
X149627500Y-47965000D01*
%TO.N,Net-(D39-A)*%
X168677500Y-41995000D02*
X168677500Y-47965000D01*
X168677500Y-47965000D02*
X171137500Y-50425000D01*
%TO.N,Net-(D40-A)*%
X187727500Y-47965000D02*
X190187500Y-50425000D01*
X187727500Y-41995000D02*
X187727500Y-47965000D01*
%TO.N,Net-(D41-A)*%
X206777500Y-47965000D02*
X209237500Y-50425000D01*
X206777500Y-41995000D02*
X206777500Y-47965000D01*
%TO.N,Net-(D42-A)*%
X225827500Y-47965000D02*
X228287500Y-50425000D01*
X225827500Y-41995000D02*
X225827500Y-47965000D01*
%TO.N,Net-(D43-A)*%
X244877500Y-41995000D02*
X244877500Y-47965000D01*
X244877500Y-47965000D02*
X247337500Y-50425000D01*
%TO.N,Net-(D44-A)*%
X263927500Y-41995000D02*
X263927500Y-47965000D01*
X263927500Y-47965000D02*
X266387500Y-50425000D01*
%TO.N,Net-(D45-A)*%
X294883750Y-41995000D02*
X294883750Y-47965000D01*
X294883750Y-47965000D02*
X297343750Y-50425000D01*
%TO.N,Net-(D46-A)*%
X335365000Y-41995000D02*
X335365000Y-47965000D01*
X335365000Y-47965000D02*
X337825000Y-50425000D01*
%TO.N,Net-(D47-A)*%
X11515000Y-61045000D02*
X11515000Y-67015000D01*
X11515000Y-67015000D02*
X13975000Y-69475000D01*
%TO.N,Net-(D48-A)*%
X51996250Y-67015000D02*
X54456250Y-69475000D01*
X51996250Y-61045000D02*
X51996250Y-67015000D01*
%TO.N,Net-(D49-A)*%
X82952500Y-61045000D02*
X82952500Y-67015000D01*
X82952500Y-67015000D02*
X85412500Y-69475000D01*
%TO.N,Net-(D50-A)*%
X102002500Y-67015000D02*
X104462500Y-69475000D01*
X102002500Y-61045000D02*
X102002500Y-67015000D01*
%TO.N,Net-(D51-A)*%
X121052500Y-61045000D02*
X121052500Y-67015000D01*
X121052500Y-67015000D02*
X123512500Y-69475000D01*
%TO.N,Net-(D52-A)*%
X140102500Y-61045000D02*
X140102500Y-67015000D01*
X140102500Y-67015000D02*
X142562500Y-69475000D01*
%TO.N,Net-(D54-A)*%
X178202500Y-61045000D02*
X178202500Y-67015000D01*
X178202500Y-67015000D02*
X180662500Y-69475000D01*
D42*
%TO.N,/LED*%
X18250000Y-40950000D02*
X23528070Y-40950000D01*
X20405000Y-34705990D02*
X18719010Y-34705990D01*
X23528070Y-40950000D02*
X25613381Y-43035311D01*
X17575000Y-40275000D02*
X18250000Y-40950000D01*
X18719010Y-34705990D02*
X17575000Y-35850000D01*
X17575000Y-35850000D02*
X17575000Y-40275000D01*
D44*
%TO.N,Net-(D57-A)*%
X235352500Y-61045000D02*
X235352500Y-67015000D01*
X235352500Y-67015000D02*
X237812500Y-69475000D01*
%TO.N,Net-(D58-A)*%
X254402500Y-61045000D02*
X254402500Y-67015000D01*
X254402500Y-67015000D02*
X256862500Y-69475000D01*
%TO.N,Net-(D59-A)*%
X280596250Y-67015000D02*
X283056250Y-69475000D01*
X280596250Y-61045000D02*
X280596250Y-67015000D01*
%TO.N,Net-(D62-A)*%
X11515000Y-86065000D02*
X13975000Y-88525000D01*
X11515000Y-80095000D02*
X11515000Y-86065000D01*
%TO.N,Net-(D63-A)*%
X42471250Y-86065000D02*
X44931250Y-88525000D01*
X42471250Y-80095000D02*
X42471250Y-86065000D01*
%TO.N,Net-(D64-A)*%
X66283750Y-80095000D02*
X66283750Y-86065000D01*
X66283750Y-86065000D02*
X68743750Y-88525000D01*
%TO.N,Net-(D65-A)*%
X90096250Y-86065000D02*
X92556250Y-88525000D01*
X90096250Y-80095000D02*
X90096250Y-86065000D01*
%TO.N,Net-(D66-A)*%
X123433750Y-80095000D02*
X123433750Y-86065000D01*
X123433750Y-86065000D02*
X125893750Y-88525000D01*
%TO.N,Net-(D67-A)*%
X161533750Y-80095000D02*
X161533750Y-86065000D01*
X161533750Y-86065000D02*
X163993750Y-88525000D01*
%TO.N,Net-(D68-A)*%
X199633750Y-86065000D02*
X202093750Y-88525000D01*
X199633750Y-80095000D02*
X199633750Y-86065000D01*
%TO.N,Net-(D69-A)*%
X235352500Y-80095000D02*
X235352500Y-86065000D01*
X235352500Y-86065000D02*
X237812500Y-88525000D01*
%TO.N,Net-(D70-A)*%
X263927500Y-80095000D02*
X263927500Y-86065000D01*
X263927500Y-86065000D02*
X266387500Y-88525000D01*
%TO.N,Net-(D72-A)*%
X311552500Y-90827500D02*
X314012500Y-93287500D01*
X311552500Y-84857500D02*
X311552500Y-90827500D01*
%TO.N,Net-(D73-A)*%
X330602500Y-90827500D02*
X333062500Y-93287500D01*
X330602500Y-84857500D02*
X330602500Y-90827500D01*
D45*
%TO.N,/USB_DN*%
X27068200Y-62300000D02*
X24481800Y-62300000D01*
X31931116Y-47267082D02*
X33200000Y-48535966D01*
X29000000Y-60368200D02*
X27068200Y-62300000D01*
X33200000Y-51968200D02*
X29000000Y-56168200D01*
X24481800Y-62300000D02*
X23650000Y-61468200D01*
X23275000Y-58387501D02*
X23275000Y-57750000D01*
X23650000Y-58762501D02*
X23275000Y-58387501D01*
X31931116Y-47231726D02*
X31931116Y-47267082D01*
X33200000Y-48535966D02*
X33200000Y-51968200D01*
X29000000Y-56168200D02*
X29000000Y-60368200D01*
X23650000Y-61468200D02*
X23650000Y-58762501D01*
X31535400Y-46836010D02*
X31931116Y-47231726D01*
%TO.N,/USB_DP*%
X31612919Y-47585279D02*
X32750000Y-48722360D01*
X32750000Y-51781800D02*
X28550000Y-55981800D01*
X31181847Y-47189563D02*
X31577563Y-47585279D01*
X28550000Y-60181800D02*
X26881800Y-61850000D01*
X26881800Y-61850000D02*
X24668200Y-61850000D01*
X24100000Y-61281800D02*
X24100000Y-58762501D01*
X31577563Y-47585279D02*
X31612919Y-47585279D01*
X24100000Y-58762501D02*
X24475000Y-58387501D01*
X28550000Y-55981800D02*
X28550000Y-60181800D01*
X24668200Y-61850000D02*
X24100000Y-61281800D01*
X24475000Y-58387501D02*
X24475000Y-57750000D01*
X32750000Y-48722360D02*
X32750000Y-51781800D01*
D42*
%TO.N,/Matrix/SW77*%
X335365000Y-9565000D02*
X336800000Y-11000000D01*
X336800000Y-14100000D02*
X336800000Y-12950000D01*
X336800000Y-11000000D02*
X336800000Y-12950000D01*
X332825000Y-14575000D02*
X336325000Y-14575000D01*
X335365000Y-3895000D02*
X335365000Y-9565000D01*
X336325000Y-14575000D02*
X336800000Y-14100000D01*
%TO.N,/BOOT0*%
X16475000Y-41875000D02*
X22050000Y-47450000D01*
X24999390Y-47450000D02*
X26674041Y-45775349D01*
X22050000Y-47450000D02*
X24999390Y-47450000D01*
X21300000Y-21250000D02*
X21300000Y-22050000D01*
X22800000Y-21250000D02*
X21300000Y-21250000D01*
%TO.N,/SWITCH*%
X28900000Y-36000000D02*
X28375000Y-35475000D01*
X277375000Y-17875000D02*
X280375000Y-20875000D01*
X28795362Y-39853330D02*
X28375000Y-39432968D01*
X328600000Y-11350000D02*
X329400000Y-11350000D01*
X326325000Y-12875000D02*
X327800000Y-11400000D01*
X327800000Y-11400000D02*
X328550000Y-11400000D01*
X28375000Y-35475000D02*
X28375000Y-20375000D01*
X28375000Y-20375000D02*
X30875000Y-17875000D01*
X308625000Y-20875000D02*
X316625000Y-12875000D01*
X28375000Y-39432968D02*
X28375000Y-38425000D01*
X316625000Y-12875000D02*
X326325000Y-12875000D01*
X30875000Y-17875000D02*
X277375000Y-17875000D01*
X28375000Y-38425000D02*
X28900000Y-37900000D01*
X328550000Y-11400000D02*
X328600000Y-11350000D01*
X280375000Y-20875000D02*
X308625000Y-20875000D01*
X28900000Y-37900000D02*
X28900000Y-36000000D01*
%TO.N,/SWDIO*%
X21315000Y-65115000D02*
X21315000Y-70450000D01*
X30475000Y-52775000D02*
X20275000Y-52775000D01*
X20275000Y-52775000D02*
X17825000Y-55225000D01*
X32175000Y-48875000D02*
X32175000Y-51075000D01*
X17825000Y-55225000D02*
X17825000Y-60175000D01*
X32175000Y-51075000D02*
X30475000Y-52775000D01*
X17825000Y-60175000D02*
X21325000Y-63675000D01*
X30843116Y-47543116D02*
X32175000Y-48875000D01*
%TO.N,/SWCLK*%
X17075000Y-54675000D02*
X17075000Y-60625000D01*
X23375000Y-64275000D02*
X23855000Y-64755000D01*
X17075000Y-60625000D02*
X20725000Y-64275000D01*
X20675000Y-51075000D02*
X17075000Y-54675000D01*
X23855000Y-64755000D02*
X23855000Y-70450000D01*
X29148915Y-48251085D02*
X26325000Y-51075000D01*
X26325000Y-51075000D02*
X20675000Y-51075000D01*
X20725000Y-64275000D02*
X23375000Y-64275000D01*
%TO.N,/USART2_TX_DEBUG*%
X34075000Y-49450000D02*
X34075000Y-52500000D01*
X26395000Y-69750000D02*
X26395000Y-70450000D01*
X29361500Y-39287192D02*
X29361500Y-38575000D01*
X29148915Y-39499777D02*
X29361500Y-39287192D01*
%TO.N,/USART2_RX_DEBUG*%
X29875000Y-39253590D02*
X30121187Y-39499777D01*
X34675000Y-50000000D02*
X34675000Y-52848064D01*
X29875000Y-37975000D02*
X29875000Y-39253590D01*
X28950000Y-69750000D02*
X28950000Y-70435000D01*
X34675000Y-52848064D02*
X34679647Y-52852711D01*
%TO.N,/COL0*%
X21488500Y-50475000D02*
X26225000Y-50475000D01*
X26225000Y-50475000D02*
X28795362Y-47904638D01*
X21488500Y-50475000D02*
X21475000Y-50488500D01*
%TO.N,/COL2*%
X31181847Y-40560437D02*
X34967284Y-36775000D01*
X34967284Y-36775000D02*
X62115000Y-36775000D01*
X62115000Y-36775000D02*
X62315000Y-36575000D01*
%TO.N,/COL3*%
X31535400Y-40913990D02*
X35174390Y-37275000D01*
X35174390Y-37275000D02*
X81165000Y-37275000D01*
X81165000Y-37275000D02*
X81365000Y-37075000D01*
%TO.N,/COL4*%
X31888954Y-41267544D02*
X35381498Y-37775000D01*
X35381498Y-37775000D02*
X100215000Y-37775000D01*
X100215000Y-37775000D02*
X100415000Y-37575000D01*
%TO.N,/COL5*%
X32242507Y-41621097D02*
X35588604Y-38275000D01*
X35588604Y-38275000D02*
X119265000Y-38275000D01*
X119265000Y-38275000D02*
X119465000Y-38075000D01*
%TO.N,/COL6*%
X138315000Y-38775000D02*
X138515000Y-38575000D01*
X32596061Y-41974651D02*
X35795712Y-38775000D01*
X35795712Y-38775000D02*
X138315000Y-38775000D01*
%TO.N,/COL7*%
X36002818Y-39275000D02*
X157365000Y-39275000D01*
X157365000Y-39275000D02*
X157565000Y-39075000D01*
X32949614Y-42328204D02*
X36002818Y-39275000D01*
%TO.N,/COL8*%
X44524138Y-54875000D02*
X182175000Y-54875000D01*
X34010274Y-44361136D02*
X44524138Y-54875000D01*
X182175000Y-54875000D02*
X182183750Y-54866250D01*
%TO.N,/COL9*%
X201370250Y-55379750D02*
X169279750Y-55379750D01*
X201558750Y-55191250D02*
X201370250Y-55379750D01*
X169275000Y-55375000D02*
X44325000Y-55375000D01*
X169279750Y-55379750D02*
X169275000Y-55375000D01*
X44325000Y-55375000D02*
X33664689Y-44714689D01*
%TO.N,/COL10*%
X33303167Y-45068243D02*
X44109924Y-55875000D01*
X220875000Y-55875000D02*
X221083750Y-55666250D01*
X44109924Y-55875000D02*
X220875000Y-55875000D01*
%TO.N,/COL11*%
X43902818Y-56375000D02*
X136775000Y-56375000D01*
X32949614Y-45421796D02*
X43902818Y-56375000D01*
X136779750Y-56379750D02*
X136775000Y-56375000D01*
X240370250Y-56379750D02*
X136779750Y-56379750D01*
X240608750Y-56141250D02*
X240370250Y-56379750D01*
%TO.N,/COL12*%
X43695712Y-56875000D02*
X32596061Y-45775349D01*
X257577500Y-56675000D02*
X257377500Y-56875000D01*
X257377500Y-56875000D02*
X43695712Y-56875000D01*
%TO.N,/COL1*%
X38489000Y-36275000D02*
X38502500Y-36261500D01*
X34760178Y-36275000D02*
X38075000Y-36275000D01*
X38075000Y-36275000D02*
X38502500Y-36275000D01*
X30828294Y-40206884D02*
X34760178Y-36275000D01*
X38075000Y-36275000D02*
X38489000Y-36275000D01*
%TO.N,/COL13*%
X274246250Y-57200000D02*
X274071250Y-57375000D01*
X32242507Y-46128903D02*
X43488604Y-57375000D01*
X43488604Y-57375000D02*
X55575000Y-57375000D01*
X55575000Y-57375000D02*
X60075000Y-61875000D01*
X60075000Y-61875000D02*
X62875000Y-61875000D01*
X67375000Y-57375000D02*
X274071250Y-57375000D01*
X62875000Y-61875000D02*
X67375000Y-57375000D01*
%TO.N,/COL14*%
X59825000Y-62425000D02*
X55275000Y-57875000D01*
X67675000Y-57875000D02*
X63125000Y-62425000D01*
X55275000Y-57875000D02*
X43281498Y-57875000D01*
X307600000Y-57641250D02*
X307366250Y-57875000D01*
X43281498Y-57875000D02*
X31888954Y-46482456D01*
X63125000Y-62425000D02*
X59825000Y-62425000D01*
X307366250Y-57875000D02*
X67675000Y-57875000D01*
D44*
%TO.N,/COL15*%
X329015000Y-6435000D02*
X330200000Y-7620000D01*
D42*
X307625000Y-35775000D02*
X328815000Y-35775000D01*
X30474740Y-39853330D02*
X34553070Y-35775000D01*
D44*
X330400000Y-16000000D02*
X329015000Y-17385000D01*
X330925000Y-13346231D02*
X330400000Y-13871231D01*
D42*
X328815000Y-35775000D02*
X329015000Y-35575000D01*
X301450000Y-35775000D02*
X302625000Y-36950000D01*
D44*
X330200000Y-7620000D02*
X330200000Y-10000000D01*
X330200000Y-10000000D02*
X330925000Y-10725000D01*
D42*
X39175000Y-35775000D02*
X301450000Y-35775000D01*
X306450000Y-36950000D02*
X307625000Y-35775000D01*
X302625000Y-36950000D02*
X306450000Y-36950000D01*
D44*
X330925000Y-10725000D02*
X330925000Y-13346231D01*
D42*
X34553070Y-35775000D02*
X37875000Y-35775000D01*
X38925000Y-35525000D02*
X39175000Y-35775000D01*
X38125000Y-35525000D02*
X38925000Y-35525000D01*
D44*
X329015000Y-17385000D02*
X329015000Y-25485000D01*
X330400000Y-13871231D02*
X330400000Y-16000000D01*
D42*
X37875000Y-35775000D02*
X38125000Y-35525000D01*
D44*
%TO.N,Net-(D53-A)*%
X159152500Y-67015000D02*
X161612500Y-69475000D01*
X159152500Y-61045000D02*
X159152500Y-67015000D01*
%TO.N,Net-(D61-A)*%
X335365000Y-67015000D02*
X337825000Y-69475000D01*
X335365000Y-61045000D02*
X335365000Y-67015000D01*
%TO.N,Net-(D71-A)*%
X292502500Y-90827500D02*
X294962500Y-93287500D01*
X292502500Y-84857500D02*
X292502500Y-90827500D01*
D42*
%TO.N,Net-(U2-VCAP_1)*%
X33784924Y-42200000D02*
X34355976Y-42200000D01*
X33303167Y-42681757D02*
X33784924Y-42200000D01*
X34355976Y-42200000D02*
X34903984Y-41651992D01*
D44*
%TO.N,Net-(D55-A)*%
X197252500Y-67015000D02*
X199712500Y-69475000D01*
X197252500Y-61045000D02*
X197252500Y-67015000D01*
%TO.N,Net-(D56-A)*%
X216302500Y-67015000D02*
X218762500Y-69475000D01*
X216302500Y-61045000D02*
X216302500Y-67015000D01*
%TO.N,Net-(D60-A)*%
X311552500Y-65807500D02*
X311552500Y-71777500D01*
X311552500Y-71777500D02*
X314012500Y-74237500D01*
D42*
%TO.N,Net-(J1-Pin_2)*%
X21315000Y-75325000D02*
X21315000Y-72100000D01*
%TO.N,Net-(J1-Pin_4)*%
X26395000Y-75325000D02*
X26395000Y-72100000D01*
%TO.N,Net-(J1-Pin_3)*%
X23855000Y-72100000D02*
X23855000Y-75325000D01*
%TO.N,Net-(J1-Pin_5)*%
X28935000Y-72100000D02*
X28935000Y-75325000D01*
%TO.N,/Matrix/S1*%
X329400000Y-13000000D02*
X330400000Y-13000000D01*
X329400000Y-14525000D02*
X329400000Y-13000000D01*
D44*
%TO.N,Net-(D1-A)*%
X11515000Y-3895000D02*
X11515000Y-9865000D01*
X11515000Y-9865000D02*
X13975000Y-12325000D01*
%TO.N,Net-(D2-A)*%
X40090000Y-9865000D02*
X42550000Y-12325000D01*
X40090000Y-3895000D02*
X40090000Y-9865000D01*
%TO.N,Net-(D3-A)*%
X59140000Y-9865000D02*
X61600000Y-12325000D01*
X59140000Y-3895000D02*
X59140000Y-9865000D01*
%TO.N,Net-(D4-A)*%
X78190000Y-3895000D02*
X78190000Y-9865000D01*
X78190000Y-9865000D02*
X80650000Y-12325000D01*
D42*
%TO.N,Net-(D74-K)*%
X21915000Y-33385000D02*
X22055990Y-33244010D01*
X21365000Y-33385000D02*
X21915000Y-33385000D01*
X22055990Y-33244010D02*
X22800000Y-33244010D01*
%TO.N,Net-(D75-K)*%
X22100000Y-34850000D02*
X22800000Y-34850000D01*
X21375000Y-34705990D02*
X21955990Y-34705990D01*
X21955990Y-34705990D02*
X22100000Y-34850000D01*
%TO.N,/Matrix/B*%
X321800000Y-9550000D02*
X323400000Y-9550000D01*
X320200000Y-9550001D02*
X321799999Y-9550001D01*
X323400000Y-9550000D02*
X325325000Y-11475000D01*
%TO.N,Net-(R4-Pad1)*%
X19700000Y-31100000D02*
X19700000Y-30400000D01*
X25850000Y-29750000D02*
X25850000Y-29100000D01*
X24150000Y-29350000D02*
X24950000Y-29350000D01*
X26450000Y-31150000D02*
X26450000Y-30350000D01*
X19700000Y-30400000D02*
X20000000Y-30100000D01*
X24950000Y-29350000D02*
X25200000Y-29100000D01*
X26450000Y-30350000D02*
X25850000Y-29750000D01*
X20000000Y-29350000D02*
X24150000Y-29350000D01*
X25200000Y-29100000D02*
X25850000Y-29100000D01*
X20000000Y-30100000D02*
X20000000Y-29350000D01*
%TO.N,Net-(R10-Pad1)*%
X25850000Y-23250000D02*
X25150000Y-23250000D01*
X26450000Y-21950000D02*
X26450000Y-21300000D01*
X25850000Y-22550000D02*
X26450000Y-21950000D01*
X24150000Y-23000000D02*
X24150000Y-22350000D01*
X24900000Y-23000000D02*
X24150000Y-23000000D01*
X24450000Y-22050000D02*
X24450000Y-21250000D01*
X24150000Y-22350000D02*
X24450000Y-22050000D01*
X20000000Y-23000000D02*
X24150000Y-23000000D01*
X25150000Y-23250000D02*
X24900000Y-23000000D01*
X25850000Y-23250000D02*
X25850000Y-22550000D01*
%TO.N,/Matrix/A*%
X320200000Y-7400000D02*
X321800000Y-7400000D01*
X322900000Y-7400000D02*
X323825000Y-6475000D01*
X323825000Y-6475000D02*
X325325000Y-6475000D01*
X321800000Y-7400000D02*
X322900000Y-7400000D01*
%TO.N,Net-(D77-A)*%
X306790000Y-9865000D02*
X309250000Y-12325000D01*
X306790000Y-3895000D02*
X306790000Y-9865000D01*
%TD*%
M02*
