%TF.GenerationSoftware,KiCad,Pcbnew,8.0.8*%
%TF.CreationDate,2025-02-24T19:32:55-06:00*%
%TF.ProjectId,kb,6b622e6b-6963-4616-945f-706362585858,rev?*%
%TF.SameCoordinates,Original*%
%TF.FileFunction,Soldermask,Bot*%
%TF.FilePolarity,Negative*%
%FSLAX46Y46*%
G04 Gerber Fmt 4.6, Leading zero omitted, Abs format (unit mm)*
G04 Created by KiCad (PCBNEW 8.0.8) date 2025-02-24 19:32:55*
%MOMM*%
%LPD*%
G01*
G04 APERTURE LIST*
G04 Aperture macros list*
%AMRoundRect*
0 Rectangle with rounded corners*
0 $1 Rounding radius*
0 $2 $3 $4 $5 $6 $7 $8 $9 X,Y pos of 4 corners*
0 Add a 4 corners polygon primitive as box body*
4,1,4,$2,$3,$4,$5,$6,$7,$8,$9,$2,$3,0*
0 Add four circle primitives for the rounded corners*
1,1,$1+$1,$2,$3*
1,1,$1+$1,$4,$5*
1,1,$1+$1,$6,$7*
1,1,$1+$1,$8,$9*
0 Add four rect primitives between the rounded corners*
20,1,$1+$1,$2,$3,$4,$5,0*
20,1,$1+$1,$4,$5,$6,$7,0*
20,1,$1+$1,$6,$7,$8,$9,0*
20,1,$1+$1,$8,$9,$2,$3,0*%
%AMRotRect*
0 Rectangle, with rotation*
0 The origin of the aperture is its center*
0 $1 length*
0 $2 width*
0 $3 Rotation angle, in degrees counterclockwise*
0 Add horizontal line*
21,1,$1,$2,0,0,$3*%
G04 Aperture macros list end*
%ADD10C,1.750000*%
%ADD11C,3.987800*%
%ADD12C,2.300000*%
%ADD13C,2.000000*%
%ADD14RoundRect,0.500000X-0.500000X-0.500000X0.500000X-0.500000X0.500000X0.500000X-0.500000X0.500000X0*%
%ADD15RoundRect,0.550000X-1.150000X-0.550000X1.150000X-0.550000X1.150000X0.550000X-1.150000X0.550000X0*%
%ADD16C,3.048000*%
%ADD17RoundRect,0.225000X0.375000X-0.225000X0.375000X0.225000X-0.375000X0.225000X-0.375000X-0.225000X0*%
%ADD18R,1.700000X1.700000*%
%ADD19O,1.700000X1.700000*%
%ADD20RoundRect,0.225000X0.335876X0.017678X0.017678X0.335876X-0.335876X-0.017678X-0.017678X-0.335876X0*%
%ADD21RoundRect,0.200000X-0.275000X0.200000X-0.275000X-0.200000X0.275000X-0.200000X0.275000X0.200000X0*%
%ADD22RoundRect,0.150000X-0.150000X-0.275000X0.150000X-0.275000X0.150000X0.275000X-0.150000X0.275000X0*%
%ADD23RoundRect,0.175000X-0.175000X-0.225000X0.175000X-0.225000X0.175000X0.225000X-0.175000X0.225000X0*%
%ADD24R,1.000000X1.000000*%
%ADD25RoundRect,0.225000X-0.250000X0.225000X-0.250000X-0.225000X0.250000X-0.225000X0.250000X0.225000X0*%
%ADD26RoundRect,0.225000X-0.335876X-0.017678X-0.017678X-0.335876X0.335876X0.017678X0.017678X0.335876X0*%
%ADD27RoundRect,0.200000X-0.200000X-0.275000X0.200000X-0.275000X0.200000X0.275000X-0.200000X0.275000X0*%
%ADD28RoundRect,0.147500X0.147500X0.172500X-0.147500X0.172500X-0.147500X-0.172500X0.147500X-0.172500X0*%
%ADD29RoundRect,0.200000X0.275000X-0.200000X0.275000X0.200000X-0.275000X0.200000X-0.275000X-0.200000X0*%
%ADD30RoundRect,0.225000X0.017678X-0.335876X0.335876X-0.017678X-0.017678X0.335876X-0.335876X0.017678X0*%
%ADD31RoundRect,0.225000X0.225000X0.250000X-0.225000X0.250000X-0.225000X-0.250000X0.225000X-0.250000X0*%
%ADD32RotRect,0.900000X0.800000X45.000000*%
%ADD33RoundRect,0.225000X-0.017678X0.335876X-0.335876X0.017678X0.017678X-0.335876X0.335876X-0.017678X0*%
%ADD34R,1.050000X0.650000*%
%ADD35RoundRect,0.140000X0.021213X-0.219203X0.219203X-0.021213X-0.021213X0.219203X-0.219203X0.021213X0*%
%ADD36RoundRect,0.225000X-0.225000X-0.250000X0.225000X-0.250000X0.225000X0.250000X-0.225000X0.250000X0*%
%ADD37RoundRect,0.140000X-0.021213X0.219203X-0.219203X0.021213X0.021213X-0.219203X0.219203X-0.021213X0*%
%ADD38RoundRect,0.200000X0.200000X0.275000X-0.200000X0.275000X-0.200000X-0.275000X0.200000X-0.275000X0*%
%ADD39RoundRect,0.062500X-0.309359X0.220971X0.220971X-0.309359X0.309359X-0.220971X-0.220971X0.309359X0*%
%ADD40RoundRect,0.062500X-0.309359X-0.220971X-0.220971X-0.309359X0.309359X0.220971X0.220971X0.309359X0*%
%ADD41RotRect,5.600000X5.600000X315.000000*%
%ADD42RoundRect,0.150000X0.150000X-0.512500X0.150000X0.512500X-0.150000X0.512500X-0.150000X-0.512500X0*%
%ADD43RoundRect,0.225000X0.250000X-0.225000X0.250000X0.225000X-0.250000X0.225000X-0.250000X-0.225000X0*%
G04 APERTURE END LIST*
D10*
%TO.C,SW30*%
X294407500Y-28025000D03*
D11*
X299487500Y-28025000D03*
D10*
X304567500Y-28025000D03*
D12*
X295677500Y-25485000D03*
X302027500Y-22945000D03*
%TD*%
D10*
%TO.C,SW33*%
X39613750Y-47075000D03*
D11*
X44693750Y-47075000D03*
D10*
X49773750Y-47075000D03*
D12*
X40883750Y-44535000D03*
X47233750Y-41995000D03*
%TD*%
D10*
%TO.C,SW31*%
X327745000Y-28025000D03*
D11*
X332825000Y-28025000D03*
D10*
X337905000Y-28025000D03*
D12*
X329015000Y-25485000D03*
X335365000Y-22945000D03*
%TD*%
D10*
%TO.C,SW56*%
X208682500Y-66125000D03*
D11*
X213762500Y-66125000D03*
D10*
X218842500Y-66125000D03*
D12*
X209952500Y-63585000D03*
X216302500Y-61045000D03*
%TD*%
D10*
%TO.C,SW23*%
X156295000Y-28025000D03*
D11*
X161375000Y-28025000D03*
D10*
X166455000Y-28025000D03*
D12*
X157565000Y-25485000D03*
X163915000Y-22945000D03*
%TD*%
D10*
%TO.C,SW42*%
X218207500Y-47075000D03*
D11*
X223287500Y-47075000D03*
D10*
X228367500Y-47075000D03*
D12*
X219477500Y-44535000D03*
X225827500Y-41995000D03*
%TD*%
D10*
%TO.C,SW54*%
X170582500Y-66125000D03*
D11*
X175662500Y-66125000D03*
D10*
X180742500Y-66125000D03*
D12*
X171852500Y-63585000D03*
X178202500Y-61045000D03*
%TD*%
D10*
%TO.C,SW65*%
X82476250Y-85175000D03*
D11*
X87556250Y-85175000D03*
D10*
X92636250Y-85175000D03*
D12*
X83746250Y-82635000D03*
X90096250Y-80095000D03*
%TD*%
D10*
%TO.C,SW59*%
X272976250Y-66125000D03*
D11*
X278056250Y-66125000D03*
D10*
X283136250Y-66125000D03*
D12*
X274246250Y-63585000D03*
X280596250Y-61045000D03*
%TD*%
D10*
%TO.C,SW6*%
X108670000Y-8975000D03*
D11*
X113750000Y-8975000D03*
D10*
X118830000Y-8975000D03*
D12*
X109940000Y-6435000D03*
X116290000Y-3895000D03*
%TD*%
D10*
%TO.C,SW61*%
X327745000Y-66125000D03*
D11*
X332825000Y-66125000D03*
D10*
X337905000Y-66125000D03*
D12*
X329015000Y-63585000D03*
X335365000Y-61045000D03*
%TD*%
D10*
%TO.C,SW43*%
X237257500Y-47075000D03*
D11*
X242337500Y-47075000D03*
D10*
X247417500Y-47075000D03*
D12*
X238527500Y-44535000D03*
X244877500Y-41995000D03*
%TD*%
D10*
%TO.C,SW48*%
X44376250Y-66125000D03*
D11*
X49456250Y-66125000D03*
D10*
X54536250Y-66125000D03*
D12*
X45646250Y-63585000D03*
X51996250Y-61045000D03*
%TD*%
D10*
%TO.C,SW17*%
X37232500Y-28025000D03*
D11*
X42312500Y-28025000D03*
D10*
X47392500Y-28025000D03*
D12*
X38502500Y-25485000D03*
X44852500Y-22945000D03*
%TD*%
D10*
%TO.C,SW71*%
X284882500Y-89937500D03*
D11*
X289962500Y-89937500D03*
D10*
X295042500Y-89937500D03*
D12*
X286152500Y-87397500D03*
X292502500Y-84857500D03*
%TD*%
D10*
%TO.C,SW35*%
X84857500Y-47075000D03*
D11*
X89937500Y-47075000D03*
D10*
X95017500Y-47075000D03*
D12*
X86127500Y-44535000D03*
X92477500Y-41995000D03*
%TD*%
D10*
%TO.C,SW51*%
X113432500Y-66125000D03*
D11*
X118512500Y-66125000D03*
D10*
X123592500Y-66125000D03*
D12*
X114702500Y-63585000D03*
X121052500Y-61045000D03*
%TD*%
D10*
%TO.C,SW69*%
X227732500Y-85175000D03*
D11*
X232812500Y-85175000D03*
D10*
X237892500Y-85175000D03*
D12*
X229002500Y-82635000D03*
X235352500Y-80095000D03*
%TD*%
D10*
%TO.C,SW32*%
X3895000Y-47075000D03*
D11*
X8975000Y-47075000D03*
D10*
X14055000Y-47075000D03*
D12*
X5165000Y-44535000D03*
X11515000Y-41995000D03*
%TD*%
D10*
%TO.C,SW70*%
X256307500Y-85175000D03*
D11*
X261387500Y-85175000D03*
D10*
X266467500Y-85175000D03*
D12*
X257577500Y-82635000D03*
X263927500Y-80095000D03*
%TD*%
D10*
%TO.C,SW68*%
X192013750Y-85175000D03*
D11*
X197093750Y-85175000D03*
D10*
X202173750Y-85175000D03*
D12*
X193283750Y-82635000D03*
X199633750Y-80095000D03*
%TD*%
D10*
%TO.C,SW73*%
X322982500Y-89937500D03*
D11*
X328062500Y-89937500D03*
D10*
X333142500Y-89937500D03*
D12*
X324252500Y-87397500D03*
X330602500Y-84857500D03*
%TD*%
D10*
%TO.C,SW10*%
X184870000Y-8975000D03*
D11*
X189950000Y-8975000D03*
D10*
X195030000Y-8975000D03*
D12*
X186140000Y-6435000D03*
X192490000Y-3895000D03*
%TD*%
D13*
%TO.C,SW76*%
X325325000Y-6475000D03*
X325325000Y-11475000D03*
D14*
X325325000Y-8975000D03*
D15*
X332825000Y-3375000D03*
X332825000Y-14575000D03*
D13*
X339825000Y-11475000D03*
X339825000Y-6475000D03*
%TD*%
D16*
%TO.C,REF\u002A\u002A*%
X185187500Y-78190000D03*
D11*
X185187500Y-93430000D03*
D16*
X209000000Y-78190000D03*
D11*
X209000000Y-93430000D03*
%TD*%
D10*
%TO.C,SW5*%
X89620000Y-8975000D03*
D11*
X94700000Y-8975000D03*
D10*
X99780000Y-8975000D03*
D12*
X90890000Y-6435000D03*
X97240000Y-3895000D03*
%TD*%
D10*
%TO.C,SW44*%
X256307500Y-47075000D03*
D11*
X261387500Y-47075000D03*
D10*
X266467500Y-47075000D03*
D12*
X257577500Y-44535000D03*
X263927500Y-41995000D03*
%TD*%
D10*
%TO.C,SW25*%
X194395000Y-28025000D03*
D11*
X199475000Y-28025000D03*
D10*
X204555000Y-28025000D03*
D12*
X195665000Y-25485000D03*
X202015000Y-22945000D03*
%TD*%
D10*
%TO.C,SW26*%
X213445000Y-28025000D03*
D11*
X218525000Y-28025000D03*
D10*
X223605000Y-28025000D03*
D12*
X214715000Y-25485000D03*
X221065000Y-22945000D03*
%TD*%
D10*
%TO.C,SW12*%
X222970000Y-8975000D03*
D11*
X228050000Y-8975000D03*
D10*
X233130000Y-8975000D03*
D12*
X224240000Y-6435000D03*
X230590000Y-3895000D03*
%TD*%
D10*
%TO.C,SW52*%
X132482500Y-66125000D03*
D11*
X137562500Y-66125000D03*
D10*
X142642500Y-66125000D03*
D12*
X133752500Y-63585000D03*
X140102500Y-61045000D03*
%TD*%
D10*
%TO.C,SW67*%
X153913750Y-85175000D03*
D11*
X158993750Y-85175000D03*
D10*
X164073750Y-85175000D03*
D12*
X155183750Y-82635000D03*
X161533750Y-80095000D03*
%TD*%
D10*
%TO.C,SW63*%
X34851250Y-85175000D03*
D11*
X39931250Y-85175000D03*
D10*
X45011250Y-85175000D03*
D12*
X36121250Y-82635000D03*
X42471250Y-80095000D03*
%TD*%
D10*
%TO.C,SW38*%
X142007500Y-47075000D03*
D11*
X147087500Y-47075000D03*
D10*
X152167500Y-47075000D03*
D12*
X143277500Y-44535000D03*
X149627500Y-41995000D03*
%TD*%
D10*
%TO.C,SW39*%
X161057500Y-47075000D03*
D11*
X166137500Y-47075000D03*
D10*
X171217500Y-47075000D03*
D12*
X162327500Y-44535000D03*
X168677500Y-41995000D03*
%TD*%
D10*
%TO.C,SW41*%
X199157500Y-47075000D03*
D11*
X204237500Y-47075000D03*
D10*
X209317500Y-47075000D03*
D12*
X200427500Y-44535000D03*
X206777500Y-41995000D03*
%TD*%
D10*
%TO.C,SW47*%
X3895000Y-66125000D03*
D11*
X8975000Y-66125000D03*
D10*
X14055000Y-66125000D03*
D12*
X5165000Y-63585000D03*
X11515000Y-61045000D03*
%TD*%
D10*
%TO.C,SW1*%
X3895000Y-8975000D03*
D11*
X8975000Y-8975000D03*
D10*
X14055000Y-8975000D03*
D12*
X5165000Y-6435000D03*
X11515000Y-3895000D03*
%TD*%
D10*
%TO.C,SW16*%
X3895000Y-28025000D03*
D11*
X8975000Y-28025000D03*
D10*
X14055000Y-28025000D03*
D12*
X5165000Y-25485000D03*
X11515000Y-22945000D03*
%TD*%
D10*
%TO.C,SW57*%
X227732500Y-66125000D03*
D11*
X232812500Y-66125000D03*
D10*
X237892500Y-66125000D03*
D12*
X229002500Y-63585000D03*
X235352500Y-61045000D03*
%TD*%
D10*
%TO.C,SW4*%
X70570000Y-8975000D03*
D11*
X75650000Y-8975000D03*
D10*
X80730000Y-8975000D03*
D12*
X71840000Y-6435000D03*
X78190000Y-3895000D03*
%TD*%
D10*
%TO.C,SW20*%
X99145000Y-28025000D03*
D11*
X104225000Y-28025000D03*
D10*
X109305000Y-28025000D03*
D12*
X100415000Y-25485000D03*
X106765000Y-22945000D03*
%TD*%
D16*
%TO.C,REF\u002A\u002A*%
X108975000Y-78175000D03*
D11*
X108975000Y-93415000D03*
D16*
X132787500Y-78175000D03*
D11*
X132787500Y-93415000D03*
%TD*%
D10*
%TO.C,SW79*%
X299170000Y-8975000D03*
D11*
X304250000Y-8975000D03*
D10*
X309330000Y-8975000D03*
D12*
X300440000Y-6435000D03*
X306790000Y-3895000D03*
%TD*%
D16*
%TO.C,REF\u002A\u002A*%
X280437500Y-40100000D03*
D11*
X280437500Y-55340000D03*
D16*
X304250000Y-40100000D03*
D11*
X304250000Y-55340000D03*
%TD*%
D10*
%TO.C,SW24*%
X175345000Y-28025000D03*
D11*
X180425000Y-28025000D03*
D10*
X185505000Y-28025000D03*
D12*
X176615000Y-25485000D03*
X182965000Y-22945000D03*
%TD*%
D10*
%TO.C,SW64*%
X58663750Y-85175000D03*
D11*
X63743750Y-85175000D03*
D10*
X68823750Y-85175000D03*
D12*
X59933750Y-82635000D03*
X66283750Y-80095000D03*
%TD*%
D16*
%TO.C,REF\u002A\u002A*%
X37537500Y-59150000D03*
D11*
X37537500Y-74390000D03*
D16*
X61350000Y-59150000D03*
D11*
X61350000Y-74390000D03*
%TD*%
D10*
%TO.C,SW21*%
X118195000Y-28025000D03*
D11*
X123275000Y-28025000D03*
D10*
X128355000Y-28025000D03*
D12*
X119465000Y-25485000D03*
X125815000Y-22945000D03*
%TD*%
D11*
%TO.C,SW78*%
X332825000Y-8975000D03*
%TD*%
D10*
%TO.C,SW27*%
X232495000Y-28025000D03*
D11*
X237575000Y-28025000D03*
D10*
X242655000Y-28025000D03*
D12*
X233765000Y-25485000D03*
X240115000Y-22945000D03*
%TD*%
D10*
%TO.C,SW29*%
X270595000Y-28025000D03*
D11*
X275675000Y-28025000D03*
D10*
X280755000Y-28025000D03*
D12*
X271865000Y-25485000D03*
X278215000Y-22945000D03*
%TD*%
D10*
%TO.C,SW2*%
X32470000Y-8975000D03*
D11*
X37550000Y-8975000D03*
D10*
X42630000Y-8975000D03*
D12*
X33740000Y-6435000D03*
X40090000Y-3895000D03*
%TD*%
D10*
%TO.C,SW28*%
X251545000Y-28025000D03*
D11*
X256625000Y-28025000D03*
D10*
X261705000Y-28025000D03*
D12*
X252815000Y-25485000D03*
X259165000Y-22945000D03*
%TD*%
D10*
%TO.C,SW77*%
X327745000Y-8975000D03*
D11*
X332825000Y-8975000D03*
D10*
X337905000Y-8975000D03*
D12*
X329015000Y-6435000D03*
X335365000Y-3895000D03*
%TD*%
D10*
%TO.C,SW19*%
X80095000Y-28025000D03*
D11*
X85175000Y-28025000D03*
D10*
X90255000Y-28025000D03*
D12*
X81365000Y-25485000D03*
X87715000Y-22945000D03*
%TD*%
D10*
%TO.C,SW8*%
X146770000Y-8975000D03*
D11*
X151850000Y-8975000D03*
D10*
X156930000Y-8975000D03*
D12*
X148040000Y-6435000D03*
X154390000Y-3895000D03*
%TD*%
D10*
%TO.C,SW9*%
X165820000Y-8975000D03*
D11*
X170900000Y-8975000D03*
D10*
X175980000Y-8975000D03*
D12*
X167090000Y-6435000D03*
X173440000Y-3895000D03*
%TD*%
D10*
%TO.C,SW72*%
X303932500Y-89937500D03*
D11*
X309012500Y-89937500D03*
D10*
X314092500Y-89937500D03*
D12*
X305202500Y-87397500D03*
X311552500Y-84857500D03*
%TD*%
D10*
%TO.C,SW60*%
X303932500Y-70875000D03*
D11*
X309012500Y-70875000D03*
D10*
X314092500Y-70875000D03*
D12*
X305202500Y-68335000D03*
X311552500Y-65795000D03*
%TD*%
D10*
%TO.C,SW7*%
X127720000Y-8975000D03*
D11*
X132800000Y-8975000D03*
D10*
X137880000Y-8975000D03*
D12*
X128990000Y-6435000D03*
X135340000Y-3895000D03*
%TD*%
D10*
%TO.C,SW18*%
X61045000Y-28025000D03*
D11*
X66125000Y-28025000D03*
D10*
X71205000Y-28025000D03*
D12*
X62315000Y-25485000D03*
X68665000Y-22945000D03*
%TD*%
D10*
%TO.C,SW62*%
X3895000Y-85175000D03*
D11*
X8975000Y-85175000D03*
D10*
X14055000Y-85175000D03*
D12*
X5165000Y-82635000D03*
X11515000Y-80095000D03*
%TD*%
D10*
%TO.C,SW3*%
X51520000Y-8975000D03*
D11*
X56600000Y-8975000D03*
D10*
X61680000Y-8975000D03*
D12*
X52790000Y-6435000D03*
X59140000Y-3895000D03*
%TD*%
D10*
%TO.C,SW34*%
X65807500Y-47075000D03*
D11*
X70887500Y-47075000D03*
D10*
X75967500Y-47075000D03*
D12*
X67077500Y-44535000D03*
X73427500Y-41995000D03*
%TD*%
D10*
%TO.C,SW53*%
X151532500Y-66125000D03*
D11*
X156612500Y-66125000D03*
D10*
X161692500Y-66125000D03*
D12*
X152802500Y-63585000D03*
X159152500Y-61045000D03*
%TD*%
D10*
%TO.C,SW58*%
X246782500Y-66125000D03*
D11*
X251862500Y-66125000D03*
D10*
X256942500Y-66125000D03*
D12*
X248052500Y-63585000D03*
X254402500Y-61045000D03*
%TD*%
D10*
%TO.C,SW40*%
X180107500Y-47075000D03*
D11*
X185187500Y-47075000D03*
D10*
X190267500Y-47075000D03*
D12*
X181377500Y-44535000D03*
X187727500Y-41995000D03*
%TD*%
D10*
%TO.C,SW50*%
X94382500Y-66125000D03*
D11*
X99462500Y-66125000D03*
D10*
X104542500Y-66125000D03*
D12*
X95652500Y-63585000D03*
X102002500Y-61045000D03*
%TD*%
D10*
%TO.C,SW55*%
X189632500Y-66125000D03*
D11*
X194712500Y-66125000D03*
D10*
X199792500Y-66125000D03*
D12*
X190902500Y-63585000D03*
X197252500Y-61045000D03*
%TD*%
D10*
%TO.C,SW66*%
X115813750Y-85175000D03*
D11*
X120893750Y-85175000D03*
D10*
X125973750Y-85175000D03*
D12*
X117083750Y-82635000D03*
X123433750Y-80095000D03*
%TD*%
D10*
%TO.C,SW46*%
X327745000Y-47075000D03*
D11*
X332825000Y-47075000D03*
D10*
X337905000Y-47075000D03*
D12*
X329015000Y-44535000D03*
X335365000Y-41995000D03*
%TD*%
D10*
%TO.C,SW49*%
X75332500Y-66125000D03*
D11*
X80412500Y-66125000D03*
D10*
X85492500Y-66125000D03*
D12*
X76602500Y-63585000D03*
X82952500Y-61045000D03*
%TD*%
D10*
%TO.C,SW15*%
X280120000Y-8975000D03*
D11*
X285200000Y-8975000D03*
D10*
X290280000Y-8975000D03*
D12*
X281390000Y-6435000D03*
X287740000Y-3895000D03*
%TD*%
D10*
%TO.C,SW14*%
X261070000Y-8975000D03*
D11*
X266150000Y-8975000D03*
D10*
X271230000Y-8975000D03*
D12*
X262340000Y-6435000D03*
X268690000Y-3895000D03*
%TD*%
D10*
%TO.C,SW11*%
X203920000Y-8975000D03*
D11*
X209000000Y-8975000D03*
D10*
X214080000Y-8975000D03*
D12*
X205190000Y-6435000D03*
X211540000Y-3895000D03*
%TD*%
D10*
%TO.C,SW45*%
X287263750Y-47075000D03*
D11*
X292343750Y-47075000D03*
D10*
X297423750Y-47075000D03*
D12*
X288533750Y-44535000D03*
X294883750Y-41995000D03*
%TD*%
D10*
%TO.C,SW22*%
X137245000Y-28025000D03*
D11*
X142325000Y-28025000D03*
D10*
X147405000Y-28025000D03*
D12*
X138515000Y-25485000D03*
X144865000Y-22945000D03*
%TD*%
D10*
%TO.C,SW36*%
X103907500Y-47075000D03*
D11*
X108987500Y-47075000D03*
D10*
X114067500Y-47075000D03*
D12*
X105177500Y-44535000D03*
X111527500Y-41995000D03*
%TD*%
D10*
%TO.C,SW13*%
X242020000Y-8975000D03*
D11*
X247100000Y-8975000D03*
D10*
X252180000Y-8975000D03*
D12*
X243290000Y-6435000D03*
X249640000Y-3895000D03*
%TD*%
D10*
%TO.C,SW37*%
X122957500Y-47075000D03*
D11*
X128037500Y-47075000D03*
D10*
X133117500Y-47075000D03*
D12*
X124227500Y-44535000D03*
X130577500Y-41995000D03*
%TD*%
D17*
%TO.C,D28*%
X261625000Y-34675000D03*
X261625000Y-31375000D03*
%TD*%
D18*
%TO.C,J1*%
X18775000Y-75325000D03*
D19*
X21315000Y-75325000D03*
X23855000Y-75325000D03*
X26395000Y-75325000D03*
X28935000Y-75325000D03*
X31475000Y-75325000D03*
%TD*%
D20*
%TO.C,C7*%
X27748008Y-37448008D03*
X26651992Y-36351992D03*
%TD*%
D17*
%TO.C,D1*%
X13975000Y-15625000D03*
X13975000Y-12325000D03*
%TD*%
D21*
%TO.C,R9*%
X25850000Y-27450000D03*
X25850000Y-29100000D03*
%TD*%
D22*
%TO.C,J2*%
X22075000Y-57750000D03*
X23275000Y-57750000D03*
X24475000Y-57750000D03*
X25675000Y-57750000D03*
D23*
X20925000Y-53975000D03*
X26825000Y-53975000D03*
%TD*%
D17*
%TO.C,D68*%
X202093750Y-91825000D03*
X202093750Y-88525000D03*
%TD*%
D24*
%TO.C,TP1*%
X26450000Y-31150000D03*
%TD*%
D25*
%TO.C,C16*%
X327800000Y-11400000D03*
X327800000Y-12950000D03*
%TD*%
D26*
%TO.C,C5*%
X23050000Y-44400000D03*
X24146016Y-45496016D03*
%TD*%
D17*
%TO.C,D7*%
X137800000Y-15625000D03*
X137800000Y-12325000D03*
%TD*%
%TO.C,D55*%
X199712500Y-72775000D03*
X199712500Y-69475000D03*
%TD*%
%TO.C,D49*%
X85412500Y-72775000D03*
X85412500Y-69475000D03*
%TD*%
%TO.C,D56*%
X218762500Y-72775000D03*
X218762500Y-69475000D03*
%TD*%
%TO.C,D43*%
X247337500Y-53725000D03*
X247337500Y-50425000D03*
%TD*%
D27*
%TO.C,R14*%
X327750000Y-14525000D03*
X329400000Y-14525000D03*
%TD*%
D17*
%TO.C,D73*%
X333062500Y-96587500D03*
X333062500Y-93287500D03*
%TD*%
%TO.C,D5*%
X99700000Y-15625000D03*
X99700000Y-12325000D03*
%TD*%
D28*
%TO.C,D75*%
X21375000Y-34705990D03*
X20405000Y-34705990D03*
%TD*%
D25*
%TO.C,C14*%
X318600000Y-5800000D03*
X318600000Y-7350000D03*
%TD*%
D17*
%TO.C,D24*%
X185425000Y-34675000D03*
X185425000Y-31375000D03*
%TD*%
%TO.C,D34*%
X75887500Y-53725000D03*
X75887500Y-50425000D03*
%TD*%
D26*
%TO.C,C4*%
X27751992Y-50751992D03*
X28848008Y-51848008D03*
%TD*%
D17*
%TO.C,D37*%
X133037500Y-53725000D03*
X133037500Y-50425000D03*
%TD*%
%TO.C,D30*%
X304487500Y-34675000D03*
X304487500Y-31375000D03*
%TD*%
%TO.C,D39*%
X171137500Y-53725000D03*
X171137500Y-50425000D03*
%TD*%
%TO.C,D33*%
X49693750Y-53725000D03*
X49693750Y-50425000D03*
%TD*%
%TO.C,D22*%
X147325000Y-34675000D03*
X147325000Y-31375000D03*
%TD*%
D29*
%TO.C,R11*%
X25850000Y-24900000D03*
X25850000Y-23250000D03*
%TD*%
D17*
%TO.C,D58*%
X256862500Y-72775000D03*
X256862500Y-69475000D03*
%TD*%
%TO.C,D38*%
X152087500Y-53725000D03*
X152087500Y-50425000D03*
%TD*%
D30*
%TO.C,C2*%
X36051992Y-44948008D03*
X37148008Y-43851992D03*
%TD*%
D24*
%TO.C,TP2*%
X26450000Y-21300000D03*
%TD*%
D17*
%TO.C,D32*%
X13975000Y-53725000D03*
X13975000Y-50425000D03*
%TD*%
%TO.C,D18*%
X71125000Y-34675000D03*
X71125000Y-31375000D03*
%TD*%
%TO.C,D10*%
X194950000Y-15625000D03*
X194950000Y-12325000D03*
%TD*%
%TO.C,D40*%
X190187500Y-53725000D03*
X190187500Y-50425000D03*
%TD*%
%TO.C,D65*%
X92556250Y-91825000D03*
X92556250Y-88525000D03*
%TD*%
%TO.C,D69*%
X237812500Y-91825000D03*
X237812500Y-88525000D03*
%TD*%
%TO.C,D14*%
X271150000Y-15625000D03*
X271150000Y-12325000D03*
%TD*%
%TO.C,D46*%
X337825000Y-53725000D03*
X337825000Y-50425000D03*
%TD*%
%TO.C,D70*%
X266387500Y-91825000D03*
X266387500Y-88525000D03*
%TD*%
%TO.C,D64*%
X68743750Y-91825000D03*
X68743750Y-88525000D03*
%TD*%
%TO.C,D41*%
X209237500Y-53725000D03*
X209237500Y-50425000D03*
%TD*%
D31*
%TO.C,C17*%
X21300000Y-21250000D03*
X19750000Y-21250000D03*
%TD*%
D17*
%TO.C,D26*%
X223525000Y-34675000D03*
X223525000Y-31375000D03*
%TD*%
D21*
%TO.C,R6*%
X23855000Y-70450000D03*
X23855000Y-72100000D03*
%TD*%
D17*
%TO.C,D71*%
X294962500Y-96587500D03*
X294962500Y-93287500D03*
%TD*%
%TO.C,D3*%
X61600000Y-15625000D03*
X61600000Y-12325000D03*
%TD*%
%TO.C,D31*%
X337825000Y-34675000D03*
X337825000Y-31375000D03*
%TD*%
D20*
%TO.C,C6*%
X27100000Y-39100000D03*
X26003984Y-38003984D03*
%TD*%
D17*
%TO.C,D67*%
X163993750Y-91825000D03*
X163993750Y-88525000D03*
%TD*%
%TO.C,D23*%
X166375000Y-34675000D03*
X166375000Y-31375000D03*
%TD*%
%TO.C,D9*%
X175900000Y-15625000D03*
X175900000Y-12325000D03*
%TD*%
%TO.C,D35*%
X94937500Y-53725000D03*
X94937500Y-50425000D03*
%TD*%
%TO.C,D60*%
X314025000Y-77525000D03*
X314025000Y-74225000D03*
%TD*%
D32*
%TO.C,Y1*%
X20997543Y-37994273D03*
X21987492Y-37004324D03*
X22765309Y-37782141D03*
X21775360Y-38772090D03*
%TD*%
D17*
%TO.C,D53*%
X161612500Y-72775000D03*
X161612500Y-69475000D03*
%TD*%
%TO.C,D21*%
X128275000Y-34675000D03*
X128275000Y-31375000D03*
%TD*%
%TO.C,D15*%
X290200000Y-15625000D03*
X290200000Y-12325000D03*
%TD*%
%TO.C,D45*%
X297343750Y-53725000D03*
X297343750Y-50425000D03*
%TD*%
D21*
%TO.C,R7*%
X26395000Y-70450000D03*
X26395000Y-72100000D03*
%TD*%
D17*
%TO.C,D19*%
X90175000Y-34675000D03*
X90175000Y-31375000D03*
%TD*%
%TO.C,D54*%
X180662500Y-72775000D03*
X180662500Y-69475000D03*
%TD*%
%TO.C,D62*%
X13975000Y-91825000D03*
X13975000Y-88525000D03*
%TD*%
%TO.C,D29*%
X280675000Y-34675000D03*
X280675000Y-31375000D03*
%TD*%
%TO.C,D48*%
X54456250Y-72775000D03*
X54456250Y-69475000D03*
%TD*%
%TO.C,D50*%
X104462500Y-72775000D03*
X104462500Y-69475000D03*
%TD*%
D21*
%TO.C,R5*%
X21315000Y-70450000D03*
X21315000Y-72100000D03*
%TD*%
D33*
%TO.C,C1*%
X22948008Y-42151992D03*
X21851992Y-43248008D03*
%TD*%
D17*
%TO.C,D59*%
X283056250Y-72775000D03*
X283056250Y-69475000D03*
%TD*%
%TO.C,D4*%
X80650000Y-15625000D03*
X80650000Y-12325000D03*
%TD*%
D30*
%TO.C,C3*%
X29951992Y-50698008D03*
X31048008Y-49601992D03*
%TD*%
D21*
%TO.C,R13*%
X321800000Y-5750000D03*
X321800000Y-7400000D03*
%TD*%
D34*
%TO.C,SW75*%
X24150000Y-23000000D03*
X20000000Y-23000000D03*
X24150000Y-25150000D03*
X20000000Y-25150000D03*
%TD*%
D17*
%TO.C,D8*%
X156850000Y-15625000D03*
X156850000Y-12325000D03*
%TD*%
%TO.C,D44*%
X266387500Y-53725000D03*
X266387500Y-50425000D03*
%TD*%
%TO.C,D52*%
X142562500Y-72775000D03*
X142562500Y-69475000D03*
%TD*%
%TO.C,D12*%
X233050000Y-15625000D03*
X233050000Y-12325000D03*
%TD*%
D35*
%TO.C,C11*%
X19696178Y-37053822D03*
X20375000Y-36375000D03*
%TD*%
D17*
%TO.C,D6*%
X118750000Y-15625000D03*
X118750000Y-12325000D03*
%TD*%
D36*
%TO.C,C9*%
X30912500Y-61662500D03*
X32462500Y-61662500D03*
%TD*%
D37*
%TO.C,C12*%
X24035589Y-38714411D03*
X23356767Y-39393233D03*
%TD*%
D17*
%TO.C,D66*%
X125893750Y-91825000D03*
X125893750Y-88525000D03*
%TD*%
D29*
%TO.C,R15*%
X320200000Y-7400000D03*
X320200000Y-5750000D03*
%TD*%
D21*
%TO.C,R3*%
X329400000Y-11350000D03*
X329400000Y-13000000D03*
%TD*%
D27*
%TO.C,R4*%
X19700000Y-31100000D03*
X21350000Y-31100000D03*
%TD*%
D17*
%TO.C,D13*%
X252100000Y-15625000D03*
X252100000Y-12325000D03*
%TD*%
%TO.C,D42*%
X228287500Y-53725000D03*
X228287500Y-50425000D03*
%TD*%
%TO.C,D27*%
X242575000Y-34675000D03*
X242575000Y-31375000D03*
%TD*%
%TO.C,D61*%
X337825000Y-72775000D03*
X337825000Y-69475000D03*
%TD*%
%TO.C,D63*%
X44931250Y-91825000D03*
X44931250Y-88525000D03*
%TD*%
D27*
%TO.C,R1*%
X22800000Y-33244010D03*
X24450000Y-33244010D03*
%TD*%
D17*
%TO.C,D57*%
X237812500Y-72775000D03*
X237812500Y-69475000D03*
%TD*%
D38*
%TO.C,R10*%
X24450000Y-21250000D03*
X22800000Y-21250000D03*
%TD*%
D26*
%TO.C,C10*%
X34903984Y-41651992D03*
X36000000Y-42748008D03*
%TD*%
D27*
%TO.C,R2*%
X22800000Y-34850000D03*
X24450000Y-34850000D03*
%TD*%
D34*
%TO.C,SW74*%
X24150000Y-27200000D03*
X20000000Y-27200000D03*
X24150000Y-29350000D03*
X20000000Y-29350000D03*
%TD*%
D21*
%TO.C,R8*%
X28935000Y-70450000D03*
X28935000Y-72100000D03*
%TD*%
%TO.C,R16*%
X320200000Y-9550001D03*
X320200000Y-11200001D03*
%TD*%
D17*
%TO.C,D72*%
X314012500Y-96587500D03*
X314012500Y-93287500D03*
%TD*%
%TO.C,D17*%
X47312500Y-34675000D03*
X47312500Y-31375000D03*
%TD*%
D36*
%TO.C,C13*%
X22900000Y-31100000D03*
X24450000Y-31100000D03*
%TD*%
D28*
%TO.C,D74*%
X21365000Y-33385000D03*
X20395000Y-33385000D03*
%TD*%
D17*
%TO.C,D51*%
X123512500Y-72775000D03*
X123512500Y-69475000D03*
%TD*%
%TO.C,D47*%
X13975000Y-72775000D03*
X13975000Y-69475000D03*
%TD*%
D25*
%TO.C,C8*%
X34375000Y-57925000D03*
X34375000Y-59475000D03*
%TD*%
D17*
%TO.C,D76*%
X336800000Y-16250000D03*
X336800000Y-12950000D03*
%TD*%
%TO.C,D11*%
X214000000Y-15625000D03*
X214000000Y-12325000D03*
%TD*%
%TO.C,D25*%
X204475000Y-34675000D03*
X204475000Y-31375000D03*
%TD*%
%TO.C,D2*%
X42550000Y-15625000D03*
X42550000Y-12325000D03*
%TD*%
D29*
%TO.C,R12*%
X321800000Y-11200000D03*
X321800000Y-9550000D03*
%TD*%
D39*
%TO.C,U2*%
X25259828Y-43388864D03*
X25613381Y-43035311D03*
X25966935Y-42681757D03*
X26320488Y-42328204D03*
X26674041Y-41974651D03*
X27027595Y-41621097D03*
X27381148Y-41267544D03*
X27734702Y-40913990D03*
X28088255Y-40560437D03*
X28441808Y-40206884D03*
X28795362Y-39853330D03*
X29148915Y-39499777D03*
D40*
X30121187Y-39499777D03*
X30474740Y-39853330D03*
X30828294Y-40206884D03*
X31181847Y-40560437D03*
X31535400Y-40913990D03*
X31888954Y-41267544D03*
X32242507Y-41621097D03*
X32596061Y-41974651D03*
X32949614Y-42328204D03*
X33303167Y-42681757D03*
X33656721Y-43035311D03*
X34010274Y-43388864D03*
D39*
X34010274Y-44361136D03*
X33656721Y-44714689D03*
X33303167Y-45068243D03*
X32949614Y-45421796D03*
X32596061Y-45775349D03*
X32242507Y-46128903D03*
X31888954Y-46482456D03*
X31535400Y-46836010D03*
X31181847Y-47189563D03*
X30828294Y-47543116D03*
X30474740Y-47896670D03*
X30121187Y-48250223D03*
D40*
X29148915Y-48250223D03*
X28795362Y-47896670D03*
X28441808Y-47543116D03*
X28088255Y-47189563D03*
X27734702Y-46836010D03*
X27381148Y-46482456D03*
X27027595Y-46128903D03*
X26674041Y-45775349D03*
X26320488Y-45421796D03*
X25966935Y-45068243D03*
X25613381Y-44714689D03*
X25259828Y-44361136D03*
D41*
X29635051Y-43875000D03*
%TD*%
D17*
%TO.C,D20*%
X109225000Y-34675000D03*
X109225000Y-31375000D03*
%TD*%
%TO.C,D16*%
X13975000Y-34675000D03*
X13975000Y-31375000D03*
%TD*%
%TO.C,D36*%
X113987500Y-53725000D03*
X113987500Y-50425000D03*
%TD*%
D42*
%TO.C,U1*%
X32625000Y-59837500D03*
X31675000Y-59837500D03*
X30725000Y-59837500D03*
X30725000Y-57562500D03*
X32625000Y-57562500D03*
%TD*%
D43*
%TO.C,C15*%
X318600000Y-11150001D03*
X318600000Y-9600001D03*
%TD*%
D17*
%TO.C,D77*%
X309250000Y-15625000D03*
X309250000Y-12325000D03*
%TD*%
M02*
