%TF.GenerationSoftware,KiCad,Pcbnew,8.0.8*%
%TF.CreationDate,2025-02-13T20:03:08-06:00*%
%TF.ProjectId,kb,6b622e6b-6963-4616-945f-706362585858,rev?*%
%TF.SameCoordinates,Original*%
%TF.FileFunction,Profile,NP*%
%FSLAX46Y46*%
G04 Gerber Fmt 4.6, Leading zero omitted, Abs format (unit mm)*
G04 Created by KiCad (PCBNEW 8.0.8) date 2025-02-13 20:03:08*
%MOMM*%
%LPD*%
G01*
G04 APERTURE LIST*
%TA.AperFunction,Profile*%
%ADD10C,0.050000*%
%TD*%
G04 APERTURE END LIST*
D10*
X21750000Y-50000D02*
X139075000Y-50000D01*
X196225000Y-50000D02*
G75*
G02*
X197225000Y-1050000I0J-1000000D01*
G01*
X145575000Y-50000D02*
X196225000Y-50000D01*
X144575000Y-1050000D02*
G75*
G02*
X145575000Y-50000I1000000J0D01*
G01*
X326550000Y-50000D02*
X339775000Y-50000D01*
X139075000Y-50000D02*
G75*
G02*
X140075000Y-1050000I0J-1000000D01*
G01*
X202725000Y-50000D02*
X320050000Y-50000D01*
X339775000Y-50000D02*
G75*
G02*
X341775000Y-2050000I0J-2000000D01*
G01*
X244850000Y-97800000D02*
G75*
G02*
X249350000Y-97800000I2250000J0D01*
G01*
X341775000Y-96800000D02*
G75*
G02*
X339775000Y-98800000I-2000000J0D01*
G01*
X325550000Y-1050000D02*
G75*
G02*
X321050000Y-1050000I-2250000J0D01*
G01*
X2025000Y-98800000D02*
G75*
G02*
X25000Y-96800000I0J2000000D01*
G01*
X201725000Y-1050000D02*
G75*
G02*
X197225000Y-1050000I-2250000J0D01*
G01*
X25000Y-2050000D02*
G75*
G02*
X2025000Y-50000I2000000J0D01*
G01*
X144575000Y-1050000D02*
G75*
G02*
X140075000Y-1050000I-2250000J0D01*
G01*
X78900000Y-98800000D02*
X243850000Y-98800000D01*
X15250000Y-50000D02*
G75*
G02*
X16250000Y-1050000I0J-1000000D01*
G01*
X20750000Y-1050000D02*
G75*
G02*
X21750000Y-50000I1000000J0D01*
G01*
X78900000Y-98800000D02*
G75*
G02*
X77900000Y-97800000I0J1000000D01*
G01*
X73400000Y-97800000D02*
G75*
G02*
X72400000Y-98800000I-1000000J0D01*
G01*
X2025000Y-98800000D02*
X72400000Y-98800000D01*
X20750000Y-1050000D02*
G75*
G02*
X16250000Y-1050000I-2250000J0D01*
G01*
X244850000Y-97800000D02*
G75*
G02*
X243850000Y-98800000I-1000000J0D01*
G01*
X250350000Y-98800000D02*
X339775000Y-98800000D01*
X325550000Y-1050000D02*
G75*
G02*
X326550000Y-50000I1000000J0D01*
G01*
X320050000Y-50000D02*
G75*
G02*
X321050000Y-1050000I0J-1000000D01*
G01*
X201725000Y-1050000D02*
G75*
G02*
X202725000Y-50000I1000000J0D01*
G01*
X2025000Y-50000D02*
X15250000Y-50000D01*
X25000Y-96800000D02*
X25000Y-2050000D01*
X250350000Y-98800000D02*
G75*
G02*
X249350000Y-97800000I0J1000000D01*
G01*
X341775000Y-96800000D02*
X341775000Y-2050000D01*
X73400000Y-97800000D02*
G75*
G02*
X77900000Y-97800000I2250000J0D01*
G01*
M02*
