%TF.GenerationSoftware,KiCad,Pcbnew,8.0.8*%
%TF.CreationDate,2025-02-24T19:32:54-06:00*%
%TF.ProjectId,kb,6b622e6b-6963-4616-945f-706362585858,rev?*%
%TF.SameCoordinates,Original*%
%TF.FileFunction,Legend,Top*%
%TF.FilePolarity,Positive*%
%FSLAX46Y46*%
G04 Gerber Fmt 4.6, Leading zero omitted, Abs format (unit mm)*
G04 Created by KiCad (PCBNEW 8.0.8) date 2025-02-24 19:32:54*
%MOMM*%
%LPD*%
G01*
G04 APERTURE LIST*
%ADD10C,0.400000*%
%ADD11C,0.100000*%
%ADD12C,0.150000*%
%ADD13C,0.120000*%
G04 APERTURE END LIST*
D10*
G36*
X201722104Y-91891856D02*
G01*
X192386017Y-91891856D01*
X192386017Y-89459246D01*
X192663795Y-89459246D01*
X192923303Y-89776151D01*
X193026361Y-89683331D01*
X193124122Y-89609043D01*
X193237690Y-89542746D01*
X193370059Y-89494400D01*
X193508317Y-89474289D01*
X193549786Y-89473290D01*
X193672629Y-89487176D01*
X193794227Y-89535171D01*
X193895916Y-89624906D01*
X193947745Y-89743622D01*
X193952176Y-89793859D01*
X193935506Y-89918654D01*
X193880352Y-90041751D01*
X193803337Y-90146518D01*
X193752508Y-90202965D01*
X192730351Y-91246493D01*
X192730351Y-91575000D01*
X194438830Y-91575000D01*
X194438830Y-91330757D01*
X194718488Y-91330757D01*
X194746871Y-91452454D01*
X194822671Y-91548541D01*
X194931872Y-91604998D01*
X195001810Y-91614078D01*
X195123508Y-91585696D01*
X195219595Y-91509895D01*
X195276051Y-91400695D01*
X195285132Y-91330757D01*
X195256749Y-91206756D01*
X195180949Y-91109615D01*
X195071748Y-91052866D01*
X195001810Y-91043771D01*
X194880112Y-91072235D01*
X194784025Y-91148606D01*
X194727569Y-91259355D01*
X194718488Y-91330757D01*
X194438830Y-91330757D01*
X194438830Y-91182990D01*
X193322030Y-91186653D01*
X194063917Y-90435607D01*
X194148849Y-90345691D01*
X194235781Y-90239235D01*
X194302699Y-90137040D01*
X194358631Y-90016512D01*
X194390348Y-89894196D01*
X194400362Y-89765771D01*
X194384803Y-89617884D01*
X194339549Y-89484052D01*
X194324246Y-89459246D01*
X195543418Y-89459246D01*
X195802927Y-89776151D01*
X195905984Y-89683331D01*
X196003745Y-89609043D01*
X196117313Y-89542746D01*
X196249682Y-89494400D01*
X196387940Y-89474289D01*
X196429409Y-89473290D01*
X196552252Y-89487176D01*
X196673850Y-89535171D01*
X196775539Y-89624906D01*
X196827368Y-89743622D01*
X196831800Y-89793859D01*
X196815129Y-89918654D01*
X196759976Y-90041751D01*
X196682960Y-90146518D01*
X196632131Y-90202965D01*
X195609975Y-91246493D01*
X195609975Y-91575000D01*
X197318453Y-91575000D01*
X197318453Y-91285572D01*
X197562696Y-91285572D01*
X197681496Y-91379463D01*
X197807521Y-91457816D01*
X197940394Y-91520476D01*
X198079739Y-91567292D01*
X198225176Y-91598108D01*
X198376329Y-91612771D01*
X198438307Y-91614078D01*
X198595470Y-91605356D01*
X198741723Y-91579717D01*
X198876072Y-91537956D01*
X198997524Y-91480867D01*
X199105085Y-91409244D01*
X199197764Y-91323880D01*
X199274565Y-91225570D01*
X199334497Y-91115107D01*
X199376566Y-90993286D01*
X199395978Y-90882571D01*
X199729130Y-90882571D01*
X199742735Y-91038649D01*
X199782215Y-91180023D01*
X199845565Y-91304809D01*
X199930783Y-91411128D01*
X200035865Y-91497096D01*
X200158807Y-91560832D01*
X200297606Y-91600453D01*
X200450257Y-91614078D01*
X200579234Y-91605120D01*
X200699631Y-91578527D01*
X200825837Y-91527081D01*
X200938905Y-91453783D01*
X200964999Y-91432117D01*
X200964999Y-91575000D01*
X201444326Y-91575000D01*
X201444326Y-89738293D01*
X200964999Y-89738293D01*
X200964999Y-91016905D01*
X200871457Y-91111623D01*
X200755622Y-91173874D01*
X200632216Y-91199551D01*
X200587033Y-91201308D01*
X200449386Y-91180178D01*
X200338468Y-91119576D01*
X200258920Y-91023682D01*
X200215382Y-90896676D01*
X200208457Y-90811741D01*
X200208457Y-89738293D01*
X199729130Y-89738293D01*
X199729130Y-90882571D01*
X199395978Y-90882571D01*
X199399778Y-90860901D01*
X199404287Y-90767166D01*
X199395745Y-90642854D01*
X199358767Y-90491363D01*
X199294314Y-90357654D01*
X199204320Y-90243354D01*
X199090717Y-90150085D01*
X198955435Y-90079473D01*
X198800408Y-90033141D01*
X198672341Y-90015303D01*
X198581800Y-90011845D01*
X198457916Y-90018452D01*
X198327593Y-90040934D01*
X198205356Y-90077474D01*
X198109190Y-90116870D01*
X198137278Y-89505652D01*
X199274839Y-89505652D01*
X199274839Y-89113032D01*
X197731224Y-89113032D01*
X197671384Y-90397749D01*
X198004165Y-90498499D01*
X198116698Y-90441951D01*
X198238710Y-90397565D01*
X198359554Y-90373619D01*
X198441360Y-90369050D01*
X198569741Y-90381532D01*
X198704633Y-90427148D01*
X198813644Y-90502288D01*
X198891510Y-90602821D01*
X198932965Y-90724619D01*
X198938394Y-90792201D01*
X198918752Y-90926141D01*
X198862402Y-91039143D01*
X198773208Y-91127657D01*
X198655034Y-91188132D01*
X198511744Y-91217020D01*
X198459067Y-91219016D01*
X198334963Y-91210825D01*
X198197928Y-91179440D01*
X198084132Y-91132419D01*
X197970964Y-91065528D01*
X197855815Y-90977533D01*
X197836248Y-90960729D01*
X197562696Y-91285572D01*
X197318453Y-91285572D01*
X197318453Y-91182990D01*
X196201653Y-91186653D01*
X196943541Y-90435607D01*
X197028472Y-90345691D01*
X197115404Y-90239235D01*
X197182323Y-90137040D01*
X197238254Y-90016512D01*
X197269971Y-89894196D01*
X197279985Y-89765771D01*
X197264427Y-89617884D01*
X197219172Y-89484052D01*
X197146355Y-89366019D01*
X197048107Y-89265531D01*
X196926560Y-89184334D01*
X196783848Y-89124175D01*
X196664206Y-89093912D01*
X196534757Y-89077201D01*
X196443453Y-89073953D01*
X196292698Y-89083460D01*
X196145589Y-89111907D01*
X196002199Y-89159182D01*
X195890210Y-89210483D01*
X195780681Y-89273705D01*
X195673647Y-89348792D01*
X195569144Y-89435685D01*
X195543418Y-89459246D01*
X194324246Y-89459246D01*
X194266732Y-89366019D01*
X194168484Y-89265531D01*
X194046937Y-89184334D01*
X193904225Y-89124175D01*
X193784583Y-89093912D01*
X193655134Y-89077201D01*
X193563830Y-89073953D01*
X193413074Y-89083460D01*
X193265966Y-89111907D01*
X193122576Y-89159182D01*
X193010587Y-89210483D01*
X192901057Y-89273705D01*
X192794024Y-89348792D01*
X192689521Y-89435685D01*
X192663795Y-89459246D01*
X192386017Y-89459246D01*
X192386017Y-88796175D01*
X201722104Y-88796175D01*
X201722104Y-91891856D01*
G37*
G36*
X67980094Y-91891856D02*
G01*
X59396886Y-91891856D01*
X59396886Y-89380478D01*
X59674664Y-89380478D01*
X59674664Y-89803018D01*
X60153991Y-89602128D01*
X60153991Y-91575000D01*
X60633928Y-91575000D01*
X60633928Y-91330757D01*
X60976479Y-91330757D01*
X61004861Y-91452454D01*
X61080662Y-91548541D01*
X61189862Y-91604998D01*
X61259800Y-91614078D01*
X61381498Y-91585696D01*
X61477585Y-91509895D01*
X61534042Y-91400695D01*
X61543122Y-91330757D01*
X61514740Y-91206756D01*
X61438939Y-91109615D01*
X61329739Y-91052866D01*
X61259800Y-91043771D01*
X61138103Y-91072235D01*
X61042016Y-91148606D01*
X60985559Y-91259355D01*
X60976479Y-91330757D01*
X60633928Y-91330757D01*
X60633928Y-89459246D01*
X61801409Y-89459246D01*
X62060917Y-89776151D01*
X62163975Y-89683331D01*
X62261735Y-89609043D01*
X62375303Y-89542746D01*
X62507672Y-89494400D01*
X62645930Y-89474289D01*
X62687400Y-89473290D01*
X62810243Y-89487176D01*
X62931841Y-89535171D01*
X63033530Y-89624906D01*
X63085358Y-89743622D01*
X63089790Y-89793859D01*
X63073120Y-89918654D01*
X63017966Y-90041751D01*
X62940951Y-90146518D01*
X62890121Y-90202965D01*
X61867965Y-91246493D01*
X61867965Y-91575000D01*
X63576444Y-91575000D01*
X63576444Y-91285572D01*
X63820687Y-91285572D01*
X63939486Y-91379463D01*
X64065512Y-91457816D01*
X64198385Y-91520476D01*
X64337729Y-91567292D01*
X64483166Y-91598108D01*
X64634320Y-91612771D01*
X64696297Y-91614078D01*
X64853461Y-91605356D01*
X64999714Y-91579717D01*
X65134063Y-91537956D01*
X65255514Y-91480867D01*
X65363076Y-91409244D01*
X65455754Y-91323880D01*
X65532556Y-91225570D01*
X65592487Y-91115107D01*
X65634556Y-90993286D01*
X65653969Y-90882571D01*
X65987121Y-90882571D01*
X66000726Y-91038649D01*
X66040205Y-91180023D01*
X66103556Y-91304809D01*
X66188774Y-91411128D01*
X66293855Y-91497096D01*
X66416797Y-91560832D01*
X66555596Y-91600453D01*
X66708248Y-91614078D01*
X66837224Y-91605120D01*
X66957621Y-91578527D01*
X67083827Y-91527081D01*
X67196896Y-91453783D01*
X67222990Y-91432117D01*
X67222990Y-91575000D01*
X67702316Y-91575000D01*
X67702316Y-89738293D01*
X67222990Y-89738293D01*
X67222990Y-91016905D01*
X67129448Y-91111623D01*
X67013612Y-91173874D01*
X66890206Y-91199551D01*
X66845024Y-91201308D01*
X66707377Y-91180178D01*
X66596459Y-91119576D01*
X66516911Y-91023682D01*
X66473373Y-90896676D01*
X66466447Y-90811741D01*
X66466447Y-89738293D01*
X65987121Y-89738293D01*
X65987121Y-90882571D01*
X65653969Y-90882571D01*
X65657769Y-90860901D01*
X65662278Y-90767166D01*
X65653736Y-90642854D01*
X65616757Y-90491363D01*
X65552305Y-90357654D01*
X65462311Y-90243354D01*
X65348707Y-90150085D01*
X65213426Y-90079473D01*
X65058398Y-90033141D01*
X64930332Y-90015303D01*
X64839790Y-90011845D01*
X64715906Y-90018452D01*
X64585583Y-90040934D01*
X64463347Y-90077474D01*
X64367180Y-90116870D01*
X64395268Y-89505652D01*
X65532829Y-89505652D01*
X65532829Y-89113032D01*
X63989214Y-89113032D01*
X63929375Y-90397749D01*
X64262156Y-90498499D01*
X64374689Y-90441951D01*
X64496701Y-90397565D01*
X64617545Y-90373619D01*
X64699350Y-90369050D01*
X64827732Y-90381532D01*
X64962624Y-90427148D01*
X65071635Y-90502288D01*
X65149500Y-90602821D01*
X65190956Y-90724619D01*
X65196385Y-90792201D01*
X65176743Y-90926141D01*
X65120393Y-91039143D01*
X65031199Y-91127657D01*
X64913025Y-91188132D01*
X64769735Y-91217020D01*
X64717058Y-91219016D01*
X64592954Y-91210825D01*
X64455919Y-91179440D01*
X64342122Y-91132419D01*
X64228954Y-91065528D01*
X64113806Y-90977533D01*
X64094239Y-90960729D01*
X63820687Y-91285572D01*
X63576444Y-91285572D01*
X63576444Y-91182990D01*
X62459643Y-91186653D01*
X63201531Y-90435607D01*
X63286463Y-90345691D01*
X63373394Y-90239235D01*
X63440313Y-90137040D01*
X63496244Y-90016512D01*
X63527961Y-89894196D01*
X63537976Y-89765771D01*
X63522417Y-89617884D01*
X63477163Y-89484052D01*
X63404346Y-89366019D01*
X63306098Y-89265531D01*
X63184551Y-89184334D01*
X63041838Y-89124175D01*
X62922196Y-89093912D01*
X62792747Y-89077201D01*
X62701444Y-89073953D01*
X62550688Y-89083460D01*
X62403580Y-89111907D01*
X62260189Y-89159182D01*
X62148200Y-89210483D01*
X62038671Y-89273705D01*
X61931637Y-89348792D01*
X61827135Y-89435685D01*
X61801409Y-89459246D01*
X60633928Y-89459246D01*
X60633928Y-89113032D01*
X60332899Y-89113032D01*
X59674664Y-89380478D01*
X59396886Y-89380478D01*
X59396886Y-88796175D01*
X67980094Y-88796175D01*
X67980094Y-91891856D01*
G37*
G36*
X264616343Y-91891856D02*
G01*
X258048138Y-91891856D01*
X258048138Y-89380478D01*
X258325916Y-89380478D01*
X258325916Y-89803018D01*
X258805243Y-89602128D01*
X258805243Y-91575000D01*
X259285180Y-91575000D01*
X259285180Y-91330757D01*
X259627731Y-91330757D01*
X259656113Y-91452454D01*
X259731914Y-91548541D01*
X259841114Y-91604998D01*
X259911052Y-91614078D01*
X260032750Y-91585696D01*
X260128837Y-91509895D01*
X260185294Y-91400695D01*
X260194374Y-91330757D01*
X260184032Y-91285572D01*
X260456935Y-91285572D01*
X260575735Y-91379463D01*
X260701760Y-91457816D01*
X260834633Y-91520476D01*
X260973978Y-91567292D01*
X261119415Y-91598108D01*
X261270568Y-91612771D01*
X261332546Y-91614078D01*
X261489709Y-91605356D01*
X261635962Y-91579717D01*
X261770311Y-91537956D01*
X261891763Y-91480867D01*
X261999324Y-91409244D01*
X262092003Y-91323880D01*
X262168804Y-91225570D01*
X262228736Y-91115107D01*
X262270805Y-90993286D01*
X262290217Y-90882571D01*
X262623369Y-90882571D01*
X262636974Y-91038649D01*
X262676454Y-91180023D01*
X262739804Y-91304809D01*
X262825022Y-91411128D01*
X262930104Y-91497096D01*
X263053046Y-91560832D01*
X263191844Y-91600453D01*
X263344496Y-91614078D01*
X263473473Y-91605120D01*
X263593870Y-91578527D01*
X263720076Y-91527081D01*
X263833144Y-91453783D01*
X263859238Y-91432117D01*
X263859238Y-91575000D01*
X264338565Y-91575000D01*
X264338565Y-89738293D01*
X263859238Y-89738293D01*
X263859238Y-91016905D01*
X263765696Y-91111623D01*
X263649861Y-91173874D01*
X263526455Y-91199551D01*
X263481272Y-91201308D01*
X263343625Y-91180178D01*
X263232707Y-91119576D01*
X263153159Y-91023682D01*
X263109621Y-90896676D01*
X263102696Y-90811741D01*
X263102696Y-89738293D01*
X262623369Y-89738293D01*
X262623369Y-90882571D01*
X262290217Y-90882571D01*
X262294017Y-90860901D01*
X262298526Y-90767166D01*
X262289984Y-90642854D01*
X262253006Y-90491363D01*
X262188553Y-90357654D01*
X262098559Y-90243354D01*
X261984956Y-90150085D01*
X261849674Y-90079473D01*
X261694647Y-90033141D01*
X261566580Y-90015303D01*
X261476038Y-90011845D01*
X261352155Y-90018452D01*
X261221832Y-90040934D01*
X261099595Y-90077474D01*
X261003429Y-90116870D01*
X261031516Y-89505652D01*
X262169078Y-89505652D01*
X262169078Y-89113032D01*
X260625463Y-89113032D01*
X260565623Y-90397749D01*
X260898404Y-90498499D01*
X261010937Y-90441951D01*
X261132949Y-90397565D01*
X261253793Y-90373619D01*
X261335599Y-90369050D01*
X261463980Y-90381532D01*
X261598872Y-90427148D01*
X261707883Y-90502288D01*
X261785749Y-90602821D01*
X261827204Y-90724619D01*
X261832633Y-90792201D01*
X261812991Y-90926141D01*
X261756641Y-91039143D01*
X261667447Y-91127657D01*
X261549273Y-91188132D01*
X261405983Y-91217020D01*
X261353306Y-91219016D01*
X261229202Y-91210825D01*
X261092167Y-91179440D01*
X260978371Y-91132419D01*
X260865203Y-91065528D01*
X260750054Y-90977533D01*
X260730487Y-90960729D01*
X260456935Y-91285572D01*
X260184032Y-91285572D01*
X260165992Y-91206756D01*
X260090191Y-91109615D01*
X259980991Y-91052866D01*
X259911052Y-91043771D01*
X259789355Y-91072235D01*
X259693268Y-91148606D01*
X259636811Y-91259355D01*
X259627731Y-91330757D01*
X259285180Y-91330757D01*
X259285180Y-89113032D01*
X258984151Y-89113032D01*
X258325916Y-89380478D01*
X258048138Y-89380478D01*
X258048138Y-88835254D01*
X264616343Y-88835254D01*
X264616343Y-91891856D01*
G37*
G36*
X125522104Y-91891856D02*
G01*
X116186017Y-91891856D01*
X116186017Y-89459246D01*
X116463795Y-89459246D01*
X116723303Y-89776151D01*
X116826361Y-89683331D01*
X116924122Y-89609043D01*
X117037690Y-89542746D01*
X117170059Y-89494400D01*
X117308317Y-89474289D01*
X117349786Y-89473290D01*
X117472629Y-89487176D01*
X117594227Y-89535171D01*
X117695916Y-89624906D01*
X117747745Y-89743622D01*
X117752176Y-89793859D01*
X117735506Y-89918654D01*
X117680352Y-90041751D01*
X117603337Y-90146518D01*
X117552508Y-90202965D01*
X116530351Y-91246493D01*
X116530351Y-91575000D01*
X118238830Y-91575000D01*
X118238830Y-91330757D01*
X118518488Y-91330757D01*
X118546871Y-91452454D01*
X118622671Y-91548541D01*
X118731872Y-91604998D01*
X118801810Y-91614078D01*
X118923508Y-91585696D01*
X119019595Y-91509895D01*
X119076051Y-91400695D01*
X119085132Y-91330757D01*
X119056749Y-91206756D01*
X118980949Y-91109615D01*
X118871748Y-91052866D01*
X118801810Y-91043771D01*
X118680112Y-91072235D01*
X118584025Y-91148606D01*
X118527569Y-91259355D01*
X118518488Y-91330757D01*
X118238830Y-91330757D01*
X118238830Y-91182990D01*
X117122030Y-91186653D01*
X117863917Y-90435607D01*
X117948849Y-90345691D01*
X118035781Y-90239235D01*
X118102699Y-90137040D01*
X118158631Y-90016512D01*
X118190348Y-89894196D01*
X118200362Y-89765771D01*
X118184803Y-89617884D01*
X118139549Y-89484052D01*
X118124246Y-89459246D01*
X119343418Y-89459246D01*
X119602927Y-89776151D01*
X119705984Y-89683331D01*
X119803745Y-89609043D01*
X119917313Y-89542746D01*
X120049682Y-89494400D01*
X120187940Y-89474289D01*
X120229409Y-89473290D01*
X120352252Y-89487176D01*
X120473850Y-89535171D01*
X120575539Y-89624906D01*
X120627368Y-89743622D01*
X120631800Y-89793859D01*
X120615129Y-89918654D01*
X120559976Y-90041751D01*
X120482960Y-90146518D01*
X120432131Y-90202965D01*
X119409975Y-91246493D01*
X119409975Y-91575000D01*
X121118453Y-91575000D01*
X121118453Y-91285572D01*
X121362696Y-91285572D01*
X121481496Y-91379463D01*
X121607521Y-91457816D01*
X121740394Y-91520476D01*
X121879739Y-91567292D01*
X122025176Y-91598108D01*
X122176329Y-91612771D01*
X122238307Y-91614078D01*
X122395470Y-91605356D01*
X122541723Y-91579717D01*
X122676072Y-91537956D01*
X122797524Y-91480867D01*
X122905085Y-91409244D01*
X122997764Y-91323880D01*
X123074565Y-91225570D01*
X123134497Y-91115107D01*
X123176566Y-90993286D01*
X123195978Y-90882571D01*
X123529130Y-90882571D01*
X123542735Y-91038649D01*
X123582215Y-91180023D01*
X123645565Y-91304809D01*
X123730783Y-91411128D01*
X123835865Y-91497096D01*
X123958807Y-91560832D01*
X124097606Y-91600453D01*
X124250257Y-91614078D01*
X124379234Y-91605120D01*
X124499631Y-91578527D01*
X124625837Y-91527081D01*
X124738905Y-91453783D01*
X124764999Y-91432117D01*
X124764999Y-91575000D01*
X125244326Y-91575000D01*
X125244326Y-89738293D01*
X124764999Y-89738293D01*
X124764999Y-91016905D01*
X124671457Y-91111623D01*
X124555622Y-91173874D01*
X124432216Y-91199551D01*
X124387033Y-91201308D01*
X124249386Y-91180178D01*
X124138468Y-91119576D01*
X124058920Y-91023682D01*
X124015382Y-90896676D01*
X124008457Y-90811741D01*
X124008457Y-89738293D01*
X123529130Y-89738293D01*
X123529130Y-90882571D01*
X123195978Y-90882571D01*
X123199778Y-90860901D01*
X123204287Y-90767166D01*
X123195745Y-90642854D01*
X123158767Y-90491363D01*
X123094314Y-90357654D01*
X123004320Y-90243354D01*
X122890717Y-90150085D01*
X122755435Y-90079473D01*
X122600408Y-90033141D01*
X122472341Y-90015303D01*
X122381800Y-90011845D01*
X122257916Y-90018452D01*
X122127593Y-90040934D01*
X122005356Y-90077474D01*
X121909190Y-90116870D01*
X121937278Y-89505652D01*
X123074839Y-89505652D01*
X123074839Y-89113032D01*
X121531224Y-89113032D01*
X121471384Y-90397749D01*
X121804165Y-90498499D01*
X121916698Y-90441951D01*
X122038710Y-90397565D01*
X122159554Y-90373619D01*
X122241360Y-90369050D01*
X122369741Y-90381532D01*
X122504633Y-90427148D01*
X122613644Y-90502288D01*
X122691510Y-90602821D01*
X122732965Y-90724619D01*
X122738394Y-90792201D01*
X122718752Y-90926141D01*
X122662402Y-91039143D01*
X122573208Y-91127657D01*
X122455034Y-91188132D01*
X122311744Y-91217020D01*
X122259067Y-91219016D01*
X122134963Y-91210825D01*
X121997928Y-91179440D01*
X121884132Y-91132419D01*
X121770964Y-91065528D01*
X121655815Y-90977533D01*
X121636248Y-90960729D01*
X121362696Y-91285572D01*
X121118453Y-91285572D01*
X121118453Y-91182990D01*
X120001653Y-91186653D01*
X120743541Y-90435607D01*
X120828472Y-90345691D01*
X120915404Y-90239235D01*
X120982323Y-90137040D01*
X121038254Y-90016512D01*
X121069971Y-89894196D01*
X121079985Y-89765771D01*
X121064427Y-89617884D01*
X121019172Y-89484052D01*
X120946355Y-89366019D01*
X120848107Y-89265531D01*
X120726560Y-89184334D01*
X120583848Y-89124175D01*
X120464206Y-89093912D01*
X120334757Y-89077201D01*
X120243453Y-89073953D01*
X120092698Y-89083460D01*
X119945589Y-89111907D01*
X119802199Y-89159182D01*
X119690210Y-89210483D01*
X119580681Y-89273705D01*
X119473647Y-89348792D01*
X119369144Y-89435685D01*
X119343418Y-89459246D01*
X118124246Y-89459246D01*
X118066732Y-89366019D01*
X117968484Y-89265531D01*
X117846937Y-89184334D01*
X117704225Y-89124175D01*
X117584583Y-89093912D01*
X117455134Y-89077201D01*
X117363830Y-89073953D01*
X117213074Y-89083460D01*
X117065966Y-89111907D01*
X116922576Y-89159182D01*
X116810587Y-89210483D01*
X116701057Y-89273705D01*
X116594024Y-89348792D01*
X116489521Y-89435685D01*
X116463795Y-89459246D01*
X116186017Y-89459246D01*
X116186017Y-88796175D01*
X125522104Y-88796175D01*
X125522104Y-91891856D01*
G37*
G36*
X296972104Y-53891856D02*
G01*
X287636017Y-53891856D01*
X287636017Y-51459246D01*
X287913795Y-51459246D01*
X288173303Y-51776151D01*
X288276361Y-51683331D01*
X288374122Y-51609043D01*
X288487690Y-51542746D01*
X288620059Y-51494400D01*
X288758317Y-51474289D01*
X288799786Y-51473290D01*
X288922629Y-51487176D01*
X289044227Y-51535171D01*
X289145916Y-51624906D01*
X289197745Y-51743622D01*
X289202176Y-51793859D01*
X289185506Y-51918654D01*
X289130352Y-52041751D01*
X289053337Y-52146518D01*
X289002508Y-52202965D01*
X287980351Y-53246493D01*
X287980351Y-53575000D01*
X289688830Y-53575000D01*
X289688830Y-53330757D01*
X289968488Y-53330757D01*
X289996871Y-53452454D01*
X290072671Y-53548541D01*
X290181872Y-53604998D01*
X290251810Y-53614078D01*
X290373508Y-53585696D01*
X290469595Y-53509895D01*
X290526051Y-53400695D01*
X290535132Y-53330757D01*
X290506749Y-53206756D01*
X290430949Y-53109615D01*
X290321748Y-53052866D01*
X290251810Y-53043771D01*
X290130112Y-53072235D01*
X290034025Y-53148606D01*
X289977569Y-53259355D01*
X289968488Y-53330757D01*
X289688830Y-53330757D01*
X289688830Y-53182990D01*
X288572030Y-53186653D01*
X289313917Y-52435607D01*
X289398849Y-52345691D01*
X289485781Y-52239235D01*
X289552699Y-52137040D01*
X289608631Y-52016512D01*
X289640348Y-51894196D01*
X289650362Y-51765771D01*
X289634803Y-51617884D01*
X289589549Y-51484052D01*
X289574246Y-51459246D01*
X290793418Y-51459246D01*
X291052927Y-51776151D01*
X291155984Y-51683331D01*
X291253745Y-51609043D01*
X291367313Y-51542746D01*
X291499682Y-51494400D01*
X291637940Y-51474289D01*
X291679409Y-51473290D01*
X291802252Y-51487176D01*
X291923850Y-51535171D01*
X292025539Y-51624906D01*
X292077368Y-51743622D01*
X292081800Y-51793859D01*
X292065129Y-51918654D01*
X292009976Y-52041751D01*
X291932960Y-52146518D01*
X291882131Y-52202965D01*
X290859975Y-53246493D01*
X290859975Y-53575000D01*
X292568453Y-53575000D01*
X292568453Y-53285572D01*
X292812696Y-53285572D01*
X292931496Y-53379463D01*
X293057521Y-53457816D01*
X293190394Y-53520476D01*
X293329739Y-53567292D01*
X293475176Y-53598108D01*
X293626329Y-53612771D01*
X293688307Y-53614078D01*
X293845470Y-53605356D01*
X293991723Y-53579717D01*
X294126072Y-53537956D01*
X294247524Y-53480867D01*
X294355085Y-53409244D01*
X294447764Y-53323880D01*
X294524565Y-53225570D01*
X294584497Y-53115107D01*
X294626566Y-52993286D01*
X294645978Y-52882571D01*
X294979130Y-52882571D01*
X294992735Y-53038649D01*
X295032215Y-53180023D01*
X295095565Y-53304809D01*
X295180783Y-53411128D01*
X295285865Y-53497096D01*
X295408807Y-53560832D01*
X295547606Y-53600453D01*
X295700257Y-53614078D01*
X295829234Y-53605120D01*
X295949631Y-53578527D01*
X296075837Y-53527081D01*
X296188905Y-53453783D01*
X296214999Y-53432117D01*
X296214999Y-53575000D01*
X296694326Y-53575000D01*
X296694326Y-51738293D01*
X296214999Y-51738293D01*
X296214999Y-53016905D01*
X296121457Y-53111623D01*
X296005622Y-53173874D01*
X295882216Y-53199551D01*
X295837033Y-53201308D01*
X295699386Y-53180178D01*
X295588468Y-53119576D01*
X295508920Y-53023682D01*
X295465382Y-52896676D01*
X295458457Y-52811741D01*
X295458457Y-51738293D01*
X294979130Y-51738293D01*
X294979130Y-52882571D01*
X294645978Y-52882571D01*
X294649778Y-52860901D01*
X294654287Y-52767166D01*
X294645745Y-52642854D01*
X294608767Y-52491363D01*
X294544314Y-52357654D01*
X294454320Y-52243354D01*
X294340717Y-52150085D01*
X294205435Y-52079473D01*
X294050408Y-52033141D01*
X293922341Y-52015303D01*
X293831800Y-52011845D01*
X293707916Y-52018452D01*
X293577593Y-52040934D01*
X293455356Y-52077474D01*
X293359190Y-52116870D01*
X293387278Y-51505652D01*
X294524839Y-51505652D01*
X294524839Y-51113032D01*
X292981224Y-51113032D01*
X292921384Y-52397749D01*
X293254165Y-52498499D01*
X293366698Y-52441951D01*
X293488710Y-52397565D01*
X293609554Y-52373619D01*
X293691360Y-52369050D01*
X293819741Y-52381532D01*
X293954633Y-52427148D01*
X294063644Y-52502288D01*
X294141510Y-52602821D01*
X294182965Y-52724619D01*
X294188394Y-52792201D01*
X294168752Y-52926141D01*
X294112402Y-53039143D01*
X294023208Y-53127657D01*
X293905034Y-53188132D01*
X293761744Y-53217020D01*
X293709067Y-53219016D01*
X293584963Y-53210825D01*
X293447928Y-53179440D01*
X293334132Y-53132419D01*
X293220964Y-53065528D01*
X293105815Y-52977533D01*
X293086248Y-52960729D01*
X292812696Y-53285572D01*
X292568453Y-53285572D01*
X292568453Y-53182990D01*
X291451653Y-53186653D01*
X292193541Y-52435607D01*
X292278472Y-52345691D01*
X292365404Y-52239235D01*
X292432323Y-52137040D01*
X292488254Y-52016512D01*
X292519971Y-51894196D01*
X292529985Y-51765771D01*
X292514427Y-51617884D01*
X292469172Y-51484052D01*
X292396355Y-51366019D01*
X292298107Y-51265531D01*
X292176560Y-51184334D01*
X292033848Y-51124175D01*
X291914206Y-51093912D01*
X291784757Y-51077201D01*
X291693453Y-51073953D01*
X291542698Y-51083460D01*
X291395589Y-51111907D01*
X291252199Y-51159182D01*
X291140210Y-51210483D01*
X291030681Y-51273705D01*
X290923647Y-51348792D01*
X290819144Y-51435685D01*
X290793418Y-51459246D01*
X289574246Y-51459246D01*
X289516732Y-51366019D01*
X289418484Y-51265531D01*
X289296937Y-51184334D01*
X289154225Y-51124175D01*
X289034583Y-51093912D01*
X288905134Y-51077201D01*
X288813830Y-51073953D01*
X288663074Y-51083460D01*
X288515966Y-51111907D01*
X288372576Y-51159182D01*
X288260587Y-51210483D01*
X288151057Y-51273705D01*
X288044024Y-51348792D01*
X287939521Y-51435685D01*
X287913795Y-51459246D01*
X287636017Y-51459246D01*
X287636017Y-50796175D01*
X296972104Y-50796175D01*
X296972104Y-53891856D01*
G37*
G36*
X282235197Y-72891856D02*
G01*
X273766783Y-72891856D01*
X273766783Y-70380478D01*
X274044561Y-70380478D01*
X274044561Y-70803018D01*
X274523888Y-70602128D01*
X274523888Y-72575000D01*
X275003825Y-72575000D01*
X275003825Y-72330757D01*
X275346376Y-72330757D01*
X275374758Y-72452454D01*
X275450559Y-72548541D01*
X275559759Y-72604998D01*
X275629697Y-72614078D01*
X275751395Y-72585696D01*
X275847482Y-72509895D01*
X275903939Y-72400695D01*
X275913019Y-72330757D01*
X275884637Y-72206756D01*
X275808836Y-72109615D01*
X275699636Y-72052866D01*
X275629697Y-72043771D01*
X275508000Y-72072235D01*
X275411913Y-72148606D01*
X275355456Y-72259355D01*
X275346376Y-72330757D01*
X275003825Y-72330757D01*
X275003825Y-70516032D01*
X275953319Y-70516032D01*
X277322300Y-70516032D01*
X276226261Y-72575000D01*
X276772754Y-72575000D01*
X276915716Y-72285572D01*
X278075790Y-72285572D01*
X278194589Y-72379463D01*
X278320615Y-72457816D01*
X278453488Y-72520476D01*
X278592832Y-72567292D01*
X278738269Y-72598108D01*
X278889423Y-72612771D01*
X278951400Y-72614078D01*
X279108564Y-72605356D01*
X279254817Y-72579717D01*
X279389165Y-72537956D01*
X279510617Y-72480867D01*
X279618179Y-72409244D01*
X279710857Y-72323880D01*
X279787658Y-72225570D01*
X279847590Y-72115107D01*
X279889659Y-71993286D01*
X279909072Y-71882571D01*
X280242224Y-71882571D01*
X280255829Y-72038649D01*
X280295308Y-72180023D01*
X280358659Y-72304809D01*
X280443877Y-72411128D01*
X280548958Y-72497096D01*
X280671900Y-72560832D01*
X280810699Y-72600453D01*
X280963351Y-72614078D01*
X281092327Y-72605120D01*
X281212724Y-72578527D01*
X281338930Y-72527081D01*
X281451999Y-72453783D01*
X281478092Y-72432117D01*
X281478092Y-72575000D01*
X281957419Y-72575000D01*
X281957419Y-70738293D01*
X281478092Y-70738293D01*
X281478092Y-72016905D01*
X281384551Y-72111623D01*
X281268715Y-72173874D01*
X281145309Y-72199551D01*
X281100127Y-72201308D01*
X280962479Y-72180178D01*
X280851562Y-72119576D01*
X280772014Y-72023682D01*
X280728476Y-71896676D01*
X280721550Y-71811741D01*
X280721550Y-70738293D01*
X280242224Y-70738293D01*
X280242224Y-71882571D01*
X279909072Y-71882571D01*
X279912872Y-71860901D01*
X279917381Y-71767166D01*
X279908839Y-71642854D01*
X279871860Y-71491363D01*
X279807408Y-71357654D01*
X279717414Y-71243354D01*
X279603810Y-71150085D01*
X279468528Y-71079473D01*
X279313501Y-71033141D01*
X279185435Y-71015303D01*
X279094893Y-71011845D01*
X278971009Y-71018452D01*
X278840686Y-71040934D01*
X278718450Y-71077474D01*
X278622283Y-71116870D01*
X278650371Y-70505652D01*
X279787932Y-70505652D01*
X279787932Y-70113032D01*
X278244317Y-70113032D01*
X278184478Y-71397749D01*
X278517258Y-71498499D01*
X278629791Y-71441951D01*
X278751804Y-71397565D01*
X278872648Y-71373619D01*
X278954453Y-71369050D01*
X279082835Y-71381532D01*
X279217727Y-71427148D01*
X279326738Y-71502288D01*
X279404603Y-71602821D01*
X279446059Y-71724619D01*
X279451487Y-71792201D01*
X279431845Y-71926141D01*
X279375495Y-72039143D01*
X279286301Y-72127657D01*
X279168128Y-72188132D01*
X279024838Y-72217020D01*
X278972161Y-72219016D01*
X278848057Y-72210825D01*
X278711021Y-72179440D01*
X278597225Y-72132419D01*
X278484057Y-72065528D01*
X278368909Y-71977533D01*
X278349342Y-71960729D01*
X278075790Y-72285572D01*
X276915716Y-72285572D01*
X277819335Y-70456193D01*
X277819335Y-70113032D01*
X275953319Y-70113032D01*
X275953319Y-70516032D01*
X275003825Y-70516032D01*
X275003825Y-70113032D01*
X274702796Y-70113032D01*
X274044561Y-70380478D01*
X273766783Y-70380478D01*
X273766783Y-69835254D01*
X282235197Y-69835254D01*
X282235197Y-72891856D01*
G37*
G36*
X54084604Y-72891856D02*
G01*
X44748517Y-72891856D01*
X44748517Y-70459246D01*
X45026295Y-70459246D01*
X45285803Y-70776151D01*
X45388861Y-70683331D01*
X45486622Y-70609043D01*
X45600190Y-70542746D01*
X45732559Y-70494400D01*
X45870817Y-70474289D01*
X45912286Y-70473290D01*
X46035129Y-70487176D01*
X46156727Y-70535171D01*
X46258416Y-70624906D01*
X46310245Y-70743622D01*
X46314676Y-70793859D01*
X46298006Y-70918654D01*
X46242852Y-71041751D01*
X46165837Y-71146518D01*
X46115008Y-71202965D01*
X45092851Y-72246493D01*
X45092851Y-72575000D01*
X46801330Y-72575000D01*
X46801330Y-72330757D01*
X47080988Y-72330757D01*
X47109371Y-72452454D01*
X47185171Y-72548541D01*
X47294372Y-72604998D01*
X47364310Y-72614078D01*
X47486008Y-72585696D01*
X47582095Y-72509895D01*
X47638551Y-72400695D01*
X47647632Y-72330757D01*
X47619249Y-72206756D01*
X47543449Y-72109615D01*
X47434248Y-72052866D01*
X47364310Y-72043771D01*
X47242612Y-72072235D01*
X47146525Y-72148606D01*
X47090069Y-72259355D01*
X47080988Y-72330757D01*
X46801330Y-72330757D01*
X46801330Y-72182990D01*
X45684530Y-72186653D01*
X46426417Y-71435607D01*
X46511349Y-71345691D01*
X46598281Y-71239235D01*
X46665199Y-71137040D01*
X46721131Y-71016512D01*
X46752848Y-70894196D01*
X46762862Y-70765771D01*
X46747303Y-70617884D01*
X46702049Y-70484052D01*
X46686746Y-70459246D01*
X47905918Y-70459246D01*
X48165427Y-70776151D01*
X48268484Y-70683331D01*
X48366245Y-70609043D01*
X48479813Y-70542746D01*
X48612182Y-70494400D01*
X48750440Y-70474289D01*
X48791909Y-70473290D01*
X48914752Y-70487176D01*
X49036350Y-70535171D01*
X49138039Y-70624906D01*
X49189868Y-70743622D01*
X49194300Y-70793859D01*
X49177629Y-70918654D01*
X49122476Y-71041751D01*
X49045460Y-71146518D01*
X48994631Y-71202965D01*
X47972475Y-72246493D01*
X47972475Y-72575000D01*
X49680953Y-72575000D01*
X49680953Y-72285572D01*
X49925196Y-72285572D01*
X50043996Y-72379463D01*
X50170021Y-72457816D01*
X50302894Y-72520476D01*
X50442239Y-72567292D01*
X50587676Y-72598108D01*
X50738829Y-72612771D01*
X50800807Y-72614078D01*
X50957970Y-72605356D01*
X51104223Y-72579717D01*
X51238572Y-72537956D01*
X51360024Y-72480867D01*
X51467585Y-72409244D01*
X51560264Y-72323880D01*
X51637065Y-72225570D01*
X51696997Y-72115107D01*
X51739066Y-71993286D01*
X51758478Y-71882571D01*
X52091630Y-71882571D01*
X52105235Y-72038649D01*
X52144715Y-72180023D01*
X52208065Y-72304809D01*
X52293283Y-72411128D01*
X52398365Y-72497096D01*
X52521307Y-72560832D01*
X52660106Y-72600453D01*
X52812757Y-72614078D01*
X52941734Y-72605120D01*
X53062131Y-72578527D01*
X53188337Y-72527081D01*
X53301405Y-72453783D01*
X53327499Y-72432117D01*
X53327499Y-72575000D01*
X53806826Y-72575000D01*
X53806826Y-70738293D01*
X53327499Y-70738293D01*
X53327499Y-72016905D01*
X53233957Y-72111623D01*
X53118122Y-72173874D01*
X52994716Y-72199551D01*
X52949533Y-72201308D01*
X52811886Y-72180178D01*
X52700968Y-72119576D01*
X52621420Y-72023682D01*
X52577882Y-71896676D01*
X52570957Y-71811741D01*
X52570957Y-70738293D01*
X52091630Y-70738293D01*
X52091630Y-71882571D01*
X51758478Y-71882571D01*
X51762278Y-71860901D01*
X51766787Y-71767166D01*
X51758245Y-71642854D01*
X51721267Y-71491363D01*
X51656814Y-71357654D01*
X51566820Y-71243354D01*
X51453217Y-71150085D01*
X51317935Y-71079473D01*
X51162908Y-71033141D01*
X51034841Y-71015303D01*
X50944300Y-71011845D01*
X50820416Y-71018452D01*
X50690093Y-71040934D01*
X50567856Y-71077474D01*
X50471690Y-71116870D01*
X50499778Y-70505652D01*
X51637339Y-70505652D01*
X51637339Y-70113032D01*
X50093724Y-70113032D01*
X50033884Y-71397749D01*
X50366665Y-71498499D01*
X50479198Y-71441951D01*
X50601210Y-71397565D01*
X50722054Y-71373619D01*
X50803860Y-71369050D01*
X50932241Y-71381532D01*
X51067133Y-71427148D01*
X51176144Y-71502288D01*
X51254010Y-71602821D01*
X51295465Y-71724619D01*
X51300894Y-71792201D01*
X51281252Y-71926141D01*
X51224902Y-72039143D01*
X51135708Y-72127657D01*
X51017534Y-72188132D01*
X50874244Y-72217020D01*
X50821567Y-72219016D01*
X50697463Y-72210825D01*
X50560428Y-72179440D01*
X50446632Y-72132419D01*
X50333464Y-72065528D01*
X50218315Y-71977533D01*
X50198748Y-71960729D01*
X49925196Y-72285572D01*
X49680953Y-72285572D01*
X49680953Y-72182990D01*
X48564153Y-72186653D01*
X49306041Y-71435607D01*
X49390972Y-71345691D01*
X49477904Y-71239235D01*
X49544823Y-71137040D01*
X49600754Y-71016512D01*
X49632471Y-70894196D01*
X49642485Y-70765771D01*
X49626927Y-70617884D01*
X49581672Y-70484052D01*
X49508855Y-70366019D01*
X49410607Y-70265531D01*
X49289060Y-70184334D01*
X49146348Y-70124175D01*
X49026706Y-70093912D01*
X48897257Y-70077201D01*
X48805953Y-70073953D01*
X48655198Y-70083460D01*
X48508089Y-70111907D01*
X48364699Y-70159182D01*
X48252710Y-70210483D01*
X48143181Y-70273705D01*
X48036147Y-70348792D01*
X47931644Y-70435685D01*
X47905918Y-70459246D01*
X46686746Y-70459246D01*
X46629232Y-70366019D01*
X46530984Y-70265531D01*
X46409437Y-70184334D01*
X46266725Y-70124175D01*
X46147083Y-70093912D01*
X46017634Y-70077201D01*
X45926330Y-70073953D01*
X45775574Y-70083460D01*
X45628466Y-70111907D01*
X45485076Y-70159182D01*
X45373087Y-70210483D01*
X45263557Y-70273705D01*
X45156524Y-70348792D01*
X45052021Y-70435685D01*
X45026295Y-70459246D01*
X44748517Y-70459246D01*
X44748517Y-69796175D01*
X54084604Y-69796175D01*
X54084604Y-72891856D01*
G37*
G36*
X44167594Y-91891856D02*
G01*
X35584386Y-91891856D01*
X35584386Y-89380478D01*
X35862164Y-89380478D01*
X35862164Y-89803018D01*
X36341491Y-89602128D01*
X36341491Y-91575000D01*
X36821428Y-91575000D01*
X36821428Y-91330757D01*
X37163979Y-91330757D01*
X37192361Y-91452454D01*
X37268162Y-91548541D01*
X37377362Y-91604998D01*
X37447300Y-91614078D01*
X37568998Y-91585696D01*
X37665085Y-91509895D01*
X37721542Y-91400695D01*
X37730622Y-91330757D01*
X37702240Y-91206756D01*
X37626439Y-91109615D01*
X37517239Y-91052866D01*
X37447300Y-91043771D01*
X37325603Y-91072235D01*
X37229516Y-91148606D01*
X37173059Y-91259355D01*
X37163979Y-91330757D01*
X36821428Y-91330757D01*
X36821428Y-89459246D01*
X37988909Y-89459246D01*
X38248417Y-89776151D01*
X38351475Y-89683331D01*
X38449235Y-89609043D01*
X38562803Y-89542746D01*
X38695172Y-89494400D01*
X38833430Y-89474289D01*
X38874900Y-89473290D01*
X38997743Y-89487176D01*
X39119341Y-89535171D01*
X39221030Y-89624906D01*
X39272858Y-89743622D01*
X39277290Y-89793859D01*
X39260620Y-89918654D01*
X39205466Y-90041751D01*
X39128451Y-90146518D01*
X39077621Y-90202965D01*
X38055465Y-91246493D01*
X38055465Y-91575000D01*
X39763944Y-91575000D01*
X39763944Y-91285572D01*
X40008187Y-91285572D01*
X40126986Y-91379463D01*
X40253012Y-91457816D01*
X40385885Y-91520476D01*
X40525229Y-91567292D01*
X40670666Y-91598108D01*
X40821820Y-91612771D01*
X40883797Y-91614078D01*
X41040961Y-91605356D01*
X41187214Y-91579717D01*
X41321563Y-91537956D01*
X41443014Y-91480867D01*
X41550576Y-91409244D01*
X41643254Y-91323880D01*
X41720056Y-91225570D01*
X41779987Y-91115107D01*
X41822056Y-90993286D01*
X41841469Y-90882571D01*
X42174621Y-90882571D01*
X42188226Y-91038649D01*
X42227705Y-91180023D01*
X42291056Y-91304809D01*
X42376274Y-91411128D01*
X42481355Y-91497096D01*
X42604297Y-91560832D01*
X42743096Y-91600453D01*
X42895748Y-91614078D01*
X43024724Y-91605120D01*
X43145121Y-91578527D01*
X43271327Y-91527081D01*
X43384396Y-91453783D01*
X43410490Y-91432117D01*
X43410490Y-91575000D01*
X43889816Y-91575000D01*
X43889816Y-89738293D01*
X43410490Y-89738293D01*
X43410490Y-91016905D01*
X43316948Y-91111623D01*
X43201112Y-91173874D01*
X43077706Y-91199551D01*
X43032524Y-91201308D01*
X42894877Y-91180178D01*
X42783959Y-91119576D01*
X42704411Y-91023682D01*
X42660873Y-90896676D01*
X42653947Y-90811741D01*
X42653947Y-89738293D01*
X42174621Y-89738293D01*
X42174621Y-90882571D01*
X41841469Y-90882571D01*
X41845269Y-90860901D01*
X41849778Y-90767166D01*
X41841236Y-90642854D01*
X41804257Y-90491363D01*
X41739805Y-90357654D01*
X41649811Y-90243354D01*
X41536207Y-90150085D01*
X41400926Y-90079473D01*
X41245898Y-90033141D01*
X41117832Y-90015303D01*
X41027290Y-90011845D01*
X40903406Y-90018452D01*
X40773083Y-90040934D01*
X40650847Y-90077474D01*
X40554680Y-90116870D01*
X40582768Y-89505652D01*
X41720329Y-89505652D01*
X41720329Y-89113032D01*
X40176714Y-89113032D01*
X40116875Y-90397749D01*
X40449656Y-90498499D01*
X40562189Y-90441951D01*
X40684201Y-90397565D01*
X40805045Y-90373619D01*
X40886850Y-90369050D01*
X41015232Y-90381532D01*
X41150124Y-90427148D01*
X41259135Y-90502288D01*
X41337000Y-90602821D01*
X41378456Y-90724619D01*
X41383885Y-90792201D01*
X41364243Y-90926141D01*
X41307893Y-91039143D01*
X41218699Y-91127657D01*
X41100525Y-91188132D01*
X40957235Y-91217020D01*
X40904558Y-91219016D01*
X40780454Y-91210825D01*
X40643419Y-91179440D01*
X40529622Y-91132419D01*
X40416454Y-91065528D01*
X40301306Y-90977533D01*
X40281739Y-90960729D01*
X40008187Y-91285572D01*
X39763944Y-91285572D01*
X39763944Y-91182990D01*
X38647143Y-91186653D01*
X39389031Y-90435607D01*
X39473963Y-90345691D01*
X39560894Y-90239235D01*
X39627813Y-90137040D01*
X39683744Y-90016512D01*
X39715461Y-89894196D01*
X39725476Y-89765771D01*
X39709917Y-89617884D01*
X39664663Y-89484052D01*
X39591846Y-89366019D01*
X39493598Y-89265531D01*
X39372051Y-89184334D01*
X39229338Y-89124175D01*
X39109696Y-89093912D01*
X38980247Y-89077201D01*
X38888944Y-89073953D01*
X38738188Y-89083460D01*
X38591080Y-89111907D01*
X38447689Y-89159182D01*
X38335700Y-89210483D01*
X38226171Y-89273705D01*
X38119137Y-89348792D01*
X38014635Y-89435685D01*
X37988909Y-89459246D01*
X36821428Y-89459246D01*
X36821428Y-89113032D01*
X36520399Y-89113032D01*
X35862164Y-89380478D01*
X35584386Y-89380478D01*
X35584386Y-88796175D01*
X44167594Y-88796175D01*
X44167594Y-91891856D01*
G37*
G36*
X236041343Y-91891856D02*
G01*
X229473138Y-91891856D01*
X229473138Y-89380478D01*
X229750916Y-89380478D01*
X229750916Y-89803018D01*
X230230243Y-89602128D01*
X230230243Y-91575000D01*
X230710180Y-91575000D01*
X230710180Y-91330757D01*
X231052731Y-91330757D01*
X231081113Y-91452454D01*
X231156914Y-91548541D01*
X231266114Y-91604998D01*
X231336052Y-91614078D01*
X231457750Y-91585696D01*
X231553837Y-91509895D01*
X231610294Y-91400695D01*
X231619374Y-91330757D01*
X231609032Y-91285572D01*
X231881935Y-91285572D01*
X232000735Y-91379463D01*
X232126760Y-91457816D01*
X232259633Y-91520476D01*
X232398978Y-91567292D01*
X232544415Y-91598108D01*
X232695568Y-91612771D01*
X232757546Y-91614078D01*
X232914709Y-91605356D01*
X233060962Y-91579717D01*
X233195311Y-91537956D01*
X233316763Y-91480867D01*
X233424324Y-91409244D01*
X233517003Y-91323880D01*
X233593804Y-91225570D01*
X233653736Y-91115107D01*
X233695805Y-90993286D01*
X233715217Y-90882571D01*
X234048369Y-90882571D01*
X234061974Y-91038649D01*
X234101454Y-91180023D01*
X234164804Y-91304809D01*
X234250022Y-91411128D01*
X234355104Y-91497096D01*
X234478046Y-91560832D01*
X234616844Y-91600453D01*
X234769496Y-91614078D01*
X234898473Y-91605120D01*
X235018870Y-91578527D01*
X235145076Y-91527081D01*
X235258144Y-91453783D01*
X235284238Y-91432117D01*
X235284238Y-91575000D01*
X235763565Y-91575000D01*
X235763565Y-89738293D01*
X235284238Y-89738293D01*
X235284238Y-91016905D01*
X235190696Y-91111623D01*
X235074861Y-91173874D01*
X234951455Y-91199551D01*
X234906272Y-91201308D01*
X234768625Y-91180178D01*
X234657707Y-91119576D01*
X234578159Y-91023682D01*
X234534621Y-90896676D01*
X234527696Y-90811741D01*
X234527696Y-89738293D01*
X234048369Y-89738293D01*
X234048369Y-90882571D01*
X233715217Y-90882571D01*
X233719017Y-90860901D01*
X233723526Y-90767166D01*
X233714984Y-90642854D01*
X233678006Y-90491363D01*
X233613553Y-90357654D01*
X233523559Y-90243354D01*
X233409956Y-90150085D01*
X233274674Y-90079473D01*
X233119647Y-90033141D01*
X232991580Y-90015303D01*
X232901038Y-90011845D01*
X232777155Y-90018452D01*
X232646832Y-90040934D01*
X232524595Y-90077474D01*
X232428429Y-90116870D01*
X232456516Y-89505652D01*
X233594078Y-89505652D01*
X233594078Y-89113032D01*
X232050463Y-89113032D01*
X231990623Y-90397749D01*
X232323404Y-90498499D01*
X232435937Y-90441951D01*
X232557949Y-90397565D01*
X232678793Y-90373619D01*
X232760599Y-90369050D01*
X232888980Y-90381532D01*
X233023872Y-90427148D01*
X233132883Y-90502288D01*
X233210749Y-90602821D01*
X233252204Y-90724619D01*
X233257633Y-90792201D01*
X233237991Y-90926141D01*
X233181641Y-91039143D01*
X233092447Y-91127657D01*
X232974273Y-91188132D01*
X232830983Y-91217020D01*
X232778306Y-91219016D01*
X232654202Y-91210825D01*
X232517167Y-91179440D01*
X232403371Y-91132419D01*
X232290203Y-91065528D01*
X232175054Y-90977533D01*
X232155487Y-90960729D01*
X231881935Y-91285572D01*
X231609032Y-91285572D01*
X231590992Y-91206756D01*
X231515191Y-91109615D01*
X231405991Y-91052866D01*
X231336052Y-91043771D01*
X231214355Y-91072235D01*
X231118268Y-91148606D01*
X231061811Y-91259355D01*
X231052731Y-91330757D01*
X230710180Y-91330757D01*
X230710180Y-89113032D01*
X230409151Y-89113032D01*
X229750916Y-89380478D01*
X229473138Y-89380478D01*
X229473138Y-88835254D01*
X236041343Y-88835254D01*
X236041343Y-91891856D01*
G37*
G36*
X48872697Y-53891856D02*
G01*
X40404283Y-53891856D01*
X40404283Y-51380478D01*
X40682061Y-51380478D01*
X40682061Y-51803018D01*
X41161388Y-51602128D01*
X41161388Y-53575000D01*
X41641325Y-53575000D01*
X41641325Y-53330757D01*
X41983876Y-53330757D01*
X42012258Y-53452454D01*
X42088059Y-53548541D01*
X42197259Y-53604998D01*
X42267197Y-53614078D01*
X42388895Y-53585696D01*
X42484982Y-53509895D01*
X42541439Y-53400695D01*
X42550519Y-53330757D01*
X42522137Y-53206756D01*
X42446336Y-53109615D01*
X42337136Y-53052866D01*
X42267197Y-53043771D01*
X42145500Y-53072235D01*
X42049413Y-53148606D01*
X41992956Y-53259355D01*
X41983876Y-53330757D01*
X41641325Y-53330757D01*
X41641325Y-51516032D01*
X42590819Y-51516032D01*
X43959800Y-51516032D01*
X42863761Y-53575000D01*
X43410254Y-53575000D01*
X43553216Y-53285572D01*
X44713290Y-53285572D01*
X44832089Y-53379463D01*
X44958115Y-53457816D01*
X45090988Y-53520476D01*
X45230332Y-53567292D01*
X45375769Y-53598108D01*
X45526923Y-53612771D01*
X45588900Y-53614078D01*
X45746064Y-53605356D01*
X45892317Y-53579717D01*
X46026665Y-53537956D01*
X46148117Y-53480867D01*
X46255679Y-53409244D01*
X46348357Y-53323880D01*
X46425158Y-53225570D01*
X46485090Y-53115107D01*
X46527159Y-52993286D01*
X46546572Y-52882571D01*
X46879724Y-52882571D01*
X46893329Y-53038649D01*
X46932808Y-53180023D01*
X46996159Y-53304809D01*
X47081377Y-53411128D01*
X47186458Y-53497096D01*
X47309400Y-53560832D01*
X47448199Y-53600453D01*
X47600851Y-53614078D01*
X47729827Y-53605120D01*
X47850224Y-53578527D01*
X47976430Y-53527081D01*
X48089499Y-53453783D01*
X48115592Y-53432117D01*
X48115592Y-53575000D01*
X48594919Y-53575000D01*
X48594919Y-51738293D01*
X48115592Y-51738293D01*
X48115592Y-53016905D01*
X48022051Y-53111623D01*
X47906215Y-53173874D01*
X47782809Y-53199551D01*
X47737627Y-53201308D01*
X47599979Y-53180178D01*
X47489062Y-53119576D01*
X47409514Y-53023682D01*
X47365976Y-52896676D01*
X47359050Y-52811741D01*
X47359050Y-51738293D01*
X46879724Y-51738293D01*
X46879724Y-52882571D01*
X46546572Y-52882571D01*
X46550372Y-52860901D01*
X46554881Y-52767166D01*
X46546339Y-52642854D01*
X46509360Y-52491363D01*
X46444908Y-52357654D01*
X46354914Y-52243354D01*
X46241310Y-52150085D01*
X46106028Y-52079473D01*
X45951001Y-52033141D01*
X45822935Y-52015303D01*
X45732393Y-52011845D01*
X45608509Y-52018452D01*
X45478186Y-52040934D01*
X45355950Y-52077474D01*
X45259783Y-52116870D01*
X45287871Y-51505652D01*
X46425432Y-51505652D01*
X46425432Y-51113032D01*
X44881817Y-51113032D01*
X44821978Y-52397749D01*
X45154758Y-52498499D01*
X45267291Y-52441951D01*
X45389304Y-52397565D01*
X45510148Y-52373619D01*
X45591953Y-52369050D01*
X45720335Y-52381532D01*
X45855227Y-52427148D01*
X45964238Y-52502288D01*
X46042103Y-52602821D01*
X46083559Y-52724619D01*
X46088987Y-52792201D01*
X46069345Y-52926141D01*
X46012995Y-53039143D01*
X45923801Y-53127657D01*
X45805628Y-53188132D01*
X45662338Y-53217020D01*
X45609661Y-53219016D01*
X45485557Y-53210825D01*
X45348521Y-53179440D01*
X45234725Y-53132419D01*
X45121557Y-53065528D01*
X45006409Y-52977533D01*
X44986842Y-52960729D01*
X44713290Y-53285572D01*
X43553216Y-53285572D01*
X44456835Y-51456193D01*
X44456835Y-51113032D01*
X42590819Y-51113032D01*
X42590819Y-51516032D01*
X41641325Y-51516032D01*
X41641325Y-51113032D01*
X41340296Y-51113032D01*
X40682061Y-51380478D01*
X40404283Y-51380478D01*
X40404283Y-50835254D01*
X48872697Y-50835254D01*
X48872697Y-53891856D01*
G37*
G36*
X302716343Y-34891856D02*
G01*
X296148138Y-34891856D01*
X296148138Y-32380478D01*
X296425916Y-32380478D01*
X296425916Y-32803018D01*
X296905243Y-32602128D01*
X296905243Y-34575000D01*
X297385180Y-34575000D01*
X297385180Y-34330757D01*
X297727731Y-34330757D01*
X297756113Y-34452454D01*
X297831914Y-34548541D01*
X297941114Y-34604998D01*
X298011052Y-34614078D01*
X298132750Y-34585696D01*
X298228837Y-34509895D01*
X298285294Y-34400695D01*
X298294374Y-34330757D01*
X298284032Y-34285572D01*
X298556935Y-34285572D01*
X298675735Y-34379463D01*
X298801760Y-34457816D01*
X298934633Y-34520476D01*
X299073978Y-34567292D01*
X299219415Y-34598108D01*
X299370568Y-34612771D01*
X299432546Y-34614078D01*
X299589709Y-34605356D01*
X299735962Y-34579717D01*
X299870311Y-34537956D01*
X299991763Y-34480867D01*
X300099324Y-34409244D01*
X300192003Y-34323880D01*
X300268804Y-34225570D01*
X300328736Y-34115107D01*
X300370805Y-33993286D01*
X300390217Y-33882571D01*
X300723369Y-33882571D01*
X300736974Y-34038649D01*
X300776454Y-34180023D01*
X300839804Y-34304809D01*
X300925022Y-34411128D01*
X301030104Y-34497096D01*
X301153046Y-34560832D01*
X301291844Y-34600453D01*
X301444496Y-34614078D01*
X301573473Y-34605120D01*
X301693870Y-34578527D01*
X301820076Y-34527081D01*
X301933144Y-34453783D01*
X301959238Y-34432117D01*
X301959238Y-34575000D01*
X302438565Y-34575000D01*
X302438565Y-32738293D01*
X301959238Y-32738293D01*
X301959238Y-34016905D01*
X301865696Y-34111623D01*
X301749861Y-34173874D01*
X301626455Y-34199551D01*
X301581272Y-34201308D01*
X301443625Y-34180178D01*
X301332707Y-34119576D01*
X301253159Y-34023682D01*
X301209621Y-33896676D01*
X301202696Y-33811741D01*
X301202696Y-32738293D01*
X300723369Y-32738293D01*
X300723369Y-33882571D01*
X300390217Y-33882571D01*
X300394017Y-33860901D01*
X300398526Y-33767166D01*
X300389984Y-33642854D01*
X300353006Y-33491363D01*
X300288553Y-33357654D01*
X300198559Y-33243354D01*
X300084956Y-33150085D01*
X299949674Y-33079473D01*
X299794647Y-33033141D01*
X299666580Y-33015303D01*
X299576038Y-33011845D01*
X299452155Y-33018452D01*
X299321832Y-33040934D01*
X299199595Y-33077474D01*
X299103429Y-33116870D01*
X299131516Y-32505652D01*
X300269078Y-32505652D01*
X300269078Y-32113032D01*
X298725463Y-32113032D01*
X298665623Y-33397749D01*
X298998404Y-33498499D01*
X299110937Y-33441951D01*
X299232949Y-33397565D01*
X299353793Y-33373619D01*
X299435599Y-33369050D01*
X299563980Y-33381532D01*
X299698872Y-33427148D01*
X299807883Y-33502288D01*
X299885749Y-33602821D01*
X299927204Y-33724619D01*
X299932633Y-33792201D01*
X299912991Y-33926141D01*
X299856641Y-34039143D01*
X299767447Y-34127657D01*
X299649273Y-34188132D01*
X299505983Y-34217020D01*
X299453306Y-34219016D01*
X299329202Y-34210825D01*
X299192167Y-34179440D01*
X299078371Y-34132419D01*
X298965203Y-34065528D01*
X298850054Y-33977533D01*
X298830487Y-33960729D01*
X298556935Y-34285572D01*
X298284032Y-34285572D01*
X298265992Y-34206756D01*
X298190191Y-34109615D01*
X298080991Y-34052866D01*
X298011052Y-34043771D01*
X297889355Y-34072235D01*
X297793268Y-34148606D01*
X297736811Y-34259355D01*
X297727731Y-34330757D01*
X297385180Y-34330757D01*
X297385180Y-32113032D01*
X297084151Y-32113032D01*
X296425916Y-32380478D01*
X296148138Y-32380478D01*
X296148138Y-31835254D01*
X302716343Y-31835254D01*
X302716343Y-34891856D01*
G37*
D11*
G36*
X58041486Y-51483130D02*
G01*
X58426169Y-48845307D01*
X58727179Y-47644963D01*
X59295210Y-46505030D01*
X60111444Y-45554135D01*
X61126686Y-44844948D01*
X62283345Y-44430140D01*
X63457571Y-44308496D01*
X64694695Y-44442913D01*
X65545848Y-44784770D01*
X66529199Y-45579817D01*
X66828122Y-45951029D01*
X67508186Y-46990588D01*
X67707397Y-47343213D01*
X68427710Y-48367334D01*
X68574459Y-48521685D01*
X69725072Y-48996098D01*
X69820097Y-48997959D01*
X70996363Y-48652304D01*
X71717130Y-47615339D01*
X71896162Y-46903576D01*
X72286950Y-44308496D01*
X74888136Y-44308496D01*
X74497348Y-46946319D01*
X74215061Y-48146663D01*
X73657984Y-49286596D01*
X72842603Y-50237491D01*
X71835166Y-50946678D01*
X70583088Y-51384598D01*
X69539218Y-51483130D01*
X68300371Y-51348713D01*
X67444836Y-51006856D01*
X66454489Y-50214963D01*
X66144242Y-49846703D01*
X65449295Y-48804854D01*
X65246650Y-48454518D01*
X64532293Y-47424441D01*
X64385694Y-47269941D01*
X63235797Y-46795528D01*
X63140055Y-46793667D01*
X61943015Y-47139322D01*
X61209535Y-48176287D01*
X61027355Y-48888049D01*
X60642672Y-51483130D01*
X58041486Y-51483130D01*
G37*
G36*
X77153489Y-64379152D02*
G01*
X94812247Y-30966731D01*
X97834752Y-30966731D01*
X80182100Y-64379152D01*
X77153489Y-64379152D01*
G37*
G36*
X105558932Y-60862055D02*
G01*
X104293604Y-60791346D01*
X103026403Y-60537372D01*
X101828886Y-60030866D01*
X100967166Y-59384386D01*
X100196156Y-58351720D01*
X99791271Y-57100811D01*
X99739912Y-55788393D01*
X99788695Y-55311636D01*
X102566957Y-55311636D01*
X102686025Y-56584752D01*
X103324110Y-57558671D01*
X104427782Y-58172331D01*
X105731595Y-58373688D01*
X105943614Y-58376884D01*
X107775436Y-58376884D01*
X109026226Y-58255812D01*
X110255407Y-57808519D01*
X110706350Y-57515928D01*
X111583978Y-56575957D01*
X112064474Y-55370336D01*
X112098534Y-55189515D01*
X112126012Y-53957615D01*
X111781018Y-52985223D01*
X110847934Y-52191911D01*
X110022470Y-51965509D01*
X105100977Y-51251099D01*
X103825136Y-50926809D01*
X102721320Y-50283382D01*
X102090684Y-49602460D01*
X101552586Y-48460147D01*
X101385194Y-47200311D01*
X101480076Y-46018196D01*
X101767062Y-44785533D01*
X102316179Y-43575779D01*
X103104864Y-42553430D01*
X103763747Y-41975977D01*
X104923698Y-41282336D01*
X106108848Y-40856342D01*
X107439018Y-40609714D01*
X108721877Y-40541050D01*
X110376622Y-40541050D01*
X111687519Y-40628062D01*
X112975250Y-40933962D01*
X114173805Y-41532166D01*
X114681402Y-41933234D01*
X115472329Y-42890170D01*
X115929331Y-44028380D01*
X116052406Y-45347864D01*
X116036950Y-45633514D01*
X113222051Y-45633514D01*
X112948709Y-44390356D01*
X112434368Y-43777268D01*
X111316253Y-43191246D01*
X110090078Y-43026955D01*
X109991940Y-43026221D01*
X108373831Y-43026221D01*
X107071598Y-43162266D01*
X105896847Y-43613066D01*
X105534508Y-43850541D01*
X104695609Y-44743733D01*
X104251159Y-45889158D01*
X104221702Y-46060939D01*
X104245435Y-47312922D01*
X104971294Y-48302105D01*
X106157327Y-48698761D01*
X110834577Y-49376535D01*
X112038320Y-49647391D01*
X113234073Y-50229000D01*
X114126787Y-51086229D01*
X114192917Y-51177826D01*
X114734121Y-52309888D01*
X114926844Y-53540643D01*
X114856594Y-54812489D01*
X114809630Y-55116242D01*
X114507379Y-56427139D01*
X114021947Y-57575462D01*
X113256875Y-58672999D01*
X112501535Y-59384386D01*
X111336432Y-60098689D01*
X110120751Y-60537372D01*
X108918034Y-60769701D01*
X107585587Y-60860612D01*
X107384647Y-60862055D01*
X105558932Y-60862055D01*
G37*
G36*
X127345394Y-60862055D02*
G01*
X125981683Y-60766803D01*
X124781011Y-60481046D01*
X123608455Y-59921195D01*
X122648847Y-59112523D01*
X122442219Y-58871476D01*
X121775130Y-57784595D01*
X121373656Y-56520638D01*
X121240253Y-55269419D01*
X121310210Y-53882625D01*
X121367550Y-53461497D01*
X123303175Y-40931839D01*
X126081437Y-40931839D01*
X124145813Y-53461497D01*
X124052433Y-54683057D01*
X124216414Y-55958307D01*
X124744208Y-57076291D01*
X125702569Y-57918374D01*
X126914576Y-58314649D01*
X127766713Y-58376884D01*
X128996872Y-58249873D01*
X130194395Y-57816765D01*
X131228855Y-57076291D01*
X132067653Y-56062361D01*
X132624832Y-54932738D01*
X132959068Y-53746813D01*
X133011828Y-53461497D01*
X134941346Y-40931839D01*
X137719609Y-40931839D01*
X135790090Y-53461497D01*
X135521900Y-54727099D01*
X135063587Y-56063095D01*
X134448663Y-57247738D01*
X133677127Y-58281030D01*
X133030146Y-58926430D01*
X132006789Y-59680644D01*
X130860130Y-60249611D01*
X129590168Y-60633334D01*
X128196905Y-60831811D01*
X127345394Y-60862055D01*
G37*
G36*
X153849559Y-40664698D02*
G01*
X155141530Y-41099398D01*
X156211321Y-41847082D01*
X156801081Y-42519417D01*
X157401003Y-43589888D01*
X157753628Y-44822933D01*
X157858958Y-46218551D01*
X157748262Y-47573080D01*
X157716992Y-47776745D01*
X156837718Y-53589724D01*
X156589277Y-54831427D01*
X156169198Y-56142795D01*
X155608871Y-57306318D01*
X154908295Y-58321995D01*
X154322016Y-58956961D01*
X153264903Y-59790440D01*
X152078035Y-60385782D01*
X150761414Y-60742987D01*
X149502931Y-60860195D01*
X149315038Y-60862055D01*
X148078678Y-60755914D01*
X146817011Y-60348334D01*
X145950593Y-59775174D01*
X145131998Y-58772163D01*
X144700375Y-57529309D01*
X144631681Y-56874791D01*
X144601151Y-56874791D01*
X144002756Y-60959752D01*
X143050209Y-66723883D01*
X140271947Y-66723883D01*
X142174666Y-54692317D01*
X145088402Y-54692317D01*
X145247727Y-55965272D01*
X145791835Y-57082397D01*
X146774924Y-57920527D01*
X148000814Y-58314941D01*
X148857083Y-58376884D01*
X150085452Y-58264184D01*
X151276876Y-57879877D01*
X152300907Y-57222837D01*
X153128554Y-56271417D01*
X153678100Y-55132253D01*
X154007506Y-53883698D01*
X154059455Y-53577512D01*
X154938730Y-47788957D01*
X155047941Y-46511100D01*
X154881008Y-45228700D01*
X154322016Y-44180269D01*
X153331020Y-43433068D01*
X152101410Y-43081444D01*
X151244557Y-43026221D01*
X150017022Y-43153232D01*
X148819629Y-43586340D01*
X147782414Y-44326814D01*
X146948667Y-45336546D01*
X146404845Y-46462353D01*
X146089768Y-47644844D01*
X146042184Y-47929396D01*
X145199546Y-53473709D01*
X145088402Y-54692317D01*
X142174666Y-54692317D01*
X144350802Y-40931839D01*
X147129065Y-40931839D01*
X146567306Y-44650436D01*
X147033729Y-43511868D01*
X147760298Y-42459173D01*
X148710537Y-41615719D01*
X149859784Y-41003871D01*
X151048560Y-40668037D01*
X152374484Y-40542100D01*
X152514619Y-40541050D01*
X153849559Y-40664698D01*
G37*
G36*
X173841146Y-40622743D02*
G01*
X175122235Y-40901314D01*
X176248918Y-41377582D01*
X177284183Y-42089702D01*
X178147972Y-43062714D01*
X178502058Y-43673465D01*
X178926162Y-44921590D01*
X179022476Y-46175672D01*
X178947801Y-46952425D01*
X178662617Y-48164325D01*
X178144078Y-49300150D01*
X177328500Y-50293352D01*
X177152617Y-50445098D01*
X176057286Y-51116044D01*
X174879960Y-51484316D01*
X173529707Y-51622419D01*
X173385171Y-51623569D01*
X166180007Y-51623569D01*
X165862491Y-53595830D01*
X165777101Y-54889912D01*
X165997230Y-56102653D01*
X166546371Y-57094609D01*
X167485466Y-57875995D01*
X168745701Y-58296742D01*
X169764270Y-58376884D01*
X171043683Y-58272127D01*
X172278553Y-57922208D01*
X172878367Y-57631943D01*
X173867622Y-56877271D01*
X174561800Y-55840432D01*
X174655233Y-55604728D01*
X177433496Y-55604728D01*
X176978212Y-56786253D01*
X176260743Y-57947599D01*
X175325923Y-58931201D01*
X174581961Y-59488189D01*
X173464550Y-60089255D01*
X172218911Y-60518589D01*
X170845045Y-60776188D01*
X169537726Y-60860713D01*
X169342951Y-60862055D01*
X167946307Y-60763297D01*
X166710949Y-60467021D01*
X165496604Y-59886562D01*
X164492918Y-59048123D01*
X164274912Y-58798203D01*
X163572714Y-57672014D01*
X163151395Y-56363407D01*
X163013150Y-55068735D01*
X163065815Y-53847855D01*
X163151395Y-53198936D01*
X163781821Y-49138398D01*
X166528053Y-49138398D01*
X173739323Y-49138398D01*
X174941426Y-48860811D01*
X175320795Y-48601064D01*
X175977508Y-47556306D01*
X176132903Y-46879152D01*
X176137399Y-45619477D01*
X175641853Y-44474779D01*
X175339113Y-44119208D01*
X174301684Y-43411542D01*
X173052467Y-43078522D01*
X172194487Y-43026221D01*
X170865581Y-43152040D01*
X169695291Y-43529495D01*
X168591171Y-44235337D01*
X168500314Y-44314602D01*
X167638034Y-45319546D01*
X167077039Y-46447261D01*
X166753643Y-47636567D01*
X166705129Y-47923290D01*
X166528053Y-49138398D01*
X163781821Y-49138398D01*
X163926866Y-48204170D01*
X164197418Y-46886832D01*
X164587753Y-45687132D01*
X165194538Y-44436163D01*
X165964362Y-43345311D01*
X166753977Y-42537735D01*
X167807346Y-41759730D01*
X168979926Y-41172814D01*
X170271718Y-40776987D01*
X171682722Y-40572248D01*
X172542533Y-40541050D01*
X173841146Y-40622743D01*
G37*
G36*
X183954780Y-60471267D02*
G01*
X187020028Y-40931839D01*
X189828820Y-40931839D01*
X189230425Y-44619906D01*
X189267062Y-44619906D01*
X189788129Y-43413068D01*
X190528538Y-42395268D01*
X191391975Y-41634037D01*
X192522134Y-41011760D01*
X193805256Y-40647787D01*
X195104466Y-40541050D01*
X196361947Y-40628998D01*
X197594419Y-40944892D01*
X198720023Y-41574884D01*
X199488625Y-42378978D01*
X200084164Y-43532596D01*
X200367810Y-44759153D01*
X200426288Y-45987666D01*
X200307703Y-47361102D01*
X200276308Y-47569138D01*
X200032065Y-49278838D01*
X197253803Y-49278838D01*
X197498046Y-47575244D01*
X197595689Y-46264735D01*
X197391327Y-44985322D01*
X196709575Y-43896933D01*
X195550394Y-43243899D01*
X194176814Y-43030664D01*
X193913782Y-43026221D01*
X192649754Y-43151443D01*
X191442523Y-43578451D01*
X190427215Y-44308496D01*
X189620427Y-45312128D01*
X189082329Y-46443659D01*
X188757109Y-47640479D01*
X188705303Y-47929396D01*
X186769679Y-60471267D01*
X183954780Y-60471267D01*
G37*
G36*
X211267236Y-60862055D02*
G01*
X209903525Y-60766803D01*
X208702853Y-60481046D01*
X207530297Y-59921195D01*
X206570690Y-59112523D01*
X206364061Y-58871476D01*
X205696973Y-57784595D01*
X205295499Y-56520638D01*
X205162095Y-55269419D01*
X205232053Y-53882625D01*
X205289393Y-53461497D01*
X207225017Y-40931839D01*
X210003279Y-40931839D01*
X208067655Y-53461497D01*
X207974275Y-54683057D01*
X208138256Y-55958307D01*
X208666050Y-57076291D01*
X209624411Y-57918374D01*
X210836418Y-58314649D01*
X211688555Y-58376884D01*
X212918714Y-58249873D01*
X214116237Y-57816765D01*
X215150697Y-57076291D01*
X215989495Y-56062361D01*
X216546674Y-54932738D01*
X216880910Y-53746813D01*
X216933670Y-53461497D01*
X218863189Y-40931839D01*
X221641451Y-40931839D01*
X219711933Y-53461497D01*
X219443743Y-54727099D01*
X218985429Y-56063095D01*
X218370505Y-57247738D01*
X217598970Y-58281030D01*
X216951988Y-58926430D01*
X215928631Y-59680644D01*
X214781972Y-60249611D01*
X213512010Y-60633334D01*
X212118747Y-60831811D01*
X211267236Y-60862055D01*
G37*
G36*
X231441695Y-60862055D02*
G01*
X230176367Y-60791346D01*
X228909167Y-60537372D01*
X227711649Y-60030866D01*
X226849930Y-59384386D01*
X226078919Y-58351720D01*
X225674034Y-57100811D01*
X225622675Y-55788393D01*
X225671458Y-55311636D01*
X228449721Y-55311636D01*
X228568789Y-56584752D01*
X229206873Y-57558671D01*
X230310546Y-58172331D01*
X231614359Y-58373688D01*
X231826378Y-58376884D01*
X233658199Y-58376884D01*
X234908990Y-58255812D01*
X236138170Y-57808519D01*
X236589113Y-57515928D01*
X237466742Y-56575957D01*
X237947237Y-55370336D01*
X237981298Y-55189515D01*
X238008775Y-53957615D01*
X237663782Y-52985223D01*
X236730698Y-52191911D01*
X235905233Y-51965509D01*
X230983740Y-51251099D01*
X229707899Y-50926809D01*
X228604084Y-50283382D01*
X227973447Y-49602460D01*
X227435349Y-48460147D01*
X227267957Y-47200311D01*
X227362840Y-46018196D01*
X227649825Y-44785533D01*
X228198942Y-43575779D01*
X228987627Y-42553430D01*
X229646510Y-41975977D01*
X230806461Y-41282336D01*
X231991612Y-40856342D01*
X233321781Y-40609714D01*
X234604640Y-40541050D01*
X236259386Y-40541050D01*
X237570283Y-40628062D01*
X238858014Y-40933962D01*
X240056569Y-41532166D01*
X240564166Y-41933234D01*
X241355093Y-42890170D01*
X241812094Y-44028380D01*
X241935170Y-45347864D01*
X241919714Y-45633514D01*
X239104815Y-45633514D01*
X238831473Y-44390356D01*
X238317132Y-43777268D01*
X237199017Y-43191246D01*
X235972841Y-43026955D01*
X235874703Y-43026221D01*
X234256594Y-43026221D01*
X232954361Y-43162266D01*
X231779610Y-43613066D01*
X231417271Y-43850541D01*
X230578372Y-44743733D01*
X230133923Y-45889158D01*
X230104466Y-46060939D01*
X230128198Y-47312922D01*
X230854058Y-48302105D01*
X232040090Y-48698761D01*
X236717341Y-49376535D01*
X237921084Y-49647391D01*
X239116836Y-50229000D01*
X240009551Y-51086229D01*
X240075680Y-51177826D01*
X240616884Y-52309888D01*
X240809607Y-53540643D01*
X240739358Y-54812489D01*
X240692393Y-55116242D01*
X240390143Y-56427139D01*
X239904710Y-57575462D01*
X239139638Y-58672999D01*
X238384298Y-59384386D01*
X237219196Y-60098689D01*
X236003515Y-60537372D01*
X234800798Y-60769701D01*
X233468351Y-60860612D01*
X233267411Y-60862055D01*
X231441695Y-60862055D01*
G37*
G36*
X257762989Y-40622743D02*
G01*
X259044077Y-40901314D01*
X260170760Y-41377582D01*
X261206026Y-42089702D01*
X262069814Y-43062714D01*
X262423901Y-43673465D01*
X262848004Y-44921590D01*
X262944318Y-46175672D01*
X262869644Y-46952425D01*
X262584459Y-48164325D01*
X262065920Y-49300150D01*
X261250342Y-50293352D01*
X261074459Y-50445098D01*
X259979129Y-51116044D01*
X258801802Y-51484316D01*
X257451549Y-51622419D01*
X257307013Y-51623569D01*
X250101849Y-51623569D01*
X249784333Y-53595830D01*
X249698944Y-54889912D01*
X249919072Y-56102653D01*
X250468213Y-57094609D01*
X251407308Y-57875995D01*
X252667544Y-58296742D01*
X253686113Y-58376884D01*
X254965525Y-58272127D01*
X256200395Y-57922208D01*
X256800209Y-57631943D01*
X257789464Y-56877271D01*
X258483642Y-55840432D01*
X258577076Y-55604728D01*
X261355338Y-55604728D01*
X260900054Y-56786253D01*
X260182585Y-57947599D01*
X259247766Y-58931201D01*
X258503803Y-59488189D01*
X257386392Y-60089255D01*
X256140753Y-60518589D01*
X254766887Y-60776188D01*
X253459568Y-60860713D01*
X253264794Y-60862055D01*
X251868149Y-60763297D01*
X250632791Y-60467021D01*
X249418446Y-59886562D01*
X248414761Y-59048123D01*
X248196755Y-58798203D01*
X247494557Y-57672014D01*
X247073238Y-56363407D01*
X246934992Y-55068735D01*
X246987657Y-53847855D01*
X247073238Y-53198936D01*
X247703664Y-49138398D01*
X250449895Y-49138398D01*
X257661165Y-49138398D01*
X258863268Y-48860811D01*
X259242637Y-48601064D01*
X259899350Y-47556306D01*
X260054745Y-46879152D01*
X260059241Y-45619477D01*
X259563695Y-44474779D01*
X259260956Y-44119208D01*
X258223526Y-43411542D01*
X256974310Y-43078522D01*
X256116329Y-43026221D01*
X254787424Y-43152040D01*
X253617133Y-43529495D01*
X252513014Y-44235337D01*
X252422156Y-44314602D01*
X251559876Y-45319546D01*
X250998881Y-46447261D01*
X250675486Y-47636567D01*
X250626971Y-47923290D01*
X250449895Y-49138398D01*
X247703664Y-49138398D01*
X247848709Y-48204170D01*
X248119260Y-46886832D01*
X248509595Y-45687132D01*
X249116380Y-44436163D01*
X249886204Y-43345311D01*
X250675820Y-42537735D01*
X251729188Y-41759730D01*
X252901769Y-41172814D01*
X254193561Y-40776987D01*
X255604564Y-40572248D01*
X256464375Y-40541050D01*
X257762989Y-40622743D01*
G37*
G36*
X267876622Y-60471267D02*
G01*
X270941870Y-40931839D01*
X273750663Y-40931839D01*
X273152268Y-44619906D01*
X273188904Y-44619906D01*
X273709971Y-43413068D01*
X274450380Y-42395268D01*
X275313817Y-41634037D01*
X276443977Y-41011760D01*
X277727098Y-40647787D01*
X279026308Y-40541050D01*
X280283789Y-40628998D01*
X281516261Y-40944892D01*
X282641865Y-41574884D01*
X283410467Y-42378978D01*
X284006006Y-43532596D01*
X284289652Y-44759153D01*
X284348131Y-45987666D01*
X284229545Y-47361102D01*
X284198150Y-47569138D01*
X283953908Y-49278838D01*
X281175645Y-49278838D01*
X281419888Y-47575244D01*
X281517531Y-46264735D01*
X281313169Y-44985322D01*
X280631418Y-43896933D01*
X279472236Y-43243899D01*
X278098656Y-43030664D01*
X277835624Y-43026221D01*
X276571596Y-43151443D01*
X275364365Y-43578451D01*
X274349058Y-44308496D01*
X273542269Y-45312128D01*
X273004172Y-46443659D01*
X272678952Y-47640479D01*
X272627145Y-47929396D01*
X270691521Y-60471267D01*
X267876622Y-60471267D01*
G37*
D10*
G36*
X163172697Y-91891856D02*
G01*
X154704283Y-91891856D01*
X154704283Y-89380478D01*
X154982061Y-89380478D01*
X154982061Y-89803018D01*
X155461388Y-89602128D01*
X155461388Y-91575000D01*
X155941325Y-91575000D01*
X155941325Y-91330757D01*
X156283876Y-91330757D01*
X156312258Y-91452454D01*
X156388059Y-91548541D01*
X156497259Y-91604998D01*
X156567197Y-91614078D01*
X156688895Y-91585696D01*
X156784982Y-91509895D01*
X156841439Y-91400695D01*
X156850519Y-91330757D01*
X156822137Y-91206756D01*
X156746336Y-91109615D01*
X156637136Y-91052866D01*
X156567197Y-91043771D01*
X156445500Y-91072235D01*
X156349413Y-91148606D01*
X156292956Y-91259355D01*
X156283876Y-91330757D01*
X155941325Y-91330757D01*
X155941325Y-89516032D01*
X156890819Y-89516032D01*
X158259800Y-89516032D01*
X157163761Y-91575000D01*
X157710254Y-91575000D01*
X157853216Y-91285572D01*
X159013290Y-91285572D01*
X159132089Y-91379463D01*
X159258115Y-91457816D01*
X159390988Y-91520476D01*
X159530332Y-91567292D01*
X159675769Y-91598108D01*
X159826923Y-91612771D01*
X159888900Y-91614078D01*
X160046064Y-91605356D01*
X160192317Y-91579717D01*
X160326665Y-91537956D01*
X160448117Y-91480867D01*
X160555679Y-91409244D01*
X160648357Y-91323880D01*
X160725158Y-91225570D01*
X160785090Y-91115107D01*
X160827159Y-90993286D01*
X160846572Y-90882571D01*
X161179724Y-90882571D01*
X161193329Y-91038649D01*
X161232808Y-91180023D01*
X161296159Y-91304809D01*
X161381377Y-91411128D01*
X161486458Y-91497096D01*
X161609400Y-91560832D01*
X161748199Y-91600453D01*
X161900851Y-91614078D01*
X162029827Y-91605120D01*
X162150224Y-91578527D01*
X162276430Y-91527081D01*
X162389499Y-91453783D01*
X162415592Y-91432117D01*
X162415592Y-91575000D01*
X162894919Y-91575000D01*
X162894919Y-89738293D01*
X162415592Y-89738293D01*
X162415592Y-91016905D01*
X162322051Y-91111623D01*
X162206215Y-91173874D01*
X162082809Y-91199551D01*
X162037627Y-91201308D01*
X161899979Y-91180178D01*
X161789062Y-91119576D01*
X161709514Y-91023682D01*
X161665976Y-90896676D01*
X161659050Y-90811741D01*
X161659050Y-89738293D01*
X161179724Y-89738293D01*
X161179724Y-90882571D01*
X160846572Y-90882571D01*
X160850372Y-90860901D01*
X160854881Y-90767166D01*
X160846339Y-90642854D01*
X160809360Y-90491363D01*
X160744908Y-90357654D01*
X160654914Y-90243354D01*
X160541310Y-90150085D01*
X160406028Y-90079473D01*
X160251001Y-90033141D01*
X160122935Y-90015303D01*
X160032393Y-90011845D01*
X159908509Y-90018452D01*
X159778186Y-90040934D01*
X159655950Y-90077474D01*
X159559783Y-90116870D01*
X159587871Y-89505652D01*
X160725432Y-89505652D01*
X160725432Y-89113032D01*
X159181817Y-89113032D01*
X159121978Y-90397749D01*
X159454758Y-90498499D01*
X159567291Y-90441951D01*
X159689304Y-90397565D01*
X159810148Y-90373619D01*
X159891953Y-90369050D01*
X160020335Y-90381532D01*
X160155227Y-90427148D01*
X160264238Y-90502288D01*
X160342103Y-90602821D01*
X160383559Y-90724619D01*
X160388987Y-90792201D01*
X160369345Y-90926141D01*
X160312995Y-91039143D01*
X160223801Y-91127657D01*
X160105628Y-91188132D01*
X159962338Y-91217020D01*
X159909661Y-91219016D01*
X159785557Y-91210825D01*
X159648521Y-91179440D01*
X159534725Y-91132419D01*
X159421557Y-91065528D01*
X159306409Y-90977533D01*
X159286842Y-90960729D01*
X159013290Y-91285572D01*
X157853216Y-91285572D01*
X158756835Y-89456193D01*
X158756835Y-89113032D01*
X156890819Y-89113032D01*
X156890819Y-89516032D01*
X155941325Y-89516032D01*
X155941325Y-89113032D01*
X155640296Y-89113032D01*
X154982061Y-89380478D01*
X154704283Y-89380478D01*
X154704283Y-88835254D01*
X163172697Y-88835254D01*
X163172697Y-91891856D01*
G37*
G36*
X155680987Y-95019639D02*
G01*
X155799569Y-95068096D01*
X155905411Y-95159258D01*
X155970405Y-95281904D01*
X155988952Y-95407466D01*
X155969158Y-95533649D01*
X155900832Y-95658100D01*
X155809517Y-95740264D01*
X155693530Y-95795191D01*
X155558133Y-95818509D01*
X155534050Y-95819016D01*
X155410052Y-95803496D01*
X155277646Y-95745969D01*
X155182722Y-95668119D01*
X155103406Y-95565360D01*
X155041193Y-95439828D01*
X154997580Y-95293663D01*
X154991220Y-95262142D01*
X155090958Y-95164775D01*
X155204233Y-95088632D01*
X155328629Y-95035476D01*
X155461730Y-95007073D01*
X155540767Y-95002634D01*
X155680987Y-95019639D01*
G37*
G36*
X163719801Y-96491856D02*
G01*
X154234116Y-96491856D01*
X154234116Y-94992254D01*
X154511894Y-94992254D01*
X154516764Y-95125819D01*
X154531161Y-95253549D01*
X154532830Y-95262142D01*
X154554768Y-95375059D01*
X154606749Y-95544822D01*
X154677659Y-95698431D01*
X154766425Y-95834593D01*
X154871970Y-95952010D01*
X154993221Y-96049390D01*
X155129103Y-96125435D01*
X155278541Y-96178853D01*
X155440461Y-96208346D01*
X155554811Y-96214078D01*
X155693918Y-96205132D01*
X155824997Y-96179021D01*
X155946812Y-96136838D01*
X156058129Y-96079676D01*
X156157713Y-96008627D01*
X156234188Y-95930757D01*
X156716186Y-95930757D01*
X156744568Y-96052454D01*
X156820369Y-96148541D01*
X156929569Y-96204998D01*
X156999507Y-96214078D01*
X157121205Y-96185696D01*
X157217292Y-96109895D01*
X157273748Y-96000695D01*
X157282829Y-95930757D01*
X157254447Y-95806756D01*
X157178646Y-95709615D01*
X157069446Y-95652866D01*
X156999507Y-95643771D01*
X156877809Y-95672235D01*
X156781723Y-95748606D01*
X156725266Y-95859355D01*
X156716186Y-95930757D01*
X156234188Y-95930757D01*
X156270106Y-95894184D01*
X156356520Y-95759588D01*
X156414027Y-95607428D01*
X156436426Y-95483340D01*
X156440802Y-95396475D01*
X156425119Y-95236972D01*
X156379684Y-95091887D01*
X156306914Y-94963332D01*
X156209229Y-94853417D01*
X156089047Y-94764253D01*
X155948786Y-94697950D01*
X155790865Y-94656621D01*
X155662290Y-94643282D01*
X155617703Y-94642376D01*
X155478031Y-94655799D01*
X155343703Y-94695151D01*
X155217232Y-94759056D01*
X155101130Y-94846137D01*
X155014110Y-94935415D01*
X154966796Y-94995917D01*
X154973128Y-94839800D01*
X154991948Y-94697006D01*
X155022995Y-94567980D01*
X155066004Y-94453165D01*
X155141506Y-94322952D01*
X155237187Y-94219844D01*
X155352423Y-94144893D01*
X155486593Y-94099151D01*
X155639075Y-94083670D01*
X155771996Y-94093526D01*
X155893698Y-94123131D01*
X156006240Y-94172542D01*
X156111685Y-94241817D01*
X156255037Y-94059246D01*
X157541116Y-94059246D01*
X157800624Y-94376151D01*
X157903681Y-94283331D01*
X158001442Y-94209043D01*
X158115010Y-94142746D01*
X158247379Y-94094400D01*
X158385637Y-94074289D01*
X158427107Y-94073290D01*
X158549950Y-94087176D01*
X158671548Y-94135171D01*
X158773236Y-94224906D01*
X158825065Y-94343622D01*
X158829497Y-94393859D01*
X158812827Y-94518654D01*
X158757673Y-94641751D01*
X158680658Y-94746518D01*
X158629828Y-94802965D01*
X157607672Y-95846493D01*
X157607672Y-96175000D01*
X159316151Y-96175000D01*
X159316151Y-95885572D01*
X159560394Y-95885572D01*
X159679193Y-95979463D01*
X159805218Y-96057816D01*
X159938092Y-96120476D01*
X160077436Y-96167292D01*
X160222873Y-96198108D01*
X160374027Y-96212771D01*
X160436004Y-96214078D01*
X160593168Y-96205356D01*
X160739421Y-96179717D01*
X160873769Y-96137956D01*
X160995221Y-96080867D01*
X161102783Y-96009244D01*
X161195461Y-95923880D01*
X161272262Y-95825570D01*
X161332194Y-95715107D01*
X161374263Y-95593286D01*
X161393676Y-95482571D01*
X161726828Y-95482571D01*
X161740433Y-95638649D01*
X161779912Y-95780023D01*
X161843263Y-95904809D01*
X161928481Y-96011128D01*
X162033562Y-96097096D01*
X162156504Y-96160832D01*
X162295303Y-96200453D01*
X162447955Y-96214078D01*
X162576931Y-96205120D01*
X162697328Y-96178527D01*
X162823534Y-96127081D01*
X162936603Y-96053783D01*
X162962696Y-96032117D01*
X162962696Y-96175000D01*
X163442023Y-96175000D01*
X163442023Y-94338293D01*
X162962696Y-94338293D01*
X162962696Y-95616905D01*
X162869155Y-95711623D01*
X162753319Y-95773874D01*
X162629913Y-95799551D01*
X162584731Y-95801308D01*
X162447083Y-95780178D01*
X162336166Y-95719576D01*
X162256618Y-95623682D01*
X162213080Y-95496676D01*
X162206154Y-95411741D01*
X162206154Y-94338293D01*
X161726828Y-94338293D01*
X161726828Y-95482571D01*
X161393676Y-95482571D01*
X161397476Y-95460901D01*
X161401985Y-95367166D01*
X161393443Y-95242854D01*
X161356464Y-95091363D01*
X161292012Y-94957654D01*
X161202018Y-94843354D01*
X161088414Y-94750085D01*
X160953132Y-94679473D01*
X160798105Y-94633141D01*
X160670039Y-94615303D01*
X160579497Y-94611845D01*
X160455613Y-94618452D01*
X160325290Y-94640934D01*
X160203053Y-94677474D01*
X160106887Y-94716870D01*
X160134975Y-94105652D01*
X161272536Y-94105652D01*
X161272536Y-93713032D01*
X159728921Y-93713032D01*
X159669082Y-94997749D01*
X160001862Y-95098499D01*
X160114395Y-95041951D01*
X160236408Y-94997565D01*
X160357252Y-94973619D01*
X160439057Y-94969050D01*
X160567439Y-94981532D01*
X160702331Y-95027148D01*
X160811342Y-95102288D01*
X160889207Y-95202821D01*
X160930663Y-95324619D01*
X160936091Y-95392201D01*
X160916449Y-95526141D01*
X160860099Y-95639143D01*
X160770905Y-95727657D01*
X160652731Y-95788132D01*
X160509442Y-95817020D01*
X160456765Y-95819016D01*
X160332661Y-95810825D01*
X160195625Y-95779440D01*
X160081829Y-95732419D01*
X159968661Y-95665528D01*
X159853513Y-95577533D01*
X159833945Y-95560729D01*
X159560394Y-95885572D01*
X159316151Y-95885572D01*
X159316151Y-95782990D01*
X158199350Y-95786653D01*
X158941238Y-95035607D01*
X159026170Y-94945691D01*
X159113101Y-94839235D01*
X159180020Y-94737040D01*
X159235951Y-94616512D01*
X159267668Y-94494196D01*
X159277682Y-94365771D01*
X159262124Y-94217884D01*
X159216870Y-94084052D01*
X159144052Y-93966019D01*
X159045804Y-93865531D01*
X158924258Y-93784334D01*
X158781545Y-93724175D01*
X158661903Y-93693912D01*
X158532454Y-93677201D01*
X158441151Y-93673953D01*
X158290395Y-93683460D01*
X158143287Y-93711907D01*
X157999896Y-93759182D01*
X157887907Y-93810483D01*
X157778378Y-93873705D01*
X157671344Y-93948792D01*
X157566842Y-94035685D01*
X157541116Y-94059246D01*
X156255037Y-94059246D01*
X156370582Y-93912090D01*
X156265543Y-93835695D01*
X156142842Y-93772342D01*
X156007744Y-93723478D01*
X155865514Y-93690554D01*
X155721417Y-93675017D01*
X155673879Y-93673953D01*
X155545513Y-93680050D01*
X155423044Y-93698091D01*
X155251115Y-93746714D01*
X155094303Y-93820075D01*
X154953721Y-93916894D01*
X154830478Y-94035890D01*
X154725686Y-94175784D01*
X154640455Y-94335296D01*
X154595051Y-94451904D01*
X154559163Y-94576283D01*
X154533122Y-94708054D01*
X154517256Y-94846837D01*
X154511894Y-94992254D01*
X154234116Y-94992254D01*
X154234116Y-93396175D01*
X163719801Y-93396175D01*
X163719801Y-96491856D01*
G37*
G36*
X45541343Y-34891856D02*
G01*
X38973138Y-34891856D01*
X38973138Y-32380478D01*
X39250916Y-32380478D01*
X39250916Y-32803018D01*
X39730243Y-32602128D01*
X39730243Y-34575000D01*
X40210180Y-34575000D01*
X40210180Y-34330757D01*
X40552731Y-34330757D01*
X40581113Y-34452454D01*
X40656914Y-34548541D01*
X40766114Y-34604998D01*
X40836052Y-34614078D01*
X40957750Y-34585696D01*
X41053837Y-34509895D01*
X41110294Y-34400695D01*
X41119374Y-34330757D01*
X41109032Y-34285572D01*
X41381935Y-34285572D01*
X41500735Y-34379463D01*
X41626760Y-34457816D01*
X41759633Y-34520476D01*
X41898978Y-34567292D01*
X42044415Y-34598108D01*
X42195568Y-34612771D01*
X42257546Y-34614078D01*
X42414709Y-34605356D01*
X42560962Y-34579717D01*
X42695311Y-34537956D01*
X42816763Y-34480867D01*
X42924324Y-34409244D01*
X43017003Y-34323880D01*
X43093804Y-34225570D01*
X43153736Y-34115107D01*
X43195805Y-33993286D01*
X43215217Y-33882571D01*
X43548369Y-33882571D01*
X43561974Y-34038649D01*
X43601454Y-34180023D01*
X43664804Y-34304809D01*
X43750022Y-34411128D01*
X43855104Y-34497096D01*
X43978046Y-34560832D01*
X44116844Y-34600453D01*
X44269496Y-34614078D01*
X44398473Y-34605120D01*
X44518870Y-34578527D01*
X44645076Y-34527081D01*
X44758144Y-34453783D01*
X44784238Y-34432117D01*
X44784238Y-34575000D01*
X45263565Y-34575000D01*
X45263565Y-32738293D01*
X44784238Y-32738293D01*
X44784238Y-34016905D01*
X44690696Y-34111623D01*
X44574861Y-34173874D01*
X44451455Y-34199551D01*
X44406272Y-34201308D01*
X44268625Y-34180178D01*
X44157707Y-34119576D01*
X44078159Y-34023682D01*
X44034621Y-33896676D01*
X44027696Y-33811741D01*
X44027696Y-32738293D01*
X43548369Y-32738293D01*
X43548369Y-33882571D01*
X43215217Y-33882571D01*
X43219017Y-33860901D01*
X43223526Y-33767166D01*
X43214984Y-33642854D01*
X43178006Y-33491363D01*
X43113553Y-33357654D01*
X43023559Y-33243354D01*
X42909956Y-33150085D01*
X42774674Y-33079473D01*
X42619647Y-33033141D01*
X42491580Y-33015303D01*
X42401038Y-33011845D01*
X42277155Y-33018452D01*
X42146832Y-33040934D01*
X42024595Y-33077474D01*
X41928429Y-33116870D01*
X41956516Y-32505652D01*
X43094078Y-32505652D01*
X43094078Y-32113032D01*
X41550463Y-32113032D01*
X41490623Y-33397749D01*
X41823404Y-33498499D01*
X41935937Y-33441951D01*
X42057949Y-33397565D01*
X42178793Y-33373619D01*
X42260599Y-33369050D01*
X42388980Y-33381532D01*
X42523872Y-33427148D01*
X42632883Y-33502288D01*
X42710749Y-33602821D01*
X42752204Y-33724619D01*
X42757633Y-33792201D01*
X42737991Y-33926141D01*
X42681641Y-34039143D01*
X42592447Y-34127657D01*
X42474273Y-34188132D01*
X42330983Y-34217020D01*
X42278306Y-34219016D01*
X42154202Y-34210825D01*
X42017167Y-34179440D01*
X41903371Y-34132419D01*
X41790203Y-34065528D01*
X41675054Y-33977533D01*
X41655487Y-33960729D01*
X41381935Y-34285572D01*
X41109032Y-34285572D01*
X41090992Y-34206756D01*
X41015191Y-34109615D01*
X40905991Y-34052866D01*
X40836052Y-34043771D01*
X40714355Y-34072235D01*
X40618268Y-34148606D01*
X40561811Y-34259355D01*
X40552731Y-34330757D01*
X40210180Y-34330757D01*
X40210180Y-32113032D01*
X39909151Y-32113032D01*
X39250916Y-32380478D01*
X38973138Y-32380478D01*
X38973138Y-31835254D01*
X45541343Y-31835254D01*
X45541343Y-34891856D01*
G37*
G36*
X91792594Y-91891856D02*
G01*
X83209386Y-91891856D01*
X83209386Y-89380478D01*
X83487164Y-89380478D01*
X83487164Y-89803018D01*
X83966491Y-89602128D01*
X83966491Y-91575000D01*
X84446428Y-91575000D01*
X84446428Y-91330757D01*
X84788979Y-91330757D01*
X84817361Y-91452454D01*
X84893162Y-91548541D01*
X85002362Y-91604998D01*
X85072300Y-91614078D01*
X85193998Y-91585696D01*
X85290085Y-91509895D01*
X85346542Y-91400695D01*
X85355622Y-91330757D01*
X85327240Y-91206756D01*
X85251439Y-91109615D01*
X85142239Y-91052866D01*
X85072300Y-91043771D01*
X84950603Y-91072235D01*
X84854516Y-91148606D01*
X84798059Y-91259355D01*
X84788979Y-91330757D01*
X84446428Y-91330757D01*
X84446428Y-89459246D01*
X85613909Y-89459246D01*
X85873417Y-89776151D01*
X85976475Y-89683331D01*
X86074235Y-89609043D01*
X86187803Y-89542746D01*
X86320172Y-89494400D01*
X86458430Y-89474289D01*
X86499900Y-89473290D01*
X86622743Y-89487176D01*
X86744341Y-89535171D01*
X86846030Y-89624906D01*
X86897858Y-89743622D01*
X86902290Y-89793859D01*
X86885620Y-89918654D01*
X86830466Y-90041751D01*
X86753451Y-90146518D01*
X86702621Y-90202965D01*
X85680465Y-91246493D01*
X85680465Y-91575000D01*
X87388944Y-91575000D01*
X87388944Y-91285572D01*
X87633187Y-91285572D01*
X87751986Y-91379463D01*
X87878012Y-91457816D01*
X88010885Y-91520476D01*
X88150229Y-91567292D01*
X88295666Y-91598108D01*
X88446820Y-91612771D01*
X88508797Y-91614078D01*
X88665961Y-91605356D01*
X88812214Y-91579717D01*
X88946563Y-91537956D01*
X89068014Y-91480867D01*
X89175576Y-91409244D01*
X89268254Y-91323880D01*
X89345056Y-91225570D01*
X89404987Y-91115107D01*
X89447056Y-90993286D01*
X89466469Y-90882571D01*
X89799621Y-90882571D01*
X89813226Y-91038649D01*
X89852705Y-91180023D01*
X89916056Y-91304809D01*
X90001274Y-91411128D01*
X90106355Y-91497096D01*
X90229297Y-91560832D01*
X90368096Y-91600453D01*
X90520748Y-91614078D01*
X90649724Y-91605120D01*
X90770121Y-91578527D01*
X90896327Y-91527081D01*
X91009396Y-91453783D01*
X91035490Y-91432117D01*
X91035490Y-91575000D01*
X91514816Y-91575000D01*
X91514816Y-89738293D01*
X91035490Y-89738293D01*
X91035490Y-91016905D01*
X90941948Y-91111623D01*
X90826112Y-91173874D01*
X90702706Y-91199551D01*
X90657524Y-91201308D01*
X90519877Y-91180178D01*
X90408959Y-91119576D01*
X90329411Y-91023682D01*
X90285873Y-90896676D01*
X90278947Y-90811741D01*
X90278947Y-89738293D01*
X89799621Y-89738293D01*
X89799621Y-90882571D01*
X89466469Y-90882571D01*
X89470269Y-90860901D01*
X89474778Y-90767166D01*
X89466236Y-90642854D01*
X89429257Y-90491363D01*
X89364805Y-90357654D01*
X89274811Y-90243354D01*
X89161207Y-90150085D01*
X89025926Y-90079473D01*
X88870898Y-90033141D01*
X88742832Y-90015303D01*
X88652290Y-90011845D01*
X88528406Y-90018452D01*
X88398083Y-90040934D01*
X88275847Y-90077474D01*
X88179680Y-90116870D01*
X88207768Y-89505652D01*
X89345329Y-89505652D01*
X89345329Y-89113032D01*
X87801714Y-89113032D01*
X87741875Y-90397749D01*
X88074656Y-90498499D01*
X88187189Y-90441951D01*
X88309201Y-90397565D01*
X88430045Y-90373619D01*
X88511850Y-90369050D01*
X88640232Y-90381532D01*
X88775124Y-90427148D01*
X88884135Y-90502288D01*
X88962000Y-90602821D01*
X89003456Y-90724619D01*
X89008885Y-90792201D01*
X88989243Y-90926141D01*
X88932893Y-91039143D01*
X88843699Y-91127657D01*
X88725525Y-91188132D01*
X88582235Y-91217020D01*
X88529558Y-91219016D01*
X88405454Y-91210825D01*
X88268419Y-91179440D01*
X88154622Y-91132419D01*
X88041454Y-91065528D01*
X87926306Y-90977533D01*
X87906739Y-90960729D01*
X87633187Y-91285572D01*
X87388944Y-91285572D01*
X87388944Y-91182990D01*
X86272143Y-91186653D01*
X87014031Y-90435607D01*
X87098963Y-90345691D01*
X87185894Y-90239235D01*
X87252813Y-90137040D01*
X87308744Y-90016512D01*
X87340461Y-89894196D01*
X87350476Y-89765771D01*
X87334917Y-89617884D01*
X87289663Y-89484052D01*
X87216846Y-89366019D01*
X87118598Y-89265531D01*
X86997051Y-89184334D01*
X86854338Y-89124175D01*
X86734696Y-89093912D01*
X86605247Y-89077201D01*
X86513944Y-89073953D01*
X86363188Y-89083460D01*
X86216080Y-89111907D01*
X86072689Y-89159182D01*
X85960700Y-89210483D01*
X85851171Y-89273705D01*
X85744137Y-89348792D01*
X85639635Y-89435685D01*
X85613909Y-89459246D01*
X84446428Y-89459246D01*
X84446428Y-89113032D01*
X84145399Y-89113032D01*
X83487164Y-89380478D01*
X83209386Y-89380478D01*
X83209386Y-88796175D01*
X91792594Y-88796175D01*
X91792594Y-91891856D01*
G37*
D12*
%TO.C,SW30*%
X292487500Y-34525000D02*
X292487500Y-21525000D01*
X292987500Y-21025000D02*
X305987500Y-21025000D01*
X305987500Y-35025000D02*
X292987500Y-35025000D01*
X306487500Y-21525000D02*
X306487500Y-34525000D01*
X292487500Y-21525000D02*
G75*
G02*
X292987500Y-21025000I500001J-1D01*
G01*
X292987500Y-35025000D02*
G75*
G02*
X292487500Y-34525000I1J500001D01*
G01*
X305987500Y-21025000D02*
G75*
G02*
X306487500Y-21525000I0J-500000D01*
G01*
X306484736Y-34523884D02*
G75*
G02*
X305984736Y-35023886I-499946J-56D01*
G01*
%TO.C,SW33*%
X37693750Y-53575000D02*
X37693750Y-40575000D01*
X38193750Y-40075000D02*
X51193750Y-40075000D01*
X51193750Y-54075000D02*
X38193750Y-54075000D01*
X51693750Y-40575000D02*
X51693750Y-53575000D01*
X37693750Y-40575000D02*
G75*
G02*
X38193750Y-40075000I500001J-1D01*
G01*
X38193750Y-54075000D02*
G75*
G02*
X37693750Y-53575000I1J500001D01*
G01*
X51193750Y-40075000D02*
G75*
G02*
X51693750Y-40575000I0J-500000D01*
G01*
X51690986Y-53573884D02*
G75*
G02*
X51190986Y-54073886I-499946J-56D01*
G01*
%TO.C,SW31*%
X325825000Y-34525000D02*
X325825000Y-21525000D01*
X326325000Y-21025000D02*
X339325000Y-21025000D01*
X339325000Y-35025000D02*
X326325000Y-35025000D01*
X339825000Y-21525000D02*
X339825000Y-34525000D01*
X325825000Y-21525000D02*
G75*
G02*
X326325000Y-21025000I500001J-1D01*
G01*
X326325000Y-35025000D02*
G75*
G02*
X325825000Y-34525000I1J500001D01*
G01*
X339325000Y-21025000D02*
G75*
G02*
X339825000Y-21525000I0J-500000D01*
G01*
X339822236Y-34523884D02*
G75*
G02*
X339322236Y-35023886I-499946J-56D01*
G01*
%TO.C,SW56*%
X206762500Y-72625000D02*
X206762500Y-59625000D01*
X207262500Y-59125000D02*
X220262500Y-59125000D01*
X220262500Y-73125000D02*
X207262500Y-73125000D01*
X220762500Y-59625000D02*
X220762500Y-72625000D01*
X206762500Y-59625000D02*
G75*
G02*
X207262500Y-59125000I500001J-1D01*
G01*
X207262500Y-73125000D02*
G75*
G02*
X206762500Y-72625000I1J500001D01*
G01*
X220262500Y-59125000D02*
G75*
G02*
X220762500Y-59625000I0J-500000D01*
G01*
X220759736Y-72623884D02*
G75*
G02*
X220259736Y-73123886I-499946J-56D01*
G01*
%TO.C,SW23*%
X154375000Y-34525000D02*
X154375000Y-21525000D01*
X154875000Y-21025000D02*
X167875000Y-21025000D01*
X167875000Y-35025000D02*
X154875000Y-35025000D01*
X168375000Y-21525000D02*
X168375000Y-34525000D01*
X154375000Y-21525000D02*
G75*
G02*
X154875000Y-21025000I500001J-1D01*
G01*
X154875000Y-35025000D02*
G75*
G02*
X154375000Y-34525000I1J500001D01*
G01*
X167875000Y-21025000D02*
G75*
G02*
X168375000Y-21525000I0J-500000D01*
G01*
X168372236Y-34523884D02*
G75*
G02*
X167872236Y-35023886I-499946J-56D01*
G01*
%TO.C,SW42*%
X216287500Y-53575000D02*
X216287500Y-40575000D01*
X216787500Y-40075000D02*
X229787500Y-40075000D01*
X229787500Y-54075000D02*
X216787500Y-54075000D01*
X230287500Y-40575000D02*
X230287500Y-53575000D01*
X216287500Y-40575000D02*
G75*
G02*
X216787500Y-40075000I500001J-1D01*
G01*
X216787500Y-54075000D02*
G75*
G02*
X216287500Y-53575000I1J500001D01*
G01*
X229787500Y-40075000D02*
G75*
G02*
X230287500Y-40575000I0J-500000D01*
G01*
X230284736Y-53573884D02*
G75*
G02*
X229784736Y-54073886I-499946J-56D01*
G01*
%TO.C,SW54*%
X168662500Y-72625000D02*
X168662500Y-59625000D01*
X169162500Y-59125000D02*
X182162500Y-59125000D01*
X182162500Y-73125000D02*
X169162500Y-73125000D01*
X182662500Y-59625000D02*
X182662500Y-72625000D01*
X168662500Y-59625000D02*
G75*
G02*
X169162500Y-59125000I500001J-1D01*
G01*
X169162500Y-73125000D02*
G75*
G02*
X168662500Y-72625000I1J500001D01*
G01*
X182162500Y-59125000D02*
G75*
G02*
X182662500Y-59625000I0J-500000D01*
G01*
X182659736Y-72623884D02*
G75*
G02*
X182159736Y-73123886I-499946J-56D01*
G01*
%TO.C,SW65*%
X80556250Y-91675000D02*
X80556250Y-78675000D01*
X81056250Y-78175000D02*
X94056250Y-78175000D01*
X94056250Y-92175000D02*
X81056250Y-92175000D01*
X94556250Y-78675000D02*
X94556250Y-91675000D01*
X80556250Y-78675000D02*
G75*
G02*
X81056250Y-78175000I500001J-1D01*
G01*
X81056250Y-92175000D02*
G75*
G02*
X80556250Y-91675000I1J500001D01*
G01*
X94056250Y-78175000D02*
G75*
G02*
X94556250Y-78675000I0J-500000D01*
G01*
X94553486Y-91673884D02*
G75*
G02*
X94053486Y-92173886I-499946J-56D01*
G01*
%TO.C,SW59*%
X271056250Y-72625000D02*
X271056250Y-59625000D01*
X271556250Y-59125000D02*
X284556250Y-59125000D01*
X284556250Y-73125000D02*
X271556250Y-73125000D01*
X285056250Y-59625000D02*
X285056250Y-72625000D01*
X271056250Y-59625000D02*
G75*
G02*
X271556250Y-59125000I500001J-1D01*
G01*
X271556250Y-73125000D02*
G75*
G02*
X271056250Y-72625000I1J500001D01*
G01*
X284556250Y-59125000D02*
G75*
G02*
X285056250Y-59625000I0J-500000D01*
G01*
X285053486Y-72623884D02*
G75*
G02*
X284553486Y-73123886I-499946J-56D01*
G01*
%TO.C,SW6*%
X106750000Y-15475000D02*
X106750000Y-2475000D01*
X107250000Y-1975000D02*
X120250000Y-1975000D01*
X120250000Y-15975000D02*
X107250000Y-15975000D01*
X120750000Y-2475000D02*
X120750000Y-15475000D01*
X106750000Y-2475000D02*
G75*
G02*
X107250000Y-1975000I500001J-1D01*
G01*
X107250000Y-15975000D02*
G75*
G02*
X106750000Y-15475000I1J500001D01*
G01*
X120250000Y-1975000D02*
G75*
G02*
X120750000Y-2475000I0J-500000D01*
G01*
X120747236Y-15473884D02*
G75*
G02*
X120247236Y-15973886I-499946J-56D01*
G01*
%TO.C,SW61*%
X325825000Y-72625000D02*
X325825000Y-59625000D01*
X326325000Y-59125000D02*
X339325000Y-59125000D01*
X339325000Y-73125000D02*
X326325000Y-73125000D01*
X339825000Y-59625000D02*
X339825000Y-72625000D01*
X325825000Y-59625000D02*
G75*
G02*
X326325000Y-59125000I500001J-1D01*
G01*
X326325000Y-73125000D02*
G75*
G02*
X325825000Y-72625000I1J500001D01*
G01*
X339325000Y-59125000D02*
G75*
G02*
X339825000Y-59625000I0J-500000D01*
G01*
X339822236Y-72623884D02*
G75*
G02*
X339322236Y-73123886I-499946J-56D01*
G01*
%TO.C,SW43*%
X235337500Y-53575000D02*
X235337500Y-40575000D01*
X235837500Y-40075000D02*
X248837500Y-40075000D01*
X248837500Y-54075000D02*
X235837500Y-54075000D01*
X249337500Y-40575000D02*
X249337500Y-53575000D01*
X235337500Y-40575000D02*
G75*
G02*
X235837500Y-40075000I500001J-1D01*
G01*
X235837500Y-54075000D02*
G75*
G02*
X235337500Y-53575000I1J500001D01*
G01*
X248837500Y-40075000D02*
G75*
G02*
X249337500Y-40575000I0J-500000D01*
G01*
X249334736Y-53573884D02*
G75*
G02*
X248834736Y-54073886I-499946J-56D01*
G01*
%TO.C,SW48*%
X42456250Y-72625000D02*
X42456250Y-59625000D01*
X42956250Y-59125000D02*
X55956250Y-59125000D01*
X55956250Y-73125000D02*
X42956250Y-73125000D01*
X56456250Y-59625000D02*
X56456250Y-72625000D01*
X42456250Y-59625000D02*
G75*
G02*
X42956250Y-59125000I500001J-1D01*
G01*
X42956250Y-73125000D02*
G75*
G02*
X42456250Y-72625000I1J500001D01*
G01*
X55956250Y-59125000D02*
G75*
G02*
X56456250Y-59625000I0J-500000D01*
G01*
X56453486Y-72623884D02*
G75*
G02*
X55953486Y-73123886I-499946J-56D01*
G01*
%TO.C,SW17*%
X35312500Y-34525000D02*
X35312500Y-21525000D01*
X35812500Y-21025000D02*
X48812500Y-21025000D01*
X48812500Y-35025000D02*
X35812500Y-35025000D01*
X49312500Y-21525000D02*
X49312500Y-34525000D01*
X35312500Y-21525000D02*
G75*
G02*
X35812500Y-21025000I500001J-1D01*
G01*
X35812500Y-35025000D02*
G75*
G02*
X35312500Y-34525000I1J500001D01*
G01*
X48812500Y-21025000D02*
G75*
G02*
X49312500Y-21525000I0J-500000D01*
G01*
X49309736Y-34523884D02*
G75*
G02*
X48809736Y-35023886I-499946J-56D01*
G01*
%TO.C,SW71*%
X282962500Y-96437500D02*
X282962500Y-83437500D01*
X283462500Y-82937500D02*
X296462500Y-82937500D01*
X296462500Y-96937500D02*
X283462500Y-96937500D01*
X296962500Y-83437500D02*
X296962500Y-96437500D01*
X282962500Y-83437500D02*
G75*
G02*
X283462500Y-82937500I500001J-1D01*
G01*
X283462500Y-96937500D02*
G75*
G02*
X282962500Y-96437500I1J500001D01*
G01*
X296462500Y-82937500D02*
G75*
G02*
X296962500Y-83437500I0J-500000D01*
G01*
X296959736Y-96436384D02*
G75*
G02*
X296459736Y-96936386I-499946J-56D01*
G01*
%TO.C,SW35*%
X82937500Y-53575000D02*
X82937500Y-40575000D01*
X83437500Y-40075000D02*
X96437500Y-40075000D01*
X96437500Y-54075000D02*
X83437500Y-54075000D01*
X96937500Y-40575000D02*
X96937500Y-53575000D01*
X82937500Y-40575000D02*
G75*
G02*
X83437500Y-40075000I500001J-1D01*
G01*
X83437500Y-54075000D02*
G75*
G02*
X82937500Y-53575000I1J500001D01*
G01*
X96437500Y-40075000D02*
G75*
G02*
X96937500Y-40575000I0J-500000D01*
G01*
X96934736Y-53573884D02*
G75*
G02*
X96434736Y-54073886I-499946J-56D01*
G01*
%TO.C,SW51*%
X111512500Y-72625000D02*
X111512500Y-59625000D01*
X112012500Y-59125000D02*
X125012500Y-59125000D01*
X125012500Y-73125000D02*
X112012500Y-73125000D01*
X125512500Y-59625000D02*
X125512500Y-72625000D01*
X111512500Y-59625000D02*
G75*
G02*
X112012500Y-59125000I500001J-1D01*
G01*
X112012500Y-73125000D02*
G75*
G02*
X111512500Y-72625000I1J500001D01*
G01*
X125012500Y-59125000D02*
G75*
G02*
X125512500Y-59625000I0J-500000D01*
G01*
X125509736Y-72623884D02*
G75*
G02*
X125009736Y-73123886I-499946J-56D01*
G01*
%TO.C,SW69*%
X225812500Y-91675000D02*
X225812500Y-78675000D01*
X226312500Y-78175000D02*
X239312500Y-78175000D01*
X239312500Y-92175000D02*
X226312500Y-92175000D01*
X239812500Y-78675000D02*
X239812500Y-91675000D01*
X225812500Y-78675000D02*
G75*
G02*
X226312500Y-78175000I500001J-1D01*
G01*
X226312500Y-92175000D02*
G75*
G02*
X225812500Y-91675000I1J500001D01*
G01*
X239312500Y-78175000D02*
G75*
G02*
X239812500Y-78675000I0J-500000D01*
G01*
X239809736Y-91673884D02*
G75*
G02*
X239309736Y-92173886I-499946J-56D01*
G01*
%TO.C,SW32*%
X1975000Y-53575000D02*
X1975000Y-40575000D01*
X2475000Y-40075000D02*
X15475000Y-40075000D01*
X15475000Y-54075000D02*
X2475000Y-54075000D01*
X15975000Y-40575000D02*
X15975000Y-53575000D01*
X1975000Y-40575000D02*
G75*
G02*
X2475000Y-40075000I500001J-1D01*
G01*
X2475000Y-54075000D02*
G75*
G02*
X1975000Y-53575000I1J500001D01*
G01*
X15475000Y-40075000D02*
G75*
G02*
X15975000Y-40575000I0J-500000D01*
G01*
X15972236Y-53573884D02*
G75*
G02*
X15472236Y-54073886I-499946J-56D01*
G01*
%TO.C,SW70*%
X254387500Y-91675000D02*
X254387500Y-78675000D01*
X254887500Y-78175000D02*
X267887500Y-78175000D01*
X267887500Y-92175000D02*
X254887500Y-92175000D01*
X268387500Y-78675000D02*
X268387500Y-91675000D01*
X254387500Y-78675000D02*
G75*
G02*
X254887500Y-78175000I500001J-1D01*
G01*
X254887500Y-92175000D02*
G75*
G02*
X254387500Y-91675000I1J500001D01*
G01*
X267887500Y-78175000D02*
G75*
G02*
X268387500Y-78675000I0J-500000D01*
G01*
X268384736Y-91673884D02*
G75*
G02*
X267884736Y-92173886I-499946J-56D01*
G01*
%TO.C,SW68*%
X190093750Y-91675000D02*
X190093750Y-78675000D01*
X190593750Y-78175000D02*
X203593750Y-78175000D01*
X203593750Y-92175000D02*
X190593750Y-92175000D01*
X204093750Y-78675000D02*
X204093750Y-91675000D01*
X190093750Y-78675000D02*
G75*
G02*
X190593750Y-78175000I500001J-1D01*
G01*
X190593750Y-92175000D02*
G75*
G02*
X190093750Y-91675000I1J500001D01*
G01*
X203593750Y-78175000D02*
G75*
G02*
X204093750Y-78675000I0J-500000D01*
G01*
X204090986Y-91673884D02*
G75*
G02*
X203590986Y-92173886I-499946J-56D01*
G01*
%TO.C,SW73*%
X321062500Y-96437500D02*
X321062500Y-83437500D01*
X321562500Y-82937500D02*
X334562500Y-82937500D01*
X334562500Y-96937500D02*
X321562500Y-96937500D01*
X335062500Y-83437500D02*
X335062500Y-96437500D01*
X321062500Y-83437500D02*
G75*
G02*
X321562500Y-82937500I500001J-1D01*
G01*
X321562500Y-96937500D02*
G75*
G02*
X321062500Y-96437500I1J500001D01*
G01*
X334562500Y-82937500D02*
G75*
G02*
X335062500Y-83437500I0J-500000D01*
G01*
X335059736Y-96436384D02*
G75*
G02*
X334559736Y-96936386I-499946J-56D01*
G01*
%TO.C,SW10*%
X182950000Y-15475000D02*
X182950000Y-2475000D01*
X183450000Y-1975000D02*
X196450000Y-1975000D01*
X196450000Y-15975000D02*
X183450000Y-15975000D01*
X196950000Y-2475000D02*
X196950000Y-15475000D01*
X182950000Y-2475000D02*
G75*
G02*
X183450000Y-1975000I500001J-1D01*
G01*
X183450000Y-15975000D02*
G75*
G02*
X182950000Y-15475000I1J500001D01*
G01*
X196450000Y-1975000D02*
G75*
G02*
X196950000Y-2475000I0J-500000D01*
G01*
X196947236Y-15473884D02*
G75*
G02*
X196447236Y-15973886I-499946J-56D01*
G01*
D13*
%TO.C,SW76*%
X326725000Y-3075000D02*
X326725000Y-14875000D01*
X330825000Y-3075000D02*
X326725000Y-3075000D01*
X330825000Y-14875000D02*
X326725000Y-14875000D01*
X334825000Y-3075000D02*
X338925000Y-3075000D01*
X338925000Y-3075000D02*
X338925000Y-5475000D01*
X338925000Y-7675000D02*
X338925000Y-10275000D01*
X338925000Y-12475000D02*
X338925000Y-14875000D01*
X338925000Y-14875000D02*
X334825000Y-14875000D01*
X334825000Y-8975000D02*
G75*
G02*
X330825000Y-8975000I-2000000J0D01*
G01*
X330825000Y-8975000D02*
G75*
G02*
X334825000Y-8975000I2000000J0D01*
G01*
X327256892Y-9215000D02*
X326926892Y-8975000D01*
X327256892Y-8735000D01*
X327256892Y-9215000D01*
G36*
X327256892Y-9215000D02*
G01*
X326926892Y-8975000D01*
X327256892Y-8735000D01*
X327256892Y-9215000D01*
G37*
D12*
%TO.C,SW5*%
X87700000Y-15475000D02*
X87700000Y-2475000D01*
X88200000Y-1975000D02*
X101200000Y-1975000D01*
X101200000Y-15975000D02*
X88200000Y-15975000D01*
X101700000Y-2475000D02*
X101700000Y-15475000D01*
X87700000Y-2475000D02*
G75*
G02*
X88200000Y-1975000I500001J-1D01*
G01*
X88200000Y-15975000D02*
G75*
G02*
X87700000Y-15475000I1J500001D01*
G01*
X101200000Y-1975000D02*
G75*
G02*
X101700000Y-2475000I0J-500000D01*
G01*
X101697236Y-15473884D02*
G75*
G02*
X101197236Y-15973886I-499946J-56D01*
G01*
%TO.C,SW44*%
X254387500Y-53575000D02*
X254387500Y-40575000D01*
X254887500Y-40075000D02*
X267887500Y-40075000D01*
X267887500Y-54075000D02*
X254887500Y-54075000D01*
X268387500Y-40575000D02*
X268387500Y-53575000D01*
X254387500Y-40575000D02*
G75*
G02*
X254887500Y-40075000I500001J-1D01*
G01*
X254887500Y-54075000D02*
G75*
G02*
X254387500Y-53575000I1J500001D01*
G01*
X267887500Y-40075000D02*
G75*
G02*
X268387500Y-40575000I0J-500000D01*
G01*
X268384736Y-53573884D02*
G75*
G02*
X267884736Y-54073886I-499946J-56D01*
G01*
%TO.C,SW25*%
X192475000Y-34525000D02*
X192475000Y-21525000D01*
X192975000Y-21025000D02*
X205975000Y-21025000D01*
X205975000Y-35025000D02*
X192975000Y-35025000D01*
X206475000Y-21525000D02*
X206475000Y-34525000D01*
X192475000Y-21525000D02*
G75*
G02*
X192975000Y-21025000I500001J-1D01*
G01*
X192975000Y-35025000D02*
G75*
G02*
X192475000Y-34525000I1J500001D01*
G01*
X205975000Y-21025000D02*
G75*
G02*
X206475000Y-21525000I0J-500000D01*
G01*
X206472236Y-34523884D02*
G75*
G02*
X205972236Y-35023886I-499946J-56D01*
G01*
%TO.C,SW26*%
X211525000Y-34525000D02*
X211525000Y-21525000D01*
X212025000Y-21025000D02*
X225025000Y-21025000D01*
X225025000Y-35025000D02*
X212025000Y-35025000D01*
X225525000Y-21525000D02*
X225525000Y-34525000D01*
X211525000Y-21525000D02*
G75*
G02*
X212025000Y-21025000I500001J-1D01*
G01*
X212025000Y-35025000D02*
G75*
G02*
X211525000Y-34525000I1J500001D01*
G01*
X225025000Y-21025000D02*
G75*
G02*
X225525000Y-21525000I0J-500000D01*
G01*
X225522236Y-34523884D02*
G75*
G02*
X225022236Y-35023886I-499946J-56D01*
G01*
%TO.C,SW12*%
X221050000Y-15475000D02*
X221050000Y-2475000D01*
X221550000Y-1975000D02*
X234550000Y-1975000D01*
X234550000Y-15975000D02*
X221550000Y-15975000D01*
X235050000Y-2475000D02*
X235050000Y-15475000D01*
X221050000Y-2475000D02*
G75*
G02*
X221550000Y-1975000I500001J-1D01*
G01*
X221550000Y-15975000D02*
G75*
G02*
X221050000Y-15475000I1J500001D01*
G01*
X234550000Y-1975000D02*
G75*
G02*
X235050000Y-2475000I0J-500000D01*
G01*
X235047236Y-15473884D02*
G75*
G02*
X234547236Y-15973886I-499946J-56D01*
G01*
%TO.C,SW52*%
X130562500Y-72625000D02*
X130562500Y-59625000D01*
X131062500Y-59125000D02*
X144062500Y-59125000D01*
X144062500Y-73125000D02*
X131062500Y-73125000D01*
X144562500Y-59625000D02*
X144562500Y-72625000D01*
X130562500Y-59625000D02*
G75*
G02*
X131062500Y-59125000I500001J-1D01*
G01*
X131062500Y-73125000D02*
G75*
G02*
X130562500Y-72625000I1J500001D01*
G01*
X144062500Y-59125000D02*
G75*
G02*
X144562500Y-59625000I0J-500000D01*
G01*
X144559736Y-72623884D02*
G75*
G02*
X144059736Y-73123886I-499946J-56D01*
G01*
%TO.C,SW67*%
X151993750Y-91675000D02*
X151993750Y-78675000D01*
X152493750Y-78175000D02*
X165493750Y-78175000D01*
X165493750Y-92175000D02*
X152493750Y-92175000D01*
X165993750Y-78675000D02*
X165993750Y-91675000D01*
X151993750Y-78675000D02*
G75*
G02*
X152493750Y-78175000I500001J-1D01*
G01*
X152493750Y-92175000D02*
G75*
G02*
X151993750Y-91675000I1J500001D01*
G01*
X165493750Y-78175000D02*
G75*
G02*
X165993750Y-78675000I0J-500000D01*
G01*
X165990986Y-91673884D02*
G75*
G02*
X165490986Y-92173886I-499946J-56D01*
G01*
%TO.C,SW63*%
X32931250Y-91675000D02*
X32931250Y-78675000D01*
X33431250Y-78175000D02*
X46431250Y-78175000D01*
X46431250Y-92175000D02*
X33431250Y-92175000D01*
X46931250Y-78675000D02*
X46931250Y-91675000D01*
X32931250Y-78675000D02*
G75*
G02*
X33431250Y-78175000I500001J-1D01*
G01*
X33431250Y-92175000D02*
G75*
G02*
X32931250Y-91675000I1J500001D01*
G01*
X46431250Y-78175000D02*
G75*
G02*
X46931250Y-78675000I0J-500000D01*
G01*
X46928486Y-91673884D02*
G75*
G02*
X46428486Y-92173886I-499946J-56D01*
G01*
%TO.C,SW38*%
X140087500Y-53575000D02*
X140087500Y-40575000D01*
X140587500Y-40075000D02*
X153587500Y-40075000D01*
X153587500Y-54075000D02*
X140587500Y-54075000D01*
X154087500Y-40575000D02*
X154087500Y-53575000D01*
X140087500Y-40575000D02*
G75*
G02*
X140587500Y-40075000I500001J-1D01*
G01*
X140587500Y-54075000D02*
G75*
G02*
X140087500Y-53575000I1J500001D01*
G01*
X153587500Y-40075000D02*
G75*
G02*
X154087500Y-40575000I0J-500000D01*
G01*
X154084736Y-53573884D02*
G75*
G02*
X153584736Y-54073886I-499946J-56D01*
G01*
%TO.C,SW39*%
X159137500Y-53575000D02*
X159137500Y-40575000D01*
X159637500Y-40075000D02*
X172637500Y-40075000D01*
X172637500Y-54075000D02*
X159637500Y-54075000D01*
X173137500Y-40575000D02*
X173137500Y-53575000D01*
X159137500Y-40575000D02*
G75*
G02*
X159637500Y-40075000I500001J-1D01*
G01*
X159637500Y-54075000D02*
G75*
G02*
X159137500Y-53575000I1J500001D01*
G01*
X172637500Y-40075000D02*
G75*
G02*
X173137500Y-40575000I0J-500000D01*
G01*
X173134736Y-53573884D02*
G75*
G02*
X172634736Y-54073886I-499946J-56D01*
G01*
%TO.C,SW41*%
X197237500Y-53575000D02*
X197237500Y-40575000D01*
X197737500Y-40075000D02*
X210737500Y-40075000D01*
X210737500Y-54075000D02*
X197737500Y-54075000D01*
X211237500Y-40575000D02*
X211237500Y-53575000D01*
X197237500Y-40575000D02*
G75*
G02*
X197737500Y-40075000I500001J-1D01*
G01*
X197737500Y-54075000D02*
G75*
G02*
X197237500Y-53575000I1J500001D01*
G01*
X210737500Y-40075000D02*
G75*
G02*
X211237500Y-40575000I0J-500000D01*
G01*
X211234736Y-53573884D02*
G75*
G02*
X210734736Y-54073886I-499946J-56D01*
G01*
%TO.C,SW47*%
X1975000Y-72625000D02*
X1975000Y-59625000D01*
X2475000Y-59125000D02*
X15475000Y-59125000D01*
X15475000Y-73125000D02*
X2475000Y-73125000D01*
X15975000Y-59625000D02*
X15975000Y-72625000D01*
X1975000Y-59625000D02*
G75*
G02*
X2475000Y-59125000I500001J-1D01*
G01*
X2475000Y-73125000D02*
G75*
G02*
X1975000Y-72625000I1J500001D01*
G01*
X15475000Y-59125000D02*
G75*
G02*
X15975000Y-59625000I0J-500000D01*
G01*
X15972236Y-72623884D02*
G75*
G02*
X15472236Y-73123886I-499946J-56D01*
G01*
%TO.C,SW1*%
X1975000Y-15475000D02*
X1975000Y-2475000D01*
X2475000Y-1975000D02*
X15475000Y-1975000D01*
X15475000Y-15975000D02*
X2475000Y-15975000D01*
X15975000Y-2475000D02*
X15975000Y-15475000D01*
X1975000Y-2475000D02*
G75*
G02*
X2475000Y-1975000I500001J-1D01*
G01*
X2475000Y-15975000D02*
G75*
G02*
X1975000Y-15475000I1J500001D01*
G01*
X15475000Y-1975000D02*
G75*
G02*
X15975000Y-2475000I0J-500000D01*
G01*
X15972236Y-15473884D02*
G75*
G02*
X15472236Y-15973886I-499946J-56D01*
G01*
%TO.C,SW16*%
X1975000Y-34525000D02*
X1975000Y-21525000D01*
X2475000Y-21025000D02*
X15475000Y-21025000D01*
X15475000Y-35025000D02*
X2475000Y-35025000D01*
X15975000Y-21525000D02*
X15975000Y-34525000D01*
X1975000Y-21525000D02*
G75*
G02*
X2475000Y-21025000I500001J-1D01*
G01*
X2475000Y-35025000D02*
G75*
G02*
X1975000Y-34525000I1J500001D01*
G01*
X15475000Y-21025000D02*
G75*
G02*
X15975000Y-21525000I0J-500000D01*
G01*
X15972236Y-34523884D02*
G75*
G02*
X15472236Y-35023886I-499946J-56D01*
G01*
%TO.C,SW57*%
X225812500Y-72625000D02*
X225812500Y-59625000D01*
X226312500Y-59125000D02*
X239312500Y-59125000D01*
X239312500Y-73125000D02*
X226312500Y-73125000D01*
X239812500Y-59625000D02*
X239812500Y-72625000D01*
X225812500Y-59625000D02*
G75*
G02*
X226312500Y-59125000I500001J-1D01*
G01*
X226312500Y-73125000D02*
G75*
G02*
X225812500Y-72625000I1J500001D01*
G01*
X239312500Y-59125000D02*
G75*
G02*
X239812500Y-59625000I0J-500000D01*
G01*
X239809736Y-72623884D02*
G75*
G02*
X239309736Y-73123886I-499946J-56D01*
G01*
%TO.C,SW4*%
X68650000Y-15475000D02*
X68650000Y-2475000D01*
X69150000Y-1975000D02*
X82150000Y-1975000D01*
X82150000Y-15975000D02*
X69150000Y-15975000D01*
X82650000Y-2475000D02*
X82650000Y-15475000D01*
X68650000Y-2475000D02*
G75*
G02*
X69150000Y-1975000I500001J-1D01*
G01*
X69150000Y-15975000D02*
G75*
G02*
X68650000Y-15475000I1J500001D01*
G01*
X82150000Y-1975000D02*
G75*
G02*
X82650000Y-2475000I0J-500000D01*
G01*
X82647236Y-15473884D02*
G75*
G02*
X82147236Y-15973886I-499946J-56D01*
G01*
%TO.C,SW20*%
X97225000Y-34525000D02*
X97225000Y-21525000D01*
X97725000Y-21025000D02*
X110725000Y-21025000D01*
X110725000Y-35025000D02*
X97725000Y-35025000D01*
X111225000Y-21525000D02*
X111225000Y-34525000D01*
X97225000Y-21525000D02*
G75*
G02*
X97725000Y-21025000I500001J-1D01*
G01*
X97725000Y-35025000D02*
G75*
G02*
X97225000Y-34525000I1J500001D01*
G01*
X110725000Y-21025000D02*
G75*
G02*
X111225000Y-21525000I0J-500000D01*
G01*
X111222236Y-34523884D02*
G75*
G02*
X110722236Y-35023886I-499946J-56D01*
G01*
%TO.C,SW79*%
X297250000Y-15475000D02*
X297250000Y-2475000D01*
X297750000Y-1975000D02*
X310750000Y-1975000D01*
X310750000Y-15975000D02*
X297750000Y-15975000D01*
X311250000Y-2475000D02*
X311250000Y-15475000D01*
X297250000Y-2475000D02*
G75*
G02*
X297750000Y-1975000I500001J-1D01*
G01*
X297750000Y-15975000D02*
G75*
G02*
X297250000Y-15475000I1J500001D01*
G01*
X310750000Y-1975000D02*
G75*
G02*
X311250000Y-2475000I0J-500000D01*
G01*
X311247236Y-15473884D02*
G75*
G02*
X310747236Y-15973886I-499946J-56D01*
G01*
%TO.C,SW24*%
X173425000Y-34525000D02*
X173425000Y-21525000D01*
X173925000Y-21025000D02*
X186925000Y-21025000D01*
X186925000Y-35025000D02*
X173925000Y-35025000D01*
X187425000Y-21525000D02*
X187425000Y-34525000D01*
X173425000Y-21525000D02*
G75*
G02*
X173925000Y-21025000I500001J-1D01*
G01*
X173925000Y-35025000D02*
G75*
G02*
X173425000Y-34525000I1J500001D01*
G01*
X186925000Y-21025000D02*
G75*
G02*
X187425000Y-21525000I0J-500000D01*
G01*
X187422236Y-34523884D02*
G75*
G02*
X186922236Y-35023886I-499946J-56D01*
G01*
%TO.C,SW64*%
X56743750Y-91675000D02*
X56743750Y-78675000D01*
X57243750Y-78175000D02*
X70243750Y-78175000D01*
X70243750Y-92175000D02*
X57243750Y-92175000D01*
X70743750Y-78675000D02*
X70743750Y-91675000D01*
X56743750Y-78675000D02*
G75*
G02*
X57243750Y-78175000I500001J-1D01*
G01*
X57243750Y-92175000D02*
G75*
G02*
X56743750Y-91675000I1J500001D01*
G01*
X70243750Y-78175000D02*
G75*
G02*
X70743750Y-78675000I0J-500000D01*
G01*
X70740986Y-91673884D02*
G75*
G02*
X70240986Y-92173886I-499946J-56D01*
G01*
%TO.C,SW21*%
X116275000Y-34525000D02*
X116275000Y-21525000D01*
X116775000Y-21025000D02*
X129775000Y-21025000D01*
X129775000Y-35025000D02*
X116775000Y-35025000D01*
X130275000Y-21525000D02*
X130275000Y-34525000D01*
X116275000Y-21525000D02*
G75*
G02*
X116775000Y-21025000I500001J-1D01*
G01*
X116775000Y-35025000D02*
G75*
G02*
X116275000Y-34525000I1J500001D01*
G01*
X129775000Y-21025000D02*
G75*
G02*
X130275000Y-21525000I0J-500000D01*
G01*
X130272236Y-34523884D02*
G75*
G02*
X129772236Y-35023886I-499946J-56D01*
G01*
%TO.C,SW27*%
X230575000Y-34525000D02*
X230575000Y-21525000D01*
X231075000Y-21025000D02*
X244075000Y-21025000D01*
X244075000Y-35025000D02*
X231075000Y-35025000D01*
X244575000Y-21525000D02*
X244575000Y-34525000D01*
X230575000Y-21525000D02*
G75*
G02*
X231075000Y-21025000I500001J-1D01*
G01*
X231075000Y-35025000D02*
G75*
G02*
X230575000Y-34525000I1J500001D01*
G01*
X244075000Y-21025000D02*
G75*
G02*
X244575000Y-21525000I0J-500000D01*
G01*
X244572236Y-34523884D02*
G75*
G02*
X244072236Y-35023886I-499946J-56D01*
G01*
%TO.C,SW29*%
X268675000Y-34525000D02*
X268675000Y-21525000D01*
X269175000Y-21025000D02*
X282175000Y-21025000D01*
X282175000Y-35025000D02*
X269175000Y-35025000D01*
X282675000Y-21525000D02*
X282675000Y-34525000D01*
X268675000Y-21525000D02*
G75*
G02*
X269175000Y-21025000I500001J-1D01*
G01*
X269175000Y-35025000D02*
G75*
G02*
X268675000Y-34525000I1J500001D01*
G01*
X282175000Y-21025000D02*
G75*
G02*
X282675000Y-21525000I0J-500000D01*
G01*
X282672236Y-34523884D02*
G75*
G02*
X282172236Y-35023886I-499946J-56D01*
G01*
%TO.C,SW2*%
X30550000Y-15475000D02*
X30550000Y-2475000D01*
X31050000Y-1975000D02*
X44050000Y-1975000D01*
X44050000Y-15975000D02*
X31050000Y-15975000D01*
X44550000Y-2475000D02*
X44550000Y-15475000D01*
X30550000Y-2475000D02*
G75*
G02*
X31050000Y-1975000I500001J-1D01*
G01*
X31050000Y-15975000D02*
G75*
G02*
X30550000Y-15475000I1J500001D01*
G01*
X44050000Y-1975000D02*
G75*
G02*
X44550000Y-2475000I0J-500000D01*
G01*
X44547236Y-15473884D02*
G75*
G02*
X44047236Y-15973886I-499946J-56D01*
G01*
%TO.C,SW28*%
X249625000Y-34525000D02*
X249625000Y-21525000D01*
X250125000Y-21025000D02*
X263125000Y-21025000D01*
X263125000Y-35025000D02*
X250125000Y-35025000D01*
X263625000Y-21525000D02*
X263625000Y-34525000D01*
X249625000Y-21525000D02*
G75*
G02*
X250125000Y-21025000I500001J-1D01*
G01*
X250125000Y-35025000D02*
G75*
G02*
X249625000Y-34525000I1J500001D01*
G01*
X263125000Y-21025000D02*
G75*
G02*
X263625000Y-21525000I0J-500000D01*
G01*
X263622236Y-34523884D02*
G75*
G02*
X263122236Y-35023886I-499946J-56D01*
G01*
%TO.C,SW77*%
X325825000Y-15475000D02*
X325825000Y-2475000D01*
X326325000Y-1975000D02*
X339325000Y-1975000D01*
X339325000Y-15975000D02*
X326325000Y-15975000D01*
X339825000Y-2475000D02*
X339825000Y-15475000D01*
X325825000Y-2475000D02*
G75*
G02*
X326325000Y-1975000I500001J-1D01*
G01*
X326325000Y-15975000D02*
G75*
G02*
X325825000Y-15475000I1J500001D01*
G01*
X339325000Y-1975000D02*
G75*
G02*
X339825000Y-2475000I0J-500000D01*
G01*
X339822236Y-15473884D02*
G75*
G02*
X339322236Y-15973886I-499946J-56D01*
G01*
%TO.C,SW19*%
X78175000Y-34525000D02*
X78175000Y-21525000D01*
X78675000Y-21025000D02*
X91675000Y-21025000D01*
X91675000Y-35025000D02*
X78675000Y-35025000D01*
X92175000Y-21525000D02*
X92175000Y-34525000D01*
X78175000Y-21525000D02*
G75*
G02*
X78675000Y-21025000I500001J-1D01*
G01*
X78675000Y-35025000D02*
G75*
G02*
X78175000Y-34525000I1J500001D01*
G01*
X91675000Y-21025000D02*
G75*
G02*
X92175000Y-21525000I0J-500000D01*
G01*
X92172236Y-34523884D02*
G75*
G02*
X91672236Y-35023886I-499946J-56D01*
G01*
%TO.C,SW8*%
X144850000Y-15475000D02*
X144850000Y-2475000D01*
X145350000Y-1975000D02*
X158350000Y-1975000D01*
X158350000Y-15975000D02*
X145350000Y-15975000D01*
X158850000Y-2475000D02*
X158850000Y-15475000D01*
X144850000Y-2475000D02*
G75*
G02*
X145350000Y-1975000I500001J-1D01*
G01*
X145350000Y-15975000D02*
G75*
G02*
X144850000Y-15475000I1J500001D01*
G01*
X158350000Y-1975000D02*
G75*
G02*
X158850000Y-2475000I0J-500000D01*
G01*
X158847236Y-15473884D02*
G75*
G02*
X158347236Y-15973886I-499946J-56D01*
G01*
%TO.C,SW9*%
X163900000Y-15475000D02*
X163900000Y-2475000D01*
X164400000Y-1975000D02*
X177400000Y-1975000D01*
X177400000Y-15975000D02*
X164400000Y-15975000D01*
X177900000Y-2475000D02*
X177900000Y-15475000D01*
X163900000Y-2475000D02*
G75*
G02*
X164400000Y-1975000I500001J-1D01*
G01*
X164400000Y-15975000D02*
G75*
G02*
X163900000Y-15475000I1J500001D01*
G01*
X177400000Y-1975000D02*
G75*
G02*
X177900000Y-2475000I0J-500000D01*
G01*
X177897236Y-15473884D02*
G75*
G02*
X177397236Y-15973886I-499946J-56D01*
G01*
%TO.C,SW72*%
X302012500Y-96437500D02*
X302012500Y-83437500D01*
X302512500Y-82937500D02*
X315512500Y-82937500D01*
X315512500Y-96937500D02*
X302512500Y-96937500D01*
X316012500Y-83437500D02*
X316012500Y-96437500D01*
X302012500Y-83437500D02*
G75*
G02*
X302512500Y-82937500I500001J-1D01*
G01*
X302512500Y-96937500D02*
G75*
G02*
X302012500Y-96437500I1J500001D01*
G01*
X315512500Y-82937500D02*
G75*
G02*
X316012500Y-83437500I0J-500000D01*
G01*
X316009736Y-96436384D02*
G75*
G02*
X315509736Y-96936386I-499946J-56D01*
G01*
%TO.C,SW60*%
X302012500Y-77375000D02*
X302012500Y-64375000D01*
X302512500Y-63875000D02*
X315512500Y-63875000D01*
X315512500Y-77875000D02*
X302512500Y-77875000D01*
X316012500Y-64375000D02*
X316012500Y-77375000D01*
X302012500Y-64375000D02*
G75*
G02*
X302512500Y-63875000I500001J-1D01*
G01*
X302512500Y-77875000D02*
G75*
G02*
X302012500Y-77375000I1J500001D01*
G01*
X315512500Y-63875000D02*
G75*
G02*
X316012500Y-64375000I0J-500000D01*
G01*
X316009736Y-77373884D02*
G75*
G02*
X315509736Y-77873886I-499946J-56D01*
G01*
%TO.C,SW7*%
X125800000Y-15475000D02*
X125800000Y-2475000D01*
X126300000Y-1975000D02*
X139300000Y-1975000D01*
X139300000Y-15975000D02*
X126300000Y-15975000D01*
X139800000Y-2475000D02*
X139800000Y-15475000D01*
X125800000Y-2475000D02*
G75*
G02*
X126300000Y-1975000I500001J-1D01*
G01*
X126300000Y-15975000D02*
G75*
G02*
X125800000Y-15475000I1J500001D01*
G01*
X139300000Y-1975000D02*
G75*
G02*
X139800000Y-2475000I0J-500000D01*
G01*
X139797236Y-15473884D02*
G75*
G02*
X139297236Y-15973886I-499946J-56D01*
G01*
%TO.C,SW18*%
X59125000Y-34525000D02*
X59125000Y-21525000D01*
X59625000Y-21025000D02*
X72625000Y-21025000D01*
X72625000Y-35025000D02*
X59625000Y-35025000D01*
X73125000Y-21525000D02*
X73125000Y-34525000D01*
X59125000Y-21525000D02*
G75*
G02*
X59625000Y-21025000I500001J-1D01*
G01*
X59625000Y-35025000D02*
G75*
G02*
X59125000Y-34525000I1J500001D01*
G01*
X72625000Y-21025000D02*
G75*
G02*
X73125000Y-21525000I0J-500000D01*
G01*
X73122236Y-34523884D02*
G75*
G02*
X72622236Y-35023886I-499946J-56D01*
G01*
%TO.C,SW62*%
X1975000Y-91675000D02*
X1975000Y-78675000D01*
X2475000Y-78175000D02*
X15475000Y-78175000D01*
X15475000Y-92175000D02*
X2475000Y-92175000D01*
X15975000Y-78675000D02*
X15975000Y-91675000D01*
X1975000Y-78675000D02*
G75*
G02*
X2475000Y-78175000I500001J-1D01*
G01*
X2475000Y-92175000D02*
G75*
G02*
X1975000Y-91675000I1J500001D01*
G01*
X15475000Y-78175000D02*
G75*
G02*
X15975000Y-78675000I0J-500000D01*
G01*
X15972236Y-91673884D02*
G75*
G02*
X15472236Y-92173886I-499946J-56D01*
G01*
%TO.C,SW3*%
X49600000Y-15475000D02*
X49600000Y-2475000D01*
X50100000Y-1975000D02*
X63100000Y-1975000D01*
X63100000Y-15975000D02*
X50100000Y-15975000D01*
X63600000Y-2475000D02*
X63600000Y-15475000D01*
X49600000Y-2475000D02*
G75*
G02*
X50100000Y-1975000I500001J-1D01*
G01*
X50100000Y-15975000D02*
G75*
G02*
X49600000Y-15475000I1J500001D01*
G01*
X63100000Y-1975000D02*
G75*
G02*
X63600000Y-2475000I0J-500000D01*
G01*
X63597236Y-15473884D02*
G75*
G02*
X63097236Y-15973886I-499946J-56D01*
G01*
%TO.C,SW34*%
X63887500Y-53575000D02*
X63887500Y-40575000D01*
X64387500Y-40075000D02*
X77387500Y-40075000D01*
X77387500Y-54075000D02*
X64387500Y-54075000D01*
X77887500Y-40575000D02*
X77887500Y-53575000D01*
X63887500Y-40575000D02*
G75*
G02*
X64387500Y-40075000I500001J-1D01*
G01*
X64387500Y-54075000D02*
G75*
G02*
X63887500Y-53575000I1J500001D01*
G01*
X77387500Y-40075000D02*
G75*
G02*
X77887500Y-40575000I0J-500000D01*
G01*
X77884736Y-53573884D02*
G75*
G02*
X77384736Y-54073886I-499946J-56D01*
G01*
%TO.C,SW53*%
X149612500Y-72625000D02*
X149612500Y-59625000D01*
X150112500Y-59125000D02*
X163112500Y-59125000D01*
X163112500Y-73125000D02*
X150112500Y-73125000D01*
X163612500Y-59625000D02*
X163612500Y-72625000D01*
X149612500Y-59625000D02*
G75*
G02*
X150112500Y-59125000I500001J-1D01*
G01*
X150112500Y-73125000D02*
G75*
G02*
X149612500Y-72625000I1J500001D01*
G01*
X163112500Y-59125000D02*
G75*
G02*
X163612500Y-59625000I0J-500000D01*
G01*
X163609736Y-72623884D02*
G75*
G02*
X163109736Y-73123886I-499946J-56D01*
G01*
%TO.C,SW58*%
X244862500Y-72625000D02*
X244862500Y-59625000D01*
X245362500Y-59125000D02*
X258362500Y-59125000D01*
X258362500Y-73125000D02*
X245362500Y-73125000D01*
X258862500Y-59625000D02*
X258862500Y-72625000D01*
X244862500Y-59625000D02*
G75*
G02*
X245362500Y-59125000I500001J-1D01*
G01*
X245362500Y-73125000D02*
G75*
G02*
X244862500Y-72625000I1J500001D01*
G01*
X258362500Y-59125000D02*
G75*
G02*
X258862500Y-59625000I0J-500000D01*
G01*
X258859736Y-72623884D02*
G75*
G02*
X258359736Y-73123886I-499946J-56D01*
G01*
%TO.C,SW40*%
X178187500Y-53575000D02*
X178187500Y-40575000D01*
X178687500Y-40075000D02*
X191687500Y-40075000D01*
X191687500Y-54075000D02*
X178687500Y-54075000D01*
X192187500Y-40575000D02*
X192187500Y-53575000D01*
X178187500Y-40575000D02*
G75*
G02*
X178687500Y-40075000I500001J-1D01*
G01*
X178687500Y-54075000D02*
G75*
G02*
X178187500Y-53575000I1J500001D01*
G01*
X191687500Y-40075000D02*
G75*
G02*
X192187500Y-40575000I0J-500000D01*
G01*
X192184736Y-53573884D02*
G75*
G02*
X191684736Y-54073886I-499946J-56D01*
G01*
%TO.C,SW50*%
X92462500Y-72625000D02*
X92462500Y-59625000D01*
X92962500Y-59125000D02*
X105962500Y-59125000D01*
X105962500Y-73125000D02*
X92962500Y-73125000D01*
X106462500Y-59625000D02*
X106462500Y-72625000D01*
X92462500Y-59625000D02*
G75*
G02*
X92962500Y-59125000I500001J-1D01*
G01*
X92962500Y-73125000D02*
G75*
G02*
X92462500Y-72625000I1J500001D01*
G01*
X105962500Y-59125000D02*
G75*
G02*
X106462500Y-59625000I0J-500000D01*
G01*
X106459736Y-72623884D02*
G75*
G02*
X105959736Y-73123886I-499946J-56D01*
G01*
%TO.C,SW55*%
X187712500Y-72625000D02*
X187712500Y-59625000D01*
X188212500Y-59125000D02*
X201212500Y-59125000D01*
X201212500Y-73125000D02*
X188212500Y-73125000D01*
X201712500Y-59625000D02*
X201712500Y-72625000D01*
X187712500Y-59625000D02*
G75*
G02*
X188212500Y-59125000I500001J-1D01*
G01*
X188212500Y-73125000D02*
G75*
G02*
X187712500Y-72625000I1J500001D01*
G01*
X201212500Y-59125000D02*
G75*
G02*
X201712500Y-59625000I0J-500000D01*
G01*
X201709736Y-72623884D02*
G75*
G02*
X201209736Y-73123886I-499946J-56D01*
G01*
%TO.C,SW66*%
X113893750Y-91675000D02*
X113893750Y-78675000D01*
X114393750Y-78175000D02*
X127393750Y-78175000D01*
X127393750Y-92175000D02*
X114393750Y-92175000D01*
X127893750Y-78675000D02*
X127893750Y-91675000D01*
X113893750Y-78675000D02*
G75*
G02*
X114393750Y-78175000I500001J-1D01*
G01*
X114393750Y-92175000D02*
G75*
G02*
X113893750Y-91675000I1J500001D01*
G01*
X127393750Y-78175000D02*
G75*
G02*
X127893750Y-78675000I0J-500000D01*
G01*
X127890986Y-91673884D02*
G75*
G02*
X127390986Y-92173886I-499946J-56D01*
G01*
%TO.C,SW46*%
X325825000Y-53575000D02*
X325825000Y-40575000D01*
X326325000Y-40075000D02*
X339325000Y-40075000D01*
X339325000Y-54075000D02*
X326325000Y-54075000D01*
X339825000Y-40575000D02*
X339825000Y-53575000D01*
X325825000Y-40575000D02*
G75*
G02*
X326325000Y-40075000I500001J-1D01*
G01*
X326325000Y-54075000D02*
G75*
G02*
X325825000Y-53575000I1J500001D01*
G01*
X339325000Y-40075000D02*
G75*
G02*
X339825000Y-40575000I0J-500000D01*
G01*
X339822236Y-53573884D02*
G75*
G02*
X339322236Y-54073886I-499946J-56D01*
G01*
%TO.C,SW49*%
X73412500Y-72625000D02*
X73412500Y-59625000D01*
X73912500Y-59125000D02*
X86912500Y-59125000D01*
X86912500Y-73125000D02*
X73912500Y-73125000D01*
X87412500Y-59625000D02*
X87412500Y-72625000D01*
X73412500Y-59625000D02*
G75*
G02*
X73912500Y-59125000I500001J-1D01*
G01*
X73912500Y-73125000D02*
G75*
G02*
X73412500Y-72625000I1J500001D01*
G01*
X86912500Y-59125000D02*
G75*
G02*
X87412500Y-59625000I0J-500000D01*
G01*
X87409736Y-72623884D02*
G75*
G02*
X86909736Y-73123886I-499946J-56D01*
G01*
%TO.C,SW15*%
X278200000Y-15475000D02*
X278200000Y-2475000D01*
X278700000Y-1975000D02*
X291700000Y-1975000D01*
X291700000Y-15975000D02*
X278700000Y-15975000D01*
X292200000Y-2475000D02*
X292200000Y-15475000D01*
X278200000Y-2475000D02*
G75*
G02*
X278700000Y-1975000I500001J-1D01*
G01*
X278700000Y-15975000D02*
G75*
G02*
X278200000Y-15475000I1J500001D01*
G01*
X291700000Y-1975000D02*
G75*
G02*
X292200000Y-2475000I0J-500000D01*
G01*
X292197236Y-15473884D02*
G75*
G02*
X291697236Y-15973886I-499946J-56D01*
G01*
%TO.C,SW14*%
X259150000Y-15475000D02*
X259150000Y-2475000D01*
X259650000Y-1975000D02*
X272650000Y-1975000D01*
X272650000Y-15975000D02*
X259650000Y-15975000D01*
X273150000Y-2475000D02*
X273150000Y-15475000D01*
X259150000Y-2475000D02*
G75*
G02*
X259650000Y-1975000I500001J-1D01*
G01*
X259650000Y-15975000D02*
G75*
G02*
X259150000Y-15475000I1J500001D01*
G01*
X272650000Y-1975000D02*
G75*
G02*
X273150000Y-2475000I0J-500000D01*
G01*
X273147236Y-15473884D02*
G75*
G02*
X272647236Y-15973886I-499946J-56D01*
G01*
%TO.C,SW11*%
X202000000Y-15475000D02*
X202000000Y-2475000D01*
X202500000Y-1975000D02*
X215500000Y-1975000D01*
X215500000Y-15975000D02*
X202500000Y-15975000D01*
X216000000Y-2475000D02*
X216000000Y-15475000D01*
X202000000Y-2475000D02*
G75*
G02*
X202500000Y-1975000I500001J-1D01*
G01*
X202500000Y-15975000D02*
G75*
G02*
X202000000Y-15475000I1J500001D01*
G01*
X215500000Y-1975000D02*
G75*
G02*
X216000000Y-2475000I0J-500000D01*
G01*
X215997236Y-15473884D02*
G75*
G02*
X215497236Y-15973886I-499946J-56D01*
G01*
%TO.C,SW45*%
X285343750Y-53575000D02*
X285343750Y-40575000D01*
X285843750Y-40075000D02*
X298843750Y-40075000D01*
X298843750Y-54075000D02*
X285843750Y-54075000D01*
X299343750Y-40575000D02*
X299343750Y-53575000D01*
X285343750Y-40575000D02*
G75*
G02*
X285843750Y-40075000I500001J-1D01*
G01*
X285843750Y-54075000D02*
G75*
G02*
X285343750Y-53575000I1J500001D01*
G01*
X298843750Y-40075000D02*
G75*
G02*
X299343750Y-40575000I0J-500000D01*
G01*
X299340986Y-53573884D02*
G75*
G02*
X298840986Y-54073886I-499946J-56D01*
G01*
%TO.C,SW22*%
X135325000Y-34525000D02*
X135325000Y-21525000D01*
X135825000Y-21025000D02*
X148825000Y-21025000D01*
X148825000Y-35025000D02*
X135825000Y-35025000D01*
X149325000Y-21525000D02*
X149325000Y-34525000D01*
X135325000Y-21525000D02*
G75*
G02*
X135825000Y-21025000I500001J-1D01*
G01*
X135825000Y-35025000D02*
G75*
G02*
X135325000Y-34525000I1J500001D01*
G01*
X148825000Y-21025000D02*
G75*
G02*
X149325000Y-21525000I0J-500000D01*
G01*
X149322236Y-34523884D02*
G75*
G02*
X148822236Y-35023886I-499946J-56D01*
G01*
%TO.C,SW36*%
X101987500Y-53575000D02*
X101987500Y-40575000D01*
X102487500Y-40075000D02*
X115487500Y-40075000D01*
X115487500Y-54075000D02*
X102487500Y-54075000D01*
X115987500Y-40575000D02*
X115987500Y-53575000D01*
X101987500Y-40575000D02*
G75*
G02*
X102487500Y-40075000I500001J-1D01*
G01*
X102487500Y-54075000D02*
G75*
G02*
X101987500Y-53575000I1J500001D01*
G01*
X115487500Y-40075000D02*
G75*
G02*
X115987500Y-40575000I0J-500000D01*
G01*
X115984736Y-53573884D02*
G75*
G02*
X115484736Y-54073886I-499946J-56D01*
G01*
%TO.C,SW13*%
X240100000Y-15475000D02*
X240100000Y-2475000D01*
X240600000Y-1975000D02*
X253600000Y-1975000D01*
X253600000Y-15975000D02*
X240600000Y-15975000D01*
X254100000Y-2475000D02*
X254100000Y-15475000D01*
X240100000Y-2475000D02*
G75*
G02*
X240600000Y-1975000I500001J-1D01*
G01*
X240600000Y-15975000D02*
G75*
G02*
X240100000Y-15475000I1J500001D01*
G01*
X253600000Y-1975000D02*
G75*
G02*
X254100000Y-2475000I0J-500000D01*
G01*
X254097236Y-15473884D02*
G75*
G02*
X253597236Y-15973886I-499946J-56D01*
G01*
%TO.C,SW37*%
X121037500Y-53575000D02*
X121037500Y-40575000D01*
X121537500Y-40075000D02*
X134537500Y-40075000D01*
X134537500Y-54075000D02*
X121537500Y-54075000D01*
X135037500Y-40575000D02*
X135037500Y-53575000D01*
X121037500Y-40575000D02*
G75*
G02*
X121537500Y-40075000I500001J-1D01*
G01*
X121537500Y-54075000D02*
G75*
G02*
X121037500Y-53575000I1J500001D01*
G01*
X134537500Y-40075000D02*
G75*
G02*
X135037500Y-40575000I0J-500000D01*
G01*
X135034736Y-53573884D02*
G75*
G02*
X134534736Y-54073886I-499946J-56D01*
G01*
%TD*%
M02*
