M48
; DRILL file {KiCad 8.0.8} date 2025-02-24T19:32:57-0600
; FORMAT={-:-/ absolute / metric / decimal}
; #@! TF.CreationDate,2025-02-24T19:32:57-06:00
; #@! TF.GenerationSoftware,Kicad,Pcbnew,8.0.8
; #@! TF.FileFunction,NonPlated,1,2,NPTH
FMAT,2
METRIC
; #@! TA.AperFunction,NonPlated,NPTH,ComponentDrill
T1C1.750
; #@! TA.AperFunction,NonPlated,NPTH,ComponentDrill
T2C3.048
; #@! TA.AperFunction,NonPlated,NPTH,ComponentDrill
T3C3.988
%
G90
G05
T1
X3.895Y-8.975
X3.895Y-28.025
X3.895Y-47.075
X3.895Y-66.125
X3.895Y-85.175
X14.055Y-8.975
X14.055Y-28.025
X14.055Y-47.075
X14.055Y-66.125
X14.055Y-85.175
X32.47Y-8.975
X34.851Y-85.175
X37.233Y-28.025
X39.614Y-47.075
X42.63Y-8.975
X44.376Y-66.125
X45.011Y-85.175
X47.392Y-28.025
X49.774Y-47.075
X51.52Y-8.975
X54.536Y-66.125
X58.664Y-85.175
X61.045Y-28.025
X61.68Y-8.975
X65.807Y-47.075
X68.824Y-85.175
X70.57Y-8.975
X71.205Y-28.025
X75.332Y-66.125
X75.968Y-47.075
X80.095Y-28.025
X80.73Y-8.975
X82.476Y-85.175
X84.858Y-47.075
X85.492Y-66.125
X89.62Y-8.975
X90.255Y-28.025
X92.636Y-85.175
X94.382Y-66.125
X95.017Y-47.075
X99.145Y-28.025
X99.78Y-8.975
X103.907Y-47.075
X104.542Y-66.125
X108.67Y-8.975
X109.305Y-28.025
X113.432Y-66.125
X114.067Y-47.075
X115.814Y-85.175
X118.195Y-28.025
X118.83Y-8.975
X122.957Y-47.075
X123.593Y-66.125
X125.974Y-85.175
X127.72Y-8.975
X128.355Y-28.025
X132.482Y-66.125
X133.118Y-47.075
X137.245Y-28.025
X137.88Y-8.975
X142.007Y-47.075
X142.642Y-66.125
X146.77Y-8.975
X147.405Y-28.025
X151.532Y-66.125
X152.167Y-47.075
X153.914Y-85.175
X156.295Y-28.025
X156.93Y-8.975
X161.058Y-47.075
X161.692Y-66.125
X164.074Y-85.175
X165.82Y-8.975
X166.455Y-28.025
X170.582Y-66.125
X171.218Y-47.075
X175.345Y-28.025
X175.98Y-8.975
X180.107Y-47.075
X180.742Y-66.125
X184.87Y-8.975
X185.505Y-28.025
X189.632Y-66.125
X190.267Y-47.075
X192.014Y-85.175
X194.395Y-28.025
X195.03Y-8.975
X199.157Y-47.075
X199.792Y-66.125
X202.174Y-85.175
X203.92Y-8.975
X204.555Y-28.025
X208.683Y-66.125
X209.317Y-47.075
X213.445Y-28.025
X214.08Y-8.975
X218.207Y-47.075
X218.843Y-66.125
X222.97Y-8.975
X223.605Y-28.025
X227.732Y-66.125
X227.732Y-85.175
X228.367Y-47.075
X232.495Y-28.025
X233.13Y-8.975
X237.257Y-47.075
X237.892Y-66.125
X237.892Y-85.175
X242.02Y-8.975
X242.655Y-28.025
X246.782Y-66.125
X247.417Y-47.075
X251.545Y-28.025
X252.18Y-8.975
X256.308Y-47.075
X256.308Y-85.175
X256.942Y-66.125
X261.07Y-8.975
X261.705Y-28.025
X266.467Y-47.075
X266.467Y-85.175
X270.595Y-28.025
X271.23Y-8.975
X272.976Y-66.125
X280.12Y-8.975
X280.755Y-28.025
X283.136Y-66.125
X284.882Y-89.938
X287.264Y-47.075
X290.28Y-8.975
X294.407Y-28.025
X295.042Y-89.938
X297.424Y-47.075
X299.17Y-8.975
X303.933Y-70.875
X303.933Y-89.938
X304.567Y-28.025
X309.33Y-8.975
X314.092Y-70.875
X314.092Y-89.938
X322.982Y-89.938
X327.745Y-8.975
X327.745Y-28.025
X327.745Y-47.075
X327.745Y-66.125
X333.142Y-89.938
X337.905Y-8.975
X337.905Y-28.025
X337.905Y-47.075
X337.905Y-66.125
T2
X37.538Y-59.15
X61.35Y-59.15
X108.975Y-78.175
X132.787Y-78.175
X185.188Y-78.19
X209.0Y-78.19
X280.438Y-40.1
X304.25Y-40.1
T3
X8.975Y-8.975
X8.975Y-28.025
X8.975Y-47.075
X8.975Y-66.125
X8.975Y-85.175
X37.538Y-74.39
X37.55Y-8.975
X39.931Y-85.175
X42.312Y-28.025
X44.694Y-47.075
X49.456Y-66.125
X56.6Y-8.975
X61.35Y-74.39
X63.744Y-85.175
X66.125Y-28.025
X70.888Y-47.075
X75.65Y-8.975
X80.412Y-66.125
X85.175Y-28.025
X87.556Y-85.175
X89.938Y-47.075
X94.7Y-8.975
X99.462Y-66.125
X104.225Y-28.025
X108.975Y-93.415
X108.987Y-47.075
X113.75Y-8.975
X118.512Y-66.125
X120.894Y-85.175
X123.275Y-28.025
X128.037Y-47.075
X132.787Y-93.415
X132.8Y-8.975
X137.562Y-66.125
X142.325Y-28.025
X147.088Y-47.075
X151.85Y-8.975
X156.612Y-66.125
X158.994Y-85.175
X161.375Y-28.025
X166.137Y-47.075
X170.9Y-8.975
X175.662Y-66.125
X180.425Y-28.025
X185.188Y-47.075
X185.188Y-93.43
X189.95Y-8.975
X194.712Y-66.125
X197.094Y-85.175
X199.475Y-28.025
X204.237Y-47.075
X209.0Y-8.975
X209.0Y-93.43
X213.762Y-66.125
X218.525Y-28.025
X223.287Y-47.075
X228.05Y-8.975
X232.812Y-66.125
X232.812Y-85.175
X237.575Y-28.025
X242.337Y-47.075
X247.1Y-8.975
X251.862Y-66.125
X256.625Y-28.025
X261.387Y-47.075
X261.387Y-85.175
X266.15Y-8.975
X275.675Y-28.025
X278.056Y-66.125
X280.438Y-55.34
X285.2Y-8.975
X289.962Y-89.938
X292.344Y-47.075
X299.488Y-28.025
X304.25Y-8.975
X304.25Y-55.34
X309.012Y-70.875
X309.012Y-89.938
X328.062Y-89.938
X332.825Y-8.975
X332.825Y-8.975
X332.825Y-28.025
X332.825Y-47.075
X332.825Y-66.125
M30
