M48
; DRILL file {KiCad 8.0.8} date 2025-02-13T20:03:10-0600
; FORMAT={-:-/ absolute / inch / decimal}
; #@! TF.CreationDate,2025-02-13T20:03:10-06:00
; #@! TF.GenerationSoftware,Kicad,Pcbnew,8.0.8
; #@! TF.FileFunction,NonPlated,1,2,NPTH
FMAT,2
INCH
; #@! TA.AperFunction,NonPlated,NPTH,ComponentDrill
T1C0.0689
; #@! TA.AperFunction,NonPlated,NPTH,ComponentDrill
T2C0.1200
; #@! TA.AperFunction,NonPlated,NPTH,ComponentDrill
T3C0.1570
%
G90
G05
T1
X0.1533Y-0.3533
X0.1533Y-1.1033
X0.1533Y-1.8533
X0.1533Y-2.6033
X0.1533Y-3.3533
X0.5533Y-0.3533
X0.5533Y-1.1033
X0.5533Y-1.8533
X0.5533Y-2.6033
X0.5533Y-3.3533
X1.2783Y-0.3533
X1.3721Y-3.3533
X1.4658Y-1.1033
X1.5596Y-1.8533
X1.6783Y-0.3533
X1.7471Y-2.6033
X1.7721Y-3.3533
X1.8658Y-1.1033
X1.9596Y-1.8533
X2.0283Y-0.3533
X2.1471Y-2.6033
X2.3096Y-3.3533
X2.4033Y-1.1033
X2.4283Y-0.3533
X2.5908Y-1.8533
X2.7096Y-3.3533
X2.7783Y-0.3533
X2.8033Y-1.1033
X2.9658Y-2.6033
X2.9908Y-1.8533
X3.1533Y-1.1033
X3.1783Y-0.3533
X3.2471Y-3.3533
X3.3408Y-1.8533
X3.3658Y-2.6033
X3.5283Y-0.3533
X3.5533Y-1.1033
X3.6471Y-3.3533
X3.7158Y-2.6033
X3.7408Y-1.8533
X3.9033Y-1.1033
X3.9283Y-0.3533
X4.0908Y-1.8533
X4.1158Y-2.6033
X4.2783Y-0.3533
X4.3033Y-1.1033
X4.4658Y-2.6033
X4.4908Y-1.8533
X4.5596Y-3.3533
X4.6533Y-1.1033
X4.6783Y-0.3533
X4.8408Y-1.8533
X4.8658Y-2.6033
X4.9596Y-3.3533
X5.0283Y-0.3533
X5.0533Y-1.1033
X5.2158Y-2.6033
X5.2408Y-1.8533
X5.4033Y-1.1033
X5.4283Y-0.3533
X5.5908Y-1.8533
X5.6158Y-2.6033
X5.7783Y-0.3533
X5.8033Y-1.1033
X5.9658Y-2.6033
X5.9908Y-1.8533
X6.0596Y-3.3533
X6.1533Y-1.1033
X6.1783Y-0.3533
X6.3408Y-1.8533
X6.3658Y-2.6033
X6.4596Y-3.3533
X6.5283Y-0.3533
X6.5533Y-1.1033
X6.7158Y-2.6033
X6.7408Y-1.8533
X6.9033Y-1.1033
X6.9283Y-0.3533
X7.0908Y-1.8533
X7.1158Y-2.6033
X7.2783Y-0.3533
X7.3033Y-1.1033
X7.4658Y-2.6033
X7.4908Y-1.8533
X7.5596Y-3.3533
X7.6533Y-1.1033
X7.6783Y-0.3533
X7.8408Y-1.8533
X7.8658Y-2.6033
X7.9596Y-3.3533
X8.0283Y-0.3533
X8.0533Y-1.1033
X8.2158Y-2.6033
X8.2408Y-1.8533
X8.4033Y-1.1033
X8.4283Y-0.3533
X8.5908Y-1.8533
X8.6158Y-2.6033
X8.7783Y-0.3533
X8.8033Y-1.1033
X8.9658Y-2.6033
X8.9658Y-3.3533
X8.9908Y-1.8533
X9.1533Y-1.1033
X9.1783Y-0.3533
X9.3408Y-1.8533
X9.3658Y-2.6033
X9.3658Y-3.3533
X9.5283Y-0.3533
X9.5533Y-1.1033
X9.7158Y-2.6033
X9.7408Y-1.8533
X9.9033Y-1.1033
X9.9283Y-0.3533
X10.0908Y-1.8533
X10.0908Y-3.3533
X10.1158Y-2.6033
X10.2783Y-0.3533
X10.3033Y-1.1033
X10.4908Y-1.8533
X10.4908Y-3.3533
X10.6533Y-1.1033
X10.6783Y-0.3533
X10.7471Y-2.6033
X11.0533Y-1.1033
X11.1471Y-2.6033
X11.2158Y-3.5408
X11.3096Y-1.8533
X11.4033Y-0.3533
X11.5908Y-1.1033
X11.6158Y-3.5408
X11.7096Y-1.8533
X11.8033Y-0.3533
X11.9658Y-2.7904
X11.9658Y-3.5408
X11.9908Y-1.1033
X12.3658Y-2.7904
X12.3658Y-3.5408
X12.7158Y-3.5408
X12.9033Y-1.1033
X12.9033Y-1.8533
X12.9033Y-2.6033
X13.1158Y-3.5408
X13.3033Y-1.1033
X13.3033Y-1.8533
X13.3033Y-2.6033
T2
X1.4779Y-2.3287
X2.4154Y-2.3287
X4.2904Y-3.0778
X5.2279Y-3.0778
X7.2908Y-3.0783
X8.2283Y-3.0783
X11.0408Y-1.5787
X11.1348Y-0.0778
X11.9783Y-1.5787
X12.0723Y-0.0778
T3
X0.3533Y-0.3533
X0.3533Y-1.1033
X0.3533Y-1.8533
X0.3533Y-2.6033
X0.3533Y-3.3533
X1.4779Y-2.9287
X1.4783Y-0.3533
X1.5721Y-3.3533
X1.6658Y-1.1033
X1.7596Y-1.8533
X1.9471Y-2.6033
X2.2283Y-0.3533
X2.4154Y-2.9287
X2.5096Y-3.3533
X2.6033Y-1.1033
X2.7908Y-1.8533
X2.9783Y-0.3533
X3.1658Y-2.6033
X3.3533Y-1.1033
X3.4471Y-3.3533
X3.5408Y-1.8533
X3.7283Y-0.3533
X3.9158Y-2.6033
X4.1033Y-1.1033
X4.2904Y-3.6778
X4.2908Y-1.8533
X4.4783Y-0.3533
X4.6658Y-2.6033
X4.7596Y-3.3533
X4.8533Y-1.1033
X5.0408Y-1.8533
X5.2279Y-3.6778
X5.2283Y-0.3533
X5.4158Y-2.6033
X5.6033Y-1.1033
X5.7908Y-1.8533
X5.9783Y-0.3533
X6.1658Y-2.6033
X6.2596Y-3.3533
X6.3533Y-1.1033
X6.5408Y-1.8533
X6.7283Y-0.3533
X6.9158Y-2.6033
X7.1033Y-1.1033
X7.2908Y-1.8533
X7.2908Y-3.6783
X7.4783Y-0.3533
X7.6658Y-2.6033
X7.7596Y-3.3533
X7.8533Y-1.1033
X8.0408Y-1.8533
X8.2283Y-0.3533
X8.2283Y-3.6783
X8.4158Y-2.6033
X8.6033Y-1.1033
X8.7908Y-1.8533
X8.9783Y-0.3533
X9.1658Y-2.6033
X9.1658Y-3.3533
X9.3533Y-1.1033
X9.5408Y-1.8533
X9.7283Y-0.3533
X9.9158Y-2.6033
X10.1033Y-1.1033
X10.2908Y-1.8533
X10.2908Y-3.3533
X10.4783Y-0.3533
X10.8533Y-1.1033
X10.9471Y-2.6033
X11.0408Y-2.1787
X11.1348Y-0.6778
X11.4158Y-3.5408
X11.5096Y-1.8533
X11.6033Y-0.3533
X11.7908Y-1.1033
X11.9783Y-2.1787
X12.0723Y-0.6778
X12.1658Y-2.7904
X12.1658Y-3.5408
X12.9158Y-3.5408
X13.1033Y-1.1033
X13.1033Y-1.8533
X13.1033Y-2.6033
M30
