M48
; DRILL file {KiCad 8.0.8} date 2025-02-17T20:28:53-0600
; FORMAT={-:-/ absolute / metric / decimal}
; #@! TF.CreationDate,2025-02-17T20:28:53-06:00
; #@! TF.GenerationSoftware,Kicad,Pcbnew,8.0.8
; #@! TF.FileFunction,Plated,1,2,PTH
FMAT,2
METRIC
; #@! TA.AperFunction,Plated,PTH,ViaDrill
T1C0.250
; #@! TA.AperFunction,Plated,PTH,ComponentDrill
T2C1.000
; #@! TA.AperFunction,Plated,PTH,ComponentDrill
T3C1.500
; #@! TA.AperFunction,Plated,PTH,ComponentDrill
T4C1.524
%
G90
G05
T1
X16.475Y-41.875
X16.475Y-77.475
X16.475Y-80.075
X19.75Y-20.45
X19.95Y-35.95
X20.0Y-26.55
X20.4Y-32.75
X20.925Y-54.675
X21.275Y-48.375
X21.3Y-22.05
X21.3Y-42.7
X21.315Y-65.115
X21.325Y-63.675
X21.475Y-50.488
X22.35Y-41.6
X22.5Y-44.95
X23.25Y-45.5
X23.75Y-39.8
X24.175Y-25.775
X24.45Y-30.3
X25.15Y-33.25
X25.15Y-34.85
X25.5Y-37.5
X25.593Y-48.959
X25.675Y-57.025
X26.15Y-54.0
X26.395Y-69.75
X26.65Y-24.9
X26.65Y-27.45
X27.2Y-35.8
X27.2Y-51.3
X28.323Y-36.873
X28.95Y-69.75
X29.361Y-38.575
X29.375Y-27.45
X29.375Y-35.725
X29.7Y-51.85
X29.875Y-37.975
X30.8Y-50.7
X31.6Y-50.15
X32.05Y-57.55
X32.575Y-34.675
X33.225Y-61.675
X34.075Y-49.45
X34.075Y-52.5
X34.375Y-60.225
X34.675Y-50.0
X34.68Y-52.853
X36.6Y-42.2
X36.6Y-45.5
X37.7Y-43.3
X38.502Y-36.261
X40.2Y-49.65
X62.315Y-36.575
X81.365Y-37.075
X100.415Y-37.575
X119.465Y-38.075
X138.515Y-38.575
X157.565Y-39.075
X182.184Y-54.866
X201.559Y-55.191
X221.084Y-55.666
X240.609Y-56.141
X257.577Y-56.675
X274.246Y-57.2
X301.0Y-15.6
X304.5Y-33.9
X307.6Y-57.641
X308.4Y-53.725
X309.25Y-16.55
X309.25Y-34.675
X317.8Y-7.35
X317.8Y-9.6
X321.775Y-13.65
X321.8Y-5.05
X321.8Y-11.9
X327.0Y-12.95
X329.015Y-35.575
X330.4Y-13.0
X336.8Y-17.0
T2
X18.775Y-75.325
X21.315Y-75.325
X23.855Y-75.325
X26.395Y-75.325
X28.935Y-75.325
X31.475Y-75.325
X325.325Y-6.475
X325.325Y-8.975
X325.325Y-11.475
X339.825Y-6.475
X339.825Y-11.475
T4
X5.165Y-6.435
X5.165Y-25.485
X5.165Y-44.535
X5.165Y-63.585
X5.165Y-82.635
X11.515Y-3.895
X11.515Y-22.945
X11.515Y-41.995
X11.515Y-61.045
X11.515Y-80.095
X33.74Y-6.435
X36.121Y-82.635
X38.502Y-25.485
X40.09Y-3.895
X40.884Y-44.535
X42.471Y-80.095
X44.852Y-22.945
X45.646Y-63.585
X47.234Y-41.995
X51.996Y-61.045
X52.79Y-6.435
X59.14Y-3.895
X59.934Y-82.635
X62.315Y-25.485
X66.284Y-80.095
X67.078Y-44.535
X68.665Y-22.945
X71.84Y-6.435
X73.427Y-41.995
X76.602Y-63.585
X78.19Y-3.895
X81.365Y-25.485
X82.953Y-61.045
X83.746Y-82.635
X86.127Y-44.535
X87.715Y-22.945
X90.096Y-80.095
X90.89Y-6.435
X92.477Y-41.995
X95.652Y-63.585
X97.24Y-3.895
X100.415Y-25.485
X102.002Y-61.045
X105.177Y-44.535
X106.765Y-22.945
X109.94Y-6.435
X111.527Y-41.995
X114.703Y-63.585
X116.29Y-3.895
X117.084Y-82.635
X119.465Y-25.485
X121.052Y-61.045
X123.434Y-80.095
X124.227Y-44.535
X125.815Y-22.945
X128.99Y-6.435
X130.577Y-41.995
X133.752Y-63.585
X135.34Y-3.895
X138.515Y-25.485
X140.102Y-61.045
X143.278Y-44.535
X144.865Y-22.945
X148.04Y-6.435
X149.627Y-41.995
X152.802Y-63.585
X154.39Y-3.895
X155.184Y-82.635
X157.565Y-25.485
X159.153Y-61.045
X161.534Y-80.095
X162.327Y-44.535
X163.915Y-22.945
X167.09Y-6.435
X168.677Y-41.995
X171.852Y-63.585
X173.44Y-3.895
X176.615Y-25.485
X178.202Y-61.045
X181.377Y-44.535
X182.965Y-22.945
X186.14Y-6.435
X187.727Y-41.995
X190.903Y-63.585
X192.49Y-3.895
X193.284Y-82.635
X195.665Y-25.485
X197.252Y-61.045
X199.634Y-80.095
X200.427Y-44.535
X202.015Y-22.945
X205.19Y-6.435
X206.778Y-41.995
X209.952Y-63.585
X211.54Y-3.895
X214.715Y-25.485
X216.302Y-61.045
X219.477Y-44.535
X221.065Y-22.945
X224.24Y-6.435
X225.827Y-41.995
X229.002Y-63.585
X229.002Y-82.635
X230.59Y-3.895
X233.765Y-25.485
X235.352Y-61.045
X235.352Y-80.095
X238.528Y-44.535
X240.115Y-22.945
X243.29Y-6.435
X244.877Y-41.995
X248.052Y-63.585
X249.64Y-3.895
X252.815Y-25.485
X254.402Y-61.045
X257.577Y-44.535
X257.577Y-82.635
X259.165Y-22.945
X262.34Y-6.435
X263.928Y-41.995
X263.928Y-80.095
X268.69Y-3.895
X271.865Y-25.485
X274.246Y-63.585
X278.215Y-22.945
X280.596Y-61.045
X281.39Y-6.435
X286.152Y-87.397
X287.74Y-3.895
X288.534Y-44.535
X292.502Y-84.858
X294.884Y-41.995
X295.678Y-25.485
X300.44Y-6.435
X302.027Y-22.945
X305.202Y-68.335
X305.202Y-87.397
X306.79Y-3.895
X311.553Y-65.795
X311.553Y-84.858
X324.252Y-87.397
X329.015Y-6.435
X329.015Y-25.485
X329.015Y-44.535
X329.015Y-63.585
X330.602Y-84.858
X335.365Y-3.895
X335.365Y-22.945
X335.365Y-41.995
X335.365Y-61.045
T3
G00X332.175Y-3.375
M15
G01X333.475Y-3.375
M16
G05
G00X332.175Y-14.575
M15
G01X333.475Y-14.575
M16
G05
M30
