M48
; DRILL file {KiCad 8.0.8} date 2025-02-13T20:03:10-0600
; FORMAT={-:-/ absolute / inch / decimal}
; #@! TF.CreationDate,2025-02-13T20:03:10-06:00
; #@! TF.GenerationSoftware,Kicad,Pcbnew,8.0.8
; #@! TF.FileFunction,Plated,1,2,PTH
FMAT,2
INCH
; #@! TA.AperFunction,Plated,PTH,ViaDrill
T1C0.0098
; #@! TA.AperFunction,Plated,PTH,ComponentDrill
T2C0.0394
; #@! TA.AperFunction,Plated,PTH,ComponentDrill
T3C0.0591
; #@! TA.AperFunction,Plated,PTH,ComponentDrill
T4C0.0600
%
G90
G05
T1
X0.6486Y-1.6486
X0.6486Y-3.0502
X0.6486Y-3.1526
X0.7776Y-0.8051
X0.7854Y-1.4154
X0.7874Y-1.0453
X0.8031Y-1.2894
X0.8238Y-2.1526
X0.8376Y-1.9045
X0.8386Y-0.8681
X0.8386Y-1.6811
X0.8392Y-2.5636
X0.8396Y-2.5069
X0.8455Y-1.9877
X0.8799Y-1.6378
X0.8858Y-1.7697
X0.9154Y-1.7913
X0.935Y-1.5669
X0.9518Y-1.0148
X0.9626Y-1.1929
X0.9902Y-1.3091
X0.9902Y-1.372
X1.0039Y-1.4764
X1.0076Y-1.9275
X1.0108Y-2.2451
X1.0295Y-2.126
X1.0392Y-2.7461
X1.0492Y-0.9803
X1.0492Y-1.0807
X1.0709Y-1.4094
X1.0709Y-2.0197
X1.1151Y-1.4517
X1.1398Y-2.7461
X1.156Y-1.5187
X1.1565Y-1.0807
X1.1565Y-1.4065
X1.1693Y-2.0413
X1.1762Y-1.4951
X1.2126Y-1.9961
X1.2441Y-1.9744
X1.2618Y-2.2657
X1.2825Y-1.3652
X1.3081Y-2.4281
X1.3415Y-1.9469
X1.3415Y-2.0669
X1.3533Y-2.3711
X1.3652Y-1.9685
X1.3653Y-2.0808
X1.4409Y-1.6614
X1.4409Y-1.7913
X1.4843Y-1.7047
X1.5158Y-1.4276
X1.5827Y-1.9547
X2.4533Y-1.44
X3.2033Y-1.4596
X3.9533Y-1.4793
X4.7033Y-1.499
X5.4533Y-1.5187
X6.2033Y-1.5384
X7.1726Y-2.1601
X7.9354Y-2.1729
X8.7041Y-2.1916
X9.4728Y-2.2103
X10.1408Y-2.2313
X10.7033Y-2.251
X11.5948Y-2.2693
X12.5118Y-0.2894
X12.5118Y-0.378
X12.6683Y-0.5374
X12.6693Y-0.1988
X12.6693Y-0.4685
X12.9533Y-1.4006
X13.1732Y-0.3701
T2
X0.7392Y-2.9656
X0.8392Y-2.9656
X0.9392Y-2.9656
X1.0392Y-2.9656
X1.1392Y-2.9656
X1.2392Y-2.9656
X12.8081Y-0.2549
X12.8081Y-0.3533
X12.8081Y-0.4518
X13.3789Y-0.2549
X13.3789Y-0.4518
T4
X0.2033Y-0.2533
X0.2033Y-1.0033
X0.2033Y-1.7533
X0.2033Y-2.5033
X0.2033Y-3.2533
X0.4533Y-0.1533
X0.4533Y-0.9033
X0.4533Y-1.6533
X0.4533Y-2.4033
X0.4533Y-3.1533
X1.3283Y-0.2533
X1.4221Y-3.2533
X1.5158Y-1.0033
X1.5783Y-0.1533
X1.6096Y-1.7533
X1.6721Y-3.1533
X1.7658Y-0.9033
X1.7971Y-2.5033
X1.8596Y-1.6533
X2.0471Y-2.4033
X2.0783Y-0.2533
X2.3283Y-0.1533
X2.3596Y-3.2533
X2.4533Y-1.0033
X2.6096Y-3.1533
X2.6408Y-1.7533
X2.7033Y-0.9033
X2.8283Y-0.2533
X2.8908Y-1.6533
X3.0158Y-2.5033
X3.0783Y-0.1533
X3.2033Y-1.0033
X3.2658Y-2.4033
X3.2971Y-3.2533
X3.3908Y-1.7533
X3.4533Y-0.9033
X3.5471Y-3.1533
X3.5783Y-0.2533
X3.6408Y-1.6533
X3.7658Y-2.5033
X3.8283Y-0.1533
X3.9533Y-1.0033
X4.0158Y-2.4033
X4.1408Y-1.7533
X4.2033Y-0.9033
X4.3283Y-0.2533
X4.3908Y-1.6533
X4.5158Y-2.5033
X4.5783Y-0.1533
X4.6096Y-3.2533
X4.7033Y-1.0033
X4.7658Y-2.4033
X4.8596Y-3.1533
X4.8908Y-1.7533
X4.9533Y-0.9033
X5.0783Y-0.2533
X5.1408Y-1.6533
X5.2658Y-2.5033
X5.3283Y-0.1533
X5.4533Y-1.0033
X5.5158Y-2.4033
X5.6408Y-1.7533
X5.7033Y-0.9033
X5.8283Y-0.2533
X5.8908Y-1.6533
X6.0158Y-2.5033
X6.0783Y-0.1533
X6.1096Y-3.2533
X6.2033Y-1.0033
X6.2658Y-2.4033
X6.3596Y-3.1533
X6.3908Y-1.7533
X6.4533Y-0.9033
X6.5783Y-0.2533
X6.6408Y-1.6533
X6.7658Y-2.5033
X6.8283Y-0.1533
X6.9533Y-1.0033
X7.0158Y-2.4033
X7.1408Y-1.7533
X7.2033Y-0.9033
X7.3283Y-0.2533
X7.3908Y-1.6533
X7.5158Y-2.5033
X7.5783Y-0.1533
X7.6096Y-3.2533
X7.7033Y-1.0033
X7.7658Y-2.4033
X7.8596Y-3.1533
X7.8908Y-1.7533
X7.9533Y-0.9033
X8.0783Y-0.2533
X8.1408Y-1.6533
X8.2658Y-2.5033
X8.3283Y-0.1533
X8.4533Y-1.0033
X8.5158Y-2.4033
X8.6408Y-1.7533
X8.7033Y-0.9033
X8.8283Y-0.2533
X8.8908Y-1.6533
X9.0158Y-2.5033
X9.0158Y-3.2533
X9.0783Y-0.1533
X9.2033Y-1.0033
X9.2658Y-2.4033
X9.2658Y-3.1533
X9.3908Y-1.7533
X9.4533Y-0.9033
X9.5783Y-0.2533
X9.6408Y-1.6533
X9.7658Y-2.5033
X9.8283Y-0.1533
X9.9533Y-1.0033
X10.0158Y-2.4033
X10.1408Y-1.7533
X10.1408Y-3.2533
X10.2033Y-0.9033
X10.3283Y-0.2533
X10.3908Y-1.6533
X10.3908Y-3.1533
X10.5783Y-0.1533
X10.7033Y-1.0033
X10.7971Y-2.5033
X10.9533Y-0.9033
X11.0471Y-2.4033
X11.2658Y-3.4408
X11.3596Y-1.7533
X11.4533Y-0.2533
X11.5158Y-3.3408
X11.6096Y-1.6533
X11.6408Y-1.0033
X11.7033Y-0.1533
X11.8908Y-0.9033
X12.0158Y-2.6904
X12.0158Y-3.4408
X12.2658Y-2.5904
X12.2658Y-3.3408
X12.7658Y-3.4408
X12.9533Y-1.0033
X12.9533Y-1.7533
X12.9533Y-2.5033
X13.0158Y-3.3408
X13.2033Y-0.9033
X13.2033Y-1.6533
X13.2033Y-2.4033
T3
G00X13.0778Y-0.1329
M15
G01X13.1289Y-0.1329
M16
G05
G00X13.0778Y-0.5738
M15
G01X13.1289Y-0.5738
M16
G05
M30
