0
SECTION
2
HEADER
9
$INSUNITS
70
4
0
ENDSEC
0
SECTION
2
TABLES
0
TABLE
2
LTYPE
0
LTYPE
72
65
70
64
2
CONTINUOUS
3
______
73
0
40
0
0
ENDTAB
0
TABLE
2
LAYER
0
ENDTAB
0
ENDSEC
0
SECTION
2
ENTITIES
0
LINE
8
0
10
3.787
20
-3.287
11
15.263
21
-3.287
0
LINE
8
0
10
3.787
20
-15.763
11
15.263
21
-15.763
0
LINE
8
0
10
3.287
20
-3.787
11
3.287
21
-15.263
0
LINE
8
0
10
15.763
20
-3.787
11
15.763
21
-15.263
0
ARC
8
0
10
3.787
20
-3.787
40
0.5
50
90
51
180
0
ARC
8
0
10
15.263
20
-3.787
40
0.5
50
0
51
90
0
ARC
8
0
10
3.787
20
-15.263
40
0.5
50
180
51
270
0
ARC
8
0
10
15.263
20
-15.263
40
0.5
50
270
51
0
0
LINE
8
0
10
32.362
20
-3.287
11
43.838
21
-3.287
0
LINE
8
0
10
32.362
20
-15.763
11
43.838
21
-15.763
0
LINE
8
0
10
31.862
20
-3.787
11
31.862
21
-15.263
0
LINE
8
0
10
44.338
20
-3.787
11
44.338
21
-15.263
0
ARC
8
0
10
32.362
20
-3.787
40
0.5
50
90
51
180
0
ARC
8
0
10
43.838
20
-3.787
40
0.5
50
0
51
90
0
ARC
8
0
10
32.362
20
-15.263
40
0.5
50
180
51
270
0
ARC
8
0
10
43.838
20
-15.263
40
0.5
50
270
51
0
0
LINE
8
0
10
51.412
20
-3.287
11
62.888
21
-3.287
0
LINE
8
0
10
51.412
20
-15.763
11
62.888
21
-15.763
0
LINE
8
0
10
50.912
20
-3.787
11
50.912
21
-15.263
0
LINE
8
0
10
63.388
20
-3.787
11
63.388
21
-15.263
0
ARC
8
0
10
51.412
20
-3.787
40
0.5
50
90
51
180
0
ARC
8
0
10
62.888
20
-3.787
40
0.5
50
0
51
90
0
ARC
8
0
10
51.412
20
-15.263
40
0.5
50
180
51
270
0
ARC
8
0
10
62.888
20
-15.263
40
0.5
50
270
51
0
0
LINE
8
0
10
70.462
20
-3.287
11
81.938
21
-3.287
0
LINE
8
0
10
70.462
20
-15.763
11
81.938
21
-15.763
0
LINE
8
0
10
69.962
20
-3.787
11
69.962
21
-15.263
0
LINE
8
0
10
82.438
20
-3.787
11
82.438
21
-15.263
0
ARC
8
0
10
70.462
20
-3.787
40
0.5
50
90
51
180
0
ARC
8
0
10
81.938
20
-3.787
40
0.5
50
0
51
90
0
ARC
8
0
10
70.462
20
-15.263
40
0.5
50
180
51
270
0
ARC
8
0
10
81.938
20
-15.263
40
0.5
50
270
51
0
0
LINE
8
0
10
89.512
20
-3.287
11
100.988
21
-3.287
0
LINE
8
0
10
89.512
20
-15.763
11
100.988
21
-15.763
0
LINE
8
0
10
89.012
20
-3.787
11
89.012
21
-15.263
0
LINE
8
0
10
101.488
20
-3.787
11
101.488
21
-15.263
0
ARC
8
0
10
89.512
20
-3.787
40
0.5
50
90
51
180
0
ARC
8
0
10
100.988
20
-3.787
40
0.5
50
0
51
90
0
ARC
8
0
10
89.512
20
-15.263
40
0.5
50
180
51
270
0
ARC
8
0
10
100.988
20
-15.263
40
0.5
50
270
51
0
0
LINE
8
0
10
108.562
20
-3.287
11
120.038
21
-3.287
0
LINE
8
0
10
108.562
20
-15.763
11
120.038
21
-15.763
0
LINE
8
0
10
108.062
20
-3.787
11
108.062
21
-15.263
0
LINE
8
0
10
120.538
20
-3.787
11
120.538
21
-15.263
0
ARC
8
0
10
108.562
20
-3.787
40
0.5
50
90
51
180
0
ARC
8
0
10
120.038
20
-3.787
40
0.5
50
0
51
90
0
ARC
8
0
10
108.562
20
-15.263
40
0.5
50
180
51
270
0
ARC
8
0
10
120.038
20
-15.263
40
0.5
50
270
51
0
0
LINE
8
0
10
127.612
20
-3.287
11
139.088
21
-3.287
0
LINE
8
0
10
127.612
20
-15.763
11
139.088
21
-15.763
0
LINE
8
0
10
127.112
20
-3.787
11
127.112
21
-15.263
0
LINE
8
0
10
139.588
20
-3.787
11
139.588
21
-15.263
0
ARC
8
0
10
127.612
20
-3.787
40
0.5
50
90
51
180
0
ARC
8
0
10
139.088
20
-3.787
40
0.5
50
0
51
90
0
ARC
8
0
10
127.612
20
-15.263
40
0.5
50
180
51
270
0
ARC
8
0
10
139.088
20
-15.263
40
0.5
50
270
51
0
0
LINE
8
0
10
146.662
20
-3.287
11
158.138
21
-3.287
0
LINE
8
0
10
146.662
20
-15.763
11
158.138
21
-15.763
0
LINE
8
0
10
146.162
20
-3.787
11
146.162
21
-15.263
0
LINE
8
0
10
158.638
20
-3.787
11
158.638
21
-15.263
0
ARC
8
0
10
146.662
20
-3.787
40
0.5
50
90
51
180
0
ARC
8
0
10
158.138
20
-3.787
40
0.5
50
0
51
90
0
ARC
8
0
10
146.662
20
-15.263
40
0.5
50
180
51
270
0
ARC
8
0
10
158.138
20
-15.263
40
0.5
50
270
51
0
0
LINE
8
0
10
165.712
20
-3.287
11
177.188
21
-3.287
0
LINE
8
0
10
165.712
20
-15.763
11
177.188
21
-15.763
0
LINE
8
0
10
165.212
20
-3.787
11
165.212
21
-15.263
0
LINE
8
0
10
177.688
20
-3.787
11
177.688
21
-15.263
0
ARC
8
0
10
165.712
20
-3.787
40
0.5
50
90
51
180
0
ARC
8
0
10
177.188
20
-3.787
40
0.5
50
0
51
90
0
ARC
8
0
10
165.712
20
-15.263
40
0.5
50
180
51
270
0
ARC
8
0
10
177.188
20
-15.263
40
0.5
50
270
51
0
0
LINE
8
0
10
184.762
20
-3.287
11
196.238
21
-3.287
0
LINE
8
0
10
184.762
20
-15.763
11
196.238
21
-15.763
0
LINE
8
0
10
184.262
20
-3.787
11
184.262
21
-15.263
0
LINE
8
0
10
196.738
20
-3.787
11
196.738
21
-15.263
0
ARC
8
0
10
184.762
20
-3.787
40
0.5
50
90
51
180
0
ARC
8
0
10
196.238
20
-3.787
40
0.5
50
0
51
90
0
ARC
8
0
10
184.762
20
-15.263
40
0.5
50
180
51
270
0
ARC
8
0
10
196.238
20
-15.263
40
0.5
50
270
51
0
0
LINE
8
0
10
203.812
20
-3.287
11
215.288
21
-3.287
0
LINE
8
0
10
203.812
20
-15.763
11
215.288
21
-15.763
0
LINE
8
0
10
203.312
20
-3.787
11
203.312
21
-15.263
0
LINE
8
0
10
215.788
20
-3.787
11
215.788
21
-15.263
0
ARC
8
0
10
203.812
20
-3.787
40
0.5
50
90
51
180
0
ARC
8
0
10
215.288
20
-3.787
40
0.5
50
0
51
90
0
ARC
8
0
10
203.812
20
-15.263
40
0.5
50
180
51
270
0
ARC
8
0
10
215.288
20
-15.263
40
0.5
50
270
51
0
0
LINE
8
0
10
222.862
20
-3.287
11
234.338
21
-3.287
0
LINE
8
0
10
222.862
20
-15.763
11
234.338
21
-15.763
0
LINE
8
0
10
222.362
20
-3.787
11
222.362
21
-15.263
0
LINE
8
0
10
234.838
20
-3.787
11
234.838
21
-15.263
0
ARC
8
0
10
222.862
20
-3.787
40
0.5
50
90
51
180
0
ARC
8
0
10
234.338
20
-3.787
40
0.5
50
0
51
90
0
ARC
8
0
10
222.862
20
-15.263
40
0.5
50
180
51
270
0
ARC
8
0
10
234.338
20
-15.263
40
0.5
50
270
51
0
0
LINE
8
0
10
241.912
20
-3.287
11
253.388
21
-3.287
0
LINE
8
0
10
241.912
20
-15.763
11
253.388
21
-15.763
0
LINE
8
0
10
241.412
20
-3.787
11
241.412
21
-15.263
0
LINE
8
0
10
253.888
20
-3.787
11
253.888
21
-15.263
0
ARC
8
0
10
241.912
20
-3.787
40
0.5
50
90
51
180
0
ARC
8
0
10
253.388
20
-3.787
40
0.5
50
0
51
90
0
ARC
8
0
10
241.912
20
-15.263
40
0.5
50
180
51
270
0
ARC
8
0
10
253.388
20
-15.263
40
0.5
50
270
51
0
0
LINE
8
0
10
260.962
20
-3.287
11
272.438
21
-3.287
0
LINE
8
0
10
260.962
20
-15.763
11
272.438
21
-15.763
0
LINE
8
0
10
260.462
20
-3.787
11
260.462
21
-15.263
0
LINE
8
0
10
272.938
20
-3.787
11
272.938
21
-15.263
0
ARC
8
0
10
260.962
20
-3.787
40
0.5
50
90
51
180
0
ARC
8
0
10
272.438
20
-3.787
40
0.5
50
0
51
90
0
ARC
8
0
10
260.962
20
-15.263
40
0.5
50
180
51
270
0
ARC
8
0
10
272.438
20
-15.263
40
0.5
50
270
51
0
0
LINE
8
0
10
289.537
20
-3.287
11
301.013
21
-3.287
0
LINE
8
0
10
289.537
20
-15.763
11
301.013
21
-15.763
0
LINE
8
0
10
289.037
20
-3.787
11
289.037
21
-15.263
0
LINE
8
0
10
301.513
20
-3.787
11
301.513
21
-15.263
0
ARC
8
0
10
289.537
20
-3.787
40
0.5
50
90
51
180
0
ARC
8
0
10
301.013
20
-3.787
40
0.5
50
0
51
90
0
ARC
8
0
10
289.537
20
-15.263
40
0.5
50
180
51
270
0
ARC
8
0
10
301.013
20
-15.263
40
0.5
50
270
51
0
0
LINE
8
0
10
281.099
20
-4.287
11
285.575
21
-4.287
0
LINE
8
0
10
281.099
20
-17.763
11
285.575
21
-17.763
0
LINE
8
0
10
280.599
20
-4.787
11
280.599
21
-17.263
0
LINE
8
0
10
286.075
20
-4.787
11
286.075
21
-17.263
0
ARC
8
0
10
281.099
20
-4.787
40
0.5
50
90
51
180
0
ARC
8
0
10
285.575
20
-4.787
40
0.5
50
0
51
90
0
ARC
8
0
10
281.099
20
-17.263
40
0.5
50
180
51
270
0
ARC
8
0
10
285.575
20
-17.263
40
0.5
50
270
51
0
0
LINE
8
0
10
304.975
20
-4.287
11
309.451
21
-4.287
0
LINE
8
0
10
304.975
20
-17.763
11
309.451
21
-17.763
0
LINE
8
0
10
304.475
20
-4.787
11
304.475
21
-17.263
0
LINE
8
0
10
309.951
20
-4.787
11
309.951
21
-17.263
0
ARC
8
0
10
304.975
20
-4.787
40
0.5
50
90
51
180
0
ARC
8
0
10
309.451
20
-4.787
40
0.5
50
0
51
90
0
ARC
8
0
10
304.975
20
-17.263
40
0.5
50
180
51
270
0
ARC
8
0
10
309.451
20
-17.263
40
0.5
50
270
51
0
0
LINE
8
0
10
3.787
20
-22.337
11
15.263
21
-22.337
0
LINE
8
0
10
3.787
20
-34.813
11
15.263
21
-34.813
0
LINE
8
0
10
3.287
20
-22.837
11
3.287
21
-34.313
0
LINE
8
0
10
15.763
20
-22.837
11
15.763
21
-34.313
0
ARC
8
0
10
3.787
20
-22.837
40
0.5
50
90
51
180
0
ARC
8
0
10
15.263
20
-22.837
40
0.5
50
0
51
90
0
ARC
8
0
10
3.787
20
-34.313
40
0.5
50
180
51
270
0
ARC
8
0
10
15.263
20
-34.313
40
0.5
50
270
51
0
0
LINE
8
0
10
37.1245
20
-22.337
11
48.6005
21
-22.337
0
LINE
8
0
10
37.1245
20
-34.813
11
48.6005
21
-34.813
0
LINE
8
0
10
36.6245
20
-22.837
11
36.6245
21
-34.313
0
LINE
8
0
10
49.1005
20
-22.837
11
49.1005
21
-34.313
0
ARC
8
0
10
37.1245
20
-22.837
40
0.5
50
90
51
180
0
ARC
8
0
10
48.6005
20
-22.837
40
0.5
50
0
51
90
0
ARC
8
0
10
37.1245
20
-34.313
40
0.5
50
180
51
270
0
ARC
8
0
10
48.6005
20
-34.313
40
0.5
50
270
51
0
0
LINE
8
0
10
60.937
20
-22.337
11
72.413
21
-22.337
0
LINE
8
0
10
60.937
20
-34.813
11
72.413
21
-34.813
0
LINE
8
0
10
60.437
20
-22.837
11
60.437
21
-34.313
0
LINE
8
0
10
72.913
20
-22.837
11
72.913
21
-34.313
0
ARC
8
0
10
60.937
20
-22.837
40
0.5
50
90
51
180
0
ARC
8
0
10
72.413
20
-22.837
40
0.5
50
0
51
90
0
ARC
8
0
10
60.937
20
-34.313
40
0.5
50
180
51
270
0
ARC
8
0
10
72.413
20
-34.313
40
0.5
50
270
51
0
0
LINE
8
0
10
79.987
20
-22.337
11
91.463
21
-22.337
0
LINE
8
0
10
79.987
20
-34.813
11
91.463
21
-34.813
0
LINE
8
0
10
79.487
20
-22.837
11
79.487
21
-34.313
0
LINE
8
0
10
91.963
20
-22.837
11
91.963
21
-34.313
0
ARC
8
0
10
79.987
20
-22.837
40
0.5
50
90
51
180
0
ARC
8
0
10
91.463
20
-22.837
40
0.5
50
0
51
90
0
ARC
8
0
10
79.987
20
-34.313
40
0.5
50
180
51
270
0
ARC
8
0
10
91.463
20
-34.313
40
0.5
50
270
51
0
0
LINE
8
0
10
99.037
20
-22.337
11
110.513
21
-22.337
0
LINE
8
0
10
99.037
20
-34.813
11
110.513
21
-34.813
0
LINE
8
0
10
98.537
20
-22.837
11
98.537
21
-34.313
0
LINE
8
0
10
111.013
20
-22.837
11
111.013
21
-34.313
0
ARC
8
0
10
99.037
20
-22.837
40
0.5
50
90
51
180
0
ARC
8
0
10
110.513
20
-22.837
40
0.5
50
0
51
90
0
ARC
8
0
10
99.037
20
-34.313
40
0.5
50
180
51
270
0
ARC
8
0
10
110.513
20
-34.313
40
0.5
50
270
51
0
0
LINE
8
0
10
118.087
20
-22.337
11
129.563
21
-22.337
0
LINE
8
0
10
118.087
20
-34.813
11
129.563
21
-34.813
0
LINE
8
0
10
117.587
20
-22.837
11
117.587
21
-34.313
0
LINE
8
0
10
130.063
20
-22.837
11
130.063
21
-34.313
0
ARC
8
0
10
118.087
20
-22.837
40
0.5
50
90
51
180
0
ARC
8
0
10
129.563
20
-22.837
40
0.5
50
0
51
90
0
ARC
8
0
10
118.087
20
-34.313
40
0.5
50
180
51
270
0
ARC
8
0
10
129.563
20
-34.313
40
0.5
50
270
51
0
0
LINE
8
0
10
137.137
20
-22.337
11
148.613
21
-22.337
0
LINE
8
0
10
137.137
20
-34.813
11
148.613
21
-34.813
0
LINE
8
0
10
136.637
20
-22.837
11
136.637
21
-34.313
0
LINE
8
0
10
149.113
20
-22.837
11
149.113
21
-34.313
0
ARC
8
0
10
137.137
20
-22.837
40
0.5
50
90
51
180
0
ARC
8
0
10
148.613
20
-22.837
40
0.5
50
0
51
90
0
ARC
8
0
10
137.137
20
-34.313
40
0.5
50
180
51
270
0
ARC
8
0
10
148.613
20
-34.313
40
0.5
50
270
51
0
0
LINE
8
0
10
156.187
20
-22.337
11
167.663
21
-22.337
0
LINE
8
0
10
156.187
20
-34.813
11
167.663
21
-34.813
0
LINE
8
0
10
155.687
20
-22.837
11
155.687
21
-34.313
0
LINE
8
0
10
168.163
20
-22.837
11
168.163
21
-34.313
0
ARC
8
0
10
156.187
20
-22.837
40
0.5
50
90
51
180
0
ARC
8
0
10
167.663
20
-22.837
40
0.5
50
0
51
90
0
ARC
8
0
10
156.187
20
-34.313
40
0.5
50
180
51
270
0
ARC
8
0
10
167.663
20
-34.313
40
0.5
50
270
51
0
0
LINE
8
0
10
175.237
20
-22.337
11
186.713
21
-22.337
0
LINE
8
0
10
175.237
20
-34.813
11
186.713
21
-34.813
0
LINE
8
0
10
174.737
20
-22.837
11
174.737
21
-34.313
0
LINE
8
0
10
187.213
20
-22.837
11
187.213
21
-34.313
0
ARC
8
0
10
175.237
20
-22.837
40
0.5
50
90
51
180
0
ARC
8
0
10
186.713
20
-22.837
40
0.5
50
0
51
90
0
ARC
8
0
10
175.237
20
-34.313
40
0.5
50
180
51
270
0
ARC
8
0
10
186.713
20
-34.313
40
0.5
50
270
51
0
0
LINE
8
0
10
194.287
20
-22.337
11
205.763
21
-22.337
0
LINE
8
0
10
194.287
20
-34.813
11
205.763
21
-34.813
0
LINE
8
0
10
193.787
20
-22.837
11
193.787
21
-34.313
0
LINE
8
0
10
206.263
20
-22.837
11
206.263
21
-34.313
0
ARC
8
0
10
194.287
20
-22.837
40
0.5
50
90
51
180
0
ARC
8
0
10
205.763
20
-22.837
40
0.5
50
0
51
90
0
ARC
8
0
10
194.287
20
-34.313
40
0.5
50
180
51
270
0
ARC
8
0
10
205.763
20
-34.313
40
0.5
50
270
51
0
0
LINE
8
0
10
213.337
20
-22.337
11
224.813
21
-22.337
0
LINE
8
0
10
213.337
20
-34.813
11
224.813
21
-34.813
0
LINE
8
0
10
212.837
20
-22.837
11
212.837
21
-34.313
0
LINE
8
0
10
225.313
20
-22.837
11
225.313
21
-34.313
0
ARC
8
0
10
213.337
20
-22.837
40
0.5
50
90
51
180
0
ARC
8
0
10
224.813
20
-22.837
40
0.5
50
0
51
90
0
ARC
8
0
10
213.337
20
-34.313
40
0.5
50
180
51
270
0
ARC
8
0
10
224.813
20
-34.313
40
0.5
50
270
51
0
0
LINE
8
0
10
232.387
20
-22.337
11
243.863
21
-22.337
0
LINE
8
0
10
232.387
20
-34.813
11
243.863
21
-34.813
0
LINE
8
0
10
231.887
20
-22.837
11
231.887
21
-34.313
0
LINE
8
0
10
244.363
20
-22.837
11
244.363
21
-34.313
0
ARC
8
0
10
232.387
20
-22.837
40
0.5
50
90
51
180
0
ARC
8
0
10
243.863
20
-22.837
40
0.5
50
0
51
90
0
ARC
8
0
10
232.387
20
-34.313
40
0.5
50
180
51
270
0
ARC
8
0
10
243.863
20
-34.313
40
0.5
50
270
51
0
0
LINE
8
0
10
251.437
20
-22.337
11
262.913
21
-22.337
0
LINE
8
0
10
251.437
20
-34.813
11
262.913
21
-34.813
0
LINE
8
0
10
250.937
20
-22.837
11
250.937
21
-34.313
0
LINE
8
0
10
263.413
20
-22.837
11
263.413
21
-34.313
0
ARC
8
0
10
251.437
20
-22.837
40
0.5
50
90
51
180
0
ARC
8
0
10
262.913
20
-22.837
40
0.5
50
0
51
90
0
ARC
8
0
10
251.437
20
-34.313
40
0.5
50
180
51
270
0
ARC
8
0
10
262.913
20
-34.313
40
0.5
50
270
51
0
0
LINE
8
0
10
270.487
20
-22.337
11
281.963
21
-22.337
0
LINE
8
0
10
270.487
20
-34.813
11
281.963
21
-34.813
0
LINE
8
0
10
269.987
20
-22.837
11
269.987
21
-34.313
0
LINE
8
0
10
282.463
20
-22.837
11
282.463
21
-34.313
0
ARC
8
0
10
270.487
20
-22.837
40
0.5
50
90
51
180
0
ARC
8
0
10
281.963
20
-22.837
40
0.5
50
0
51
90
0
ARC
8
0
10
270.487
20
-34.313
40
0.5
50
180
51
270
0
ARC
8
0
10
281.963
20
-34.313
40
0.5
50
270
51
0
0
LINE
8
0
10
294.2995
20
-22.337
11
305.7755
21
-22.337
0
LINE
8
0
10
294.2995
20
-34.813
11
305.7755
21
-34.813
0
LINE
8
0
10
293.7995
20
-22.837
11
293.7995
21
-34.313
0
LINE
8
0
10
306.2755
20
-22.837
11
306.2755
21
-34.313
0
ARC
8
0
10
294.2995
20
-22.837
40
0.5
50
90
51
180
0
ARC
8
0
10
305.7755
20
-22.837
40
0.5
50
0
51
90
0
ARC
8
0
10
294.2995
20
-34.313
40
0.5
50
180
51
270
0
ARC
8
0
10
305.7755
20
-34.313
40
0.5
50
270
51
0
0
LINE
8
0
10
327.637
20
-22.337
11
339.113
21
-22.337
0
LINE
8
0
10
327.637
20
-34.813
11
339.113
21
-34.813
0
LINE
8
0
10
327.137
20
-22.837
11
327.137
21
-34.313
0
LINE
8
0
10
339.613
20
-22.837
11
339.613
21
-34.313
0
ARC
8
0
10
327.637
20
-22.837
40
0.5
50
90
51
180
0
ARC
8
0
10
339.113
20
-22.837
40
0.5
50
0
51
90
0
ARC
8
0
10
327.637
20
-34.313
40
0.5
50
180
51
270
0
ARC
8
0
10
339.113
20
-34.313
40
0.5
50
270
51
0
0
LINE
8
0
10
3.787
20
-41.387
11
15.263
21
-41.387
0
LINE
8
0
10
3.787
20
-53.863
11
15.263
21
-53.863
0
LINE
8
0
10
3.287
20
-41.887
11
3.287
21
-53.363
0
LINE
8
0
10
15.763
20
-41.887
11
15.763
21
-53.363
0
ARC
8
0
10
3.787
20
-41.887
40
0.5
50
90
51
180
0
ARC
8
0
10
15.263
20
-41.887
40
0.5
50
0
51
90
0
ARC
8
0
10
3.787
20
-53.363
40
0.5
50
180
51
270
0
ARC
8
0
10
15.263
20
-53.363
40
0.5
50
270
51
0
0
LINE
8
0
10
39.50575
20
-41.387
11
50.98175
21
-41.387
0
LINE
8
0
10
39.50575
20
-53.863
11
50.98175
21
-53.863
0
LINE
8
0
10
39.00575
20
-41.887
11
39.00575
21
-53.363
0
LINE
8
0
10
51.48175
20
-41.887
11
51.48175
21
-53.363
0
ARC
8
0
10
39.50575
20
-41.887
40
0.5
50
90
51
180
0
ARC
8
0
10
50.98175
20
-41.887
40
0.5
50
0
51
90
0
ARC
8
0
10
39.50575
20
-53.363
40
0.5
50
180
51
270
0
ARC
8
0
10
50.98175
20
-53.363
40
0.5
50
270
51
0
0
LINE
8
0
10
65.6995
20
-41.387
11
77.1755
21
-41.387
0
LINE
8
0
10
65.6995
20
-53.863
11
77.1755
21
-53.863
0
LINE
8
0
10
65.1995
20
-41.887
11
65.1995
21
-53.363
0
LINE
8
0
10
77.6755
20
-41.887
11
77.6755
21
-53.363
0
ARC
8
0
10
65.6995
20
-41.887
40
0.5
50
90
51
180
0
ARC
8
0
10
77.1755
20
-41.887
40
0.5
50
0
51
90
0
ARC
8
0
10
65.6995
20
-53.363
40
0.5
50
180
51
270
0
ARC
8
0
10
77.1755
20
-53.363
40
0.5
50
270
51
0
0
LINE
8
0
10
84.7495
20
-41.387
11
96.2255
21
-41.387
0
LINE
8
0
10
84.7495
20
-53.863
11
96.2255
21
-53.863
0
LINE
8
0
10
84.2495
20
-41.887
11
84.2495
21
-53.363
0
LINE
8
0
10
96.7255
20
-41.887
11
96.7255
21
-53.363
0
ARC
8
0
10
84.7495
20
-41.887
40
0.5
50
90
51
180
0
ARC
8
0
10
96.2255
20
-41.887
40
0.5
50
0
51
90
0
ARC
8
0
10
84.7495
20
-53.363
40
0.5
50
180
51
270
0
ARC
8
0
10
96.2255
20
-53.363
40
0.5
50
270
51
0
0
LINE
8
0
10
103.7995
20
-41.387
11
115.2755
21
-41.387
0
LINE
8
0
10
103.7995
20
-53.863
11
115.2755
21
-53.863
0
LINE
8
0
10
103.2995
20
-41.887
11
103.2995
21
-53.363
0
LINE
8
0
10
115.7755
20
-41.887
11
115.7755
21
-53.363
0
ARC
8
0
10
103.7995
20
-41.887
40
0.5
50
90
51
180
0
ARC
8
0
10
115.2755
20
-41.887
40
0.5
50
0
51
90
0
ARC
8
0
10
103.7995
20
-53.363
40
0.5
50
180
51
270
0
ARC
8
0
10
115.2755
20
-53.363
40
0.5
50
270
51
0
0
LINE
8
0
10
122.8495
20
-41.387
11
134.3255
21
-41.387
0
LINE
8
0
10
122.8495
20
-53.863
11
134.3255
21
-53.863
0
LINE
8
0
10
122.3495
20
-41.887
11
122.3495
21
-53.363
0
LINE
8
0
10
134.8255
20
-41.887
11
134.8255
21
-53.363
0
ARC
8
0
10
122.8495
20
-41.887
40
0.5
50
90
51
180
0
ARC
8
0
10
134.3255
20
-41.887
40
0.5
50
0
51
90
0
ARC
8
0
10
122.8495
20
-53.363
40
0.5
50
180
51
270
0
ARC
8
0
10
134.3255
20
-53.363
40
0.5
50
270
51
0
0
LINE
8
0
10
141.8995
20
-41.387
11
153.3755
21
-41.387
0
LINE
8
0
10
141.8995
20
-53.863
11
153.3755
21
-53.863
0
LINE
8
0
10
141.3995
20
-41.887
11
141.3995
21
-53.363
0
LINE
8
0
10
153.8755
20
-41.887
11
153.8755
21
-53.363
0
ARC
8
0
10
141.8995
20
-41.887
40
0.5
50
90
51
180
0
ARC
8
0
10
153.3755
20
-41.887
40
0.5
50
0
51
90
0
ARC
8
0
10
141.8995
20
-53.363
40
0.5
50
180
51
270
0
ARC
8
0
10
153.3755
20
-53.363
40
0.5
50
270
51
0
0
LINE
8
0
10
160.9495
20
-41.387
11
172.4255
21
-41.387
0
LINE
8
0
10
160.9495
20
-53.863
11
172.4255
21
-53.863
0
LINE
8
0
10
160.4495
20
-41.887
11
160.4495
21
-53.363
0
LINE
8
0
10
172.9255
20
-41.887
11
172.9255
21
-53.363
0
ARC
8
0
10
160.9495
20
-41.887
40
0.5
50
90
51
180
0
ARC
8
0
10
172.4255
20
-41.887
40
0.5
50
0
51
90
0
ARC
8
0
10
160.9495
20
-53.363
40
0.5
50
180
51
270
0
ARC
8
0
10
172.4255
20
-53.363
40
0.5
50
270
51
0
0
LINE
8
0
10
179.9995
20
-41.387
11
191.4755
21
-41.387
0
LINE
8
0
10
179.9995
20
-53.863
11
191.4755
21
-53.863
0
LINE
8
0
10
179.4995
20
-41.887
11
179.4995
21
-53.363
0
LINE
8
0
10
191.9755
20
-41.887
11
191.9755
21
-53.363
0
ARC
8
0
10
179.9995
20
-41.887
40
0.5
50
90
51
180
0
ARC
8
0
10
191.4755
20
-41.887
40
0.5
50
0
51
90
0
ARC
8
0
10
179.9995
20
-53.363
40
0.5
50
180
51
270
0
ARC
8
0
10
191.4755
20
-53.363
40
0.5
50
270
51
0
0
LINE
8
0
10
199.0495
20
-41.387
11
210.5255
21
-41.387
0
LINE
8
0
10
199.0495
20
-53.863
11
210.5255
21
-53.863
0
LINE
8
0
10
198.5495
20
-41.887
11
198.5495
21
-53.363
0
LINE
8
0
10
211.0255
20
-41.887
11
211.0255
21
-53.363
0
ARC
8
0
10
199.0495
20
-41.887
40
0.5
50
90
51
180
0
ARC
8
0
10
210.5255
20
-41.887
40
0.5
50
0
51
90
0
ARC
8
0
10
199.0495
20
-53.363
40
0.5
50
180
51
270
0
ARC
8
0
10
210.5255
20
-53.363
40
0.5
50
270
51
0
0
LINE
8
0
10
218.0995
20
-41.387
11
229.5755
21
-41.387
0
LINE
8
0
10
218.0995
20
-53.863
11
229.5755
21
-53.863
0
LINE
8
0
10
217.5995
20
-41.887
11
217.5995
21
-53.363
0
LINE
8
0
10
230.0755
20
-41.887
11
230.0755
21
-53.363
0
ARC
8
0
10
218.0995
20
-41.887
40
0.5
50
90
51
180
0
ARC
8
0
10
229.5755
20
-41.887
40
0.5
50
0
51
90
0
ARC
8
0
10
218.0995
20
-53.363
40
0.5
50
180
51
270
0
ARC
8
0
10
229.5755
20
-53.363
40
0.5
50
270
51
0
0
LINE
8
0
10
237.1495
20
-41.387
11
248.6255
21
-41.387
0
LINE
8
0
10
237.1495
20
-53.863
11
248.6255
21
-53.863
0
LINE
8
0
10
236.6495
20
-41.887
11
236.6495
21
-53.363
0
LINE
8
0
10
249.1255
20
-41.887
11
249.1255
21
-53.363
0
ARC
8
0
10
237.1495
20
-41.887
40
0.5
50
90
51
180
0
ARC
8
0
10
248.6255
20
-41.887
40
0.5
50
0
51
90
0
ARC
8
0
10
237.1495
20
-53.363
40
0.5
50
180
51
270
0
ARC
8
0
10
248.6255
20
-53.363
40
0.5
50
270
51
0
0
LINE
8
0
10
256.1995
20
-41.387
11
267.6755
21
-41.387
0
LINE
8
0
10
256.1995
20
-53.863
11
267.6755
21
-53.863
0
LINE
8
0
10
255.6995
20
-41.887
11
255.6995
21
-53.363
0
LINE
8
0
10
268.1755
20
-41.887
11
268.1755
21
-53.363
0
ARC
8
0
10
256.1995
20
-41.887
40
0.5
50
90
51
180
0
ARC
8
0
10
267.6755
20
-41.887
40
0.5
50
0
51
90
0
ARC
8
0
10
256.1995
20
-53.363
40
0.5
50
180
51
270
0
ARC
8
0
10
267.6755
20
-53.363
40
0.5
50
270
51
0
0
LINE
8
0
10
287.15575
20
-41.387
11
298.63175
21
-41.387
0
LINE
8
0
10
287.15575
20
-53.863
11
298.63175
21
-53.863
0
LINE
8
0
10
286.65575
20
-41.887
11
286.65575
21
-53.363
0
LINE
8
0
10
299.13175
20
-41.887
11
299.13175
21
-53.363
0
ARC
8
0
10
287.15575
20
-41.887
40
0.5
50
90
51
180
0
ARC
8
0
10
298.63175
20
-41.887
40
0.5
50
0
51
90
0
ARC
8
0
10
287.15575
20
-53.363
40
0.5
50
180
51
270
0
ARC
8
0
10
298.63175
20
-53.363
40
0.5
50
270
51
0
0
LINE
8
0
10
278.71775
20
-42.387
11
283.19375
21
-42.387
0
LINE
8
0
10
278.71775
20
-55.863
11
283.19375
21
-55.863
0
LINE
8
0
10
278.21775
20
-42.887
11
278.21775
21
-55.363
0
LINE
8
0
10
283.69375
20
-42.887
11
283.69375
21
-55.363
0
ARC
8
0
10
278.71775
20
-42.887
40
0.5
50
90
51
180
0
ARC
8
0
10
283.19375
20
-42.887
40
0.5
50
0
51
90
0
ARC
8
0
10
278.71775
20
-55.363
40
0.5
50
180
51
270
0
ARC
8
0
10
283.19375
20
-55.363
40
0.5
50
270
51
0
0
LINE
8
0
10
302.59375
20
-42.387
11
307.06975
21
-42.387
0
LINE
8
0
10
302.59375
20
-55.863
11
307.06975
21
-55.863
0
LINE
8
0
10
302.09375
20
-42.887
11
302.09375
21
-55.363
0
LINE
8
0
10
307.56975
20
-42.887
11
307.56975
21
-55.363
0
ARC
8
0
10
302.59375
20
-42.887
40
0.5
50
90
51
180
0
ARC
8
0
10
307.06975
20
-42.887
40
0.5
50
0
51
90
0
ARC
8
0
10
302.59375
20
-55.363
40
0.5
50
180
51
270
0
ARC
8
0
10
307.06975
20
-55.363
40
0.5
50
270
51
0
0
LINE
8
0
10
327.637
20
-41.387
11
339.113
21
-41.387
0
LINE
8
0
10
327.637
20
-53.863
11
339.113
21
-53.863
0
LINE
8
0
10
327.137
20
-41.887
11
327.137
21
-53.363
0
LINE
8
0
10
339.613
20
-41.887
11
339.613
21
-53.363
0
ARC
8
0
10
327.637
20
-41.887
40
0.5
50
90
51
180
0
ARC
8
0
10
339.113
20
-41.887
40
0.5
50
0
51
90
0
ARC
8
0
10
327.637
20
-53.363
40
0.5
50
180
51
270
0
ARC
8
0
10
339.113
20
-53.363
40
0.5
50
270
51
0
0
LINE
8
0
10
3.787
20
-60.437
11
15.263
21
-60.437
0
LINE
8
0
10
3.787
20
-72.913
11
15.263
21
-72.913
0
LINE
8
0
10
3.287
20
-60.937
11
3.287
21
-72.413
0
LINE
8
0
10
15.763
20
-60.937
11
15.763
21
-72.413
0
ARC
8
0
10
3.787
20
-60.937
40
0.5
50
90
51
180
0
ARC
8
0
10
15.263
20
-60.937
40
0.5
50
0
51
90
0
ARC
8
0
10
3.787
20
-72.413
40
0.5
50
180
51
270
0
ARC
8
0
10
15.263
20
-72.413
40
0.5
50
270
51
0
0
LINE
8
0
10
44.26825
20
-60.437
11
55.74425
21
-60.437
0
LINE
8
0
10
44.26825
20
-72.913
11
55.74425
21
-72.913
0
LINE
8
0
10
43.76825
20
-60.937
11
43.76825
21
-72.413
0
LINE
8
0
10
56.24425
20
-60.937
11
56.24425
21
-72.413
0
ARC
8
0
10
44.26825
20
-60.937
40
0.5
50
90
51
180
0
ARC
8
0
10
55.74425
20
-60.937
40
0.5
50
0
51
90
0
ARC
8
0
10
44.26825
20
-72.413
40
0.5
50
180
51
270
0
ARC
8
0
10
55.74425
20
-72.413
40
0.5
50
270
51
0
0
LINE
8
0
10
35.83025
20
-61.437
11
40.30625
21
-61.437
0
LINE
8
0
10
35.83025
20
-74.913
11
40.30625
21
-74.913
0
LINE
8
0
10
35.33025
20
-61.937
11
35.33025
21
-74.413
0
LINE
8
0
10
40.80625
20
-61.937
11
40.80625
21
-74.413
0
ARC
8
0
10
35.83025
20
-61.937
40
0.5
50
90
51
180
0
ARC
8
0
10
40.30625
20
-61.937
40
0.5
50
0
51
90
0
ARC
8
0
10
35.83025
20
-74.413
40
0.5
50
180
51
270
0
ARC
8
0
10
40.30625
20
-74.413
40
0.5
50
270
51
0
0
LINE
8
0
10
59.70625
20
-61.437
11
64.18225
21
-61.437
0
LINE
8
0
10
59.70625
20
-74.913
11
64.18225
21
-74.913
0
LINE
8
0
10
59.20625
20
-61.937
11
59.20625
21
-74.413
0
LINE
8
0
10
64.68225
20
-61.937
11
64.68225
21
-74.413
0
ARC
8
0
10
59.70625
20
-61.937
40
0.5
50
90
51
180
0
ARC
8
0
10
64.18225
20
-61.937
40
0.5
50
0
51
90
0
ARC
8
0
10
59.70625
20
-74.413
40
0.5
50
180
51
270
0
ARC
8
0
10
64.18225
20
-74.413
40
0.5
50
270
51
0
0
LINE
8
0
10
75.2245
20
-60.437
11
86.7005
21
-60.437
0
LINE
8
0
10
75.2245
20
-72.913
11
86.7005
21
-72.913
0
LINE
8
0
10
74.7245
20
-60.937
11
74.7245
21
-72.413
0
LINE
8
0
10
87.2005
20
-60.937
11
87.2005
21
-72.413
0
ARC
8
0
10
75.2245
20
-60.937
40
0.5
50
90
51
180
0
ARC
8
0
10
86.7005
20
-60.937
40
0.5
50
0
51
90
0
ARC
8
0
10
75.2245
20
-72.413
40
0.5
50
180
51
270
0
ARC
8
0
10
86.7005
20
-72.413
40
0.5
50
270
51
0
0
LINE
8
0
10
94.2745
20
-60.437
11
105.7505
21
-60.437
0
LINE
8
0
10
94.2745
20
-72.913
11
105.7505
21
-72.913
0
LINE
8
0
10
93.7745
20
-60.937
11
93.7745
21
-72.413
0
LINE
8
0
10
106.2505
20
-60.937
11
106.2505
21
-72.413
0
ARC
8
0
10
94.2745
20
-60.937
40
0.5
50
90
51
180
0
ARC
8
0
10
105.7505
20
-60.937
40
0.5
50
0
51
90
0
ARC
8
0
10
94.2745
20
-72.413
40
0.5
50
180
51
270
0
ARC
8
0
10
105.7505
20
-72.413
40
0.5
50
270
51
0
0
LINE
8
0
10
113.3245
20
-60.437
11
124.8005
21
-60.437
0
LINE
8
0
10
113.3245
20
-72.913
11
124.8005
21
-72.913
0
LINE
8
0
10
112.8245
20
-60.937
11
112.8245
21
-72.413
0
LINE
8
0
10
125.3005
20
-60.937
11
125.3005
21
-72.413
0
ARC
8
0
10
113.3245
20
-60.937
40
0.5
50
90
51
180
0
ARC
8
0
10
124.8005
20
-60.937
40
0.5
50
0
51
90
0
ARC
8
0
10
113.3245
20
-72.413
40
0.5
50
180
51
270
0
ARC
8
0
10
124.8005
20
-72.413
40
0.5
50
270
51
0
0
LINE
8
0
10
132.3745
20
-60.437
11
143.8505
21
-60.437
0
LINE
8
0
10
132.3745
20
-72.913
11
143.8505
21
-72.913
0
LINE
8
0
10
131.8745
20
-60.937
11
131.8745
21
-72.413
0
LINE
8
0
10
144.3505
20
-60.937
11
144.3505
21
-72.413
0
ARC
8
0
10
132.3745
20
-60.937
40
0.5
50
90
51
180
0
ARC
8
0
10
143.8505
20
-60.937
40
0.5
50
0
51
90
0
ARC
8
0
10
132.3745
20
-72.413
40
0.5
50
180
51
270
0
ARC
8
0
10
143.8505
20
-72.413
40
0.5
50
270
51
0
0
LINE
8
0
10
151.4245
20
-60.437
11
162.9005
21
-60.437
0
LINE
8
0
10
151.4245
20
-72.913
11
162.9005
21
-72.913
0
LINE
8
0
10
150.9245
20
-60.937
11
150.9245
21
-72.413
0
LINE
8
0
10
163.4005
20
-60.937
11
163.4005
21
-72.413
0
ARC
8
0
10
151.4245
20
-60.937
40
0.5
50
90
51
180
0
ARC
8
0
10
162.9005
20
-60.937
40
0.5
50
0
51
90
0
ARC
8
0
10
151.4245
20
-72.413
40
0.5
50
180
51
270
0
ARC
8
0
10
162.9005
20
-72.413
40
0.5
50
270
51
0
0
LINE
8
0
10
170.4745
20
-60.437
11
181.9505
21
-60.437
0
LINE
8
0
10
170.4745
20
-72.913
11
181.9505
21
-72.913
0
LINE
8
0
10
169.9745
20
-60.937
11
169.9745
21
-72.413
0
LINE
8
0
10
182.4505
20
-60.937
11
182.4505
21
-72.413
0
ARC
8
0
10
170.4745
20
-60.937
40
0.5
50
90
51
180
0
ARC
8
0
10
181.9505
20
-60.937
40
0.5
50
0
51
90
0
ARC
8
0
10
170.4745
20
-72.413
40
0.5
50
180
51
270
0
ARC
8
0
10
181.9505
20
-72.413
40
0.5
50
270
51
0
0
LINE
8
0
10
189.5245
20
-60.437
11
201.0005
21
-60.437
0
LINE
8
0
10
189.5245
20
-72.913
11
201.0005
21
-72.913
0
LINE
8
0
10
189.0245
20
-60.937
11
189.0245
21
-72.413
0
LINE
8
0
10
201.5005
20
-60.937
11
201.5005
21
-72.413
0
ARC
8
0
10
189.5245
20
-60.937
40
0.5
50
90
51
180
0
ARC
8
0
10
201.0005
20
-60.937
40
0.5
50
0
51
90
0
ARC
8
0
10
189.5245
20
-72.413
40
0.5
50
180
51
270
0
ARC
8
0
10
201.0005
20
-72.413
40
0.5
50
270
51
0
0
LINE
8
0
10
208.5745
20
-60.437
11
220.0505
21
-60.437
0
LINE
8
0
10
208.5745
20
-72.913
11
220.0505
21
-72.913
0
LINE
8
0
10
208.0745
20
-60.937
11
208.0745
21
-72.413
0
LINE
8
0
10
220.5505
20
-60.937
11
220.5505
21
-72.413
0
ARC
8
0
10
208.5745
20
-60.937
40
0.5
50
90
51
180
0
ARC
8
0
10
220.0505
20
-60.937
40
0.5
50
0
51
90
0
ARC
8
0
10
208.5745
20
-72.413
40
0.5
50
180
51
270
0
ARC
8
0
10
220.0505
20
-72.413
40
0.5
50
270
51
0
0
LINE
8
0
10
227.6245
20
-60.437
11
239.1005
21
-60.437
0
LINE
8
0
10
227.6245
20
-72.913
11
239.1005
21
-72.913
0
LINE
8
0
10
227.1245
20
-60.937
11
227.1245
21
-72.413
0
LINE
8
0
10
239.6005
20
-60.937
11
239.6005
21
-72.413
0
ARC
8
0
10
227.6245
20
-60.937
40
0.5
50
90
51
180
0
ARC
8
0
10
239.1005
20
-60.937
40
0.5
50
0
51
90
0
ARC
8
0
10
227.6245
20
-72.413
40
0.5
50
180
51
270
0
ARC
8
0
10
239.1005
20
-72.413
40
0.5
50
270
51
0
0
LINE
8
0
10
246.6745
20
-60.437
11
258.1505
21
-60.437
0
LINE
8
0
10
246.6745
20
-72.913
11
258.1505
21
-72.913
0
LINE
8
0
10
246.1745
20
-60.937
11
246.1745
21
-72.413
0
LINE
8
0
10
258.6505
20
-60.937
11
258.6505
21
-72.413
0
ARC
8
0
10
246.6745
20
-60.937
40
0.5
50
90
51
180
0
ARC
8
0
10
258.1505
20
-60.937
40
0.5
50
0
51
90
0
ARC
8
0
10
246.6745
20
-72.413
40
0.5
50
180
51
270
0
ARC
8
0
10
258.1505
20
-72.413
40
0.5
50
270
51
0
0
LINE
8
0
10
272.86825
20
-60.437
11
284.34425
21
-60.437
0
LINE
8
0
10
272.86825
20
-72.913
11
284.34425
21
-72.913
0
LINE
8
0
10
272.36825
20
-60.937
11
272.36825
21
-72.413
0
LINE
8
0
10
284.84425
20
-60.937
11
284.84425
21
-72.413
0
ARC
8
0
10
272.86825
20
-60.937
40
0.5
50
90
51
180
0
ARC
8
0
10
284.34425
20
-60.937
40
0.5
50
0
51
90
0
ARC
8
0
10
272.86825
20
-72.413
40
0.5
50
180
51
270
0
ARC
8
0
10
284.34425
20
-72.413
40
0.5
50
270
51
0
0
LINE
8
0
10
327.637
20
-60.437
11
339.113
21
-60.437
0
LINE
8
0
10
327.637
20
-72.913
11
339.113
21
-72.913
0
LINE
8
0
10
327.137
20
-60.937
11
327.137
21
-72.413
0
LINE
8
0
10
339.613
20
-60.937
11
339.613
21
-72.413
0
ARC
8
0
10
327.637
20
-60.937
40
0.5
50
90
51
180
0
ARC
8
0
10
339.113
20
-60.937
40
0.5
50
0
51
90
0
ARC
8
0
10
327.637
20
-72.413
40
0.5
50
180
51
270
0
ARC
8
0
10
339.113
20
-72.413
40
0.5
50
270
51
0
0
LINE
8
0
10
303.8245
20
-65.1995
11
315.3005
21
-65.1995
0
LINE
8
0
10
303.8245
20
-77.6755
11
315.3005
21
-77.6755
0
LINE
8
0
10
303.3245
20
-65.6995
11
303.3245
21
-77.1755
0
LINE
8
0
10
315.8005
20
-65.6995
11
315.8005
21
-77.1755
0
ARC
8
0
10
303.8245
20
-65.6995
40
0.5
50
90
51
180
0
ARC
8
0
10
315.3005
20
-65.6995
40
0.5
50
0
51
90
0
ARC
8
0
10
303.8245
20
-77.1755
40
0.5
50
180
51
270
0
ARC
8
0
10
315.3005
20
-77.1755
40
0.5
50
270
51
0
0
LINE
8
0
10
3.787
20
-79.487
11
15.263
21
-79.487
0
LINE
8
0
10
3.787
20
-91.963
11
15.263
21
-91.963
0
LINE
8
0
10
3.287
20
-79.987
11
3.287
21
-91.463
0
LINE
8
0
10
15.763
20
-79.987
11
15.763
21
-91.463
0
ARC
8
0
10
3.787
20
-79.987
40
0.5
50
90
51
180
0
ARC
8
0
10
15.263
20
-79.987
40
0.5
50
0
51
90
0
ARC
8
0
10
3.787
20
-91.463
40
0.5
50
180
51
270
0
ARC
8
0
10
15.263
20
-91.463
40
0.5
50
270
51
0
0
LINE
8
0
10
34.74325
20
-79.487
11
46.21925
21
-79.487
0
LINE
8
0
10
34.74325
20
-91.963
11
46.21925
21
-91.963
0
LINE
8
0
10
34.24325
20
-79.987
11
34.24325
21
-91.463
0
LINE
8
0
10
46.71925
20
-79.987
11
46.71925
21
-91.463
0
ARC
8
0
10
34.74325
20
-79.987
40
0.5
50
90
51
180
0
ARC
8
0
10
46.21925
20
-79.987
40
0.5
50
0
51
90
0
ARC
8
0
10
34.74325
20
-91.463
40
0.5
50
180
51
270
0
ARC
8
0
10
46.21925
20
-91.463
40
0.5
50
270
51
0
0
LINE
8
0
10
58.55575
20
-79.487
11
70.03175
21
-79.487
0
LINE
8
0
10
58.55575
20
-91.963
11
70.03175
21
-91.963
0
LINE
8
0
10
58.05575
20
-79.987
11
58.05575
21
-91.463
0
LINE
8
0
10
70.53175
20
-79.987
11
70.53175
21
-91.463
0
ARC
8
0
10
58.55575
20
-79.987
40
0.5
50
90
51
180
0
ARC
8
0
10
70.03175
20
-79.987
40
0.5
50
0
51
90
0
ARC
8
0
10
58.55575
20
-91.463
40
0.5
50
180
51
270
0
ARC
8
0
10
70.03175
20
-91.463
40
0.5
50
270
51
0
0
LINE
8
0
10
82.36825
20
-79.487
11
93.84425
21
-79.487
0
LINE
8
0
10
82.36825
20
-91.963
11
93.84425
21
-91.963
0
LINE
8
0
10
81.86825
20
-79.987
11
81.86825
21
-91.463
0
LINE
8
0
10
94.34425
20
-79.987
11
94.34425
21
-91.463
0
ARC
8
0
10
82.36825
20
-79.987
40
0.5
50
90
51
180
0
ARC
8
0
10
93.84425
20
-79.987
40
0.5
50
0
51
90
0
ARC
8
0
10
82.36825
20
-91.463
40
0.5
50
180
51
270
0
ARC
8
0
10
93.84425
20
-91.463
40
0.5
50
270
51
0
0
LINE
8
0
10
115.70575
20
-79.487
11
127.18175
21
-79.487
0
LINE
8
0
10
115.70575
20
-91.963
11
127.18175
21
-91.963
0
LINE
8
0
10
115.20575
20
-79.987
11
115.20575
21
-91.463
0
LINE
8
0
10
127.68175
20
-79.987
11
127.68175
21
-91.463
0
ARC
8
0
10
115.70575
20
-79.987
40
0.5
50
90
51
180
0
ARC
8
0
10
127.18175
20
-79.987
40
0.5
50
0
51
90
0
ARC
8
0
10
115.70575
20
-91.463
40
0.5
50
180
51
270
0
ARC
8
0
10
127.18175
20
-91.463
40
0.5
50
270
51
0
0
LINE
8
0
10
107.26775
20
-80.487
11
111.74375
21
-80.487
0
LINE
8
0
10
107.26775
20
-93.963
11
111.74375
21
-93.963
0
LINE
8
0
10
106.76775
20
-80.987
11
106.76775
21
-93.463
0
LINE
8
0
10
112.24375
20
-80.987
11
112.24375
21
-93.463
0
ARC
8
0
10
107.26775
20
-80.987
40
0.5
50
90
51
180
0
ARC
8
0
10
111.74375
20
-80.987
40
0.5
50
0
51
90
0
ARC
8
0
10
107.26775
20
-93.463
40
0.5
50
180
51
270
0
ARC
8
0
10
111.74375
20
-93.463
40
0.5
50
270
51
0
0
LINE
8
0
10
131.14375
20
-80.487
11
135.61975
21
-80.487
0
LINE
8
0
10
131.14375
20
-93.963
11
135.61975
21
-93.963
0
LINE
8
0
10
130.64375
20
-80.987
11
130.64375
21
-93.463
0
LINE
8
0
10
136.11975
20
-80.987
11
136.11975
21
-93.463
0
ARC
8
0
10
131.14375
20
-80.987
40
0.5
50
90
51
180
0
ARC
8
0
10
135.61975
20
-80.987
40
0.5
50
0
51
90
0
ARC
8
0
10
131.14375
20
-93.463
40
0.5
50
180
51
270
0
ARC
8
0
10
135.61975
20
-93.463
40
0.5
50
270
51
0
0
LINE
8
0
10
153.80575
20
-79.487
11
165.28175
21
-79.487
0
LINE
8
0
10
153.80575
20
-91.963
11
165.28175
21
-91.963
0
LINE
8
0
10
153.30575
20
-79.987
11
153.30575
21
-91.463
0
LINE
8
0
10
165.78175
20
-79.987
11
165.78175
21
-91.463
0
ARC
8
0
10
153.80575
20
-79.987
40
0.5
50
90
51
180
0
ARC
8
0
10
165.28175
20
-79.987
40
0.5
50
0
51
90
0
ARC
8
0
10
153.80575
20
-91.463
40
0.5
50
180
51
270
0
ARC
8
0
10
165.28175
20
-91.463
40
0.5
50
270
51
0
0
LINE
8
0
10
191.90575
20
-79.487
11
203.38175
21
-79.487
0
LINE
8
0
10
191.90575
20
-91.963
11
203.38175
21
-91.963
0
LINE
8
0
10
191.40575
20
-79.987
11
191.40575
21
-91.463
0
LINE
8
0
10
203.88175
20
-79.987
11
203.88175
21
-91.463
0
ARC
8
0
10
191.90575
20
-79.987
40
0.5
50
90
51
180
0
ARC
8
0
10
203.38175
20
-79.987
40
0.5
50
0
51
90
0
ARC
8
0
10
191.90575
20
-91.463
40
0.5
50
180
51
270
0
ARC
8
0
10
203.38175
20
-91.463
40
0.5
50
270
51
0
0
LINE
8
0
10
183.46775
20
-80.487
11
187.94375
21
-80.487
0
LINE
8
0
10
183.46775
20
-93.963
11
187.94375
21
-93.963
0
LINE
8
0
10
182.96775
20
-80.987
11
182.96775
21
-93.463
0
LINE
8
0
10
188.44375
20
-80.987
11
188.44375
21
-93.463
0
ARC
8
0
10
183.46775
20
-80.987
40
0.5
50
90
51
180
0
ARC
8
0
10
187.94375
20
-80.987
40
0.5
50
0
51
90
0
ARC
8
0
10
183.46775
20
-93.463
40
0.5
50
180
51
270
0
ARC
8
0
10
187.94375
20
-93.463
40
0.5
50
270
51
0
0
LINE
8
0
10
207.34375
20
-80.487
11
211.81975
21
-80.487
0
LINE
8
0
10
207.34375
20
-93.963
11
211.81975
21
-93.963
0
LINE
8
0
10
206.84375
20
-80.987
11
206.84375
21
-93.463
0
LINE
8
0
10
212.31975
20
-80.987
11
212.31975
21
-93.463
0
ARC
8
0
10
207.34375
20
-80.987
40
0.5
50
90
51
180
0
ARC
8
0
10
211.81975
20
-80.987
40
0.5
50
0
51
90
0
ARC
8
0
10
207.34375
20
-93.463
40
0.5
50
180
51
270
0
ARC
8
0
10
211.81975
20
-93.463
40
0.5
50
270
51
0
0
LINE
8
0
10
227.6245
20
-79.487
11
239.1005
21
-79.487
0
LINE
8
0
10
227.6245
20
-91.963
11
239.1005
21
-91.963
0
LINE
8
0
10
227.1245
20
-79.987
11
227.1245
21
-91.463
0
LINE
8
0
10
239.6005
20
-79.987
11
239.6005
21
-91.463
0
ARC
8
0
10
227.6245
20
-79.987
40
0.5
50
90
51
180
0
ARC
8
0
10
239.1005
20
-79.987
40
0.5
50
0
51
90
0
ARC
8
0
10
227.6245
20
-91.463
40
0.5
50
180
51
270
0
ARC
8
0
10
239.1005
20
-91.463
40
0.5
50
270
51
0
0
LINE
8
0
10
256.1995
20
-79.487
11
267.6755
21
-79.487
0
LINE
8
0
10
256.1995
20
-91.963
11
267.6755
21
-91.963
0
LINE
8
0
10
255.6995
20
-79.987
11
255.6995
21
-91.463
0
LINE
8
0
10
268.1755
20
-79.987
11
268.1755
21
-91.463
0
ARC
8
0
10
256.1995
20
-79.987
40
0.5
50
90
51
180
0
ARC
8
0
10
267.6755
20
-79.987
40
0.5
50
0
51
90
0
ARC
8
0
10
256.1995
20
-91.463
40
0.5
50
180
51
270
0
ARC
8
0
10
267.6755
20
-91.463
40
0.5
50
270
51
0
0
LINE
8
0
10
284.7745
20
-84.2495
11
296.2505
21
-84.2495
0
LINE
8
0
10
284.7745
20
-96.7255
11
296.2505
21
-96.7255
0
LINE
8
0
10
284.2745
20
-84.7495
11
284.2745
21
-96.2255
0
LINE
8
0
10
296.7505
20
-84.7495
11
296.7505
21
-96.2255
0
ARC
8
0
10
284.7745
20
-84.7495
40
0.5
50
90
51
180
0
ARC
8
0
10
296.2505
20
-84.7495
40
0.5
50
0
51
90
0
ARC
8
0
10
284.7745
20
-96.2255
40
0.5
50
180
51
270
0
ARC
8
0
10
296.2505
20
-96.2255
40
0.5
50
270
51
0
0
LINE
8
0
10
303.8245
20
-84.2495
11
315.3005
21
-84.2495
0
LINE
8
0
10
303.8245
20
-96.7255
11
315.3005
21
-96.7255
0
LINE
8
0
10
303.3245
20
-84.7495
11
303.3245
21
-96.2255
0
LINE
8
0
10
315.8005
20
-84.7495
11
315.8005
21
-96.2255
0
ARC
8
0
10
303.8245
20
-84.7495
40
0.5
50
90
51
180
0
ARC
8
0
10
315.3005
20
-84.7495
40
0.5
50
0
51
90
0
ARC
8
0
10
303.8245
20
-96.2255
40
0.5
50
180
51
270
0
ARC
8
0
10
315.3005
20
-96.2255
40
0.5
50
270
51
0
0
LINE
8
0
10
322.8745
20
-84.2495
11
334.3505
21
-84.2495
0
LINE
8
0
10
322.8745
20
-96.7255
11
334.3505
21
-96.7255
0
LINE
8
0
10
322.3745
20
-84.7495
11
322.3745
21
-96.2255
0
LINE
8
0
10
334.8505
20
-84.7495
11
334.8505
21
-96.2255
0
ARC
8
0
10
322.8745
20
-84.7495
40
0.5
50
90
51
180
0
ARC
8
0
10
334.3505
20
-84.7495
40
0.5
50
0
51
90
0
ARC
8
0
10
322.8745
20
-96.2255
40
0.5
50
180
51
270
0
ARC
8
0
10
334.3505
20
-96.2255
40
0.5
50
270
51
0
0
LINE
8
0
10
0
20
-100.0125
11
342.9
21
-100.0125
0
LINE
8
0
10
0
20
0
11
342.9
21
0
0
LINE
8
0
10
0
20
-100.0125
11
0
21
0
0
LINE
8
0
10
342.9
20
-100.0125
11
342.9
21
0
0
ENDSEC
0
EOF