  0
SECTION
  2
HEADER
  9
$ANGBASE
  50
0.0
  9
$ANGDIR
  70
1
  9
$MEASUREMENT
  70
1
  0
ENDSEC
  0
SECTION
  2
TABLES
  0
TABLE
  2
LTYPE
  70
4
  0
LTYPE
  5
40F
  2
CONTINUOUS
  70
0
  3
Solid line
  72
65
  73
0
  40
0.0
  0
LTYPE
  5
410
  2
DASHDOT
 70
0
  3
Dash Dot ____ _ ____ _
 72
65
 73
4
 40
2.0
 49
1.25
 49
-0.25
 49
0.25
 49
-0.25
  0
LTYPE
  5
411
  2
DASHED
 70
0
  3
Dashed __ __ __ __ __
 72
65
 73
2
 40
0.75
 49
0.5
 49
-0.25
  0
LTYPE
  5
43B
  2
DOTTED
 70
0
  3
Dotted .  .  .  .
 72
65
 73
2
 40
0.2
 49
0.0
 49
-0.2
  0
ENDTAB
  0
TABLE
  2
STYLE
  70
4
  0
STYLE
  2
KICAD
  70
0
  40
0
  41
1
  42
1
  50
0
  71
0
  3
isocp.shx
  0
STYLE
  2
KICADB
  70
0
  40
0
  41
1
  42
1
  50
0
  71
0
  3
isocp.shx
  0
STYLE
  2
KICADI
  70
0
  40
0
  41
1
  42
1
  50
15
  71
0
  3
isocp.shx
  0
STYLE
  2
KICADBI
  70
0
  40
0
  41
1
  42
1
  50
15
  71
0
  3
isocp.shx
  0
ENDTAB
  0
TABLE
  2
LAYER
  70
1
  0
LAYER
  2
BLACK
  70
0
  62
7
  6
CONTINUOUS
  0
ENDTAB
  0
ENDSEC
  0
SECTION
  2
ENTITIES
0
LINE
8
BLACK
6
CONTINUOUS
10
15.25
20
0.025
11
15.4279890000000002
21
0.009428
0
LINE
8
BLACK
6
CONTINUOUS
10
15.4279890000000002
20
0.009428
11
15.6005709999999986
21
-0.036815
0
LINE
8
BLACK
6
CONTINUOUS
10
15.6005709999999986
20
-0.036815
11
15.7624999999999993
21
-0.112324
0
LINE
8
BLACK
6
CONTINUOUS
10
15.7624999999999993
20
-0.112324
11
15.9088569999999994
21
-0.214804
0
LINE
8
BLACK
6
CONTINUOUS
10
15.9088569999999994
20
-0.214804
11
16.0351959999999991
21
-0.341143
0
LINE
8
BLACK
6
CONTINUOUS
10
16.0351959999999991
20
-0.341143
11
16.137675999999999
21
-0.4875
0
LINE
8
BLACK
6
CONTINUOUS
10
16.137675999999999
20
-0.4875
11
16.2131849999999993
21
-0.6494289999999999
0
LINE
8
BLACK
6
CONTINUOUS
10
16.2131849999999993
20
-0.6494289999999999
11
16.2594279999999998
21
-0.8220109999999999
0
LINE
8
BLACK
6
CONTINUOUS
10
16.2594279999999998
20
-0.8220109999999999
11
16.2749999999999986
21
-1.
0
LINE
8
BLACK
6
CONTINUOUS
10
16.2749999999999986
20
-1.
11
16.2749999999999986
21
-1.145834
0
LINE
8
BLACK
6
CONTINUOUS
10
16.2749999999999986
20
-1.145834
11
16.3130699999999997
21
-1.4350069999999999
0
LINE
8
BLACK
6
CONTINUOUS
10
16.3130699999999997
20
-1.4350069999999999
11
16.3885599999999982
21
-1.716737
0
LINE
8
BLACK
6
CONTINUOUS
10
16.3885599999999982
20
-1.716737
11
16.5001759999999997
21
-1.9862039999999999
0
LINE
8
BLACK
6
CONTINUOUS
10
16.5001759999999997
20
-1.9862039999999999
11
16.6460109999999979
21
-2.2387959999999998
0
LINE
8
BLACK
6
CONTINUOUS
10
16.6460109999999979
20
-2.2387959999999998
11
16.8235670000000006
21
-2.4701919999999999
0
LINE
8
BLACK
6
CONTINUOUS
10
16.8235670000000006
20
-2.4701919999999999
11
17.0298079999999992
21
-2.6764329999999998
0
LINE
8
BLACK
6
CONTINUOUS
10
17.0298079999999992
20
-2.6764329999999998
11
17.2612039999999993
21
-2.8539889999999999
0
LINE
8
BLACK
6
CONTINUOUS
10
17.2612039999999993
20
-2.8539889999999999
11
17.5137959999999993
21
-2.9998239999999998
0
LINE
8
BLACK
6
CONTINUOUS
10
17.5137959999999993
20
-2.9998239999999998
11
17.783262999999998
21
-3.11144
0
LINE
8
BLACK
6
CONTINUOUS
10
17.783262999999998
20
-3.11144
11
18.0649929999999976
21
-3.1869299999999998
0
LINE
8
BLACK
6
CONTINUOUS
10
18.0649929999999976
20
-3.1869299999999998
11
18.3541659999999993
21
-3.2249999999999996
0
LINE
8
BLACK
6
CONTINUOUS
10
18.3541659999999993
20
-3.2249999999999996
11
18.6458340000000007
21
-3.2249999999999996
0
LINE
8
BLACK
6
CONTINUOUS
10
18.6458340000000007
20
-3.2249999999999996
11
18.9350069999999988
21
-3.1869299999999998
0
LINE
8
BLACK
6
CONTINUOUS
10
18.9350069999999988
20
-3.1869299999999998
11
19.2167369999999984
21
-3.11144
0
LINE
8
BLACK
6
CONTINUOUS
10
19.2167369999999984
20
-3.11144
11
19.4862040000000007
21
-2.9998239999999998
0
LINE
8
BLACK
6
CONTINUOUS
10
19.4862040000000007
20
-2.9998239999999998
11
19.7387960000000007
21
-2.8539889999999999
0
LINE
8
BLACK
6
CONTINUOUS
10
19.7387960000000007
20
-2.8539889999999999
11
19.9701920000000008
21
-2.6764329999999998
0
LINE
8
BLACK
6
CONTINUOUS
10
19.9701920000000008
20
-2.6764329999999998
11
20.1764329999999994
21
-2.4701919999999999
0
LINE
8
BLACK
6
CONTINUOUS
10
20.1764329999999994
20
-2.4701919999999999
11
20.3539889999999986
21
-2.2387959999999998
0
LINE
8
BLACK
6
CONTINUOUS
10
20.3539889999999986
20
-2.2387959999999998
11
20.4998240000000003
21
-1.9862039999999999
0
LINE
8
BLACK
6
CONTINUOUS
10
20.4998240000000003
20
-1.9862039999999999
11
20.6114399999999982
21
-1.716737
0
LINE
8
BLACK
6
CONTINUOUS
10
20.6114399999999982
20
-1.716737
11
20.6869300000000003
21
-1.4350069999999999
0
LINE
8
BLACK
6
CONTINUOUS
10
20.6869300000000003
20
-1.4350069999999999
11
20.7249999999999979
21
-1.145834
0
LINE
8
BLACK
6
CONTINUOUS
10
20.7249999999999979
20
-1.145834
11
20.7249999999999979
21
-1.
0
LINE
8
BLACK
6
CONTINUOUS
10
20.7249999999999979
20
-1.
11
20.7405720000000002
21
-0.8220109999999999
0
LINE
8
BLACK
6
CONTINUOUS
10
20.7405720000000002
20
-0.8220109999999999
11
20.7868150000000007
21
-0.6494289999999999
0
LINE
8
BLACK
6
CONTINUOUS
10
20.7868150000000007
20
-0.6494289999999999
11
20.8623239999999974
21
-0.4875
0
LINE
8
BLACK
6
CONTINUOUS
10
20.8623239999999974
20
-0.4875
11
20.9648039999999973
21
-0.341143
0
LINE
8
BLACK
6
CONTINUOUS
10
20.9648039999999973
20
-0.341143
11
21.0911429999999989
21
-0.214804
0
LINE
8
BLACK
6
CONTINUOUS
10
21.0911429999999989
20
-0.214804
11
21.2375000000000007
21
-0.112324
0
LINE
8
BLACK
6
CONTINUOUS
10
21.2375000000000007
20
-0.112324
11
21.3994289999999978
21
-0.036815
0
LINE
8
BLACK
6
CONTINUOUS
10
21.3994289999999978
20
-0.036815
11
21.5720109999999998
21
0.009428
0
LINE
8
BLACK
6
CONTINUOUS
10
21.5720109999999998
20
0.009428
11
21.75
21
0.025
0
LINE
8
BLACK
6
CONTINUOUS
10
21.75
20
0.025
11
120.0249999999999915
21
0.025
0
LINE
8
BLACK
6
CONTINUOUS
10
120.0249999999999915
20
0.025
11
120.2029889999999881
21
0.009428
0
LINE
8
BLACK
6
CONTINUOUS
10
120.2029889999999881
20
0.009428
11
120.3755709999999937
21
-0.036815
0
LINE
8
BLACK
6
CONTINUOUS
10
120.3755709999999937
20
-0.036815
11
120.5374999999999943
21
-0.112324
0
LINE
8
BLACK
6
CONTINUOUS
10
120.5374999999999943
20
-0.112324
11
120.6838569999999891
21
-0.214804
0
LINE
8
BLACK
6
CONTINUOUS
10
120.6838569999999891
20
-0.214804
11
120.8101959999999906
21
-0.341143
0
LINE
8
BLACK
6
CONTINUOUS
10
120.8101959999999906
20
-0.341143
11
120.9126759999999905
21
-0.4875
0
LINE
8
BLACK
6
CONTINUOUS
10
120.9126759999999905
20
-0.4875
11
120.9881850000000014
21
-0.6494289999999999
0
LINE
8
BLACK
6
CONTINUOUS
10
120.9881850000000014
20
-0.6494289999999999
11
121.0344279999999912
21
-0.8220109999999999
0
LINE
8
BLACK
6
CONTINUOUS
10
121.0344279999999912
20
-0.8220109999999999
11
121.0499999999999972
21
-1.
0
LINE
8
BLACK
6
CONTINUOUS
10
121.0499999999999972
20
-1.
11
121.0499999999999972
21
-1.145834
0
LINE
8
BLACK
6
CONTINUOUS
10
121.0499999999999972
20
-1.145834
11
121.0880699999999877
21
-1.4350069999999999
0
LINE
8
BLACK
6
CONTINUOUS
10
121.0880699999999877
20
-1.4350069999999999
11
121.1635599999999897
21
-1.716737
0
LINE
8
BLACK
6
CONTINUOUS
10
121.1635599999999897
20
-1.716737
11
121.2751759999999877
21
-1.9862039999999999
0
LINE
8
BLACK
6
CONTINUOUS
10
121.2751759999999877
20
-1.9862039999999999
11
121.4210109999999929
21
-2.2387959999999998
0
LINE
8
BLACK
6
CONTINUOUS
10
121.4210109999999929
20
-2.2387959999999998
11
121.5985669999999885
21
-2.4701919999999999
0
LINE
8
BLACK
6
CONTINUOUS
10
121.5985669999999885
20
-2.4701919999999999
11
121.8048079999999942
21
-2.6764329999999998
0
LINE
8
BLACK
6
CONTINUOUS
10
121.8048079999999942
20
-2.6764329999999998
11
122.0362039999999979
21
-2.8539889999999999
0
LINE
8
BLACK
6
CONTINUOUS
10
122.0362039999999979
20
-2.8539889999999999
11
122.2887959999999907
21
-2.9998239999999998
0
LINE
8
BLACK
6
CONTINUOUS
10
122.2887959999999907
20
-2.9998239999999998
11
122.5582629999999966
21
-3.11144
0
LINE
8
BLACK
6
CONTINUOUS
10
122.5582629999999966
20
-3.11144
11
122.8399929999999927
21
-3.1869299999999998
0
LINE
8
BLACK
6
CONTINUOUS
10
122.8399929999999927
20
-3.1869299999999998
11
123.1291659999999979
21
-3.2249999999999996
0
LINE
8
BLACK
6
CONTINUOUS
10
123.1291659999999979
20
-3.2249999999999996
11
123.4208339999999993
21
-3.2249999999999996
0
LINE
8
BLACK
6
CONTINUOUS
10
123.4208339999999993
20
-3.2249999999999996
11
123.7100069999999903
21
-3.1869299999999998
0
LINE
8
BLACK
6
CONTINUOUS
10
123.7100069999999903
20
-3.1869299999999998
11
123.9917370000000005
21
-3.11144
0
LINE
8
BLACK
6
CONTINUOUS
10
123.9917370000000005
20
-3.11144
11
124.2612039999999922
21
-2.9998239999999998
0
LINE
8
BLACK
6
CONTINUOUS
10
124.2612039999999922
20
-2.9998239999999998
11
124.5137959999999993
21
-2.8539889999999999
0
LINE
8
BLACK
6
CONTINUOUS
10
124.5137959999999993
20
-2.8539889999999999
11
124.7451919999999888
21
-2.6764329999999998
0
LINE
8
BLACK
6
CONTINUOUS
10
124.7451919999999888
20
-2.6764329999999998
11
124.9514329999999944
21
-2.4701919999999999
0
LINE
8
BLACK
6
CONTINUOUS
10
124.9514329999999944
20
-2.4701919999999999
11
125.12898899999999
21
-2.2387959999999998
0
LINE
8
BLACK
6
CONTINUOUS
10
125.12898899999999
20
-2.2387959999999998
11
125.2748239999999953
21
-1.9862039999999999
0
LINE
8
BLACK
6
CONTINUOUS
10
125.2748239999999953
20
-1.9862039999999999
11
125.3864399999999932
21
-1.716737
0
LINE
8
BLACK
6
CONTINUOUS
10
125.3864399999999932
20
-1.716737
11
125.4619299999999953
21
-1.4350069999999999
0
LINE
8
BLACK
6
CONTINUOUS
10
125.4619299999999953
20
-1.4350069999999999
11
125.5
21
-1.145834
0
LINE
8
BLACK
6
CONTINUOUS
10
125.5
20
-1.145834
11
125.5
21
-1.
0
LINE
8
BLACK
6
CONTINUOUS
10
125.5
20
-1.
11
125.5155719999999917
21
-0.8220109999999999
0
LINE
8
BLACK
6
CONTINUOUS
10
125.5155719999999917
20
-0.8220109999999999
11
125.5618149999999957
21
-0.6494289999999999
0
LINE
8
BLACK
6
CONTINUOUS
10
125.5618149999999957
20
-0.6494289999999999
11
125.6373239999999925
21
-0.4875
0
LINE
8
BLACK
6
CONTINUOUS
10
125.6373239999999925
20
-0.4875
11
125.7398039999999924
21
-0.341143
0
LINE
8
BLACK
6
CONTINUOUS
10
125.7398039999999924
20
-0.341143
11
125.8661429999999939
21
-0.214804
0
LINE
8
BLACK
6
CONTINUOUS
10
125.8661429999999939
20
-0.214804
11
126.0124999999999886
21
-0.112324
0
LINE
8
BLACK
6
CONTINUOUS
10
126.0124999999999886
20
-0.112324
11
126.1744289999999893
21
-0.036815
0
LINE
8
BLACK
6
CONTINUOUS
10
126.1744289999999893
20
-0.036815
11
126.3470109999999949
21
0.009428
0
LINE
8
BLACK
6
CONTINUOUS
10
126.3470109999999949
20
0.009428
11
126.5249999999999915
21
0.025
0
LINE
8
BLACK
6
CONTINUOUS
10
126.5249999999999915
20
0.025
11
215.2749999999999773
21
0.025
0
LINE
8
BLACK
6
CONTINUOUS
10
215.2749999999999773
20
0.025
11
215.4529890000000023
21
0.009428
0
LINE
8
BLACK
6
CONTINUOUS
10
215.4529890000000023
20
0.009428
11
215.6255709999999794
21
-0.036815
0
LINE
8
BLACK
6
CONTINUOUS
10
215.6255709999999794
20
-0.036815
11
215.7874999999999943
21
-0.112324
0
LINE
8
BLACK
6
CONTINUOUS
10
215.7874999999999943
20
-0.112324
11
215.9338569999999891
21
-0.214804
0
LINE
8
BLACK
6
CONTINUOUS
10
215.9338569999999891
20
-0.214804
11
216.0601959999999906
21
-0.341143
0
LINE
8
BLACK
6
CONTINUOUS
10
216.0601959999999906
20
-0.341143
11
216.1626759999999763
21
-0.4875
0
LINE
8
BLACK
6
CONTINUOUS
10
216.1626759999999763
20
-0.4875
11
216.2381849999999872
21
-0.6494289999999999
0
LINE
8
BLACK
6
CONTINUOUS
10
216.2381849999999872
20
-0.6494289999999999
11
216.2844279999999912
21
-0.8220109999999999
0
LINE
8
BLACK
6
CONTINUOUS
10
216.2844279999999912
20
-0.8220109999999999
11
216.2999999999999829
21
-1.
0
LINE
8
BLACK
6
CONTINUOUS
10
216.2999999999999829
20
-1.
11
216.2999999999999829
21
-1.145834
0
LINE
8
BLACK
6
CONTINUOUS
10
216.2999999999999829
20
-1.145834
11
216.3380699999999877
21
-1.4350069999999999
0
LINE
8
BLACK
6
CONTINUOUS
10
216.3380699999999877
20
-1.4350069999999999
11
216.4135599999999897
21
-1.716737
0
LINE
8
BLACK
6
CONTINUOUS
10
216.4135599999999897
20
-1.716737
11
216.5251759999999877
21
-1.9862039999999999
0
LINE
8
BLACK
6
CONTINUOUS
10
216.5251759999999877
20
-1.9862039999999999
11
216.6710109999999929
21
-2.2387959999999998
0
LINE
8
BLACK
6
CONTINUOUS
10
216.6710109999999929
20
-2.2387959999999998
11
216.8485670000000027
21
-2.4701919999999999
0
LINE
8
BLACK
6
CONTINUOUS
10
216.8485670000000027
20
-2.4701919999999999
11
217.05480799999998
21
-2.6764329999999998
0
LINE
8
BLACK
6
CONTINUOUS
10
217.05480799999998
20
-2.6764329999999998
11
217.2862039999999979
21
-2.8539889999999999
0
LINE
8
BLACK
6
CONTINUOUS
10
217.2862039999999979
20
-2.8539889999999999
11
217.5387959999999907
21
-2.9998239999999998
0
LINE
8
BLACK
6
CONTINUOUS
10
217.5387959999999907
20
-2.9998239999999998
11
217.8082629999999824
21
-3.11144
0
LINE
8
BLACK
6
CONTINUOUS
10
217.8082629999999824
20
-3.11144
11
218.0899929999999927
21
-3.1869299999999998
0
LINE
8
BLACK
6
CONTINUOUS
10
218.0899929999999927
20
-3.1869299999999998
11
218.3791659999999979
21
-3.2249999999999996
0
LINE
8
BLACK
6
CONTINUOUS
10
218.3791659999999979
20
-3.2249999999999996
11
218.6708339999999851
21
-3.2249999999999996
0
LINE
8
BLACK
6
CONTINUOUS
10
218.6708339999999851
20
-3.2249999999999996
11
218.9600069999999903
21
-3.1869299999999998
0
LINE
8
BLACK
6
CONTINUOUS
10
218.9600069999999903
20
-3.1869299999999998
11
219.2417370000000005
21
-3.11144
0
LINE
8
BLACK
6
CONTINUOUS
10
219.2417370000000005
20
-3.11144
11
219.5112039999999922
21
-2.9998239999999998
0
LINE
8
BLACK
6
CONTINUOUS
10
219.5112039999999922
20
-2.9998239999999998
11
219.763795999999985
21
-2.8539889999999999
0
LINE
8
BLACK
6
CONTINUOUS
10
219.763795999999985
20
-2.8539889999999999
11
219.995192000000003
21
-2.6764329999999998
0
LINE
8
BLACK
6
CONTINUOUS
10
219.995192000000003
20
-2.6764329999999998
11
220.2014329999999802
21
-2.4701919999999999
0
LINE
8
BLACK
6
CONTINUOUS
10
220.2014329999999802
20
-2.4701919999999999
11
220.37898899999999
21
-2.2387959999999998
0
LINE
8
BLACK
6
CONTINUOUS
10
220.37898899999999
20
-2.2387959999999998
11
220.5248239999999953
21
-1.9862039999999999
0
LINE
8
BLACK
6
CONTINUOUS
10
220.5248239999999953
20
-1.9862039999999999
11
220.6364399999999932
21
-1.716737
0
LINE
8
BLACK
6
CONTINUOUS
10
220.6364399999999932
20
-1.716737
11
220.7119299999999953
21
-1.4350069999999999
0
LINE
8
BLACK
6
CONTINUOUS
10
220.7119299999999953
20
-1.4350069999999999
11
220.75
21
-1.145834
0
LINE
8
BLACK
6
CONTINUOUS
10
220.75
20
-1.145834
11
220.75
21
-1.
0
LINE
8
BLACK
6
CONTINUOUS
10
220.75
20
-1.
11
220.7655719999999917
21
-0.8220109999999999
0
LINE
8
BLACK
6
CONTINUOUS
10
220.7655719999999917
20
-0.8220109999999999
11
220.8118149999999957
21
-0.6494289999999999
0
LINE
8
BLACK
6
CONTINUOUS
10
220.8118149999999957
20
-0.6494289999999999
11
220.8873239999999782
21
-0.4875
0
LINE
8
BLACK
6
CONTINUOUS
10
220.8873239999999782
20
-0.4875
11
220.9898039999999924
21
-0.341143
0
LINE
8
BLACK
6
CONTINUOUS
10
220.9898039999999924
20
-0.341143
11
221.1161429999999939
21
-0.214804
0
LINE
8
BLACK
6
CONTINUOUS
10
221.1161429999999939
20
-0.214804
11
221.2624999999999886
21
-0.112324
0
LINE
8
BLACK
6
CONTINUOUS
10
221.2624999999999886
20
-0.112324
11
221.4244290000000035
21
-0.036815
0
LINE
8
BLACK
6
CONTINUOUS
10
221.4244290000000035
20
-0.036815
11
221.5970109999999806
21
0.009428
0
LINE
8
BLACK
6
CONTINUOUS
10
221.5970109999999806
20
0.009428
11
221.7749999999999773
21
0.025
0
LINE
8
BLACK
6
CONTINUOUS
10
221.7749999999999773
20
0.025
11
320.0500000000000114
21
0.025
0
LINE
8
BLACK
6
CONTINUOUS
10
320.0500000000000114
20
0.025
11
320.2279889999999796
21
0.009428
0
LINE
8
BLACK
6
CONTINUOUS
10
320.2279889999999796
20
0.009428
11
320.4005710000000136
21
-0.036815
0
LINE
8
BLACK
6
CONTINUOUS
10
320.4005710000000136
20
-0.036815
11
320.5625
21
-0.112324
0
LINE
8
BLACK
6
CONTINUOUS
10
320.5625
20
-0.112324
11
320.7088569999999663
21
-0.214804
0
LINE
8
BLACK
6
CONTINUOUS
10
320.7088569999999663
20
-0.214804
11
320.8351959999999963
21
-0.341143
0
LINE
8
BLACK
6
CONTINUOUS
10
320.8351959999999963
20
-0.341143
11
320.9376760000000104
21
-0.4875
0
LINE
8
BLACK
6
CONTINUOUS
10
320.9376760000000104
20
-0.4875
11
321.0131849999999645
21
-0.6494289999999999
0
LINE
8
BLACK
6
CONTINUOUS
10
321.0131849999999645
20
-0.6494289999999999
11
321.0594279999999685
21
-0.8220109999999999
0
LINE
8
BLACK
6
CONTINUOUS
10
321.0594279999999685
20
-0.8220109999999999
11
321.0749999999999886
21
-1.
0
LINE
8
BLACK
6
CONTINUOUS
10
321.0749999999999886
20
-1.
11
321.0749999999999886
21
-1.145834
0
LINE
8
BLACK
6
CONTINUOUS
10
321.0749999999999886
20
-1.145834
11
321.1130699999999933
21
-1.4350069999999999
0
LINE
8
BLACK
6
CONTINUOUS
10
321.1130699999999933
20
-1.4350069999999999
11
321.1885599999999954
21
-1.716737
0
LINE
8
BLACK
6
CONTINUOUS
10
321.1885599999999954
20
-1.716737
11
321.3001759999999649
21
-1.9862039999999999
0
LINE
8
BLACK
6
CONTINUOUS
10
321.3001759999999649
20
-1.9862039999999999
11
321.4460109999999986
21
-2.2387959999999998
0
LINE
8
BLACK
6
CONTINUOUS
10
321.4460109999999986
20
-2.2387959999999998
11
321.62356699999998
21
-2.4701919999999999
0
LINE
8
BLACK
6
CONTINUOUS
10
321.62356699999998
20
-2.4701919999999999
11
321.8298079999999572
21
-2.6764329999999998
0
LINE
8
BLACK
6
CONTINUOUS
10
321.8298079999999572
20
-2.6764329999999998
11
322.0612039999999752
21
-2.8539889999999999
0
LINE
8
BLACK
6
CONTINUOUS
10
322.0612039999999752
20
-2.8539889999999999
11
322.313795999999968
21
-2.9998239999999998
0
LINE
8
BLACK
6
CONTINUOUS
10
322.313795999999968
20
-2.9998239999999998
11
322.5832629999999881
21
-3.11144
0
LINE
8
BLACK
6
CONTINUOUS
10
322.5832629999999881
20
-3.11144
11
322.8649929999999699
21
-3.1869299999999998
0
LINE
8
BLACK
6
CONTINUOUS
10
322.8649929999999699
20
-3.1869299999999998
11
323.1541659999999752
21
-3.2249999999999996
0
LINE
8
BLACK
6
CONTINUOUS
10
323.1541659999999752
20
-3.2249999999999996
11
323.4458339999999907
21
-3.2249999999999996
0
LINE
8
BLACK
6
CONTINUOUS
10
323.4458339999999907
20
-3.2249999999999996
11
323.735006999999996
21
-3.1869299999999998
0
LINE
8
BLACK
6
CONTINUOUS
10
323.735006999999996
20
-3.1869299999999998
11
324.0167369999999778
21
-3.11144
0
LINE
8
BLACK
6
CONTINUOUS
10
324.0167369999999778
20
-3.11144
11
324.2862039999999979
21
-2.9998239999999998
0
LINE
8
BLACK
6
CONTINUOUS
10
324.2862039999999979
20
-2.9998239999999998
11
324.5387959999999907
21
-2.8539889999999999
0
LINE
8
BLACK
6
CONTINUOUS
10
324.5387959999999907
20
-2.8539889999999999
11
324.7701920000000086
21
-2.6764329999999998
0
LINE
8
BLACK
6
CONTINUOUS
10
324.7701920000000086
20
-2.6764329999999998
11
324.9764329999999859
21
-2.4701919999999999
0
LINE
8
BLACK
6
CONTINUOUS
10
324.9764329999999859
20
-2.4701919999999999
11
325.1539889999999673
21
-2.2387959999999998
0
LINE
8
BLACK
6
CONTINUOUS
10
325.1539889999999673
20
-2.2387959999999998
11
325.299824000000001
21
-1.9862039999999999
0
LINE
8
BLACK
6
CONTINUOUS
10
325.299824000000001
20
-1.9862039999999999
11
325.4114399999999705
21
-1.716737
0
LINE
8
BLACK
6
CONTINUOUS
10
325.4114399999999705
20
-1.716737
11
325.4869299999999726
21
-1.4350069999999999
0
LINE
8
BLACK
6
CONTINUOUS
10
325.4869299999999726
20
-1.4350069999999999
11
325.5249999999999773
21
-1.145834
0
LINE
8
BLACK
6
CONTINUOUS
10
325.5249999999999773
20
-1.145834
11
325.5249999999999773
21
-1.
0
LINE
8
BLACK
6
CONTINUOUS
10
325.5249999999999773
20
-1.
11
325.5405719999999974
21
-0.8220109999999999
0
LINE
8
BLACK
6
CONTINUOUS
10
325.5405719999999974
20
-0.8220109999999999
11
325.5868150000000014
21
-0.6494289999999999
0
LINE
8
BLACK
6
CONTINUOUS
10
325.5868150000000014
20
-0.6494289999999999
11
325.6623240000000123
21
-0.4875
0
LINE
8
BLACK
6
CONTINUOUS
10
325.6623240000000123
20
-0.4875
11
325.7648039999999696
21
-0.341143
0
LINE
8
BLACK
6
CONTINUOUS
10
325.7648039999999696
20
-0.341143
11
325.8911429999999996
21
-0.214804
0
LINE
8
BLACK
6
CONTINUOUS
10
325.8911429999999996
20
-0.214804
11
326.0374999999999659
21
-0.112324
0
LINE
8
BLACK
6
CONTINUOUS
10
326.0374999999999659
20
-0.112324
11
326.1994290000000092
21
-0.036815
0
LINE
8
BLACK
6
CONTINUOUS
10
326.1994290000000092
20
-0.036815
11
326.3720109999999863
21
0.009428
0
LINE
8
BLACK
6
CONTINUOUS
10
326.3720109999999863
20
0.009428
11
326.5500000000000114
21
0.025
0
LINE
8
BLACK
6
CONTINUOUS
10
326.5500000000000114
20
0.025
11
339.7749999999999773
21
0.025
0
LINE
8
BLACK
6
CONTINUOUS
10
339.7749999999999773
20
0.025
11
340.0393159999999853
21
0.007676
0
LINE
8
BLACK
6
CONTINUOUS
10
340.0393159999999853
20
0.007676
11
340.2991089999999872
21
-0.044
0
LINE
8
BLACK
6
CONTINUOUS
10
340.2991089999999872
20
-0.044
11
340.5499340000000075
21
-0.129144
0
LINE
8
BLACK
6
CONTINUOUS
10
340.5499340000000075
20
-0.129144
11
340.7874999999999659
21
-0.246299
0
LINE
8
BLACK
6
CONTINUOUS
10
340.7874999999999659
20
-0.246299
11
341.0077420000000075
21
-0.393459
0
LINE
8
BLACK
6
CONTINUOUS
10
341.0077420000000075
20
-0.393459
11
341.2068909999999846
21
-0.568109
0
LINE
8
BLACK
6
CONTINUOUS
10
341.2068909999999846
20
-0.568109
11
341.3815409999999702
21
-0.767258
0
LINE
8
BLACK
6
CONTINUOUS
10
341.3815409999999702
20
-0.767258
11
341.5287010000000123
21
-0.9874999999999999
0
LINE
8
BLACK
6
CONTINUOUS
10
341.5287010000000123
20
-0.9874999999999999
11
341.6458559999999807
21
-1.225066
0
LINE
8
BLACK
6
CONTINUOUS
10
341.6458559999999807
20
-1.225066
11
341.7309999999999945
21
-1.4758909999999998
0
LINE
8
BLACK
6
CONTINUOUS
10
341.7309999999999945
20
-1.4758909999999998
11
341.7826759999999808
21
-1.735684
0
LINE
8
BLACK
6
CONTINUOUS
10
341.7826759999999808
20
-1.735684
11
341.8000000000000114
21
-2.
0
LINE
8
BLACK
6
CONTINUOUS
10
341.8000000000000114
20
-2.
11
341.8000000000000114
21
-96.75
0
LINE
8
BLACK
6
CONTINUOUS
10
341.8000000000000114
20
-96.75
11
341.7826759999999808
21
-97.0143159999999938
0
LINE
8
BLACK
6
CONTINUOUS
10
341.7826759999999808
20
-97.0143159999999938
11
341.7309999999999945
21
-97.2741089999999957
0
LINE
8
BLACK
6
CONTINUOUS
10
341.7309999999999945
20
-97.2741089999999957
11
341.6458559999999807
21
-97.5249340000000018
0
LINE
8
BLACK
6
CONTINUOUS
10
341.6458559999999807
20
-97.5249340000000018
11
341.5287010000000123
21
-97.7624999999999886
0
LINE
8
BLACK
6
CONTINUOUS
10
341.5287010000000123
20
-97.7624999999999886
11
341.3815409999999702
21
-97.9827420000000018
0
LINE
8
BLACK
6
CONTINUOUS
10
341.3815409999999702
20
-97.9827420000000018
11
341.2068909999999846
21
-98.1818909999999931
0
LINE
8
BLACK
6
CONTINUOUS
10
341.2068909999999846
20
-98.1818909999999931
11
341.0077420000000075
21
-98.3565409999999929
0
LINE
8
BLACK
6
CONTINUOUS
10
341.0077420000000075
20
-98.3565409999999929
11
340.7874999999999659
21
-98.5037009999999924
0
LINE
8
BLACK
6
CONTINUOUS
10
340.7874999999999659
20
-98.5037009999999924
11
340.5499340000000075
21
-98.6208559999999892
0
LINE
8
BLACK
6
CONTINUOUS
10
340.5499340000000075
20
-98.6208559999999892
11
340.2991089999999872
21
-98.7059999999999889
0
LINE
8
BLACK
6
CONTINUOUS
10
340.2991089999999872
20
-98.7059999999999889
11
340.0393159999999853
21
-98.7576759999999894
0
LINE
8
BLACK
6
CONTINUOUS
10
340.0393159999999853
20
-98.7576759999999894
11
339.7749999999999773
21
-98.7749999999999915
0
LINE
8
BLACK
6
CONTINUOUS
10
339.7749999999999773
20
-98.7749999999999915
11
250.3499999999999943
21
-98.7749999999999915
0
LINE
8
BLACK
6
CONTINUOUS
10
250.3499999999999943
20
-98.7749999999999915
11
250.1720109999999977
21
-98.7594279999999998
0
LINE
8
BLACK
6
CONTINUOUS
10
250.1720109999999977
20
-98.7594279999999998
11
249.9994289999999921
21
-98.7131849999999957
0
LINE
8
BLACK
6
CONTINUOUS
10
249.9994289999999921
20
-98.7131849999999957
11
249.8374999999999773
21
-98.637675999999999
0
LINE
8
BLACK
6
CONTINUOUS
10
249.8374999999999773
20
-98.637675999999999
11
249.6911429999999825
21
-98.5351959999999991
0
LINE
8
BLACK
6
CONTINUOUS
10
249.6911429999999825
20
-98.5351959999999991
11
249.564803999999981
21
-98.4088569999999976
0
LINE
8
BLACK
6
CONTINUOUS
10
249.564803999999981
20
-98.4088569999999976
11
249.4623239999999953
21
-98.2624999999999886
0
LINE
8
BLACK
6
CONTINUOUS
10
249.4623239999999953
20
-98.2624999999999886
11
249.3868149999999844
21
-98.1005710000000022
0
LINE
8
BLACK
6
CONTINUOUS
10
249.3868149999999844
20
-98.1005710000000022
11
249.3405719999999803
21
-97.9279889999999966
0
LINE
8
BLACK
6
CONTINUOUS
10
249.3405719999999803
20
-97.9279889999999966
11
249.3249999999999886
21
-97.75
0
LINE
8
BLACK
6
CONTINUOUS
10
249.3249999999999886
20
-97.75
11
249.3249999999999886
21
-97.6041659999999922
0
LINE
8
BLACK
6
CONTINUOUS
10
249.3249999999999886
20
-97.6041659999999922
11
249.2869299999999839
21
-97.3149930000000012
0
LINE
8
BLACK
6
CONTINUOUS
10
249.2869299999999839
20
-97.3149930000000012
11
249.2114399999999819
21
-97.0332629999999909
0
LINE
8
BLACK
6
CONTINUOUS
10
249.2114399999999819
20
-97.0332629999999909
11
249.0998239999999839
21
-96.7637959999999993
0
LINE
8
BLACK
6
CONTINUOUS
10
249.0998239999999839
20
-96.7637959999999993
11
248.9539889999999787
21
-96.5112039999999922
0
LINE
8
BLACK
6
CONTINUOUS
10
248.9539889999999787
20
-96.5112039999999922
11
248.7764329999999973
21
-96.2798080000000027
0
LINE
8
BLACK
6
CONTINUOUS
10
248.7764329999999973
20
-96.2798080000000027
11
248.5701919999999916
21
-96.0735669999999971
0
LINE
8
BLACK
6
CONTINUOUS
10
248.5701919999999916
20
-96.0735669999999971
11
248.3387960000000021
21
-95.8960110000000014
0
LINE
8
BLACK
6
CONTINUOUS
10
248.3387960000000021
20
-95.8960110000000014
11
248.0862039999999809
21
-95.7501759999999962
0
LINE
8
BLACK
6
CONTINUOUS
10
248.0862039999999809
20
-95.7501759999999962
11
247.8167369999999892
21
-95.6385599999999982
0
LINE
8
BLACK
6
CONTINUOUS
10
247.8167369999999892
20
-95.6385599999999982
11
247.5350069999999789
21
-95.5630699999999962
0
LINE
8
BLACK
6
CONTINUOUS
10
247.5350069999999789
20
-95.5630699999999962
11
247.2458340000000021
21
-95.5249999999999915
0
LINE
8
BLACK
6
CONTINUOUS
10
247.2458340000000021
20
-95.5249999999999915
11
246.9541659999999865
21
-95.5249999999999915
0
LINE
8
BLACK
6
CONTINUOUS
10
246.9541659999999865
20
-95.5249999999999915
11
246.6649929999999813
21
-95.5630699999999962
0
LINE
8
BLACK
6
CONTINUOUS
10
246.6649929999999813
20
-95.5630699999999962
11
246.3832629999999995
21
-95.6385599999999982
0
LINE
8
BLACK
6
CONTINUOUS
10
246.3832629999999995
20
-95.6385599999999982
11
246.1137959999999794
21
-95.7501759999999962
0
LINE
8
BLACK
6
CONTINUOUS
10
246.1137959999999794
20
-95.7501759999999962
11
245.8612039999999865
21
-95.8960110000000014
0
LINE
8
BLACK
6
CONTINUOUS
10
245.8612039999999865
20
-95.8960110000000014
11
245.629807999999997
21
-96.0735669999999971
0
LINE
8
BLACK
6
CONTINUOUS
10
245.629807999999997
20
-96.0735669999999971
11
245.4235669999999914
21
-96.2798080000000027
0
LINE
8
BLACK
6
CONTINUOUS
10
245.4235669999999914
20
-96.2798080000000027
11
245.2460109999999815
21
-96.5112039999999922
0
LINE
8
BLACK
6
CONTINUOUS
10
245.2460109999999815
20
-96.5112039999999922
11
245.1001759999999763
21
-96.7637959999999993
0
LINE
8
BLACK
6
CONTINUOUS
10
245.1001759999999763
20
-96.7637959999999993
11
244.9885599999999783
21
-97.0332629999999909
0
LINE
8
BLACK
6
CONTINUOUS
10
244.9885599999999783
20
-97.0332629999999909
11
244.9130699999999763
21
-97.3149930000000012
0
LINE
8
BLACK
6
CONTINUOUS
10
244.9130699999999763
20
-97.3149930000000012
11
244.875
21
-97.6041659999999922
0
LINE
8
BLACK
6
CONTINUOUS
10
244.875
20
-97.6041659999999922
11
244.875
21
-97.75
0
LINE
8
BLACK
6
CONTINUOUS
10
244.875
20
-97.75
11
244.8594279999999799
21
-97.9279889999999966
0
LINE
8
BLACK
6
CONTINUOUS
10
244.8594279999999799
20
-97.9279889999999966
11
244.8131849999999758
21
-98.1005710000000022
0
LINE
8
BLACK
6
CONTINUOUS
10
244.8131849999999758
20
-98.1005710000000022
11
244.7376759999999933
21
-98.2624999999999886
0
LINE
8
BLACK
6
CONTINUOUS
10
244.7376759999999933
20
-98.2624999999999886
11
244.6351959999999792
21
-98.4088569999999976
0
LINE
8
BLACK
6
CONTINUOUS
10
244.6351959999999792
20
-98.4088569999999976
11
244.5088569999999777
21
-98.5351959999999991
0
LINE
8
BLACK
6
CONTINUOUS
10
244.5088569999999777
20
-98.5351959999999991
11
244.3624999999999829
21
-98.637675999999999
0
LINE
8
BLACK
6
CONTINUOUS
10
244.3624999999999829
20
-98.637675999999999
11
244.2005709999999965
21
-98.7131849999999957
0
LINE
8
BLACK
6
CONTINUOUS
10
244.2005709999999965
20
-98.7131849999999957
11
244.0279889999999909
21
-98.7594279999999998
0
LINE
8
BLACK
6
CONTINUOUS
10
244.0279889999999909
20
-98.7594279999999998
11
243.8499999999999943
21
-98.7749999999999915
0
LINE
8
BLACK
6
CONTINUOUS
10
243.8499999999999943
20
-98.7749999999999915
11
78.8999999999999915
21
-98.7749999999999915
0
LINE
8
BLACK
6
CONTINUOUS
10
78.8999999999999915
20
-98.7749999999999915
11
78.7220109999999949
21
-98.7594279999999998
0
LINE
8
BLACK
6
CONTINUOUS
10
78.7220109999999949
20
-98.7594279999999998
11
78.5494290000000035
21
-98.7131849999999957
0
LINE
8
BLACK
6
CONTINUOUS
10
78.5494290000000035
20
-98.7131849999999957
11
78.3875000000000028
21
-98.637675999999999
0
LINE
8
BLACK
6
CONTINUOUS
10
78.3875000000000028
20
-98.637675999999999
11
78.2411429999999939
21
-98.5351959999999991
0
LINE
8
BLACK
6
CONTINUOUS
10
78.2411429999999939
20
-98.5351959999999991
11
78.1148039999999924
21
-98.4088569999999976
0
LINE
8
BLACK
6
CONTINUOUS
10
78.1148039999999924
20
-98.4088569999999976
11
78.0123239999999925
21
-98.2624999999999886
0
LINE
8
BLACK
6
CONTINUOUS
10
78.0123239999999925
20
-98.2624999999999886
11
77.9368149999999957
21
-98.1005710000000022
0
LINE
8
BLACK
6
CONTINUOUS
10
77.9368149999999957
20
-98.1005710000000022
11
77.8905719999999917
21
-97.9279889999999966
0
LINE
8
BLACK
6
CONTINUOUS
10
77.8905719999999917
20
-97.9279889999999966
11
77.875
21
-97.75
0
LINE
8
BLACK
6
CONTINUOUS
10
77.875
20
-97.75
11
77.875
21
-97.6041659999999922
0
LINE
8
BLACK
6
CONTINUOUS
10
77.875
20
-97.6041659999999922
11
77.8369299999999953
21
-97.3149930000000012
0
LINE
8
BLACK
6
CONTINUOUS
10
77.8369299999999953
20
-97.3149930000000012
11
77.7614399999999932
21
-97.0332629999999909
0
LINE
8
BLACK
6
CONTINUOUS
10
77.7614399999999932
20
-97.0332629999999909
11
77.6498239999999953
21
-96.7637959999999993
0
LINE
8
BLACK
6
CONTINUOUS
10
77.6498239999999953
20
-96.7637959999999993
11
77.50398899999999
21
-96.5112039999999922
0
LINE
8
BLACK
6
CONTINUOUS
10
77.50398899999999
20
-96.5112039999999922
11
77.3264329999999944
21
-96.2798080000000027
0
LINE
8
BLACK
6
CONTINUOUS
10
77.3264329999999944
20
-96.2798080000000027
11
77.120192000000003
21
-96.0735669999999971
0
LINE
8
BLACK
6
CONTINUOUS
10
77.120192000000003
20
-96.0735669999999971
11
76.8887959999999993
21
-95.8960110000000014
0
LINE
8
BLACK
6
CONTINUOUS
10
76.8887959999999993
20
-95.8960110000000014
11
76.6362039999999922
21
-95.7501759999999962
0
LINE
8
BLACK
6
CONTINUOUS
10
76.6362039999999922
20
-95.7501759999999962
11
76.3667370000000005
21
-95.6385599999999982
0
LINE
8
BLACK
6
CONTINUOUS
10
76.3667370000000005
20
-95.6385599999999982
11
76.0850069999999903
21
-95.5630699999999962
0
LINE
8
BLACK
6
CONTINUOUS
10
76.0850069999999903
20
-95.5630699999999962
11
75.7958339999999993
21
-95.5249999999999915
0
LINE
8
BLACK
6
CONTINUOUS
10
75.7958339999999993
20
-95.5249999999999915
11
75.5041659999999979
21
-95.5249999999999915
0
LINE
8
BLACK
6
CONTINUOUS
10
75.5041659999999979
20
-95.5249999999999915
11
75.2149929999999927
21
-95.5630699999999962
0
LINE
8
BLACK
6
CONTINUOUS
10
75.2149929999999927
20
-95.5630699999999962
11
74.9332629999999966
21
-95.6385599999999982
0
LINE
8
BLACK
6
CONTINUOUS
10
74.9332629999999966
20
-95.6385599999999982
11
74.6637959999999907
21
-95.7501759999999962
0
LINE
8
BLACK
6
CONTINUOUS
10
74.6637959999999907
20
-95.7501759999999962
11
74.4112039999999979
21
-95.8960110000000014
0
LINE
8
BLACK
6
CONTINUOUS
10
74.4112039999999979
20
-95.8960110000000014
11
74.1798079999999942
21
-96.0735669999999971
0
LINE
8
BLACK
6
CONTINUOUS
10
74.1798079999999942
20
-96.0735669999999971
11
73.9735670000000027
21
-96.2798080000000027
0
LINE
8
BLACK
6
CONTINUOUS
10
73.9735670000000027
20
-96.2798080000000027
11
73.7960109999999929
21
-96.5112039999999922
0
LINE
8
BLACK
6
CONTINUOUS
10
73.7960109999999929
20
-96.5112039999999922
11
73.6501760000000019
21
-96.7637959999999993
0
LINE
8
BLACK
6
CONTINUOUS
10
73.6501760000000019
20
-96.7637959999999993
11
73.5385599999999897
21
-97.0332629999999909
0
LINE
8
BLACK
6
CONTINUOUS
10
73.5385599999999897
20
-97.0332629999999909
11
73.4630700000000019
21
-97.3149930000000012
0
LINE
8
BLACK
6
CONTINUOUS
10
73.4630700000000019
20
-97.3149930000000012
11
73.4249999999999972
21
-97.6041659999999922
0
LINE
8
BLACK
6
CONTINUOUS
10
73.4249999999999972
20
-97.6041659999999922
11
73.4249999999999972
21
-97.75
0
LINE
8
BLACK
6
CONTINUOUS
10
73.4249999999999972
20
-97.75
11
73.4094279999999912
21
-97.9279889999999966
0
LINE
8
BLACK
6
CONTINUOUS
10
73.4094279999999912
20
-97.9279889999999966
11
73.3631850000000014
21
-98.1005710000000022
0
LINE
8
BLACK
6
CONTINUOUS
10
73.3631850000000014
20
-98.1005710000000022
11
73.2876759999999905
21
-98.2624999999999886
0
LINE
8
BLACK
6
CONTINUOUS
10
73.2876759999999905
20
-98.2624999999999886
11
73.1851959999999906
21
-98.4088569999999976
0
LINE
8
BLACK
6
CONTINUOUS
10
73.1851959999999906
20
-98.4088569999999976
11
73.0588570000000033
21
-98.5351959999999991
0
LINE
8
BLACK
6
CONTINUOUS
10
73.0588570000000033
20
-98.5351959999999991
11
72.9124999999999943
21
-98.637675999999999
0
LINE
8
BLACK
6
CONTINUOUS
10
72.9124999999999943
20
-98.637675999999999
11
72.7505709999999937
21
-98.7131849999999957
0
LINE
8
BLACK
6
CONTINUOUS
10
72.7505709999999937
20
-98.7131849999999957
11
72.5779890000000023
21
-98.7594279999999998
0
LINE
8
BLACK
6
CONTINUOUS
10
72.5779890000000023
20
-98.7594279999999998
11
72.3999999999999915
21
-98.7749999999999915
0
LINE
8
BLACK
6
CONTINUOUS
10
72.3999999999999915
20
-98.7749999999999915
11
2.0249999999999999
21
-98.7749999999999915
0
LINE
8
BLACK
6
CONTINUOUS
10
2.0249999999999999
20
-98.7749999999999915
11
1.7606839999999999
21
-98.7576759999999894
0
LINE
8
BLACK
6
CONTINUOUS
10
1.7606839999999999
20
-98.7576759999999894
11
1.500891
21
-98.7059999999999889
0
LINE
8
BLACK
6
CONTINUOUS
10
1.500891
20
-98.7059999999999889
11
1.2500659999999999
21
-98.6208559999999892
0
LINE
8
BLACK
6
CONTINUOUS
10
1.2500659999999999
20
-98.6208559999999892
11
1.0125
21
-98.5037009999999924
0
LINE
8
BLACK
6
CONTINUOUS
10
1.0125
20
-98.5037009999999924
11
0.792258
21
-98.3565409999999929
0
LINE
8
BLACK
6
CONTINUOUS
10
0.792258
20
-98.3565409999999929
11
0.593109
21
-98.1818909999999931
0
LINE
8
BLACK
6
CONTINUOUS
10
0.593109
20
-98.1818909999999931
11
0.418459
21
-97.9827420000000018
0
LINE
8
BLACK
6
CONTINUOUS
10
0.418459
20
-97.9827420000000018
11
0.271299
21
-97.7624999999999886
0
LINE
8
BLACK
6
CONTINUOUS
10
0.271299
20
-97.7624999999999886
11
0.154144
21
-97.5249340000000018
0
LINE
8
BLACK
6
CONTINUOUS
10
0.154144
20
-97.5249340000000018
11
0.069
21
-97.2741089999999957
0
LINE
8
BLACK
6
CONTINUOUS
10
0.069
20
-97.2741089999999957
11
0.017324
21
-97.0143159999999938
0
LINE
8
BLACK
6
CONTINUOUS
10
0.017324
20
-97.0143159999999938
11
0.
21
-96.75
0
LINE
8
BLACK
6
CONTINUOUS
10
0.
20
-96.75
11
0.
21
-2.
0
LINE
8
BLACK
6
CONTINUOUS
10
0.
20
-2.
11
0.017324
21
-1.735684
0
LINE
8
BLACK
6
CONTINUOUS
10
0.017324
20
-1.735684
11
0.069
21
-1.4758909999999998
0
LINE
8
BLACK
6
CONTINUOUS
10
0.069
20
-1.4758909999999998
11
0.154144
21
-1.225066
0
LINE
8
BLACK
6
CONTINUOUS
10
0.154144
20
-1.225066
11
0.271298
21
-0.9874999999999999
0
LINE
8
BLACK
6
CONTINUOUS
10
0.271298
20
-0.9874999999999999
11
0.418459
21
-0.767258
0
LINE
8
BLACK
6
CONTINUOUS
10
0.418459
20
-0.767258
11
0.593108
21
-0.5681079999999999
0
LINE
8
BLACK
6
CONTINUOUS
10
0.593108
20
-0.5681079999999999
11
0.792258
21
-0.393459
0
LINE
8
BLACK
6
CONTINUOUS
10
0.792258
20
-0.393459
11
1.0125
21
-0.246298
0
LINE
8
BLACK
6
CONTINUOUS
10
1.0125
20
-0.246298
11
1.2500659999999999
21
-0.129144
0
LINE
8
BLACK
6
CONTINUOUS
10
1.2500659999999999
20
-0.129144
11
1.500891
21
-0.044
0
LINE
8
BLACK
6
CONTINUOUS
10
1.500891
20
-0.044
11
1.7606839999999999
21
0.007676
0
LINE
8
BLACK
6
CONTINUOUS
10
1.7606839999999999
20
0.007676
11
2.0249999999999999
21
0.025
0
LINE
8
BLACK
6
CONTINUOUS
10
2.0249999999999999
20
0.025
11
15.25
21
0.025
0
LINE
8
BLACK
6
CONTINUOUS
10
2.0249999999999999
20
-0.025
11
1.8955519999999999
21
-0.025
0
LINE
8
BLACK
6
CONTINUOUS
10
1.8955519999999999
20
-0.025
11
1.6388699999999998
21
-0.058792
0
LINE
8
BLACK
6
CONTINUOUS
10
1.6388699999999998
20
-0.058792
11
1.388795
21
-0.1258
0
LINE
8
BLACK
6
CONTINUOUS
10
1.388795
20
-0.1258
11
1.149605
21
-0.224875
0
LINE
8
BLACK
6
CONTINUOUS
10
1.149605
20
-0.224875
11
0.9253939999999999
21
-0.354323
0
LINE
8
BLACK
6
CONTINUOUS
10
0.9253939999999999
20
-0.354323
11
0.719997
21
-0.51193
0
LINE
8
BLACK
6
CONTINUOUS
10
0.719997
20
-0.51193
11
0.53693
21
-0.694997
0
LINE
8
BLACK
6
CONTINUOUS
10
0.53693
20
-0.694997
11
0.379323
21
-0.9003939999999999
0
LINE
8
BLACK
6
CONTINUOUS
10
0.379323
20
-0.9003939999999999
11
0.249875
21
-1.1246049999999999
0
LINE
8
BLACK
6
CONTINUOUS
10
0.249875
20
-1.1246049999999999
11
0.1508
21
-1.3637949999999999
0
LINE
8
BLACK
6
CONTINUOUS
10
0.1508
20
-1.3637949999999999
11
0.083792
21
-1.6138699999999999
0
LINE
8
BLACK
6
CONTINUOUS
10
0.083792
20
-1.6138699999999999
11
0.05
21
-1.870552
0
LINE
8
BLACK
6
CONTINUOUS
10
0.05
20
-1.870552
11
0.05
21
-2.
0
LINE
8
BLACK
6
CONTINUOUS
10
0.05
20
-2.
11
0.05
21
-96.75
0
LINE
8
BLACK
6
CONTINUOUS
10
0.05
20
-96.75
11
0.05
21
-96.8794479999999965
0
LINE
8
BLACK
6
CONTINUOUS
10
0.05
20
-96.8794479999999965
11
0.083793
21
-97.1361299999999943
0
LINE
8
BLACK
6
CONTINUOUS
10
0.083793
20
-97.1361299999999943
11
0.1508
21
-97.3862049999999897
0
LINE
8
BLACK
6
CONTINUOUS
10
0.1508
20
-97.3862049999999897
11
0.249875
21
-97.6253949999999975
0
LINE
8
BLACK
6
CONTINUOUS
10
0.249875
20
-97.6253949999999975
11
0.379324
21
-97.8496059999999943
0
LINE
8
BLACK
6
CONTINUOUS
10
0.379324
20
-97.8496059999999943
11
0.53693
21
-98.0550020000000018
0
LINE
8
BLACK
6
CONTINUOUS
10
0.53693
20
-98.0550020000000018
11
0.7199979999999999
21
-98.2380699999999933
0
LINE
8
BLACK
6
CONTINUOUS
10
0.7199979999999999
20
-98.2380699999999933
11
0.9253939999999999
21
-98.3956759999999946
0
LINE
8
BLACK
6
CONTINUOUS
10
0.9253939999999999
20
-98.3956759999999946
11
1.149605
21
-98.5251249999999885
0
LINE
8
BLACK
6
CONTINUOUS
10
1.149605
20
-98.5251249999999885
11
1.388795
21
-98.6242000000000019
0
LINE
8
BLACK
6
CONTINUOUS
10
1.388795
20
-98.6242000000000019
11
1.6388699999999998
21
-98.6912069999999915
0
LINE
8
BLACK
6
CONTINUOUS
10
1.6388699999999998
20
-98.6912069999999915
11
1.8955519999999999
21
-98.7249999999999943
0
LINE
8
BLACK
6
CONTINUOUS
10
1.8955519999999999
20
-98.7249999999999943
11
2.0249999999999999
21
-98.7249999999999943
0
LINE
8
BLACK
6
CONTINUOUS
10
2.0249999999999999
20
-98.7249999999999943
11
72.3999999999999915
21
-98.7249999999999943
0
LINE
8
BLACK
6
CONTINUOUS
10
72.3999999999999915
20
-98.7249999999999943
11
72.4853009999999927
21
-98.7249999999999943
0
LINE
8
BLACK
6
CONTINUOUS
10
72.4853009999999927
20
-98.7249999999999943
11
72.6533119999999997
21
-98.6953749999999985
0
LINE
8
BLACK
6
CONTINUOUS
10
72.6533119999999997
20
-98.6953749999999985
11
72.8136269999999968
21
-98.6370249999999942
0
LINE
8
BLACK
6
CONTINUOUS
10
72.8136269999999968
20
-98.6370249999999942
11
72.9613729999999947
21
-98.551723999999993
0
LINE
8
BLACK
6
CONTINUOUS
10
72.9613729999999947
20
-98.551723999999993
11
73.0920619999999985
21
-98.4420619999999928
0
LINE
8
BLACK
6
CONTINUOUS
10
73.0920619999999985
20
-98.4420619999999928
11
73.2017239999999987
21
-98.311372999999989
0
LINE
8
BLACK
6
CONTINUOUS
10
73.2017239999999987
20
-98.311372999999989
11
73.2870249999999999
21
-98.1636269999999911
0
LINE
8
BLACK
6
CONTINUOUS
10
73.2870249999999999
20
-98.1636269999999911
11
73.34537499999999
21
-98.003311999999994
0
LINE
8
BLACK
6
CONTINUOUS
10
73.34537499999999
20
-98.003311999999994
11
73.375
21
-97.8353010000000012
0
LINE
8
BLACK
6
CONTINUOUS
10
73.375
20
-97.8353010000000012
11
73.375
21
-97.75
0
LINE
8
BLACK
6
CONTINUOUS
10
73.375
20
-97.75
11
73.3929389999999984
21
-97.4648669999999981
0
LINE
8
BLACK
6
CONTINUOUS
10
73.3929389999999984
20
-97.4648669999999981
11
73.4464729999999975
21
-97.1842309999999969
0
LINE
8
BLACK
6
CONTINUOUS
10
73.4464729999999975
20
-97.1842309999999969
11
73.5347579999999965
21
-96.912516999999994
0
LINE
8
BLACK
6
CONTINUOUS
10
73.5347579999999965
20
-96.912516999999994
11
73.6564019999999999
21
-96.6540099999999995
0
LINE
8
BLACK
6
CONTINUOUS
10
73.6564019999999999
20
-96.6540099999999995
11
73.8094859999999926
21
-96.4127889999999894
0
LINE
8
BLACK
6
CONTINUOUS
10
73.8094859999999926
20
-96.4127889999999894
11
73.9915960000000013
21
-96.192655000000002
0
LINE
8
BLACK
6
CONTINUOUS
10
73.9915960000000013
20
-96.192655000000002
11
74.199860000000001
21
-95.9970819999999918
0
LINE
8
BLACK
6
CONTINUOUS
10
74.199860000000001
20
-95.9970819999999918
11
74.4309939999999983
21
-95.8291540000000026
0
LINE
8
BLACK
6
CONTINUOUS
10
74.4309939999999983
20
-95.8291540000000026
11
74.6813519999999897
21
-95.6915180000000021
0
LINE
8
BLACK
6
CONTINUOUS
10
74.6813519999999897
20
-95.6915180000000021
11
74.9469859999999954
21
-95.5863459999999918
0
LINE
8
BLACK
6
CONTINUOUS
10
74.9469859999999954
20
-95.5863459999999918
11
75.223708000000002
21
-95.5152969999999897
0
LINE
8
BLACK
6
CONTINUOUS
10
75.223708000000002
20
-95.5152969999999897
11
75.5071519999999907
21
-95.4794890000000009
0
LINE
8
BLACK
6
CONTINUOUS
10
75.5071519999999907
20
-95.4794890000000009
11
75.7928479999999922
21
-95.4794890000000009
0
LINE
8
BLACK
6
CONTINUOUS
10
75.7928479999999922
20
-95.4794890000000009
11
76.0762919999999951
21
-95.5152969999999897
0
LINE
8
BLACK
6
CONTINUOUS
10
76.0762919999999951
20
-95.5152969999999897
11
76.3530140000000017
21
-95.5863459999999918
0
LINE
8
BLACK
6
CONTINUOUS
10
76.3530140000000017
20
-95.5863459999999918
11
76.6186479999999932
21
-95.6915180000000021
0
LINE
8
BLACK
6
CONTINUOUS
10
76.6186479999999932
20
-95.6915180000000021
11
76.8690059999999988
21
-95.8291540000000026
0
LINE
8
BLACK
6
CONTINUOUS
10
76.8690059999999988
20
-95.8291540000000026
11
77.1001399999999961
21
-95.9970819999999918
0
LINE
8
BLACK
6
CONTINUOUS
10
77.1001399999999961
20
-95.9970819999999918
11
77.3084039999999959
21
-96.192655000000002
0
LINE
8
BLACK
6
CONTINUOUS
10
77.3084039999999959
20
-96.192655000000002
11
77.4905139999999903
21
-96.4127889999999894
0
LINE
8
BLACK
6
CONTINUOUS
10
77.4905139999999903
20
-96.4127889999999894
11
77.6435979999999972
21
-96.6540099999999995
0
LINE
8
BLACK
6
CONTINUOUS
10
77.6435979999999972
20
-96.6540099999999995
11
77.7652420000000006
21
-96.912516999999994
0
LINE
8
BLACK
6
CONTINUOUS
10
77.7652420000000006
20
-96.912516999999994
11
77.8535269999999997
21
-97.1842309999999969
0
LINE
8
BLACK
6
CONTINUOUS
10
77.8535269999999997
20
-97.1842309999999969
11
77.9070609999999988
21
-97.4648669999999981
0
LINE
8
BLACK
6
CONTINUOUS
10
77.9070609999999988
20
-97.4648669999999981
11
77.9249999999999972
21
-97.75
0
LINE
8
BLACK
6
CONTINUOUS
10
77.9249999999999972
20
-97.75
11
77.9249999999999972
21
-97.8353010000000012
0
LINE
8
BLACK
6
CONTINUOUS
10
77.9249999999999972
20
-97.8353010000000012
11
77.954624999999993
21
-98.003311999999994
0
LINE
8
BLACK
6
CONTINUOUS
10
77.954624999999993
20
-98.003311999999994
11
78.0129749999999973
21
-98.1636269999999911
0
LINE
8
BLACK
6
CONTINUOUS
10
78.0129749999999973
20
-98.1636269999999911
11
78.0982759999999985
21
-98.311372999999989
0
LINE
8
BLACK
6
CONTINUOUS
10
78.0982759999999985
20
-98.311372999999989
11
78.2079379999999986
21
-98.4420619999999928
0
LINE
8
BLACK
6
CONTINUOUS
10
78.2079379999999986
20
-98.4420619999999928
11
78.3386270000000025
21
-98.551723999999993
0
LINE
8
BLACK
6
CONTINUOUS
10
78.3386270000000025
20
-98.551723999999993
11
78.4863730000000004
21
-98.6370249999999942
0
LINE
8
BLACK
6
CONTINUOUS
10
78.4863730000000004
20
-98.6370249999999942
11
78.6466879999999975
21
-98.6953749999999985
0
LINE
8
BLACK
6
CONTINUOUS
10
78.6466879999999975
20
-98.6953749999999985
11
78.8146989999999903
21
-98.7249999999999943
0
LINE
8
BLACK
6
CONTINUOUS
10
78.8146989999999903
20
-98.7249999999999943
11
78.8999999999999915
21
-98.7249999999999943
0
LINE
8
BLACK
6
CONTINUOUS
10
78.8999999999999915
20
-98.7249999999999943
11
243.8499999999999943
21
-98.7249999999999943
0
LINE
8
BLACK
6
CONTINUOUS
10
243.8499999999999943
20
-98.7249999999999943
11
243.9353009999999813
21
-98.7249999999999943
0
LINE
8
BLACK
6
CONTINUOUS
10
243.9353009999999813
20
-98.7249999999999943
11
244.1033119999999883
21
-98.6953749999999985
0
LINE
8
BLACK
6
CONTINUOUS
10
244.1033119999999883
20
-98.6953749999999985
11
244.2636269999999854
21
-98.6370249999999942
0
LINE
8
BLACK
6
CONTINUOUS
10
244.2636269999999854
20
-98.6370249999999942
11
244.4113729999999975
21
-98.551723999999993
0
LINE
8
BLACK
6
CONTINUOUS
10
244.4113729999999975
20
-98.551723999999993
11
244.5420619999999872
21
-98.4420619999999928
0
LINE
8
BLACK
6
CONTINUOUS
10
244.5420619999999872
20
-98.4420619999999928
11
244.6517240000000015
21
-98.311372999999989
0
LINE
8
BLACK
6
CONTINUOUS
10
244.6517240000000015
20
-98.311372999999989
11
244.7370249999999885
21
-98.1636269999999911
0
LINE
8
BLACK
6
CONTINUOUS
10
244.7370249999999885
20
-98.1636269999999911
11
244.7953749999999786
21
-98.003311999999994
0
LINE
8
BLACK
6
CONTINUOUS
10
244.7953749999999786
20
-98.003311999999994
11
244.8249999999999886
21
-97.8353010000000012
0
LINE
8
BLACK
6
CONTINUOUS
10
244.8249999999999886
20
-97.8353010000000012
11
244.8249999999999886
21
-97.75
0
LINE
8
BLACK
6
CONTINUOUS
10
244.8249999999999886
20
-97.75
11
244.8429390000000012
21
-97.4648669999999981
0
LINE
8
BLACK
6
CONTINUOUS
10
244.8429390000000012
20
-97.4648669999999981
11
244.8964729999999861
21
-97.1842309999999969
0
LINE
8
BLACK
6
CONTINUOUS
10
244.8964729999999861
20
-97.1842309999999969
11
244.9847579999999994
21
-96.912516999999994
0
LINE
8
BLACK
6
CONTINUOUS
10
244.9847579999999994
20
-96.912516999999994
11
245.1064020000000028
21
-96.6540099999999995
0
LINE
8
BLACK
6
CONTINUOUS
10
245.1064020000000028
20
-96.6540099999999995
11
245.2594859999999812
21
-96.4127889999999894
0
LINE
8
BLACK
6
CONTINUOUS
10
245.2594859999999812
20
-96.4127889999999894
11
245.4415959999999757
21
-96.192655000000002
0
LINE
8
BLACK
6
CONTINUOUS
10
245.4415959999999757
20
-96.192655000000002
11
245.6498599999999897
21
-95.9970819999999918
0
LINE
8
BLACK
6
CONTINUOUS
10
245.6498599999999897
20
-95.9970819999999918
11
245.880993999999987
21
-95.8291540000000026
0
LINE
8
BLACK
6
CONTINUOUS
10
245.880993999999987
20
-95.8291540000000026
11
246.1313519999999926
21
-95.6915180000000021
0
LINE
8
BLACK
6
CONTINUOUS
10
246.1313519999999926
20
-95.6915180000000021
11
246.3969859999999983
21
-95.5863459999999918
0
LINE
8
BLACK
6
CONTINUOUS
10
246.3969859999999983
20
-95.5863459999999918
11
246.6737079999999764
21
-95.5152969999999897
0
LINE
8
BLACK
6
CONTINUOUS
10
246.6737079999999764
20
-95.5152969999999897
11
246.9571519999999794
21
-95.4794890000000009
0
LINE
8
BLACK
6
CONTINUOUS
10
246.9571519999999794
20
-95.4794890000000009
11
247.2428479999999809
21
-95.4794890000000009
0
LINE
8
BLACK
6
CONTINUOUS
10
247.2428479999999809
20
-95.4794890000000009
11
247.5262919999999838
21
-95.5152969999999897
0
LINE
8
BLACK
6
CONTINUOUS
10
247.5262919999999838
20
-95.5152969999999897
11
247.8030139999999903
21
-95.5863459999999918
0
LINE
8
BLACK
6
CONTINUOUS
10
247.8030139999999903
20
-95.5863459999999918
11
248.068647999999996
21
-95.6915180000000021
0
LINE
8
BLACK
6
CONTINUOUS
10
248.068647999999996
20
-95.6915180000000021
11
248.3190060000000017
21
-95.8291540000000026
0
LINE
8
BLACK
6
CONTINUOUS
10
248.3190060000000017
20
-95.8291540000000026
11
248.550139999999999
21
-95.9970819999999918
0
LINE
8
BLACK
6
CONTINUOUS
10
248.550139999999999
20
-95.9970819999999918
11
248.7584039999999845
21
-96.192655000000002
0
LINE
8
BLACK
6
CONTINUOUS
10
248.7584039999999845
20
-96.192655000000002
11
248.940513999999979
21
-96.4127889999999894
0
LINE
8
BLACK
6
CONTINUOUS
10
248.940513999999979
20
-96.4127889999999894
11
249.0935979999999859
21
-96.6540099999999995
0
LINE
8
BLACK
6
CONTINUOUS
10
249.0935979999999859
20
-96.6540099999999995
11
249.2152419999999893
21
-96.912516999999994
0
LINE
8
BLACK
6
CONTINUOUS
10
249.2152419999999893
20
-96.912516999999994
11
249.3035270000000025
21
-97.1842309999999969
0
LINE
8
BLACK
6
CONTINUOUS
10
249.3035270000000025
20
-97.1842309999999969
11
249.3570609999999874
21
-97.4648669999999981
0
LINE
8
BLACK
6
CONTINUOUS
10
249.3570609999999874
20
-97.4648669999999981
11
249.375
21
-97.75
0
LINE
8
BLACK
6
CONTINUOUS
10
249.375
20
-97.75
11
249.375
21
-97.8353010000000012
0
LINE
8
BLACK
6
CONTINUOUS
10
249.375
20
-97.8353010000000012
11
249.4046249999999816
21
-98.003311999999994
0
LINE
8
BLACK
6
CONTINUOUS
10
249.4046249999999816
20
-98.003311999999994
11
249.4629750000000001
21
-98.1636269999999911
0
LINE
8
BLACK
6
CONTINUOUS
10
249.4629750000000001
20
-98.1636269999999911
11
249.5482759999999871
21
-98.311372999999989
0
LINE
8
BLACK
6
CONTINUOUS
10
249.5482759999999871
20
-98.311372999999989
11
249.6579380000000015
21
-98.4420619999999928
0
LINE
8
BLACK
6
CONTINUOUS
10
249.6579380000000015
20
-98.4420619999999928
11
249.7886269999999911
21
-98.551723999999993
0
LINE
8
BLACK
6
CONTINUOUS
10
249.7886269999999911
20
-98.551723999999993
11
249.9363729999999748
21
-98.6370249999999942
0
LINE
8
BLACK
6
CONTINUOUS
10
249.9363729999999748
20
-98.6370249999999942
11
250.0966880000000003
21
-98.6953749999999985
0
LINE
8
BLACK
6
CONTINUOUS
10
250.0966880000000003
20
-98.6953749999999985
11
250.2646989999999789
21
-98.7249999999999943
0
LINE
8
BLACK
6
CONTINUOUS
10
250.2646989999999789
20
-98.7249999999999943
11
250.3499999999999943
21
-98.7249999999999943
0
LINE
8
BLACK
6
CONTINUOUS
10
250.3499999999999943
20
-98.7249999999999943
11
339.7749999999999773
21
-98.7249999999999943
0
LINE
8
BLACK
6
CONTINUOUS
10
339.7749999999999773
20
-98.7249999999999943
11
339.9044480000000021
21
-98.7249999999999943
0
LINE
8
BLACK
6
CONTINUOUS
10
339.9044480000000021
20
-98.7249999999999943
11
340.1611299999999574
21
-98.6912069999999915
0
LINE
8
BLACK
6
CONTINUOUS
10
340.1611299999999574
20
-98.6912069999999915
11
340.4112049999999954
21
-98.6242000000000019
0
LINE
8
BLACK
6
CONTINUOUS
10
340.4112049999999954
20
-98.6242000000000019
11
340.6503950000000032
21
-98.5251249999999885
0
LINE
8
BLACK
6
CONTINUOUS
10
340.6503950000000032
20
-98.5251249999999885
11
340.8746059999999716
21
-98.3956759999999946
0
LINE
8
BLACK
6
CONTINUOUS
10
340.8746059999999716
20
-98.3956759999999946
11
341.080001999999979
21
-98.2380699999999933
0
LINE
8
BLACK
6
CONTINUOUS
10
341.080001999999979
20
-98.2380699999999933
11
341.2630699999999706
21
-98.0550020000000018
0
LINE
8
BLACK
6
CONTINUOUS
10
341.2630699999999706
20
-98.0550020000000018
11
341.4206759999999576
21
-97.8496059999999943
0
LINE
8
BLACK
6
CONTINUOUS
10
341.4206759999999576
20
-97.8496059999999943
11
341.55012499999998
21
-97.6253949999999975
0
LINE
8
BLACK
6
CONTINUOUS
10
341.55012499999998
20
-97.6253949999999975
11
341.6492000000000075
21
-97.3862049999999897
0
LINE
8
BLACK
6
CONTINUOUS
10
341.6492000000000075
20
-97.3862049999999897
11
341.7162069999999972
21
-97.1361299999999943
0
LINE
8
BLACK
6
CONTINUOUS
10
341.7162069999999972
20
-97.1361299999999943
11
341.75
21
-96.8794479999999965
0
LINE
8
BLACK
6
CONTINUOUS
10
341.75
20
-96.8794479999999965
11
341.75
21
-96.75
0
LINE
8
BLACK
6
CONTINUOUS
10
341.75
20
-96.75
11
341.75
21
-2.
0
LINE
8
BLACK
6
CONTINUOUS
10
341.75
20
-2.
11
341.75
21
-1.870552
0
LINE
8
BLACK
6
CONTINUOUS
10
341.75
20
-1.870552
11
341.7162069999999972
21
-1.6138699999999999
0
LINE
8
BLACK
6
CONTINUOUS
10
341.7162069999999972
20
-1.6138699999999999
11
341.6492000000000075
21
-1.3637949999999999
0
LINE
8
BLACK
6
CONTINUOUS
10
341.6492000000000075
20
-1.3637949999999999
11
341.55012499999998
21
-1.1246049999999999
0
LINE
8
BLACK
6
CONTINUOUS
10
341.55012499999998
20
-1.1246049999999999
11
341.4206759999999576
21
-0.9003939999999999
0
LINE
8
BLACK
6
CONTINUOUS
10
341.4206759999999576
20
-0.9003939999999999
11
341.2630699999999706
21
-0.694998
0
LINE
8
BLACK
6
CONTINUOUS
10
341.2630699999999706
20
-0.694998
11
341.080001999999979
21
-0.51193
0
LINE
8
BLACK
6
CONTINUOUS
10
341.080001999999979
20
-0.51193
11
340.8746059999999716
21
-0.354324
0
LINE
8
BLACK
6
CONTINUOUS
10
340.8746059999999716
20
-0.354324
11
340.6503950000000032
21
-0.224875
0
LINE
8
BLACK
6
CONTINUOUS
10
340.6503950000000032
20
-0.224875
11
340.4112049999999954
21
-0.1258
0
LINE
8
BLACK
6
CONTINUOUS
10
340.4112049999999954
20
-0.1258
11
340.1611299999999574
21
-0.058793
0
LINE
8
BLACK
6
CONTINUOUS
10
340.1611299999999574
20
-0.058793
11
339.9044480000000021
21
-0.025
0
LINE
8
BLACK
6
CONTINUOUS
10
339.9044480000000021
20
-0.025
11
339.7749999999999773
21
-0.025
0
LINE
8
BLACK
6
CONTINUOUS
10
339.7749999999999773
20
-0.025
11
326.5500000000000114
21
-0.025
0
LINE
8
BLACK
6
CONTINUOUS
10
326.5500000000000114
20
-0.025
11
326.464698999999996
21
-0.025
0
LINE
8
BLACK
6
CONTINUOUS
10
326.464698999999996
20
-0.025
11
326.2966879999999605
21
-0.054625
0
LINE
8
BLACK
6
CONTINUOUS
10
326.2966879999999605
20
-0.054625
11
326.1363729999999919
21
-0.112975
0
LINE
8
BLACK
6
CONTINUOUS
10
326.1363729999999919
20
-0.112975
11
325.9886270000000081
21
-0.198276
0
LINE
8
BLACK
6
CONTINUOUS
10
325.9886270000000081
20
-0.198276
11
325.8579379999999901
21
-0.307938
0
LINE
8
BLACK
6
CONTINUOUS
10
325.8579379999999901
20
-0.307938
11
325.7482759999999757
21
-0.438627
0
LINE
8
BLACK
6
CONTINUOUS
10
325.7482759999999757
20
-0.438627
11
325.6629749999999603
21
-0.5863729999999999
0
LINE
8
BLACK
6
CONTINUOUS
10
325.6629749999999603
20
-0.5863729999999999
11
325.6046249999999986
21
-0.746688
0
LINE
8
BLACK
6
CONTINUOUS
10
325.6046249999999986
20
-0.746688
11
325.5749999999999886
21
-0.9146989999999999
0
LINE
8
BLACK
6
CONTINUOUS
10
325.5749999999999886
20
-0.9146989999999999
11
325.5749999999999886
21
-1.
0
LINE
8
BLACK
6
CONTINUOUS
10
325.5749999999999886
20
-1.
11
325.557060999999976
21
-1.2851329999999999
0
LINE
8
BLACK
6
CONTINUOUS
10
325.557060999999976
20
-1.2851329999999999
11
325.5035269999999628
21
-1.565769
0
LINE
8
BLACK
6
CONTINUOUS
10
325.5035269999999628
20
-1.565769
11
325.4152419999999779
21
-1.837483
0
LINE
8
BLACK
6
CONTINUOUS
10
325.4152419999999779
20
-1.837483
11
325.2935979999999745
21
-2.09599
0
LINE
8
BLACK
6
CONTINUOUS
10
325.2935979999999745
20
-2.09599
11
325.140513999999996
21
-2.3372109999999999
0
LINE
8
BLACK
6
CONTINUOUS
10
325.140513999999996
20
-2.3372109999999999
11
324.9584039999999732
21
-2.5573449999999998
0
LINE
8
BLACK
6
CONTINUOUS
10
324.9584039999999732
20
-2.5573449999999998
11
324.7501399999999876
21
-2.7529179999999998
0
LINE
8
BLACK
6
CONTINUOUS
10
324.7501399999999876
20
-2.7529179999999998
11
324.5190059999999903
21
-2.9208460000000001
0
LINE
8
BLACK
6
CONTINUOUS
10
324.5190059999999903
20
-2.9208460000000001
11
324.2686479999999847
21
-3.0584819999999997
0
LINE
8
BLACK
6
CONTINUOUS
10
324.2686479999999847
20
-3.0584819999999997
11
324.0030140000000074
21
-3.1636539999999997
0
LINE
8
BLACK
6
CONTINUOUS
10
324.0030140000000074
20
-3.1636539999999997
11
323.7262920000000008
21
-3.2347029999999997
0
LINE
8
BLACK
6
CONTINUOUS
10
323.7262920000000008
20
-3.2347029999999997
11
323.4428479999999695
21
-3.2705109999999999
0
LINE
8
BLACK
6
CONTINUOUS
10
323.4428479999999695
20
-3.2705109999999999
11
323.1571519999999964
21
-3.2705109999999999
0
LINE
8
BLACK
6
CONTINUOUS
10
323.1571519999999964
20
-3.2705109999999999
11
322.8737079999999651
21
-3.2347029999999997
0
LINE
8
BLACK
6
CONTINUOUS
10
322.8737079999999651
20
-3.2347029999999997
11
322.5969859999999585
21
-3.1636539999999997
0
LINE
8
BLACK
6
CONTINUOUS
10
322.5969859999999585
20
-3.1636539999999997
11
322.3313519999999812
21
-3.0584819999999997
0
LINE
8
BLACK
6
CONTINUOUS
10
322.3313519999999812
20
-3.0584819999999997
11
322.0809939999999756
21
-2.9208460000000001
0
LINE
8
BLACK
6
CONTINUOUS
10
322.0809939999999756
20
-2.9208460000000001
11
321.8498599999999783
21
-2.7529179999999998
0
LINE
8
BLACK
6
CONTINUOUS
10
321.8498599999999783
20
-2.7529179999999998
11
321.6415959999999927
21
-2.5573449999999998
0
LINE
8
BLACK
6
CONTINUOUS
10
321.6415959999999927
20
-2.5573449999999998
11
321.4594859999999699
21
-2.3372109999999999
0
LINE
8
BLACK
6
CONTINUOUS
10
321.4594859999999699
20
-2.3372109999999999
11
321.3064019999999914
21
-2.09599
0
LINE
8
BLACK
6
CONTINUOUS
10
321.3064019999999914
20
-2.09599
11
321.184757999999988
21
-1.837483
0
LINE
8
BLACK
6
CONTINUOUS
10
321.184757999999988
20
-1.837483
11
321.0964730000000031
21
-1.565769
0
LINE
8
BLACK
6
CONTINUOUS
10
321.0964730000000031
20
-1.565769
11
321.0429389999999898
21
-1.2851329999999999
0
LINE
8
BLACK
6
CONTINUOUS
10
321.0429389999999898
20
-1.2851329999999999
11
321.0249999999999773
21
-1.
0
LINE
8
BLACK
6
CONTINUOUS
10
321.0249999999999773
20
-1.
11
321.0249999999999773
21
-0.9146989999999999
0
LINE
8
BLACK
6
CONTINUOUS
10
321.0249999999999773
20
-0.9146989999999999
11
320.9953749999999673
21
-0.746688
0
LINE
8
BLACK
6
CONTINUOUS
10
320.9953749999999673
20
-0.746688
11
320.9370250000000055
21
-0.5863729999999999
0
LINE
8
BLACK
6
CONTINUOUS
10
320.9370250000000055
20
-0.5863729999999999
11
320.8517239999999902
21
-0.438627
0
LINE
8
BLACK
6
CONTINUOUS
10
320.8517239999999902
20
-0.438627
11
320.7420619999999758
21
-0.307938
0
LINE
8
BLACK
6
CONTINUOUS
10
320.7420619999999758
20
-0.307938
11
320.6113729999999578
21
-0.198276
0
LINE
8
BLACK
6
CONTINUOUS
10
320.6113729999999578
20
-0.198276
11
320.463626999999974
21
-0.112975
0
LINE
8
BLACK
6
CONTINUOUS
10
320.463626999999974
20
-0.112975
11
320.3033120000000054
21
-0.054625
0
LINE
8
BLACK
6
CONTINUOUS
10
320.3033120000000054
20
-0.054625
11
320.1353009999999699
21
-0.025
0
LINE
8
BLACK
6
CONTINUOUS
10
320.1353009999999699
20
-0.025
11
320.0500000000000114
21
-0.025
0
LINE
8
BLACK
6
CONTINUOUS
10
320.0500000000000114
20
-0.025
11
221.7749999999999773
21
-0.025
0
LINE
8
BLACK
6
CONTINUOUS
10
221.7749999999999773
20
-0.025
11
221.6896989999999903
21
-0.025
0
LINE
8
BLACK
6
CONTINUOUS
10
221.6896989999999903
20
-0.025
11
221.5216879999999833
21
-0.054625
0
LINE
8
BLACK
6
CONTINUOUS
10
221.5216879999999833
20
-0.054625
11
221.3613729999999862
21
-0.112975
0
LINE
8
BLACK
6
CONTINUOUS
10
221.3613729999999862
20
-0.112975
11
221.2136270000000025
21
-0.198276
0
LINE
8
BLACK
6
CONTINUOUS
10
221.2136270000000025
20
-0.198276
11
221.0829379999999844
21
-0.307938
0
LINE
8
BLACK
6
CONTINUOUS
10
221.0829379999999844
20
-0.307938
11
220.9732759999999985
21
-0.438627
0
LINE
8
BLACK
6
CONTINUOUS
10
220.9732759999999985
20
-0.438627
11
220.8879749999999831
21
-0.5863729999999999
0
LINE
8
BLACK
6
CONTINUOUS
10
220.8879749999999831
20
-0.5863729999999999
11
220.829624999999993
21
-0.746688
0
LINE
8
BLACK
6
CONTINUOUS
10
220.829624999999993
20
-0.746688
11
220.7999999999999829
21
-0.9146989999999999
0
LINE
8
BLACK
6
CONTINUOUS
10
220.7999999999999829
20
-0.9146989999999999
11
220.7999999999999829
21
-1.
0
LINE
8
BLACK
6
CONTINUOUS
10
220.7999999999999829
20
-1.
11
220.7820609999999988
21
-1.2851329999999999
0
LINE
8
BLACK
6
CONTINUOUS
10
220.7820609999999988
20
-1.2851329999999999
11
220.7285269999999855
21
-1.565769
0
LINE
8
BLACK
6
CONTINUOUS
10
220.7285269999999855
20
-1.565769
11
220.6402420000000006
21
-1.837483
0
LINE
8
BLACK
6
CONTINUOUS
10
220.6402420000000006
20
-1.837483
11
220.5185979999999972
21
-2.09599
0
LINE
8
BLACK
6
CONTINUOUS
10
220.5185979999999972
20
-2.09599
11
220.3655139999999903
21
-2.3372109999999999
0
LINE
8
BLACK
6
CONTINUOUS
10
220.3655139999999903
20
-2.3372109999999999
11
220.1834039999999959
21
-2.5573449999999998
0
LINE
8
BLACK
6
CONTINUOUS
10
220.1834039999999959
20
-2.5573449999999998
11
219.9751399999999819
21
-2.7529179999999998
0
LINE
8
BLACK
6
CONTINUOUS
10
219.9751399999999819
20
-2.7529179999999998
11
219.7440059999999846
21
-2.9208460000000001
0
LINE
8
BLACK
6
CONTINUOUS
10
219.7440059999999846
20
-2.9208460000000001
11
219.493647999999979
21
-3.0584819999999997
0
LINE
8
BLACK
6
CONTINUOUS
10
219.493647999999979
20
-3.0584819999999997
11
219.2280140000000017
21
-3.1636539999999997
0
LINE
8
BLACK
6
CONTINUOUS
10
219.2280140000000017
20
-3.1636539999999997
11
218.9512919999999951
21
-3.2347029999999997
0
LINE
8
BLACK
6
CONTINUOUS
10
218.9512919999999951
20
-3.2347029999999997
11
218.6678479999999922
21
-3.2705109999999999
0
LINE
8
BLACK
6
CONTINUOUS
10
218.6678479999999922
20
-3.2705109999999999
11
218.3821519999999907
21
-3.2705109999999999
0
LINE
8
BLACK
6
CONTINUOUS
10
218.3821519999999907
20
-3.2705109999999999
11
218.0987079999999878
21
-3.2347029999999997
0
LINE
8
BLACK
6
CONTINUOUS
10
218.0987079999999878
20
-3.2347029999999997
11
217.8219859999999812
21
-3.1636539999999997
0
LINE
8
BLACK
6
CONTINUOUS
10
217.8219859999999812
20
-3.1636539999999997
11
217.556352000000004
21
-3.0584819999999997
0
LINE
8
BLACK
6
CONTINUOUS
10
217.556352000000004
20
-3.0584819999999997
11
217.3059939999999983
21
-2.9208460000000001
0
LINE
8
BLACK
6
CONTINUOUS
10
217.3059939999999983
20
-2.9208460000000001
11
217.074860000000001
21
-2.7529179999999998
0
LINE
8
BLACK
6
CONTINUOUS
10
217.074860000000001
20
-2.7529179999999998
11
216.866595999999987
21
-2.5573449999999998
0
LINE
8
BLACK
6
CONTINUOUS
10
216.866595999999987
20
-2.5573449999999998
11
216.6844859999999926
21
-2.3372109999999999
0
LINE
8
BLACK
6
CONTINUOUS
10
216.6844859999999926
20
-2.3372109999999999
11
216.5314019999999857
21
-2.09599
0
LINE
8
BLACK
6
CONTINUOUS
10
216.5314019999999857
20
-2.09599
11
216.4097579999999823
21
-1.837483
0
LINE
8
BLACK
6
CONTINUOUS
10
216.4097579999999823
20
-1.837483
11
216.3214729999999975
21
-1.565769
0
LINE
8
BLACK
6
CONTINUOUS
10
216.3214729999999975
20
-1.565769
11
216.2679389999999842
21
-1.2851329999999999
0
LINE
8
BLACK
6
CONTINUOUS
10
216.2679389999999842
20
-1.2851329999999999
11
216.25
21
-1.
0
LINE
8
BLACK
6
CONTINUOUS
10
216.25
20
-1.
11
216.25
21
-0.9146989999999999
0
LINE
8
BLACK
6
CONTINUOUS
10
216.25
20
-0.9146989999999999
11
216.22037499999999
21
-0.746688
0
LINE
8
BLACK
6
CONTINUOUS
10
216.22037499999999
20
-0.746688
11
216.1620249999999999
21
-0.5863729999999999
0
LINE
8
BLACK
6
CONTINUOUS
10
216.1620249999999999
20
-0.5863729999999999
11
216.0767239999999845
21
-0.438627
0
LINE
8
BLACK
6
CONTINUOUS
10
216.0767239999999845
20
-0.438627
11
215.9670619999999985
21
-0.307938
0
LINE
8
BLACK
6
CONTINUOUS
10
215.9670619999999985
20
-0.307938
11
215.8363729999999805
21
-0.198276
0
LINE
8
BLACK
6
CONTINUOUS
10
215.8363729999999805
20
-0.198276
11
215.6886269999999968
21
-0.112975
0
LINE
8
BLACK
6
CONTINUOUS
10
215.6886269999999968
20
-0.112975
11
215.5283119999999997
21
-0.054625
0
LINE
8
BLACK
6
CONTINUOUS
10
215.5283119999999997
20
-0.054625
11
215.3603009999999927
21
-0.025
0
LINE
8
BLACK
6
CONTINUOUS
10
215.3603009999999927
20
-0.025
11
215.2749999999999773
21
-0.025
0
LINE
8
BLACK
6
CONTINUOUS
10
215.2749999999999773
20
-0.025
11
126.5249999999999915
21
-0.025
0
LINE
8
BLACK
6
CONTINUOUS
10
126.5249999999999915
20
-0.025
11
126.4396989999999903
21
-0.025
0
LINE
8
BLACK
6
CONTINUOUS
10
126.4396989999999903
20
-0.025
11
126.2716879999999975
21
-0.054625
0
LINE
8
BLACK
6
CONTINUOUS
10
126.2716879999999975
20
-0.054625
11
126.1113730000000004
21
-0.112975
0
LINE
8
BLACK
6
CONTINUOUS
10
126.1113730000000004
20
-0.112975
11
125.9636269999999882
21
-0.198276
0
LINE
8
BLACK
6
CONTINUOUS
10
125.9636269999999882
20
-0.198276
11
125.8329379999999986
21
-0.307938
0
LINE
8
BLACK
6
CONTINUOUS
10
125.8329379999999986
20
-0.307938
11
125.7232759999999985
21
-0.438627
0
LINE
8
BLACK
6
CONTINUOUS
10
125.7232759999999985
20
-0.438627
11
125.6379749999999973
21
-0.5863729999999999
0
LINE
8
BLACK
6
CONTINUOUS
10
125.6379749999999973
20
-0.5863729999999999
11
125.579624999999993
21
-0.746688
0
LINE
8
BLACK
6
CONTINUOUS
10
125.579624999999993
20
-0.746688
11
125.5499999999999972
21
-0.9146989999999999
0
LINE
8
BLACK
6
CONTINUOUS
10
125.5499999999999972
20
-0.9146989999999999
11
125.5499999999999972
21
-1.
0
LINE
8
BLACK
6
CONTINUOUS
10
125.5499999999999972
20
-1.
11
125.5320609999999988
21
-1.2851329999999999
0
LINE
8
BLACK
6
CONTINUOUS
10
125.5320609999999988
20
-1.2851329999999999
11
125.4785269999999997
21
-1.565769
0
LINE
8
BLACK
6
CONTINUOUS
10
125.4785269999999997
20
-1.565769
11
125.3902420000000006
21
-1.837483
0
LINE
8
BLACK
6
CONTINUOUS
10
125.3902420000000006
20
-1.837483
11
125.2685979999999972
21
-2.09599
0
LINE
8
BLACK
6
CONTINUOUS
10
125.2685979999999972
20
-2.09599
11
125.1155139999999903
21
-2.3372109999999999
0
LINE
8
BLACK
6
CONTINUOUS
10
125.1155139999999903
20
-2.3372109999999999
11
124.9334039999999959
21
-2.5573449999999998
0
LINE
8
BLACK
6
CONTINUOUS
10
124.9334039999999959
20
-2.5573449999999998
11
124.7251399999999961
21
-2.7529179999999998
0
LINE
8
BLACK
6
CONTINUOUS
10
124.7251399999999961
20
-2.7529179999999998
11
124.4940059999999988
21
-2.9208460000000001
0
LINE
8
BLACK
6
CONTINUOUS
10
124.4940059999999988
20
-2.9208460000000001
11
124.2436479999999932
21
-3.0584819999999997
0
LINE
8
BLACK
6
CONTINUOUS
10
124.2436479999999932
20
-3.0584819999999997
11
123.9780139999999875
21
-3.1636539999999997
0
LINE
8
BLACK
6
CONTINUOUS
10
123.9780139999999875
20
-3.1636539999999997
11
123.7012919999999951
21
-3.2347029999999997
0
LINE
8
BLACK
6
CONTINUOUS
10
123.7012919999999951
20
-3.2347029999999997
11
123.4178479999999922
21
-3.2705109999999999
0
LINE
8
BLACK
6
CONTINUOUS
10
123.4178479999999922
20
-3.2705109999999999
11
123.1321519999999907
21
-3.2705109999999999
0
LINE
8
BLACK
6
CONTINUOUS
10
123.1321519999999907
20
-3.2705109999999999
11
122.8487079999999878
21
-3.2347029999999997
0
LINE
8
BLACK
6
CONTINUOUS
10
122.8487079999999878
20
-3.2347029999999997
11
122.5719859999999954
21
-3.1636539999999997
0
LINE
8
BLACK
6
CONTINUOUS
10
122.5719859999999954
20
-3.1636539999999997
11
122.3063519999999897
21
-3.0584819999999997
0
LINE
8
BLACK
6
CONTINUOUS
10
122.3063519999999897
20
-3.0584819999999997
11
122.0559939999999983
21
-2.9208460000000001
0
LINE
8
BLACK
6
CONTINUOUS
10
122.0559939999999983
20
-2.9208460000000001
11
121.824860000000001
21
-2.7529179999999998
0
LINE
8
BLACK
6
CONTINUOUS
10
121.824860000000001
20
-2.7529179999999998
11
121.6165960000000013
21
-2.5573449999999998
0
LINE
8
BLACK
6
CONTINUOUS
10
121.6165960000000013
20
-2.5573449999999998
11
121.4344859999999926
21
-2.3372109999999999
0
LINE
8
BLACK
6
CONTINUOUS
10
121.4344859999999926
20
-2.3372109999999999
11
121.2814019999999999
21
-2.09599
0
LINE
8
BLACK
6
CONTINUOUS
10
121.2814019999999999
20
-2.09599
11
121.1597579999999965
21
-1.837483
0
LINE
8
BLACK
6
CONTINUOUS
10
121.1597579999999965
20
-1.837483
11
121.0714729999999975
21
-1.565769
0
LINE
8
BLACK
6
CONTINUOUS
10
121.0714729999999975
20
-1.565769
11
121.0179389999999984
21
-1.2851329999999999
0
LINE
8
BLACK
6
CONTINUOUS
10
121.0179389999999984
20
-1.2851329999999999
11
121.
21
-1.
0
LINE
8
BLACK
6
CONTINUOUS
10
121.
20
-1.
11
121.
21
-0.9146989999999999
0
LINE
8
BLACK
6
CONTINUOUS
10
121.
20
-0.9146989999999999
11
120.97037499999999
21
-0.746688
0
LINE
8
BLACK
6
CONTINUOUS
10
120.97037499999999
20
-0.746688
11
120.9120249999999999
21
-0.5863729999999999
0
LINE
8
BLACK
6
CONTINUOUS
10
120.9120249999999999
20
-0.5863729999999999
11
120.8267239999999987
21
-0.438627
0
LINE
8
BLACK
6
CONTINUOUS
10
120.8267239999999987
20
-0.438627
11
120.7170619999999985
21
-0.307938
0
LINE
8
BLACK
6
CONTINUOUS
10
120.7170619999999985
20
-0.307938
11
120.5863729999999947
21
-0.198276
0
LINE
8
BLACK
6
CONTINUOUS
10
120.5863729999999947
20
-0.198276
11
120.4386269999999968
21
-0.112975
0
LINE
8
BLACK
6
CONTINUOUS
10
120.4386269999999968
20
-0.112975
11
120.2783119999999997
21
-0.054625
0
LINE
8
BLACK
6
CONTINUOUS
10
120.2783119999999997
20
-0.054625
11
120.1103009999999927
21
-0.025
0
LINE
8
BLACK
6
CONTINUOUS
10
120.1103009999999927
20
-0.025
11
120.0249999999999915
21
-0.025
0
LINE
8
BLACK
6
CONTINUOUS
10
120.0249999999999915
20
-0.025
11
21.75
21
-0.025
0
LINE
8
BLACK
6
CONTINUOUS
10
21.75
20
-0.025
11
21.6646989999999988
21
-0.025
0
LINE
8
BLACK
6
CONTINUOUS
10
21.6646989999999988
20
-0.025
11
21.4966879999999989
21
-0.054625
0
LINE
8
BLACK
6
CONTINUOUS
10
21.4966879999999989
20
-0.054625
11
21.3363729999999983
21
-0.112975
0
LINE
8
BLACK
6
CONTINUOUS
10
21.3363729999999983
20
-0.112975
11
21.1886270000000003
21
-0.198276
0
LINE
8
BLACK
6
CONTINUOUS
10
21.1886270000000003
20
-0.198276
11
21.057938
21
-0.307938
0
LINE
8
BLACK
6
CONTINUOUS
10
21.057938
20
-0.307938
11
20.9482759999999999
21
-0.438627
0
LINE
8
BLACK
6
CONTINUOUS
10
20.9482759999999999
20
-0.438627
11
20.8629749999999987
21
-0.5863729999999999
0
LINE
8
BLACK
6
CONTINUOUS
10
20.8629749999999987
20
-0.5863729999999999
11
20.8046249999999979
21
-0.746688
0
LINE
8
BLACK
6
CONTINUOUS
10
20.8046249999999979
20
-0.746688
11
20.7749999999999986
21
-0.9146989999999999
0
LINE
8
BLACK
6
CONTINUOUS
10
20.7749999999999986
20
-0.9146989999999999
11
20.7749999999999986
21
-1.
0
LINE
8
BLACK
6
CONTINUOUS
10
20.7749999999999986
20
-1.
11
20.7570610000000002
21
-1.2851329999999999
0
LINE
8
BLACK
6
CONTINUOUS
10
20.7570610000000002
20
-1.2851329999999999
11
20.7035269999999976
21
-1.565769
0
LINE
8
BLACK
6
CONTINUOUS
10
20.7035269999999976
20
-1.565769
11
20.6152419999999985
21
-1.837483
0
LINE
8
BLACK
6
CONTINUOUS
10
20.6152419999999985
20
-1.837483
11
20.4935979999999986
21
-2.09599
0
LINE
8
BLACK
6
CONTINUOUS
10
20.4935979999999986
20
-2.09599
11
20.3405139999999989
21
-2.3372109999999999
0
LINE
8
BLACK
6
CONTINUOUS
10
20.3405139999999989
20
-2.3372109999999999
11
20.1584039999999973
21
-2.5573449999999998
0
LINE
8
BLACK
6
CONTINUOUS
10
20.1584039999999973
20
-2.5573449999999998
11
19.9501399999999975
21
-2.7529179999999998
0
LINE
8
BLACK
6
CONTINUOUS
10
19.9501399999999975
20
-2.7529179999999998
11
19.7190060000000003
21
-2.9208460000000001
0
LINE
8
BLACK
6
CONTINUOUS
10
19.7190060000000003
20
-2.9208460000000001
11
19.4686479999999982
21
-3.0584819999999997
0
LINE
8
BLACK
6
CONTINUOUS
10
19.4686479999999982
20
-3.0584819999999997
11
19.2030139999999996
21
-3.1636539999999997
0
LINE
8
BLACK
6
CONTINUOUS
10
19.2030139999999996
20
-3.1636539999999997
11
18.9262920000000001
21
-3.2347029999999997
0
LINE
8
BLACK
6
CONTINUOUS
10
18.9262920000000001
20
-3.2347029999999997
11
18.6428480000000008
21
-3.2705109999999999
0
LINE
8
BLACK
6
CONTINUOUS
10
18.6428480000000008
20
-3.2705109999999999
11
18.3571519999999992
21
-3.2705109999999999
0
LINE
8
BLACK
6
CONTINUOUS
10
18.3571519999999992
20
-3.2705109999999999
11
18.0737079999999999
21
-3.2347029999999997
0
LINE
8
BLACK
6
CONTINUOUS
10
18.0737079999999999
20
-3.2347029999999997
11
17.7969860000000004
21
-3.1636539999999997
0
LINE
8
BLACK
6
CONTINUOUS
10
17.7969860000000004
20
-3.1636539999999997
11
17.5313519999999983
21
-3.0584819999999997
0
LINE
8
BLACK
6
CONTINUOUS
10
17.5313519999999983
20
-3.0584819999999997
11
17.2809939999999997
21
-2.9208460000000001
0
LINE
8
BLACK
6
CONTINUOUS
10
17.2809939999999997
20
-2.9208460000000001
11
17.0498599999999989
21
-2.7529179999999998
0
LINE
8
BLACK
6
CONTINUOUS
10
17.0498599999999989
20
-2.7529179999999998
11
16.8415959999999991
21
-2.5573449999999998
0
LINE
8
BLACK
6
CONTINUOUS
10
16.8415959999999991
20
-2.5573449999999998
11
16.6594859999999976
21
-2.3372109999999999
0
LINE
8
BLACK
6
CONTINUOUS
10
16.6594859999999976
20
-2.3372109999999999
11
16.5064019999999978
21
-2.09599
0
LINE
8
BLACK
6
CONTINUOUS
10
16.5064019999999978
20
-2.09599
11
16.3847579999999979
21
-1.837483
0
LINE
8
BLACK
6
CONTINUOUS
10
16.3847579999999979
20
-1.837483
11
16.2964729999999989
21
-1.565769
0
LINE
8
BLACK
6
CONTINUOUS
10
16.2964729999999989
20
-1.565769
11
16.2429389999999998
21
-1.2851329999999999
0
LINE
8
BLACK
6
CONTINUOUS
10
16.2429389999999998
20
-1.2851329999999999
11
16.2249999999999979
21
-1.
0
LINE
8
BLACK
6
CONTINUOUS
10
16.2249999999999979
20
-1.
11
16.2249999999999979
21
-0.9146989999999999
0
LINE
8
BLACK
6
CONTINUOUS
10
16.2249999999999979
20
-0.9146989999999999
11
16.1953749999999985
21
-0.746688
0
LINE
8
BLACK
6
CONTINUOUS
10
16.1953749999999985
20
-0.746688
11
16.1370249999999977
21
-0.5863729999999999
0
LINE
8
BLACK
6
CONTINUOUS
10
16.1370249999999977
20
-0.5863729999999999
11
16.0517240000000001
21
-0.438627
0
LINE
8
BLACK
6
CONTINUOUS
10
16.0517240000000001
20
-0.438627
11
15.942062
21
-0.307938
0
LINE
8
BLACK
6
CONTINUOUS
10
15.942062
20
-0.307938
11
15.8113729999999997
21
-0.198276
0
LINE
8
BLACK
6
CONTINUOUS
10
15.8113729999999997
20
-0.198276
11
15.663627
21
-0.112975
0
LINE
8
BLACK
6
CONTINUOUS
10
15.663627
20
-0.112975
11
15.5033119999999993
21
-0.054625
0
LINE
8
BLACK
6
CONTINUOUS
10
15.5033119999999993
20
-0.054625
11
15.3353009999999994
21
-0.025
0
LINE
8
BLACK
6
CONTINUOUS
10
15.3353009999999994
20
-0.025
11
15.25
21
-0.025
0
LINE
8
BLACK
6
CONTINUOUS
10
15.25
20
-0.025
11
2.0249999999999999
21
-0.025
0
CIRCLE
8
BLACK
10
294.4074999999999704
20
-28.0249999999999986
40
0.875
0
CIRCLE
8
BLACK
10
299.4875000000000114
20
-28.0249999999999986
40
1.9939
0
CIRCLE
8
BLACK
10
304.5674999999999955
20
-28.0249999999999986
40
0.875
0
CIRCLE
8
BLACK
10
295.6775000000000091
20
-25.4849999999999994
40
0.762
0
CIRCLE
8
BLACK
10
302.027499999999975
20
-22.9450000000000003
40
0.762
0
CIRCLE
8
BLACK
10
39.613749999999996
20
-47.0749999999999957
40
0.875
0
CIRCLE
8
BLACK
10
44.6937500000000014
20
-47.0749999999999957
40
1.9939
0
CIRCLE
8
BLACK
10
49.7737499999999997
20
-47.0749999999999957
40
0.875
0
CIRCLE
8
BLACK
10
40.8837499999999991
20
-44.5349999999999966
40
0.762
0
CIRCLE
8
BLACK
10
47.2337500000000006
20
-41.9949999999999974
40
0.762
0
CIRCLE
8
BLACK
10
327.7450000000000045
20
-28.0249999999999986
40
0.875
0
CIRCLE
8
BLACK
10
332.8249999999999886
20
-28.0249999999999986
40
1.9939
0
CIRCLE
8
BLACK
10
337.9049999999999727
20
-28.0249999999999986
40
0.875
0
CIRCLE
8
BLACK
10
329.0149999999999864
20
-25.4849999999999994
40
0.762
0
CIRCLE
8
BLACK
10
335.3650000000000091
20
-22.9450000000000003
40
0.762
0
CIRCLE
8
BLACK
10
208.6825000000000045
20
-66.125
40
0.875
0
CIRCLE
8
BLACK
10
213.7624999999999886
20
-66.125
40
1.9939
0
CIRCLE
8
BLACK
10
218.8425000000000011
20
-66.125
40
0.875
0
CIRCLE
8
BLACK
10
209.9524999999999864
20
-63.5849999999999937
40
0.762
0
CIRCLE
8
BLACK
10
216.3024999999999807
20
-61.0449999999999946
40
0.762
0
CIRCLE
8
BLACK
10
156.2949999999999875
20
-28.0249999999999986
40
0.875
0
CIRCLE
8
BLACK
10
161.375
20
-28.0249999999999986
40
1.9939
0
CIRCLE
8
BLACK
10
166.4549999999999841
20
-28.0249999999999986
40
0.875
0
CIRCLE
8
BLACK
10
157.5649999999999977
20
-25.4849999999999994
40
0.762
0
CIRCLE
8
BLACK
10
163.914999999999992
20
-22.9450000000000003
40
0.762
0
CIRCLE
8
BLACK
10
218.2074999999999818
20
-47.0749999999999957
40
0.875
0
CIRCLE
8
BLACK
10
223.2874999999999943
20
-47.0749999999999957
40
1.9939
0
CIRCLE
8
BLACK
10
228.3674999999999784
20
-47.0749999999999957
40
0.875
0
CIRCLE
8
BLACK
10
219.477499999999992
20
-44.5349999999999966
40
0.762
0
CIRCLE
8
BLACK
10
225.8274999999999864
20
-41.9949999999999974
40
0.762
0
CIRCLE
8
BLACK
10
170.5824999999999818
20
-66.125
40
0.875
0
CIRCLE
8
BLACK
10
175.6624999999999943
20
-66.125
40
1.9939
0
CIRCLE
8
BLACK
10
180.7424999999999784
20
-66.125
40
0.875
0
CIRCLE
8
BLACK
10
171.852499999999992
20
-63.5849999999999937
40
0.762
0
CIRCLE
8
BLACK
10
178.2024999999999864
20
-61.0449999999999946
40
0.762
0
CIRCLE
8
BLACK
10
82.4762499999999932
20
-85.1749999999999972
40
0.875
0
CIRCLE
8
BLACK
10
87.5562499999999915
20
-85.1749999999999972
40
1.9939
0
CIRCLE
8
BLACK
10
92.6362499999999898
20
-85.1749999999999972
40
0.875
0
CIRCLE
8
BLACK
10
83.7462499999999892
20
-82.6349999999999909
40
0.762
0
CIRCLE
8
BLACK
10
90.0962499999999977
20
-80.0949999999999989
40
0.762
0
CIRCLE
8
BLACK
10
272.9762499999999932
20
-66.125
40
0.875
0
CIRCLE
8
BLACK
10
278.0562499999999773
20
-66.125
40
1.9939
0
CIRCLE
8
BLACK
10
283.1362499999999613
20
-66.125
40
0.875
0
CIRCLE
8
BLACK
10
274.246249999999975
20
-63.5849999999999937
40
0.762
0
CIRCLE
8
BLACK
10
280.5962499999999977
20
-61.0449999999999946
40
0.762
0
CIRCLE
8
BLACK
10
108.6700000000000017
20
-8.9749999999999996
40
0.875
0
CIRCLE
8
BLACK
10
113.75
20
-8.9749999999999996
40
1.9939
0
CIRCLE
8
BLACK
10
118.8299999999999983
20
-8.9749999999999996
40
0.875
0
CIRCLE
8
BLACK
10
109.9399999999999977
20
-6.4349999999999996
40
0.762
0
CIRCLE
8
BLACK
10
116.289999999999992
20
-3.895
40
0.762
0
CIRCLE
8
BLACK
10
327.7450000000000045
20
-66.125
40
0.875
0
CIRCLE
8
BLACK
10
332.8249999999999886
20
-66.125
40
1.9939
0
CIRCLE
8
BLACK
10
337.9049999999999727
20
-66.125
40
0.875
0
CIRCLE
8
BLACK
10
329.0149999999999864
20
-63.5849999999999937
40
0.762
0
CIRCLE
8
BLACK
10
335.3650000000000091
20
-61.0449999999999946
40
0.762
0
CIRCLE
8
BLACK
10
237.2574999999999932
20
-47.0749999999999957
40
0.875
0
CIRCLE
8
BLACK
10
242.3374999999999773
20
-47.0749999999999957
40
1.9939
0
CIRCLE
8
BLACK
10
247.4174999999999898
20
-47.0749999999999957
40
0.875
0
CIRCLE
8
BLACK
10
238.5275000000000034
20
-44.5349999999999966
40
0.762
0
CIRCLE
8
BLACK
10
244.8774999999999977
20
-41.9949999999999974
40
0.762
0
CIRCLE
8
BLACK
10
44.3762499999999989
20
-66.125
40
0.875
0
CIRCLE
8
BLACK
10
49.4562499999999972
20
-66.125
40
1.9939
0
CIRCLE
8
BLACK
10
54.5362499999999955
20
-66.125
40
0.875
0
CIRCLE
8
BLACK
10
45.6462499999999949
20
-63.5849999999999937
40
0.762
0
CIRCLE
8
BLACK
10
51.9962499999999963
20
-61.0449999999999946
40
0.762
0
CIRCLE
8
BLACK
10
37.2325000000000017
20
-28.0249999999999986
40
0.875
0
CIRCLE
8
BLACK
10
42.3125
20
-28.0249999999999986
40
1.9939
0
CIRCLE
8
BLACK
10
47.3924999999999983
20
-28.0249999999999986
40
0.875
0
CIRCLE
8
BLACK
10
38.5024999999999977
20
-25.4849999999999994
40
0.762
0
CIRCLE
8
BLACK
10
44.8524999999999991
20
-22.9450000000000003
40
0.762
0
CIRCLE
8
BLACK
10
284.8824999999999932
20
-89.9375
40
0.875
0
CIRCLE
8
BLACK
10
289.9624999999999773
20
-89.9375
40
1.9939
0
CIRCLE
8
BLACK
10
295.0424999999999613
20
-89.9375
40
0.875
0
CIRCLE
8
BLACK
10
286.152499999999975
20
-87.3974999999999937
40
0.762
0
CIRCLE
8
BLACK
10
292.5024999999999977
20
-84.8575000000000017
40
0.762
0
CIRCLE
8
BLACK
10
84.8575000000000017
20
-47.0749999999999957
40
0.875
0
CIRCLE
8
BLACK
10
89.9375
20
-47.0749999999999957
40
1.9939
0
CIRCLE
8
BLACK
10
95.0174999999999983
20
-47.0749999999999957
40
0.875
0
CIRCLE
8
BLACK
10
86.1274999999999977
20
-44.5349999999999966
40
0.762
0
CIRCLE
8
BLACK
10
92.477499999999992
20
-41.9949999999999974
40
0.762
0
CIRCLE
8
BLACK
10
113.4324999999999903
20
-66.125
40
0.875
0
CIRCLE
8
BLACK
10
118.5124999999999886
20
-66.125
40
1.9939
0
CIRCLE
8
BLACK
10
123.5925000000000011
20
-66.125
40
0.875
0
CIRCLE
8
BLACK
10
114.7025000000000006
20
-63.5849999999999937
40
0.762
0
CIRCLE
8
BLACK
10
121.0524999999999949
20
-61.0449999999999946
40
0.762
0
CIRCLE
8
BLACK
10
227.7324999999999875
20
-85.1749999999999972
40
0.875
0
CIRCLE
8
BLACK
10
232.8125
20
-85.1749999999999972
40
1.9939
0
CIRCLE
8
BLACK
10
237.8924999999999841
20
-85.1749999999999972
40
0.875
0
CIRCLE
8
BLACK
10
229.0024999999999977
20
-82.6349999999999909
40
0.762
0
CIRCLE
8
BLACK
10
235.352499999999992
20
-80.0949999999999989
40
0.762
0
CIRCLE
8
BLACK
10
3.895
20
-47.0749999999999957
40
0.875
0
CIRCLE
8
BLACK
10
8.9749999999999996
20
-47.0749999999999957
40
1.9939
0
CIRCLE
8
BLACK
10
14.0549999999999997
20
-47.0749999999999957
40
0.875
0
CIRCLE
8
BLACK
10
5.165
20
-44.5349999999999966
40
0.762
0
CIRCLE
8
BLACK
10
11.5149999999999988
20
-41.9949999999999974
40
0.762
0
CIRCLE
8
BLACK
10
256.3075000000000045
20
-85.1749999999999972
40
0.875
0
CIRCLE
8
BLACK
10
261.3874999999999886
20
-85.1749999999999972
40
1.9939
0
CIRCLE
8
BLACK
10
266.4674999999999727
20
-85.1749999999999972
40
0.875
0
CIRCLE
8
BLACK
10
257.5774999999999864
20
-82.6349999999999909
40
0.762
0
CIRCLE
8
BLACK
10
263.9275000000000091
20
-80.0949999999999989
40
0.762
0
CIRCLE
8
BLACK
10
192.0137499999999875
20
-85.1749999999999972
40
0.875
0
CIRCLE
8
BLACK
10
197.09375
20
-85.1749999999999972
40
1.9939
0
CIRCLE
8
BLACK
10
202.1737499999999841
20
-85.1749999999999972
40
0.875
0
CIRCLE
8
BLACK
10
193.2837499999999977
20
-82.6349999999999909
40
0.762
0
CIRCLE
8
BLACK
10
199.633749999999992
20
-80.0949999999999989
40
0.762
0
CIRCLE
8
BLACK
10
322.9824999999999591
20
-89.9375
40
0.875
0
CIRCLE
8
BLACK
10
328.0625
20
-89.9375
40
1.9939
0
CIRCLE
8
BLACK
10
333.1424999999999841
20
-89.9375
40
0.875
0
CIRCLE
8
BLACK
10
324.2524999999999977
20
-87.3974999999999937
40
0.762
0
CIRCLE
8
BLACK
10
330.6024999999999636
20
-84.8575000000000017
40
0.762
0
CIRCLE
8
BLACK
10
184.8700000000000045
20
-8.9749999999999996
40
0.875
0
CIRCLE
8
BLACK
10
189.9499999999999886
20
-8.9749999999999996
40
1.9939
0
CIRCLE
8
BLACK
10
195.0300000000000011
20
-8.9749999999999996
40
0.875
0
CIRCLE
8
BLACK
10
186.1399999999999864
20
-6.4349999999999996
40
0.762
0
CIRCLE
8
BLACK
10
192.4899999999999807
20
-3.895
40
0.762
0
CIRCLE
8
BLACK
10
325.3249999999999886
20
-6.4749999999999996
40
0.5
0
CIRCLE
8
BLACK
10
325.3249999999999886
20
-11.4749999999999996
40
0.5
0
CIRCLE
8
BLACK
10
325.3249999999999886
20
-8.9749999999999996
40
0.5
0
LINE
8
BLACK
6
CONTINUOUS
10
333.5485129999999572
20
-2.6286109999999998
11
333.6927139999999667
21
-2.657295
0
LINE
8
BLACK
6
CONTINUOUS
10
333.6927139999999667
20
-2.657295
11
333.8285480000000121
21
-2.7135590000000001
0
LINE
8
BLACK
6
CONTINUOUS
10
333.8285480000000121
20
-2.7135590000000001
11
333.950794999999971
21
-2.795242
0
LINE
8
BLACK
6
CONTINUOUS
10
333.950794999999971
20
-2.795242
11
334.0547579999999925
21
-2.8992049999999998
0
LINE
8
BLACK
6
CONTINUOUS
10
334.0547579999999925
20
-2.8992049999999998
11
334.1364409999999907
21
-3.021452
0
LINE
8
BLACK
6
CONTINUOUS
10
334.1364409999999907
20
-3.021452
11
334.1927049999999895
21
-3.157286
0
LINE
8
BLACK
6
CONTINUOUS
10
334.1927049999999895
20
-3.157286
11
334.2213889999999878
21
-3.3014869999999998
0
LINE
8
BLACK
6
CONTINUOUS
10
334.2213889999999878
20
-3.3014869999999998
11
334.2213889999999878
21
-3.4485129999999997
0
LINE
8
BLACK
6
CONTINUOUS
10
334.2213889999999878
20
-3.4485129999999997
11
334.1927049999999895
21
-3.592714
0
LINE
8
BLACK
6
CONTINUOUS
10
334.1927049999999895
20
-3.592714
11
334.1364409999999907
21
-3.728548
0
LINE
8
BLACK
6
CONTINUOUS
10
334.1364409999999907
20
-3.728548
11
334.0547579999999925
21
-3.8507949999999997
0
LINE
8
BLACK
6
CONTINUOUS
10
334.0547579999999925
20
-3.8507949999999997
11
333.950794999999971
21
-3.954758
0
LINE
8
BLACK
6
CONTINUOUS
10
333.950794999999971
20
-3.954758
11
333.8285480000000121
21
-4.0364409999999999
0
LINE
8
BLACK
6
CONTINUOUS
10
333.8285480000000121
20
-4.0364409999999999
11
333.6927139999999667
21
-4.0927049999999996
0
LINE
8
BLACK
6
CONTINUOUS
10
333.6927139999999667
20
-4.0927049999999996
11
333.5485129999999572
21
-4.1213889999999997
0
LINE
8
BLACK
6
CONTINUOUS
10
333.5485129999999572
20
-4.1213889999999997
11
333.4749999999999659
21
-4.125
0
LINE
8
BLACK
6
CONTINUOUS
10
333.4749999999999659
20
-4.125
11
332.1750000000000114
21
-4.125
0
LINE
8
BLACK
6
CONTINUOUS
10
332.1750000000000114
20
-4.125
11
332.1014869999999632
21
-4.1213889999999997
0
LINE
8
BLACK
6
CONTINUOUS
10
332.1014869999999632
20
-4.1213889999999997
11
331.9572860000000105
21
-4.0927049999999996
0
LINE
8
BLACK
6
CONTINUOUS
10
331.9572860000000105
20
-4.0927049999999996
11
331.8214519999999652
21
-4.0364409999999999
0
LINE
8
BLACK
6
CONTINUOUS
10
331.8214519999999652
20
-4.0364409999999999
11
331.6992050000000063
21
-3.954758
0
LINE
8
BLACK
6
CONTINUOUS
10
331.6992050000000063
20
-3.954758
11
331.5952419999999847
21
-3.8507949999999997
0
LINE
8
BLACK
6
CONTINUOUS
10
331.5952419999999847
20
-3.8507949999999997
11
331.5135589999999866
21
-3.728548
0
LINE
8
BLACK
6
CONTINUOUS
10
331.5135589999999866
20
-3.728548
11
331.4572949999999878
21
-3.592714
0
LINE
8
BLACK
6
CONTINUOUS
10
331.4572949999999878
20
-3.592714
11
331.4286109999999894
21
-3.4485129999999997
0
LINE
8
BLACK
6
CONTINUOUS
10
331.4286109999999894
20
-3.4485129999999997
11
331.4286109999999894
21
-3.3014869999999998
0
LINE
8
BLACK
6
CONTINUOUS
10
331.4286109999999894
20
-3.3014869999999998
11
331.4572949999999878
21
-3.157286
0
LINE
8
BLACK
6
CONTINUOUS
10
331.4572949999999878
20
-3.157286
11
331.5135589999999866
21
-3.021452
0
LINE
8
BLACK
6
CONTINUOUS
10
331.5135589999999866
20
-3.021452
11
331.5952419999999847
21
-2.8992049999999998
0
LINE
8
BLACK
6
CONTINUOUS
10
331.5952419999999847
20
-2.8992049999999998
11
331.6992050000000063
21
-2.795242
0
LINE
8
BLACK
6
CONTINUOUS
10
331.6992050000000063
20
-2.795242
11
331.8214519999999652
21
-2.7135590000000001
0
LINE
8
BLACK
6
CONTINUOUS
10
331.8214519999999652
20
-2.7135590000000001
11
331.9572860000000105
21
-2.657295
0
LINE
8
BLACK
6
CONTINUOUS
10
331.9572860000000105
20
-2.657295
11
332.1014869999999632
21
-2.6286109999999998
0
LINE
8
BLACK
6
CONTINUOUS
10
332.1014869999999632
20
-2.6286109999999998
11
332.1750000000000114
21
-2.625
0
LINE
8
BLACK
6
CONTINUOUS
10
332.1750000000000114
20
-2.625
11
333.4749999999999659
21
-2.625
0
LINE
8
BLACK
6
CONTINUOUS
10
333.4749999999999659
20
-2.625
11
333.5485129999999572
21
-2.6286109999999998
0
LINE
8
BLACK
6
CONTINUOUS
10
333.5485129999999572
20
-13.8286109999999987
11
333.6927139999999667
21
-13.8572949999999988
0
LINE
8
BLACK
6
CONTINUOUS
10
333.6927139999999667
20
-13.8572949999999988
11
333.8285480000000121
21
-13.9135589999999993
0
LINE
8
BLACK
6
CONTINUOUS
10
333.8285480000000121
20
-13.9135589999999993
11
333.950794999999971
21
-13.9952419999999993
0
LINE
8
BLACK
6
CONTINUOUS
10
333.950794999999971
20
-13.9952419999999993
11
334.0547579999999925
21
-14.0992049999999995
0
LINE
8
BLACK
6
CONTINUOUS
10
334.0547579999999925
20
-14.0992049999999995
11
334.1364409999999907
21
-14.2214519999999993
0
LINE
8
BLACK
6
CONTINUOUS
10
334.1364409999999907
20
-14.2214519999999993
11
334.1927049999999895
21
-14.3572860000000002
0
LINE
8
BLACK
6
CONTINUOUS
10
334.1927049999999895
20
-14.3572860000000002
11
334.2213889999999878
21
-14.5014869999999991
0
LINE
8
BLACK
6
CONTINUOUS
10
334.2213889999999878
20
-14.5014869999999991
11
334.2213889999999878
21
-14.6485129999999995
0
LINE
8
BLACK
6
CONTINUOUS
10
334.2213889999999878
20
-14.6485129999999995
11
334.1927049999999895
21
-14.7927140000000001
0
LINE
8
BLACK
6
CONTINUOUS
10
334.1927049999999895
20
-14.7927140000000001
11
334.1364409999999907
21
-14.9285479999999993
0
LINE
8
BLACK
6
CONTINUOUS
10
334.1364409999999907
20
-14.9285479999999993
11
334.0547579999999925
21
-15.050794999999999
0
LINE
8
BLACK
6
CONTINUOUS
10
334.0547579999999925
20
-15.050794999999999
11
333.950794999999971
21
-15.1547579999999993
0
LINE
8
BLACK
6
CONTINUOUS
10
333.950794999999971
20
-15.1547579999999993
11
333.8285480000000121
21
-15.2364409999999992
0
LINE
8
BLACK
6
CONTINUOUS
10
333.8285480000000121
20
-15.2364409999999992
11
333.6927139999999667
21
-15.2927049999999998
0
LINE
8
BLACK
6
CONTINUOUS
10
333.6927139999999667
20
-15.2927049999999998
11
333.5485129999999572
21
-15.3213889999999999
0
LINE
8
BLACK
6
CONTINUOUS
10
333.5485129999999572
20
-15.3213889999999999
11
333.4749999999999659
21
-15.3249999999999993
0
LINE
8
BLACK
6
CONTINUOUS
10
333.4749999999999659
20
-15.3249999999999993
11
332.1750000000000114
21
-15.3249999999999993
0
LINE
8
BLACK
6
CONTINUOUS
10
332.1750000000000114
20
-15.3249999999999993
11
332.1014869999999632
21
-15.3213889999999999
0
LINE
8
BLACK
6
CONTINUOUS
10
332.1014869999999632
20
-15.3213889999999999
11
331.9572860000000105
21
-15.2927049999999998
0
LINE
8
BLACK
6
CONTINUOUS
10
331.9572860000000105
20
-15.2927049999999998
11
331.8214519999999652
21
-15.2364409999999992
0
LINE
8
BLACK
6
CONTINUOUS
10
331.8214519999999652
20
-15.2364409999999992
11
331.6992050000000063
21
-15.1547579999999993
0
LINE
8
BLACK
6
CONTINUOUS
10
331.6992050000000063
20
-15.1547579999999993
11
331.5952419999999847
21
-15.050794999999999
0
LINE
8
BLACK
6
CONTINUOUS
10
331.5952419999999847
20
-15.050794999999999
11
331.5135589999999866
21
-14.9285479999999993
0
LINE
8
BLACK
6
CONTINUOUS
10
331.5135589999999866
20
-14.9285479999999993
11
331.4572949999999878
21
-14.7927140000000001
0
LINE
8
BLACK
6
CONTINUOUS
10
331.4572949999999878
20
-14.7927140000000001
11
331.4286109999999894
21
-14.6485129999999995
0
LINE
8
BLACK
6
CONTINUOUS
10
331.4286109999999894
20
-14.6485129999999995
11
331.4286109999999894
21
-14.5014869999999991
0
LINE
8
BLACK
6
CONTINUOUS
10
331.4286109999999894
20
-14.5014869999999991
11
331.4572949999999878
21
-14.3572860000000002
0
LINE
8
BLACK
6
CONTINUOUS
10
331.4572949999999878
20
-14.3572860000000002
11
331.5135589999999866
21
-14.2214519999999993
0
LINE
8
BLACK
6
CONTINUOUS
10
331.5135589999999866
20
-14.2214519999999993
11
331.5952419999999847
21
-14.0992049999999995
0
LINE
8
BLACK
6
CONTINUOUS
10
331.5952419999999847
20
-14.0992049999999995
11
331.6992050000000063
21
-13.9952419999999993
0
LINE
8
BLACK
6
CONTINUOUS
10
331.6992050000000063
20
-13.9952419999999993
11
331.8214519999999652
21
-13.9135589999999993
0
LINE
8
BLACK
6
CONTINUOUS
10
331.8214519999999652
20
-13.9135589999999993
11
331.9572860000000105
21
-13.8572949999999988
0
LINE
8
BLACK
6
CONTINUOUS
10
331.9572860000000105
20
-13.8572949999999988
11
332.1014869999999632
21
-13.8286109999999987
0
LINE
8
BLACK
6
CONTINUOUS
10
332.1014869999999632
20
-13.8286109999999987
11
332.1750000000000114
21
-13.8249999999999993
0
LINE
8
BLACK
6
CONTINUOUS
10
332.1750000000000114
20
-13.8249999999999993
11
333.4749999999999659
21
-13.8249999999999993
0
LINE
8
BLACK
6
CONTINUOUS
10
333.4749999999999659
20
-13.8249999999999993
11
333.5485129999999572
21
-13.8286109999999987
0
CIRCLE
8
BLACK
10
339.8249999999999886
20
-11.4749999999999996
40
0.5
0
CIRCLE
8
BLACK
10
339.8249999999999886
20
-6.4749999999999996
40
0.5
0
CIRCLE
8
BLACK
10
185.1875
20
-78.1899999999999977
40
1.524
0
CIRCLE
8
BLACK
10
185.1875
20
-93.4299999999999926
40
1.9939
0
CIRCLE
8
BLACK
10
209.
20
-78.1899999999999977
40
1.524
0
CIRCLE
8
BLACK
10
209.
20
-93.4299999999999926
40
1.9939
0
CIRCLE
8
BLACK
10
89.6199999999999903
20
-8.9749999999999996
40
0.875
0
CIRCLE
8
BLACK
10
94.6999999999999886
20
-8.9749999999999996
40
1.9939
0
CIRCLE
8
BLACK
10
99.7800000000000011
20
-8.9749999999999996
40
0.875
0
CIRCLE
8
BLACK
10
90.8900000000000006
20
-6.4349999999999996
40
0.762
0
CIRCLE
8
BLACK
10
97.2399999999999949
20
-3.895
40
0.762
0
CIRCLE
8
BLACK
10
256.3075000000000045
20
-47.0749999999999957
40
0.875
0
CIRCLE
8
BLACK
10
261.3874999999999886
20
-47.0749999999999957
40
1.9939
0
CIRCLE
8
BLACK
10
266.4674999999999727
20
-47.0749999999999957
40
0.875
0
CIRCLE
8
BLACK
10
257.5774999999999864
20
-44.5349999999999966
40
0.762
0
CIRCLE
8
BLACK
10
263.9275000000000091
20
-41.9949999999999974
40
0.762
0
CIRCLE
8
BLACK
10
194.3949999999999818
20
-28.0249999999999986
40
0.875
0
CIRCLE
8
BLACK
10
199.4749999999999943
20
-28.0249999999999986
40
1.9939
0
CIRCLE
8
BLACK
10
204.5549999999999784
20
-28.0249999999999986
40
0.875
0
CIRCLE
8
BLACK
10
195.664999999999992
20
-25.4849999999999994
40
0.762
0
CIRCLE
8
BLACK
10
202.0149999999999864
20
-22.9450000000000003
40
0.762
0
CIRCLE
8
BLACK
10
213.4449999999999932
20
-28.0249999999999986
40
0.875
0
CIRCLE
8
BLACK
10
218.5249999999999773
20
-28.0249999999999986
40
1.9939
0
CIRCLE
8
BLACK
10
223.6049999999999898
20
-28.0249999999999986
40
0.875
0
CIRCLE
8
BLACK
10
214.7150000000000034
20
-25.4849999999999994
40
0.762
0
CIRCLE
8
BLACK
10
221.0649999999999977
20
-22.9450000000000003
40
0.762
0
CIRCLE
8
BLACK
10
282.8249999999999886
20
-1.9749999999999999
40
1.524
0
CIRCLE
8
BLACK
10
282.8249999999999886
20
-17.2149999999999999
40
1.9939
0
CIRCLE
8
BLACK
10
306.6374999999999886
20
-1.9749999999999999
40
1.524
0
CIRCLE
8
BLACK
10
306.6374999999999886
20
-17.2149999999999999
40
1.9939
0
CIRCLE
8
BLACK
10
222.9699999999999989
20
-8.9749999999999996
40
0.875
0
CIRCLE
8
BLACK
10
228.0499999999999829
20
-8.9749999999999996
40
1.9939
0
CIRCLE
8
BLACK
10
233.1299999999999955
20
-8.9749999999999996
40
0.875
0
CIRCLE
8
BLACK
10
224.2399999999999807
20
-6.4349999999999996
40
0.762
0
CIRCLE
8
BLACK
10
230.5900000000000034
20
-3.895
40
0.762
0
CIRCLE
8
BLACK
10
132.4824999999999875
20
-66.125
40
0.875
0
CIRCLE
8
BLACK
10
137.5625
20
-66.125
40
1.9939
0
CIRCLE
8
BLACK
10
142.6424999999999841
20
-66.125
40
0.875
0
CIRCLE
8
BLACK
10
133.7524999999999977
20
-63.5849999999999937
40
0.762
0
CIRCLE
8
BLACK
10
140.102499999999992
20
-61.0449999999999946
40
0.762
0
CIRCLE
8
BLACK
10
153.9137499999999932
20
-85.1749999999999972
40
0.875
0
CIRCLE
8
BLACK
10
158.9937500000000057
20
-85.1749999999999972
40
1.9939
0
CIRCLE
8
BLACK
10
164.0737499999999898
20
-85.1749999999999972
40
0.875
0
CIRCLE
8
BLACK
10
155.1837500000000034
20
-82.6349999999999909
40
0.762
0
CIRCLE
8
BLACK
10
161.5337499999999977
20
-80.0949999999999989
40
0.762
0
CIRCLE
8
BLACK
10
34.8512500000000003
20
-85.1749999999999972
40
0.875
0
CIRCLE
8
BLACK
10
39.9312499999999986
20
-85.1749999999999972
40
1.9939
0
CIRCLE
8
BLACK
10
45.0112499999999969
20
-85.1749999999999972
40
0.875
0
CIRCLE
8
BLACK
10
36.1212499999999963
20
-82.6349999999999909
40
0.762
0
CIRCLE
8
BLACK
10
42.4712499999999977
20
-80.0949999999999989
40
0.762
0
CIRCLE
8
BLACK
10
142.0074999999999932
20
-47.0749999999999957
40
0.875
0
CIRCLE
8
BLACK
10
147.0875000000000057
20
-47.0749999999999957
40
1.9939
0
CIRCLE
8
BLACK
10
152.1674999999999898
20
-47.0749999999999957
40
0.875
0
CIRCLE
8
BLACK
10
143.2775000000000034
20
-44.5349999999999966
40
0.762
0
CIRCLE
8
BLACK
10
149.6274999999999977
20
-41.9949999999999974
40
0.762
0
CIRCLE
8
BLACK
10
161.0575000000000045
20
-47.0749999999999957
40
0.875
0
CIRCLE
8
BLACK
10
166.1374999999999886
20
-47.0749999999999957
40
1.9939
0
CIRCLE
8
BLACK
10
171.2175000000000011
20
-47.0749999999999957
40
0.875
0
CIRCLE
8
BLACK
10
162.3274999999999864
20
-44.5349999999999966
40
0.762
0
CIRCLE
8
BLACK
10
168.6774999999999807
20
-41.9949999999999974
40
0.762
0
CIRCLE
8
BLACK
10
199.1574999999999989
20
-47.0749999999999957
40
0.875
0
CIRCLE
8
BLACK
10
204.2374999999999829
20
-47.0749999999999957
40
1.9939
0
CIRCLE
8
BLACK
10
209.3174999999999955
20
-47.0749999999999957
40
0.875
0
CIRCLE
8
BLACK
10
200.4274999999999807
20
-44.5349999999999966
40
0.762
0
CIRCLE
8
BLACK
10
206.7775000000000034
20
-41.9949999999999974
40
0.762
0
CIRCLE
8
BLACK
10
3.895
20
-66.125
40
0.875
0
CIRCLE
8
BLACK
10
8.9749999999999996
20
-66.125
40
1.9939
0
CIRCLE
8
BLACK
10
14.0549999999999997
20
-66.125
40
0.875
0
CIRCLE
8
BLACK
10
5.165
20
-63.5849999999999937
40
0.762
0
CIRCLE
8
BLACK
10
11.5149999999999988
20
-61.0449999999999946
40
0.762
0
CIRCLE
8
BLACK
10
3.895
20
-8.9749999999999996
40
0.875
0
CIRCLE
8
BLACK
10
8.9749999999999996
20
-8.9749999999999996
40
1.9939
0
CIRCLE
8
BLACK
10
14.0549999999999997
20
-8.9749999999999996
40
0.875
0
CIRCLE
8
BLACK
10
5.165
20
-6.4349999999999996
40
0.762
0
CIRCLE
8
BLACK
10
11.5149999999999988
20
-3.895
40
0.762
0
CIRCLE
8
BLACK
10
3.895
20
-28.0249999999999986
40
0.875
0
CIRCLE
8
BLACK
10
8.9749999999999996
20
-28.0249999999999986
40
1.9939
0
CIRCLE
8
BLACK
10
14.0549999999999997
20
-28.0249999999999986
40
0.875
0
CIRCLE
8
BLACK
10
5.165
20
-25.4849999999999994
40
0.762
0
CIRCLE
8
BLACK
10
11.5149999999999988
20
-22.9450000000000003
40
0.762
0
CIRCLE
8
BLACK
10
227.7324999999999875
20
-66.125
40
0.875
0
CIRCLE
8
BLACK
10
232.8125
20
-66.125
40
1.9939
0
CIRCLE
8
BLACK
10
237.8924999999999841
20
-66.125
40
0.875
0
CIRCLE
8
BLACK
10
229.0024999999999977
20
-63.5849999999999937
40
0.762
0
CIRCLE
8
BLACK
10
235.352499999999992
20
-61.0449999999999946
40
0.762
0
CIRCLE
8
BLACK
10
70.5699999999999932
20
-8.9749999999999996
40
0.875
0
CIRCLE
8
BLACK
10
75.6499999999999915
20
-8.9749999999999996
40
1.9939
0
CIRCLE
8
BLACK
10
80.7299999999999898
20
-8.9749999999999996
40
0.875
0
CIRCLE
8
BLACK
10
71.8400000000000034
20
-6.4349999999999996
40
0.762
0
CIRCLE
8
BLACK
10
78.1899999999999977
20
-3.895
40
0.762
0
CIRCLE
8
BLACK
10
99.144999999999996
20
-28.0249999999999986
40
0.875
0
CIRCLE
8
BLACK
10
104.2249999999999943
20
-28.0249999999999986
40
1.9939
0
CIRCLE
8
BLACK
10
109.3049999999999926
20
-28.0249999999999986
40
0.875
0
CIRCLE
8
BLACK
10
100.414999999999992
20
-25.4849999999999994
40
0.762
0
CIRCLE
8
BLACK
10
106.7650000000000006
20
-22.9450000000000003
40
0.762
0
CIRCLE
8
BLACK
10
108.9749999999999943
20
-78.1749999999999972
40
1.524
0
CIRCLE
8
BLACK
10
108.9749999999999943
20
-93.414999999999992
40
1.9939
0
CIRCLE
8
BLACK
10
132.7874999999999943
20
-78.1749999999999972
40
1.524
0
CIRCLE
8
BLACK
10
132.7874999999999943
20
-93.414999999999992
40
1.9939
0
CIRCLE
8
BLACK
10
280.4375
20
-40.1000000000000014
40
1.524
0
CIRCLE
8
BLACK
10
280.4375
20
-55.3399999999999963
40
1.9939
0
CIRCLE
8
BLACK
10
304.25
20
-40.1000000000000014
40
1.524
0
CIRCLE
8
BLACK
10
304.25
20
-55.3399999999999963
40
1.9939
0
CIRCLE
8
BLACK
10
175.3449999999999989
20
-28.0249999999999986
40
0.875
0
CIRCLE
8
BLACK
10
180.4249999999999829
20
-28.0249999999999986
40
1.9939
0
CIRCLE
8
BLACK
10
185.5049999999999955
20
-28.0249999999999986
40
0.875
0
CIRCLE
8
BLACK
10
176.6149999999999807
20
-25.4849999999999994
40
0.762
0
CIRCLE
8
BLACK
10
182.9650000000000034
20
-22.9450000000000003
40
0.762
0
CIRCLE
8
BLACK
10
58.6637500000000003
20
-85.1749999999999972
40
0.875
0
CIRCLE
8
BLACK
10
63.7437499999999986
20
-85.1749999999999972
40
1.9939
0
CIRCLE
8
BLACK
10
68.823750000000004
20
-85.1749999999999972
40
0.875
0
CIRCLE
8
BLACK
10
59.9337499999999963
20
-82.6349999999999909
40
0.762
0
CIRCLE
8
BLACK
10
66.2837499999999977
20
-80.0949999999999989
40
0.762
0
CIRCLE
8
BLACK
10
37.5375000000000014
20
-59.1499999999999986
40
1.524
0
CIRCLE
8
BLACK
10
37.5375000000000014
20
-74.3900000000000006
40
1.9939
0
CIRCLE
8
BLACK
10
61.3499999999999943
20
-59.1499999999999986
40
1.524
0
CIRCLE
8
BLACK
10
61.3499999999999943
20
-74.3900000000000006
40
1.9939
0
CIRCLE
8
BLACK
10
118.1949999999999932
20
-28.0249999999999986
40
0.875
0
CIRCLE
8
BLACK
10
123.2749999999999915
20
-28.0249999999999986
40
1.9939
0
CIRCLE
8
BLACK
10
128.3549999999999898
20
-28.0249999999999986
40
0.875
0
CIRCLE
8
BLACK
10
119.4649999999999892
20
-25.4849999999999994
40
0.762
0
CIRCLE
8
BLACK
10
125.8149999999999977
20
-22.9450000000000003
40
0.762
0
CIRCLE
8
BLACK
10
332.8249999999999886
20
-8.9749999999999996
40
1.9939
0
CIRCLE
8
BLACK
10
232.4949999999999761
20
-28.0249999999999986
40
0.875
0
CIRCLE
8
BLACK
10
237.5749999999999886
20
-28.0249999999999986
40
1.9939
0
CIRCLE
8
BLACK
10
242.6550000000000011
20
-28.0249999999999986
40
0.875
0
CIRCLE
8
BLACK
10
233.7649999999999864
20
-25.4849999999999994
40
0.762
0
CIRCLE
8
BLACK
10
240.1149999999999807
20
-22.9450000000000003
40
0.762
0
CIRCLE
8
BLACK
10
270.5949999999999704
20
-28.0249999999999986
40
0.875
0
CIRCLE
8
BLACK
10
275.6750000000000114
20
-28.0249999999999986
40
1.9939
0
CIRCLE
8
BLACK
10
280.7549999999999955
20
-28.0249999999999986
40
0.875
0
CIRCLE
8
BLACK
10
271.8650000000000091
20
-25.4849999999999994
40
0.762
0
CIRCLE
8
BLACK
10
278.214999999999975
20
-22.9450000000000003
40
0.762
0
CIRCLE
8
BLACK
10
32.4699999999999989
20
-8.9749999999999996
40
0.875
0
CIRCLE
8
BLACK
10
37.5499999999999972
20
-8.9749999999999996
40
1.9939
0
CIRCLE
8
BLACK
10
42.6299999999999955
20
-8.9749999999999996
40
0.875
0
CIRCLE
8
BLACK
10
33.740000000000002
20
-6.4349999999999996
40
0.762
0
CIRCLE
8
BLACK
10
40.0899999999999963
20
-3.895
40
0.762
0
CIRCLE
8
BLACK
10
251.5449999999999875
20
-28.0249999999999986
40
0.875
0
CIRCLE
8
BLACK
10
256.625
20
-28.0249999999999986
40
1.9939
0
CIRCLE
8
BLACK
10
261.7049999999999841
20
-28.0249999999999986
40
0.875
0
CIRCLE
8
BLACK
10
252.8149999999999977
20
-25.4849999999999994
40
0.762
0
CIRCLE
8
BLACK
10
259.1649999999999636
20
-22.9450000000000003
40
0.762
0
CIRCLE
8
BLACK
10
327.7450000000000045
20
-8.9749999999999996
40
0.875
0
CIRCLE
8
BLACK
10
332.8249999999999886
20
-8.9749999999999996
40
1.9939
0
CIRCLE
8
BLACK
10
337.9049999999999727
20
-8.9749999999999996
40
0.875
0
CIRCLE
8
BLACK
10
329.0149999999999864
20
-6.4349999999999996
40
0.762
0
CIRCLE
8
BLACK
10
335.3650000000000091
20
-3.895
40
0.762
0
CIRCLE
8
BLACK
10
80.0949999999999989
20
-28.0249999999999986
40
0.875
0
CIRCLE
8
BLACK
10
85.1749999999999972
20
-28.0249999999999986
40
1.9939
0
CIRCLE
8
BLACK
10
90.2549999999999955
20
-28.0249999999999986
40
0.875
0
CIRCLE
8
BLACK
10
81.3649999999999949
20
-25.4849999999999994
40
0.762
0
CIRCLE
8
BLACK
10
87.7149999999999892
20
-22.9450000000000003
40
0.762
0
CIRCLE
8
BLACK
10
146.7699999999999818
20
-8.9749999999999996
40
0.875
0
CIRCLE
8
BLACK
10
151.8499999999999943
20
-8.9749999999999996
40
1.9939
0
CIRCLE
8
BLACK
10
156.9300000000000068
20
-8.9749999999999996
40
0.875
0
CIRCLE
8
BLACK
10
148.039999999999992
20
-6.4349999999999996
40
0.762
0
CIRCLE
8
BLACK
10
154.3899999999999864
20
-3.895
40
0.762
0
CIRCLE
8
BLACK
10
165.8199999999999932
20
-8.9749999999999996
40
0.875
0
CIRCLE
8
BLACK
10
170.9000000000000057
20
-8.9749999999999996
40
1.9939
0
CIRCLE
8
BLACK
10
175.9799999999999898
20
-8.9749999999999996
40
0.875
0
CIRCLE
8
BLACK
10
167.0900000000000034
20
-6.4349999999999996
40
0.762
0
CIRCLE
8
BLACK
10
173.4399999999999977
20
-3.895
40
0.762
0
CIRCLE
8
BLACK
10
303.9325000000000045
20
-89.9375
40
0.875
0
CIRCLE
8
BLACK
10
309.0124999999999886
20
-89.9375
40
1.9939
0
CIRCLE
8
BLACK
10
314.0924999999999727
20
-89.9375
40
0.875
0
CIRCLE
8
BLACK
10
305.2024999999999864
20
-87.3974999999999937
40
0.762
0
CIRCLE
8
BLACK
10
311.5525000000000091
20
-84.8575000000000017
40
0.762
0
CIRCLE
8
BLACK
10
303.9325000000000045
20
-70.875
40
0.875
0
CIRCLE
8
BLACK
10
309.0124999999999886
20
-70.875
40
1.9939
0
CIRCLE
8
BLACK
10
314.0924999999999727
20
-70.875
40
0.875
0
CIRCLE
8
BLACK
10
305.2024999999999864
20
-68.3349999999999937
40
0.762
0
CIRCLE
8
BLACK
10
311.5525000000000091
20
-65.7950000000000017
40
0.762
0
CIRCLE
8
BLACK
10
127.7199999999999989
20
-8.9749999999999996
40
0.875
0
CIRCLE
8
BLACK
10
132.7999999999999829
20
-8.9749999999999996
40
1.9939
0
CIRCLE
8
BLACK
10
137.8799999999999955
20
-8.9749999999999996
40
0.875
0
CIRCLE
8
BLACK
10
128.9899999999999807
20
-6.4349999999999996
40
0.762
0
CIRCLE
8
BLACK
10
135.3400000000000034
20
-3.895
40
0.762
0
CIRCLE
8
BLACK
10
61.0449999999999946
20
-28.0249999999999986
40
0.875
0
CIRCLE
8
BLACK
10
66.125
20
-28.0249999999999986
40
1.9939
0
CIRCLE
8
BLACK
10
71.2049999999999983
20
-28.0249999999999986
40
0.875
0
CIRCLE
8
BLACK
10
62.3149999999999977
20
-25.4849999999999994
40
0.762
0
CIRCLE
8
BLACK
10
68.664999999999992
20
-22.9450000000000003
40
0.762
0
CIRCLE
8
BLACK
10
3.895
20
-85.1749999999999972
40
0.875
0
CIRCLE
8
BLACK
10
8.9749999999999996
20
-85.1749999999999972
40
1.9939
0
CIRCLE
8
BLACK
10
14.0549999999999997
20
-85.1749999999999972
40
0.875
0
CIRCLE
8
BLACK
10
5.165
20
-82.6349999999999909
40
0.762
0
CIRCLE
8
BLACK
10
11.5149999999999988
20
-80.0949999999999989
40
0.762
0
CIRCLE
8
BLACK
10
51.519999999999996
20
-8.9749999999999996
40
0.875
0
CIRCLE
8
BLACK
10
56.5999999999999943
20
-8.9749999999999996
40
1.9939
0
CIRCLE
8
BLACK
10
61.6799999999999997
20
-8.9749999999999996
40
0.875
0
CIRCLE
8
BLACK
10
52.7899999999999991
20
-6.4349999999999996
40
0.762
0
CIRCLE
8
BLACK
10
59.1400000000000006
20
-3.895
40
0.762
0
CIRCLE
8
BLACK
10
65.8074999999999903
20
-47.0749999999999957
40
0.875
0
CIRCLE
8
BLACK
10
70.8875000000000028
20
-47.0749999999999957
40
1.9939
0
CIRCLE
8
BLACK
10
75.9675000000000011
20
-47.0749999999999957
40
0.875
0
CIRCLE
8
BLACK
10
67.0775000000000006
20
-44.5349999999999966
40
0.762
0
CIRCLE
8
BLACK
10
73.4274999999999949
20
-41.9949999999999974
40
0.762
0
CIRCLE
8
BLACK
10
151.5324999999999989
20
-66.125
40
0.875
0
CIRCLE
8
BLACK
10
156.6124999999999829
20
-66.125
40
1.9939
0
CIRCLE
8
BLACK
10
161.6924999999999955
20
-66.125
40
0.875
0
CIRCLE
8
BLACK
10
152.8024999999999807
20
-63.5849999999999937
40
0.762
0
CIRCLE
8
BLACK
10
159.1525000000000034
20
-61.0449999999999946
40
0.762
0
CIRCLE
8
BLACK
10
246.7824999999999989
20
-66.125
40
0.875
0
CIRCLE
8
BLACK
10
251.8624999999999829
20
-66.125
40
1.9939
0
CIRCLE
8
BLACK
10
256.9424999999999955
20
-66.125
40
0.875
0
CIRCLE
8
BLACK
10
248.0524999999999807
20
-63.5849999999999937
40
0.762
0
CIRCLE
8
BLACK
10
254.402499999999975
20
-61.0449999999999946
40
0.762
0
CIRCLE
8
BLACK
10
180.1074999999999875
20
-47.0749999999999957
40
0.875
0
CIRCLE
8
BLACK
10
185.1875
20
-47.0749999999999957
40
1.9939
0
CIRCLE
8
BLACK
10
190.2674999999999841
20
-47.0749999999999957
40
0.875
0
CIRCLE
8
BLACK
10
181.3774999999999977
20
-44.5349999999999966
40
0.762
0
CIRCLE
8
BLACK
10
187.727499999999992
20
-41.9949999999999974
40
0.762
0
CIRCLE
8
BLACK
10
94.3824999999999932
20
-66.125
40
0.875
0
CIRCLE
8
BLACK
10
99.4624999999999915
20
-66.125
40
1.9939
0
CIRCLE
8
BLACK
10
104.5424999999999898
20
-66.125
40
0.875
0
CIRCLE
8
BLACK
10
95.6524999999999892
20
-63.5849999999999937
40
0.762
0
CIRCLE
8
BLACK
10
102.0024999999999977
20
-61.0449999999999946
40
0.762
0
CIRCLE
8
BLACK
10
189.6324999999999932
20
-66.125
40
0.875
0
CIRCLE
8
BLACK
10
194.7124999999999773
20
-66.125
40
1.9939
0
CIRCLE
8
BLACK
10
199.7924999999999898
20
-66.125
40
0.875
0
CIRCLE
8
BLACK
10
190.9025000000000034
20
-63.5849999999999937
40
0.762
0
CIRCLE
8
BLACK
10
197.2524999999999977
20
-61.0449999999999946
40
0.762
0
CIRCLE
8
BLACK
10
115.8137499999999989
20
-85.1749999999999972
40
0.875
0
CIRCLE
8
BLACK
10
120.8937499999999972
20
-85.1749999999999972
40
1.9939
0
CIRCLE
8
BLACK
10
125.9737499999999955
20
-85.1749999999999972
40
0.875
0
CIRCLE
8
BLACK
10
117.0837499999999949
20
-82.6349999999999909
40
0.762
0
CIRCLE
8
BLACK
10
123.4337499999999892
20
-80.0949999999999989
40
0.762
0
CIRCLE
8
BLACK
10
327.7450000000000045
20
-47.0749999999999957
40
0.875
0
CIRCLE
8
BLACK
10
332.8249999999999886
20
-47.0749999999999957
40
1.9939
0
CIRCLE
8
BLACK
10
337.9049999999999727
20
-47.0749999999999957
40
0.875
0
CIRCLE
8
BLACK
10
329.0149999999999864
20
-44.5349999999999966
40
0.762
0
CIRCLE
8
BLACK
10
335.3650000000000091
20
-41.9949999999999974
40
0.762
0
CIRCLE
8
BLACK
10
75.332499999999996
20
-66.125
40
0.875
0
CIRCLE
8
BLACK
10
80.4124999999999943
20
-66.125
40
1.9939
0
CIRCLE
8
BLACK
10
85.4924999999999926
20
-66.125
40
0.875
0
CIRCLE
8
BLACK
10
76.602499999999992
20
-63.5849999999999937
40
0.762
0
CIRCLE
8
BLACK
10
82.9525000000000006
20
-61.0449999999999946
40
0.762
0
CIRCLE
8
BLACK
10
289.6449999999999818
20
-8.9749999999999996
40
0.875
0
CIRCLE
8
BLACK
10
294.7249999999999659
20
-8.9749999999999996
40
1.9939
0
CIRCLE
8
BLACK
10
299.8050000000000068
20
-8.9749999999999996
40
0.875
0
CIRCLE
8
BLACK
10
290.9149999999999636
20
-6.4349999999999996
40
0.762
0
CIRCLE
8
BLACK
10
297.2649999999999864
20
-3.895
40
0.762
0
CIRCLE
8
BLACK
10
261.0699999999999932
20
-8.9749999999999996
40
0.875
0
CIRCLE
8
BLACK
10
266.1499999999999773
20
-8.9749999999999996
40
1.9939
0
CIRCLE
8
BLACK
10
271.2299999999999613
20
-8.9749999999999996
40
0.875
0
CIRCLE
8
BLACK
10
262.339999999999975
20
-6.4349999999999996
40
0.762
0
CIRCLE
8
BLACK
10
268.6899999999999977
20
-3.895
40
0.762
0
CIRCLE
8
BLACK
10
203.9199999999999875
20
-8.9749999999999996
40
0.875
0
CIRCLE
8
BLACK
10
209.
20
-8.9749999999999996
40
1.9939
0
CIRCLE
8
BLACK
10
214.0799999999999841
20
-8.9749999999999996
40
0.875
0
CIRCLE
8
BLACK
10
205.1899999999999977
20
-6.4349999999999996
40
0.762
0
CIRCLE
8
BLACK
10
211.539999999999992
20
-3.895
40
0.762
0
CIRCLE
8
BLACK
10
287.2637499999999591
20
-47.0749999999999957
40
0.875
0
CIRCLE
8
BLACK
10
292.34375
20
-47.0749999999999957
40
1.9939
0
CIRCLE
8
BLACK
10
297.4237499999999841
20
-47.0749999999999957
40
0.875
0
CIRCLE
8
BLACK
10
288.5337499999999977
20
-44.5349999999999966
40
0.762
0
CIRCLE
8
BLACK
10
294.8837499999999636
20
-41.9949999999999974
40
0.762
0
CIRCLE
8
BLACK
10
137.2450000000000045
20
-28.0249999999999986
40
0.875
0
CIRCLE
8
BLACK
10
142.3249999999999886
20
-28.0249999999999986
40
1.9939
0
CIRCLE
8
BLACK
10
147.4050000000000011
20
-28.0249999999999986
40
0.875
0
CIRCLE
8
BLACK
10
138.5149999999999864
20
-25.4849999999999994
40
0.762
0
CIRCLE
8
BLACK
10
144.8649999999999807
20
-22.9450000000000003
40
0.762
0
CIRCLE
8
BLACK
10
103.9074999999999989
20
-47.0749999999999957
40
0.875
0
CIRCLE
8
BLACK
10
108.9874999999999972
20
-47.0749999999999957
40
1.9939
0
CIRCLE
8
BLACK
10
114.0674999999999955
20
-47.0749999999999957
40
0.875
0
CIRCLE
8
BLACK
10
105.1774999999999949
20
-44.5349999999999966
40
0.762
0
CIRCLE
8
BLACK
10
111.5274999999999892
20
-41.9949999999999974
40
0.762
0
CIRCLE
8
BLACK
10
242.0199999999999818
20
-8.9749999999999996
40
0.875
0
CIRCLE
8
BLACK
10
247.0999999999999943
20
-8.9749999999999996
40
1.9939
0
CIRCLE
8
BLACK
10
252.1799999999999784
20
-8.9749999999999996
40
0.875
0
CIRCLE
8
BLACK
10
243.289999999999992
20
-6.4349999999999996
40
0.762
0
CIRCLE
8
BLACK
10
249.6399999999999864
20
-3.895
40
0.762
0
CIRCLE
8
BLACK
10
122.957499999999996
20
-47.0749999999999957
40
0.875
0
CIRCLE
8
BLACK
10
128.0374999999999943
20
-47.0749999999999957
40
1.9939
0
CIRCLE
8
BLACK
10
133.1175000000000068
20
-47.0749999999999957
40
0.875
0
CIRCLE
8
BLACK
10
124.227499999999992
20
-44.5349999999999966
40
0.762
0
CIRCLE
8
BLACK
10
130.5774999999999864
20
-41.9949999999999974
40
0.762
0
CIRCLE
8
BLACK
10
18.7749999999999986
20
-75.3250000000000028
40
0.5
0
CIRCLE
8
BLACK
10
21.3149999999999977
20
-75.3250000000000028
40
0.5
0
CIRCLE
8
BLACK
10
23.8550000000000004
20
-75.3250000000000028
40
0.5
0
CIRCLE
8
BLACK
10
26.3949999999999996
20
-75.3250000000000028
40
0.5
0
CIRCLE
8
BLACK
10
28.9349999999999987
20
-75.3250000000000028
40
0.5
0
CIRCLE
8
BLACK
10
31.4749999999999979
20
-75.3250000000000028
40
0.5
  0
ENDSEC
  0
EOF
